G75*
%MOIN*%
%OFA0B0*%
%FSLAX25Y25*%
%IPPOS*%
%LPD*%
%AMOC8*
5,1,8,0,0,1.08239X$1,22.5*
%
%ADD10C,0.00000*%
%ADD11OC8,0.05200*%
%ADD12R,0.05000X0.02500*%
%ADD13C,0.05543*%
%ADD14C,0.00787*%
D10*
X0001394Y0001394D02*
X0001394Y0068323D01*
X0113598Y0068323D01*
X0113598Y0001394D01*
X0001394Y0001394D01*
D11*
X0073480Y0010724D03*
X0073480Y0020724D03*
X0098205Y0034661D03*
X0098205Y0044661D03*
X0077693Y0053047D03*
X0067693Y0053047D03*
D12*
X0053283Y0053638D03*
X0042654Y0053638D03*
X0042654Y0049898D03*
X0042654Y0046157D03*
X0053283Y0046157D03*
D13*
X0013835Y0044976D03*
X0013835Y0037102D03*
D14*
X0013835Y0039651D01*
X0010069Y0043417D01*
X0010069Y0046536D01*
X0015675Y0052141D01*
X0044150Y0052141D01*
X0045565Y0052141D01*
X0046147Y0051559D01*
X0046147Y0048236D01*
X0045565Y0047654D01*
X0044150Y0047654D01*
X0042654Y0046157D01*
X0044069Y0046157D01*
X0045565Y0047654D01*
X0046642Y0046768D02*
X0049790Y0046768D01*
X0049790Y0047554D02*
X0047427Y0047554D01*
X0047535Y0047661D02*
X0047535Y0052134D01*
X0046953Y0052716D01*
X0046147Y0053521D01*
X0046147Y0055299D01*
X0045565Y0055881D01*
X0039742Y0055881D01*
X0039160Y0055299D01*
X0039160Y0053529D01*
X0015100Y0053529D01*
X0014287Y0052716D01*
X0008682Y0047111D01*
X0008682Y0042842D01*
X0011466Y0040058D01*
X0010643Y0039235D01*
X0010069Y0037851D01*
X0010069Y0036353D01*
X0010643Y0034969D01*
X0011702Y0033910D01*
X0013086Y0033337D01*
X0014584Y0033337D01*
X0015968Y0033910D01*
X0017027Y0034969D01*
X0017600Y0036353D01*
X0017600Y0037851D01*
X0017027Y0039235D01*
X0015968Y0040294D01*
X0014584Y0040868D01*
X0014580Y0040868D01*
X0014572Y0040876D01*
X0014810Y0040914D01*
X0015434Y0041116D01*
X0016018Y0041414D01*
X0016548Y0041799D01*
X0017012Y0042263D01*
X0017397Y0042793D01*
X0017695Y0043377D01*
X0017897Y0044001D01*
X0017990Y0044583D01*
X0014228Y0044583D01*
X0014228Y0045370D01*
X0017990Y0045370D01*
X0017897Y0045952D01*
X0017695Y0046575D01*
X0017397Y0047159D01*
X0017012Y0047690D01*
X0016548Y0048154D01*
X0016018Y0048539D01*
X0015434Y0048837D01*
X0014810Y0049039D01*
X0014572Y0049077D01*
X0016249Y0050754D01*
X0038760Y0050754D01*
X0038760Y0050129D01*
X0042422Y0050129D01*
X0042422Y0049666D01*
X0038760Y0049666D01*
X0038760Y0048464D01*
X0038855Y0048110D01*
X0039038Y0047792D01*
X0039160Y0047670D01*
X0039160Y0044496D01*
X0039742Y0043914D01*
X0045565Y0043914D01*
X0046147Y0044496D01*
X0046147Y0046274D01*
X0046953Y0047079D01*
X0047535Y0047661D01*
X0047535Y0048340D02*
X0050311Y0048340D01*
X0050372Y0048401D02*
X0049790Y0047819D01*
X0049790Y0044496D01*
X0050372Y0043914D01*
X0053565Y0043914D01*
X0072093Y0025386D01*
X0072093Y0024318D01*
X0071992Y0024318D01*
X0069887Y0022213D01*
X0069887Y0019236D01*
X0071992Y0017131D01*
X0074969Y0017131D01*
X0077074Y0019236D01*
X0077074Y0022213D01*
X0074969Y0024318D01*
X0074868Y0024318D01*
X0074868Y0026535D01*
X0056777Y0044626D01*
X0056777Y0047819D01*
X0056195Y0048401D01*
X0050372Y0048401D01*
X0047535Y0049126D02*
X0091778Y0049126D01*
X0090992Y0049912D02*
X0079640Y0049912D01*
X0079181Y0049454D02*
X0081287Y0051559D01*
X0081287Y0051660D01*
X0089244Y0051660D01*
X0094683Y0046221D01*
X0094611Y0046150D01*
X0094611Y0043173D01*
X0096716Y0041068D01*
X0099693Y0041068D01*
X0101798Y0043173D01*
X0101798Y0046150D01*
X0099693Y0048255D01*
X0096716Y0048255D01*
X0096645Y0048184D01*
X0090394Y0054435D01*
X0081287Y0054435D01*
X0081287Y0054536D01*
X0079181Y0056641D01*
X0076204Y0056641D01*
X0074099Y0054536D01*
X0074099Y0051559D01*
X0076204Y0049454D01*
X0079181Y0049454D01*
X0080426Y0050698D02*
X0090206Y0050698D01*
X0089420Y0051484D02*
X0081212Y0051484D01*
X0077693Y0053047D02*
X0089819Y0053047D01*
X0098205Y0044661D01*
X0101798Y0044410D02*
X0109205Y0044410D01*
X0109205Y0043625D02*
X0101798Y0043625D01*
X0101464Y0042839D02*
X0109205Y0042839D01*
X0109205Y0042053D02*
X0100678Y0042053D01*
X0099892Y0041267D02*
X0109205Y0041267D01*
X0109205Y0040481D02*
X0060922Y0040481D01*
X0060136Y0041267D02*
X0096517Y0041267D01*
X0095731Y0042053D02*
X0059350Y0042053D01*
X0058564Y0042839D02*
X0094945Y0042839D01*
X0094611Y0043625D02*
X0057778Y0043625D01*
X0056993Y0044410D02*
X0094611Y0044410D01*
X0094611Y0045196D02*
X0056777Y0045196D01*
X0056777Y0045982D02*
X0094611Y0045982D01*
X0094136Y0046768D02*
X0056777Y0046768D01*
X0056777Y0047554D02*
X0093350Y0047554D01*
X0092564Y0048340D02*
X0056256Y0048340D01*
X0053283Y0046157D02*
X0073480Y0025961D01*
X0073480Y0020724D01*
X0069887Y0020833D02*
X0005787Y0020833D01*
X0005787Y0020047D02*
X0069887Y0020047D01*
X0069887Y0019261D02*
X0005787Y0019261D01*
X0005787Y0018475D02*
X0070647Y0018475D01*
X0071433Y0017689D02*
X0005787Y0017689D01*
X0005787Y0016904D02*
X0109205Y0016904D01*
X0109205Y0017689D02*
X0075528Y0017689D01*
X0076314Y0018475D02*
X0109205Y0018475D01*
X0109205Y0019261D02*
X0077074Y0019261D01*
X0077074Y0020047D02*
X0109205Y0020047D01*
X0109205Y0020833D02*
X0077074Y0020833D01*
X0077074Y0021619D02*
X0109205Y0021619D01*
X0109205Y0022405D02*
X0076882Y0022405D01*
X0076096Y0023191D02*
X0109205Y0023191D01*
X0109205Y0023977D02*
X0075310Y0023977D01*
X0074868Y0024763D02*
X0109205Y0024763D01*
X0109205Y0025549D02*
X0074868Y0025549D01*
X0074868Y0026334D02*
X0109205Y0026334D01*
X0109205Y0027120D02*
X0074283Y0027120D01*
X0073497Y0027906D02*
X0109205Y0027906D01*
X0109205Y0028692D02*
X0072711Y0028692D01*
X0071925Y0029478D02*
X0109205Y0029478D01*
X0109205Y0030264D02*
X0071139Y0030264D01*
X0070353Y0031050D02*
X0096168Y0031050D01*
X0096550Y0030668D02*
X0094211Y0033007D01*
X0094211Y0034268D01*
X0097811Y0034268D01*
X0097811Y0035055D01*
X0094211Y0035055D01*
X0094211Y0036316D01*
X0096550Y0038655D01*
X0097811Y0038655D01*
X0097811Y0035055D01*
X0098598Y0035055D01*
X0098598Y0038655D01*
X0099859Y0038655D01*
X0102198Y0036316D01*
X0102198Y0035055D01*
X0098598Y0035055D01*
X0098598Y0034268D01*
X0098598Y0030668D01*
X0099859Y0030668D01*
X0102198Y0033007D01*
X0102198Y0034268D01*
X0098598Y0034268D01*
X0097811Y0034268D01*
X0097811Y0030668D01*
X0096550Y0030668D01*
X0097811Y0031050D02*
X0098598Y0031050D01*
X0098598Y0031836D02*
X0097811Y0031836D01*
X0097811Y0032622D02*
X0098598Y0032622D01*
X0098598Y0033408D02*
X0097811Y0033408D01*
X0097811Y0034194D02*
X0098598Y0034194D01*
X0098205Y0034661D02*
X0074268Y0010724D01*
X0073480Y0010724D01*
X0040291Y0043914D01*
X0039742Y0043914D01*
X0039160Y0044496D01*
X0039160Y0047819D01*
X0036317Y0044976D01*
X0013835Y0044976D01*
X0014228Y0045196D02*
X0039160Y0045196D01*
X0039160Y0045982D02*
X0017888Y0045982D01*
X0017597Y0046768D02*
X0039160Y0046768D01*
X0039160Y0047554D02*
X0017110Y0047554D01*
X0016291Y0048340D02*
X0038793Y0048340D01*
X0039160Y0047819D02*
X0039742Y0048401D01*
X0040764Y0048401D01*
X0041157Y0048401D01*
X0042654Y0049898D01*
X0042422Y0049912D02*
X0015407Y0049912D01*
X0014621Y0049126D02*
X0038760Y0049126D01*
X0038760Y0050698D02*
X0016193Y0050698D01*
X0013841Y0052270D02*
X0005787Y0052270D01*
X0005787Y0051484D02*
X0013055Y0051484D01*
X0012269Y0050698D02*
X0005787Y0050698D01*
X0005787Y0049912D02*
X0011483Y0049912D01*
X0010697Y0049126D02*
X0005787Y0049126D01*
X0005787Y0048340D02*
X0009911Y0048340D01*
X0009125Y0047554D02*
X0005787Y0047554D01*
X0005787Y0046768D02*
X0008682Y0046768D01*
X0008682Y0045982D02*
X0005787Y0045982D01*
X0005787Y0045196D02*
X0008682Y0045196D01*
X0008682Y0044410D02*
X0005787Y0044410D01*
X0005787Y0043625D02*
X0008682Y0043625D01*
X0008685Y0042839D02*
X0005787Y0042839D01*
X0005787Y0042053D02*
X0009471Y0042053D01*
X0010257Y0041267D02*
X0005787Y0041267D01*
X0005787Y0040481D02*
X0011043Y0040481D01*
X0011102Y0039695D02*
X0005787Y0039695D01*
X0005787Y0038909D02*
X0010507Y0038909D01*
X0010182Y0038123D02*
X0005787Y0038123D01*
X0005787Y0037337D02*
X0010069Y0037337D01*
X0010069Y0036551D02*
X0005787Y0036551D01*
X0005787Y0035765D02*
X0010313Y0035765D01*
X0010638Y0034980D02*
X0005787Y0034980D01*
X0005787Y0034194D02*
X0011418Y0034194D01*
X0012915Y0033408D02*
X0005787Y0033408D01*
X0005787Y0032622D02*
X0064857Y0032622D01*
X0064071Y0033408D02*
X0014754Y0033408D01*
X0016251Y0034194D02*
X0063285Y0034194D01*
X0062499Y0034980D02*
X0017031Y0034980D01*
X0017356Y0035765D02*
X0061713Y0035765D01*
X0060927Y0036551D02*
X0017600Y0036551D01*
X0017600Y0037337D02*
X0060142Y0037337D01*
X0059356Y0038123D02*
X0017487Y0038123D01*
X0017162Y0038909D02*
X0058570Y0038909D01*
X0057784Y0039695D02*
X0016567Y0039695D01*
X0015517Y0040481D02*
X0056998Y0040481D01*
X0056212Y0041267D02*
X0015729Y0041267D01*
X0016802Y0042053D02*
X0055426Y0042053D01*
X0054640Y0042839D02*
X0017420Y0042839D01*
X0017775Y0043625D02*
X0053854Y0043625D01*
X0049875Y0044410D02*
X0046062Y0044410D01*
X0046147Y0045196D02*
X0049790Y0045196D01*
X0049790Y0045982D02*
X0046147Y0045982D01*
X0047535Y0049912D02*
X0065746Y0049912D01*
X0066204Y0049454D02*
X0069181Y0049454D01*
X0071287Y0051559D01*
X0071287Y0054536D01*
X0069181Y0056641D01*
X0066204Y0056641D01*
X0064099Y0054536D01*
X0064099Y0054435D01*
X0056777Y0054435D01*
X0056777Y0055299D01*
X0056195Y0055881D01*
X0050372Y0055881D01*
X0049790Y0055299D01*
X0049790Y0051976D01*
X0050372Y0051394D01*
X0056195Y0051394D01*
X0056461Y0051660D01*
X0064099Y0051660D01*
X0064099Y0051559D01*
X0066204Y0049454D01*
X0064960Y0050698D02*
X0047535Y0050698D01*
X0047535Y0051484D02*
X0050282Y0051484D01*
X0049790Y0052270D02*
X0047399Y0052270D01*
X0046613Y0053056D02*
X0049790Y0053056D01*
X0049790Y0053841D02*
X0046147Y0053841D01*
X0046147Y0054627D02*
X0049790Y0054627D01*
X0049904Y0055413D02*
X0046033Y0055413D01*
X0044150Y0052141D02*
X0042654Y0053638D01*
X0039160Y0053841D02*
X0005787Y0053841D01*
X0005787Y0053056D02*
X0014627Y0053056D01*
X0005787Y0054627D02*
X0039160Y0054627D01*
X0039274Y0055413D02*
X0005787Y0055413D01*
X0005787Y0056199D02*
X0065763Y0056199D01*
X0064977Y0055413D02*
X0056663Y0055413D01*
X0056777Y0054627D02*
X0064191Y0054627D01*
X0067693Y0053047D02*
X0053874Y0053047D01*
X0053283Y0053638D01*
X0056285Y0051484D02*
X0064174Y0051484D01*
X0069640Y0049912D02*
X0075746Y0049912D01*
X0074960Y0050698D02*
X0070426Y0050698D01*
X0071212Y0051484D02*
X0074174Y0051484D01*
X0074099Y0052270D02*
X0071287Y0052270D01*
X0071287Y0053056D02*
X0074099Y0053056D01*
X0074099Y0053841D02*
X0071287Y0053841D01*
X0071195Y0054627D02*
X0074191Y0054627D01*
X0074977Y0055413D02*
X0070409Y0055413D01*
X0069623Y0056199D02*
X0075763Y0056199D01*
X0079623Y0056199D02*
X0109205Y0056199D01*
X0109205Y0055413D02*
X0080409Y0055413D01*
X0081195Y0054627D02*
X0109205Y0054627D01*
X0109205Y0053841D02*
X0090987Y0053841D01*
X0091773Y0053056D02*
X0109205Y0053056D01*
X0109205Y0052270D02*
X0092559Y0052270D01*
X0093345Y0051484D02*
X0109205Y0051484D01*
X0109205Y0050698D02*
X0094130Y0050698D01*
X0094916Y0049912D02*
X0109205Y0049912D01*
X0109205Y0049126D02*
X0095702Y0049126D01*
X0096488Y0048340D02*
X0109205Y0048340D01*
X0109205Y0047554D02*
X0100394Y0047554D01*
X0101180Y0046768D02*
X0109205Y0046768D01*
X0109205Y0045982D02*
X0101798Y0045982D01*
X0101798Y0045196D02*
X0109205Y0045196D01*
X0109205Y0039695D02*
X0061708Y0039695D01*
X0062494Y0038909D02*
X0109205Y0038909D01*
X0109205Y0038123D02*
X0100391Y0038123D01*
X0101177Y0037337D02*
X0109205Y0037337D01*
X0109205Y0036551D02*
X0101963Y0036551D01*
X0102198Y0035765D02*
X0109205Y0035765D01*
X0109205Y0034980D02*
X0098598Y0034980D01*
X0098598Y0035765D02*
X0097811Y0035765D01*
X0097811Y0034980D02*
X0066423Y0034980D01*
X0065638Y0035765D02*
X0094211Y0035765D01*
X0094447Y0036551D02*
X0064852Y0036551D01*
X0064066Y0037337D02*
X0095233Y0037337D01*
X0096019Y0038123D02*
X0063280Y0038123D01*
X0067209Y0034194D02*
X0094211Y0034194D01*
X0094211Y0033408D02*
X0067995Y0033408D01*
X0068781Y0032622D02*
X0094596Y0032622D01*
X0095382Y0031836D02*
X0069567Y0031836D01*
X0067215Y0030264D02*
X0005787Y0030264D01*
X0005787Y0029478D02*
X0068001Y0029478D01*
X0068787Y0028692D02*
X0005787Y0028692D01*
X0005787Y0027906D02*
X0069573Y0027906D01*
X0070358Y0027120D02*
X0005787Y0027120D01*
X0005787Y0026334D02*
X0071144Y0026334D01*
X0071930Y0025549D02*
X0005787Y0025549D01*
X0005787Y0024763D02*
X0072093Y0024763D01*
X0071650Y0023977D02*
X0005787Y0023977D01*
X0005787Y0023191D02*
X0070865Y0023191D01*
X0070079Y0022405D02*
X0005787Y0022405D01*
X0005787Y0021619D02*
X0069887Y0021619D01*
X0071826Y0014718D02*
X0069487Y0012379D01*
X0069487Y0011118D01*
X0073087Y0011118D01*
X0073087Y0014718D01*
X0071826Y0014718D01*
X0071654Y0014546D02*
X0005787Y0014546D01*
X0005787Y0015332D02*
X0109205Y0015332D01*
X0109205Y0014546D02*
X0075307Y0014546D01*
X0075135Y0014718D02*
X0073874Y0014718D01*
X0073874Y0011118D01*
X0077474Y0011118D01*
X0077474Y0012379D01*
X0075135Y0014718D01*
X0073874Y0014546D02*
X0073087Y0014546D01*
X0073087Y0013760D02*
X0073874Y0013760D01*
X0073874Y0012974D02*
X0073087Y0012974D01*
X0073087Y0012188D02*
X0073874Y0012188D01*
X0073874Y0011402D02*
X0073087Y0011402D01*
X0073087Y0011118D02*
X0073874Y0011118D01*
X0073874Y0010331D01*
X0077474Y0010331D01*
X0077474Y0009070D01*
X0075135Y0006731D01*
X0073874Y0006731D01*
X0073874Y0010331D01*
X0073087Y0010331D01*
X0073087Y0006731D01*
X0071826Y0006731D01*
X0069487Y0009070D01*
X0069487Y0010331D01*
X0073087Y0010331D01*
X0073087Y0011118D01*
X0073087Y0010616D02*
X0005787Y0010616D01*
X0005787Y0009830D02*
X0069487Y0009830D01*
X0069512Y0009044D02*
X0005787Y0009044D01*
X0005787Y0008259D02*
X0070298Y0008259D01*
X0071084Y0007473D02*
X0005787Y0007473D01*
X0005787Y0006687D02*
X0109205Y0006687D01*
X0109205Y0007473D02*
X0075876Y0007473D01*
X0076662Y0008259D02*
X0109205Y0008259D01*
X0109205Y0009044D02*
X0077448Y0009044D01*
X0077474Y0009830D02*
X0109205Y0009830D01*
X0109205Y0010616D02*
X0073874Y0010616D01*
X0073874Y0009830D02*
X0073087Y0009830D01*
X0073087Y0009044D02*
X0073874Y0009044D01*
X0073874Y0008259D02*
X0073087Y0008259D01*
X0073087Y0007473D02*
X0073874Y0007473D01*
X0077474Y0011402D02*
X0109205Y0011402D01*
X0109205Y0012188D02*
X0077474Y0012188D01*
X0076879Y0012974D02*
X0109205Y0012974D01*
X0109205Y0013760D02*
X0076093Y0013760D01*
X0070868Y0013760D02*
X0005787Y0013760D01*
X0005787Y0012974D02*
X0070082Y0012974D01*
X0069487Y0012188D02*
X0005787Y0012188D01*
X0005787Y0011402D02*
X0069487Y0011402D01*
X0066429Y0031050D02*
X0005787Y0031050D01*
X0005787Y0031836D02*
X0065643Y0031836D01*
X0039245Y0044410D02*
X0017962Y0044410D01*
X0005787Y0056985D02*
X0109205Y0056985D01*
X0109205Y0057771D02*
X0005787Y0057771D01*
X0005787Y0058557D02*
X0109205Y0058557D01*
X0109205Y0059343D02*
X0005787Y0059343D01*
X0005787Y0060129D02*
X0109205Y0060129D01*
X0109205Y0060915D02*
X0005787Y0060915D01*
X0005787Y0061701D02*
X0109205Y0061701D01*
X0109205Y0062486D02*
X0005787Y0062486D01*
X0005787Y0063272D02*
X0109205Y0063272D01*
X0109205Y0063929D02*
X0109205Y0005787D01*
X0005787Y0005787D01*
X0005787Y0063929D01*
X0109205Y0063929D01*
X0098598Y0038123D02*
X0097811Y0038123D01*
X0097811Y0037337D02*
X0098598Y0037337D01*
X0098598Y0036551D02*
X0097811Y0036551D01*
X0102198Y0034194D02*
X0109205Y0034194D01*
X0109205Y0033408D02*
X0102198Y0033408D01*
X0101813Y0032622D02*
X0109205Y0032622D01*
X0109205Y0031836D02*
X0101027Y0031836D01*
X0100241Y0031050D02*
X0109205Y0031050D01*
X0109205Y0016118D02*
X0005787Y0016118D01*
X0005787Y0005901D02*
X0109205Y0005901D01*
M02*
