G75*
%MOIN*%
%OFA0B0*%
%FSLAX25Y25*%
%IPPOS*%
%LPD*%
%AMOC8*
5,1,8,0,0,1.08239X$1,22.5*
%
%ADD10C,0.00600*%
%ADD11C,0.01200*%
%ADD12R,0.01500X0.02000*%
%ADD13C,0.01000*%
%ADD14C,0.00500*%
D10*
X0131500Y0034500D02*
X0131500Y0047500D01*
X0131502Y0047587D01*
X0131508Y0047674D01*
X0131517Y0047761D01*
X0131530Y0047847D01*
X0131547Y0047933D01*
X0131568Y0048018D01*
X0131593Y0048101D01*
X0131621Y0048184D01*
X0131652Y0048265D01*
X0131687Y0048345D01*
X0131726Y0048423D01*
X0131768Y0048500D01*
X0131813Y0048575D01*
X0131862Y0048647D01*
X0131913Y0048718D01*
X0131968Y0048786D01*
X0132025Y0048851D01*
X0132086Y0048914D01*
X0132149Y0048975D01*
X0132214Y0049032D01*
X0132282Y0049087D01*
X0132353Y0049138D01*
X0132425Y0049187D01*
X0132500Y0049232D01*
X0132577Y0049274D01*
X0132655Y0049313D01*
X0132735Y0049348D01*
X0132816Y0049379D01*
X0132899Y0049407D01*
X0132982Y0049432D01*
X0133067Y0049453D01*
X0133153Y0049470D01*
X0133239Y0049483D01*
X0133326Y0049492D01*
X0133413Y0049498D01*
X0133500Y0049500D01*
X0138500Y0049500D01*
X0138587Y0049498D01*
X0138674Y0049492D01*
X0138761Y0049483D01*
X0138847Y0049470D01*
X0138933Y0049453D01*
X0139018Y0049432D01*
X0139101Y0049407D01*
X0139184Y0049379D01*
X0139265Y0049348D01*
X0139345Y0049313D01*
X0139423Y0049274D01*
X0139500Y0049232D01*
X0139575Y0049187D01*
X0139647Y0049138D01*
X0139718Y0049087D01*
X0139786Y0049032D01*
X0139851Y0048975D01*
X0139914Y0048914D01*
X0139975Y0048851D01*
X0140032Y0048786D01*
X0140087Y0048718D01*
X0140138Y0048647D01*
X0140187Y0048575D01*
X0140232Y0048500D01*
X0140274Y0048423D01*
X0140313Y0048345D01*
X0140348Y0048265D01*
X0140379Y0048184D01*
X0140407Y0048101D01*
X0140432Y0048018D01*
X0140453Y0047933D01*
X0140470Y0047847D01*
X0140483Y0047761D01*
X0140492Y0047674D01*
X0140498Y0047587D01*
X0140500Y0047500D01*
X0140500Y0034500D01*
X0140498Y0034413D01*
X0140492Y0034326D01*
X0140483Y0034239D01*
X0140470Y0034153D01*
X0140453Y0034067D01*
X0140432Y0033982D01*
X0140407Y0033899D01*
X0140379Y0033816D01*
X0140348Y0033735D01*
X0140313Y0033655D01*
X0140274Y0033577D01*
X0140232Y0033500D01*
X0140187Y0033425D01*
X0140138Y0033353D01*
X0140087Y0033282D01*
X0140032Y0033214D01*
X0139975Y0033149D01*
X0139914Y0033086D01*
X0139851Y0033025D01*
X0139786Y0032968D01*
X0139718Y0032913D01*
X0139647Y0032862D01*
X0139575Y0032813D01*
X0139500Y0032768D01*
X0139423Y0032726D01*
X0139345Y0032687D01*
X0139265Y0032652D01*
X0139184Y0032621D01*
X0139101Y0032593D01*
X0139018Y0032568D01*
X0138933Y0032547D01*
X0138847Y0032530D01*
X0138761Y0032517D01*
X0138674Y0032508D01*
X0138587Y0032502D01*
X0138500Y0032500D01*
X0133500Y0032500D01*
X0133413Y0032502D01*
X0133326Y0032508D01*
X0133239Y0032517D01*
X0133153Y0032530D01*
X0133067Y0032547D01*
X0132982Y0032568D01*
X0132899Y0032593D01*
X0132816Y0032621D01*
X0132735Y0032652D01*
X0132655Y0032687D01*
X0132577Y0032726D01*
X0132500Y0032768D01*
X0132425Y0032813D01*
X0132353Y0032862D01*
X0132282Y0032913D01*
X0132214Y0032968D01*
X0132149Y0033025D01*
X0132086Y0033086D01*
X0132025Y0033149D01*
X0131968Y0033214D01*
X0131913Y0033282D01*
X0131862Y0033353D01*
X0131813Y0033425D01*
X0131768Y0033500D01*
X0131726Y0033577D01*
X0131687Y0033655D01*
X0131652Y0033735D01*
X0131621Y0033816D01*
X0131593Y0033899D01*
X0131568Y0033982D01*
X0131547Y0034067D01*
X0131530Y0034153D01*
X0131517Y0034239D01*
X0131508Y0034326D01*
X0131502Y0034413D01*
X0131500Y0034500D01*
X0142000Y0020000D02*
X0143500Y0020000D01*
X0144000Y0019500D01*
X0158000Y0019500D01*
X0158500Y0020000D01*
X0160000Y0020000D01*
X0160060Y0019998D01*
X0160121Y0019993D01*
X0160180Y0019984D01*
X0160239Y0019971D01*
X0160298Y0019955D01*
X0160355Y0019935D01*
X0160410Y0019912D01*
X0160465Y0019885D01*
X0160517Y0019856D01*
X0160568Y0019823D01*
X0160617Y0019787D01*
X0160663Y0019749D01*
X0160707Y0019707D01*
X0160749Y0019663D01*
X0160787Y0019617D01*
X0160823Y0019568D01*
X0160856Y0019517D01*
X0160885Y0019465D01*
X0160912Y0019410D01*
X0160935Y0019355D01*
X0160955Y0019298D01*
X0160971Y0019239D01*
X0160984Y0019180D01*
X0160993Y0019121D01*
X0160998Y0019060D01*
X0161000Y0019000D01*
X0161000Y0013000D01*
X0160998Y0012940D01*
X0160993Y0012879D01*
X0160984Y0012820D01*
X0160971Y0012761D01*
X0160955Y0012702D01*
X0160935Y0012645D01*
X0160912Y0012590D01*
X0160885Y0012535D01*
X0160856Y0012483D01*
X0160823Y0012432D01*
X0160787Y0012383D01*
X0160749Y0012337D01*
X0160707Y0012293D01*
X0160663Y0012251D01*
X0160617Y0012213D01*
X0160568Y0012177D01*
X0160517Y0012144D01*
X0160465Y0012115D01*
X0160410Y0012088D01*
X0160355Y0012065D01*
X0160298Y0012045D01*
X0160239Y0012029D01*
X0160180Y0012016D01*
X0160121Y0012007D01*
X0160060Y0012002D01*
X0160000Y0012000D01*
X0158500Y0012000D01*
X0158000Y0012500D01*
X0144000Y0012500D01*
X0143500Y0012000D01*
X0142000Y0012000D01*
X0141940Y0012002D01*
X0141879Y0012007D01*
X0141820Y0012016D01*
X0141761Y0012029D01*
X0141702Y0012045D01*
X0141645Y0012065D01*
X0141590Y0012088D01*
X0141535Y0012115D01*
X0141483Y0012144D01*
X0141432Y0012177D01*
X0141383Y0012213D01*
X0141337Y0012251D01*
X0141293Y0012293D01*
X0141251Y0012337D01*
X0141213Y0012383D01*
X0141177Y0012432D01*
X0141144Y0012483D01*
X0141115Y0012535D01*
X0141088Y0012590D01*
X0141065Y0012645D01*
X0141045Y0012702D01*
X0141029Y0012761D01*
X0141016Y0012820D01*
X0141007Y0012879D01*
X0141002Y0012940D01*
X0141000Y0013000D01*
X0141000Y0019000D01*
X0141002Y0019060D01*
X0141007Y0019121D01*
X0141016Y0019180D01*
X0141029Y0019239D01*
X0141045Y0019298D01*
X0141065Y0019355D01*
X0141088Y0019410D01*
X0141115Y0019465D01*
X0141144Y0019517D01*
X0141177Y0019568D01*
X0141213Y0019617D01*
X0141251Y0019663D01*
X0141293Y0019707D01*
X0141337Y0019749D01*
X0141383Y0019787D01*
X0141432Y0019823D01*
X0141483Y0019856D01*
X0141535Y0019885D01*
X0141590Y0019912D01*
X0141645Y0019935D01*
X0141702Y0019955D01*
X0141761Y0019971D01*
X0141820Y0019984D01*
X0141879Y0019993D01*
X0141940Y0019998D01*
X0142000Y0020000D01*
X0189000Y0050000D02*
X0189500Y0049500D01*
X0189000Y0050000D02*
X0189000Y0052000D01*
X0189500Y0052500D01*
X0192500Y0052500D02*
X0193000Y0052000D01*
X0193000Y0050000D01*
X0192500Y0049500D01*
X0192500Y0052500D02*
X0192435Y0052562D01*
X0192367Y0052622D01*
X0192297Y0052678D01*
X0192225Y0052732D01*
X0192150Y0052782D01*
X0192073Y0052829D01*
X0191995Y0052873D01*
X0191914Y0052914D01*
X0191832Y0052951D01*
X0191749Y0052984D01*
X0191664Y0053014D01*
X0191578Y0053041D01*
X0191491Y0053063D01*
X0191403Y0053082D01*
X0191314Y0053098D01*
X0191225Y0053109D01*
X0191135Y0053117D01*
X0191045Y0053121D01*
X0190955Y0053121D01*
X0190865Y0053117D01*
X0190775Y0053109D01*
X0190686Y0053098D01*
X0190597Y0053082D01*
X0190509Y0053063D01*
X0190422Y0053041D01*
X0190336Y0053014D01*
X0190251Y0052984D01*
X0190168Y0052951D01*
X0190086Y0052914D01*
X0190005Y0052873D01*
X0189927Y0052829D01*
X0189850Y0052782D01*
X0189775Y0052732D01*
X0189703Y0052678D01*
X0189633Y0052622D01*
X0189565Y0052562D01*
X0189500Y0052500D01*
X0190000Y0051000D02*
X0190002Y0050940D01*
X0190007Y0050879D01*
X0190016Y0050820D01*
X0190029Y0050761D01*
X0190045Y0050702D01*
X0190065Y0050645D01*
X0190088Y0050590D01*
X0190115Y0050535D01*
X0190144Y0050483D01*
X0190177Y0050432D01*
X0190213Y0050383D01*
X0190251Y0050337D01*
X0190293Y0050293D01*
X0190337Y0050251D01*
X0190383Y0050213D01*
X0190432Y0050177D01*
X0190483Y0050144D01*
X0190535Y0050115D01*
X0190590Y0050088D01*
X0190645Y0050065D01*
X0190702Y0050045D01*
X0190761Y0050029D01*
X0190820Y0050016D01*
X0190879Y0050007D01*
X0190940Y0050002D01*
X0191000Y0050000D01*
X0192000Y0051000D02*
X0191998Y0051060D01*
X0191993Y0051121D01*
X0191984Y0051180D01*
X0191971Y0051239D01*
X0191955Y0051298D01*
X0191935Y0051355D01*
X0191912Y0051410D01*
X0191885Y0051465D01*
X0191856Y0051517D01*
X0191823Y0051568D01*
X0191787Y0051617D01*
X0191749Y0051663D01*
X0191707Y0051707D01*
X0191663Y0051749D01*
X0191617Y0051787D01*
X0191568Y0051823D01*
X0191517Y0051856D01*
X0191465Y0051885D01*
X0191410Y0051912D01*
X0191355Y0051935D01*
X0191298Y0051955D01*
X0191239Y0051971D01*
X0191180Y0051984D01*
X0191121Y0051993D01*
X0191060Y0051998D01*
X0191000Y0052000D01*
X0160500Y0059500D02*
X0160500Y0072500D01*
X0160498Y0072587D01*
X0160492Y0072674D01*
X0160483Y0072761D01*
X0160470Y0072847D01*
X0160453Y0072933D01*
X0160432Y0073018D01*
X0160407Y0073101D01*
X0160379Y0073184D01*
X0160348Y0073265D01*
X0160313Y0073345D01*
X0160274Y0073423D01*
X0160232Y0073500D01*
X0160187Y0073575D01*
X0160138Y0073647D01*
X0160087Y0073718D01*
X0160032Y0073786D01*
X0159975Y0073851D01*
X0159914Y0073914D01*
X0159851Y0073975D01*
X0159786Y0074032D01*
X0159718Y0074087D01*
X0159647Y0074138D01*
X0159575Y0074187D01*
X0159500Y0074232D01*
X0159423Y0074274D01*
X0159345Y0074313D01*
X0159265Y0074348D01*
X0159184Y0074379D01*
X0159101Y0074407D01*
X0159018Y0074432D01*
X0158933Y0074453D01*
X0158847Y0074470D01*
X0158761Y0074483D01*
X0158674Y0074492D01*
X0158587Y0074498D01*
X0158500Y0074500D01*
X0153500Y0074500D01*
X0153413Y0074498D01*
X0153326Y0074492D01*
X0153239Y0074483D01*
X0153153Y0074470D01*
X0153067Y0074453D01*
X0152982Y0074432D01*
X0152899Y0074407D01*
X0152816Y0074379D01*
X0152735Y0074348D01*
X0152655Y0074313D01*
X0152577Y0074274D01*
X0152500Y0074232D01*
X0152425Y0074187D01*
X0152353Y0074138D01*
X0152282Y0074087D01*
X0152214Y0074032D01*
X0152149Y0073975D01*
X0152086Y0073914D01*
X0152025Y0073851D01*
X0151968Y0073786D01*
X0151913Y0073718D01*
X0151862Y0073647D01*
X0151813Y0073575D01*
X0151768Y0073500D01*
X0151726Y0073423D01*
X0151687Y0073345D01*
X0151652Y0073265D01*
X0151621Y0073184D01*
X0151593Y0073101D01*
X0151568Y0073018D01*
X0151547Y0072933D01*
X0151530Y0072847D01*
X0151517Y0072761D01*
X0151508Y0072674D01*
X0151502Y0072587D01*
X0151500Y0072500D01*
X0151500Y0059500D01*
X0151502Y0059413D01*
X0151508Y0059326D01*
X0151517Y0059239D01*
X0151530Y0059153D01*
X0151547Y0059067D01*
X0151568Y0058982D01*
X0151593Y0058899D01*
X0151621Y0058816D01*
X0151652Y0058735D01*
X0151687Y0058655D01*
X0151726Y0058577D01*
X0151768Y0058500D01*
X0151813Y0058425D01*
X0151862Y0058353D01*
X0151913Y0058282D01*
X0151968Y0058214D01*
X0152025Y0058149D01*
X0152086Y0058086D01*
X0152149Y0058025D01*
X0152214Y0057968D01*
X0152282Y0057913D01*
X0152353Y0057862D01*
X0152425Y0057813D01*
X0152500Y0057768D01*
X0152577Y0057726D01*
X0152655Y0057687D01*
X0152735Y0057652D01*
X0152816Y0057621D01*
X0152899Y0057593D01*
X0152982Y0057568D01*
X0153067Y0057547D01*
X0153153Y0057530D01*
X0153239Y0057517D01*
X0153326Y0057508D01*
X0153413Y0057502D01*
X0153500Y0057500D01*
X0158500Y0057500D01*
X0158587Y0057502D01*
X0158674Y0057508D01*
X0158761Y0057517D01*
X0158847Y0057530D01*
X0158933Y0057547D01*
X0159018Y0057568D01*
X0159101Y0057593D01*
X0159184Y0057621D01*
X0159265Y0057652D01*
X0159345Y0057687D01*
X0159423Y0057726D01*
X0159500Y0057768D01*
X0159575Y0057813D01*
X0159647Y0057862D01*
X0159718Y0057913D01*
X0159786Y0057968D01*
X0159851Y0058025D01*
X0159914Y0058086D01*
X0159975Y0058149D01*
X0160032Y0058214D01*
X0160087Y0058282D01*
X0160138Y0058353D01*
X0160187Y0058425D01*
X0160232Y0058500D01*
X0160274Y0058577D01*
X0160313Y0058655D01*
X0160348Y0058735D01*
X0160379Y0058816D01*
X0160407Y0058899D01*
X0160432Y0058982D01*
X0160453Y0059067D01*
X0160470Y0059153D01*
X0160483Y0059239D01*
X0160492Y0059326D01*
X0160498Y0059413D01*
X0160500Y0059500D01*
D11*
X0159000Y0064700D02*
X0153000Y0064700D01*
X0153000Y0067200D02*
X0159000Y0067200D01*
X0139000Y0042300D02*
X0133000Y0042300D01*
X0133000Y0039800D02*
X0139000Y0039800D01*
D12*
X0140250Y0016000D03*
X0161750Y0016000D03*
D13*
X0040764Y0038283D02*
X0040764Y0064661D01*
X0040764Y0064662D02*
X0040672Y0064664D01*
X0040580Y0064670D01*
X0040489Y0064680D01*
X0040398Y0064693D01*
X0040308Y0064711D01*
X0040218Y0064732D01*
X0040130Y0064757D01*
X0040043Y0064786D01*
X0039957Y0064818D01*
X0039872Y0064854D01*
X0039789Y0064894D01*
X0039708Y0064937D01*
X0039629Y0064983D01*
X0039552Y0065033D01*
X0039477Y0065086D01*
X0039404Y0065143D01*
X0039334Y0065202D01*
X0039266Y0065264D01*
X0039201Y0065329D01*
X0039139Y0065397D01*
X0039080Y0065467D01*
X0039023Y0065540D01*
X0038970Y0065615D01*
X0038920Y0065692D01*
X0038874Y0065771D01*
X0038831Y0065852D01*
X0038791Y0065935D01*
X0038755Y0066020D01*
X0038723Y0066106D01*
X0038694Y0066193D01*
X0038669Y0066281D01*
X0038648Y0066371D01*
X0038630Y0066461D01*
X0038617Y0066552D01*
X0038607Y0066643D01*
X0038601Y0066735D01*
X0038599Y0066827D01*
X0038601Y0066919D01*
X0038607Y0067011D01*
X0038617Y0067102D01*
X0038630Y0067193D01*
X0038648Y0067283D01*
X0038669Y0067373D01*
X0038694Y0067461D01*
X0038723Y0067548D01*
X0038755Y0067634D01*
X0038791Y0067719D01*
X0038831Y0067802D01*
X0038874Y0067883D01*
X0038920Y0067962D01*
X0038970Y0068039D01*
X0039023Y0068114D01*
X0039080Y0068187D01*
X0039139Y0068257D01*
X0039201Y0068325D01*
X0039266Y0068390D01*
X0039334Y0068452D01*
X0039404Y0068511D01*
X0039477Y0068568D01*
X0039552Y0068621D01*
X0039629Y0068671D01*
X0039708Y0068717D01*
X0039789Y0068760D01*
X0039872Y0068800D01*
X0039957Y0068836D01*
X0040043Y0068868D01*
X0040130Y0068897D01*
X0040218Y0068922D01*
X0040308Y0068943D01*
X0040398Y0068961D01*
X0040489Y0068974D01*
X0040580Y0068984D01*
X0040672Y0068990D01*
X0040764Y0068992D01*
X0040764Y0075291D01*
X0061236Y0075291D01*
X0061236Y0038283D01*
X0040764Y0038283D01*
X0040370Y0043008D02*
X0037614Y0043008D01*
X0038007Y0043402D02*
X0037919Y0043269D01*
X0037828Y0043138D01*
X0037734Y0043009D01*
X0037636Y0042882D01*
X0037536Y0042758D01*
X0037432Y0042637D01*
X0037326Y0042518D01*
X0037216Y0042401D01*
X0037104Y0042287D01*
X0036989Y0042176D01*
X0036872Y0042068D01*
X0036752Y0041963D01*
X0036629Y0041861D01*
X0036504Y0041762D01*
X0036376Y0041666D01*
X0036246Y0041573D01*
X0036114Y0041483D01*
X0035980Y0041396D01*
X0035844Y0041313D01*
X0035705Y0041233D01*
X0035565Y0041156D01*
X0035423Y0041083D01*
X0035280Y0041014D01*
X0035134Y0040948D01*
X0034987Y0040885D01*
X0034839Y0040826D01*
X0034689Y0040771D01*
X0034538Y0040719D01*
X0034385Y0040671D01*
X0034232Y0040627D01*
X0034077Y0040587D01*
X0033922Y0040550D01*
X0033766Y0040517D01*
X0033609Y0040488D01*
X0033451Y0040463D01*
X0033293Y0040442D01*
X0033134Y0040424D01*
X0032975Y0040411D01*
X0032815Y0040401D01*
X0032656Y0040395D01*
X0032496Y0040393D01*
X0032336Y0040395D01*
X0032177Y0040401D01*
X0032017Y0040411D01*
X0031858Y0040424D01*
X0031699Y0040442D01*
X0031541Y0040463D01*
X0031383Y0040488D01*
X0031226Y0040517D01*
X0031070Y0040550D01*
X0030915Y0040587D01*
X0030760Y0040627D01*
X0030607Y0040671D01*
X0030454Y0040719D01*
X0030303Y0040771D01*
X0030153Y0040826D01*
X0030005Y0040885D01*
X0029858Y0040948D01*
X0029712Y0041014D01*
X0029569Y0041083D01*
X0029427Y0041156D01*
X0029287Y0041233D01*
X0029148Y0041313D01*
X0029012Y0041396D01*
X0028878Y0041483D01*
X0028746Y0041573D01*
X0028616Y0041666D01*
X0028488Y0041762D01*
X0028363Y0041861D01*
X0028240Y0041963D01*
X0028120Y0042068D01*
X0028003Y0042176D01*
X0027888Y0042287D01*
X0027776Y0042401D01*
X0027666Y0042518D01*
X0027560Y0042637D01*
X0027456Y0042758D01*
X0027356Y0042882D01*
X0027258Y0043009D01*
X0027164Y0043138D01*
X0027073Y0043269D01*
X0026985Y0043402D01*
X0026984Y0043402D02*
X0026984Y0050488D01*
X0026985Y0050488D02*
X0027073Y0050621D01*
X0027164Y0050752D01*
X0027258Y0050881D01*
X0027356Y0051008D01*
X0027456Y0051132D01*
X0027560Y0051253D01*
X0027666Y0051372D01*
X0027776Y0051489D01*
X0027888Y0051603D01*
X0028003Y0051714D01*
X0028120Y0051822D01*
X0028240Y0051927D01*
X0028363Y0052029D01*
X0028488Y0052128D01*
X0028616Y0052224D01*
X0028746Y0052317D01*
X0028878Y0052407D01*
X0029012Y0052494D01*
X0029148Y0052577D01*
X0029287Y0052657D01*
X0029427Y0052734D01*
X0029569Y0052807D01*
X0029712Y0052876D01*
X0029858Y0052942D01*
X0030005Y0053005D01*
X0030153Y0053064D01*
X0030303Y0053119D01*
X0030454Y0053171D01*
X0030607Y0053219D01*
X0030760Y0053263D01*
X0030915Y0053303D01*
X0031070Y0053340D01*
X0031226Y0053373D01*
X0031383Y0053402D01*
X0031541Y0053427D01*
X0031699Y0053448D01*
X0031858Y0053466D01*
X0032017Y0053479D01*
X0032177Y0053489D01*
X0032336Y0053495D01*
X0032496Y0053497D01*
X0032656Y0053495D01*
X0032815Y0053489D01*
X0032975Y0053479D01*
X0033134Y0053466D01*
X0033293Y0053448D01*
X0033451Y0053427D01*
X0033609Y0053402D01*
X0033766Y0053373D01*
X0033922Y0053340D01*
X0034077Y0053303D01*
X0034232Y0053263D01*
X0034385Y0053219D01*
X0034538Y0053171D01*
X0034689Y0053119D01*
X0034839Y0053064D01*
X0034987Y0053005D01*
X0035134Y0052942D01*
X0035280Y0052876D01*
X0035423Y0052807D01*
X0035565Y0052734D01*
X0035705Y0052657D01*
X0035844Y0052577D01*
X0035980Y0052494D01*
X0036114Y0052407D01*
X0036246Y0052317D01*
X0036376Y0052224D01*
X0036504Y0052128D01*
X0036629Y0052029D01*
X0036752Y0051927D01*
X0036872Y0051822D01*
X0036989Y0051714D01*
X0037104Y0051603D01*
X0037216Y0051489D01*
X0037326Y0051372D01*
X0037432Y0051253D01*
X0037536Y0051132D01*
X0037636Y0051008D01*
X0037734Y0050881D01*
X0037828Y0050752D01*
X0037919Y0050621D01*
X0038007Y0050488D01*
X0037614Y0050882D02*
X0040370Y0050882D01*
X0061630Y0050882D02*
X0064386Y0050882D01*
X0063993Y0043402D02*
X0064081Y0043269D01*
X0064172Y0043138D01*
X0064266Y0043009D01*
X0064364Y0042882D01*
X0064464Y0042758D01*
X0064568Y0042637D01*
X0064674Y0042518D01*
X0064784Y0042401D01*
X0064896Y0042287D01*
X0065011Y0042176D01*
X0065128Y0042068D01*
X0065248Y0041963D01*
X0065371Y0041861D01*
X0065496Y0041762D01*
X0065624Y0041666D01*
X0065754Y0041573D01*
X0065886Y0041483D01*
X0066020Y0041396D01*
X0066156Y0041313D01*
X0066295Y0041233D01*
X0066435Y0041156D01*
X0066577Y0041083D01*
X0066720Y0041014D01*
X0066866Y0040948D01*
X0067013Y0040885D01*
X0067161Y0040826D01*
X0067311Y0040771D01*
X0067462Y0040719D01*
X0067615Y0040671D01*
X0067768Y0040627D01*
X0067923Y0040587D01*
X0068078Y0040550D01*
X0068234Y0040517D01*
X0068391Y0040488D01*
X0068549Y0040463D01*
X0068707Y0040442D01*
X0068866Y0040424D01*
X0069025Y0040411D01*
X0069185Y0040401D01*
X0069344Y0040395D01*
X0069504Y0040393D01*
X0069664Y0040395D01*
X0069823Y0040401D01*
X0069983Y0040411D01*
X0070142Y0040424D01*
X0070301Y0040442D01*
X0070459Y0040463D01*
X0070617Y0040488D01*
X0070774Y0040517D01*
X0070930Y0040550D01*
X0071085Y0040587D01*
X0071240Y0040627D01*
X0071393Y0040671D01*
X0071546Y0040719D01*
X0071697Y0040771D01*
X0071847Y0040826D01*
X0071995Y0040885D01*
X0072142Y0040948D01*
X0072288Y0041014D01*
X0072431Y0041083D01*
X0072573Y0041156D01*
X0072713Y0041233D01*
X0072852Y0041313D01*
X0072988Y0041396D01*
X0073122Y0041483D01*
X0073254Y0041573D01*
X0073384Y0041666D01*
X0073512Y0041762D01*
X0073637Y0041861D01*
X0073760Y0041963D01*
X0073880Y0042068D01*
X0073997Y0042176D01*
X0074112Y0042287D01*
X0074224Y0042401D01*
X0074334Y0042518D01*
X0074440Y0042637D01*
X0074544Y0042758D01*
X0074644Y0042882D01*
X0074742Y0043009D01*
X0074836Y0043138D01*
X0074927Y0043269D01*
X0075015Y0043402D01*
X0075016Y0043402D02*
X0075016Y0050488D01*
X0075015Y0050488D02*
X0074927Y0050621D01*
X0074836Y0050752D01*
X0074742Y0050881D01*
X0074644Y0051008D01*
X0074544Y0051132D01*
X0074440Y0051253D01*
X0074334Y0051372D01*
X0074224Y0051489D01*
X0074112Y0051603D01*
X0073997Y0051714D01*
X0073880Y0051822D01*
X0073760Y0051927D01*
X0073637Y0052029D01*
X0073512Y0052128D01*
X0073384Y0052224D01*
X0073254Y0052317D01*
X0073122Y0052407D01*
X0072988Y0052494D01*
X0072852Y0052577D01*
X0072713Y0052657D01*
X0072573Y0052734D01*
X0072431Y0052807D01*
X0072288Y0052876D01*
X0072142Y0052942D01*
X0071995Y0053005D01*
X0071847Y0053064D01*
X0071697Y0053119D01*
X0071546Y0053171D01*
X0071393Y0053219D01*
X0071240Y0053263D01*
X0071085Y0053303D01*
X0070930Y0053340D01*
X0070774Y0053373D01*
X0070617Y0053402D01*
X0070459Y0053427D01*
X0070301Y0053448D01*
X0070142Y0053466D01*
X0069983Y0053479D01*
X0069823Y0053489D01*
X0069664Y0053495D01*
X0069504Y0053497D01*
X0069344Y0053495D01*
X0069185Y0053489D01*
X0069025Y0053479D01*
X0068866Y0053466D01*
X0068707Y0053448D01*
X0068549Y0053427D01*
X0068391Y0053402D01*
X0068234Y0053373D01*
X0068078Y0053340D01*
X0067923Y0053303D01*
X0067768Y0053263D01*
X0067615Y0053219D01*
X0067462Y0053171D01*
X0067311Y0053119D01*
X0067161Y0053064D01*
X0067013Y0053005D01*
X0066866Y0052942D01*
X0066720Y0052876D01*
X0066577Y0052807D01*
X0066435Y0052734D01*
X0066295Y0052657D01*
X0066156Y0052577D01*
X0066020Y0052494D01*
X0065886Y0052407D01*
X0065754Y0052317D01*
X0065624Y0052224D01*
X0065496Y0052128D01*
X0065371Y0052029D01*
X0065248Y0051927D01*
X0065128Y0051822D01*
X0065011Y0051714D01*
X0064896Y0051603D01*
X0064784Y0051489D01*
X0064674Y0051372D01*
X0064568Y0051253D01*
X0064464Y0051132D01*
X0064364Y0051008D01*
X0064266Y0050881D01*
X0064172Y0050752D01*
X0064081Y0050621D01*
X0063993Y0050488D01*
X0064386Y0043008D02*
X0061630Y0043008D01*
D14*
X0096000Y0074500D02*
X0115000Y0074500D01*
X0115000Y0087000D01*
X0096000Y0087000D01*
X0096000Y0074500D01*
M02*
