G75*
%MOIN*%
%OFA0B0*%
%FSLAX25Y25*%
%IPPOS*%
%LPD*%
%AMOC8*
5,1,8,0,0,1.08239X$1,22.5*
%
%ADD10C,0.00000*%
%ADD11OC8,0.05200*%
%ADD12R,0.08268X0.08268*%
%ADD13R,0.04331X0.02362*%
%ADD14C,0.02000*%
%ADD15C,0.02978*%
D10*
X0001000Y0001000D02*
X0001000Y0105961D01*
X0229701Y0105961D01*
X0229701Y0001000D01*
X0001000Y0001000D01*
X0026590Y0046984D02*
X0026592Y0047137D01*
X0026598Y0047291D01*
X0026608Y0047444D01*
X0026622Y0047596D01*
X0026640Y0047749D01*
X0026662Y0047900D01*
X0026687Y0048051D01*
X0026717Y0048202D01*
X0026751Y0048352D01*
X0026788Y0048500D01*
X0026829Y0048648D01*
X0026874Y0048794D01*
X0026923Y0048940D01*
X0026976Y0049084D01*
X0027032Y0049226D01*
X0027092Y0049367D01*
X0027156Y0049507D01*
X0027223Y0049645D01*
X0027294Y0049781D01*
X0027369Y0049915D01*
X0027446Y0050047D01*
X0027528Y0050177D01*
X0027612Y0050305D01*
X0027700Y0050431D01*
X0027791Y0050554D01*
X0027885Y0050675D01*
X0027983Y0050793D01*
X0028083Y0050909D01*
X0028187Y0051022D01*
X0028293Y0051133D01*
X0028402Y0051241D01*
X0028514Y0051346D01*
X0028628Y0051447D01*
X0028746Y0051546D01*
X0028865Y0051642D01*
X0028987Y0051735D01*
X0029112Y0051824D01*
X0029239Y0051911D01*
X0029368Y0051993D01*
X0029499Y0052073D01*
X0029632Y0052149D01*
X0029767Y0052222D01*
X0029904Y0052291D01*
X0030043Y0052356D01*
X0030183Y0052418D01*
X0030325Y0052476D01*
X0030468Y0052531D01*
X0030613Y0052582D01*
X0030759Y0052629D01*
X0030906Y0052672D01*
X0031054Y0052711D01*
X0031203Y0052747D01*
X0031353Y0052778D01*
X0031504Y0052806D01*
X0031655Y0052830D01*
X0031808Y0052850D01*
X0031960Y0052866D01*
X0032113Y0052878D01*
X0032266Y0052886D01*
X0032419Y0052890D01*
X0032573Y0052890D01*
X0032726Y0052886D01*
X0032879Y0052878D01*
X0033032Y0052866D01*
X0033184Y0052850D01*
X0033337Y0052830D01*
X0033488Y0052806D01*
X0033639Y0052778D01*
X0033789Y0052747D01*
X0033938Y0052711D01*
X0034086Y0052672D01*
X0034233Y0052629D01*
X0034379Y0052582D01*
X0034524Y0052531D01*
X0034667Y0052476D01*
X0034809Y0052418D01*
X0034949Y0052356D01*
X0035088Y0052291D01*
X0035225Y0052222D01*
X0035360Y0052149D01*
X0035493Y0052073D01*
X0035624Y0051993D01*
X0035753Y0051911D01*
X0035880Y0051824D01*
X0036005Y0051735D01*
X0036127Y0051642D01*
X0036246Y0051546D01*
X0036364Y0051447D01*
X0036478Y0051346D01*
X0036590Y0051241D01*
X0036699Y0051133D01*
X0036805Y0051022D01*
X0036909Y0050909D01*
X0037009Y0050793D01*
X0037107Y0050675D01*
X0037201Y0050554D01*
X0037292Y0050431D01*
X0037380Y0050305D01*
X0037464Y0050177D01*
X0037546Y0050047D01*
X0037623Y0049915D01*
X0037698Y0049781D01*
X0037769Y0049645D01*
X0037836Y0049507D01*
X0037900Y0049367D01*
X0037960Y0049226D01*
X0038016Y0049084D01*
X0038069Y0048940D01*
X0038118Y0048794D01*
X0038163Y0048648D01*
X0038204Y0048500D01*
X0038241Y0048352D01*
X0038275Y0048202D01*
X0038305Y0048051D01*
X0038330Y0047900D01*
X0038352Y0047749D01*
X0038370Y0047596D01*
X0038384Y0047444D01*
X0038394Y0047291D01*
X0038400Y0047137D01*
X0038402Y0046984D01*
X0038400Y0046831D01*
X0038394Y0046677D01*
X0038384Y0046524D01*
X0038370Y0046372D01*
X0038352Y0046219D01*
X0038330Y0046068D01*
X0038305Y0045917D01*
X0038275Y0045766D01*
X0038241Y0045616D01*
X0038204Y0045468D01*
X0038163Y0045320D01*
X0038118Y0045174D01*
X0038069Y0045028D01*
X0038016Y0044884D01*
X0037960Y0044742D01*
X0037900Y0044601D01*
X0037836Y0044461D01*
X0037769Y0044323D01*
X0037698Y0044187D01*
X0037623Y0044053D01*
X0037546Y0043921D01*
X0037464Y0043791D01*
X0037380Y0043663D01*
X0037292Y0043537D01*
X0037201Y0043414D01*
X0037107Y0043293D01*
X0037009Y0043175D01*
X0036909Y0043059D01*
X0036805Y0042946D01*
X0036699Y0042835D01*
X0036590Y0042727D01*
X0036478Y0042622D01*
X0036364Y0042521D01*
X0036246Y0042422D01*
X0036127Y0042326D01*
X0036005Y0042233D01*
X0035880Y0042144D01*
X0035753Y0042057D01*
X0035624Y0041975D01*
X0035493Y0041895D01*
X0035360Y0041819D01*
X0035225Y0041746D01*
X0035088Y0041677D01*
X0034949Y0041612D01*
X0034809Y0041550D01*
X0034667Y0041492D01*
X0034524Y0041437D01*
X0034379Y0041386D01*
X0034233Y0041339D01*
X0034086Y0041296D01*
X0033938Y0041257D01*
X0033789Y0041221D01*
X0033639Y0041190D01*
X0033488Y0041162D01*
X0033337Y0041138D01*
X0033184Y0041118D01*
X0033032Y0041102D01*
X0032879Y0041090D01*
X0032726Y0041082D01*
X0032573Y0041078D01*
X0032419Y0041078D01*
X0032266Y0041082D01*
X0032113Y0041090D01*
X0031960Y0041102D01*
X0031808Y0041118D01*
X0031655Y0041138D01*
X0031504Y0041162D01*
X0031353Y0041190D01*
X0031203Y0041221D01*
X0031054Y0041257D01*
X0030906Y0041296D01*
X0030759Y0041339D01*
X0030613Y0041386D01*
X0030468Y0041437D01*
X0030325Y0041492D01*
X0030183Y0041550D01*
X0030043Y0041612D01*
X0029904Y0041677D01*
X0029767Y0041746D01*
X0029632Y0041819D01*
X0029499Y0041895D01*
X0029368Y0041975D01*
X0029239Y0042057D01*
X0029112Y0042144D01*
X0028987Y0042233D01*
X0028865Y0042326D01*
X0028746Y0042422D01*
X0028628Y0042521D01*
X0028514Y0042622D01*
X0028402Y0042727D01*
X0028293Y0042835D01*
X0028187Y0042946D01*
X0028083Y0043059D01*
X0027983Y0043175D01*
X0027885Y0043293D01*
X0027791Y0043414D01*
X0027700Y0043537D01*
X0027612Y0043663D01*
X0027528Y0043791D01*
X0027446Y0043921D01*
X0027369Y0044053D01*
X0027294Y0044187D01*
X0027223Y0044323D01*
X0027156Y0044461D01*
X0027092Y0044601D01*
X0027032Y0044742D01*
X0026976Y0044884D01*
X0026923Y0045028D01*
X0026874Y0045174D01*
X0026829Y0045320D01*
X0026788Y0045468D01*
X0026751Y0045616D01*
X0026717Y0045766D01*
X0026687Y0045917D01*
X0026662Y0046068D01*
X0026640Y0046219D01*
X0026622Y0046372D01*
X0026608Y0046524D01*
X0026598Y0046677D01*
X0026592Y0046831D01*
X0026590Y0046984D01*
X0063598Y0046984D02*
X0063600Y0047137D01*
X0063606Y0047291D01*
X0063616Y0047444D01*
X0063630Y0047596D01*
X0063648Y0047749D01*
X0063670Y0047900D01*
X0063695Y0048051D01*
X0063725Y0048202D01*
X0063759Y0048352D01*
X0063796Y0048500D01*
X0063837Y0048648D01*
X0063882Y0048794D01*
X0063931Y0048940D01*
X0063984Y0049084D01*
X0064040Y0049226D01*
X0064100Y0049367D01*
X0064164Y0049507D01*
X0064231Y0049645D01*
X0064302Y0049781D01*
X0064377Y0049915D01*
X0064454Y0050047D01*
X0064536Y0050177D01*
X0064620Y0050305D01*
X0064708Y0050431D01*
X0064799Y0050554D01*
X0064893Y0050675D01*
X0064991Y0050793D01*
X0065091Y0050909D01*
X0065195Y0051022D01*
X0065301Y0051133D01*
X0065410Y0051241D01*
X0065522Y0051346D01*
X0065636Y0051447D01*
X0065754Y0051546D01*
X0065873Y0051642D01*
X0065995Y0051735D01*
X0066120Y0051824D01*
X0066247Y0051911D01*
X0066376Y0051993D01*
X0066507Y0052073D01*
X0066640Y0052149D01*
X0066775Y0052222D01*
X0066912Y0052291D01*
X0067051Y0052356D01*
X0067191Y0052418D01*
X0067333Y0052476D01*
X0067476Y0052531D01*
X0067621Y0052582D01*
X0067767Y0052629D01*
X0067914Y0052672D01*
X0068062Y0052711D01*
X0068211Y0052747D01*
X0068361Y0052778D01*
X0068512Y0052806D01*
X0068663Y0052830D01*
X0068816Y0052850D01*
X0068968Y0052866D01*
X0069121Y0052878D01*
X0069274Y0052886D01*
X0069427Y0052890D01*
X0069581Y0052890D01*
X0069734Y0052886D01*
X0069887Y0052878D01*
X0070040Y0052866D01*
X0070192Y0052850D01*
X0070345Y0052830D01*
X0070496Y0052806D01*
X0070647Y0052778D01*
X0070797Y0052747D01*
X0070946Y0052711D01*
X0071094Y0052672D01*
X0071241Y0052629D01*
X0071387Y0052582D01*
X0071532Y0052531D01*
X0071675Y0052476D01*
X0071817Y0052418D01*
X0071957Y0052356D01*
X0072096Y0052291D01*
X0072233Y0052222D01*
X0072368Y0052149D01*
X0072501Y0052073D01*
X0072632Y0051993D01*
X0072761Y0051911D01*
X0072888Y0051824D01*
X0073013Y0051735D01*
X0073135Y0051642D01*
X0073254Y0051546D01*
X0073372Y0051447D01*
X0073486Y0051346D01*
X0073598Y0051241D01*
X0073707Y0051133D01*
X0073813Y0051022D01*
X0073917Y0050909D01*
X0074017Y0050793D01*
X0074115Y0050675D01*
X0074209Y0050554D01*
X0074300Y0050431D01*
X0074388Y0050305D01*
X0074472Y0050177D01*
X0074554Y0050047D01*
X0074631Y0049915D01*
X0074706Y0049781D01*
X0074777Y0049645D01*
X0074844Y0049507D01*
X0074908Y0049367D01*
X0074968Y0049226D01*
X0075024Y0049084D01*
X0075077Y0048940D01*
X0075126Y0048794D01*
X0075171Y0048648D01*
X0075212Y0048500D01*
X0075249Y0048352D01*
X0075283Y0048202D01*
X0075313Y0048051D01*
X0075338Y0047900D01*
X0075360Y0047749D01*
X0075378Y0047596D01*
X0075392Y0047444D01*
X0075402Y0047291D01*
X0075408Y0047137D01*
X0075410Y0046984D01*
X0075408Y0046831D01*
X0075402Y0046677D01*
X0075392Y0046524D01*
X0075378Y0046372D01*
X0075360Y0046219D01*
X0075338Y0046068D01*
X0075313Y0045917D01*
X0075283Y0045766D01*
X0075249Y0045616D01*
X0075212Y0045468D01*
X0075171Y0045320D01*
X0075126Y0045174D01*
X0075077Y0045028D01*
X0075024Y0044884D01*
X0074968Y0044742D01*
X0074908Y0044601D01*
X0074844Y0044461D01*
X0074777Y0044323D01*
X0074706Y0044187D01*
X0074631Y0044053D01*
X0074554Y0043921D01*
X0074472Y0043791D01*
X0074388Y0043663D01*
X0074300Y0043537D01*
X0074209Y0043414D01*
X0074115Y0043293D01*
X0074017Y0043175D01*
X0073917Y0043059D01*
X0073813Y0042946D01*
X0073707Y0042835D01*
X0073598Y0042727D01*
X0073486Y0042622D01*
X0073372Y0042521D01*
X0073254Y0042422D01*
X0073135Y0042326D01*
X0073013Y0042233D01*
X0072888Y0042144D01*
X0072761Y0042057D01*
X0072632Y0041975D01*
X0072501Y0041895D01*
X0072368Y0041819D01*
X0072233Y0041746D01*
X0072096Y0041677D01*
X0071957Y0041612D01*
X0071817Y0041550D01*
X0071675Y0041492D01*
X0071532Y0041437D01*
X0071387Y0041386D01*
X0071241Y0041339D01*
X0071094Y0041296D01*
X0070946Y0041257D01*
X0070797Y0041221D01*
X0070647Y0041190D01*
X0070496Y0041162D01*
X0070345Y0041138D01*
X0070192Y0041118D01*
X0070040Y0041102D01*
X0069887Y0041090D01*
X0069734Y0041082D01*
X0069581Y0041078D01*
X0069427Y0041078D01*
X0069274Y0041082D01*
X0069121Y0041090D01*
X0068968Y0041102D01*
X0068816Y0041118D01*
X0068663Y0041138D01*
X0068512Y0041162D01*
X0068361Y0041190D01*
X0068211Y0041221D01*
X0068062Y0041257D01*
X0067914Y0041296D01*
X0067767Y0041339D01*
X0067621Y0041386D01*
X0067476Y0041437D01*
X0067333Y0041492D01*
X0067191Y0041550D01*
X0067051Y0041612D01*
X0066912Y0041677D01*
X0066775Y0041746D01*
X0066640Y0041819D01*
X0066507Y0041895D01*
X0066376Y0041975D01*
X0066247Y0042057D01*
X0066120Y0042144D01*
X0065995Y0042233D01*
X0065873Y0042326D01*
X0065754Y0042422D01*
X0065636Y0042521D01*
X0065522Y0042622D01*
X0065410Y0042727D01*
X0065301Y0042835D01*
X0065195Y0042946D01*
X0065091Y0043059D01*
X0064991Y0043175D01*
X0064893Y0043293D01*
X0064799Y0043414D01*
X0064708Y0043537D01*
X0064620Y0043663D01*
X0064536Y0043791D01*
X0064454Y0043921D01*
X0064377Y0044053D01*
X0064302Y0044187D01*
X0064231Y0044323D01*
X0064164Y0044461D01*
X0064100Y0044601D01*
X0064040Y0044742D01*
X0063984Y0044884D01*
X0063931Y0045028D01*
X0063882Y0045174D01*
X0063837Y0045320D01*
X0063796Y0045468D01*
X0063759Y0045616D01*
X0063725Y0045766D01*
X0063695Y0045917D01*
X0063670Y0046068D01*
X0063648Y0046219D01*
X0063630Y0046372D01*
X0063616Y0046524D01*
X0063606Y0046677D01*
X0063600Y0046831D01*
X0063598Y0046984D01*
D11*
X0136000Y0046000D03*
X0136000Y0036000D03*
X0136000Y0016000D03*
X0166000Y0016000D03*
X0191000Y0046000D03*
X0191000Y0056000D03*
X0156000Y0061000D03*
X0156000Y0071000D03*
D12*
X0051000Y0066827D03*
X0051000Y0045173D03*
D13*
X0100094Y0077063D03*
X0100094Y0080803D03*
X0100094Y0084543D03*
X0110724Y0084543D03*
X0110724Y0077063D03*
D14*
X0110724Y0016276D01*
X0111000Y0016000D01*
X0136000Y0016000D01*
X0136000Y0036000D01*
X0127400Y0036832D02*
X0117724Y0036832D01*
X0117724Y0038830D02*
X0127400Y0038830D01*
X0127400Y0039562D02*
X0127400Y0032438D01*
X0129000Y0030838D01*
X0129000Y0023000D01*
X0117724Y0023000D01*
X0117724Y0072231D01*
X0117976Y0072483D01*
X0118890Y0074688D01*
X0118890Y0079438D01*
X0118324Y0080803D01*
X0118890Y0082169D01*
X0118890Y0082809D01*
X0125081Y0089000D01*
X0138101Y0089000D01*
X0149000Y0078101D01*
X0149000Y0076162D01*
X0147400Y0074562D01*
X0147400Y0067438D01*
X0151666Y0063172D01*
X0151400Y0062905D01*
X0151400Y0061000D01*
X0156000Y0061000D01*
X0131000Y0061000D01*
X0131000Y0051000D01*
X0136000Y0046000D01*
X0140600Y0046000D01*
X0140600Y0047905D01*
X0137905Y0050600D01*
X0136000Y0050600D01*
X0136000Y0046000D01*
X0136000Y0046000D01*
X0136000Y0046000D01*
X0140600Y0046000D01*
X0140600Y0044095D01*
X0140334Y0043828D01*
X0144600Y0039562D01*
X0144600Y0032438D01*
X0143000Y0030838D01*
X0143000Y0021162D01*
X0144600Y0019562D01*
X0144600Y0012438D01*
X0139562Y0007400D01*
X0132438Y0007400D01*
X0130838Y0009000D01*
X0109608Y0009000D01*
X0107035Y0010066D01*
X0106759Y0010341D01*
X0104790Y0012310D01*
X0103724Y0014883D01*
X0103724Y0068825D01*
X0094965Y0060066D01*
X0092392Y0059000D01*
X0079608Y0059000D01*
X0077035Y0060066D01*
X0075066Y0062035D01*
X0074000Y0064608D01*
X0074000Y0079000D01*
X0073073Y0079000D01*
X0061134Y0067061D01*
X0061134Y0061499D01*
X0060220Y0059294D01*
X0058533Y0057606D01*
X0056327Y0056693D01*
X0045673Y0056693D01*
X0043467Y0057606D01*
X0041780Y0059294D01*
X0040866Y0061499D01*
X0040866Y0072154D01*
X0041780Y0074359D01*
X0043467Y0076047D01*
X0045673Y0076961D01*
X0051234Y0076961D01*
X0064239Y0089965D01*
X0066208Y0091934D01*
X0068781Y0093000D01*
X0100030Y0093000D01*
X0102603Y0091934D01*
X0102813Y0091724D01*
X0103453Y0091724D01*
X0105409Y0090914D01*
X0107366Y0091724D01*
X0108006Y0091724D01*
X0116242Y0099961D01*
X0007000Y0099961D01*
X0007000Y0007000D01*
X0221000Y0007000D01*
X0221000Y0099961D01*
X0146939Y0099961D01*
X0159965Y0086934D01*
X0161934Y0084965D01*
X0163000Y0082392D01*
X0163000Y0076162D01*
X0164600Y0074562D01*
X0164600Y0067438D01*
X0160334Y0063172D01*
X0160600Y0062905D01*
X0160600Y0061000D01*
X0156000Y0061000D01*
X0186000Y0061000D01*
X0191000Y0056000D01*
X0191000Y0056000D01*
X0191000Y0060600D01*
X0192905Y0060600D01*
X0195600Y0057905D01*
X0195600Y0056000D01*
X0191000Y0056000D01*
X0191000Y0056000D01*
X0191000Y0056000D01*
X0186400Y0056000D01*
X0186400Y0057905D01*
X0189095Y0060600D01*
X0191000Y0060600D01*
X0191000Y0056000D01*
X0195600Y0056000D01*
X0195600Y0054095D01*
X0195334Y0053828D01*
X0199600Y0049562D01*
X0199600Y0042438D01*
X0198000Y0040838D01*
X0198000Y0024608D01*
X0196934Y0022035D01*
X0186934Y0012035D01*
X0184965Y0010066D01*
X0182392Y0009000D01*
X0171162Y0009000D01*
X0169562Y0007400D01*
X0162438Y0007400D01*
X0157400Y0012438D01*
X0157400Y0019562D01*
X0162438Y0024600D01*
X0169562Y0024600D01*
X0171162Y0023000D01*
X0178101Y0023000D01*
X0184000Y0028899D01*
X0184000Y0040838D01*
X0182400Y0042438D01*
X0182400Y0049562D01*
X0186666Y0053828D01*
X0186400Y0054095D01*
X0186400Y0056000D01*
X0191000Y0056000D01*
X0191000Y0056817D02*
X0191000Y0056817D01*
X0191000Y0058815D02*
X0191000Y0058815D01*
X0187310Y0058815D02*
X0160321Y0058815D01*
X0160600Y0059095D02*
X0160600Y0061000D01*
X0156000Y0061000D01*
X0156000Y0061000D01*
X0156000Y0056400D01*
X0157905Y0056400D01*
X0160600Y0059095D01*
X0160600Y0060814D02*
X0221000Y0060814D01*
X0221000Y0062812D02*
X0160600Y0062812D01*
X0161973Y0064811D02*
X0221000Y0064811D01*
X0221000Y0066809D02*
X0163972Y0066809D01*
X0164600Y0068808D02*
X0221000Y0068808D01*
X0221000Y0070806D02*
X0164600Y0070806D01*
X0164600Y0072805D02*
X0221000Y0072805D01*
X0221000Y0074803D02*
X0164359Y0074803D01*
X0163000Y0076802D02*
X0221000Y0076802D01*
X0221000Y0078801D02*
X0163000Y0078801D01*
X0163000Y0080799D02*
X0221000Y0080799D01*
X0221000Y0082798D02*
X0162832Y0082798D01*
X0162004Y0084796D02*
X0221000Y0084796D01*
X0221000Y0086795D02*
X0160105Y0086795D01*
X0158106Y0088793D02*
X0221000Y0088793D01*
X0221000Y0090792D02*
X0156108Y0090792D01*
X0154109Y0092790D02*
X0221000Y0092790D01*
X0221000Y0094789D02*
X0152111Y0094789D01*
X0150112Y0096787D02*
X0221000Y0096787D01*
X0221000Y0098786D02*
X0148114Y0098786D01*
X0141000Y0096000D02*
X0156000Y0081000D01*
X0156000Y0071000D01*
X0147400Y0070806D02*
X0117724Y0070806D01*
X0117724Y0068808D02*
X0147400Y0068808D01*
X0148028Y0066809D02*
X0117724Y0066809D01*
X0117724Y0064811D02*
X0150027Y0064811D01*
X0151400Y0062812D02*
X0117724Y0062812D01*
X0117724Y0060814D02*
X0151400Y0060814D01*
X0151400Y0061000D02*
X0151400Y0059095D01*
X0154095Y0056400D01*
X0156000Y0056400D01*
X0156000Y0061000D01*
X0156000Y0061000D01*
X0156000Y0061000D01*
X0151400Y0061000D01*
X0156000Y0060814D02*
X0156000Y0060814D01*
X0156000Y0058815D02*
X0156000Y0058815D01*
X0156000Y0056817D02*
X0156000Y0056817D01*
X0158322Y0056817D02*
X0186400Y0056817D01*
X0186400Y0054818D02*
X0117724Y0054818D01*
X0117724Y0052820D02*
X0185658Y0052820D01*
X0183659Y0050821D02*
X0117724Y0050821D01*
X0117724Y0048823D02*
X0132317Y0048823D01*
X0131400Y0047905D02*
X0131400Y0046000D01*
X0136000Y0046000D01*
X0136000Y0046000D01*
X0136000Y0050600D01*
X0134095Y0050600D01*
X0131400Y0047905D01*
X0131400Y0046824D02*
X0117724Y0046824D01*
X0117724Y0044826D02*
X0131400Y0044826D01*
X0131400Y0044095D02*
X0131666Y0043828D01*
X0127400Y0039562D01*
X0128667Y0040829D02*
X0117724Y0040829D01*
X0117724Y0042827D02*
X0130665Y0042827D01*
X0131400Y0044095D02*
X0131400Y0046000D01*
X0136000Y0046000D01*
X0136000Y0046824D02*
X0136000Y0046824D01*
X0136000Y0048823D02*
X0136000Y0048823D01*
X0139683Y0048823D02*
X0182400Y0048823D01*
X0182400Y0046824D02*
X0140600Y0046824D01*
X0140600Y0044826D02*
X0182400Y0044826D01*
X0182400Y0042827D02*
X0141335Y0042827D01*
X0143333Y0040829D02*
X0184000Y0040829D01*
X0184000Y0038830D02*
X0144600Y0038830D01*
X0144600Y0036832D02*
X0184000Y0036832D01*
X0184000Y0034833D02*
X0144600Y0034833D01*
X0144600Y0032835D02*
X0184000Y0032835D01*
X0184000Y0030836D02*
X0143000Y0030836D01*
X0143000Y0028838D02*
X0183938Y0028838D01*
X0181940Y0026839D02*
X0143000Y0026839D01*
X0143000Y0024841D02*
X0179941Y0024841D01*
X0181000Y0016000D02*
X0191000Y0026000D01*
X0191000Y0046000D01*
X0199600Y0046824D02*
X0221000Y0046824D01*
X0221000Y0044826D02*
X0199600Y0044826D01*
X0199600Y0042827D02*
X0221000Y0042827D01*
X0221000Y0040829D02*
X0198000Y0040829D01*
X0198000Y0038830D02*
X0221000Y0038830D01*
X0221000Y0036832D02*
X0198000Y0036832D01*
X0198000Y0034833D02*
X0221000Y0034833D01*
X0221000Y0032835D02*
X0198000Y0032835D01*
X0198000Y0030836D02*
X0221000Y0030836D01*
X0221000Y0028838D02*
X0198000Y0028838D01*
X0198000Y0026839D02*
X0221000Y0026839D01*
X0221000Y0024841D02*
X0198000Y0024841D01*
X0197269Y0022842D02*
X0221000Y0022842D01*
X0221000Y0020844D02*
X0195743Y0020844D01*
X0193745Y0018845D02*
X0221000Y0018845D01*
X0221000Y0016847D02*
X0191746Y0016847D01*
X0189748Y0014848D02*
X0221000Y0014848D01*
X0221000Y0012850D02*
X0187749Y0012850D01*
X0185751Y0010851D02*
X0221000Y0010851D01*
X0221000Y0008853D02*
X0171015Y0008853D01*
X0160985Y0008853D02*
X0141015Y0008853D01*
X0143013Y0010851D02*
X0158987Y0010851D01*
X0157400Y0012850D02*
X0144600Y0012850D01*
X0144600Y0014848D02*
X0157400Y0014848D01*
X0157400Y0016847D02*
X0144600Y0016847D01*
X0144600Y0018845D02*
X0157400Y0018845D01*
X0158681Y0020844D02*
X0143319Y0020844D01*
X0143000Y0022842D02*
X0160680Y0022842D01*
X0166000Y0016000D02*
X0181000Y0016000D01*
X0130985Y0008853D02*
X0007000Y0008853D01*
X0007000Y0010851D02*
X0106249Y0010851D01*
X0104567Y0012850D02*
X0007000Y0012850D01*
X0007000Y0014848D02*
X0103739Y0014848D01*
X0103724Y0016847D02*
X0007000Y0016847D01*
X0007000Y0018845D02*
X0103724Y0018845D01*
X0103724Y0020844D02*
X0007000Y0020844D01*
X0007000Y0022842D02*
X0103724Y0022842D01*
X0103724Y0024841D02*
X0007000Y0024841D01*
X0007000Y0026839D02*
X0103724Y0026839D01*
X0103724Y0028838D02*
X0007000Y0028838D01*
X0007000Y0030836D02*
X0103724Y0030836D01*
X0103724Y0032835D02*
X0007000Y0032835D01*
X0007000Y0034833D02*
X0103724Y0034833D01*
X0103724Y0036832D02*
X0075730Y0036832D01*
X0076814Y0037457D02*
X0074099Y0035890D01*
X0071071Y0035079D01*
X0067937Y0035079D01*
X0064909Y0035890D01*
X0062194Y0037457D01*
X0059977Y0039674D01*
X0058410Y0042389D01*
X0057598Y0045417D01*
X0057598Y0048552D01*
X0058410Y0051580D01*
X0059977Y0054294D01*
X0062194Y0056511D01*
X0064909Y0058078D01*
X0067937Y0058890D01*
X0071071Y0058890D01*
X0074099Y0058078D01*
X0076814Y0056511D01*
X0079031Y0054294D01*
X0080598Y0051580D01*
X0081409Y0048552D01*
X0081409Y0045417D01*
X0080598Y0042389D01*
X0079031Y0039674D01*
X0076814Y0037457D01*
X0078187Y0038830D02*
X0103724Y0038830D01*
X0103724Y0040829D02*
X0079697Y0040829D01*
X0080716Y0042827D02*
X0103724Y0042827D01*
X0103724Y0044826D02*
X0081251Y0044826D01*
X0081409Y0046824D02*
X0103724Y0046824D01*
X0103724Y0048823D02*
X0081337Y0048823D01*
X0080801Y0050821D02*
X0103724Y0050821D01*
X0103724Y0052820D02*
X0079882Y0052820D01*
X0078507Y0054818D02*
X0103724Y0054818D01*
X0103724Y0056817D02*
X0076284Y0056817D01*
X0076287Y0060814D02*
X0060850Y0060814D01*
X0061134Y0062812D02*
X0074744Y0062812D01*
X0074000Y0064811D02*
X0061134Y0064811D01*
X0061134Y0066809D02*
X0074000Y0066809D01*
X0074000Y0068808D02*
X0062881Y0068808D01*
X0064879Y0070806D02*
X0074000Y0070806D01*
X0074000Y0072805D02*
X0066878Y0072805D01*
X0068876Y0074803D02*
X0074000Y0074803D01*
X0074000Y0076802D02*
X0070875Y0076802D01*
X0072873Y0078801D02*
X0074000Y0078801D01*
X0070173Y0086000D02*
X0081000Y0086000D01*
X0081000Y0066000D01*
X0091000Y0066000D01*
X0100094Y0075094D01*
X0100094Y0077063D01*
X0100094Y0080803D02*
X0130803Y0080803D01*
X0131000Y0081000D01*
X0131000Y0061000D01*
X0117724Y0058815D02*
X0151679Y0058815D01*
X0153678Y0056817D02*
X0117724Y0056817D01*
X0103724Y0058815D02*
X0071349Y0058815D01*
X0067659Y0058815D02*
X0059742Y0058815D01*
X0062724Y0056817D02*
X0056627Y0056817D01*
X0060501Y0054818D02*
X0041499Y0054818D01*
X0042023Y0054294D02*
X0039806Y0056511D01*
X0037091Y0058078D01*
X0034063Y0058890D01*
X0030929Y0058890D01*
X0027901Y0058078D01*
X0025186Y0056511D01*
X0022969Y0054294D01*
X0021402Y0051580D01*
X0020591Y0048552D01*
X0020591Y0045417D01*
X0021402Y0042389D01*
X0022969Y0039674D01*
X0025186Y0037457D01*
X0027901Y0035890D01*
X0030929Y0035079D01*
X0034063Y0035079D01*
X0037091Y0035890D01*
X0039806Y0037457D01*
X0042023Y0039674D01*
X0043590Y0042389D01*
X0044402Y0045417D01*
X0044402Y0048552D01*
X0043590Y0051580D01*
X0042023Y0054294D01*
X0042874Y0052820D02*
X0059126Y0052820D01*
X0058207Y0050821D02*
X0056448Y0050821D01*
X0056362Y0050907D02*
X0055906Y0051171D01*
X0055397Y0051307D01*
X0051378Y0051307D01*
X0051378Y0045551D01*
X0057134Y0045551D01*
X0057134Y0049570D01*
X0056998Y0050079D01*
X0056734Y0050535D01*
X0056362Y0050907D01*
X0057134Y0048823D02*
X0057671Y0048823D01*
X0057598Y0046824D02*
X0057134Y0046824D01*
X0057134Y0044795D02*
X0051378Y0044795D01*
X0051378Y0039039D01*
X0055397Y0039039D01*
X0055906Y0039176D01*
X0056362Y0039439D01*
X0056734Y0039811D01*
X0056998Y0040267D01*
X0057134Y0040776D01*
X0057134Y0044795D01*
X0057757Y0044826D02*
X0051378Y0044826D01*
X0051378Y0044795D02*
X0051378Y0045551D01*
X0050622Y0045551D01*
X0050622Y0044795D01*
X0051378Y0044795D01*
X0050622Y0044795D02*
X0050622Y0039039D01*
X0046603Y0039039D01*
X0046094Y0039176D01*
X0045638Y0039439D01*
X0045266Y0039811D01*
X0045002Y0040267D01*
X0044866Y0040776D01*
X0044866Y0044795D01*
X0050622Y0044795D01*
X0050622Y0044826D02*
X0044243Y0044826D01*
X0044866Y0045551D02*
X0050622Y0045551D01*
X0050622Y0051307D01*
X0046603Y0051307D01*
X0046094Y0051171D01*
X0045638Y0050907D01*
X0045266Y0050535D01*
X0045002Y0050079D01*
X0044866Y0049570D01*
X0044866Y0045551D01*
X0044866Y0046824D02*
X0044402Y0046824D01*
X0044329Y0048823D02*
X0044866Y0048823D01*
X0045552Y0050821D02*
X0043793Y0050821D01*
X0050622Y0050821D02*
X0051378Y0050821D01*
X0051378Y0048823D02*
X0050622Y0048823D01*
X0050622Y0046824D02*
X0051378Y0046824D01*
X0051378Y0042827D02*
X0050622Y0042827D01*
X0050622Y0040829D02*
X0051378Y0040829D01*
X0057134Y0040829D02*
X0059310Y0040829D01*
X0058292Y0042827D02*
X0057134Y0042827D01*
X0060821Y0038830D02*
X0041179Y0038830D01*
X0042689Y0040829D02*
X0044866Y0040829D01*
X0044866Y0042827D02*
X0043708Y0042827D01*
X0038722Y0036832D02*
X0063277Y0036832D01*
X0026270Y0036832D02*
X0007000Y0036832D01*
X0007000Y0038830D02*
X0023813Y0038830D01*
X0022303Y0040829D02*
X0007000Y0040829D01*
X0007000Y0042827D02*
X0021284Y0042827D01*
X0020749Y0044826D02*
X0007000Y0044826D01*
X0007000Y0046824D02*
X0020591Y0046824D01*
X0020663Y0048823D02*
X0007000Y0048823D01*
X0007000Y0050821D02*
X0021199Y0050821D01*
X0022118Y0052820D02*
X0007000Y0052820D01*
X0007000Y0054818D02*
X0023493Y0054818D01*
X0025716Y0056817D02*
X0007000Y0056817D01*
X0007000Y0058815D02*
X0030651Y0058815D01*
X0034341Y0058815D02*
X0042258Y0058815D01*
X0039276Y0056817D02*
X0045373Y0056817D01*
X0041150Y0060814D02*
X0007000Y0060814D01*
X0007000Y0062812D02*
X0040866Y0062812D01*
X0040866Y0064811D02*
X0007000Y0064811D01*
X0007000Y0066809D02*
X0040866Y0066809D01*
X0040866Y0068808D02*
X0007000Y0068808D01*
X0007000Y0070806D02*
X0040866Y0070806D01*
X0041136Y0072805D02*
X0007000Y0072805D01*
X0007000Y0074803D02*
X0042224Y0074803D01*
X0045290Y0076802D02*
X0007000Y0076802D01*
X0007000Y0078801D02*
X0053074Y0078801D01*
X0055073Y0080799D02*
X0007000Y0080799D01*
X0007000Y0082798D02*
X0057071Y0082798D01*
X0059070Y0084796D02*
X0007000Y0084796D01*
X0007000Y0086795D02*
X0061068Y0086795D01*
X0063067Y0088793D02*
X0007000Y0088793D01*
X0007000Y0090792D02*
X0065065Y0090792D01*
X0068274Y0092790D02*
X0007000Y0092790D01*
X0007000Y0094789D02*
X0111070Y0094789D01*
X0113069Y0096787D02*
X0007000Y0096787D01*
X0007000Y0098786D02*
X0115067Y0098786D01*
X0122181Y0096000D02*
X0141000Y0096000D01*
X0138307Y0088793D02*
X0124874Y0088793D01*
X0122875Y0086795D02*
X0140306Y0086795D01*
X0142304Y0084796D02*
X0120877Y0084796D01*
X0118890Y0082798D02*
X0144303Y0082798D01*
X0146301Y0080799D02*
X0118326Y0080799D01*
X0118890Y0078801D02*
X0148300Y0078801D01*
X0149000Y0076802D02*
X0118890Y0076802D01*
X0118890Y0074803D02*
X0147641Y0074803D01*
X0147400Y0072805D02*
X0118110Y0072805D01*
X0103724Y0068808D02*
X0103707Y0068808D01*
X0103724Y0066809D02*
X0101709Y0066809D01*
X0099710Y0064811D02*
X0103724Y0064811D01*
X0103724Y0062812D02*
X0097712Y0062812D01*
X0095713Y0060814D02*
X0103724Y0060814D01*
X0070173Y0086000D02*
X0051000Y0066827D01*
X0081000Y0086000D02*
X0098638Y0086000D01*
X0100094Y0084543D01*
X0110724Y0084543D02*
X0122181Y0096000D01*
X0109072Y0092790D02*
X0100537Y0092790D01*
X0194690Y0058815D02*
X0221000Y0058815D01*
X0221000Y0056817D02*
X0195600Y0056817D01*
X0195600Y0054818D02*
X0221000Y0054818D01*
X0221000Y0052820D02*
X0196342Y0052820D01*
X0198341Y0050821D02*
X0221000Y0050821D01*
X0221000Y0048823D02*
X0199600Y0048823D01*
X0129000Y0030836D02*
X0117724Y0030836D01*
X0117724Y0028838D02*
X0129000Y0028838D01*
X0129000Y0026839D02*
X0117724Y0026839D01*
X0117724Y0024841D02*
X0129000Y0024841D01*
X0127400Y0032835D02*
X0117724Y0032835D01*
X0117724Y0034833D02*
X0127400Y0034833D01*
D15*
X0131000Y0061000D03*
M02*
