G75*
%MOIN*%
%OFA0B0*%
%FSLAX25Y25*%
%IPPOS*%
%LPD*%
%AMOC8*
5,1,8,0,0,1.08239X$1,22.5*
%
%ADD10C,0.00600*%
%ADD11C,0.01200*%
%ADD12R,0.01500X0.02000*%
%ADD13C,0.00500*%
%ADD14C,0.01000*%
D10*
X0152500Y0040500D02*
X0152500Y0053500D01*
X0152502Y0053587D01*
X0152508Y0053674D01*
X0152517Y0053761D01*
X0152530Y0053847D01*
X0152547Y0053933D01*
X0152568Y0054018D01*
X0152593Y0054101D01*
X0152621Y0054184D01*
X0152652Y0054265D01*
X0152687Y0054345D01*
X0152726Y0054423D01*
X0152768Y0054500D01*
X0152813Y0054575D01*
X0152862Y0054647D01*
X0152913Y0054718D01*
X0152968Y0054786D01*
X0153025Y0054851D01*
X0153086Y0054914D01*
X0153149Y0054975D01*
X0153214Y0055032D01*
X0153282Y0055087D01*
X0153353Y0055138D01*
X0153425Y0055187D01*
X0153500Y0055232D01*
X0153577Y0055274D01*
X0153655Y0055313D01*
X0153735Y0055348D01*
X0153816Y0055379D01*
X0153899Y0055407D01*
X0153982Y0055432D01*
X0154067Y0055453D01*
X0154153Y0055470D01*
X0154239Y0055483D01*
X0154326Y0055492D01*
X0154413Y0055498D01*
X0154500Y0055500D01*
X0159500Y0055500D01*
X0159587Y0055498D01*
X0159674Y0055492D01*
X0159761Y0055483D01*
X0159847Y0055470D01*
X0159933Y0055453D01*
X0160018Y0055432D01*
X0160101Y0055407D01*
X0160184Y0055379D01*
X0160265Y0055348D01*
X0160345Y0055313D01*
X0160423Y0055274D01*
X0160500Y0055232D01*
X0160575Y0055187D01*
X0160647Y0055138D01*
X0160718Y0055087D01*
X0160786Y0055032D01*
X0160851Y0054975D01*
X0160914Y0054914D01*
X0160975Y0054851D01*
X0161032Y0054786D01*
X0161087Y0054718D01*
X0161138Y0054647D01*
X0161187Y0054575D01*
X0161232Y0054500D01*
X0161274Y0054423D01*
X0161313Y0054345D01*
X0161348Y0054265D01*
X0161379Y0054184D01*
X0161407Y0054101D01*
X0161432Y0054018D01*
X0161453Y0053933D01*
X0161470Y0053847D01*
X0161483Y0053761D01*
X0161492Y0053674D01*
X0161498Y0053587D01*
X0161500Y0053500D01*
X0161500Y0040500D01*
X0161498Y0040413D01*
X0161492Y0040326D01*
X0161483Y0040239D01*
X0161470Y0040153D01*
X0161453Y0040067D01*
X0161432Y0039982D01*
X0161407Y0039899D01*
X0161379Y0039816D01*
X0161348Y0039735D01*
X0161313Y0039655D01*
X0161274Y0039577D01*
X0161232Y0039500D01*
X0161187Y0039425D01*
X0161138Y0039353D01*
X0161087Y0039282D01*
X0161032Y0039214D01*
X0160975Y0039149D01*
X0160914Y0039086D01*
X0160851Y0039025D01*
X0160786Y0038968D01*
X0160718Y0038913D01*
X0160647Y0038862D01*
X0160575Y0038813D01*
X0160500Y0038768D01*
X0160423Y0038726D01*
X0160345Y0038687D01*
X0160265Y0038652D01*
X0160184Y0038621D01*
X0160101Y0038593D01*
X0160018Y0038568D01*
X0159933Y0038547D01*
X0159847Y0038530D01*
X0159761Y0038517D01*
X0159674Y0038508D01*
X0159587Y0038502D01*
X0159500Y0038500D01*
X0154500Y0038500D01*
X0154413Y0038502D01*
X0154326Y0038508D01*
X0154239Y0038517D01*
X0154153Y0038530D01*
X0154067Y0038547D01*
X0153982Y0038568D01*
X0153899Y0038593D01*
X0153816Y0038621D01*
X0153735Y0038652D01*
X0153655Y0038687D01*
X0153577Y0038726D01*
X0153500Y0038768D01*
X0153425Y0038813D01*
X0153353Y0038862D01*
X0153282Y0038913D01*
X0153214Y0038968D01*
X0153149Y0039025D01*
X0153086Y0039086D01*
X0153025Y0039149D01*
X0152968Y0039214D01*
X0152913Y0039282D01*
X0152862Y0039353D01*
X0152813Y0039425D01*
X0152768Y0039500D01*
X0152726Y0039577D01*
X0152687Y0039655D01*
X0152652Y0039735D01*
X0152621Y0039816D01*
X0152593Y0039899D01*
X0152568Y0039982D01*
X0152547Y0040067D01*
X0152530Y0040153D01*
X0152517Y0040239D01*
X0152508Y0040326D01*
X0152502Y0040413D01*
X0152500Y0040500D01*
X0200000Y0066000D02*
X0200000Y0068000D01*
X0200500Y0068500D01*
X0200500Y0065500D02*
X0200565Y0065438D01*
X0200633Y0065378D01*
X0200703Y0065322D01*
X0200775Y0065268D01*
X0200850Y0065218D01*
X0200927Y0065171D01*
X0201005Y0065127D01*
X0201086Y0065086D01*
X0201168Y0065049D01*
X0201251Y0065016D01*
X0201336Y0064986D01*
X0201422Y0064959D01*
X0201509Y0064937D01*
X0201597Y0064918D01*
X0201686Y0064902D01*
X0201775Y0064891D01*
X0201865Y0064883D01*
X0201955Y0064879D01*
X0202045Y0064879D01*
X0202135Y0064883D01*
X0202225Y0064891D01*
X0202314Y0064902D01*
X0202403Y0064918D01*
X0202491Y0064937D01*
X0202578Y0064959D01*
X0202664Y0064986D01*
X0202749Y0065016D01*
X0202832Y0065049D01*
X0202914Y0065086D01*
X0202995Y0065127D01*
X0203073Y0065171D01*
X0203150Y0065218D01*
X0203225Y0065268D01*
X0203297Y0065322D01*
X0203367Y0065378D01*
X0203435Y0065438D01*
X0203500Y0065500D01*
X0204000Y0066000D01*
X0204000Y0068000D01*
X0203500Y0068500D01*
X0203000Y0067000D02*
X0202998Y0067060D01*
X0202993Y0067121D01*
X0202984Y0067180D01*
X0202971Y0067239D01*
X0202955Y0067298D01*
X0202935Y0067355D01*
X0202912Y0067410D01*
X0202885Y0067465D01*
X0202856Y0067517D01*
X0202823Y0067568D01*
X0202787Y0067617D01*
X0202749Y0067663D01*
X0202707Y0067707D01*
X0202663Y0067749D01*
X0202617Y0067787D01*
X0202568Y0067823D01*
X0202517Y0067856D01*
X0202465Y0067885D01*
X0202410Y0067912D01*
X0202355Y0067935D01*
X0202298Y0067955D01*
X0202239Y0067971D01*
X0202180Y0067984D01*
X0202121Y0067993D01*
X0202060Y0067998D01*
X0202000Y0068000D01*
X0201000Y0067000D02*
X0201002Y0066940D01*
X0201007Y0066879D01*
X0201016Y0066820D01*
X0201029Y0066761D01*
X0201045Y0066702D01*
X0201065Y0066645D01*
X0201088Y0066590D01*
X0201115Y0066535D01*
X0201144Y0066483D01*
X0201177Y0066432D01*
X0201213Y0066383D01*
X0201251Y0066337D01*
X0201293Y0066293D01*
X0201337Y0066251D01*
X0201383Y0066213D01*
X0201432Y0066177D01*
X0201483Y0066144D01*
X0201535Y0066115D01*
X0201590Y0066088D01*
X0201645Y0066065D01*
X0201702Y0066045D01*
X0201761Y0066029D01*
X0201820Y0066016D01*
X0201879Y0066007D01*
X0201940Y0066002D01*
X0202000Y0066000D01*
X0200500Y0065500D02*
X0200000Y0066000D01*
X0161500Y0085500D02*
X0161500Y0098500D01*
X0161498Y0098587D01*
X0161492Y0098674D01*
X0161483Y0098761D01*
X0161470Y0098847D01*
X0161453Y0098933D01*
X0161432Y0099018D01*
X0161407Y0099101D01*
X0161379Y0099184D01*
X0161348Y0099265D01*
X0161313Y0099345D01*
X0161274Y0099423D01*
X0161232Y0099500D01*
X0161187Y0099575D01*
X0161138Y0099647D01*
X0161087Y0099718D01*
X0161032Y0099786D01*
X0160975Y0099851D01*
X0160914Y0099914D01*
X0160851Y0099975D01*
X0160786Y0100032D01*
X0160718Y0100087D01*
X0160647Y0100138D01*
X0160575Y0100187D01*
X0160500Y0100232D01*
X0160423Y0100274D01*
X0160345Y0100313D01*
X0160265Y0100348D01*
X0160184Y0100379D01*
X0160101Y0100407D01*
X0160018Y0100432D01*
X0159933Y0100453D01*
X0159847Y0100470D01*
X0159761Y0100483D01*
X0159674Y0100492D01*
X0159587Y0100498D01*
X0159500Y0100500D01*
X0154500Y0100500D01*
X0154413Y0100498D01*
X0154326Y0100492D01*
X0154239Y0100483D01*
X0154153Y0100470D01*
X0154067Y0100453D01*
X0153982Y0100432D01*
X0153899Y0100407D01*
X0153816Y0100379D01*
X0153735Y0100348D01*
X0153655Y0100313D01*
X0153577Y0100274D01*
X0153500Y0100232D01*
X0153425Y0100187D01*
X0153353Y0100138D01*
X0153282Y0100087D01*
X0153214Y0100032D01*
X0153149Y0099975D01*
X0153086Y0099914D01*
X0153025Y0099851D01*
X0152968Y0099786D01*
X0152913Y0099718D01*
X0152862Y0099647D01*
X0152813Y0099575D01*
X0152768Y0099500D01*
X0152726Y0099423D01*
X0152687Y0099345D01*
X0152652Y0099265D01*
X0152621Y0099184D01*
X0152593Y0099101D01*
X0152568Y0099018D01*
X0152547Y0098933D01*
X0152530Y0098847D01*
X0152517Y0098761D01*
X0152508Y0098674D01*
X0152502Y0098587D01*
X0152500Y0098500D01*
X0152500Y0085500D01*
X0152502Y0085413D01*
X0152508Y0085326D01*
X0152517Y0085239D01*
X0152530Y0085153D01*
X0152547Y0085067D01*
X0152568Y0084982D01*
X0152593Y0084899D01*
X0152621Y0084816D01*
X0152652Y0084735D01*
X0152687Y0084655D01*
X0152726Y0084577D01*
X0152768Y0084500D01*
X0152813Y0084425D01*
X0152862Y0084353D01*
X0152913Y0084282D01*
X0152968Y0084214D01*
X0153025Y0084149D01*
X0153086Y0084086D01*
X0153149Y0084025D01*
X0153214Y0083968D01*
X0153282Y0083913D01*
X0153353Y0083862D01*
X0153425Y0083813D01*
X0153500Y0083768D01*
X0153577Y0083726D01*
X0153655Y0083687D01*
X0153735Y0083652D01*
X0153816Y0083621D01*
X0153899Y0083593D01*
X0153982Y0083568D01*
X0154067Y0083547D01*
X0154153Y0083530D01*
X0154239Y0083517D01*
X0154326Y0083508D01*
X0154413Y0083502D01*
X0154500Y0083500D01*
X0159500Y0083500D01*
X0159587Y0083502D01*
X0159674Y0083508D01*
X0159761Y0083517D01*
X0159847Y0083530D01*
X0159933Y0083547D01*
X0160018Y0083568D01*
X0160101Y0083593D01*
X0160184Y0083621D01*
X0160265Y0083652D01*
X0160345Y0083687D01*
X0160423Y0083726D01*
X0160500Y0083768D01*
X0160575Y0083813D01*
X0160647Y0083862D01*
X0160718Y0083913D01*
X0160786Y0083968D01*
X0160851Y0084025D01*
X0160914Y0084086D01*
X0160975Y0084149D01*
X0161032Y0084214D01*
X0161087Y0084282D01*
X0161138Y0084353D01*
X0161187Y0084425D01*
X0161232Y0084500D01*
X0161274Y0084577D01*
X0161313Y0084655D01*
X0161348Y0084735D01*
X0161379Y0084816D01*
X0161407Y0084899D01*
X0161432Y0084982D01*
X0161453Y0085067D01*
X0161470Y0085153D01*
X0161483Y0085239D01*
X0161492Y0085326D01*
X0161498Y0085413D01*
X0161500Y0085500D01*
X0178000Y0113000D02*
X0179500Y0113000D01*
X0180000Y0113500D01*
X0194000Y0113500D01*
X0194500Y0113000D01*
X0196000Y0113000D01*
X0196060Y0113002D01*
X0196121Y0113007D01*
X0196180Y0113016D01*
X0196239Y0113029D01*
X0196298Y0113045D01*
X0196355Y0113065D01*
X0196410Y0113088D01*
X0196465Y0113115D01*
X0196517Y0113144D01*
X0196568Y0113177D01*
X0196617Y0113213D01*
X0196663Y0113251D01*
X0196707Y0113293D01*
X0196749Y0113337D01*
X0196787Y0113383D01*
X0196823Y0113432D01*
X0196856Y0113483D01*
X0196885Y0113535D01*
X0196912Y0113590D01*
X0196935Y0113645D01*
X0196955Y0113702D01*
X0196971Y0113761D01*
X0196984Y0113820D01*
X0196993Y0113879D01*
X0196998Y0113940D01*
X0197000Y0114000D01*
X0197000Y0120000D01*
X0196998Y0120060D01*
X0196993Y0120121D01*
X0196984Y0120180D01*
X0196971Y0120239D01*
X0196955Y0120298D01*
X0196935Y0120355D01*
X0196912Y0120410D01*
X0196885Y0120465D01*
X0196856Y0120517D01*
X0196823Y0120568D01*
X0196787Y0120617D01*
X0196749Y0120663D01*
X0196707Y0120707D01*
X0196663Y0120749D01*
X0196617Y0120787D01*
X0196568Y0120823D01*
X0196517Y0120856D01*
X0196465Y0120885D01*
X0196410Y0120912D01*
X0196355Y0120935D01*
X0196298Y0120955D01*
X0196239Y0120971D01*
X0196180Y0120984D01*
X0196121Y0120993D01*
X0196060Y0120998D01*
X0196000Y0121000D01*
X0194500Y0121000D01*
X0194000Y0120500D01*
X0180000Y0120500D01*
X0179500Y0121000D01*
X0178000Y0121000D01*
X0177940Y0120998D01*
X0177879Y0120993D01*
X0177820Y0120984D01*
X0177761Y0120971D01*
X0177702Y0120955D01*
X0177645Y0120935D01*
X0177590Y0120912D01*
X0177535Y0120885D01*
X0177483Y0120856D01*
X0177432Y0120823D01*
X0177383Y0120787D01*
X0177337Y0120749D01*
X0177293Y0120707D01*
X0177251Y0120663D01*
X0177213Y0120617D01*
X0177177Y0120568D01*
X0177144Y0120517D01*
X0177115Y0120465D01*
X0177088Y0120410D01*
X0177065Y0120355D01*
X0177045Y0120298D01*
X0177029Y0120239D01*
X0177016Y0120180D01*
X0177007Y0120121D01*
X0177002Y0120060D01*
X0177000Y0120000D01*
X0177000Y0114000D01*
X0177002Y0113940D01*
X0177007Y0113879D01*
X0177016Y0113820D01*
X0177029Y0113761D01*
X0177045Y0113702D01*
X0177065Y0113645D01*
X0177088Y0113590D01*
X0177115Y0113535D01*
X0177144Y0113483D01*
X0177177Y0113432D01*
X0177213Y0113383D01*
X0177251Y0113337D01*
X0177293Y0113293D01*
X0177337Y0113251D01*
X0177383Y0113213D01*
X0177432Y0113177D01*
X0177483Y0113144D01*
X0177535Y0113115D01*
X0177590Y0113088D01*
X0177645Y0113065D01*
X0177702Y0113045D01*
X0177761Y0113029D01*
X0177820Y0113016D01*
X0177879Y0113007D01*
X0177940Y0113002D01*
X0178000Y0113000D01*
D11*
X0160000Y0093200D02*
X0154000Y0093200D01*
X0154000Y0090700D02*
X0160000Y0090700D01*
X0160000Y0048200D02*
X0154000Y0048200D01*
X0154000Y0045700D02*
X0160000Y0045700D01*
D12*
X0176250Y0117000D03*
X0197750Y0117000D03*
D13*
X0116252Y0088102D02*
X0116252Y0076291D01*
X0098929Y0076291D01*
X0098929Y0088102D01*
X0099126Y0088102D01*
X0099323Y0088102D02*
X0116252Y0088102D01*
D14*
X0031764Y0090661D02*
X0031764Y0064283D01*
X0052236Y0064283D01*
X0052236Y0101291D01*
X0031764Y0101291D01*
X0031764Y0094992D01*
X0031672Y0094990D01*
X0031580Y0094984D01*
X0031489Y0094974D01*
X0031398Y0094961D01*
X0031308Y0094943D01*
X0031218Y0094922D01*
X0031130Y0094897D01*
X0031043Y0094868D01*
X0030957Y0094836D01*
X0030872Y0094800D01*
X0030789Y0094760D01*
X0030708Y0094717D01*
X0030629Y0094671D01*
X0030552Y0094621D01*
X0030477Y0094568D01*
X0030404Y0094511D01*
X0030334Y0094452D01*
X0030266Y0094390D01*
X0030201Y0094325D01*
X0030139Y0094257D01*
X0030080Y0094187D01*
X0030023Y0094114D01*
X0029970Y0094039D01*
X0029920Y0093962D01*
X0029874Y0093883D01*
X0029831Y0093802D01*
X0029791Y0093719D01*
X0029755Y0093634D01*
X0029723Y0093548D01*
X0029694Y0093461D01*
X0029669Y0093373D01*
X0029648Y0093283D01*
X0029630Y0093193D01*
X0029617Y0093102D01*
X0029607Y0093011D01*
X0029601Y0092919D01*
X0029599Y0092827D01*
X0029601Y0092735D01*
X0029607Y0092643D01*
X0029617Y0092552D01*
X0029630Y0092461D01*
X0029648Y0092371D01*
X0029669Y0092281D01*
X0029694Y0092193D01*
X0029723Y0092106D01*
X0029755Y0092020D01*
X0029791Y0091935D01*
X0029831Y0091852D01*
X0029874Y0091771D01*
X0029920Y0091692D01*
X0029970Y0091615D01*
X0030023Y0091540D01*
X0030080Y0091467D01*
X0030139Y0091397D01*
X0030201Y0091329D01*
X0030266Y0091264D01*
X0030334Y0091202D01*
X0030404Y0091143D01*
X0030477Y0091086D01*
X0030552Y0091033D01*
X0030629Y0090983D01*
X0030708Y0090937D01*
X0030789Y0090894D01*
X0030872Y0090854D01*
X0030957Y0090818D01*
X0031043Y0090786D01*
X0031130Y0090757D01*
X0031218Y0090732D01*
X0031308Y0090711D01*
X0031398Y0090693D01*
X0031489Y0090680D01*
X0031580Y0090670D01*
X0031672Y0090664D01*
X0031764Y0090662D01*
X0031370Y0076882D02*
X0028614Y0076882D01*
X0029007Y0069402D02*
X0028919Y0069269D01*
X0028828Y0069138D01*
X0028734Y0069009D01*
X0028636Y0068882D01*
X0028536Y0068758D01*
X0028432Y0068637D01*
X0028326Y0068518D01*
X0028216Y0068401D01*
X0028104Y0068287D01*
X0027989Y0068176D01*
X0027872Y0068068D01*
X0027752Y0067963D01*
X0027629Y0067861D01*
X0027504Y0067762D01*
X0027376Y0067666D01*
X0027246Y0067573D01*
X0027114Y0067483D01*
X0026980Y0067396D01*
X0026844Y0067313D01*
X0026705Y0067233D01*
X0026565Y0067156D01*
X0026423Y0067083D01*
X0026280Y0067014D01*
X0026134Y0066948D01*
X0025987Y0066885D01*
X0025839Y0066826D01*
X0025689Y0066771D01*
X0025538Y0066719D01*
X0025385Y0066671D01*
X0025232Y0066627D01*
X0025077Y0066587D01*
X0024922Y0066550D01*
X0024766Y0066517D01*
X0024609Y0066488D01*
X0024451Y0066463D01*
X0024293Y0066442D01*
X0024134Y0066424D01*
X0023975Y0066411D01*
X0023815Y0066401D01*
X0023656Y0066395D01*
X0023496Y0066393D01*
X0023336Y0066395D01*
X0023177Y0066401D01*
X0023017Y0066411D01*
X0022858Y0066424D01*
X0022699Y0066442D01*
X0022541Y0066463D01*
X0022383Y0066488D01*
X0022226Y0066517D01*
X0022070Y0066550D01*
X0021915Y0066587D01*
X0021760Y0066627D01*
X0021607Y0066671D01*
X0021454Y0066719D01*
X0021303Y0066771D01*
X0021153Y0066826D01*
X0021005Y0066885D01*
X0020858Y0066948D01*
X0020712Y0067014D01*
X0020569Y0067083D01*
X0020427Y0067156D01*
X0020287Y0067233D01*
X0020148Y0067313D01*
X0020012Y0067396D01*
X0019878Y0067483D01*
X0019746Y0067573D01*
X0019616Y0067666D01*
X0019488Y0067762D01*
X0019363Y0067861D01*
X0019240Y0067963D01*
X0019120Y0068068D01*
X0019003Y0068176D01*
X0018888Y0068287D01*
X0018776Y0068401D01*
X0018666Y0068518D01*
X0018560Y0068637D01*
X0018456Y0068758D01*
X0018356Y0068882D01*
X0018258Y0069009D01*
X0018164Y0069138D01*
X0018073Y0069269D01*
X0017985Y0069402D01*
X0017984Y0069402D02*
X0017984Y0076488D01*
X0017985Y0076488D02*
X0018073Y0076621D01*
X0018164Y0076752D01*
X0018258Y0076881D01*
X0018356Y0077008D01*
X0018456Y0077132D01*
X0018560Y0077253D01*
X0018666Y0077372D01*
X0018776Y0077489D01*
X0018888Y0077603D01*
X0019003Y0077714D01*
X0019120Y0077822D01*
X0019240Y0077927D01*
X0019363Y0078029D01*
X0019488Y0078128D01*
X0019616Y0078224D01*
X0019746Y0078317D01*
X0019878Y0078407D01*
X0020012Y0078494D01*
X0020148Y0078577D01*
X0020287Y0078657D01*
X0020427Y0078734D01*
X0020569Y0078807D01*
X0020712Y0078876D01*
X0020858Y0078942D01*
X0021005Y0079005D01*
X0021153Y0079064D01*
X0021303Y0079119D01*
X0021454Y0079171D01*
X0021607Y0079219D01*
X0021760Y0079263D01*
X0021915Y0079303D01*
X0022070Y0079340D01*
X0022226Y0079373D01*
X0022383Y0079402D01*
X0022541Y0079427D01*
X0022699Y0079448D01*
X0022858Y0079466D01*
X0023017Y0079479D01*
X0023177Y0079489D01*
X0023336Y0079495D01*
X0023496Y0079497D01*
X0023656Y0079495D01*
X0023815Y0079489D01*
X0023975Y0079479D01*
X0024134Y0079466D01*
X0024293Y0079448D01*
X0024451Y0079427D01*
X0024609Y0079402D01*
X0024766Y0079373D01*
X0024922Y0079340D01*
X0025077Y0079303D01*
X0025232Y0079263D01*
X0025385Y0079219D01*
X0025538Y0079171D01*
X0025689Y0079119D01*
X0025839Y0079064D01*
X0025987Y0079005D01*
X0026134Y0078942D01*
X0026280Y0078876D01*
X0026423Y0078807D01*
X0026565Y0078734D01*
X0026705Y0078657D01*
X0026844Y0078577D01*
X0026980Y0078494D01*
X0027114Y0078407D01*
X0027246Y0078317D01*
X0027376Y0078224D01*
X0027504Y0078128D01*
X0027629Y0078029D01*
X0027752Y0077927D01*
X0027872Y0077822D01*
X0027989Y0077714D01*
X0028104Y0077603D01*
X0028216Y0077489D01*
X0028326Y0077372D01*
X0028432Y0077253D01*
X0028536Y0077132D01*
X0028636Y0077008D01*
X0028734Y0076881D01*
X0028828Y0076752D01*
X0028919Y0076621D01*
X0029007Y0076488D01*
X0028614Y0069008D02*
X0031370Y0069008D01*
X0052630Y0069008D02*
X0055386Y0069008D01*
X0054993Y0076488D02*
X0055081Y0076621D01*
X0055172Y0076752D01*
X0055266Y0076881D01*
X0055364Y0077008D01*
X0055464Y0077132D01*
X0055568Y0077253D01*
X0055674Y0077372D01*
X0055784Y0077489D01*
X0055896Y0077603D01*
X0056011Y0077714D01*
X0056128Y0077822D01*
X0056248Y0077927D01*
X0056371Y0078029D01*
X0056496Y0078128D01*
X0056624Y0078224D01*
X0056754Y0078317D01*
X0056886Y0078407D01*
X0057020Y0078494D01*
X0057156Y0078577D01*
X0057295Y0078657D01*
X0057435Y0078734D01*
X0057577Y0078807D01*
X0057720Y0078876D01*
X0057866Y0078942D01*
X0058013Y0079005D01*
X0058161Y0079064D01*
X0058311Y0079119D01*
X0058462Y0079171D01*
X0058615Y0079219D01*
X0058768Y0079263D01*
X0058923Y0079303D01*
X0059078Y0079340D01*
X0059234Y0079373D01*
X0059391Y0079402D01*
X0059549Y0079427D01*
X0059707Y0079448D01*
X0059866Y0079466D01*
X0060025Y0079479D01*
X0060185Y0079489D01*
X0060344Y0079495D01*
X0060504Y0079497D01*
X0060664Y0079495D01*
X0060823Y0079489D01*
X0060983Y0079479D01*
X0061142Y0079466D01*
X0061301Y0079448D01*
X0061459Y0079427D01*
X0061617Y0079402D01*
X0061774Y0079373D01*
X0061930Y0079340D01*
X0062085Y0079303D01*
X0062240Y0079263D01*
X0062393Y0079219D01*
X0062546Y0079171D01*
X0062697Y0079119D01*
X0062847Y0079064D01*
X0062995Y0079005D01*
X0063142Y0078942D01*
X0063288Y0078876D01*
X0063431Y0078807D01*
X0063573Y0078734D01*
X0063713Y0078657D01*
X0063852Y0078577D01*
X0063988Y0078494D01*
X0064122Y0078407D01*
X0064254Y0078317D01*
X0064384Y0078224D01*
X0064512Y0078128D01*
X0064637Y0078029D01*
X0064760Y0077927D01*
X0064880Y0077822D01*
X0064997Y0077714D01*
X0065112Y0077603D01*
X0065224Y0077489D01*
X0065334Y0077372D01*
X0065440Y0077253D01*
X0065544Y0077132D01*
X0065644Y0077008D01*
X0065742Y0076881D01*
X0065836Y0076752D01*
X0065927Y0076621D01*
X0066015Y0076488D01*
X0066016Y0076488D02*
X0066016Y0069402D01*
X0066015Y0069402D02*
X0065927Y0069269D01*
X0065836Y0069138D01*
X0065742Y0069009D01*
X0065644Y0068882D01*
X0065544Y0068758D01*
X0065440Y0068637D01*
X0065334Y0068518D01*
X0065224Y0068401D01*
X0065112Y0068287D01*
X0064997Y0068176D01*
X0064880Y0068068D01*
X0064760Y0067963D01*
X0064637Y0067861D01*
X0064512Y0067762D01*
X0064384Y0067666D01*
X0064254Y0067573D01*
X0064122Y0067483D01*
X0063988Y0067396D01*
X0063852Y0067313D01*
X0063713Y0067233D01*
X0063573Y0067156D01*
X0063431Y0067083D01*
X0063288Y0067014D01*
X0063142Y0066948D01*
X0062995Y0066885D01*
X0062847Y0066826D01*
X0062697Y0066771D01*
X0062546Y0066719D01*
X0062393Y0066671D01*
X0062240Y0066627D01*
X0062085Y0066587D01*
X0061930Y0066550D01*
X0061774Y0066517D01*
X0061617Y0066488D01*
X0061459Y0066463D01*
X0061301Y0066442D01*
X0061142Y0066424D01*
X0060983Y0066411D01*
X0060823Y0066401D01*
X0060664Y0066395D01*
X0060504Y0066393D01*
X0060344Y0066395D01*
X0060185Y0066401D01*
X0060025Y0066411D01*
X0059866Y0066424D01*
X0059707Y0066442D01*
X0059549Y0066463D01*
X0059391Y0066488D01*
X0059234Y0066517D01*
X0059078Y0066550D01*
X0058923Y0066587D01*
X0058768Y0066627D01*
X0058615Y0066671D01*
X0058462Y0066719D01*
X0058311Y0066771D01*
X0058161Y0066826D01*
X0058013Y0066885D01*
X0057866Y0066948D01*
X0057720Y0067014D01*
X0057577Y0067083D01*
X0057435Y0067156D01*
X0057295Y0067233D01*
X0057156Y0067313D01*
X0057020Y0067396D01*
X0056886Y0067483D01*
X0056754Y0067573D01*
X0056624Y0067666D01*
X0056496Y0067762D01*
X0056371Y0067861D01*
X0056248Y0067963D01*
X0056128Y0068068D01*
X0056011Y0068176D01*
X0055896Y0068287D01*
X0055784Y0068401D01*
X0055674Y0068518D01*
X0055568Y0068637D01*
X0055464Y0068758D01*
X0055364Y0068882D01*
X0055266Y0069009D01*
X0055172Y0069138D01*
X0055081Y0069269D01*
X0054993Y0069402D01*
X0055386Y0076882D02*
X0052630Y0076882D01*
M02*
