G75*
%MOIN*%
%OFA0B0*%
%FSLAX25Y25*%
%IPPOS*%
%LPD*%
%AMOC8*
5,1,8,0,0,1.08239X$1,22.5*
%
%ADD10C,0.00600*%
%ADD11C,0.01200*%
%ADD12R,0.01500X0.02000*%
%ADD13C,0.00500*%
%ADD14C,0.01000*%
D10*
X0092500Y0040500D02*
X0092500Y0053500D01*
X0092502Y0053587D01*
X0092508Y0053674D01*
X0092517Y0053761D01*
X0092530Y0053847D01*
X0092547Y0053933D01*
X0092568Y0054018D01*
X0092593Y0054101D01*
X0092621Y0054184D01*
X0092652Y0054265D01*
X0092687Y0054345D01*
X0092726Y0054423D01*
X0092768Y0054500D01*
X0092813Y0054575D01*
X0092862Y0054647D01*
X0092913Y0054718D01*
X0092968Y0054786D01*
X0093025Y0054851D01*
X0093086Y0054914D01*
X0093149Y0054975D01*
X0093214Y0055032D01*
X0093282Y0055087D01*
X0093353Y0055138D01*
X0093425Y0055187D01*
X0093500Y0055232D01*
X0093577Y0055274D01*
X0093655Y0055313D01*
X0093735Y0055348D01*
X0093816Y0055379D01*
X0093899Y0055407D01*
X0093982Y0055432D01*
X0094067Y0055453D01*
X0094153Y0055470D01*
X0094239Y0055483D01*
X0094326Y0055492D01*
X0094413Y0055498D01*
X0094500Y0055500D01*
X0099500Y0055500D01*
X0099587Y0055498D01*
X0099674Y0055492D01*
X0099761Y0055483D01*
X0099847Y0055470D01*
X0099933Y0055453D01*
X0100018Y0055432D01*
X0100101Y0055407D01*
X0100184Y0055379D01*
X0100265Y0055348D01*
X0100345Y0055313D01*
X0100423Y0055274D01*
X0100500Y0055232D01*
X0100575Y0055187D01*
X0100647Y0055138D01*
X0100718Y0055087D01*
X0100786Y0055032D01*
X0100851Y0054975D01*
X0100914Y0054914D01*
X0100975Y0054851D01*
X0101032Y0054786D01*
X0101087Y0054718D01*
X0101138Y0054647D01*
X0101187Y0054575D01*
X0101232Y0054500D01*
X0101274Y0054423D01*
X0101313Y0054345D01*
X0101348Y0054265D01*
X0101379Y0054184D01*
X0101407Y0054101D01*
X0101432Y0054018D01*
X0101453Y0053933D01*
X0101470Y0053847D01*
X0101483Y0053761D01*
X0101492Y0053674D01*
X0101498Y0053587D01*
X0101500Y0053500D01*
X0101500Y0040500D01*
X0101498Y0040413D01*
X0101492Y0040326D01*
X0101483Y0040239D01*
X0101470Y0040153D01*
X0101453Y0040067D01*
X0101432Y0039982D01*
X0101407Y0039899D01*
X0101379Y0039816D01*
X0101348Y0039735D01*
X0101313Y0039655D01*
X0101274Y0039577D01*
X0101232Y0039500D01*
X0101187Y0039425D01*
X0101138Y0039353D01*
X0101087Y0039282D01*
X0101032Y0039214D01*
X0100975Y0039149D01*
X0100914Y0039086D01*
X0100851Y0039025D01*
X0100786Y0038968D01*
X0100718Y0038913D01*
X0100647Y0038862D01*
X0100575Y0038813D01*
X0100500Y0038768D01*
X0100423Y0038726D01*
X0100345Y0038687D01*
X0100265Y0038652D01*
X0100184Y0038621D01*
X0100101Y0038593D01*
X0100018Y0038568D01*
X0099933Y0038547D01*
X0099847Y0038530D01*
X0099761Y0038517D01*
X0099674Y0038508D01*
X0099587Y0038502D01*
X0099500Y0038500D01*
X0094500Y0038500D01*
X0094413Y0038502D01*
X0094326Y0038508D01*
X0094239Y0038517D01*
X0094153Y0038530D01*
X0094067Y0038547D01*
X0093982Y0038568D01*
X0093899Y0038593D01*
X0093816Y0038621D01*
X0093735Y0038652D01*
X0093655Y0038687D01*
X0093577Y0038726D01*
X0093500Y0038768D01*
X0093425Y0038813D01*
X0093353Y0038862D01*
X0093282Y0038913D01*
X0093214Y0038968D01*
X0093149Y0039025D01*
X0093086Y0039086D01*
X0093025Y0039149D01*
X0092968Y0039214D01*
X0092913Y0039282D01*
X0092862Y0039353D01*
X0092813Y0039425D01*
X0092768Y0039500D01*
X0092726Y0039577D01*
X0092687Y0039655D01*
X0092652Y0039735D01*
X0092621Y0039816D01*
X0092593Y0039899D01*
X0092568Y0039982D01*
X0092547Y0040067D01*
X0092530Y0040153D01*
X0092517Y0040239D01*
X0092508Y0040326D01*
X0092502Y0040413D01*
X0092500Y0040500D01*
X0127500Y0082500D02*
X0127000Y0083000D01*
X0127000Y0085000D01*
X0127500Y0085500D01*
X0127500Y0082500D02*
X0127565Y0082438D01*
X0127633Y0082378D01*
X0127703Y0082322D01*
X0127775Y0082268D01*
X0127850Y0082218D01*
X0127927Y0082171D01*
X0128005Y0082127D01*
X0128086Y0082086D01*
X0128168Y0082049D01*
X0128251Y0082016D01*
X0128336Y0081986D01*
X0128422Y0081959D01*
X0128509Y0081937D01*
X0128597Y0081918D01*
X0128686Y0081902D01*
X0128775Y0081891D01*
X0128865Y0081883D01*
X0128955Y0081879D01*
X0129045Y0081879D01*
X0129135Y0081883D01*
X0129225Y0081891D01*
X0129314Y0081902D01*
X0129403Y0081918D01*
X0129491Y0081937D01*
X0129578Y0081959D01*
X0129664Y0081986D01*
X0129749Y0082016D01*
X0129832Y0082049D01*
X0129914Y0082086D01*
X0129995Y0082127D01*
X0130073Y0082171D01*
X0130150Y0082218D01*
X0130225Y0082268D01*
X0130297Y0082322D01*
X0130367Y0082378D01*
X0130435Y0082438D01*
X0130500Y0082500D01*
X0131000Y0083000D01*
X0131000Y0085000D01*
X0130500Y0085500D01*
X0130000Y0084000D02*
X0129998Y0084060D01*
X0129993Y0084121D01*
X0129984Y0084180D01*
X0129971Y0084239D01*
X0129955Y0084298D01*
X0129935Y0084355D01*
X0129912Y0084410D01*
X0129885Y0084465D01*
X0129856Y0084517D01*
X0129823Y0084568D01*
X0129787Y0084617D01*
X0129749Y0084663D01*
X0129707Y0084707D01*
X0129663Y0084749D01*
X0129617Y0084787D01*
X0129568Y0084823D01*
X0129517Y0084856D01*
X0129465Y0084885D01*
X0129410Y0084912D01*
X0129355Y0084935D01*
X0129298Y0084955D01*
X0129239Y0084971D01*
X0129180Y0084984D01*
X0129121Y0084993D01*
X0129060Y0084998D01*
X0129000Y0085000D01*
X0128000Y0084000D02*
X0128002Y0083940D01*
X0128007Y0083879D01*
X0128016Y0083820D01*
X0128029Y0083761D01*
X0128045Y0083702D01*
X0128065Y0083645D01*
X0128088Y0083590D01*
X0128115Y0083535D01*
X0128144Y0083483D01*
X0128177Y0083432D01*
X0128213Y0083383D01*
X0128251Y0083337D01*
X0128293Y0083293D01*
X0128337Y0083251D01*
X0128383Y0083213D01*
X0128432Y0083177D01*
X0128483Y0083144D01*
X0128535Y0083115D01*
X0128590Y0083088D01*
X0128645Y0083065D01*
X0128702Y0083045D01*
X0128761Y0083029D01*
X0128820Y0083016D01*
X0128879Y0083007D01*
X0128940Y0083002D01*
X0129000Y0083000D01*
X0104000Y0101000D02*
X0104000Y0107000D01*
X0103998Y0107060D01*
X0103993Y0107121D01*
X0103984Y0107180D01*
X0103971Y0107239D01*
X0103955Y0107298D01*
X0103935Y0107355D01*
X0103912Y0107410D01*
X0103885Y0107465D01*
X0103856Y0107517D01*
X0103823Y0107568D01*
X0103787Y0107617D01*
X0103749Y0107663D01*
X0103707Y0107707D01*
X0103663Y0107749D01*
X0103617Y0107787D01*
X0103568Y0107823D01*
X0103517Y0107856D01*
X0103465Y0107885D01*
X0103410Y0107912D01*
X0103355Y0107935D01*
X0103298Y0107955D01*
X0103239Y0107971D01*
X0103180Y0107984D01*
X0103121Y0107993D01*
X0103060Y0107998D01*
X0103000Y0108000D01*
X0101500Y0108000D01*
X0101000Y0107500D01*
X0087000Y0107500D01*
X0086500Y0108000D01*
X0085000Y0108000D01*
X0084940Y0107998D01*
X0084879Y0107993D01*
X0084820Y0107984D01*
X0084761Y0107971D01*
X0084702Y0107955D01*
X0084645Y0107935D01*
X0084590Y0107912D01*
X0084535Y0107885D01*
X0084483Y0107856D01*
X0084432Y0107823D01*
X0084383Y0107787D01*
X0084337Y0107749D01*
X0084293Y0107707D01*
X0084251Y0107663D01*
X0084213Y0107617D01*
X0084177Y0107568D01*
X0084144Y0107517D01*
X0084115Y0107465D01*
X0084088Y0107410D01*
X0084065Y0107355D01*
X0084045Y0107298D01*
X0084029Y0107239D01*
X0084016Y0107180D01*
X0084007Y0107121D01*
X0084002Y0107060D01*
X0084000Y0107000D01*
X0084000Y0101000D01*
X0084002Y0100940D01*
X0084007Y0100879D01*
X0084016Y0100820D01*
X0084029Y0100761D01*
X0084045Y0100702D01*
X0084065Y0100645D01*
X0084088Y0100590D01*
X0084115Y0100535D01*
X0084144Y0100483D01*
X0084177Y0100432D01*
X0084213Y0100383D01*
X0084251Y0100337D01*
X0084293Y0100293D01*
X0084337Y0100251D01*
X0084383Y0100213D01*
X0084432Y0100177D01*
X0084483Y0100144D01*
X0084535Y0100115D01*
X0084590Y0100088D01*
X0084645Y0100065D01*
X0084702Y0100045D01*
X0084761Y0100029D01*
X0084820Y0100016D01*
X0084879Y0100007D01*
X0084940Y0100002D01*
X0085000Y0100000D01*
X0086500Y0100000D01*
X0087000Y0100500D01*
X0101000Y0100500D01*
X0101500Y0100000D01*
X0103000Y0100000D01*
X0103060Y0100002D01*
X0103121Y0100007D01*
X0103180Y0100016D01*
X0103239Y0100029D01*
X0103298Y0100045D01*
X0103355Y0100065D01*
X0103410Y0100088D01*
X0103465Y0100115D01*
X0103517Y0100144D01*
X0103568Y0100177D01*
X0103617Y0100213D01*
X0103663Y0100251D01*
X0103707Y0100293D01*
X0103749Y0100337D01*
X0103787Y0100383D01*
X0103823Y0100432D01*
X0103856Y0100483D01*
X0103885Y0100535D01*
X0103912Y0100590D01*
X0103935Y0100645D01*
X0103955Y0100702D01*
X0103971Y0100761D01*
X0103984Y0100820D01*
X0103993Y0100879D01*
X0103998Y0100940D01*
X0104000Y0101000D01*
D11*
X0100000Y0048200D02*
X0094000Y0048200D01*
X0094000Y0045700D02*
X0100000Y0045700D01*
D12*
X0104750Y0104000D03*
X0083250Y0104000D03*
D13*
X0081386Y0091252D02*
X0081386Y0080228D01*
X0065244Y0080228D01*
X0065244Y0091055D01*
X0065244Y0091252D02*
X0081386Y0091252D01*
D14*
X0021764Y0088661D02*
X0021764Y0062283D01*
X0042236Y0062283D01*
X0042236Y0099291D01*
X0021764Y0099291D01*
X0021764Y0092992D01*
X0021672Y0092990D01*
X0021580Y0092984D01*
X0021489Y0092974D01*
X0021398Y0092961D01*
X0021308Y0092943D01*
X0021218Y0092922D01*
X0021130Y0092897D01*
X0021043Y0092868D01*
X0020957Y0092836D01*
X0020872Y0092800D01*
X0020789Y0092760D01*
X0020708Y0092717D01*
X0020629Y0092671D01*
X0020552Y0092621D01*
X0020477Y0092568D01*
X0020404Y0092511D01*
X0020334Y0092452D01*
X0020266Y0092390D01*
X0020201Y0092325D01*
X0020139Y0092257D01*
X0020080Y0092187D01*
X0020023Y0092114D01*
X0019970Y0092039D01*
X0019920Y0091962D01*
X0019874Y0091883D01*
X0019831Y0091802D01*
X0019791Y0091719D01*
X0019755Y0091634D01*
X0019723Y0091548D01*
X0019694Y0091461D01*
X0019669Y0091373D01*
X0019648Y0091283D01*
X0019630Y0091193D01*
X0019617Y0091102D01*
X0019607Y0091011D01*
X0019601Y0090919D01*
X0019599Y0090827D01*
X0019601Y0090735D01*
X0019607Y0090643D01*
X0019617Y0090552D01*
X0019630Y0090461D01*
X0019648Y0090371D01*
X0019669Y0090281D01*
X0019694Y0090193D01*
X0019723Y0090106D01*
X0019755Y0090020D01*
X0019791Y0089935D01*
X0019831Y0089852D01*
X0019874Y0089771D01*
X0019920Y0089692D01*
X0019970Y0089615D01*
X0020023Y0089540D01*
X0020080Y0089467D01*
X0020139Y0089397D01*
X0020201Y0089329D01*
X0020266Y0089264D01*
X0020334Y0089202D01*
X0020404Y0089143D01*
X0020477Y0089086D01*
X0020552Y0089033D01*
X0020629Y0088983D01*
X0020708Y0088937D01*
X0020789Y0088894D01*
X0020872Y0088854D01*
X0020957Y0088818D01*
X0021043Y0088786D01*
X0021130Y0088757D01*
X0021218Y0088732D01*
X0021308Y0088711D01*
X0021398Y0088693D01*
X0021489Y0088680D01*
X0021580Y0088670D01*
X0021672Y0088664D01*
X0021764Y0088662D01*
X0021370Y0074882D02*
X0018614Y0074882D01*
X0019007Y0067402D02*
X0018919Y0067269D01*
X0018828Y0067138D01*
X0018734Y0067009D01*
X0018636Y0066882D01*
X0018536Y0066758D01*
X0018432Y0066637D01*
X0018326Y0066518D01*
X0018216Y0066401D01*
X0018104Y0066287D01*
X0017989Y0066176D01*
X0017872Y0066068D01*
X0017752Y0065963D01*
X0017629Y0065861D01*
X0017504Y0065762D01*
X0017376Y0065666D01*
X0017246Y0065573D01*
X0017114Y0065483D01*
X0016980Y0065396D01*
X0016844Y0065313D01*
X0016705Y0065233D01*
X0016565Y0065156D01*
X0016423Y0065083D01*
X0016280Y0065014D01*
X0016134Y0064948D01*
X0015987Y0064885D01*
X0015839Y0064826D01*
X0015689Y0064771D01*
X0015538Y0064719D01*
X0015385Y0064671D01*
X0015232Y0064627D01*
X0015077Y0064587D01*
X0014922Y0064550D01*
X0014766Y0064517D01*
X0014609Y0064488D01*
X0014451Y0064463D01*
X0014293Y0064442D01*
X0014134Y0064424D01*
X0013975Y0064411D01*
X0013815Y0064401D01*
X0013656Y0064395D01*
X0013496Y0064393D01*
X0013336Y0064395D01*
X0013177Y0064401D01*
X0013017Y0064411D01*
X0012858Y0064424D01*
X0012699Y0064442D01*
X0012541Y0064463D01*
X0012383Y0064488D01*
X0012226Y0064517D01*
X0012070Y0064550D01*
X0011915Y0064587D01*
X0011760Y0064627D01*
X0011607Y0064671D01*
X0011454Y0064719D01*
X0011303Y0064771D01*
X0011153Y0064826D01*
X0011005Y0064885D01*
X0010858Y0064948D01*
X0010712Y0065014D01*
X0010569Y0065083D01*
X0010427Y0065156D01*
X0010287Y0065233D01*
X0010148Y0065313D01*
X0010012Y0065396D01*
X0009878Y0065483D01*
X0009746Y0065573D01*
X0009616Y0065666D01*
X0009488Y0065762D01*
X0009363Y0065861D01*
X0009240Y0065963D01*
X0009120Y0066068D01*
X0009003Y0066176D01*
X0008888Y0066287D01*
X0008776Y0066401D01*
X0008666Y0066518D01*
X0008560Y0066637D01*
X0008456Y0066758D01*
X0008356Y0066882D01*
X0008258Y0067009D01*
X0008164Y0067138D01*
X0008073Y0067269D01*
X0007985Y0067402D01*
X0007984Y0067402D02*
X0007984Y0074488D01*
X0007985Y0074488D02*
X0008073Y0074621D01*
X0008164Y0074752D01*
X0008258Y0074881D01*
X0008356Y0075008D01*
X0008456Y0075132D01*
X0008560Y0075253D01*
X0008666Y0075372D01*
X0008776Y0075489D01*
X0008888Y0075603D01*
X0009003Y0075714D01*
X0009120Y0075822D01*
X0009240Y0075927D01*
X0009363Y0076029D01*
X0009488Y0076128D01*
X0009616Y0076224D01*
X0009746Y0076317D01*
X0009878Y0076407D01*
X0010012Y0076494D01*
X0010148Y0076577D01*
X0010287Y0076657D01*
X0010427Y0076734D01*
X0010569Y0076807D01*
X0010712Y0076876D01*
X0010858Y0076942D01*
X0011005Y0077005D01*
X0011153Y0077064D01*
X0011303Y0077119D01*
X0011454Y0077171D01*
X0011607Y0077219D01*
X0011760Y0077263D01*
X0011915Y0077303D01*
X0012070Y0077340D01*
X0012226Y0077373D01*
X0012383Y0077402D01*
X0012541Y0077427D01*
X0012699Y0077448D01*
X0012858Y0077466D01*
X0013017Y0077479D01*
X0013177Y0077489D01*
X0013336Y0077495D01*
X0013496Y0077497D01*
X0013656Y0077495D01*
X0013815Y0077489D01*
X0013975Y0077479D01*
X0014134Y0077466D01*
X0014293Y0077448D01*
X0014451Y0077427D01*
X0014609Y0077402D01*
X0014766Y0077373D01*
X0014922Y0077340D01*
X0015077Y0077303D01*
X0015232Y0077263D01*
X0015385Y0077219D01*
X0015538Y0077171D01*
X0015689Y0077119D01*
X0015839Y0077064D01*
X0015987Y0077005D01*
X0016134Y0076942D01*
X0016280Y0076876D01*
X0016423Y0076807D01*
X0016565Y0076734D01*
X0016705Y0076657D01*
X0016844Y0076577D01*
X0016980Y0076494D01*
X0017114Y0076407D01*
X0017246Y0076317D01*
X0017376Y0076224D01*
X0017504Y0076128D01*
X0017629Y0076029D01*
X0017752Y0075927D01*
X0017872Y0075822D01*
X0017989Y0075714D01*
X0018104Y0075603D01*
X0018216Y0075489D01*
X0018326Y0075372D01*
X0018432Y0075253D01*
X0018536Y0075132D01*
X0018636Y0075008D01*
X0018734Y0074881D01*
X0018828Y0074752D01*
X0018919Y0074621D01*
X0019007Y0074488D01*
X0018614Y0067008D02*
X0021370Y0067008D01*
X0042630Y0067008D02*
X0045386Y0067008D01*
X0044993Y0074488D02*
X0045081Y0074621D01*
X0045172Y0074752D01*
X0045266Y0074881D01*
X0045364Y0075008D01*
X0045464Y0075132D01*
X0045568Y0075253D01*
X0045674Y0075372D01*
X0045784Y0075489D01*
X0045896Y0075603D01*
X0046011Y0075714D01*
X0046128Y0075822D01*
X0046248Y0075927D01*
X0046371Y0076029D01*
X0046496Y0076128D01*
X0046624Y0076224D01*
X0046754Y0076317D01*
X0046886Y0076407D01*
X0047020Y0076494D01*
X0047156Y0076577D01*
X0047295Y0076657D01*
X0047435Y0076734D01*
X0047577Y0076807D01*
X0047720Y0076876D01*
X0047866Y0076942D01*
X0048013Y0077005D01*
X0048161Y0077064D01*
X0048311Y0077119D01*
X0048462Y0077171D01*
X0048615Y0077219D01*
X0048768Y0077263D01*
X0048923Y0077303D01*
X0049078Y0077340D01*
X0049234Y0077373D01*
X0049391Y0077402D01*
X0049549Y0077427D01*
X0049707Y0077448D01*
X0049866Y0077466D01*
X0050025Y0077479D01*
X0050185Y0077489D01*
X0050344Y0077495D01*
X0050504Y0077497D01*
X0050664Y0077495D01*
X0050823Y0077489D01*
X0050983Y0077479D01*
X0051142Y0077466D01*
X0051301Y0077448D01*
X0051459Y0077427D01*
X0051617Y0077402D01*
X0051774Y0077373D01*
X0051930Y0077340D01*
X0052085Y0077303D01*
X0052240Y0077263D01*
X0052393Y0077219D01*
X0052546Y0077171D01*
X0052697Y0077119D01*
X0052847Y0077064D01*
X0052995Y0077005D01*
X0053142Y0076942D01*
X0053288Y0076876D01*
X0053431Y0076807D01*
X0053573Y0076734D01*
X0053713Y0076657D01*
X0053852Y0076577D01*
X0053988Y0076494D01*
X0054122Y0076407D01*
X0054254Y0076317D01*
X0054384Y0076224D01*
X0054512Y0076128D01*
X0054637Y0076029D01*
X0054760Y0075927D01*
X0054880Y0075822D01*
X0054997Y0075714D01*
X0055112Y0075603D01*
X0055224Y0075489D01*
X0055334Y0075372D01*
X0055440Y0075253D01*
X0055544Y0075132D01*
X0055644Y0075008D01*
X0055742Y0074881D01*
X0055836Y0074752D01*
X0055927Y0074621D01*
X0056015Y0074488D01*
X0056016Y0074488D02*
X0056016Y0067402D01*
X0056015Y0067402D02*
X0055927Y0067269D01*
X0055836Y0067138D01*
X0055742Y0067009D01*
X0055644Y0066882D01*
X0055544Y0066758D01*
X0055440Y0066637D01*
X0055334Y0066518D01*
X0055224Y0066401D01*
X0055112Y0066287D01*
X0054997Y0066176D01*
X0054880Y0066068D01*
X0054760Y0065963D01*
X0054637Y0065861D01*
X0054512Y0065762D01*
X0054384Y0065666D01*
X0054254Y0065573D01*
X0054122Y0065483D01*
X0053988Y0065396D01*
X0053852Y0065313D01*
X0053713Y0065233D01*
X0053573Y0065156D01*
X0053431Y0065083D01*
X0053288Y0065014D01*
X0053142Y0064948D01*
X0052995Y0064885D01*
X0052847Y0064826D01*
X0052697Y0064771D01*
X0052546Y0064719D01*
X0052393Y0064671D01*
X0052240Y0064627D01*
X0052085Y0064587D01*
X0051930Y0064550D01*
X0051774Y0064517D01*
X0051617Y0064488D01*
X0051459Y0064463D01*
X0051301Y0064442D01*
X0051142Y0064424D01*
X0050983Y0064411D01*
X0050823Y0064401D01*
X0050664Y0064395D01*
X0050504Y0064393D01*
X0050344Y0064395D01*
X0050185Y0064401D01*
X0050025Y0064411D01*
X0049866Y0064424D01*
X0049707Y0064442D01*
X0049549Y0064463D01*
X0049391Y0064488D01*
X0049234Y0064517D01*
X0049078Y0064550D01*
X0048923Y0064587D01*
X0048768Y0064627D01*
X0048615Y0064671D01*
X0048462Y0064719D01*
X0048311Y0064771D01*
X0048161Y0064826D01*
X0048013Y0064885D01*
X0047866Y0064948D01*
X0047720Y0065014D01*
X0047577Y0065083D01*
X0047435Y0065156D01*
X0047295Y0065233D01*
X0047156Y0065313D01*
X0047020Y0065396D01*
X0046886Y0065483D01*
X0046754Y0065573D01*
X0046624Y0065666D01*
X0046496Y0065762D01*
X0046371Y0065861D01*
X0046248Y0065963D01*
X0046128Y0066068D01*
X0046011Y0066176D01*
X0045896Y0066287D01*
X0045784Y0066401D01*
X0045674Y0066518D01*
X0045568Y0066637D01*
X0045464Y0066758D01*
X0045364Y0066882D01*
X0045266Y0067009D01*
X0045172Y0067138D01*
X0045081Y0067269D01*
X0044993Y0067402D01*
X0045386Y0074882D02*
X0042630Y0074882D01*
M02*
