G75*
%MOIN*%
%OFA0B0*%
%FSLAX25Y25*%
%IPPOS*%
%LPD*%
%AMOC8*
5,1,8,0,0,1.08239X$1,22.5*
%
%ADD10C,0.00000*%
%ADD11OC8,0.05200*%
%ADD12R,0.04331X0.02362*%
%ADD13R,0.08268X0.08268*%
%ADD14C,0.02000*%
%ADD15C,0.02978*%
D10*
X0002000Y0002000D02*
X0002000Y0111961D01*
X0160701Y0111961D01*
X0160701Y0002000D01*
X0002000Y0002000D01*
X0007590Y0037984D02*
X0007592Y0038137D01*
X0007598Y0038291D01*
X0007608Y0038444D01*
X0007622Y0038596D01*
X0007640Y0038749D01*
X0007662Y0038900D01*
X0007687Y0039051D01*
X0007717Y0039202D01*
X0007751Y0039352D01*
X0007788Y0039500D01*
X0007829Y0039648D01*
X0007874Y0039794D01*
X0007923Y0039940D01*
X0007976Y0040084D01*
X0008032Y0040226D01*
X0008092Y0040367D01*
X0008156Y0040507D01*
X0008223Y0040645D01*
X0008294Y0040781D01*
X0008369Y0040915D01*
X0008446Y0041047D01*
X0008528Y0041177D01*
X0008612Y0041305D01*
X0008700Y0041431D01*
X0008791Y0041554D01*
X0008885Y0041675D01*
X0008983Y0041793D01*
X0009083Y0041909D01*
X0009187Y0042022D01*
X0009293Y0042133D01*
X0009402Y0042241D01*
X0009514Y0042346D01*
X0009628Y0042447D01*
X0009746Y0042546D01*
X0009865Y0042642D01*
X0009987Y0042735D01*
X0010112Y0042824D01*
X0010239Y0042911D01*
X0010368Y0042993D01*
X0010499Y0043073D01*
X0010632Y0043149D01*
X0010767Y0043222D01*
X0010904Y0043291D01*
X0011043Y0043356D01*
X0011183Y0043418D01*
X0011325Y0043476D01*
X0011468Y0043531D01*
X0011613Y0043582D01*
X0011759Y0043629D01*
X0011906Y0043672D01*
X0012054Y0043711D01*
X0012203Y0043747D01*
X0012353Y0043778D01*
X0012504Y0043806D01*
X0012655Y0043830D01*
X0012808Y0043850D01*
X0012960Y0043866D01*
X0013113Y0043878D01*
X0013266Y0043886D01*
X0013419Y0043890D01*
X0013573Y0043890D01*
X0013726Y0043886D01*
X0013879Y0043878D01*
X0014032Y0043866D01*
X0014184Y0043850D01*
X0014337Y0043830D01*
X0014488Y0043806D01*
X0014639Y0043778D01*
X0014789Y0043747D01*
X0014938Y0043711D01*
X0015086Y0043672D01*
X0015233Y0043629D01*
X0015379Y0043582D01*
X0015524Y0043531D01*
X0015667Y0043476D01*
X0015809Y0043418D01*
X0015949Y0043356D01*
X0016088Y0043291D01*
X0016225Y0043222D01*
X0016360Y0043149D01*
X0016493Y0043073D01*
X0016624Y0042993D01*
X0016753Y0042911D01*
X0016880Y0042824D01*
X0017005Y0042735D01*
X0017127Y0042642D01*
X0017246Y0042546D01*
X0017364Y0042447D01*
X0017478Y0042346D01*
X0017590Y0042241D01*
X0017699Y0042133D01*
X0017805Y0042022D01*
X0017909Y0041909D01*
X0018009Y0041793D01*
X0018107Y0041675D01*
X0018201Y0041554D01*
X0018292Y0041431D01*
X0018380Y0041305D01*
X0018464Y0041177D01*
X0018546Y0041047D01*
X0018623Y0040915D01*
X0018698Y0040781D01*
X0018769Y0040645D01*
X0018836Y0040507D01*
X0018900Y0040367D01*
X0018960Y0040226D01*
X0019016Y0040084D01*
X0019069Y0039940D01*
X0019118Y0039794D01*
X0019163Y0039648D01*
X0019204Y0039500D01*
X0019241Y0039352D01*
X0019275Y0039202D01*
X0019305Y0039051D01*
X0019330Y0038900D01*
X0019352Y0038749D01*
X0019370Y0038596D01*
X0019384Y0038444D01*
X0019394Y0038291D01*
X0019400Y0038137D01*
X0019402Y0037984D01*
X0019400Y0037831D01*
X0019394Y0037677D01*
X0019384Y0037524D01*
X0019370Y0037372D01*
X0019352Y0037219D01*
X0019330Y0037068D01*
X0019305Y0036917D01*
X0019275Y0036766D01*
X0019241Y0036616D01*
X0019204Y0036468D01*
X0019163Y0036320D01*
X0019118Y0036174D01*
X0019069Y0036028D01*
X0019016Y0035884D01*
X0018960Y0035742D01*
X0018900Y0035601D01*
X0018836Y0035461D01*
X0018769Y0035323D01*
X0018698Y0035187D01*
X0018623Y0035053D01*
X0018546Y0034921D01*
X0018464Y0034791D01*
X0018380Y0034663D01*
X0018292Y0034537D01*
X0018201Y0034414D01*
X0018107Y0034293D01*
X0018009Y0034175D01*
X0017909Y0034059D01*
X0017805Y0033946D01*
X0017699Y0033835D01*
X0017590Y0033727D01*
X0017478Y0033622D01*
X0017364Y0033521D01*
X0017246Y0033422D01*
X0017127Y0033326D01*
X0017005Y0033233D01*
X0016880Y0033144D01*
X0016753Y0033057D01*
X0016624Y0032975D01*
X0016493Y0032895D01*
X0016360Y0032819D01*
X0016225Y0032746D01*
X0016088Y0032677D01*
X0015949Y0032612D01*
X0015809Y0032550D01*
X0015667Y0032492D01*
X0015524Y0032437D01*
X0015379Y0032386D01*
X0015233Y0032339D01*
X0015086Y0032296D01*
X0014938Y0032257D01*
X0014789Y0032221D01*
X0014639Y0032190D01*
X0014488Y0032162D01*
X0014337Y0032138D01*
X0014184Y0032118D01*
X0014032Y0032102D01*
X0013879Y0032090D01*
X0013726Y0032082D01*
X0013573Y0032078D01*
X0013419Y0032078D01*
X0013266Y0032082D01*
X0013113Y0032090D01*
X0012960Y0032102D01*
X0012808Y0032118D01*
X0012655Y0032138D01*
X0012504Y0032162D01*
X0012353Y0032190D01*
X0012203Y0032221D01*
X0012054Y0032257D01*
X0011906Y0032296D01*
X0011759Y0032339D01*
X0011613Y0032386D01*
X0011468Y0032437D01*
X0011325Y0032492D01*
X0011183Y0032550D01*
X0011043Y0032612D01*
X0010904Y0032677D01*
X0010767Y0032746D01*
X0010632Y0032819D01*
X0010499Y0032895D01*
X0010368Y0032975D01*
X0010239Y0033057D01*
X0010112Y0033144D01*
X0009987Y0033233D01*
X0009865Y0033326D01*
X0009746Y0033422D01*
X0009628Y0033521D01*
X0009514Y0033622D01*
X0009402Y0033727D01*
X0009293Y0033835D01*
X0009187Y0033946D01*
X0009083Y0034059D01*
X0008983Y0034175D01*
X0008885Y0034293D01*
X0008791Y0034414D01*
X0008700Y0034537D01*
X0008612Y0034663D01*
X0008528Y0034791D01*
X0008446Y0034921D01*
X0008369Y0035053D01*
X0008294Y0035187D01*
X0008223Y0035323D01*
X0008156Y0035461D01*
X0008092Y0035601D01*
X0008032Y0035742D01*
X0007976Y0035884D01*
X0007923Y0036028D01*
X0007874Y0036174D01*
X0007829Y0036320D01*
X0007788Y0036468D01*
X0007751Y0036616D01*
X0007717Y0036766D01*
X0007687Y0036917D01*
X0007662Y0037068D01*
X0007640Y0037219D01*
X0007622Y0037372D01*
X0007608Y0037524D01*
X0007598Y0037677D01*
X0007592Y0037831D01*
X0007590Y0037984D01*
X0044598Y0037984D02*
X0044600Y0038137D01*
X0044606Y0038291D01*
X0044616Y0038444D01*
X0044630Y0038596D01*
X0044648Y0038749D01*
X0044670Y0038900D01*
X0044695Y0039051D01*
X0044725Y0039202D01*
X0044759Y0039352D01*
X0044796Y0039500D01*
X0044837Y0039648D01*
X0044882Y0039794D01*
X0044931Y0039940D01*
X0044984Y0040084D01*
X0045040Y0040226D01*
X0045100Y0040367D01*
X0045164Y0040507D01*
X0045231Y0040645D01*
X0045302Y0040781D01*
X0045377Y0040915D01*
X0045454Y0041047D01*
X0045536Y0041177D01*
X0045620Y0041305D01*
X0045708Y0041431D01*
X0045799Y0041554D01*
X0045893Y0041675D01*
X0045991Y0041793D01*
X0046091Y0041909D01*
X0046195Y0042022D01*
X0046301Y0042133D01*
X0046410Y0042241D01*
X0046522Y0042346D01*
X0046636Y0042447D01*
X0046754Y0042546D01*
X0046873Y0042642D01*
X0046995Y0042735D01*
X0047120Y0042824D01*
X0047247Y0042911D01*
X0047376Y0042993D01*
X0047507Y0043073D01*
X0047640Y0043149D01*
X0047775Y0043222D01*
X0047912Y0043291D01*
X0048051Y0043356D01*
X0048191Y0043418D01*
X0048333Y0043476D01*
X0048476Y0043531D01*
X0048621Y0043582D01*
X0048767Y0043629D01*
X0048914Y0043672D01*
X0049062Y0043711D01*
X0049211Y0043747D01*
X0049361Y0043778D01*
X0049512Y0043806D01*
X0049663Y0043830D01*
X0049816Y0043850D01*
X0049968Y0043866D01*
X0050121Y0043878D01*
X0050274Y0043886D01*
X0050427Y0043890D01*
X0050581Y0043890D01*
X0050734Y0043886D01*
X0050887Y0043878D01*
X0051040Y0043866D01*
X0051192Y0043850D01*
X0051345Y0043830D01*
X0051496Y0043806D01*
X0051647Y0043778D01*
X0051797Y0043747D01*
X0051946Y0043711D01*
X0052094Y0043672D01*
X0052241Y0043629D01*
X0052387Y0043582D01*
X0052532Y0043531D01*
X0052675Y0043476D01*
X0052817Y0043418D01*
X0052957Y0043356D01*
X0053096Y0043291D01*
X0053233Y0043222D01*
X0053368Y0043149D01*
X0053501Y0043073D01*
X0053632Y0042993D01*
X0053761Y0042911D01*
X0053888Y0042824D01*
X0054013Y0042735D01*
X0054135Y0042642D01*
X0054254Y0042546D01*
X0054372Y0042447D01*
X0054486Y0042346D01*
X0054598Y0042241D01*
X0054707Y0042133D01*
X0054813Y0042022D01*
X0054917Y0041909D01*
X0055017Y0041793D01*
X0055115Y0041675D01*
X0055209Y0041554D01*
X0055300Y0041431D01*
X0055388Y0041305D01*
X0055472Y0041177D01*
X0055554Y0041047D01*
X0055631Y0040915D01*
X0055706Y0040781D01*
X0055777Y0040645D01*
X0055844Y0040507D01*
X0055908Y0040367D01*
X0055968Y0040226D01*
X0056024Y0040084D01*
X0056077Y0039940D01*
X0056126Y0039794D01*
X0056171Y0039648D01*
X0056212Y0039500D01*
X0056249Y0039352D01*
X0056283Y0039202D01*
X0056313Y0039051D01*
X0056338Y0038900D01*
X0056360Y0038749D01*
X0056378Y0038596D01*
X0056392Y0038444D01*
X0056402Y0038291D01*
X0056408Y0038137D01*
X0056410Y0037984D01*
X0056408Y0037831D01*
X0056402Y0037677D01*
X0056392Y0037524D01*
X0056378Y0037372D01*
X0056360Y0037219D01*
X0056338Y0037068D01*
X0056313Y0036917D01*
X0056283Y0036766D01*
X0056249Y0036616D01*
X0056212Y0036468D01*
X0056171Y0036320D01*
X0056126Y0036174D01*
X0056077Y0036028D01*
X0056024Y0035884D01*
X0055968Y0035742D01*
X0055908Y0035601D01*
X0055844Y0035461D01*
X0055777Y0035323D01*
X0055706Y0035187D01*
X0055631Y0035053D01*
X0055554Y0034921D01*
X0055472Y0034791D01*
X0055388Y0034663D01*
X0055300Y0034537D01*
X0055209Y0034414D01*
X0055115Y0034293D01*
X0055017Y0034175D01*
X0054917Y0034059D01*
X0054813Y0033946D01*
X0054707Y0033835D01*
X0054598Y0033727D01*
X0054486Y0033622D01*
X0054372Y0033521D01*
X0054254Y0033422D01*
X0054135Y0033326D01*
X0054013Y0033233D01*
X0053888Y0033144D01*
X0053761Y0033057D01*
X0053632Y0032975D01*
X0053501Y0032895D01*
X0053368Y0032819D01*
X0053233Y0032746D01*
X0053096Y0032677D01*
X0052957Y0032612D01*
X0052817Y0032550D01*
X0052675Y0032492D01*
X0052532Y0032437D01*
X0052387Y0032386D01*
X0052241Y0032339D01*
X0052094Y0032296D01*
X0051946Y0032257D01*
X0051797Y0032221D01*
X0051647Y0032190D01*
X0051496Y0032162D01*
X0051345Y0032138D01*
X0051192Y0032118D01*
X0051040Y0032102D01*
X0050887Y0032090D01*
X0050734Y0032082D01*
X0050581Y0032078D01*
X0050427Y0032078D01*
X0050274Y0032082D01*
X0050121Y0032090D01*
X0049968Y0032102D01*
X0049816Y0032118D01*
X0049663Y0032138D01*
X0049512Y0032162D01*
X0049361Y0032190D01*
X0049211Y0032221D01*
X0049062Y0032257D01*
X0048914Y0032296D01*
X0048767Y0032339D01*
X0048621Y0032386D01*
X0048476Y0032437D01*
X0048333Y0032492D01*
X0048191Y0032550D01*
X0048051Y0032612D01*
X0047912Y0032677D01*
X0047775Y0032746D01*
X0047640Y0032819D01*
X0047507Y0032895D01*
X0047376Y0032975D01*
X0047247Y0033057D01*
X0047120Y0033144D01*
X0046995Y0033233D01*
X0046873Y0033326D01*
X0046754Y0033422D01*
X0046636Y0033521D01*
X0046522Y0033622D01*
X0046410Y0033727D01*
X0046301Y0033835D01*
X0046195Y0033946D01*
X0046091Y0034059D01*
X0045991Y0034175D01*
X0045893Y0034293D01*
X0045799Y0034414D01*
X0045708Y0034537D01*
X0045620Y0034663D01*
X0045536Y0034791D01*
X0045454Y0034921D01*
X0045377Y0035053D01*
X0045302Y0035187D01*
X0045231Y0035323D01*
X0045164Y0035461D01*
X0045100Y0035601D01*
X0045040Y0035742D01*
X0044984Y0035884D01*
X0044931Y0036028D01*
X0044882Y0036174D01*
X0044837Y0036320D01*
X0044796Y0036468D01*
X0044759Y0036616D01*
X0044725Y0036766D01*
X0044695Y0036917D01*
X0044670Y0037068D01*
X0044648Y0037219D01*
X0044630Y0037372D01*
X0044616Y0037524D01*
X0044606Y0037677D01*
X0044600Y0037831D01*
X0044598Y0037984D01*
D11*
X0092000Y0035000D03*
X0102000Y0035000D03*
X0112000Y0057000D03*
X0112000Y0067000D03*
X0142000Y0062000D03*
X0142000Y0052000D03*
X0142000Y0097000D03*
X0112000Y0097000D03*
D12*
X0082630Y0065740D03*
X0082630Y0058260D03*
X0072000Y0058260D03*
X0072000Y0062000D03*
X0072000Y0065740D03*
D13*
X0032000Y0057827D03*
X0032000Y0036173D03*
D14*
X0032000Y0036000D02*
X0051000Y0055000D01*
X0085000Y0021000D01*
X0103000Y0021000D01*
X0118000Y0021000D01*
X0130000Y0033000D01*
X0130000Y0039000D01*
X0112000Y0057000D01*
X0116600Y0057000D01*
X0116600Y0058024D01*
X0121600Y0063024D01*
X0121600Y0070976D01*
X0120000Y0072576D01*
X0120000Y0072591D01*
X0118782Y0075532D01*
X0116532Y0077782D01*
X0110314Y0084000D01*
X0113714Y0087400D01*
X0115976Y0087400D01*
X0121600Y0093024D01*
X0121600Y0100976D01*
X0117616Y0104961D01*
X0136384Y0104961D01*
X0132400Y0100976D01*
X0132400Y0093024D01*
X0134000Y0091424D01*
X0134000Y0067576D01*
X0132400Y0065976D01*
X0132400Y0058024D01*
X0137400Y0053024D01*
X0137400Y0052000D01*
X0142000Y0052000D01*
X0146600Y0052000D01*
X0146600Y0053024D01*
X0151600Y0058024D01*
X0151600Y0065976D01*
X0150000Y0067576D01*
X0150000Y0091424D01*
X0151600Y0093024D01*
X0151600Y0100976D01*
X0147616Y0104961D01*
X0153701Y0104961D01*
X0153701Y0009000D01*
X0009000Y0009000D01*
X0009000Y0025828D01*
X0011797Y0025079D01*
X0015195Y0025079D01*
X0018477Y0025958D01*
X0021420Y0027657D01*
X0023823Y0030060D01*
X0025522Y0033003D01*
X0025866Y0034287D01*
X0025866Y0031776D01*
X0026002Y0031267D01*
X0026266Y0030811D01*
X0026638Y0030439D01*
X0027094Y0030176D01*
X0027603Y0030039D01*
X0031622Y0030039D01*
X0031622Y0035795D01*
X0032378Y0035795D01*
X0032378Y0030039D01*
X0036397Y0030039D01*
X0036906Y0030176D01*
X0037362Y0030439D01*
X0037734Y0030811D01*
X0037998Y0031267D01*
X0038134Y0031776D01*
X0038134Y0034287D01*
X0038478Y0033003D01*
X0040177Y0030060D01*
X0042580Y0027657D01*
X0045523Y0025958D01*
X0048805Y0025079D01*
X0052203Y0025079D01*
X0055485Y0025958D01*
X0058428Y0027657D01*
X0060831Y0030060D01*
X0062530Y0033003D01*
X0063409Y0036285D01*
X0063409Y0039683D01*
X0062530Y0042966D01*
X0062215Y0043511D01*
X0062689Y0043511D01*
X0063869Y0044000D01*
X0067591Y0044000D01*
X0070532Y0045218D01*
X0075000Y0049686D01*
X0075000Y0042409D01*
X0076218Y0039468D01*
X0082400Y0033286D01*
X0082400Y0031024D01*
X0088024Y0025400D01*
X0095976Y0025400D01*
X0100976Y0030400D01*
X0102000Y0030400D01*
X0103905Y0030400D01*
X0106600Y0033095D01*
X0106600Y0035000D01*
X0106600Y0036905D01*
X0103905Y0039600D01*
X0102000Y0039600D01*
X0102000Y0035000D01*
X0103000Y0034000D01*
X0103000Y0021000D01*
X0097495Y0026918D02*
X0153701Y0026918D01*
X0153701Y0024920D02*
X0009000Y0024920D01*
X0009000Y0022921D02*
X0153701Y0022921D01*
X0153701Y0020923D02*
X0009000Y0020923D01*
X0009000Y0018924D02*
X0153701Y0018924D01*
X0153701Y0016926D02*
X0009000Y0016926D01*
X0009000Y0014927D02*
X0153701Y0014927D01*
X0153701Y0012929D02*
X0009000Y0012929D01*
X0009000Y0010930D02*
X0153701Y0010930D01*
X0153701Y0028917D02*
X0099493Y0028917D01*
X0102000Y0030400D02*
X0102000Y0035000D01*
X0106600Y0035000D01*
X0102000Y0035000D01*
X0102000Y0035000D01*
X0102000Y0035000D01*
X0102000Y0030400D01*
X0102000Y0030915D02*
X0102000Y0030915D01*
X0102000Y0032914D02*
X0102000Y0032914D01*
X0102000Y0034912D02*
X0102000Y0034912D01*
X0102000Y0035000D02*
X0102000Y0035000D01*
X0102000Y0039600D01*
X0100976Y0039600D01*
X0095976Y0044600D01*
X0093714Y0044600D01*
X0091000Y0047314D01*
X0091000Y0053766D01*
X0091795Y0055686D01*
X0091795Y0060833D01*
X0091312Y0062000D01*
X0091795Y0063167D01*
X0091795Y0065482D01*
X0099000Y0072686D01*
X0102400Y0069286D01*
X0102400Y0063024D01*
X0107400Y0058024D01*
X0107400Y0057000D01*
X0112000Y0057000D01*
X0112000Y0057000D01*
X0116600Y0057000D01*
X0116600Y0055095D01*
X0113905Y0052400D01*
X0112000Y0052400D01*
X0112000Y0057000D01*
X0112000Y0057000D01*
X0112000Y0057000D01*
X0107400Y0057000D01*
X0107400Y0055095D01*
X0110095Y0052400D01*
X0112000Y0052400D01*
X0112000Y0057000D01*
X0112000Y0056896D02*
X0112000Y0056896D01*
X0112000Y0054897D02*
X0112000Y0054897D01*
X0112000Y0052899D02*
X0112000Y0052899D01*
X0109596Y0052899D02*
X0091000Y0052899D01*
X0091000Y0050900D02*
X0137400Y0050900D01*
X0137400Y0050095D02*
X0140095Y0047400D01*
X0142000Y0047400D01*
X0143905Y0047400D01*
X0146600Y0050095D01*
X0146600Y0052000D01*
X0142000Y0052000D01*
X0142000Y0052000D01*
X0142000Y0047400D01*
X0142000Y0052000D01*
X0142000Y0052000D01*
X0142000Y0052000D01*
X0137400Y0052000D01*
X0137400Y0050095D01*
X0138593Y0048902D02*
X0091000Y0048902D01*
X0091410Y0046903D02*
X0153701Y0046903D01*
X0153701Y0048902D02*
X0145407Y0048902D01*
X0146600Y0050900D02*
X0153701Y0050900D01*
X0153701Y0052899D02*
X0146600Y0052899D01*
X0148474Y0054897D02*
X0153701Y0054897D01*
X0153701Y0056896D02*
X0150472Y0056896D01*
X0151600Y0058894D02*
X0153701Y0058894D01*
X0153701Y0060893D02*
X0151600Y0060893D01*
X0151600Y0062891D02*
X0153701Y0062891D01*
X0153701Y0064890D02*
X0151600Y0064890D01*
X0150688Y0066888D02*
X0153701Y0066888D01*
X0153701Y0068887D02*
X0150000Y0068887D01*
X0150000Y0070885D02*
X0153701Y0070885D01*
X0153701Y0072884D02*
X0150000Y0072884D01*
X0150000Y0074882D02*
X0153701Y0074882D01*
X0153701Y0076881D02*
X0150000Y0076881D01*
X0150000Y0078879D02*
X0153701Y0078879D01*
X0153701Y0080878D02*
X0150000Y0080878D01*
X0150000Y0082876D02*
X0153701Y0082876D01*
X0153701Y0084875D02*
X0150000Y0084875D01*
X0150000Y0086873D02*
X0153701Y0086873D01*
X0153701Y0088872D02*
X0150000Y0088872D01*
X0150000Y0090870D02*
X0153701Y0090870D01*
X0153701Y0092869D02*
X0151445Y0092869D01*
X0151600Y0094868D02*
X0153701Y0094868D01*
X0153701Y0096866D02*
X0151600Y0096866D01*
X0151600Y0098865D02*
X0153701Y0098865D01*
X0153701Y0100863D02*
X0151600Y0100863D01*
X0149715Y0102862D02*
X0153701Y0102862D01*
X0153701Y0104860D02*
X0147716Y0104860D01*
X0142000Y0096000D02*
X0142000Y0062000D01*
X0135526Y0054897D02*
X0116403Y0054897D01*
X0116600Y0056896D02*
X0133528Y0056896D01*
X0132400Y0058894D02*
X0117471Y0058894D01*
X0119469Y0060893D02*
X0132400Y0060893D01*
X0132400Y0062891D02*
X0121468Y0062891D01*
X0121600Y0064890D02*
X0132400Y0064890D01*
X0133312Y0066888D02*
X0121600Y0066888D01*
X0121600Y0068887D02*
X0134000Y0068887D01*
X0134000Y0070885D02*
X0121600Y0070885D01*
X0119879Y0072884D02*
X0134000Y0072884D01*
X0134000Y0074882D02*
X0119051Y0074882D01*
X0117433Y0076881D02*
X0134000Y0076881D01*
X0134000Y0078879D02*
X0115434Y0078879D01*
X0113436Y0080878D02*
X0134000Y0080878D01*
X0134000Y0082876D02*
X0111437Y0082876D01*
X0111189Y0084875D02*
X0134000Y0084875D01*
X0134000Y0086873D02*
X0113187Y0086873D01*
X0117448Y0088872D02*
X0134000Y0088872D01*
X0134000Y0090870D02*
X0119447Y0090870D01*
X0121445Y0092869D02*
X0132555Y0092869D01*
X0132400Y0094868D02*
X0121600Y0094868D01*
X0121600Y0096866D02*
X0132400Y0096866D01*
X0132400Y0098865D02*
X0121600Y0098865D01*
X0121600Y0100863D02*
X0132400Y0100863D01*
X0134285Y0102862D02*
X0119715Y0102862D01*
X0117716Y0104860D02*
X0136284Y0104860D01*
X0112000Y0097000D02*
X0099000Y0084000D01*
X0112000Y0071000D01*
X0112000Y0067000D01*
X0104531Y0060893D02*
X0091771Y0060893D01*
X0091795Y0058894D02*
X0106529Y0058894D01*
X0107400Y0056896D02*
X0091795Y0056896D01*
X0091468Y0054897D02*
X0107597Y0054897D01*
X0114404Y0052899D02*
X0137400Y0052899D01*
X0142000Y0051000D02*
X0142000Y0045000D01*
X0130000Y0033000D01*
X0142000Y0048902D02*
X0142000Y0048902D01*
X0142000Y0050900D02*
X0142000Y0050900D01*
X0153701Y0044905D02*
X0093409Y0044905D01*
X0097670Y0042906D02*
X0153701Y0042906D01*
X0153701Y0040908D02*
X0099669Y0040908D01*
X0102000Y0038909D02*
X0102000Y0038909D01*
X0102000Y0036911D02*
X0102000Y0036911D01*
X0104596Y0038909D02*
X0153701Y0038909D01*
X0153701Y0036911D02*
X0106595Y0036911D01*
X0106600Y0034912D02*
X0153701Y0034912D01*
X0153701Y0032914D02*
X0106419Y0032914D01*
X0104421Y0030915D02*
X0153701Y0030915D01*
X0102532Y0062891D02*
X0091681Y0062891D01*
X0091795Y0064890D02*
X0102400Y0064890D01*
X0102400Y0066888D02*
X0093202Y0066888D01*
X0095201Y0068887D02*
X0102400Y0068887D01*
X0100801Y0070885D02*
X0097199Y0070885D01*
X0084564Y0080878D02*
X0009000Y0080878D01*
X0009000Y0078879D02*
X0038874Y0078879D01*
X0039191Y0079197D02*
X0036803Y0076809D01*
X0036314Y0075628D01*
X0029647Y0068961D01*
X0026474Y0068961D01*
X0023901Y0067895D01*
X0021932Y0065926D01*
X0020866Y0063353D01*
X0020866Y0052301D01*
X0021932Y0049728D01*
X0023901Y0047759D01*
X0026474Y0046693D01*
X0037526Y0046693D01*
X0040099Y0047759D01*
X0042068Y0049728D01*
X0043134Y0052301D01*
X0043134Y0059820D01*
X0047314Y0064000D01*
X0062686Y0064000D01*
X0062835Y0063852D01*
X0062835Y0063167D01*
X0063318Y0062000D01*
X0062835Y0060833D01*
X0062835Y0060428D01*
X0062689Y0060489D01*
X0059311Y0060489D01*
X0056191Y0059197D01*
X0053803Y0056809D01*
X0052511Y0053689D01*
X0052511Y0050807D01*
X0052203Y0050890D01*
X0048805Y0050890D01*
X0045523Y0050010D01*
X0042580Y0048311D01*
X0040177Y0045908D01*
X0038478Y0042966D01*
X0037980Y0041109D01*
X0037734Y0041535D01*
X0037362Y0041907D01*
X0036906Y0042171D01*
X0036397Y0042307D01*
X0032378Y0042307D01*
X0032378Y0036551D01*
X0031622Y0036551D01*
X0031622Y0042307D01*
X0027603Y0042307D01*
X0027094Y0042171D01*
X0026638Y0041907D01*
X0026266Y0041535D01*
X0026020Y0041109D01*
X0025522Y0042966D01*
X0023823Y0045908D01*
X0021420Y0048311D01*
X0018477Y0050010D01*
X0015195Y0050890D01*
X0011797Y0050890D01*
X0009000Y0050140D01*
X0009000Y0104961D01*
X0106384Y0104961D01*
X0102400Y0100976D01*
X0102400Y0098714D01*
X0094468Y0090782D01*
X0092218Y0088532D01*
X0092218Y0088532D01*
X0077007Y0073321D01*
X0075558Y0073921D01*
X0075392Y0073921D01*
X0070532Y0078782D01*
X0067591Y0080000D01*
X0046869Y0080000D01*
X0045689Y0080489D01*
X0042311Y0080489D01*
X0039191Y0079197D01*
X0036876Y0076881D02*
X0009000Y0076881D01*
X0009000Y0074882D02*
X0035569Y0074882D01*
X0033570Y0072884D02*
X0009000Y0072884D01*
X0009000Y0070885D02*
X0031572Y0070885D01*
X0026296Y0068887D02*
X0009000Y0068887D01*
X0009000Y0066888D02*
X0022894Y0066888D01*
X0021503Y0064890D02*
X0009000Y0064890D01*
X0009000Y0062891D02*
X0020866Y0062891D01*
X0020866Y0060893D02*
X0009000Y0060893D01*
X0009000Y0058894D02*
X0020866Y0058894D01*
X0020866Y0056896D02*
X0009000Y0056896D01*
X0009000Y0054897D02*
X0020866Y0054897D01*
X0020866Y0052899D02*
X0009000Y0052899D01*
X0009000Y0050900D02*
X0021446Y0050900D01*
X0020397Y0048902D02*
X0022758Y0048902D01*
X0022828Y0046903D02*
X0025966Y0046903D01*
X0024403Y0044905D02*
X0039597Y0044905D01*
X0038462Y0042906D02*
X0025538Y0042906D01*
X0031622Y0040908D02*
X0032378Y0040908D01*
X0032378Y0038909D02*
X0031622Y0038909D01*
X0031622Y0036911D02*
X0032378Y0036911D01*
X0032378Y0034912D02*
X0031622Y0034912D01*
X0031622Y0032914D02*
X0032378Y0032914D01*
X0032378Y0030915D02*
X0031622Y0030915D01*
X0026206Y0030915D02*
X0024317Y0030915D01*
X0025471Y0032914D02*
X0025866Y0032914D01*
X0022680Y0028917D02*
X0041320Y0028917D01*
X0039683Y0030915D02*
X0037794Y0030915D01*
X0038134Y0032914D02*
X0038529Y0032914D01*
X0043860Y0026918D02*
X0020140Y0026918D01*
X0038034Y0046903D02*
X0041172Y0046903D01*
X0041242Y0048902D02*
X0043603Y0048902D01*
X0042554Y0050900D02*
X0052511Y0050900D01*
X0052511Y0052899D02*
X0043134Y0052899D01*
X0043134Y0054897D02*
X0053012Y0054897D01*
X0051000Y0055000D02*
X0058000Y0062000D01*
X0072000Y0062000D01*
X0072000Y0066000D02*
X0066000Y0072000D01*
X0044000Y0072000D01*
X0032000Y0060000D01*
X0032000Y0057000D01*
X0043134Y0056896D02*
X0053891Y0056896D01*
X0055889Y0058894D02*
X0043134Y0058894D01*
X0044207Y0060893D02*
X0062859Y0060893D01*
X0062949Y0062891D02*
X0046205Y0062891D01*
X0062000Y0052000D02*
X0066000Y0052000D01*
X0072000Y0058000D01*
X0083000Y0058000D02*
X0083000Y0044000D01*
X0092000Y0035000D01*
X0084507Y0028917D02*
X0059687Y0028917D01*
X0061325Y0030915D02*
X0082508Y0030915D01*
X0082400Y0032914D02*
X0062478Y0032914D01*
X0063042Y0034912D02*
X0080774Y0034912D01*
X0078776Y0036911D02*
X0063409Y0036911D01*
X0063409Y0038909D02*
X0076777Y0038909D01*
X0075622Y0040908D02*
X0063081Y0040908D01*
X0062546Y0042906D02*
X0075000Y0042906D01*
X0075000Y0044905D02*
X0069775Y0044905D01*
X0072217Y0046903D02*
X0075000Y0046903D01*
X0075000Y0048902D02*
X0074215Y0048902D01*
X0083000Y0066000D02*
X0083000Y0068000D01*
X0099000Y0084000D01*
X0092558Y0088872D02*
X0009000Y0088872D01*
X0009000Y0086873D02*
X0090560Y0086873D01*
X0088561Y0084875D02*
X0009000Y0084875D01*
X0009000Y0082876D02*
X0086563Y0082876D01*
X0082566Y0078879D02*
X0070297Y0078879D01*
X0072433Y0076881D02*
X0080567Y0076881D01*
X0078569Y0074882D02*
X0074431Y0074882D01*
X0094557Y0090870D02*
X0009000Y0090870D01*
X0009000Y0092869D02*
X0096555Y0092869D01*
X0098554Y0094868D02*
X0009000Y0094868D01*
X0009000Y0096866D02*
X0100552Y0096866D01*
X0102400Y0098865D02*
X0009000Y0098865D01*
X0009000Y0100863D02*
X0102400Y0100863D01*
X0104285Y0102862D02*
X0009000Y0102862D01*
X0009000Y0104860D02*
X0106284Y0104860D01*
X0086505Y0026918D02*
X0057148Y0026918D01*
D15*
X0061000Y0052000D03*
X0044000Y0072000D03*
M02*
