G75*
%MOIN*%
%OFA0B0*%
%FSLAX25Y25*%
%IPPOS*%
%LPD*%
%AMOC8*
5,1,8,0,0,1.08239X$1,22.5*
%
%ADD10C,0.00600*%
%ADD11C,0.01200*%
%ADD12R,0.05000X0.00500*%
%ADD13R,0.01500X0.02000*%
%ADD14C,0.00500*%
%ADD15C,0.01000*%
D10*
X0088500Y0032500D02*
X0088500Y0037500D01*
X0088502Y0037587D01*
X0088508Y0037674D01*
X0088517Y0037761D01*
X0088530Y0037847D01*
X0088547Y0037933D01*
X0088568Y0038018D01*
X0088593Y0038101D01*
X0088621Y0038184D01*
X0088652Y0038265D01*
X0088687Y0038345D01*
X0088726Y0038423D01*
X0088768Y0038500D01*
X0088813Y0038575D01*
X0088862Y0038647D01*
X0088913Y0038718D01*
X0088968Y0038786D01*
X0089025Y0038851D01*
X0089086Y0038914D01*
X0089149Y0038975D01*
X0089214Y0039032D01*
X0089282Y0039087D01*
X0089353Y0039138D01*
X0089425Y0039187D01*
X0089500Y0039232D01*
X0089577Y0039274D01*
X0089655Y0039313D01*
X0089735Y0039348D01*
X0089816Y0039379D01*
X0089899Y0039407D01*
X0089982Y0039432D01*
X0090067Y0039453D01*
X0090153Y0039470D01*
X0090239Y0039483D01*
X0090326Y0039492D01*
X0090413Y0039498D01*
X0090500Y0039500D01*
X0103500Y0039500D01*
X0103587Y0039498D01*
X0103674Y0039492D01*
X0103761Y0039483D01*
X0103847Y0039470D01*
X0103933Y0039453D01*
X0104018Y0039432D01*
X0104101Y0039407D01*
X0104184Y0039379D01*
X0104265Y0039348D01*
X0104345Y0039313D01*
X0104423Y0039274D01*
X0104500Y0039232D01*
X0104575Y0039187D01*
X0104647Y0039138D01*
X0104718Y0039087D01*
X0104786Y0039032D01*
X0104851Y0038975D01*
X0104914Y0038914D01*
X0104975Y0038851D01*
X0105032Y0038786D01*
X0105087Y0038718D01*
X0105138Y0038647D01*
X0105187Y0038575D01*
X0105232Y0038500D01*
X0105274Y0038423D01*
X0105313Y0038345D01*
X0105348Y0038265D01*
X0105379Y0038184D01*
X0105407Y0038101D01*
X0105432Y0038018D01*
X0105453Y0037933D01*
X0105470Y0037847D01*
X0105483Y0037761D01*
X0105492Y0037674D01*
X0105498Y0037587D01*
X0105500Y0037500D01*
X0105500Y0032500D01*
X0105498Y0032413D01*
X0105492Y0032326D01*
X0105483Y0032239D01*
X0105470Y0032153D01*
X0105453Y0032067D01*
X0105432Y0031982D01*
X0105407Y0031899D01*
X0105379Y0031816D01*
X0105348Y0031735D01*
X0105313Y0031655D01*
X0105274Y0031577D01*
X0105232Y0031500D01*
X0105187Y0031425D01*
X0105138Y0031353D01*
X0105087Y0031282D01*
X0105032Y0031214D01*
X0104975Y0031149D01*
X0104914Y0031086D01*
X0104851Y0031025D01*
X0104786Y0030968D01*
X0104718Y0030913D01*
X0104647Y0030862D01*
X0104575Y0030813D01*
X0104500Y0030768D01*
X0104423Y0030726D01*
X0104345Y0030687D01*
X0104265Y0030652D01*
X0104184Y0030621D01*
X0104101Y0030593D01*
X0104018Y0030568D01*
X0103933Y0030547D01*
X0103847Y0030530D01*
X0103761Y0030517D01*
X0103674Y0030508D01*
X0103587Y0030502D01*
X0103500Y0030500D01*
X0090500Y0030500D01*
X0090413Y0030502D01*
X0090326Y0030508D01*
X0090239Y0030517D01*
X0090153Y0030530D01*
X0090067Y0030547D01*
X0089982Y0030568D01*
X0089899Y0030593D01*
X0089816Y0030621D01*
X0089735Y0030652D01*
X0089655Y0030687D01*
X0089577Y0030726D01*
X0089500Y0030768D01*
X0089425Y0030813D01*
X0089353Y0030862D01*
X0089282Y0030913D01*
X0089214Y0030968D01*
X0089149Y0031025D01*
X0089086Y0031086D01*
X0089025Y0031149D01*
X0088968Y0031214D01*
X0088913Y0031282D01*
X0088862Y0031353D01*
X0088813Y0031425D01*
X0088768Y0031500D01*
X0088726Y0031577D01*
X0088687Y0031655D01*
X0088652Y0031735D01*
X0088621Y0031816D01*
X0088593Y0031899D01*
X0088568Y0031982D01*
X0088547Y0032067D01*
X0088530Y0032153D01*
X0088517Y0032239D01*
X0088508Y0032326D01*
X0088502Y0032413D01*
X0088500Y0032500D01*
X0109500Y0053500D02*
X0114500Y0053500D01*
X0114587Y0053502D01*
X0114674Y0053508D01*
X0114761Y0053517D01*
X0114847Y0053530D01*
X0114933Y0053547D01*
X0115018Y0053568D01*
X0115101Y0053593D01*
X0115184Y0053621D01*
X0115265Y0053652D01*
X0115345Y0053687D01*
X0115423Y0053726D01*
X0115500Y0053768D01*
X0115575Y0053813D01*
X0115647Y0053862D01*
X0115718Y0053913D01*
X0115786Y0053968D01*
X0115851Y0054025D01*
X0115914Y0054086D01*
X0115975Y0054149D01*
X0116032Y0054214D01*
X0116087Y0054282D01*
X0116138Y0054353D01*
X0116187Y0054425D01*
X0116232Y0054500D01*
X0116274Y0054577D01*
X0116313Y0054655D01*
X0116348Y0054735D01*
X0116379Y0054816D01*
X0116407Y0054899D01*
X0116432Y0054982D01*
X0116453Y0055067D01*
X0116470Y0055153D01*
X0116483Y0055239D01*
X0116492Y0055326D01*
X0116498Y0055413D01*
X0116500Y0055500D01*
X0116500Y0068500D01*
X0116498Y0068587D01*
X0116492Y0068674D01*
X0116483Y0068761D01*
X0116470Y0068847D01*
X0116453Y0068933D01*
X0116432Y0069018D01*
X0116407Y0069101D01*
X0116379Y0069184D01*
X0116348Y0069265D01*
X0116313Y0069345D01*
X0116274Y0069423D01*
X0116232Y0069500D01*
X0116187Y0069575D01*
X0116138Y0069647D01*
X0116087Y0069718D01*
X0116032Y0069786D01*
X0115975Y0069851D01*
X0115914Y0069914D01*
X0115851Y0069975D01*
X0115786Y0070032D01*
X0115718Y0070087D01*
X0115647Y0070138D01*
X0115575Y0070187D01*
X0115500Y0070232D01*
X0115423Y0070274D01*
X0115345Y0070313D01*
X0115265Y0070348D01*
X0115184Y0070379D01*
X0115101Y0070407D01*
X0115018Y0070432D01*
X0114933Y0070453D01*
X0114847Y0070470D01*
X0114761Y0070483D01*
X0114674Y0070492D01*
X0114587Y0070498D01*
X0114500Y0070500D01*
X0109500Y0070500D01*
X0109413Y0070498D01*
X0109326Y0070492D01*
X0109239Y0070483D01*
X0109153Y0070470D01*
X0109067Y0070453D01*
X0108982Y0070432D01*
X0108899Y0070407D01*
X0108816Y0070379D01*
X0108735Y0070348D01*
X0108655Y0070313D01*
X0108577Y0070274D01*
X0108500Y0070232D01*
X0108425Y0070187D01*
X0108353Y0070138D01*
X0108282Y0070087D01*
X0108214Y0070032D01*
X0108149Y0069975D01*
X0108086Y0069914D01*
X0108025Y0069851D01*
X0107968Y0069786D01*
X0107913Y0069718D01*
X0107862Y0069647D01*
X0107813Y0069575D01*
X0107768Y0069500D01*
X0107726Y0069423D01*
X0107687Y0069345D01*
X0107652Y0069265D01*
X0107621Y0069184D01*
X0107593Y0069101D01*
X0107568Y0069018D01*
X0107547Y0068933D01*
X0107530Y0068847D01*
X0107517Y0068761D01*
X0107508Y0068674D01*
X0107502Y0068587D01*
X0107500Y0068500D01*
X0107500Y0055500D01*
X0107502Y0055413D01*
X0107508Y0055326D01*
X0107517Y0055239D01*
X0107530Y0055153D01*
X0107547Y0055067D01*
X0107568Y0054982D01*
X0107593Y0054899D01*
X0107621Y0054816D01*
X0107652Y0054735D01*
X0107687Y0054655D01*
X0107726Y0054577D01*
X0107768Y0054500D01*
X0107813Y0054425D01*
X0107862Y0054353D01*
X0107913Y0054282D01*
X0107968Y0054214D01*
X0108025Y0054149D01*
X0108086Y0054086D01*
X0108149Y0054025D01*
X0108214Y0053968D01*
X0108282Y0053913D01*
X0108353Y0053862D01*
X0108425Y0053813D01*
X0108500Y0053768D01*
X0108577Y0053726D01*
X0108655Y0053687D01*
X0108735Y0053652D01*
X0108816Y0053621D01*
X0108899Y0053593D01*
X0108982Y0053568D01*
X0109067Y0053547D01*
X0109153Y0053530D01*
X0109239Y0053517D01*
X0109326Y0053508D01*
X0109413Y0053502D01*
X0109500Y0053500D01*
X0137000Y0052000D02*
X0138500Y0052000D01*
X0137000Y0052000D02*
X0137000Y0057000D01*
X0137000Y0062000D01*
X0138500Y0062000D01*
X0138876Y0060904D02*
X0138768Y0060815D01*
X0138663Y0060723D01*
X0138560Y0060628D01*
X0138460Y0060531D01*
X0138362Y0060430D01*
X0138268Y0060327D01*
X0138176Y0060221D01*
X0138087Y0060113D01*
X0138002Y0060002D01*
X0137919Y0059889D01*
X0137840Y0059774D01*
X0137764Y0059656D01*
X0137691Y0059536D01*
X0137622Y0059415D01*
X0137556Y0059291D01*
X0137493Y0059166D01*
X0137435Y0059039D01*
X0137379Y0058910D01*
X0137328Y0058780D01*
X0137280Y0058649D01*
X0137235Y0058516D01*
X0137195Y0058382D01*
X0137158Y0058247D01*
X0137125Y0058111D01*
X0137096Y0057974D01*
X0137070Y0057836D01*
X0137049Y0057698D01*
X0137031Y0057559D01*
X0137018Y0057419D01*
X0137008Y0057280D01*
X0137002Y0057140D01*
X0137000Y0057000D01*
X0145124Y0060904D02*
X0145232Y0060815D01*
X0145337Y0060723D01*
X0145440Y0060628D01*
X0145540Y0060531D01*
X0145638Y0060430D01*
X0145732Y0060327D01*
X0145824Y0060221D01*
X0145913Y0060113D01*
X0145998Y0060002D01*
X0146081Y0059889D01*
X0146160Y0059774D01*
X0146236Y0059656D01*
X0146309Y0059536D01*
X0146378Y0059415D01*
X0146444Y0059291D01*
X0146507Y0059166D01*
X0146565Y0059039D01*
X0146621Y0058910D01*
X0146672Y0058780D01*
X0146720Y0058649D01*
X0146765Y0058516D01*
X0146805Y0058382D01*
X0146842Y0058247D01*
X0146875Y0058111D01*
X0146904Y0057974D01*
X0146930Y0057836D01*
X0146951Y0057698D01*
X0146969Y0057559D01*
X0146982Y0057419D01*
X0146992Y0057280D01*
X0146998Y0057140D01*
X0147000Y0057000D01*
X0147000Y0062000D01*
X0145500Y0062000D01*
X0147000Y0057000D02*
X0147000Y0052000D01*
X0145500Y0052000D01*
X0138876Y0053096D02*
X0138768Y0053185D01*
X0138663Y0053277D01*
X0138560Y0053372D01*
X0138460Y0053469D01*
X0138362Y0053570D01*
X0138268Y0053673D01*
X0138176Y0053779D01*
X0138087Y0053887D01*
X0138002Y0053998D01*
X0137919Y0054111D01*
X0137840Y0054226D01*
X0137764Y0054344D01*
X0137691Y0054464D01*
X0137622Y0054585D01*
X0137556Y0054709D01*
X0137493Y0054834D01*
X0137435Y0054961D01*
X0137379Y0055090D01*
X0137328Y0055220D01*
X0137280Y0055351D01*
X0137235Y0055484D01*
X0137195Y0055618D01*
X0137158Y0055753D01*
X0137125Y0055889D01*
X0137096Y0056026D01*
X0137070Y0056164D01*
X0137049Y0056302D01*
X0137031Y0056441D01*
X0137018Y0056581D01*
X0137008Y0056720D01*
X0137002Y0056860D01*
X0137000Y0057000D01*
X0145124Y0053096D02*
X0145232Y0053185D01*
X0145337Y0053277D01*
X0145440Y0053372D01*
X0145540Y0053469D01*
X0145638Y0053570D01*
X0145732Y0053673D01*
X0145824Y0053779D01*
X0145913Y0053887D01*
X0145998Y0053998D01*
X0146081Y0054111D01*
X0146160Y0054226D01*
X0146236Y0054344D01*
X0146309Y0054464D01*
X0146378Y0054585D01*
X0146444Y0054709D01*
X0146507Y0054834D01*
X0146565Y0054961D01*
X0146621Y0055090D01*
X0146672Y0055220D01*
X0146720Y0055351D01*
X0146765Y0055484D01*
X0146805Y0055618D01*
X0146842Y0055753D01*
X0146875Y0055889D01*
X0146904Y0056026D01*
X0146930Y0056164D01*
X0146951Y0056302D01*
X0146969Y0056441D01*
X0146982Y0056581D01*
X0146992Y0056720D01*
X0146998Y0056860D01*
X0147000Y0057000D01*
X0142000Y0055000D02*
X0141913Y0055002D01*
X0141826Y0055008D01*
X0141739Y0055017D01*
X0141653Y0055030D01*
X0141567Y0055047D01*
X0141482Y0055068D01*
X0141399Y0055093D01*
X0141316Y0055121D01*
X0141235Y0055152D01*
X0141155Y0055187D01*
X0141077Y0055226D01*
X0141000Y0055268D01*
X0140925Y0055313D01*
X0140853Y0055362D01*
X0140782Y0055413D01*
X0140714Y0055468D01*
X0140649Y0055525D01*
X0140586Y0055586D01*
X0140525Y0055649D01*
X0140468Y0055714D01*
X0140413Y0055782D01*
X0140362Y0055853D01*
X0140313Y0055925D01*
X0140268Y0056000D01*
X0140226Y0056077D01*
X0140187Y0056155D01*
X0140152Y0056235D01*
X0140121Y0056316D01*
X0140093Y0056399D01*
X0140068Y0056482D01*
X0140047Y0056567D01*
X0140030Y0056653D01*
X0140017Y0056739D01*
X0140008Y0056826D01*
X0140002Y0056913D01*
X0140000Y0057000D01*
X0136000Y0093000D02*
X0134500Y0093000D01*
X0134000Y0093500D01*
X0120000Y0093500D01*
X0119500Y0093000D01*
X0118000Y0093000D01*
X0117940Y0093002D01*
X0117879Y0093007D01*
X0117820Y0093016D01*
X0117761Y0093029D01*
X0117702Y0093045D01*
X0117645Y0093065D01*
X0117590Y0093088D01*
X0117535Y0093115D01*
X0117483Y0093144D01*
X0117432Y0093177D01*
X0117383Y0093213D01*
X0117337Y0093251D01*
X0117293Y0093293D01*
X0117251Y0093337D01*
X0117213Y0093383D01*
X0117177Y0093432D01*
X0117144Y0093483D01*
X0117115Y0093535D01*
X0117088Y0093590D01*
X0117065Y0093645D01*
X0117045Y0093702D01*
X0117029Y0093761D01*
X0117016Y0093820D01*
X0117007Y0093879D01*
X0117002Y0093940D01*
X0117000Y0094000D01*
X0117000Y0100000D01*
X0117002Y0100060D01*
X0117007Y0100121D01*
X0117016Y0100180D01*
X0117029Y0100239D01*
X0117045Y0100298D01*
X0117065Y0100355D01*
X0117088Y0100410D01*
X0117115Y0100465D01*
X0117144Y0100517D01*
X0117177Y0100568D01*
X0117213Y0100617D01*
X0117251Y0100663D01*
X0117293Y0100707D01*
X0117337Y0100749D01*
X0117383Y0100787D01*
X0117432Y0100823D01*
X0117483Y0100856D01*
X0117535Y0100885D01*
X0117590Y0100912D01*
X0117645Y0100935D01*
X0117702Y0100955D01*
X0117761Y0100971D01*
X0117820Y0100984D01*
X0117879Y0100993D01*
X0117940Y0100998D01*
X0118000Y0101000D01*
X0119500Y0101000D01*
X0120000Y0100500D01*
X0134000Y0100500D01*
X0134500Y0101000D01*
X0136000Y0101000D01*
X0136060Y0100998D01*
X0136121Y0100993D01*
X0136180Y0100984D01*
X0136239Y0100971D01*
X0136298Y0100955D01*
X0136355Y0100935D01*
X0136410Y0100912D01*
X0136465Y0100885D01*
X0136517Y0100856D01*
X0136568Y0100823D01*
X0136617Y0100787D01*
X0136663Y0100749D01*
X0136707Y0100707D01*
X0136749Y0100663D01*
X0136787Y0100617D01*
X0136823Y0100568D01*
X0136856Y0100517D01*
X0136885Y0100465D01*
X0136912Y0100410D01*
X0136935Y0100355D01*
X0136955Y0100298D01*
X0136971Y0100239D01*
X0136984Y0100180D01*
X0136993Y0100121D01*
X0136998Y0100060D01*
X0137000Y0100000D01*
X0137000Y0094000D01*
X0136998Y0093940D01*
X0136993Y0093879D01*
X0136984Y0093820D01*
X0136971Y0093761D01*
X0136955Y0093702D01*
X0136935Y0093645D01*
X0136912Y0093590D01*
X0136885Y0093535D01*
X0136856Y0093483D01*
X0136823Y0093432D01*
X0136787Y0093383D01*
X0136749Y0093337D01*
X0136707Y0093293D01*
X0136663Y0093251D01*
X0136617Y0093213D01*
X0136568Y0093177D01*
X0136517Y0093144D01*
X0136465Y0093115D01*
X0136410Y0093088D01*
X0136355Y0093065D01*
X0136298Y0093045D01*
X0136239Y0093029D01*
X0136180Y0093016D01*
X0136121Y0093007D01*
X0136060Y0093002D01*
X0136000Y0093000D01*
D11*
X0115000Y0063200D02*
X0109000Y0063200D01*
X0109000Y0060700D02*
X0115000Y0060700D01*
X0098300Y0038000D02*
X0098300Y0032000D01*
X0095800Y0032000D02*
X0095800Y0038000D01*
D12*
X0142000Y0049250D03*
D13*
X0137750Y0097000D03*
X0116250Y0097000D03*
D14*
X0085189Y0067315D02*
X0085189Y0056685D01*
X0069441Y0056685D01*
X0069441Y0067315D01*
X0085189Y0067315D01*
D15*
X0021764Y0055661D02*
X0021764Y0029283D01*
X0042236Y0029283D01*
X0042236Y0066291D01*
X0021764Y0066291D01*
X0021764Y0059992D01*
X0021672Y0059990D01*
X0021580Y0059984D01*
X0021489Y0059974D01*
X0021398Y0059961D01*
X0021308Y0059943D01*
X0021218Y0059922D01*
X0021130Y0059897D01*
X0021043Y0059868D01*
X0020957Y0059836D01*
X0020872Y0059800D01*
X0020789Y0059760D01*
X0020708Y0059717D01*
X0020629Y0059671D01*
X0020552Y0059621D01*
X0020477Y0059568D01*
X0020404Y0059511D01*
X0020334Y0059452D01*
X0020266Y0059390D01*
X0020201Y0059325D01*
X0020139Y0059257D01*
X0020080Y0059187D01*
X0020023Y0059114D01*
X0019970Y0059039D01*
X0019920Y0058962D01*
X0019874Y0058883D01*
X0019831Y0058802D01*
X0019791Y0058719D01*
X0019755Y0058634D01*
X0019723Y0058548D01*
X0019694Y0058461D01*
X0019669Y0058373D01*
X0019648Y0058283D01*
X0019630Y0058193D01*
X0019617Y0058102D01*
X0019607Y0058011D01*
X0019601Y0057919D01*
X0019599Y0057827D01*
X0019601Y0057735D01*
X0019607Y0057643D01*
X0019617Y0057552D01*
X0019630Y0057461D01*
X0019648Y0057371D01*
X0019669Y0057281D01*
X0019694Y0057193D01*
X0019723Y0057106D01*
X0019755Y0057020D01*
X0019791Y0056935D01*
X0019831Y0056852D01*
X0019874Y0056771D01*
X0019920Y0056692D01*
X0019970Y0056615D01*
X0020023Y0056540D01*
X0020080Y0056467D01*
X0020139Y0056397D01*
X0020201Y0056329D01*
X0020266Y0056264D01*
X0020334Y0056202D01*
X0020404Y0056143D01*
X0020477Y0056086D01*
X0020552Y0056033D01*
X0020629Y0055983D01*
X0020708Y0055937D01*
X0020789Y0055894D01*
X0020872Y0055854D01*
X0020957Y0055818D01*
X0021043Y0055786D01*
X0021130Y0055757D01*
X0021218Y0055732D01*
X0021308Y0055711D01*
X0021398Y0055693D01*
X0021489Y0055680D01*
X0021580Y0055670D01*
X0021672Y0055664D01*
X0021764Y0055662D01*
X0021370Y0041882D02*
X0018614Y0041882D01*
X0019007Y0034402D02*
X0018919Y0034269D01*
X0018828Y0034138D01*
X0018734Y0034009D01*
X0018636Y0033882D01*
X0018536Y0033758D01*
X0018432Y0033637D01*
X0018326Y0033518D01*
X0018216Y0033401D01*
X0018104Y0033287D01*
X0017989Y0033176D01*
X0017872Y0033068D01*
X0017752Y0032963D01*
X0017629Y0032861D01*
X0017504Y0032762D01*
X0017376Y0032666D01*
X0017246Y0032573D01*
X0017114Y0032483D01*
X0016980Y0032396D01*
X0016844Y0032313D01*
X0016705Y0032233D01*
X0016565Y0032156D01*
X0016423Y0032083D01*
X0016280Y0032014D01*
X0016134Y0031948D01*
X0015987Y0031885D01*
X0015839Y0031826D01*
X0015689Y0031771D01*
X0015538Y0031719D01*
X0015385Y0031671D01*
X0015232Y0031627D01*
X0015077Y0031587D01*
X0014922Y0031550D01*
X0014766Y0031517D01*
X0014609Y0031488D01*
X0014451Y0031463D01*
X0014293Y0031442D01*
X0014134Y0031424D01*
X0013975Y0031411D01*
X0013815Y0031401D01*
X0013656Y0031395D01*
X0013496Y0031393D01*
X0013336Y0031395D01*
X0013177Y0031401D01*
X0013017Y0031411D01*
X0012858Y0031424D01*
X0012699Y0031442D01*
X0012541Y0031463D01*
X0012383Y0031488D01*
X0012226Y0031517D01*
X0012070Y0031550D01*
X0011915Y0031587D01*
X0011760Y0031627D01*
X0011607Y0031671D01*
X0011454Y0031719D01*
X0011303Y0031771D01*
X0011153Y0031826D01*
X0011005Y0031885D01*
X0010858Y0031948D01*
X0010712Y0032014D01*
X0010569Y0032083D01*
X0010427Y0032156D01*
X0010287Y0032233D01*
X0010148Y0032313D01*
X0010012Y0032396D01*
X0009878Y0032483D01*
X0009746Y0032573D01*
X0009616Y0032666D01*
X0009488Y0032762D01*
X0009363Y0032861D01*
X0009240Y0032963D01*
X0009120Y0033068D01*
X0009003Y0033176D01*
X0008888Y0033287D01*
X0008776Y0033401D01*
X0008666Y0033518D01*
X0008560Y0033637D01*
X0008456Y0033758D01*
X0008356Y0033882D01*
X0008258Y0034009D01*
X0008164Y0034138D01*
X0008073Y0034269D01*
X0007985Y0034402D01*
X0007984Y0034402D02*
X0007984Y0041488D01*
X0007985Y0041488D02*
X0008073Y0041621D01*
X0008164Y0041752D01*
X0008258Y0041881D01*
X0008356Y0042008D01*
X0008456Y0042132D01*
X0008560Y0042253D01*
X0008666Y0042372D01*
X0008776Y0042489D01*
X0008888Y0042603D01*
X0009003Y0042714D01*
X0009120Y0042822D01*
X0009240Y0042927D01*
X0009363Y0043029D01*
X0009488Y0043128D01*
X0009616Y0043224D01*
X0009746Y0043317D01*
X0009878Y0043407D01*
X0010012Y0043494D01*
X0010148Y0043577D01*
X0010287Y0043657D01*
X0010427Y0043734D01*
X0010569Y0043807D01*
X0010712Y0043876D01*
X0010858Y0043942D01*
X0011005Y0044005D01*
X0011153Y0044064D01*
X0011303Y0044119D01*
X0011454Y0044171D01*
X0011607Y0044219D01*
X0011760Y0044263D01*
X0011915Y0044303D01*
X0012070Y0044340D01*
X0012226Y0044373D01*
X0012383Y0044402D01*
X0012541Y0044427D01*
X0012699Y0044448D01*
X0012858Y0044466D01*
X0013017Y0044479D01*
X0013177Y0044489D01*
X0013336Y0044495D01*
X0013496Y0044497D01*
X0013656Y0044495D01*
X0013815Y0044489D01*
X0013975Y0044479D01*
X0014134Y0044466D01*
X0014293Y0044448D01*
X0014451Y0044427D01*
X0014609Y0044402D01*
X0014766Y0044373D01*
X0014922Y0044340D01*
X0015077Y0044303D01*
X0015232Y0044263D01*
X0015385Y0044219D01*
X0015538Y0044171D01*
X0015689Y0044119D01*
X0015839Y0044064D01*
X0015987Y0044005D01*
X0016134Y0043942D01*
X0016280Y0043876D01*
X0016423Y0043807D01*
X0016565Y0043734D01*
X0016705Y0043657D01*
X0016844Y0043577D01*
X0016980Y0043494D01*
X0017114Y0043407D01*
X0017246Y0043317D01*
X0017376Y0043224D01*
X0017504Y0043128D01*
X0017629Y0043029D01*
X0017752Y0042927D01*
X0017872Y0042822D01*
X0017989Y0042714D01*
X0018104Y0042603D01*
X0018216Y0042489D01*
X0018326Y0042372D01*
X0018432Y0042253D01*
X0018536Y0042132D01*
X0018636Y0042008D01*
X0018734Y0041881D01*
X0018828Y0041752D01*
X0018919Y0041621D01*
X0019007Y0041488D01*
X0018614Y0034008D02*
X0021370Y0034008D01*
X0042630Y0034008D02*
X0045386Y0034008D01*
X0044993Y0041488D02*
X0045081Y0041621D01*
X0045172Y0041752D01*
X0045266Y0041881D01*
X0045364Y0042008D01*
X0045464Y0042132D01*
X0045568Y0042253D01*
X0045674Y0042372D01*
X0045784Y0042489D01*
X0045896Y0042603D01*
X0046011Y0042714D01*
X0046128Y0042822D01*
X0046248Y0042927D01*
X0046371Y0043029D01*
X0046496Y0043128D01*
X0046624Y0043224D01*
X0046754Y0043317D01*
X0046886Y0043407D01*
X0047020Y0043494D01*
X0047156Y0043577D01*
X0047295Y0043657D01*
X0047435Y0043734D01*
X0047577Y0043807D01*
X0047720Y0043876D01*
X0047866Y0043942D01*
X0048013Y0044005D01*
X0048161Y0044064D01*
X0048311Y0044119D01*
X0048462Y0044171D01*
X0048615Y0044219D01*
X0048768Y0044263D01*
X0048923Y0044303D01*
X0049078Y0044340D01*
X0049234Y0044373D01*
X0049391Y0044402D01*
X0049549Y0044427D01*
X0049707Y0044448D01*
X0049866Y0044466D01*
X0050025Y0044479D01*
X0050185Y0044489D01*
X0050344Y0044495D01*
X0050504Y0044497D01*
X0050664Y0044495D01*
X0050823Y0044489D01*
X0050983Y0044479D01*
X0051142Y0044466D01*
X0051301Y0044448D01*
X0051459Y0044427D01*
X0051617Y0044402D01*
X0051774Y0044373D01*
X0051930Y0044340D01*
X0052085Y0044303D01*
X0052240Y0044263D01*
X0052393Y0044219D01*
X0052546Y0044171D01*
X0052697Y0044119D01*
X0052847Y0044064D01*
X0052995Y0044005D01*
X0053142Y0043942D01*
X0053288Y0043876D01*
X0053431Y0043807D01*
X0053573Y0043734D01*
X0053713Y0043657D01*
X0053852Y0043577D01*
X0053988Y0043494D01*
X0054122Y0043407D01*
X0054254Y0043317D01*
X0054384Y0043224D01*
X0054512Y0043128D01*
X0054637Y0043029D01*
X0054760Y0042927D01*
X0054880Y0042822D01*
X0054997Y0042714D01*
X0055112Y0042603D01*
X0055224Y0042489D01*
X0055334Y0042372D01*
X0055440Y0042253D01*
X0055544Y0042132D01*
X0055644Y0042008D01*
X0055742Y0041881D01*
X0055836Y0041752D01*
X0055927Y0041621D01*
X0056015Y0041488D01*
X0056016Y0041488D02*
X0056016Y0034402D01*
X0056015Y0034402D02*
X0055927Y0034269D01*
X0055836Y0034138D01*
X0055742Y0034009D01*
X0055644Y0033882D01*
X0055544Y0033758D01*
X0055440Y0033637D01*
X0055334Y0033518D01*
X0055224Y0033401D01*
X0055112Y0033287D01*
X0054997Y0033176D01*
X0054880Y0033068D01*
X0054760Y0032963D01*
X0054637Y0032861D01*
X0054512Y0032762D01*
X0054384Y0032666D01*
X0054254Y0032573D01*
X0054122Y0032483D01*
X0053988Y0032396D01*
X0053852Y0032313D01*
X0053713Y0032233D01*
X0053573Y0032156D01*
X0053431Y0032083D01*
X0053288Y0032014D01*
X0053142Y0031948D01*
X0052995Y0031885D01*
X0052847Y0031826D01*
X0052697Y0031771D01*
X0052546Y0031719D01*
X0052393Y0031671D01*
X0052240Y0031627D01*
X0052085Y0031587D01*
X0051930Y0031550D01*
X0051774Y0031517D01*
X0051617Y0031488D01*
X0051459Y0031463D01*
X0051301Y0031442D01*
X0051142Y0031424D01*
X0050983Y0031411D01*
X0050823Y0031401D01*
X0050664Y0031395D01*
X0050504Y0031393D01*
X0050344Y0031395D01*
X0050185Y0031401D01*
X0050025Y0031411D01*
X0049866Y0031424D01*
X0049707Y0031442D01*
X0049549Y0031463D01*
X0049391Y0031488D01*
X0049234Y0031517D01*
X0049078Y0031550D01*
X0048923Y0031587D01*
X0048768Y0031627D01*
X0048615Y0031671D01*
X0048462Y0031719D01*
X0048311Y0031771D01*
X0048161Y0031826D01*
X0048013Y0031885D01*
X0047866Y0031948D01*
X0047720Y0032014D01*
X0047577Y0032083D01*
X0047435Y0032156D01*
X0047295Y0032233D01*
X0047156Y0032313D01*
X0047020Y0032396D01*
X0046886Y0032483D01*
X0046754Y0032573D01*
X0046624Y0032666D01*
X0046496Y0032762D01*
X0046371Y0032861D01*
X0046248Y0032963D01*
X0046128Y0033068D01*
X0046011Y0033176D01*
X0045896Y0033287D01*
X0045784Y0033401D01*
X0045674Y0033518D01*
X0045568Y0033637D01*
X0045464Y0033758D01*
X0045364Y0033882D01*
X0045266Y0034009D01*
X0045172Y0034138D01*
X0045081Y0034269D01*
X0044993Y0034402D01*
X0045386Y0041882D02*
X0042630Y0041882D01*
M02*
