G75*
%MOIN*%
%OFA0B0*%
%FSLAX25Y25*%
%IPPOS*%
%LPD*%
%AMOC8*
5,1,8,0,0,1.08239X$1,22.5*
%
%ADD10C,0.00000*%
%ADD11OC8,0.05200*%
%ADD12R,0.04331X0.02362*%
%ADD13R,0.08268X0.08268*%
%ADD14C,0.01300*%
D10*
X0001650Y0007667D02*
X0001650Y0052627D01*
X0105351Y0052627D01*
X0105351Y0007667D01*
X0001650Y0007667D01*
X0002240Y0018651D02*
X0002242Y0018804D01*
X0002248Y0018958D01*
X0002258Y0019111D01*
X0002272Y0019263D01*
X0002290Y0019416D01*
X0002312Y0019567D01*
X0002337Y0019718D01*
X0002367Y0019869D01*
X0002401Y0020019D01*
X0002438Y0020167D01*
X0002479Y0020315D01*
X0002524Y0020461D01*
X0002573Y0020607D01*
X0002626Y0020751D01*
X0002682Y0020893D01*
X0002742Y0021034D01*
X0002806Y0021174D01*
X0002873Y0021312D01*
X0002944Y0021448D01*
X0003019Y0021582D01*
X0003096Y0021714D01*
X0003178Y0021844D01*
X0003262Y0021972D01*
X0003350Y0022098D01*
X0003441Y0022221D01*
X0003535Y0022342D01*
X0003633Y0022460D01*
X0003733Y0022576D01*
X0003837Y0022689D01*
X0003943Y0022800D01*
X0004052Y0022908D01*
X0004164Y0023013D01*
X0004278Y0023114D01*
X0004396Y0023213D01*
X0004515Y0023309D01*
X0004637Y0023402D01*
X0004762Y0023491D01*
X0004889Y0023578D01*
X0005018Y0023660D01*
X0005149Y0023740D01*
X0005282Y0023816D01*
X0005417Y0023889D01*
X0005554Y0023958D01*
X0005693Y0024023D01*
X0005833Y0024085D01*
X0005975Y0024143D01*
X0006118Y0024198D01*
X0006263Y0024249D01*
X0006409Y0024296D01*
X0006556Y0024339D01*
X0006704Y0024378D01*
X0006853Y0024414D01*
X0007003Y0024445D01*
X0007154Y0024473D01*
X0007305Y0024497D01*
X0007458Y0024517D01*
X0007610Y0024533D01*
X0007763Y0024545D01*
X0007916Y0024553D01*
X0008069Y0024557D01*
X0008223Y0024557D01*
X0008376Y0024553D01*
X0008529Y0024545D01*
X0008682Y0024533D01*
X0008834Y0024517D01*
X0008987Y0024497D01*
X0009138Y0024473D01*
X0009289Y0024445D01*
X0009439Y0024414D01*
X0009588Y0024378D01*
X0009736Y0024339D01*
X0009883Y0024296D01*
X0010029Y0024249D01*
X0010174Y0024198D01*
X0010317Y0024143D01*
X0010459Y0024085D01*
X0010599Y0024023D01*
X0010738Y0023958D01*
X0010875Y0023889D01*
X0011010Y0023816D01*
X0011143Y0023740D01*
X0011274Y0023660D01*
X0011403Y0023578D01*
X0011530Y0023491D01*
X0011655Y0023402D01*
X0011777Y0023309D01*
X0011896Y0023213D01*
X0012014Y0023114D01*
X0012128Y0023013D01*
X0012240Y0022908D01*
X0012349Y0022800D01*
X0012455Y0022689D01*
X0012559Y0022576D01*
X0012659Y0022460D01*
X0012757Y0022342D01*
X0012851Y0022221D01*
X0012942Y0022098D01*
X0013030Y0021972D01*
X0013114Y0021844D01*
X0013196Y0021714D01*
X0013273Y0021582D01*
X0013348Y0021448D01*
X0013419Y0021312D01*
X0013486Y0021174D01*
X0013550Y0021034D01*
X0013610Y0020893D01*
X0013666Y0020751D01*
X0013719Y0020607D01*
X0013768Y0020461D01*
X0013813Y0020315D01*
X0013854Y0020167D01*
X0013891Y0020019D01*
X0013925Y0019869D01*
X0013955Y0019718D01*
X0013980Y0019567D01*
X0014002Y0019416D01*
X0014020Y0019263D01*
X0014034Y0019111D01*
X0014044Y0018958D01*
X0014050Y0018804D01*
X0014052Y0018651D01*
X0014050Y0018498D01*
X0014044Y0018344D01*
X0014034Y0018191D01*
X0014020Y0018039D01*
X0014002Y0017886D01*
X0013980Y0017735D01*
X0013955Y0017584D01*
X0013925Y0017433D01*
X0013891Y0017283D01*
X0013854Y0017135D01*
X0013813Y0016987D01*
X0013768Y0016841D01*
X0013719Y0016695D01*
X0013666Y0016551D01*
X0013610Y0016409D01*
X0013550Y0016268D01*
X0013486Y0016128D01*
X0013419Y0015990D01*
X0013348Y0015854D01*
X0013273Y0015720D01*
X0013196Y0015588D01*
X0013114Y0015458D01*
X0013030Y0015330D01*
X0012942Y0015204D01*
X0012851Y0015081D01*
X0012757Y0014960D01*
X0012659Y0014842D01*
X0012559Y0014726D01*
X0012455Y0014613D01*
X0012349Y0014502D01*
X0012240Y0014394D01*
X0012128Y0014289D01*
X0012014Y0014188D01*
X0011896Y0014089D01*
X0011777Y0013993D01*
X0011655Y0013900D01*
X0011530Y0013811D01*
X0011403Y0013724D01*
X0011274Y0013642D01*
X0011143Y0013562D01*
X0011010Y0013486D01*
X0010875Y0013413D01*
X0010738Y0013344D01*
X0010599Y0013279D01*
X0010459Y0013217D01*
X0010317Y0013159D01*
X0010174Y0013104D01*
X0010029Y0013053D01*
X0009883Y0013006D01*
X0009736Y0012963D01*
X0009588Y0012924D01*
X0009439Y0012888D01*
X0009289Y0012857D01*
X0009138Y0012829D01*
X0008987Y0012805D01*
X0008834Y0012785D01*
X0008682Y0012769D01*
X0008529Y0012757D01*
X0008376Y0012749D01*
X0008223Y0012745D01*
X0008069Y0012745D01*
X0007916Y0012749D01*
X0007763Y0012757D01*
X0007610Y0012769D01*
X0007458Y0012785D01*
X0007305Y0012805D01*
X0007154Y0012829D01*
X0007003Y0012857D01*
X0006853Y0012888D01*
X0006704Y0012924D01*
X0006556Y0012963D01*
X0006409Y0013006D01*
X0006263Y0013053D01*
X0006118Y0013104D01*
X0005975Y0013159D01*
X0005833Y0013217D01*
X0005693Y0013279D01*
X0005554Y0013344D01*
X0005417Y0013413D01*
X0005282Y0013486D01*
X0005149Y0013562D01*
X0005018Y0013642D01*
X0004889Y0013724D01*
X0004762Y0013811D01*
X0004637Y0013900D01*
X0004515Y0013993D01*
X0004396Y0014089D01*
X0004278Y0014188D01*
X0004164Y0014289D01*
X0004052Y0014394D01*
X0003943Y0014502D01*
X0003837Y0014613D01*
X0003733Y0014726D01*
X0003633Y0014842D01*
X0003535Y0014960D01*
X0003441Y0015081D01*
X0003350Y0015204D01*
X0003262Y0015330D01*
X0003178Y0015458D01*
X0003096Y0015588D01*
X0003019Y0015720D01*
X0002944Y0015854D01*
X0002873Y0015990D01*
X0002806Y0016128D01*
X0002742Y0016268D01*
X0002682Y0016409D01*
X0002626Y0016551D01*
X0002573Y0016695D01*
X0002524Y0016841D01*
X0002479Y0016987D01*
X0002438Y0017135D01*
X0002401Y0017283D01*
X0002367Y0017433D01*
X0002337Y0017584D01*
X0002312Y0017735D01*
X0002290Y0017886D01*
X0002272Y0018039D01*
X0002258Y0018191D01*
X0002248Y0018344D01*
X0002242Y0018498D01*
X0002240Y0018651D01*
X0039248Y0018651D02*
X0039250Y0018804D01*
X0039256Y0018958D01*
X0039266Y0019111D01*
X0039280Y0019263D01*
X0039298Y0019416D01*
X0039320Y0019567D01*
X0039345Y0019718D01*
X0039375Y0019869D01*
X0039409Y0020019D01*
X0039446Y0020167D01*
X0039487Y0020315D01*
X0039532Y0020461D01*
X0039581Y0020607D01*
X0039634Y0020751D01*
X0039690Y0020893D01*
X0039750Y0021034D01*
X0039814Y0021174D01*
X0039881Y0021312D01*
X0039952Y0021448D01*
X0040027Y0021582D01*
X0040104Y0021714D01*
X0040186Y0021844D01*
X0040270Y0021972D01*
X0040358Y0022098D01*
X0040449Y0022221D01*
X0040543Y0022342D01*
X0040641Y0022460D01*
X0040741Y0022576D01*
X0040845Y0022689D01*
X0040951Y0022800D01*
X0041060Y0022908D01*
X0041172Y0023013D01*
X0041286Y0023114D01*
X0041404Y0023213D01*
X0041523Y0023309D01*
X0041645Y0023402D01*
X0041770Y0023491D01*
X0041897Y0023578D01*
X0042026Y0023660D01*
X0042157Y0023740D01*
X0042290Y0023816D01*
X0042425Y0023889D01*
X0042562Y0023958D01*
X0042701Y0024023D01*
X0042841Y0024085D01*
X0042983Y0024143D01*
X0043126Y0024198D01*
X0043271Y0024249D01*
X0043417Y0024296D01*
X0043564Y0024339D01*
X0043712Y0024378D01*
X0043861Y0024414D01*
X0044011Y0024445D01*
X0044162Y0024473D01*
X0044313Y0024497D01*
X0044466Y0024517D01*
X0044618Y0024533D01*
X0044771Y0024545D01*
X0044924Y0024553D01*
X0045077Y0024557D01*
X0045231Y0024557D01*
X0045384Y0024553D01*
X0045537Y0024545D01*
X0045690Y0024533D01*
X0045842Y0024517D01*
X0045995Y0024497D01*
X0046146Y0024473D01*
X0046297Y0024445D01*
X0046447Y0024414D01*
X0046596Y0024378D01*
X0046744Y0024339D01*
X0046891Y0024296D01*
X0047037Y0024249D01*
X0047182Y0024198D01*
X0047325Y0024143D01*
X0047467Y0024085D01*
X0047607Y0024023D01*
X0047746Y0023958D01*
X0047883Y0023889D01*
X0048018Y0023816D01*
X0048151Y0023740D01*
X0048282Y0023660D01*
X0048411Y0023578D01*
X0048538Y0023491D01*
X0048663Y0023402D01*
X0048785Y0023309D01*
X0048904Y0023213D01*
X0049022Y0023114D01*
X0049136Y0023013D01*
X0049248Y0022908D01*
X0049357Y0022800D01*
X0049463Y0022689D01*
X0049567Y0022576D01*
X0049667Y0022460D01*
X0049765Y0022342D01*
X0049859Y0022221D01*
X0049950Y0022098D01*
X0050038Y0021972D01*
X0050122Y0021844D01*
X0050204Y0021714D01*
X0050281Y0021582D01*
X0050356Y0021448D01*
X0050427Y0021312D01*
X0050494Y0021174D01*
X0050558Y0021034D01*
X0050618Y0020893D01*
X0050674Y0020751D01*
X0050727Y0020607D01*
X0050776Y0020461D01*
X0050821Y0020315D01*
X0050862Y0020167D01*
X0050899Y0020019D01*
X0050933Y0019869D01*
X0050963Y0019718D01*
X0050988Y0019567D01*
X0051010Y0019416D01*
X0051028Y0019263D01*
X0051042Y0019111D01*
X0051052Y0018958D01*
X0051058Y0018804D01*
X0051060Y0018651D01*
X0051058Y0018498D01*
X0051052Y0018344D01*
X0051042Y0018191D01*
X0051028Y0018039D01*
X0051010Y0017886D01*
X0050988Y0017735D01*
X0050963Y0017584D01*
X0050933Y0017433D01*
X0050899Y0017283D01*
X0050862Y0017135D01*
X0050821Y0016987D01*
X0050776Y0016841D01*
X0050727Y0016695D01*
X0050674Y0016551D01*
X0050618Y0016409D01*
X0050558Y0016268D01*
X0050494Y0016128D01*
X0050427Y0015990D01*
X0050356Y0015854D01*
X0050281Y0015720D01*
X0050204Y0015588D01*
X0050122Y0015458D01*
X0050038Y0015330D01*
X0049950Y0015204D01*
X0049859Y0015081D01*
X0049765Y0014960D01*
X0049667Y0014842D01*
X0049567Y0014726D01*
X0049463Y0014613D01*
X0049357Y0014502D01*
X0049248Y0014394D01*
X0049136Y0014289D01*
X0049022Y0014188D01*
X0048904Y0014089D01*
X0048785Y0013993D01*
X0048663Y0013900D01*
X0048538Y0013811D01*
X0048411Y0013724D01*
X0048282Y0013642D01*
X0048151Y0013562D01*
X0048018Y0013486D01*
X0047883Y0013413D01*
X0047746Y0013344D01*
X0047607Y0013279D01*
X0047467Y0013217D01*
X0047325Y0013159D01*
X0047182Y0013104D01*
X0047037Y0013053D01*
X0046891Y0013006D01*
X0046744Y0012963D01*
X0046596Y0012924D01*
X0046447Y0012888D01*
X0046297Y0012857D01*
X0046146Y0012829D01*
X0045995Y0012805D01*
X0045842Y0012785D01*
X0045690Y0012769D01*
X0045537Y0012757D01*
X0045384Y0012749D01*
X0045231Y0012745D01*
X0045077Y0012745D01*
X0044924Y0012749D01*
X0044771Y0012757D01*
X0044618Y0012769D01*
X0044466Y0012785D01*
X0044313Y0012805D01*
X0044162Y0012829D01*
X0044011Y0012857D01*
X0043861Y0012888D01*
X0043712Y0012924D01*
X0043564Y0012963D01*
X0043417Y0013006D01*
X0043271Y0013053D01*
X0043126Y0013104D01*
X0042983Y0013159D01*
X0042841Y0013217D01*
X0042701Y0013279D01*
X0042562Y0013344D01*
X0042425Y0013413D01*
X0042290Y0013486D01*
X0042157Y0013562D01*
X0042026Y0013642D01*
X0041897Y0013724D01*
X0041770Y0013811D01*
X0041645Y0013900D01*
X0041523Y0013993D01*
X0041404Y0014089D01*
X0041286Y0014188D01*
X0041172Y0014289D01*
X0041060Y0014394D01*
X0040951Y0014502D01*
X0040845Y0014613D01*
X0040741Y0014726D01*
X0040641Y0014842D01*
X0040543Y0014960D01*
X0040449Y0015081D01*
X0040358Y0015204D01*
X0040270Y0015330D01*
X0040186Y0015458D01*
X0040104Y0015588D01*
X0040027Y0015720D01*
X0039952Y0015854D01*
X0039881Y0015990D01*
X0039814Y0016128D01*
X0039750Y0016268D01*
X0039690Y0016409D01*
X0039634Y0016551D01*
X0039581Y0016695D01*
X0039532Y0016841D01*
X0039487Y0016987D01*
X0039446Y0017135D01*
X0039409Y0017283D01*
X0039375Y0017433D01*
X0039345Y0017584D01*
X0039320Y0017735D01*
X0039298Y0017886D01*
X0039280Y0018039D01*
X0039266Y0018191D01*
X0039256Y0018344D01*
X0039250Y0018498D01*
X0039248Y0018651D01*
D11*
X0061650Y0017667D03*
X0076650Y0017667D03*
X0076650Y0027667D03*
X0061650Y0027667D03*
X0066650Y0042667D03*
X0096650Y0042667D03*
X0096650Y0027667D03*
X0096650Y0017667D03*
D12*
X0054445Y0038848D03*
X0043815Y0038848D03*
X0043815Y0042588D03*
X0043815Y0046328D03*
X0054445Y0046328D03*
D13*
X0026650Y0038493D03*
X0026650Y0016840D03*
D14*
X0039017Y0029206D01*
X0049526Y0029206D01*
X0049526Y0042588D01*
X0043815Y0042588D01*
X0043815Y0046328D02*
X0034485Y0046328D01*
X0026650Y0038493D01*
X0043815Y0038493D01*
X0043815Y0038848D01*
X0047105Y0032017D02*
X0049130Y0032856D01*
X0051156Y0032017D01*
X0052367Y0032017D01*
X0053400Y0030983D01*
X0053400Y0026747D01*
X0052249Y0027898D01*
X0049614Y0029419D01*
X0046675Y0030206D01*
X0043633Y0030206D01*
X0040694Y0029419D01*
X0038059Y0027898D01*
X0035907Y0025746D01*
X0034386Y0023111D01*
X0033598Y0020172D01*
X0033598Y0017130D01*
X0034386Y0014191D01*
X0034891Y0013317D01*
X0032434Y0013317D01*
X0032434Y0016190D01*
X0027300Y0016190D01*
X0027300Y0017490D01*
X0026000Y0017490D01*
X0026000Y0022624D01*
X0022299Y0022624D01*
X0021879Y0022511D01*
X0021503Y0022294D01*
X0021196Y0021987D01*
X0020979Y0021611D01*
X0020866Y0021191D01*
X0020866Y0017490D01*
X0026000Y0017490D01*
X0026000Y0016190D01*
X0020866Y0016190D01*
X0020866Y0013317D01*
X0018409Y0013317D01*
X0018914Y0014191D01*
X0019702Y0017130D01*
X0019702Y0020172D01*
X0018914Y0023111D01*
X0017393Y0025746D01*
X0015241Y0027898D01*
X0012606Y0029419D01*
X0009667Y0030206D01*
X0007300Y0030206D01*
X0007300Y0046977D01*
X0018876Y0046977D01*
X0017726Y0045828D01*
X0016866Y0043751D01*
X0016866Y0033236D01*
X0017726Y0031159D01*
X0019316Y0029570D01*
X0021392Y0028710D01*
X0031908Y0028710D01*
X0033984Y0029570D01*
X0035574Y0031159D01*
X0036002Y0032193D01*
X0040099Y0032193D01*
X0040526Y0032017D01*
X0047105Y0032017D01*
X0047881Y0032338D02*
X0050379Y0032338D01*
X0053344Y0031040D02*
X0035454Y0031040D01*
X0034156Y0029741D02*
X0041897Y0029741D01*
X0039003Y0028443D02*
X0014297Y0028443D01*
X0015995Y0027144D02*
X0037305Y0027144D01*
X0036007Y0025846D02*
X0017293Y0025846D01*
X0018085Y0024547D02*
X0035215Y0024547D01*
X0034465Y0023249D02*
X0018835Y0023249D01*
X0019225Y0021950D02*
X0021175Y0021950D01*
X0020866Y0020652D02*
X0019573Y0020652D01*
X0019702Y0019353D02*
X0020866Y0019353D01*
X0020866Y0018055D02*
X0019702Y0018055D01*
X0019602Y0016756D02*
X0026000Y0016756D01*
X0027300Y0016756D02*
X0033698Y0016756D01*
X0032434Y0017490D02*
X0032434Y0021191D01*
X0032321Y0021611D01*
X0032104Y0021987D01*
X0031797Y0022294D01*
X0031421Y0022511D01*
X0031001Y0022624D01*
X0027300Y0022624D01*
X0027300Y0017490D01*
X0032434Y0017490D01*
X0032434Y0018055D02*
X0033598Y0018055D01*
X0033598Y0019353D02*
X0032434Y0019353D01*
X0032434Y0020652D02*
X0033727Y0020652D01*
X0034075Y0021950D02*
X0032125Y0021950D01*
X0027300Y0021950D02*
X0026000Y0021950D01*
X0026000Y0020652D02*
X0027300Y0020652D01*
X0027300Y0019353D02*
X0026000Y0019353D01*
X0026000Y0018055D02*
X0027300Y0018055D01*
X0032434Y0015458D02*
X0034046Y0015458D01*
X0034404Y0014159D02*
X0032434Y0014159D01*
X0020866Y0014159D02*
X0018896Y0014159D01*
X0019254Y0015458D02*
X0020866Y0015458D01*
X0019144Y0029741D02*
X0011403Y0029741D01*
X0007300Y0031040D02*
X0017846Y0031040D01*
X0017238Y0032338D02*
X0007300Y0032338D01*
X0007300Y0033637D02*
X0016866Y0033637D01*
X0016866Y0034935D02*
X0007300Y0034935D01*
X0007300Y0036234D02*
X0016866Y0036234D01*
X0016866Y0037532D02*
X0007300Y0037532D01*
X0007300Y0038831D02*
X0016866Y0038831D01*
X0016866Y0040129D02*
X0007300Y0040129D01*
X0007300Y0041428D02*
X0016866Y0041428D01*
X0016866Y0042726D02*
X0007300Y0042726D01*
X0007300Y0044025D02*
X0016980Y0044025D01*
X0017517Y0045323D02*
X0007300Y0045323D01*
X0007300Y0046622D02*
X0018521Y0046622D01*
X0048411Y0029741D02*
X0053400Y0029741D01*
X0053400Y0028443D02*
X0051305Y0028443D01*
X0049526Y0029206D02*
X0061066Y0017667D01*
X0061650Y0017667D01*
X0076650Y0017667D01*
X0096650Y0017667D01*
X0096500Y0017817D02*
X0096500Y0017517D01*
X0092400Y0017517D01*
X0092400Y0015906D01*
X0094890Y0013417D01*
X0096500Y0013417D01*
X0096500Y0017517D01*
X0096800Y0017517D01*
X0096800Y0013417D01*
X0098410Y0013417D01*
X0099701Y0014707D01*
X0099701Y0013317D01*
X0055417Y0013317D01*
X0055922Y0014191D01*
X0056709Y0017130D01*
X0056709Y0020172D01*
X0056428Y0021221D01*
X0057811Y0019838D01*
X0057400Y0019427D01*
X0057400Y0017817D01*
X0061500Y0017817D01*
X0061500Y0017517D01*
X0057400Y0017517D01*
X0057400Y0015906D01*
X0059890Y0013417D01*
X0061500Y0013417D01*
X0061500Y0017517D01*
X0061800Y0017517D01*
X0061800Y0017817D01*
X0065900Y0017817D01*
X0065900Y0019427D01*
X0065489Y0019838D01*
X0069150Y0023499D01*
X0072811Y0019838D01*
X0072400Y0019427D01*
X0072400Y0017817D01*
X0076500Y0017817D01*
X0076500Y0017517D01*
X0072400Y0017517D01*
X0072400Y0015906D01*
X0074890Y0013417D01*
X0076500Y0013417D01*
X0076500Y0017517D01*
X0076800Y0017517D01*
X0076800Y0017817D01*
X0080900Y0017817D01*
X0080900Y0019427D01*
X0080489Y0019838D01*
X0084900Y0024249D01*
X0084900Y0031084D01*
X0082950Y0033034D01*
X0082950Y0033920D01*
X0081991Y0036235D01*
X0080219Y0038008D01*
X0074900Y0043326D01*
X0074900Y0046084D01*
X0074007Y0046977D01*
X0089293Y0046977D01*
X0088400Y0046084D01*
X0088400Y0039249D01*
X0090350Y0037299D01*
X0090350Y0033034D01*
X0088400Y0031084D01*
X0088400Y0024249D01*
X0092811Y0019838D01*
X0092400Y0019427D01*
X0092400Y0017817D01*
X0096500Y0017817D01*
X0096500Y0016756D02*
X0096800Y0016756D01*
X0096800Y0015458D02*
X0096500Y0015458D01*
X0096500Y0014159D02*
X0096800Y0014159D01*
X0099153Y0014159D02*
X0099701Y0014159D01*
X0094147Y0014159D02*
X0079153Y0014159D01*
X0078410Y0013417D02*
X0080900Y0015906D01*
X0080900Y0017517D01*
X0076800Y0017517D01*
X0076800Y0013417D01*
X0078410Y0013417D01*
X0076800Y0014159D02*
X0076500Y0014159D01*
X0076500Y0015458D02*
X0076800Y0015458D01*
X0074147Y0014159D02*
X0064153Y0014159D01*
X0063410Y0013417D02*
X0065900Y0015906D01*
X0065900Y0017517D01*
X0061800Y0017517D01*
X0061800Y0013417D01*
X0063410Y0013417D01*
X0061800Y0014159D02*
X0061500Y0014159D01*
X0061500Y0015458D02*
X0061800Y0015458D01*
X0059147Y0014159D02*
X0055904Y0014159D01*
X0056261Y0015458D02*
X0057849Y0015458D01*
X0057400Y0016756D02*
X0056609Y0016756D01*
X0056709Y0018055D02*
X0057400Y0018055D01*
X0057400Y0019353D02*
X0056709Y0019353D01*
X0056581Y0020652D02*
X0056998Y0020652D01*
X0061500Y0016756D02*
X0061800Y0016756D01*
X0065451Y0015458D02*
X0072849Y0015458D01*
X0072400Y0016756D02*
X0065900Y0016756D01*
X0065900Y0018055D02*
X0072400Y0018055D01*
X0072400Y0019353D02*
X0065900Y0019353D01*
X0066302Y0020652D02*
X0071998Y0020652D01*
X0070699Y0021950D02*
X0067601Y0021950D01*
X0068899Y0023249D02*
X0069401Y0023249D01*
X0076650Y0027667D02*
X0076650Y0032667D01*
X0066650Y0042667D01*
X0062989Y0046328D01*
X0054445Y0046328D01*
X0054445Y0038848D02*
X0061650Y0031643D01*
X0061650Y0027667D01*
X0053400Y0027144D02*
X0053002Y0027144D01*
X0076500Y0016756D02*
X0076800Y0016756D01*
X0080451Y0015458D02*
X0092849Y0015458D01*
X0092400Y0016756D02*
X0080900Y0016756D01*
X0080900Y0018055D02*
X0092400Y0018055D01*
X0092400Y0019353D02*
X0080900Y0019353D01*
X0081302Y0020652D02*
X0091998Y0020652D01*
X0090699Y0021950D02*
X0082601Y0021950D01*
X0083899Y0023249D02*
X0089401Y0023249D01*
X0088400Y0024547D02*
X0084900Y0024547D01*
X0084900Y0025846D02*
X0088400Y0025846D01*
X0088400Y0027144D02*
X0084900Y0027144D01*
X0084900Y0028443D02*
X0088400Y0028443D01*
X0088400Y0029741D02*
X0084900Y0029741D01*
X0084900Y0031040D02*
X0088400Y0031040D01*
X0089654Y0032338D02*
X0083646Y0032338D01*
X0082950Y0033637D02*
X0090350Y0033637D01*
X0090350Y0034935D02*
X0082529Y0034935D01*
X0081991Y0036234D02*
X0090350Y0036234D01*
X0090117Y0037532D02*
X0080694Y0037532D01*
X0079395Y0038831D02*
X0088818Y0038831D01*
X0088400Y0040129D02*
X0078097Y0040129D01*
X0076798Y0041428D02*
X0088400Y0041428D01*
X0088400Y0042726D02*
X0075500Y0042726D01*
X0074900Y0044025D02*
X0088400Y0044025D01*
X0088400Y0045323D02*
X0074900Y0045323D01*
X0074362Y0046622D02*
X0088938Y0046622D01*
X0096650Y0042667D02*
X0096650Y0027667D01*
M02*
