G75*
%MOIN*%
%OFA0B0*%
%FSLAX25Y25*%
%IPPOS*%
%LPD*%
%AMOC8*
5,1,8,0,0,1.08239X$1,22.5*
%
%ADD10C,0.00600*%
%ADD11C,0.01200*%
%ADD12R,0.01500X0.02000*%
%ADD13C,0.00500*%
%ADD14C,0.01000*%
D10*
X0063100Y0024100D02*
X0063100Y0029100D01*
X0063102Y0029187D01*
X0063108Y0029274D01*
X0063117Y0029361D01*
X0063130Y0029447D01*
X0063147Y0029533D01*
X0063168Y0029618D01*
X0063193Y0029701D01*
X0063221Y0029784D01*
X0063252Y0029865D01*
X0063287Y0029945D01*
X0063326Y0030023D01*
X0063368Y0030100D01*
X0063413Y0030175D01*
X0063462Y0030247D01*
X0063513Y0030318D01*
X0063568Y0030386D01*
X0063625Y0030451D01*
X0063686Y0030514D01*
X0063749Y0030575D01*
X0063814Y0030632D01*
X0063882Y0030687D01*
X0063953Y0030738D01*
X0064025Y0030787D01*
X0064100Y0030832D01*
X0064177Y0030874D01*
X0064255Y0030913D01*
X0064335Y0030948D01*
X0064416Y0030979D01*
X0064499Y0031007D01*
X0064582Y0031032D01*
X0064667Y0031053D01*
X0064753Y0031070D01*
X0064839Y0031083D01*
X0064926Y0031092D01*
X0065013Y0031098D01*
X0065100Y0031100D01*
X0078100Y0031100D01*
X0078187Y0031098D01*
X0078274Y0031092D01*
X0078361Y0031083D01*
X0078447Y0031070D01*
X0078533Y0031053D01*
X0078618Y0031032D01*
X0078701Y0031007D01*
X0078784Y0030979D01*
X0078865Y0030948D01*
X0078945Y0030913D01*
X0079023Y0030874D01*
X0079100Y0030832D01*
X0079175Y0030787D01*
X0079247Y0030738D01*
X0079318Y0030687D01*
X0079386Y0030632D01*
X0079451Y0030575D01*
X0079514Y0030514D01*
X0079575Y0030451D01*
X0079632Y0030386D01*
X0079687Y0030318D01*
X0079738Y0030247D01*
X0079787Y0030175D01*
X0079832Y0030100D01*
X0079874Y0030023D01*
X0079913Y0029945D01*
X0079948Y0029865D01*
X0079979Y0029784D01*
X0080007Y0029701D01*
X0080032Y0029618D01*
X0080053Y0029533D01*
X0080070Y0029447D01*
X0080083Y0029361D01*
X0080092Y0029274D01*
X0080098Y0029187D01*
X0080100Y0029100D01*
X0080100Y0024100D01*
X0080098Y0024013D01*
X0080092Y0023926D01*
X0080083Y0023839D01*
X0080070Y0023753D01*
X0080053Y0023667D01*
X0080032Y0023582D01*
X0080007Y0023499D01*
X0079979Y0023416D01*
X0079948Y0023335D01*
X0079913Y0023255D01*
X0079874Y0023177D01*
X0079832Y0023100D01*
X0079787Y0023025D01*
X0079738Y0022953D01*
X0079687Y0022882D01*
X0079632Y0022814D01*
X0079575Y0022749D01*
X0079514Y0022686D01*
X0079451Y0022625D01*
X0079386Y0022568D01*
X0079318Y0022513D01*
X0079247Y0022462D01*
X0079175Y0022413D01*
X0079100Y0022368D01*
X0079023Y0022326D01*
X0078945Y0022287D01*
X0078865Y0022252D01*
X0078784Y0022221D01*
X0078701Y0022193D01*
X0078618Y0022168D01*
X0078533Y0022147D01*
X0078447Y0022130D01*
X0078361Y0022117D01*
X0078274Y0022108D01*
X0078187Y0022102D01*
X0078100Y0022100D01*
X0065100Y0022100D01*
X0065013Y0022102D01*
X0064926Y0022108D01*
X0064839Y0022117D01*
X0064753Y0022130D01*
X0064667Y0022147D01*
X0064582Y0022168D01*
X0064499Y0022193D01*
X0064416Y0022221D01*
X0064335Y0022252D01*
X0064255Y0022287D01*
X0064177Y0022326D01*
X0064100Y0022368D01*
X0064025Y0022413D01*
X0063953Y0022462D01*
X0063882Y0022513D01*
X0063814Y0022568D01*
X0063749Y0022625D01*
X0063686Y0022686D01*
X0063625Y0022749D01*
X0063568Y0022814D01*
X0063513Y0022882D01*
X0063462Y0022953D01*
X0063413Y0023025D01*
X0063368Y0023100D01*
X0063326Y0023177D01*
X0063287Y0023255D01*
X0063252Y0023335D01*
X0063221Y0023416D01*
X0063193Y0023499D01*
X0063168Y0023582D01*
X0063147Y0023667D01*
X0063130Y0023753D01*
X0063117Y0023839D01*
X0063108Y0023926D01*
X0063102Y0024013D01*
X0063100Y0024100D01*
X0122100Y0045100D02*
X0122100Y0058100D01*
X0122102Y0058187D01*
X0122108Y0058274D01*
X0122117Y0058361D01*
X0122130Y0058447D01*
X0122147Y0058533D01*
X0122168Y0058618D01*
X0122193Y0058701D01*
X0122221Y0058784D01*
X0122252Y0058865D01*
X0122287Y0058945D01*
X0122326Y0059023D01*
X0122368Y0059100D01*
X0122413Y0059175D01*
X0122462Y0059247D01*
X0122513Y0059318D01*
X0122568Y0059386D01*
X0122625Y0059451D01*
X0122686Y0059514D01*
X0122749Y0059575D01*
X0122814Y0059632D01*
X0122882Y0059687D01*
X0122953Y0059738D01*
X0123025Y0059787D01*
X0123100Y0059832D01*
X0123177Y0059874D01*
X0123255Y0059913D01*
X0123335Y0059948D01*
X0123416Y0059979D01*
X0123499Y0060007D01*
X0123582Y0060032D01*
X0123667Y0060053D01*
X0123753Y0060070D01*
X0123839Y0060083D01*
X0123926Y0060092D01*
X0124013Y0060098D01*
X0124100Y0060100D01*
X0129100Y0060100D01*
X0129187Y0060098D01*
X0129274Y0060092D01*
X0129361Y0060083D01*
X0129447Y0060070D01*
X0129533Y0060053D01*
X0129618Y0060032D01*
X0129701Y0060007D01*
X0129784Y0059979D01*
X0129865Y0059948D01*
X0129945Y0059913D01*
X0130023Y0059874D01*
X0130100Y0059832D01*
X0130175Y0059787D01*
X0130247Y0059738D01*
X0130318Y0059687D01*
X0130386Y0059632D01*
X0130451Y0059575D01*
X0130514Y0059514D01*
X0130575Y0059451D01*
X0130632Y0059386D01*
X0130687Y0059318D01*
X0130738Y0059247D01*
X0130787Y0059175D01*
X0130832Y0059100D01*
X0130874Y0059023D01*
X0130913Y0058945D01*
X0130948Y0058865D01*
X0130979Y0058784D01*
X0131007Y0058701D01*
X0131032Y0058618D01*
X0131053Y0058533D01*
X0131070Y0058447D01*
X0131083Y0058361D01*
X0131092Y0058274D01*
X0131098Y0058187D01*
X0131100Y0058100D01*
X0131100Y0045100D01*
X0131098Y0045013D01*
X0131092Y0044926D01*
X0131083Y0044839D01*
X0131070Y0044753D01*
X0131053Y0044667D01*
X0131032Y0044582D01*
X0131007Y0044499D01*
X0130979Y0044416D01*
X0130948Y0044335D01*
X0130913Y0044255D01*
X0130874Y0044177D01*
X0130832Y0044100D01*
X0130787Y0044025D01*
X0130738Y0043953D01*
X0130687Y0043882D01*
X0130632Y0043814D01*
X0130575Y0043749D01*
X0130514Y0043686D01*
X0130451Y0043625D01*
X0130386Y0043568D01*
X0130318Y0043513D01*
X0130247Y0043462D01*
X0130175Y0043413D01*
X0130100Y0043368D01*
X0130023Y0043326D01*
X0129945Y0043287D01*
X0129865Y0043252D01*
X0129784Y0043221D01*
X0129701Y0043193D01*
X0129618Y0043168D01*
X0129533Y0043147D01*
X0129447Y0043130D01*
X0129361Y0043117D01*
X0129274Y0043108D01*
X0129187Y0043102D01*
X0129100Y0043100D01*
X0124100Y0043100D01*
X0124013Y0043102D01*
X0123926Y0043108D01*
X0123839Y0043117D01*
X0123753Y0043130D01*
X0123667Y0043147D01*
X0123582Y0043168D01*
X0123499Y0043193D01*
X0123416Y0043221D01*
X0123335Y0043252D01*
X0123255Y0043287D01*
X0123177Y0043326D01*
X0123100Y0043368D01*
X0123025Y0043413D01*
X0122953Y0043462D01*
X0122882Y0043513D01*
X0122814Y0043568D01*
X0122749Y0043625D01*
X0122686Y0043686D01*
X0122625Y0043749D01*
X0122568Y0043814D01*
X0122513Y0043882D01*
X0122462Y0043953D01*
X0122413Y0044025D01*
X0122368Y0044100D01*
X0122326Y0044177D01*
X0122287Y0044255D01*
X0122252Y0044335D01*
X0122221Y0044416D01*
X0122193Y0044499D01*
X0122168Y0044582D01*
X0122147Y0044667D01*
X0122130Y0044753D01*
X0122117Y0044839D01*
X0122108Y0044926D01*
X0122102Y0045013D01*
X0122100Y0045100D01*
X0125100Y0070100D02*
X0124600Y0070600D01*
X0124600Y0072600D01*
X0125100Y0073100D01*
X0125100Y0070100D02*
X0125165Y0070038D01*
X0125233Y0069978D01*
X0125303Y0069922D01*
X0125375Y0069868D01*
X0125450Y0069818D01*
X0125527Y0069771D01*
X0125605Y0069727D01*
X0125686Y0069686D01*
X0125768Y0069649D01*
X0125851Y0069616D01*
X0125936Y0069586D01*
X0126022Y0069559D01*
X0126109Y0069537D01*
X0126197Y0069518D01*
X0126286Y0069502D01*
X0126375Y0069491D01*
X0126465Y0069483D01*
X0126555Y0069479D01*
X0126645Y0069479D01*
X0126735Y0069483D01*
X0126825Y0069491D01*
X0126914Y0069502D01*
X0127003Y0069518D01*
X0127091Y0069537D01*
X0127178Y0069559D01*
X0127264Y0069586D01*
X0127349Y0069616D01*
X0127432Y0069649D01*
X0127514Y0069686D01*
X0127595Y0069727D01*
X0127673Y0069771D01*
X0127750Y0069818D01*
X0127825Y0069868D01*
X0127897Y0069922D01*
X0127967Y0069978D01*
X0128035Y0070038D01*
X0128100Y0070100D01*
X0128600Y0070600D01*
X0128600Y0072600D01*
X0128100Y0073100D01*
X0127600Y0071600D02*
X0127598Y0071660D01*
X0127593Y0071721D01*
X0127584Y0071780D01*
X0127571Y0071839D01*
X0127555Y0071898D01*
X0127535Y0071955D01*
X0127512Y0072010D01*
X0127485Y0072065D01*
X0127456Y0072117D01*
X0127423Y0072168D01*
X0127387Y0072217D01*
X0127349Y0072263D01*
X0127307Y0072307D01*
X0127263Y0072349D01*
X0127217Y0072387D01*
X0127168Y0072423D01*
X0127117Y0072456D01*
X0127065Y0072485D01*
X0127010Y0072512D01*
X0126955Y0072535D01*
X0126898Y0072555D01*
X0126839Y0072571D01*
X0126780Y0072584D01*
X0126721Y0072593D01*
X0126660Y0072598D01*
X0126600Y0072600D01*
X0125600Y0071600D02*
X0125602Y0071540D01*
X0125607Y0071479D01*
X0125616Y0071420D01*
X0125629Y0071361D01*
X0125645Y0071302D01*
X0125665Y0071245D01*
X0125688Y0071190D01*
X0125715Y0071135D01*
X0125744Y0071083D01*
X0125777Y0071032D01*
X0125813Y0070983D01*
X0125851Y0070937D01*
X0125893Y0070893D01*
X0125937Y0070851D01*
X0125983Y0070813D01*
X0126032Y0070777D01*
X0126083Y0070744D01*
X0126135Y0070715D01*
X0126190Y0070688D01*
X0126245Y0070665D01*
X0126302Y0070645D01*
X0126361Y0070629D01*
X0126420Y0070616D01*
X0126479Y0070607D01*
X0126540Y0070602D01*
X0126600Y0070600D01*
X0110600Y0087600D02*
X0109100Y0087600D01*
X0108600Y0088100D01*
X0094600Y0088100D01*
X0094100Y0087600D01*
X0092600Y0087600D01*
X0092540Y0087602D01*
X0092479Y0087607D01*
X0092420Y0087616D01*
X0092361Y0087629D01*
X0092302Y0087645D01*
X0092245Y0087665D01*
X0092190Y0087688D01*
X0092135Y0087715D01*
X0092083Y0087744D01*
X0092032Y0087777D01*
X0091983Y0087813D01*
X0091937Y0087851D01*
X0091893Y0087893D01*
X0091851Y0087937D01*
X0091813Y0087983D01*
X0091777Y0088032D01*
X0091744Y0088083D01*
X0091715Y0088135D01*
X0091688Y0088190D01*
X0091665Y0088245D01*
X0091645Y0088302D01*
X0091629Y0088361D01*
X0091616Y0088420D01*
X0091607Y0088479D01*
X0091602Y0088540D01*
X0091600Y0088600D01*
X0091600Y0094600D01*
X0091602Y0094660D01*
X0091607Y0094721D01*
X0091616Y0094780D01*
X0091629Y0094839D01*
X0091645Y0094898D01*
X0091665Y0094955D01*
X0091688Y0095010D01*
X0091715Y0095065D01*
X0091744Y0095117D01*
X0091777Y0095168D01*
X0091813Y0095217D01*
X0091851Y0095263D01*
X0091893Y0095307D01*
X0091937Y0095349D01*
X0091983Y0095387D01*
X0092032Y0095423D01*
X0092083Y0095456D01*
X0092135Y0095485D01*
X0092190Y0095512D01*
X0092245Y0095535D01*
X0092302Y0095555D01*
X0092361Y0095571D01*
X0092420Y0095584D01*
X0092479Y0095593D01*
X0092540Y0095598D01*
X0092600Y0095600D01*
X0094100Y0095600D01*
X0094600Y0095100D01*
X0108600Y0095100D01*
X0109100Y0095600D01*
X0110600Y0095600D01*
X0110660Y0095598D01*
X0110721Y0095593D01*
X0110780Y0095584D01*
X0110839Y0095571D01*
X0110898Y0095555D01*
X0110955Y0095535D01*
X0111010Y0095512D01*
X0111065Y0095485D01*
X0111117Y0095456D01*
X0111168Y0095423D01*
X0111217Y0095387D01*
X0111263Y0095349D01*
X0111307Y0095307D01*
X0111349Y0095263D01*
X0111387Y0095217D01*
X0111423Y0095168D01*
X0111456Y0095117D01*
X0111485Y0095065D01*
X0111512Y0095010D01*
X0111535Y0094955D01*
X0111555Y0094898D01*
X0111571Y0094839D01*
X0111584Y0094780D01*
X0111593Y0094721D01*
X0111598Y0094660D01*
X0111600Y0094600D01*
X0111600Y0088600D01*
X0111598Y0088540D01*
X0111593Y0088479D01*
X0111584Y0088420D01*
X0111571Y0088361D01*
X0111555Y0088302D01*
X0111535Y0088245D01*
X0111512Y0088190D01*
X0111485Y0088135D01*
X0111456Y0088083D01*
X0111423Y0088032D01*
X0111387Y0087983D01*
X0111349Y0087937D01*
X0111307Y0087893D01*
X0111263Y0087851D01*
X0111217Y0087813D01*
X0111168Y0087777D01*
X0111117Y0087744D01*
X0111065Y0087715D01*
X0111010Y0087688D01*
X0110955Y0087665D01*
X0110898Y0087645D01*
X0110839Y0087629D01*
X0110780Y0087616D01*
X0110721Y0087607D01*
X0110660Y0087602D01*
X0110600Y0087600D01*
D11*
X0123600Y0052800D02*
X0129600Y0052800D01*
X0129600Y0050300D02*
X0123600Y0050300D01*
X0072800Y0029600D02*
X0072800Y0023600D01*
X0070300Y0023600D02*
X0070300Y0029600D01*
D12*
X0090850Y0091600D03*
X0112350Y0091600D03*
D13*
X0075183Y0075852D02*
X0075183Y0065025D01*
X0058450Y0065025D01*
X0058450Y0075852D01*
X0075183Y0075852D01*
D14*
X0021364Y0065261D02*
X0021364Y0038883D01*
X0041836Y0038883D01*
X0041836Y0075891D01*
X0021364Y0075891D01*
X0021364Y0069592D01*
X0021272Y0069590D01*
X0021180Y0069584D01*
X0021089Y0069574D01*
X0020998Y0069561D01*
X0020908Y0069543D01*
X0020818Y0069522D01*
X0020730Y0069497D01*
X0020643Y0069468D01*
X0020557Y0069436D01*
X0020472Y0069400D01*
X0020389Y0069360D01*
X0020308Y0069317D01*
X0020229Y0069271D01*
X0020152Y0069221D01*
X0020077Y0069168D01*
X0020004Y0069111D01*
X0019934Y0069052D01*
X0019866Y0068990D01*
X0019801Y0068925D01*
X0019739Y0068857D01*
X0019680Y0068787D01*
X0019623Y0068714D01*
X0019570Y0068639D01*
X0019520Y0068562D01*
X0019474Y0068483D01*
X0019431Y0068402D01*
X0019391Y0068319D01*
X0019355Y0068234D01*
X0019323Y0068148D01*
X0019294Y0068061D01*
X0019269Y0067973D01*
X0019248Y0067883D01*
X0019230Y0067793D01*
X0019217Y0067702D01*
X0019207Y0067611D01*
X0019201Y0067519D01*
X0019199Y0067427D01*
X0019201Y0067335D01*
X0019207Y0067243D01*
X0019217Y0067152D01*
X0019230Y0067061D01*
X0019248Y0066971D01*
X0019269Y0066881D01*
X0019294Y0066793D01*
X0019323Y0066706D01*
X0019355Y0066620D01*
X0019391Y0066535D01*
X0019431Y0066452D01*
X0019474Y0066371D01*
X0019520Y0066292D01*
X0019570Y0066215D01*
X0019623Y0066140D01*
X0019680Y0066067D01*
X0019739Y0065997D01*
X0019801Y0065929D01*
X0019866Y0065864D01*
X0019934Y0065802D01*
X0020004Y0065743D01*
X0020077Y0065686D01*
X0020152Y0065633D01*
X0020229Y0065583D01*
X0020308Y0065537D01*
X0020389Y0065494D01*
X0020472Y0065454D01*
X0020557Y0065418D01*
X0020643Y0065386D01*
X0020730Y0065357D01*
X0020818Y0065332D01*
X0020908Y0065311D01*
X0020998Y0065293D01*
X0021089Y0065280D01*
X0021180Y0065270D01*
X0021272Y0065264D01*
X0021364Y0065262D01*
X0020970Y0051482D02*
X0018214Y0051482D01*
X0018607Y0044002D02*
X0018519Y0043869D01*
X0018428Y0043738D01*
X0018334Y0043609D01*
X0018236Y0043482D01*
X0018136Y0043358D01*
X0018032Y0043237D01*
X0017926Y0043118D01*
X0017816Y0043001D01*
X0017704Y0042887D01*
X0017589Y0042776D01*
X0017472Y0042668D01*
X0017352Y0042563D01*
X0017229Y0042461D01*
X0017104Y0042362D01*
X0016976Y0042266D01*
X0016846Y0042173D01*
X0016714Y0042083D01*
X0016580Y0041996D01*
X0016444Y0041913D01*
X0016305Y0041833D01*
X0016165Y0041756D01*
X0016023Y0041683D01*
X0015880Y0041614D01*
X0015734Y0041548D01*
X0015587Y0041485D01*
X0015439Y0041426D01*
X0015289Y0041371D01*
X0015138Y0041319D01*
X0014985Y0041271D01*
X0014832Y0041227D01*
X0014677Y0041187D01*
X0014522Y0041150D01*
X0014366Y0041117D01*
X0014209Y0041088D01*
X0014051Y0041063D01*
X0013893Y0041042D01*
X0013734Y0041024D01*
X0013575Y0041011D01*
X0013415Y0041001D01*
X0013256Y0040995D01*
X0013096Y0040993D01*
X0012936Y0040995D01*
X0012777Y0041001D01*
X0012617Y0041011D01*
X0012458Y0041024D01*
X0012299Y0041042D01*
X0012141Y0041063D01*
X0011983Y0041088D01*
X0011826Y0041117D01*
X0011670Y0041150D01*
X0011515Y0041187D01*
X0011360Y0041227D01*
X0011207Y0041271D01*
X0011054Y0041319D01*
X0010903Y0041371D01*
X0010753Y0041426D01*
X0010605Y0041485D01*
X0010458Y0041548D01*
X0010312Y0041614D01*
X0010169Y0041683D01*
X0010027Y0041756D01*
X0009887Y0041833D01*
X0009748Y0041913D01*
X0009612Y0041996D01*
X0009478Y0042083D01*
X0009346Y0042173D01*
X0009216Y0042266D01*
X0009088Y0042362D01*
X0008963Y0042461D01*
X0008840Y0042563D01*
X0008720Y0042668D01*
X0008603Y0042776D01*
X0008488Y0042887D01*
X0008376Y0043001D01*
X0008266Y0043118D01*
X0008160Y0043237D01*
X0008056Y0043358D01*
X0007956Y0043482D01*
X0007858Y0043609D01*
X0007764Y0043738D01*
X0007673Y0043869D01*
X0007585Y0044002D01*
X0007584Y0044002D02*
X0007584Y0051088D01*
X0007585Y0051088D02*
X0007673Y0051221D01*
X0007764Y0051352D01*
X0007858Y0051481D01*
X0007956Y0051608D01*
X0008056Y0051732D01*
X0008160Y0051853D01*
X0008266Y0051972D01*
X0008376Y0052089D01*
X0008488Y0052203D01*
X0008603Y0052314D01*
X0008720Y0052422D01*
X0008840Y0052527D01*
X0008963Y0052629D01*
X0009088Y0052728D01*
X0009216Y0052824D01*
X0009346Y0052917D01*
X0009478Y0053007D01*
X0009612Y0053094D01*
X0009748Y0053177D01*
X0009887Y0053257D01*
X0010027Y0053334D01*
X0010169Y0053407D01*
X0010312Y0053476D01*
X0010458Y0053542D01*
X0010605Y0053605D01*
X0010753Y0053664D01*
X0010903Y0053719D01*
X0011054Y0053771D01*
X0011207Y0053819D01*
X0011360Y0053863D01*
X0011515Y0053903D01*
X0011670Y0053940D01*
X0011826Y0053973D01*
X0011983Y0054002D01*
X0012141Y0054027D01*
X0012299Y0054048D01*
X0012458Y0054066D01*
X0012617Y0054079D01*
X0012777Y0054089D01*
X0012936Y0054095D01*
X0013096Y0054097D01*
X0013256Y0054095D01*
X0013415Y0054089D01*
X0013575Y0054079D01*
X0013734Y0054066D01*
X0013893Y0054048D01*
X0014051Y0054027D01*
X0014209Y0054002D01*
X0014366Y0053973D01*
X0014522Y0053940D01*
X0014677Y0053903D01*
X0014832Y0053863D01*
X0014985Y0053819D01*
X0015138Y0053771D01*
X0015289Y0053719D01*
X0015439Y0053664D01*
X0015587Y0053605D01*
X0015734Y0053542D01*
X0015880Y0053476D01*
X0016023Y0053407D01*
X0016165Y0053334D01*
X0016305Y0053257D01*
X0016444Y0053177D01*
X0016580Y0053094D01*
X0016714Y0053007D01*
X0016846Y0052917D01*
X0016976Y0052824D01*
X0017104Y0052728D01*
X0017229Y0052629D01*
X0017352Y0052527D01*
X0017472Y0052422D01*
X0017589Y0052314D01*
X0017704Y0052203D01*
X0017816Y0052089D01*
X0017926Y0051972D01*
X0018032Y0051853D01*
X0018136Y0051732D01*
X0018236Y0051608D01*
X0018334Y0051481D01*
X0018428Y0051352D01*
X0018519Y0051221D01*
X0018607Y0051088D01*
X0018214Y0043608D02*
X0020970Y0043608D01*
X0042230Y0043608D02*
X0044986Y0043608D01*
X0044593Y0051088D02*
X0044681Y0051221D01*
X0044772Y0051352D01*
X0044866Y0051481D01*
X0044964Y0051608D01*
X0045064Y0051732D01*
X0045168Y0051853D01*
X0045274Y0051972D01*
X0045384Y0052089D01*
X0045496Y0052203D01*
X0045611Y0052314D01*
X0045728Y0052422D01*
X0045848Y0052527D01*
X0045971Y0052629D01*
X0046096Y0052728D01*
X0046224Y0052824D01*
X0046354Y0052917D01*
X0046486Y0053007D01*
X0046620Y0053094D01*
X0046756Y0053177D01*
X0046895Y0053257D01*
X0047035Y0053334D01*
X0047177Y0053407D01*
X0047320Y0053476D01*
X0047466Y0053542D01*
X0047613Y0053605D01*
X0047761Y0053664D01*
X0047911Y0053719D01*
X0048062Y0053771D01*
X0048215Y0053819D01*
X0048368Y0053863D01*
X0048523Y0053903D01*
X0048678Y0053940D01*
X0048834Y0053973D01*
X0048991Y0054002D01*
X0049149Y0054027D01*
X0049307Y0054048D01*
X0049466Y0054066D01*
X0049625Y0054079D01*
X0049785Y0054089D01*
X0049944Y0054095D01*
X0050104Y0054097D01*
X0050264Y0054095D01*
X0050423Y0054089D01*
X0050583Y0054079D01*
X0050742Y0054066D01*
X0050901Y0054048D01*
X0051059Y0054027D01*
X0051217Y0054002D01*
X0051374Y0053973D01*
X0051530Y0053940D01*
X0051685Y0053903D01*
X0051840Y0053863D01*
X0051993Y0053819D01*
X0052146Y0053771D01*
X0052297Y0053719D01*
X0052447Y0053664D01*
X0052595Y0053605D01*
X0052742Y0053542D01*
X0052888Y0053476D01*
X0053031Y0053407D01*
X0053173Y0053334D01*
X0053313Y0053257D01*
X0053452Y0053177D01*
X0053588Y0053094D01*
X0053722Y0053007D01*
X0053854Y0052917D01*
X0053984Y0052824D01*
X0054112Y0052728D01*
X0054237Y0052629D01*
X0054360Y0052527D01*
X0054480Y0052422D01*
X0054597Y0052314D01*
X0054712Y0052203D01*
X0054824Y0052089D01*
X0054934Y0051972D01*
X0055040Y0051853D01*
X0055144Y0051732D01*
X0055244Y0051608D01*
X0055342Y0051481D01*
X0055436Y0051352D01*
X0055527Y0051221D01*
X0055615Y0051088D01*
X0055616Y0051088D02*
X0055616Y0044002D01*
X0055615Y0044002D02*
X0055527Y0043869D01*
X0055436Y0043738D01*
X0055342Y0043609D01*
X0055244Y0043482D01*
X0055144Y0043358D01*
X0055040Y0043237D01*
X0054934Y0043118D01*
X0054824Y0043001D01*
X0054712Y0042887D01*
X0054597Y0042776D01*
X0054480Y0042668D01*
X0054360Y0042563D01*
X0054237Y0042461D01*
X0054112Y0042362D01*
X0053984Y0042266D01*
X0053854Y0042173D01*
X0053722Y0042083D01*
X0053588Y0041996D01*
X0053452Y0041913D01*
X0053313Y0041833D01*
X0053173Y0041756D01*
X0053031Y0041683D01*
X0052888Y0041614D01*
X0052742Y0041548D01*
X0052595Y0041485D01*
X0052447Y0041426D01*
X0052297Y0041371D01*
X0052146Y0041319D01*
X0051993Y0041271D01*
X0051840Y0041227D01*
X0051685Y0041187D01*
X0051530Y0041150D01*
X0051374Y0041117D01*
X0051217Y0041088D01*
X0051059Y0041063D01*
X0050901Y0041042D01*
X0050742Y0041024D01*
X0050583Y0041011D01*
X0050423Y0041001D01*
X0050264Y0040995D01*
X0050104Y0040993D01*
X0049944Y0040995D01*
X0049785Y0041001D01*
X0049625Y0041011D01*
X0049466Y0041024D01*
X0049307Y0041042D01*
X0049149Y0041063D01*
X0048991Y0041088D01*
X0048834Y0041117D01*
X0048678Y0041150D01*
X0048523Y0041187D01*
X0048368Y0041227D01*
X0048215Y0041271D01*
X0048062Y0041319D01*
X0047911Y0041371D01*
X0047761Y0041426D01*
X0047613Y0041485D01*
X0047466Y0041548D01*
X0047320Y0041614D01*
X0047177Y0041683D01*
X0047035Y0041756D01*
X0046895Y0041833D01*
X0046756Y0041913D01*
X0046620Y0041996D01*
X0046486Y0042083D01*
X0046354Y0042173D01*
X0046224Y0042266D01*
X0046096Y0042362D01*
X0045971Y0042461D01*
X0045848Y0042563D01*
X0045728Y0042668D01*
X0045611Y0042776D01*
X0045496Y0042887D01*
X0045384Y0043001D01*
X0045274Y0043118D01*
X0045168Y0043237D01*
X0045064Y0043358D01*
X0044964Y0043482D01*
X0044866Y0043609D01*
X0044772Y0043738D01*
X0044681Y0043869D01*
X0044593Y0044002D01*
X0044986Y0051482D02*
X0042230Y0051482D01*
M02*
