G75*
%MOIN*%
%OFA0B0*%
%FSLAX25Y25*%
%IPPOS*%
%LPD*%
%AMOC8*
5,1,8,0,0,1.08239X$1,22.5*
%
%ADD10C,0.00000*%
%ADD11OC8,0.05200*%
%ADD12R,0.04331X0.02362*%
%ADD13R,0.08268X0.08268*%
%ADD14C,0.01200*%
%ADD15C,0.01300*%
%ADD16C,0.04400*%
D10*
X0001600Y0001600D02*
X0001600Y0111561D01*
X0145301Y0111561D01*
X0145301Y0001600D01*
X0001600Y0001600D01*
X0007190Y0047584D02*
X0007192Y0047737D01*
X0007198Y0047891D01*
X0007208Y0048044D01*
X0007222Y0048196D01*
X0007240Y0048349D01*
X0007262Y0048500D01*
X0007287Y0048651D01*
X0007317Y0048802D01*
X0007351Y0048952D01*
X0007388Y0049100D01*
X0007429Y0049248D01*
X0007474Y0049394D01*
X0007523Y0049540D01*
X0007576Y0049684D01*
X0007632Y0049826D01*
X0007692Y0049967D01*
X0007756Y0050107D01*
X0007823Y0050245D01*
X0007894Y0050381D01*
X0007969Y0050515D01*
X0008046Y0050647D01*
X0008128Y0050777D01*
X0008212Y0050905D01*
X0008300Y0051031D01*
X0008391Y0051154D01*
X0008485Y0051275D01*
X0008583Y0051393D01*
X0008683Y0051509D01*
X0008787Y0051622D01*
X0008893Y0051733D01*
X0009002Y0051841D01*
X0009114Y0051946D01*
X0009228Y0052047D01*
X0009346Y0052146D01*
X0009465Y0052242D01*
X0009587Y0052335D01*
X0009712Y0052424D01*
X0009839Y0052511D01*
X0009968Y0052593D01*
X0010099Y0052673D01*
X0010232Y0052749D01*
X0010367Y0052822D01*
X0010504Y0052891D01*
X0010643Y0052956D01*
X0010783Y0053018D01*
X0010925Y0053076D01*
X0011068Y0053131D01*
X0011213Y0053182D01*
X0011359Y0053229D01*
X0011506Y0053272D01*
X0011654Y0053311D01*
X0011803Y0053347D01*
X0011953Y0053378D01*
X0012104Y0053406D01*
X0012255Y0053430D01*
X0012408Y0053450D01*
X0012560Y0053466D01*
X0012713Y0053478D01*
X0012866Y0053486D01*
X0013019Y0053490D01*
X0013173Y0053490D01*
X0013326Y0053486D01*
X0013479Y0053478D01*
X0013632Y0053466D01*
X0013784Y0053450D01*
X0013937Y0053430D01*
X0014088Y0053406D01*
X0014239Y0053378D01*
X0014389Y0053347D01*
X0014538Y0053311D01*
X0014686Y0053272D01*
X0014833Y0053229D01*
X0014979Y0053182D01*
X0015124Y0053131D01*
X0015267Y0053076D01*
X0015409Y0053018D01*
X0015549Y0052956D01*
X0015688Y0052891D01*
X0015825Y0052822D01*
X0015960Y0052749D01*
X0016093Y0052673D01*
X0016224Y0052593D01*
X0016353Y0052511D01*
X0016480Y0052424D01*
X0016605Y0052335D01*
X0016727Y0052242D01*
X0016846Y0052146D01*
X0016964Y0052047D01*
X0017078Y0051946D01*
X0017190Y0051841D01*
X0017299Y0051733D01*
X0017405Y0051622D01*
X0017509Y0051509D01*
X0017609Y0051393D01*
X0017707Y0051275D01*
X0017801Y0051154D01*
X0017892Y0051031D01*
X0017980Y0050905D01*
X0018064Y0050777D01*
X0018146Y0050647D01*
X0018223Y0050515D01*
X0018298Y0050381D01*
X0018369Y0050245D01*
X0018436Y0050107D01*
X0018500Y0049967D01*
X0018560Y0049826D01*
X0018616Y0049684D01*
X0018669Y0049540D01*
X0018718Y0049394D01*
X0018763Y0049248D01*
X0018804Y0049100D01*
X0018841Y0048952D01*
X0018875Y0048802D01*
X0018905Y0048651D01*
X0018930Y0048500D01*
X0018952Y0048349D01*
X0018970Y0048196D01*
X0018984Y0048044D01*
X0018994Y0047891D01*
X0019000Y0047737D01*
X0019002Y0047584D01*
X0019000Y0047431D01*
X0018994Y0047277D01*
X0018984Y0047124D01*
X0018970Y0046972D01*
X0018952Y0046819D01*
X0018930Y0046668D01*
X0018905Y0046517D01*
X0018875Y0046366D01*
X0018841Y0046216D01*
X0018804Y0046068D01*
X0018763Y0045920D01*
X0018718Y0045774D01*
X0018669Y0045628D01*
X0018616Y0045484D01*
X0018560Y0045342D01*
X0018500Y0045201D01*
X0018436Y0045061D01*
X0018369Y0044923D01*
X0018298Y0044787D01*
X0018223Y0044653D01*
X0018146Y0044521D01*
X0018064Y0044391D01*
X0017980Y0044263D01*
X0017892Y0044137D01*
X0017801Y0044014D01*
X0017707Y0043893D01*
X0017609Y0043775D01*
X0017509Y0043659D01*
X0017405Y0043546D01*
X0017299Y0043435D01*
X0017190Y0043327D01*
X0017078Y0043222D01*
X0016964Y0043121D01*
X0016846Y0043022D01*
X0016727Y0042926D01*
X0016605Y0042833D01*
X0016480Y0042744D01*
X0016353Y0042657D01*
X0016224Y0042575D01*
X0016093Y0042495D01*
X0015960Y0042419D01*
X0015825Y0042346D01*
X0015688Y0042277D01*
X0015549Y0042212D01*
X0015409Y0042150D01*
X0015267Y0042092D01*
X0015124Y0042037D01*
X0014979Y0041986D01*
X0014833Y0041939D01*
X0014686Y0041896D01*
X0014538Y0041857D01*
X0014389Y0041821D01*
X0014239Y0041790D01*
X0014088Y0041762D01*
X0013937Y0041738D01*
X0013784Y0041718D01*
X0013632Y0041702D01*
X0013479Y0041690D01*
X0013326Y0041682D01*
X0013173Y0041678D01*
X0013019Y0041678D01*
X0012866Y0041682D01*
X0012713Y0041690D01*
X0012560Y0041702D01*
X0012408Y0041718D01*
X0012255Y0041738D01*
X0012104Y0041762D01*
X0011953Y0041790D01*
X0011803Y0041821D01*
X0011654Y0041857D01*
X0011506Y0041896D01*
X0011359Y0041939D01*
X0011213Y0041986D01*
X0011068Y0042037D01*
X0010925Y0042092D01*
X0010783Y0042150D01*
X0010643Y0042212D01*
X0010504Y0042277D01*
X0010367Y0042346D01*
X0010232Y0042419D01*
X0010099Y0042495D01*
X0009968Y0042575D01*
X0009839Y0042657D01*
X0009712Y0042744D01*
X0009587Y0042833D01*
X0009465Y0042926D01*
X0009346Y0043022D01*
X0009228Y0043121D01*
X0009114Y0043222D01*
X0009002Y0043327D01*
X0008893Y0043435D01*
X0008787Y0043546D01*
X0008683Y0043659D01*
X0008583Y0043775D01*
X0008485Y0043893D01*
X0008391Y0044014D01*
X0008300Y0044137D01*
X0008212Y0044263D01*
X0008128Y0044391D01*
X0008046Y0044521D01*
X0007969Y0044653D01*
X0007894Y0044787D01*
X0007823Y0044923D01*
X0007756Y0045061D01*
X0007692Y0045201D01*
X0007632Y0045342D01*
X0007576Y0045484D01*
X0007523Y0045628D01*
X0007474Y0045774D01*
X0007429Y0045920D01*
X0007388Y0046068D01*
X0007351Y0046216D01*
X0007317Y0046366D01*
X0007287Y0046517D01*
X0007262Y0046668D01*
X0007240Y0046819D01*
X0007222Y0046972D01*
X0007208Y0047124D01*
X0007198Y0047277D01*
X0007192Y0047431D01*
X0007190Y0047584D01*
X0044198Y0047584D02*
X0044200Y0047737D01*
X0044206Y0047891D01*
X0044216Y0048044D01*
X0044230Y0048196D01*
X0044248Y0048349D01*
X0044270Y0048500D01*
X0044295Y0048651D01*
X0044325Y0048802D01*
X0044359Y0048952D01*
X0044396Y0049100D01*
X0044437Y0049248D01*
X0044482Y0049394D01*
X0044531Y0049540D01*
X0044584Y0049684D01*
X0044640Y0049826D01*
X0044700Y0049967D01*
X0044764Y0050107D01*
X0044831Y0050245D01*
X0044902Y0050381D01*
X0044977Y0050515D01*
X0045054Y0050647D01*
X0045136Y0050777D01*
X0045220Y0050905D01*
X0045308Y0051031D01*
X0045399Y0051154D01*
X0045493Y0051275D01*
X0045591Y0051393D01*
X0045691Y0051509D01*
X0045795Y0051622D01*
X0045901Y0051733D01*
X0046010Y0051841D01*
X0046122Y0051946D01*
X0046236Y0052047D01*
X0046354Y0052146D01*
X0046473Y0052242D01*
X0046595Y0052335D01*
X0046720Y0052424D01*
X0046847Y0052511D01*
X0046976Y0052593D01*
X0047107Y0052673D01*
X0047240Y0052749D01*
X0047375Y0052822D01*
X0047512Y0052891D01*
X0047651Y0052956D01*
X0047791Y0053018D01*
X0047933Y0053076D01*
X0048076Y0053131D01*
X0048221Y0053182D01*
X0048367Y0053229D01*
X0048514Y0053272D01*
X0048662Y0053311D01*
X0048811Y0053347D01*
X0048961Y0053378D01*
X0049112Y0053406D01*
X0049263Y0053430D01*
X0049416Y0053450D01*
X0049568Y0053466D01*
X0049721Y0053478D01*
X0049874Y0053486D01*
X0050027Y0053490D01*
X0050181Y0053490D01*
X0050334Y0053486D01*
X0050487Y0053478D01*
X0050640Y0053466D01*
X0050792Y0053450D01*
X0050945Y0053430D01*
X0051096Y0053406D01*
X0051247Y0053378D01*
X0051397Y0053347D01*
X0051546Y0053311D01*
X0051694Y0053272D01*
X0051841Y0053229D01*
X0051987Y0053182D01*
X0052132Y0053131D01*
X0052275Y0053076D01*
X0052417Y0053018D01*
X0052557Y0052956D01*
X0052696Y0052891D01*
X0052833Y0052822D01*
X0052968Y0052749D01*
X0053101Y0052673D01*
X0053232Y0052593D01*
X0053361Y0052511D01*
X0053488Y0052424D01*
X0053613Y0052335D01*
X0053735Y0052242D01*
X0053854Y0052146D01*
X0053972Y0052047D01*
X0054086Y0051946D01*
X0054198Y0051841D01*
X0054307Y0051733D01*
X0054413Y0051622D01*
X0054517Y0051509D01*
X0054617Y0051393D01*
X0054715Y0051275D01*
X0054809Y0051154D01*
X0054900Y0051031D01*
X0054988Y0050905D01*
X0055072Y0050777D01*
X0055154Y0050647D01*
X0055231Y0050515D01*
X0055306Y0050381D01*
X0055377Y0050245D01*
X0055444Y0050107D01*
X0055508Y0049967D01*
X0055568Y0049826D01*
X0055624Y0049684D01*
X0055677Y0049540D01*
X0055726Y0049394D01*
X0055771Y0049248D01*
X0055812Y0049100D01*
X0055849Y0048952D01*
X0055883Y0048802D01*
X0055913Y0048651D01*
X0055938Y0048500D01*
X0055960Y0048349D01*
X0055978Y0048196D01*
X0055992Y0048044D01*
X0056002Y0047891D01*
X0056008Y0047737D01*
X0056010Y0047584D01*
X0056008Y0047431D01*
X0056002Y0047277D01*
X0055992Y0047124D01*
X0055978Y0046972D01*
X0055960Y0046819D01*
X0055938Y0046668D01*
X0055913Y0046517D01*
X0055883Y0046366D01*
X0055849Y0046216D01*
X0055812Y0046068D01*
X0055771Y0045920D01*
X0055726Y0045774D01*
X0055677Y0045628D01*
X0055624Y0045484D01*
X0055568Y0045342D01*
X0055508Y0045201D01*
X0055444Y0045061D01*
X0055377Y0044923D01*
X0055306Y0044787D01*
X0055231Y0044653D01*
X0055154Y0044521D01*
X0055072Y0044391D01*
X0054988Y0044263D01*
X0054900Y0044137D01*
X0054809Y0044014D01*
X0054715Y0043893D01*
X0054617Y0043775D01*
X0054517Y0043659D01*
X0054413Y0043546D01*
X0054307Y0043435D01*
X0054198Y0043327D01*
X0054086Y0043222D01*
X0053972Y0043121D01*
X0053854Y0043022D01*
X0053735Y0042926D01*
X0053613Y0042833D01*
X0053488Y0042744D01*
X0053361Y0042657D01*
X0053232Y0042575D01*
X0053101Y0042495D01*
X0052968Y0042419D01*
X0052833Y0042346D01*
X0052696Y0042277D01*
X0052557Y0042212D01*
X0052417Y0042150D01*
X0052275Y0042092D01*
X0052132Y0042037D01*
X0051987Y0041986D01*
X0051841Y0041939D01*
X0051694Y0041896D01*
X0051546Y0041857D01*
X0051397Y0041821D01*
X0051247Y0041790D01*
X0051096Y0041762D01*
X0050945Y0041738D01*
X0050792Y0041718D01*
X0050640Y0041702D01*
X0050487Y0041690D01*
X0050334Y0041682D01*
X0050181Y0041678D01*
X0050027Y0041678D01*
X0049874Y0041682D01*
X0049721Y0041690D01*
X0049568Y0041702D01*
X0049416Y0041718D01*
X0049263Y0041738D01*
X0049112Y0041762D01*
X0048961Y0041790D01*
X0048811Y0041821D01*
X0048662Y0041857D01*
X0048514Y0041896D01*
X0048367Y0041939D01*
X0048221Y0041986D01*
X0048076Y0042037D01*
X0047933Y0042092D01*
X0047791Y0042150D01*
X0047651Y0042212D01*
X0047512Y0042277D01*
X0047375Y0042346D01*
X0047240Y0042419D01*
X0047107Y0042495D01*
X0046976Y0042575D01*
X0046847Y0042657D01*
X0046720Y0042744D01*
X0046595Y0042833D01*
X0046473Y0042926D01*
X0046354Y0043022D01*
X0046236Y0043121D01*
X0046122Y0043222D01*
X0046010Y0043327D01*
X0045901Y0043435D01*
X0045795Y0043546D01*
X0045691Y0043659D01*
X0045591Y0043775D01*
X0045493Y0043893D01*
X0045399Y0044014D01*
X0045308Y0044137D01*
X0045220Y0044263D01*
X0045136Y0044391D01*
X0045054Y0044521D01*
X0044977Y0044653D01*
X0044902Y0044787D01*
X0044831Y0044923D01*
X0044764Y0045061D01*
X0044700Y0045201D01*
X0044640Y0045342D01*
X0044584Y0045484D01*
X0044531Y0045628D01*
X0044482Y0045774D01*
X0044437Y0045920D01*
X0044396Y0046068D01*
X0044359Y0046216D01*
X0044325Y0046366D01*
X0044295Y0046517D01*
X0044270Y0046668D01*
X0044248Y0046819D01*
X0044230Y0046972D01*
X0044216Y0047124D01*
X0044206Y0047277D01*
X0044200Y0047431D01*
X0044198Y0047584D01*
D11*
X0066600Y0026600D03*
X0076600Y0026600D03*
X0126600Y0046600D03*
X0126600Y0056600D03*
X0126600Y0066600D03*
X0126600Y0076600D03*
X0116600Y0091600D03*
X0086600Y0091600D03*
D12*
X0072230Y0074080D03*
X0072230Y0066600D03*
X0061600Y0066600D03*
X0061600Y0070340D03*
X0061600Y0074080D03*
D13*
X0031600Y0067427D03*
X0031600Y0045773D03*
D14*
X0032200Y0045384D02*
X0037747Y0045384D01*
X0037334Y0045173D02*
X0032200Y0045173D01*
X0032200Y0040039D01*
X0035945Y0040039D01*
X0036351Y0040148D01*
X0036716Y0040359D01*
X0037014Y0040657D01*
X0037225Y0041022D01*
X0037334Y0041429D01*
X0037334Y0045173D01*
X0037598Y0045938D02*
X0038451Y0042757D01*
X0040097Y0039906D01*
X0042425Y0037577D01*
X0045277Y0035931D01*
X0048458Y0035079D01*
X0051750Y0035079D01*
X0054931Y0035931D01*
X0057782Y0037577D01*
X0060111Y0039906D01*
X0061757Y0042757D01*
X0062609Y0045938D01*
X0062609Y0049231D01*
X0061757Y0052411D01*
X0060111Y0055263D01*
X0057782Y0057591D01*
X0054931Y0059238D01*
X0051750Y0060090D01*
X0048458Y0060090D01*
X0045277Y0059238D01*
X0042425Y0057591D01*
X0040097Y0055263D01*
X0038451Y0052411D01*
X0037598Y0049231D01*
X0037598Y0045938D01*
X0037334Y0046373D02*
X0037334Y0050118D01*
X0037225Y0050525D01*
X0037014Y0050890D01*
X0036716Y0051187D01*
X0036351Y0051398D01*
X0035945Y0051507D01*
X0032200Y0051507D01*
X0032200Y0046373D01*
X0037334Y0046373D01*
X0037334Y0046583D02*
X0037598Y0046583D01*
X0037598Y0047781D02*
X0037334Y0047781D01*
X0037334Y0048980D02*
X0037598Y0048980D01*
X0037852Y0050178D02*
X0037318Y0050178D01*
X0038173Y0051377D02*
X0036388Y0051377D01*
X0038545Y0052575D02*
X0024655Y0052575D01*
X0024749Y0052411D02*
X0023103Y0055263D01*
X0020775Y0057591D01*
X0017923Y0059238D01*
X0014742Y0060090D01*
X0011450Y0060090D01*
X0008269Y0059238D01*
X0008200Y0059198D01*
X0008200Y0104961D01*
X0138701Y0104961D01*
X0138701Y0008200D01*
X0008200Y0008200D01*
X0008200Y0035971D01*
X0008269Y0035931D01*
X0011450Y0035079D01*
X0014742Y0035079D01*
X0017923Y0035931D01*
X0020775Y0037577D01*
X0023103Y0039906D01*
X0024749Y0042757D01*
X0025602Y0045938D01*
X0025602Y0049231D01*
X0024749Y0052411D01*
X0025027Y0051377D02*
X0026812Y0051377D01*
X0026849Y0051398D02*
X0026484Y0051187D01*
X0026186Y0050890D01*
X0025975Y0050525D01*
X0025866Y0050118D01*
X0025866Y0046373D01*
X0031000Y0046373D01*
X0031000Y0045173D01*
X0032200Y0045173D01*
X0032200Y0046373D01*
X0031000Y0046373D01*
X0031000Y0051507D01*
X0027255Y0051507D01*
X0026849Y0051398D01*
X0025882Y0050178D02*
X0025348Y0050178D01*
X0025602Y0048980D02*
X0025866Y0048980D01*
X0025866Y0047781D02*
X0025602Y0047781D01*
X0025602Y0046583D02*
X0025866Y0046583D01*
X0025453Y0045384D02*
X0031000Y0045384D01*
X0031000Y0045173D02*
X0025866Y0045173D01*
X0025866Y0041429D01*
X0025975Y0041022D01*
X0026186Y0040657D01*
X0026484Y0040359D01*
X0026849Y0040148D01*
X0027255Y0040039D01*
X0031000Y0040039D01*
X0031000Y0045173D01*
X0031000Y0044186D02*
X0032200Y0044186D01*
X0032200Y0042987D02*
X0031000Y0042987D01*
X0031000Y0041789D02*
X0032200Y0041789D01*
X0032200Y0040590D02*
X0031000Y0040590D01*
X0026253Y0040590D02*
X0023498Y0040590D01*
X0024190Y0041789D02*
X0025866Y0041789D01*
X0025866Y0042987D02*
X0024811Y0042987D01*
X0025132Y0044186D02*
X0025866Y0044186D01*
X0031000Y0046583D02*
X0032200Y0046583D01*
X0032200Y0047781D02*
X0031000Y0047781D01*
X0031000Y0048980D02*
X0032200Y0048980D01*
X0032200Y0050178D02*
X0031000Y0050178D01*
X0031000Y0051377D02*
X0032200Y0051377D01*
X0037047Y0056693D02*
X0026153Y0056693D01*
X0023728Y0057698D01*
X0021871Y0059554D01*
X0020866Y0061980D01*
X0020866Y0072873D01*
X0021871Y0075299D01*
X0023728Y0077156D01*
X0026153Y0078161D01*
X0032081Y0078161D01*
X0032107Y0078187D01*
X0034147Y0080227D01*
X0036811Y0081330D01*
X0056840Y0081330D01*
X0058122Y0081861D01*
X0065078Y0081861D01*
X0066360Y0081330D01*
X0067470Y0081330D01*
X0068752Y0081861D01*
X0075708Y0081861D01*
X0076990Y0081330D01*
X0079350Y0081330D01*
X0079350Y0085839D01*
X0077400Y0087789D01*
X0077400Y0095411D01*
X0082789Y0100800D01*
X0090411Y0100800D01*
X0095800Y0095411D01*
X0095800Y0087789D01*
X0093850Y0085839D01*
X0093850Y0073158D01*
X0092746Y0070493D01*
X0090707Y0068454D01*
X0090187Y0067934D01*
X0087522Y0066830D01*
X0082253Y0066830D01*
X0082746Y0066337D01*
X0083850Y0063672D01*
X0083850Y0032361D01*
X0085800Y0030411D01*
X0085800Y0022789D01*
X0080411Y0017400D01*
X0072789Y0017400D01*
X0067789Y0022400D01*
X0066800Y0022400D01*
X0066800Y0026400D01*
X0066400Y0026400D01*
X0066400Y0022400D01*
X0064860Y0022400D01*
X0062400Y0024860D01*
X0062400Y0026400D01*
X0066400Y0026400D01*
X0066400Y0026800D01*
X0066400Y0030800D01*
X0064860Y0030800D01*
X0062400Y0028340D01*
X0062400Y0026800D01*
X0066400Y0026800D01*
X0066800Y0026800D01*
X0066800Y0030800D01*
X0067789Y0030800D01*
X0069350Y0032361D01*
X0069350Y0058819D01*
X0068752Y0058819D01*
X0067470Y0059350D01*
X0066360Y0059350D01*
X0065078Y0058819D01*
X0058122Y0058819D01*
X0055696Y0059824D01*
X0053839Y0061680D01*
X0052835Y0064106D01*
X0052835Y0066830D01*
X0042334Y0066830D01*
X0042334Y0061980D01*
X0041329Y0059554D01*
X0039472Y0057698D01*
X0037047Y0056693D01*
X0038680Y0057369D02*
X0042203Y0057369D01*
X0041005Y0056171D02*
X0022195Y0056171D01*
X0023271Y0054972D02*
X0039929Y0054972D01*
X0039237Y0053774D02*
X0023963Y0053774D01*
X0024520Y0057369D02*
X0020997Y0057369D01*
X0022857Y0058568D02*
X0019083Y0058568D01*
X0021783Y0059766D02*
X0015950Y0059766D01*
X0020866Y0062163D02*
X0008200Y0062163D01*
X0008200Y0060965D02*
X0021287Y0060965D01*
X0020866Y0063362D02*
X0008200Y0063362D01*
X0008200Y0064560D02*
X0020866Y0064560D01*
X0020866Y0065759D02*
X0008200Y0065759D01*
X0008200Y0066957D02*
X0020866Y0066957D01*
X0020866Y0068156D02*
X0008200Y0068156D01*
X0008200Y0069354D02*
X0020866Y0069354D01*
X0020866Y0070553D02*
X0008200Y0070553D01*
X0008200Y0071751D02*
X0020866Y0071751D01*
X0020898Y0072950D02*
X0008200Y0072950D01*
X0008200Y0074148D02*
X0021394Y0074148D01*
X0021919Y0075347D02*
X0008200Y0075347D01*
X0008200Y0076545D02*
X0023117Y0076545D01*
X0025147Y0077744D02*
X0008200Y0077744D01*
X0008200Y0078942D02*
X0032863Y0078942D01*
X0034061Y0080141D02*
X0008200Y0080141D01*
X0008200Y0081339D02*
X0056862Y0081339D01*
X0066338Y0081339D02*
X0067492Y0081339D01*
X0076968Y0081339D02*
X0079350Y0081339D01*
X0079350Y0082538D02*
X0008200Y0082538D01*
X0008200Y0083737D02*
X0079350Y0083737D01*
X0079350Y0084935D02*
X0008200Y0084935D01*
X0008200Y0086134D02*
X0079056Y0086134D01*
X0077857Y0087332D02*
X0008200Y0087332D01*
X0008200Y0088531D02*
X0077400Y0088531D01*
X0077400Y0089729D02*
X0008200Y0089729D01*
X0008200Y0090928D02*
X0077400Y0090928D01*
X0077400Y0092126D02*
X0008200Y0092126D01*
X0008200Y0093325D02*
X0077400Y0093325D01*
X0077400Y0094523D02*
X0008200Y0094523D01*
X0008200Y0095722D02*
X0077711Y0095722D01*
X0078909Y0096920D02*
X0008200Y0096920D01*
X0008200Y0098119D02*
X0080108Y0098119D01*
X0081306Y0099317D02*
X0008200Y0099317D01*
X0008200Y0100516D02*
X0082505Y0100516D01*
X0090695Y0100516D02*
X0112505Y0100516D01*
X0112789Y0100800D02*
X0107400Y0095411D01*
X0107400Y0087789D01*
X0109350Y0085839D01*
X0109350Y0085158D01*
X0110454Y0082493D01*
X0117400Y0075547D01*
X0117400Y0072789D01*
X0118589Y0071600D01*
X0117400Y0070411D01*
X0117400Y0062789D01*
X0118589Y0061600D01*
X0117400Y0060411D01*
X0117400Y0052789D01*
X0122400Y0047789D01*
X0122400Y0046800D01*
X0126400Y0046800D01*
X0126400Y0046400D01*
X0126800Y0046400D01*
X0126800Y0046800D01*
X0130800Y0046800D01*
X0130800Y0047789D01*
X0135800Y0052789D01*
X0135800Y0060411D01*
X0134611Y0061600D01*
X0135800Y0062789D01*
X0135800Y0070411D01*
X0134611Y0071600D01*
X0135800Y0072789D01*
X0135800Y0080411D01*
X0130411Y0085800D01*
X0127653Y0085800D01*
X0125732Y0087721D01*
X0125800Y0087789D01*
X0125800Y0095411D01*
X0120411Y0100800D01*
X0112789Y0100800D01*
X0111306Y0099317D02*
X0091894Y0099317D01*
X0093092Y0098119D02*
X0110108Y0098119D01*
X0108909Y0096920D02*
X0094291Y0096920D01*
X0095489Y0095722D02*
X0107711Y0095722D01*
X0107400Y0094523D02*
X0095800Y0094523D01*
X0095800Y0093325D02*
X0107400Y0093325D01*
X0107400Y0092126D02*
X0095800Y0092126D01*
X0095800Y0090928D02*
X0107400Y0090928D01*
X0107400Y0089729D02*
X0095800Y0089729D01*
X0095800Y0088531D02*
X0107400Y0088531D01*
X0107857Y0087332D02*
X0095343Y0087332D01*
X0094144Y0086134D02*
X0109056Y0086134D01*
X0109442Y0084935D02*
X0093850Y0084935D01*
X0093850Y0083737D02*
X0109939Y0083737D01*
X0110435Y0082538D02*
X0093850Y0082538D01*
X0093850Y0081339D02*
X0111607Y0081339D01*
X0112806Y0080141D02*
X0093850Y0080141D01*
X0093850Y0078942D02*
X0114004Y0078942D01*
X0115203Y0077744D02*
X0093850Y0077744D01*
X0093850Y0076545D02*
X0116402Y0076545D01*
X0117400Y0075347D02*
X0093850Y0075347D01*
X0093850Y0074148D02*
X0117400Y0074148D01*
X0117400Y0072950D02*
X0093764Y0072950D01*
X0093267Y0071751D02*
X0118438Y0071751D01*
X0117542Y0070553D02*
X0092771Y0070553D01*
X0091607Y0069354D02*
X0117400Y0069354D01*
X0117400Y0068156D02*
X0090409Y0068156D01*
X0087829Y0066957D02*
X0117400Y0066957D01*
X0117400Y0065759D02*
X0082986Y0065759D01*
X0083482Y0064560D02*
X0117400Y0064560D01*
X0117400Y0063362D02*
X0083850Y0063362D01*
X0083850Y0062163D02*
X0118026Y0062163D01*
X0117954Y0060965D02*
X0083850Y0060965D01*
X0083850Y0059766D02*
X0117400Y0059766D01*
X0117400Y0058568D02*
X0083850Y0058568D01*
X0083850Y0057369D02*
X0117400Y0057369D01*
X0117400Y0056171D02*
X0083850Y0056171D01*
X0083850Y0054972D02*
X0117400Y0054972D01*
X0117400Y0053774D02*
X0083850Y0053774D01*
X0083850Y0052575D02*
X0117614Y0052575D01*
X0118813Y0051377D02*
X0083850Y0051377D01*
X0083850Y0050178D02*
X0120011Y0050178D01*
X0121210Y0048980D02*
X0083850Y0048980D01*
X0083850Y0047781D02*
X0122400Y0047781D01*
X0122400Y0046400D02*
X0122400Y0044860D01*
X0124860Y0042400D01*
X0126400Y0042400D01*
X0126400Y0046400D01*
X0122400Y0046400D01*
X0122400Y0045384D02*
X0083850Y0045384D01*
X0083850Y0044186D02*
X0123075Y0044186D01*
X0124273Y0042987D02*
X0083850Y0042987D01*
X0083850Y0041789D02*
X0138701Y0041789D01*
X0138701Y0042987D02*
X0128927Y0042987D01*
X0128340Y0042400D02*
X0130800Y0044860D01*
X0130800Y0046400D01*
X0126800Y0046400D01*
X0126800Y0042400D01*
X0128340Y0042400D01*
X0126800Y0042987D02*
X0126400Y0042987D01*
X0126400Y0044186D02*
X0126800Y0044186D01*
X0126800Y0045384D02*
X0126400Y0045384D01*
X0126400Y0046583D02*
X0083850Y0046583D01*
X0083850Y0040590D02*
X0138701Y0040590D01*
X0138701Y0039392D02*
X0083850Y0039392D01*
X0083850Y0038193D02*
X0138701Y0038193D01*
X0138701Y0036995D02*
X0083850Y0036995D01*
X0083850Y0035796D02*
X0138701Y0035796D01*
X0138701Y0034598D02*
X0083850Y0034598D01*
X0083850Y0033399D02*
X0138701Y0033399D01*
X0138701Y0032201D02*
X0084010Y0032201D01*
X0085209Y0031002D02*
X0138701Y0031002D01*
X0138701Y0029803D02*
X0085800Y0029803D01*
X0085800Y0028605D02*
X0138701Y0028605D01*
X0138701Y0027406D02*
X0085800Y0027406D01*
X0085800Y0026208D02*
X0138701Y0026208D01*
X0138701Y0025009D02*
X0085800Y0025009D01*
X0085800Y0023811D02*
X0138701Y0023811D01*
X0138701Y0022612D02*
X0085623Y0022612D01*
X0084425Y0021414D02*
X0138701Y0021414D01*
X0138701Y0020215D02*
X0083226Y0020215D01*
X0082028Y0019017D02*
X0138701Y0019017D01*
X0138701Y0017818D02*
X0080829Y0017818D01*
X0072371Y0017818D02*
X0008200Y0017818D01*
X0008200Y0016620D02*
X0138701Y0016620D01*
X0138701Y0015421D02*
X0008200Y0015421D01*
X0008200Y0014223D02*
X0138701Y0014223D01*
X0138701Y0013024D02*
X0008200Y0013024D01*
X0008200Y0011826D02*
X0138701Y0011826D01*
X0138701Y0010627D02*
X0008200Y0010627D01*
X0008200Y0009429D02*
X0138701Y0009429D01*
X0138701Y0008230D02*
X0008200Y0008230D01*
X0008200Y0019017D02*
X0071172Y0019017D01*
X0069974Y0020215D02*
X0008200Y0020215D01*
X0008200Y0021414D02*
X0068775Y0021414D01*
X0066800Y0022612D02*
X0066400Y0022612D01*
X0066400Y0023811D02*
X0066800Y0023811D01*
X0066800Y0025009D02*
X0066400Y0025009D01*
X0066400Y0026208D02*
X0066800Y0026208D01*
X0066800Y0027406D02*
X0066400Y0027406D01*
X0066400Y0028605D02*
X0066800Y0028605D01*
X0066800Y0029803D02*
X0066400Y0029803D01*
X0067991Y0031002D02*
X0008200Y0031002D01*
X0008200Y0029803D02*
X0063864Y0029803D01*
X0062665Y0028605D02*
X0008200Y0028605D01*
X0008200Y0027406D02*
X0062400Y0027406D01*
X0062400Y0026208D02*
X0008200Y0026208D01*
X0008200Y0025009D02*
X0062400Y0025009D01*
X0063449Y0023811D02*
X0008200Y0023811D01*
X0008200Y0022612D02*
X0064648Y0022612D01*
X0069190Y0032201D02*
X0008200Y0032201D01*
X0008200Y0033399D02*
X0069350Y0033399D01*
X0069350Y0034598D02*
X0008200Y0034598D01*
X0008200Y0035796D02*
X0008773Y0035796D01*
X0017419Y0035796D02*
X0045780Y0035796D01*
X0043435Y0036995D02*
X0019765Y0036995D01*
X0021390Y0038193D02*
X0041810Y0038193D01*
X0040611Y0039392D02*
X0022589Y0039392D01*
X0036947Y0040590D02*
X0039702Y0040590D01*
X0039010Y0041789D02*
X0037334Y0041789D01*
X0037334Y0042987D02*
X0038389Y0042987D01*
X0038068Y0044186D02*
X0037334Y0044186D01*
X0054427Y0035796D02*
X0069350Y0035796D01*
X0069350Y0036995D02*
X0056773Y0036995D01*
X0058398Y0038193D02*
X0069350Y0038193D01*
X0069350Y0039392D02*
X0059597Y0039392D01*
X0060506Y0040590D02*
X0069350Y0040590D01*
X0069350Y0041789D02*
X0061198Y0041789D01*
X0061819Y0042987D02*
X0069350Y0042987D01*
X0069350Y0044186D02*
X0062140Y0044186D01*
X0062461Y0045384D02*
X0069350Y0045384D01*
X0069350Y0046583D02*
X0062609Y0046583D01*
X0062609Y0047781D02*
X0069350Y0047781D01*
X0069350Y0048980D02*
X0062609Y0048980D01*
X0062356Y0050178D02*
X0069350Y0050178D01*
X0069350Y0051377D02*
X0062034Y0051377D01*
X0061663Y0052575D02*
X0069350Y0052575D01*
X0069350Y0053774D02*
X0060971Y0053774D01*
X0060279Y0054972D02*
X0069350Y0054972D01*
X0069350Y0056171D02*
X0059203Y0056171D01*
X0058004Y0057369D02*
X0069350Y0057369D01*
X0069350Y0058568D02*
X0056091Y0058568D01*
X0055835Y0059766D02*
X0052958Y0059766D01*
X0054555Y0060965D02*
X0041913Y0060965D01*
X0042334Y0062163D02*
X0053639Y0062163D01*
X0053143Y0063362D02*
X0042334Y0063362D01*
X0042334Y0064560D02*
X0052835Y0064560D01*
X0052835Y0065759D02*
X0042334Y0065759D01*
X0041417Y0059766D02*
X0047250Y0059766D01*
X0044117Y0058568D02*
X0040343Y0058568D01*
X0010242Y0059766D02*
X0008200Y0059766D01*
X0008200Y0101714D02*
X0138701Y0101714D01*
X0138701Y0100516D02*
X0120695Y0100516D01*
X0121894Y0099317D02*
X0138701Y0099317D01*
X0138701Y0098119D02*
X0123092Y0098119D01*
X0124291Y0096920D02*
X0138701Y0096920D01*
X0138701Y0095722D02*
X0125489Y0095722D01*
X0125800Y0094523D02*
X0138701Y0094523D01*
X0138701Y0093325D02*
X0125800Y0093325D01*
X0125800Y0092126D02*
X0138701Y0092126D01*
X0138701Y0090928D02*
X0125800Y0090928D01*
X0125800Y0089729D02*
X0138701Y0089729D01*
X0138701Y0088531D02*
X0125800Y0088531D01*
X0126121Y0087332D02*
X0138701Y0087332D01*
X0138701Y0086134D02*
X0127320Y0086134D01*
X0131276Y0084935D02*
X0138701Y0084935D01*
X0138701Y0083737D02*
X0132474Y0083737D01*
X0133673Y0082538D02*
X0138701Y0082538D01*
X0138701Y0081339D02*
X0134871Y0081339D01*
X0135800Y0080141D02*
X0138701Y0080141D01*
X0138701Y0078942D02*
X0135800Y0078942D01*
X0135800Y0077744D02*
X0138701Y0077744D01*
X0138701Y0076545D02*
X0135800Y0076545D01*
X0135800Y0075347D02*
X0138701Y0075347D01*
X0138701Y0074148D02*
X0135800Y0074148D01*
X0135800Y0072950D02*
X0138701Y0072950D01*
X0138701Y0071751D02*
X0134762Y0071751D01*
X0135658Y0070553D02*
X0138701Y0070553D01*
X0138701Y0069354D02*
X0135800Y0069354D01*
X0135800Y0068156D02*
X0138701Y0068156D01*
X0138701Y0066957D02*
X0135800Y0066957D01*
X0135800Y0065759D02*
X0138701Y0065759D01*
X0138701Y0064560D02*
X0135800Y0064560D01*
X0135800Y0063362D02*
X0138701Y0063362D01*
X0138701Y0062163D02*
X0135174Y0062163D01*
X0135246Y0060965D02*
X0138701Y0060965D01*
X0138701Y0059766D02*
X0135800Y0059766D01*
X0135800Y0058568D02*
X0138701Y0058568D01*
X0138701Y0057369D02*
X0135800Y0057369D01*
X0135800Y0056171D02*
X0138701Y0056171D01*
X0138701Y0054972D02*
X0135800Y0054972D01*
X0135800Y0053774D02*
X0138701Y0053774D01*
X0138701Y0052575D02*
X0135586Y0052575D01*
X0134387Y0051377D02*
X0138701Y0051377D01*
X0138701Y0050178D02*
X0133189Y0050178D01*
X0131990Y0048980D02*
X0138701Y0048980D01*
X0138701Y0047781D02*
X0130800Y0047781D01*
X0130800Y0045384D02*
X0138701Y0045384D01*
X0138701Y0044186D02*
X0130125Y0044186D01*
X0126800Y0046583D02*
X0138701Y0046583D01*
X0138701Y0102913D02*
X0008200Y0102913D01*
X0008200Y0104111D02*
X0138701Y0104111D01*
D15*
X0116600Y0091600D02*
X0116600Y0086600D01*
X0126600Y0076600D01*
X0126600Y0066600D02*
X0126600Y0056600D01*
X0126600Y0046600D02*
X0126600Y0010600D01*
X0076600Y0026600D02*
X0076600Y0062230D01*
X0072230Y0066600D01*
X0067600Y0066600D02*
X0061600Y0066600D01*
X0061600Y0070340D02*
X0056167Y0070340D01*
X0031600Y0045773D01*
X0031600Y0025600D01*
X0065600Y0025600D01*
X0066600Y0026600D01*
X0066600Y0010600D01*
X0067600Y0066600D02*
X0067600Y0073600D01*
X0067120Y0074080D01*
X0061600Y0074080D01*
X0038254Y0074080D01*
X0031600Y0067427D01*
X0072230Y0074080D02*
X0086080Y0074080D01*
X0086600Y0074600D01*
X0086600Y0091600D01*
D16*
X0066600Y0010600D03*
X0126600Y0010600D03*
M02*
