G75*
%MOIN*%
%OFA0B0*%
%FSLAX25Y25*%
%IPPOS*%
%LPD*%
%AMOC8*
5,1,8,0,0,1.08239X$1,22.5*
%
%ADD10C,0.00600*%
%ADD11C,0.01000*%
D10*
X0077000Y0062500D02*
X0087000Y0062500D01*
X0087060Y0062502D01*
X0087121Y0062507D01*
X0087180Y0062516D01*
X0087239Y0062529D01*
X0087298Y0062545D01*
X0087355Y0062565D01*
X0087410Y0062588D01*
X0087465Y0062615D01*
X0087517Y0062644D01*
X0087568Y0062677D01*
X0087617Y0062713D01*
X0087663Y0062751D01*
X0087707Y0062793D01*
X0087749Y0062837D01*
X0087787Y0062883D01*
X0087823Y0062932D01*
X0087856Y0062983D01*
X0087885Y0063035D01*
X0087912Y0063090D01*
X0087935Y0063145D01*
X0087955Y0063202D01*
X0087971Y0063261D01*
X0087984Y0063320D01*
X0087993Y0063379D01*
X0087998Y0063440D01*
X0088000Y0063500D01*
X0088000Y0080500D01*
X0087998Y0080560D01*
X0087993Y0080621D01*
X0087984Y0080680D01*
X0087971Y0080739D01*
X0087955Y0080798D01*
X0087935Y0080855D01*
X0087912Y0080910D01*
X0087885Y0080965D01*
X0087856Y0081017D01*
X0087823Y0081068D01*
X0087787Y0081117D01*
X0087749Y0081163D01*
X0087707Y0081207D01*
X0087663Y0081249D01*
X0087617Y0081287D01*
X0087568Y0081323D01*
X0087517Y0081356D01*
X0087465Y0081385D01*
X0087410Y0081412D01*
X0087355Y0081435D01*
X0087298Y0081455D01*
X0087239Y0081471D01*
X0087180Y0081484D01*
X0087121Y0081493D01*
X0087060Y0081498D01*
X0087000Y0081500D01*
X0077000Y0081500D01*
X0076940Y0081498D01*
X0076879Y0081493D01*
X0076820Y0081484D01*
X0076761Y0081471D01*
X0076702Y0081455D01*
X0076645Y0081435D01*
X0076590Y0081412D01*
X0076535Y0081385D01*
X0076483Y0081356D01*
X0076432Y0081323D01*
X0076383Y0081287D01*
X0076337Y0081249D01*
X0076293Y0081207D01*
X0076251Y0081163D01*
X0076213Y0081117D01*
X0076177Y0081068D01*
X0076144Y0081017D01*
X0076115Y0080965D01*
X0076088Y0080910D01*
X0076065Y0080855D01*
X0076045Y0080798D01*
X0076029Y0080739D01*
X0076016Y0080680D01*
X0076007Y0080621D01*
X0076002Y0080560D01*
X0076000Y0080500D01*
X0076000Y0063500D01*
X0076002Y0063440D01*
X0076007Y0063379D01*
X0076016Y0063320D01*
X0076029Y0063261D01*
X0076045Y0063202D01*
X0076065Y0063145D01*
X0076088Y0063090D01*
X0076115Y0063035D01*
X0076144Y0062983D01*
X0076177Y0062932D01*
X0076213Y0062883D01*
X0076251Y0062837D01*
X0076293Y0062793D01*
X0076337Y0062751D01*
X0076383Y0062713D01*
X0076432Y0062677D01*
X0076483Y0062644D01*
X0076535Y0062615D01*
X0076590Y0062588D01*
X0076645Y0062565D01*
X0076702Y0062545D01*
X0076761Y0062529D01*
X0076820Y0062516D01*
X0076879Y0062507D01*
X0076940Y0062502D01*
X0077000Y0062500D01*
X0082000Y0070500D02*
X0082000Y0071000D01*
X0082000Y0073000D02*
X0082000Y0073500D01*
X0113811Y0074945D02*
X0113811Y0075315D01*
X0113811Y0078685D02*
X0113811Y0079055D01*
X0113811Y0082228D02*
X0113811Y0082598D01*
X0120189Y0082598D01*
X0120189Y0082228D01*
X0120189Y0079055D02*
X0120189Y0074945D01*
X0120189Y0071772D02*
X0120189Y0071402D01*
X0113811Y0071402D01*
X0113811Y0071772D01*
X0117000Y0061500D02*
X0127000Y0061500D01*
X0127060Y0061498D01*
X0127121Y0061493D01*
X0127180Y0061484D01*
X0127239Y0061471D01*
X0127298Y0061455D01*
X0127355Y0061435D01*
X0127410Y0061412D01*
X0127465Y0061385D01*
X0127517Y0061356D01*
X0127568Y0061323D01*
X0127617Y0061287D01*
X0127663Y0061249D01*
X0127707Y0061207D01*
X0127749Y0061163D01*
X0127787Y0061117D01*
X0127823Y0061068D01*
X0127856Y0061017D01*
X0127885Y0060965D01*
X0127912Y0060910D01*
X0127935Y0060855D01*
X0127955Y0060798D01*
X0127971Y0060739D01*
X0127984Y0060680D01*
X0127993Y0060621D01*
X0127998Y0060560D01*
X0128000Y0060500D01*
X0128000Y0043500D01*
X0127998Y0043440D01*
X0127993Y0043379D01*
X0127984Y0043320D01*
X0127971Y0043261D01*
X0127955Y0043202D01*
X0127935Y0043145D01*
X0127912Y0043090D01*
X0127885Y0043035D01*
X0127856Y0042983D01*
X0127823Y0042932D01*
X0127787Y0042883D01*
X0127749Y0042837D01*
X0127707Y0042793D01*
X0127663Y0042751D01*
X0127617Y0042713D01*
X0127568Y0042677D01*
X0127517Y0042644D01*
X0127465Y0042615D01*
X0127410Y0042588D01*
X0127355Y0042565D01*
X0127298Y0042545D01*
X0127239Y0042529D01*
X0127180Y0042516D01*
X0127121Y0042507D01*
X0127060Y0042502D01*
X0127000Y0042500D01*
X0117000Y0042500D01*
X0116940Y0042502D01*
X0116879Y0042507D01*
X0116820Y0042516D01*
X0116761Y0042529D01*
X0116702Y0042545D01*
X0116645Y0042565D01*
X0116590Y0042588D01*
X0116535Y0042615D01*
X0116483Y0042644D01*
X0116432Y0042677D01*
X0116383Y0042713D01*
X0116337Y0042751D01*
X0116293Y0042793D01*
X0116251Y0042837D01*
X0116213Y0042883D01*
X0116177Y0042932D01*
X0116144Y0042983D01*
X0116115Y0043035D01*
X0116088Y0043090D01*
X0116065Y0043145D01*
X0116045Y0043202D01*
X0116029Y0043261D01*
X0116016Y0043320D01*
X0116007Y0043379D01*
X0116002Y0043440D01*
X0116000Y0043500D01*
X0116000Y0060500D01*
X0116002Y0060560D01*
X0116007Y0060621D01*
X0116016Y0060680D01*
X0116029Y0060739D01*
X0116045Y0060798D01*
X0116065Y0060855D01*
X0116088Y0060910D01*
X0116115Y0060965D01*
X0116144Y0061017D01*
X0116177Y0061068D01*
X0116213Y0061117D01*
X0116251Y0061163D01*
X0116293Y0061207D01*
X0116337Y0061249D01*
X0116383Y0061287D01*
X0116432Y0061323D01*
X0116483Y0061356D01*
X0116535Y0061385D01*
X0116590Y0061412D01*
X0116645Y0061435D01*
X0116702Y0061455D01*
X0116761Y0061471D01*
X0116820Y0061484D01*
X0116879Y0061493D01*
X0116940Y0061498D01*
X0117000Y0061500D01*
X0122000Y0053500D02*
X0122000Y0053000D01*
X0122000Y0051000D02*
X0122000Y0050500D01*
X0136000Y0050500D02*
X0136000Y0033500D01*
X0136002Y0033440D01*
X0136007Y0033379D01*
X0136016Y0033320D01*
X0136029Y0033261D01*
X0136045Y0033202D01*
X0136065Y0033145D01*
X0136088Y0033090D01*
X0136115Y0033035D01*
X0136144Y0032983D01*
X0136177Y0032932D01*
X0136213Y0032883D01*
X0136251Y0032837D01*
X0136293Y0032793D01*
X0136337Y0032751D01*
X0136383Y0032713D01*
X0136432Y0032677D01*
X0136483Y0032644D01*
X0136535Y0032615D01*
X0136590Y0032588D01*
X0136645Y0032565D01*
X0136702Y0032545D01*
X0136761Y0032529D01*
X0136820Y0032516D01*
X0136879Y0032507D01*
X0136940Y0032502D01*
X0137000Y0032500D01*
X0147000Y0032500D01*
X0147060Y0032502D01*
X0147121Y0032507D01*
X0147180Y0032516D01*
X0147239Y0032529D01*
X0147298Y0032545D01*
X0147355Y0032565D01*
X0147410Y0032588D01*
X0147465Y0032615D01*
X0147517Y0032644D01*
X0147568Y0032677D01*
X0147617Y0032713D01*
X0147663Y0032751D01*
X0147707Y0032793D01*
X0147749Y0032837D01*
X0147787Y0032883D01*
X0147823Y0032932D01*
X0147856Y0032983D01*
X0147885Y0033035D01*
X0147912Y0033090D01*
X0147935Y0033145D01*
X0147955Y0033202D01*
X0147971Y0033261D01*
X0147984Y0033320D01*
X0147993Y0033379D01*
X0147998Y0033440D01*
X0148000Y0033500D01*
X0148000Y0050500D01*
X0147998Y0050560D01*
X0147993Y0050621D01*
X0147984Y0050680D01*
X0147971Y0050739D01*
X0147955Y0050798D01*
X0147935Y0050855D01*
X0147912Y0050910D01*
X0147885Y0050965D01*
X0147856Y0051017D01*
X0147823Y0051068D01*
X0147787Y0051117D01*
X0147749Y0051163D01*
X0147707Y0051207D01*
X0147663Y0051249D01*
X0147617Y0051287D01*
X0147568Y0051323D01*
X0147517Y0051356D01*
X0147465Y0051385D01*
X0147410Y0051412D01*
X0147355Y0051435D01*
X0147298Y0051455D01*
X0147239Y0051471D01*
X0147180Y0051484D01*
X0147121Y0051493D01*
X0147060Y0051498D01*
X0147000Y0051500D01*
X0137000Y0051500D01*
X0136940Y0051498D01*
X0136879Y0051493D01*
X0136820Y0051484D01*
X0136761Y0051471D01*
X0136702Y0051455D01*
X0136645Y0051435D01*
X0136590Y0051412D01*
X0136535Y0051385D01*
X0136483Y0051356D01*
X0136432Y0051323D01*
X0136383Y0051287D01*
X0136337Y0051249D01*
X0136293Y0051207D01*
X0136251Y0051163D01*
X0136213Y0051117D01*
X0136177Y0051068D01*
X0136144Y0051017D01*
X0136115Y0050965D01*
X0136088Y0050910D01*
X0136065Y0050855D01*
X0136045Y0050798D01*
X0136029Y0050739D01*
X0136016Y0050680D01*
X0136007Y0050621D01*
X0136002Y0050560D01*
X0136000Y0050500D01*
X0142000Y0043500D02*
X0142000Y0043000D01*
X0142000Y0041000D02*
X0142000Y0040500D01*
X0172000Y0043000D02*
X0172152Y0042998D01*
X0172303Y0042992D01*
X0172454Y0042983D01*
X0172606Y0042969D01*
X0172756Y0042952D01*
X0172906Y0042931D01*
X0173056Y0042906D01*
X0173205Y0042878D01*
X0173353Y0042845D01*
X0173500Y0042809D01*
X0173647Y0042770D01*
X0173792Y0042726D01*
X0173936Y0042679D01*
X0174079Y0042628D01*
X0174220Y0042574D01*
X0174361Y0042516D01*
X0174499Y0042455D01*
X0174636Y0042390D01*
X0174772Y0042321D01*
X0174905Y0042250D01*
X0175037Y0042175D01*
X0175167Y0042096D01*
X0175294Y0042015D01*
X0175420Y0041930D01*
X0175544Y0041842D01*
X0175665Y0041751D01*
X0175784Y0041657D01*
X0175900Y0041559D01*
X0176014Y0041459D01*
X0176126Y0041357D01*
X0176234Y0041251D01*
X0176340Y0041143D01*
X0176444Y0041032D01*
X0176544Y0040918D01*
X0176642Y0040802D01*
X0176736Y0040683D01*
X0172000Y0031000D02*
X0171846Y0031002D01*
X0171692Y0031008D01*
X0171538Y0031018D01*
X0171384Y0031032D01*
X0171231Y0031049D01*
X0171079Y0031071D01*
X0170927Y0031097D01*
X0170775Y0031126D01*
X0170625Y0031160D01*
X0170475Y0031197D01*
X0170327Y0031238D01*
X0170179Y0031283D01*
X0170033Y0031332D01*
X0169888Y0031384D01*
X0169745Y0031440D01*
X0169602Y0031500D01*
X0169462Y0031563D01*
X0169323Y0031630D01*
X0169186Y0031701D01*
X0169051Y0031775D01*
X0168918Y0031852D01*
X0168786Y0031933D01*
X0168657Y0032017D01*
X0168530Y0032105D01*
X0168406Y0032196D01*
X0168284Y0032289D01*
X0168164Y0032387D01*
X0168047Y0032487D01*
X0167932Y0032590D01*
X0167820Y0032696D01*
X0167711Y0032804D01*
X0167605Y0032916D01*
X0167501Y0033030D01*
X0167401Y0033147D01*
X0167303Y0033266D01*
X0167209Y0033388D01*
X0167118Y0033513D01*
X0172000Y0031000D02*
X0172150Y0031002D01*
X0172301Y0031008D01*
X0172451Y0031017D01*
X0172600Y0031030D01*
X0172750Y0031047D01*
X0172899Y0031068D01*
X0173047Y0031092D01*
X0173195Y0031120D01*
X0173342Y0031152D01*
X0173488Y0031187D01*
X0173633Y0031227D01*
X0173777Y0031269D01*
X0173920Y0031316D01*
X0174062Y0031366D01*
X0174203Y0031419D01*
X0174342Y0031476D01*
X0174480Y0031536D01*
X0174616Y0031600D01*
X0174750Y0031667D01*
X0174883Y0031738D01*
X0175014Y0031812D01*
X0175143Y0031889D01*
X0175270Y0031970D01*
X0175395Y0032053D01*
X0175518Y0032140D01*
X0175639Y0032229D01*
X0175757Y0032322D01*
X0175873Y0032418D01*
X0175987Y0032516D01*
X0176098Y0032617D01*
X0176207Y0032722D01*
X0176312Y0032828D01*
X0176416Y0032938D01*
X0176516Y0033050D01*
X0176614Y0033164D01*
X0176708Y0033281D01*
X0176800Y0033400D01*
X0172000Y0043000D02*
X0171848Y0042998D01*
X0171697Y0042992D01*
X0171546Y0042983D01*
X0171394Y0042969D01*
X0171244Y0042952D01*
X0171094Y0042931D01*
X0170944Y0042906D01*
X0170795Y0042878D01*
X0170647Y0042845D01*
X0170500Y0042809D01*
X0170353Y0042770D01*
X0170208Y0042726D01*
X0170064Y0042679D01*
X0169921Y0042628D01*
X0169780Y0042574D01*
X0169639Y0042516D01*
X0169501Y0042455D01*
X0169364Y0042390D01*
X0169228Y0042321D01*
X0169095Y0042250D01*
X0168963Y0042175D01*
X0168833Y0042096D01*
X0168706Y0042015D01*
X0168580Y0041930D01*
X0168456Y0041842D01*
X0168335Y0041751D01*
X0168216Y0041657D01*
X0168100Y0041559D01*
X0167986Y0041459D01*
X0167874Y0041357D01*
X0167766Y0041251D01*
X0167660Y0041143D01*
X0167556Y0041032D01*
X0167456Y0040918D01*
X0167358Y0040802D01*
X0167264Y0040683D01*
X0167000Y0068500D02*
X0166500Y0069000D01*
X0157500Y0069000D01*
X0157000Y0068500D01*
X0156000Y0068500D01*
X0155940Y0068502D01*
X0155879Y0068507D01*
X0155820Y0068516D01*
X0155761Y0068529D01*
X0155702Y0068545D01*
X0155645Y0068565D01*
X0155590Y0068588D01*
X0155535Y0068615D01*
X0155483Y0068644D01*
X0155432Y0068677D01*
X0155383Y0068713D01*
X0155337Y0068751D01*
X0155293Y0068793D01*
X0155251Y0068837D01*
X0155213Y0068883D01*
X0155177Y0068932D01*
X0155144Y0068983D01*
X0155115Y0069035D01*
X0155088Y0069090D01*
X0155065Y0069145D01*
X0155045Y0069202D01*
X0155029Y0069261D01*
X0155016Y0069320D01*
X0155007Y0069379D01*
X0155002Y0069440D01*
X0155000Y0069500D01*
X0155000Y0074500D02*
X0155002Y0074560D01*
X0155007Y0074621D01*
X0155016Y0074680D01*
X0155029Y0074739D01*
X0155045Y0074798D01*
X0155065Y0074855D01*
X0155088Y0074910D01*
X0155115Y0074965D01*
X0155144Y0075017D01*
X0155177Y0075068D01*
X0155213Y0075117D01*
X0155251Y0075163D01*
X0155293Y0075207D01*
X0155337Y0075249D01*
X0155383Y0075287D01*
X0155432Y0075323D01*
X0155483Y0075356D01*
X0155535Y0075385D01*
X0155590Y0075412D01*
X0155645Y0075435D01*
X0155702Y0075455D01*
X0155761Y0075471D01*
X0155820Y0075484D01*
X0155879Y0075493D01*
X0155940Y0075498D01*
X0156000Y0075500D01*
X0157000Y0075500D01*
X0157500Y0075000D01*
X0166500Y0075000D01*
X0167000Y0075500D01*
X0168000Y0075500D01*
X0168060Y0075498D01*
X0168121Y0075493D01*
X0168180Y0075484D01*
X0168239Y0075471D01*
X0168298Y0075455D01*
X0168355Y0075435D01*
X0168410Y0075412D01*
X0168465Y0075385D01*
X0168517Y0075356D01*
X0168568Y0075323D01*
X0168617Y0075287D01*
X0168663Y0075249D01*
X0168707Y0075207D01*
X0168749Y0075163D01*
X0168787Y0075117D01*
X0168823Y0075068D01*
X0168856Y0075017D01*
X0168885Y0074965D01*
X0168912Y0074910D01*
X0168935Y0074855D01*
X0168955Y0074798D01*
X0168971Y0074739D01*
X0168984Y0074680D01*
X0168993Y0074621D01*
X0168998Y0074560D01*
X0169000Y0074500D01*
X0169000Y0069500D02*
X0168998Y0069440D01*
X0168993Y0069379D01*
X0168984Y0069320D01*
X0168971Y0069261D01*
X0168955Y0069202D01*
X0168935Y0069145D01*
X0168912Y0069090D01*
X0168885Y0069035D01*
X0168856Y0068983D01*
X0168823Y0068932D01*
X0168787Y0068883D01*
X0168749Y0068837D01*
X0168707Y0068793D01*
X0168663Y0068751D01*
X0168617Y0068713D01*
X0168568Y0068677D01*
X0168517Y0068644D01*
X0168465Y0068615D01*
X0168410Y0068588D01*
X0168355Y0068565D01*
X0168298Y0068545D01*
X0168239Y0068529D01*
X0168180Y0068516D01*
X0168121Y0068507D01*
X0168060Y0068502D01*
X0168000Y0068500D01*
X0167000Y0068500D01*
D11*
X0031764Y0059283D02*
X0031764Y0085661D01*
X0031764Y0085662D02*
X0031672Y0085664D01*
X0031580Y0085670D01*
X0031489Y0085680D01*
X0031398Y0085693D01*
X0031308Y0085711D01*
X0031218Y0085732D01*
X0031130Y0085757D01*
X0031043Y0085786D01*
X0030957Y0085818D01*
X0030872Y0085854D01*
X0030789Y0085894D01*
X0030708Y0085937D01*
X0030629Y0085983D01*
X0030552Y0086033D01*
X0030477Y0086086D01*
X0030404Y0086143D01*
X0030334Y0086202D01*
X0030266Y0086264D01*
X0030201Y0086329D01*
X0030139Y0086397D01*
X0030080Y0086467D01*
X0030023Y0086540D01*
X0029970Y0086615D01*
X0029920Y0086692D01*
X0029874Y0086771D01*
X0029831Y0086852D01*
X0029791Y0086935D01*
X0029755Y0087020D01*
X0029723Y0087106D01*
X0029694Y0087193D01*
X0029669Y0087281D01*
X0029648Y0087371D01*
X0029630Y0087461D01*
X0029617Y0087552D01*
X0029607Y0087643D01*
X0029601Y0087735D01*
X0029599Y0087827D01*
X0029601Y0087919D01*
X0029607Y0088011D01*
X0029617Y0088102D01*
X0029630Y0088193D01*
X0029648Y0088283D01*
X0029669Y0088373D01*
X0029694Y0088461D01*
X0029723Y0088548D01*
X0029755Y0088634D01*
X0029791Y0088719D01*
X0029831Y0088802D01*
X0029874Y0088883D01*
X0029920Y0088962D01*
X0029970Y0089039D01*
X0030023Y0089114D01*
X0030080Y0089187D01*
X0030139Y0089257D01*
X0030201Y0089325D01*
X0030266Y0089390D01*
X0030334Y0089452D01*
X0030404Y0089511D01*
X0030477Y0089568D01*
X0030552Y0089621D01*
X0030629Y0089671D01*
X0030708Y0089717D01*
X0030789Y0089760D01*
X0030872Y0089800D01*
X0030957Y0089836D01*
X0031043Y0089868D01*
X0031130Y0089897D01*
X0031218Y0089922D01*
X0031308Y0089943D01*
X0031398Y0089961D01*
X0031489Y0089974D01*
X0031580Y0089984D01*
X0031672Y0089990D01*
X0031764Y0089992D01*
X0031764Y0096291D01*
X0052236Y0096291D01*
X0052236Y0059283D01*
X0031764Y0059283D01*
X0031370Y0064008D02*
X0028614Y0064008D01*
X0029007Y0064402D02*
X0028919Y0064269D01*
X0028828Y0064138D01*
X0028734Y0064009D01*
X0028636Y0063882D01*
X0028536Y0063758D01*
X0028432Y0063637D01*
X0028326Y0063518D01*
X0028216Y0063401D01*
X0028104Y0063287D01*
X0027989Y0063176D01*
X0027872Y0063068D01*
X0027752Y0062963D01*
X0027629Y0062861D01*
X0027504Y0062762D01*
X0027376Y0062666D01*
X0027246Y0062573D01*
X0027114Y0062483D01*
X0026980Y0062396D01*
X0026844Y0062313D01*
X0026705Y0062233D01*
X0026565Y0062156D01*
X0026423Y0062083D01*
X0026280Y0062014D01*
X0026134Y0061948D01*
X0025987Y0061885D01*
X0025839Y0061826D01*
X0025689Y0061771D01*
X0025538Y0061719D01*
X0025385Y0061671D01*
X0025232Y0061627D01*
X0025077Y0061587D01*
X0024922Y0061550D01*
X0024766Y0061517D01*
X0024609Y0061488D01*
X0024451Y0061463D01*
X0024293Y0061442D01*
X0024134Y0061424D01*
X0023975Y0061411D01*
X0023815Y0061401D01*
X0023656Y0061395D01*
X0023496Y0061393D01*
X0023336Y0061395D01*
X0023177Y0061401D01*
X0023017Y0061411D01*
X0022858Y0061424D01*
X0022699Y0061442D01*
X0022541Y0061463D01*
X0022383Y0061488D01*
X0022226Y0061517D01*
X0022070Y0061550D01*
X0021915Y0061587D01*
X0021760Y0061627D01*
X0021607Y0061671D01*
X0021454Y0061719D01*
X0021303Y0061771D01*
X0021153Y0061826D01*
X0021005Y0061885D01*
X0020858Y0061948D01*
X0020712Y0062014D01*
X0020569Y0062083D01*
X0020427Y0062156D01*
X0020287Y0062233D01*
X0020148Y0062313D01*
X0020012Y0062396D01*
X0019878Y0062483D01*
X0019746Y0062573D01*
X0019616Y0062666D01*
X0019488Y0062762D01*
X0019363Y0062861D01*
X0019240Y0062963D01*
X0019120Y0063068D01*
X0019003Y0063176D01*
X0018888Y0063287D01*
X0018776Y0063401D01*
X0018666Y0063518D01*
X0018560Y0063637D01*
X0018456Y0063758D01*
X0018356Y0063882D01*
X0018258Y0064009D01*
X0018164Y0064138D01*
X0018073Y0064269D01*
X0017985Y0064402D01*
X0017984Y0064402D02*
X0017984Y0071488D01*
X0017985Y0071488D02*
X0018073Y0071621D01*
X0018164Y0071752D01*
X0018258Y0071881D01*
X0018356Y0072008D01*
X0018456Y0072132D01*
X0018560Y0072253D01*
X0018666Y0072372D01*
X0018776Y0072489D01*
X0018888Y0072603D01*
X0019003Y0072714D01*
X0019120Y0072822D01*
X0019240Y0072927D01*
X0019363Y0073029D01*
X0019488Y0073128D01*
X0019616Y0073224D01*
X0019746Y0073317D01*
X0019878Y0073407D01*
X0020012Y0073494D01*
X0020148Y0073577D01*
X0020287Y0073657D01*
X0020427Y0073734D01*
X0020569Y0073807D01*
X0020712Y0073876D01*
X0020858Y0073942D01*
X0021005Y0074005D01*
X0021153Y0074064D01*
X0021303Y0074119D01*
X0021454Y0074171D01*
X0021607Y0074219D01*
X0021760Y0074263D01*
X0021915Y0074303D01*
X0022070Y0074340D01*
X0022226Y0074373D01*
X0022383Y0074402D01*
X0022541Y0074427D01*
X0022699Y0074448D01*
X0022858Y0074466D01*
X0023017Y0074479D01*
X0023177Y0074489D01*
X0023336Y0074495D01*
X0023496Y0074497D01*
X0023656Y0074495D01*
X0023815Y0074489D01*
X0023975Y0074479D01*
X0024134Y0074466D01*
X0024293Y0074448D01*
X0024451Y0074427D01*
X0024609Y0074402D01*
X0024766Y0074373D01*
X0024922Y0074340D01*
X0025077Y0074303D01*
X0025232Y0074263D01*
X0025385Y0074219D01*
X0025538Y0074171D01*
X0025689Y0074119D01*
X0025839Y0074064D01*
X0025987Y0074005D01*
X0026134Y0073942D01*
X0026280Y0073876D01*
X0026423Y0073807D01*
X0026565Y0073734D01*
X0026705Y0073657D01*
X0026844Y0073577D01*
X0026980Y0073494D01*
X0027114Y0073407D01*
X0027246Y0073317D01*
X0027376Y0073224D01*
X0027504Y0073128D01*
X0027629Y0073029D01*
X0027752Y0072927D01*
X0027872Y0072822D01*
X0027989Y0072714D01*
X0028104Y0072603D01*
X0028216Y0072489D01*
X0028326Y0072372D01*
X0028432Y0072253D01*
X0028536Y0072132D01*
X0028636Y0072008D01*
X0028734Y0071881D01*
X0028828Y0071752D01*
X0028919Y0071621D01*
X0029007Y0071488D01*
X0028614Y0071882D02*
X0031370Y0071882D01*
X0052630Y0071882D02*
X0055386Y0071882D01*
X0054993Y0064402D02*
X0055081Y0064269D01*
X0055172Y0064138D01*
X0055266Y0064009D01*
X0055364Y0063882D01*
X0055464Y0063758D01*
X0055568Y0063637D01*
X0055674Y0063518D01*
X0055784Y0063401D01*
X0055896Y0063287D01*
X0056011Y0063176D01*
X0056128Y0063068D01*
X0056248Y0062963D01*
X0056371Y0062861D01*
X0056496Y0062762D01*
X0056624Y0062666D01*
X0056754Y0062573D01*
X0056886Y0062483D01*
X0057020Y0062396D01*
X0057156Y0062313D01*
X0057295Y0062233D01*
X0057435Y0062156D01*
X0057577Y0062083D01*
X0057720Y0062014D01*
X0057866Y0061948D01*
X0058013Y0061885D01*
X0058161Y0061826D01*
X0058311Y0061771D01*
X0058462Y0061719D01*
X0058615Y0061671D01*
X0058768Y0061627D01*
X0058923Y0061587D01*
X0059078Y0061550D01*
X0059234Y0061517D01*
X0059391Y0061488D01*
X0059549Y0061463D01*
X0059707Y0061442D01*
X0059866Y0061424D01*
X0060025Y0061411D01*
X0060185Y0061401D01*
X0060344Y0061395D01*
X0060504Y0061393D01*
X0060664Y0061395D01*
X0060823Y0061401D01*
X0060983Y0061411D01*
X0061142Y0061424D01*
X0061301Y0061442D01*
X0061459Y0061463D01*
X0061617Y0061488D01*
X0061774Y0061517D01*
X0061930Y0061550D01*
X0062085Y0061587D01*
X0062240Y0061627D01*
X0062393Y0061671D01*
X0062546Y0061719D01*
X0062697Y0061771D01*
X0062847Y0061826D01*
X0062995Y0061885D01*
X0063142Y0061948D01*
X0063288Y0062014D01*
X0063431Y0062083D01*
X0063573Y0062156D01*
X0063713Y0062233D01*
X0063852Y0062313D01*
X0063988Y0062396D01*
X0064122Y0062483D01*
X0064254Y0062573D01*
X0064384Y0062666D01*
X0064512Y0062762D01*
X0064637Y0062861D01*
X0064760Y0062963D01*
X0064880Y0063068D01*
X0064997Y0063176D01*
X0065112Y0063287D01*
X0065224Y0063401D01*
X0065334Y0063518D01*
X0065440Y0063637D01*
X0065544Y0063758D01*
X0065644Y0063882D01*
X0065742Y0064009D01*
X0065836Y0064138D01*
X0065927Y0064269D01*
X0066015Y0064402D01*
X0066016Y0064402D02*
X0066016Y0071488D01*
X0066015Y0071488D02*
X0065927Y0071621D01*
X0065836Y0071752D01*
X0065742Y0071881D01*
X0065644Y0072008D01*
X0065544Y0072132D01*
X0065440Y0072253D01*
X0065334Y0072372D01*
X0065224Y0072489D01*
X0065112Y0072603D01*
X0064997Y0072714D01*
X0064880Y0072822D01*
X0064760Y0072927D01*
X0064637Y0073029D01*
X0064512Y0073128D01*
X0064384Y0073224D01*
X0064254Y0073317D01*
X0064122Y0073407D01*
X0063988Y0073494D01*
X0063852Y0073577D01*
X0063713Y0073657D01*
X0063573Y0073734D01*
X0063431Y0073807D01*
X0063288Y0073876D01*
X0063142Y0073942D01*
X0062995Y0074005D01*
X0062847Y0074064D01*
X0062697Y0074119D01*
X0062546Y0074171D01*
X0062393Y0074219D01*
X0062240Y0074263D01*
X0062085Y0074303D01*
X0061930Y0074340D01*
X0061774Y0074373D01*
X0061617Y0074402D01*
X0061459Y0074427D01*
X0061301Y0074448D01*
X0061142Y0074466D01*
X0060983Y0074479D01*
X0060823Y0074489D01*
X0060664Y0074495D01*
X0060504Y0074497D01*
X0060344Y0074495D01*
X0060185Y0074489D01*
X0060025Y0074479D01*
X0059866Y0074466D01*
X0059707Y0074448D01*
X0059549Y0074427D01*
X0059391Y0074402D01*
X0059234Y0074373D01*
X0059078Y0074340D01*
X0058923Y0074303D01*
X0058768Y0074263D01*
X0058615Y0074219D01*
X0058462Y0074171D01*
X0058311Y0074119D01*
X0058161Y0074064D01*
X0058013Y0074005D01*
X0057866Y0073942D01*
X0057720Y0073876D01*
X0057577Y0073807D01*
X0057435Y0073734D01*
X0057295Y0073657D01*
X0057156Y0073577D01*
X0057020Y0073494D01*
X0056886Y0073407D01*
X0056754Y0073317D01*
X0056624Y0073224D01*
X0056496Y0073128D01*
X0056371Y0073029D01*
X0056248Y0072927D01*
X0056128Y0072822D01*
X0056011Y0072714D01*
X0055896Y0072603D01*
X0055784Y0072489D01*
X0055674Y0072372D01*
X0055568Y0072253D01*
X0055464Y0072132D01*
X0055364Y0072008D01*
X0055266Y0071881D01*
X0055172Y0071752D01*
X0055081Y0071621D01*
X0054993Y0071488D01*
X0055386Y0064008D02*
X0052630Y0064008D01*
X0079000Y0071000D02*
X0082000Y0071000D01*
X0085000Y0071000D01*
X0085000Y0073000D02*
X0082000Y0073000D01*
X0079000Y0073000D01*
X0119000Y0053000D02*
X0122000Y0053000D01*
X0125000Y0053000D01*
X0125000Y0051000D02*
X0122000Y0051000D01*
X0119000Y0051000D01*
X0139000Y0043000D02*
X0142000Y0043000D01*
X0145000Y0043000D01*
X0145000Y0041000D02*
X0142000Y0041000D01*
X0139000Y0041000D01*
X0172000Y0029000D02*
X0172192Y0029002D01*
X0172384Y0029009D01*
X0172576Y0029021D01*
X0172768Y0029037D01*
X0172959Y0029058D01*
X0173149Y0029083D01*
X0173339Y0029113D01*
X0173528Y0029147D01*
X0173716Y0029186D01*
X0173903Y0029230D01*
X0174089Y0029278D01*
X0174274Y0029330D01*
X0174458Y0029387D01*
X0174640Y0029448D01*
X0174820Y0029514D01*
X0174999Y0029584D01*
X0175177Y0029658D01*
X0175352Y0029736D01*
X0175526Y0029819D01*
X0175697Y0029906D01*
X0175866Y0029996D01*
X0176033Y0030091D01*
X0176198Y0030190D01*
X0176361Y0030293D01*
X0176520Y0030400D01*
X0176678Y0030510D01*
X0176832Y0030624D01*
X0176984Y0030742D01*
X0177133Y0030864D01*
X0177279Y0030989D01*
X0177421Y0031117D01*
X0177561Y0031249D01*
X0177698Y0031384D01*
X0177831Y0031523D01*
X0177961Y0031664D01*
X0178087Y0031809D01*
X0178210Y0031957D01*
X0178329Y0032107D01*
X0178445Y0032261D01*
X0178557Y0032417D01*
X0178665Y0032576D01*
X0178770Y0032737D01*
X0178870Y0032901D01*
X0178966Y0033067D01*
X0179059Y0033235D01*
X0178946Y0040969D02*
X0178847Y0041138D01*
X0178743Y0041304D01*
X0178636Y0041468D01*
X0178525Y0041629D01*
X0178410Y0041787D01*
X0178291Y0041942D01*
X0178168Y0042095D01*
X0178042Y0042244D01*
X0177912Y0042390D01*
X0177778Y0042533D01*
X0177641Y0042673D01*
X0177501Y0042809D01*
X0177357Y0042942D01*
X0177210Y0043071D01*
X0177060Y0043197D01*
X0176907Y0043318D01*
X0176751Y0043437D01*
X0176592Y0043551D01*
X0176431Y0043661D01*
X0176266Y0043767D01*
X0176100Y0043870D01*
X0175930Y0043968D01*
X0175759Y0044062D01*
X0175585Y0044152D01*
X0175409Y0044237D01*
X0175231Y0044319D01*
X0175051Y0044395D01*
X0174869Y0044468D01*
X0174686Y0044536D01*
X0174501Y0044599D01*
X0174314Y0044658D01*
X0174126Y0044712D01*
X0173937Y0044762D01*
X0173747Y0044807D01*
X0173555Y0044847D01*
X0173363Y0044883D01*
X0173170Y0044914D01*
X0172976Y0044940D01*
X0172781Y0044962D01*
X0172586Y0044978D01*
X0172391Y0044990D01*
X0172195Y0044998D01*
X0172000Y0045000D01*
X0171807Y0044998D01*
X0171614Y0044991D01*
X0171422Y0044979D01*
X0171229Y0044963D01*
X0171037Y0044942D01*
X0170846Y0044916D01*
X0170656Y0044886D01*
X0170466Y0044851D01*
X0170277Y0044812D01*
X0170089Y0044768D01*
X0169902Y0044720D01*
X0169716Y0044667D01*
X0169532Y0044610D01*
X0169349Y0044548D01*
X0169168Y0044482D01*
X0168988Y0044411D01*
X0168810Y0044337D01*
X0168634Y0044258D01*
X0168460Y0044174D01*
X0168288Y0044087D01*
X0168118Y0043995D01*
X0167951Y0043899D01*
X0167785Y0043800D01*
X0167622Y0043696D01*
X0167462Y0043589D01*
X0167305Y0043477D01*
X0167150Y0043362D01*
X0166998Y0043243D01*
X0166849Y0043121D01*
X0166702Y0042995D01*
X0166559Y0042865D01*
X0166419Y0042732D01*
X0166283Y0042596D01*
X0166149Y0042456D01*
X0166020Y0042314D01*
X0165893Y0042168D01*
X0165854Y0031878D02*
X0165981Y0031730D01*
X0166111Y0031585D01*
X0166244Y0031444D01*
X0166381Y0031305D01*
X0166521Y0031170D01*
X0166665Y0031039D01*
X0166812Y0030911D01*
X0166961Y0030786D01*
X0167114Y0030665D01*
X0167269Y0030548D01*
X0167428Y0030435D01*
X0167589Y0030326D01*
X0167753Y0030221D01*
X0167919Y0030119D01*
X0168088Y0030022D01*
X0168258Y0029929D01*
X0168432Y0029840D01*
X0168607Y0029755D01*
X0168784Y0029675D01*
X0168963Y0029599D01*
X0169144Y0029527D01*
X0169327Y0029460D01*
X0169511Y0029397D01*
X0169697Y0029339D01*
X0169884Y0029285D01*
X0170072Y0029236D01*
X0170262Y0029191D01*
X0170452Y0029151D01*
X0170644Y0029116D01*
X0170836Y0029085D01*
X0171029Y0029059D01*
X0171223Y0029038D01*
X0171417Y0029021D01*
X0171611Y0029009D01*
X0171805Y0029002D01*
X0172000Y0029000D01*
M02*
