G75*
%MOIN*%
%OFA0B0*%
%FSLAX25Y25*%
%IPPOS*%
%LPD*%
%AMOC8*
5,1,8,0,0,1.08239X$1,22.5*
%
%ADD10C,0.00000*%
%ADD11OC8,0.06300*%
%ADD12OC8,0.05200*%
%ADD13R,0.04724X0.02165*%
%ADD14R,0.08268X0.08268*%
%ADD15C,0.02000*%
%ADD16C,0.02978*%
D10*
X0002000Y0002000D02*
X0002000Y0116961D01*
X0210701Y0116961D01*
X0210701Y0002000D01*
X0002000Y0002000D01*
X0017590Y0067984D02*
X0017592Y0068137D01*
X0017598Y0068291D01*
X0017608Y0068444D01*
X0017622Y0068596D01*
X0017640Y0068749D01*
X0017662Y0068900D01*
X0017687Y0069051D01*
X0017717Y0069202D01*
X0017751Y0069352D01*
X0017788Y0069500D01*
X0017829Y0069648D01*
X0017874Y0069794D01*
X0017923Y0069940D01*
X0017976Y0070084D01*
X0018032Y0070226D01*
X0018092Y0070367D01*
X0018156Y0070507D01*
X0018223Y0070645D01*
X0018294Y0070781D01*
X0018369Y0070915D01*
X0018446Y0071047D01*
X0018528Y0071177D01*
X0018612Y0071305D01*
X0018700Y0071431D01*
X0018791Y0071554D01*
X0018885Y0071675D01*
X0018983Y0071793D01*
X0019083Y0071909D01*
X0019187Y0072022D01*
X0019293Y0072133D01*
X0019402Y0072241D01*
X0019514Y0072346D01*
X0019628Y0072447D01*
X0019746Y0072546D01*
X0019865Y0072642D01*
X0019987Y0072735D01*
X0020112Y0072824D01*
X0020239Y0072911D01*
X0020368Y0072993D01*
X0020499Y0073073D01*
X0020632Y0073149D01*
X0020767Y0073222D01*
X0020904Y0073291D01*
X0021043Y0073356D01*
X0021183Y0073418D01*
X0021325Y0073476D01*
X0021468Y0073531D01*
X0021613Y0073582D01*
X0021759Y0073629D01*
X0021906Y0073672D01*
X0022054Y0073711D01*
X0022203Y0073747D01*
X0022353Y0073778D01*
X0022504Y0073806D01*
X0022655Y0073830D01*
X0022808Y0073850D01*
X0022960Y0073866D01*
X0023113Y0073878D01*
X0023266Y0073886D01*
X0023419Y0073890D01*
X0023573Y0073890D01*
X0023726Y0073886D01*
X0023879Y0073878D01*
X0024032Y0073866D01*
X0024184Y0073850D01*
X0024337Y0073830D01*
X0024488Y0073806D01*
X0024639Y0073778D01*
X0024789Y0073747D01*
X0024938Y0073711D01*
X0025086Y0073672D01*
X0025233Y0073629D01*
X0025379Y0073582D01*
X0025524Y0073531D01*
X0025667Y0073476D01*
X0025809Y0073418D01*
X0025949Y0073356D01*
X0026088Y0073291D01*
X0026225Y0073222D01*
X0026360Y0073149D01*
X0026493Y0073073D01*
X0026624Y0072993D01*
X0026753Y0072911D01*
X0026880Y0072824D01*
X0027005Y0072735D01*
X0027127Y0072642D01*
X0027246Y0072546D01*
X0027364Y0072447D01*
X0027478Y0072346D01*
X0027590Y0072241D01*
X0027699Y0072133D01*
X0027805Y0072022D01*
X0027909Y0071909D01*
X0028009Y0071793D01*
X0028107Y0071675D01*
X0028201Y0071554D01*
X0028292Y0071431D01*
X0028380Y0071305D01*
X0028464Y0071177D01*
X0028546Y0071047D01*
X0028623Y0070915D01*
X0028698Y0070781D01*
X0028769Y0070645D01*
X0028836Y0070507D01*
X0028900Y0070367D01*
X0028960Y0070226D01*
X0029016Y0070084D01*
X0029069Y0069940D01*
X0029118Y0069794D01*
X0029163Y0069648D01*
X0029204Y0069500D01*
X0029241Y0069352D01*
X0029275Y0069202D01*
X0029305Y0069051D01*
X0029330Y0068900D01*
X0029352Y0068749D01*
X0029370Y0068596D01*
X0029384Y0068444D01*
X0029394Y0068291D01*
X0029400Y0068137D01*
X0029402Y0067984D01*
X0029400Y0067831D01*
X0029394Y0067677D01*
X0029384Y0067524D01*
X0029370Y0067372D01*
X0029352Y0067219D01*
X0029330Y0067068D01*
X0029305Y0066917D01*
X0029275Y0066766D01*
X0029241Y0066616D01*
X0029204Y0066468D01*
X0029163Y0066320D01*
X0029118Y0066174D01*
X0029069Y0066028D01*
X0029016Y0065884D01*
X0028960Y0065742D01*
X0028900Y0065601D01*
X0028836Y0065461D01*
X0028769Y0065323D01*
X0028698Y0065187D01*
X0028623Y0065053D01*
X0028546Y0064921D01*
X0028464Y0064791D01*
X0028380Y0064663D01*
X0028292Y0064537D01*
X0028201Y0064414D01*
X0028107Y0064293D01*
X0028009Y0064175D01*
X0027909Y0064059D01*
X0027805Y0063946D01*
X0027699Y0063835D01*
X0027590Y0063727D01*
X0027478Y0063622D01*
X0027364Y0063521D01*
X0027246Y0063422D01*
X0027127Y0063326D01*
X0027005Y0063233D01*
X0026880Y0063144D01*
X0026753Y0063057D01*
X0026624Y0062975D01*
X0026493Y0062895D01*
X0026360Y0062819D01*
X0026225Y0062746D01*
X0026088Y0062677D01*
X0025949Y0062612D01*
X0025809Y0062550D01*
X0025667Y0062492D01*
X0025524Y0062437D01*
X0025379Y0062386D01*
X0025233Y0062339D01*
X0025086Y0062296D01*
X0024938Y0062257D01*
X0024789Y0062221D01*
X0024639Y0062190D01*
X0024488Y0062162D01*
X0024337Y0062138D01*
X0024184Y0062118D01*
X0024032Y0062102D01*
X0023879Y0062090D01*
X0023726Y0062082D01*
X0023573Y0062078D01*
X0023419Y0062078D01*
X0023266Y0062082D01*
X0023113Y0062090D01*
X0022960Y0062102D01*
X0022808Y0062118D01*
X0022655Y0062138D01*
X0022504Y0062162D01*
X0022353Y0062190D01*
X0022203Y0062221D01*
X0022054Y0062257D01*
X0021906Y0062296D01*
X0021759Y0062339D01*
X0021613Y0062386D01*
X0021468Y0062437D01*
X0021325Y0062492D01*
X0021183Y0062550D01*
X0021043Y0062612D01*
X0020904Y0062677D01*
X0020767Y0062746D01*
X0020632Y0062819D01*
X0020499Y0062895D01*
X0020368Y0062975D01*
X0020239Y0063057D01*
X0020112Y0063144D01*
X0019987Y0063233D01*
X0019865Y0063326D01*
X0019746Y0063422D01*
X0019628Y0063521D01*
X0019514Y0063622D01*
X0019402Y0063727D01*
X0019293Y0063835D01*
X0019187Y0063946D01*
X0019083Y0064059D01*
X0018983Y0064175D01*
X0018885Y0064293D01*
X0018791Y0064414D01*
X0018700Y0064537D01*
X0018612Y0064663D01*
X0018528Y0064791D01*
X0018446Y0064921D01*
X0018369Y0065053D01*
X0018294Y0065187D01*
X0018223Y0065323D01*
X0018156Y0065461D01*
X0018092Y0065601D01*
X0018032Y0065742D01*
X0017976Y0065884D01*
X0017923Y0066028D01*
X0017874Y0066174D01*
X0017829Y0066320D01*
X0017788Y0066468D01*
X0017751Y0066616D01*
X0017717Y0066766D01*
X0017687Y0066917D01*
X0017662Y0067068D01*
X0017640Y0067219D01*
X0017622Y0067372D01*
X0017608Y0067524D01*
X0017598Y0067677D01*
X0017592Y0067831D01*
X0017590Y0067984D01*
X0054598Y0067984D02*
X0054600Y0068137D01*
X0054606Y0068291D01*
X0054616Y0068444D01*
X0054630Y0068596D01*
X0054648Y0068749D01*
X0054670Y0068900D01*
X0054695Y0069051D01*
X0054725Y0069202D01*
X0054759Y0069352D01*
X0054796Y0069500D01*
X0054837Y0069648D01*
X0054882Y0069794D01*
X0054931Y0069940D01*
X0054984Y0070084D01*
X0055040Y0070226D01*
X0055100Y0070367D01*
X0055164Y0070507D01*
X0055231Y0070645D01*
X0055302Y0070781D01*
X0055377Y0070915D01*
X0055454Y0071047D01*
X0055536Y0071177D01*
X0055620Y0071305D01*
X0055708Y0071431D01*
X0055799Y0071554D01*
X0055893Y0071675D01*
X0055991Y0071793D01*
X0056091Y0071909D01*
X0056195Y0072022D01*
X0056301Y0072133D01*
X0056410Y0072241D01*
X0056522Y0072346D01*
X0056636Y0072447D01*
X0056754Y0072546D01*
X0056873Y0072642D01*
X0056995Y0072735D01*
X0057120Y0072824D01*
X0057247Y0072911D01*
X0057376Y0072993D01*
X0057507Y0073073D01*
X0057640Y0073149D01*
X0057775Y0073222D01*
X0057912Y0073291D01*
X0058051Y0073356D01*
X0058191Y0073418D01*
X0058333Y0073476D01*
X0058476Y0073531D01*
X0058621Y0073582D01*
X0058767Y0073629D01*
X0058914Y0073672D01*
X0059062Y0073711D01*
X0059211Y0073747D01*
X0059361Y0073778D01*
X0059512Y0073806D01*
X0059663Y0073830D01*
X0059816Y0073850D01*
X0059968Y0073866D01*
X0060121Y0073878D01*
X0060274Y0073886D01*
X0060427Y0073890D01*
X0060581Y0073890D01*
X0060734Y0073886D01*
X0060887Y0073878D01*
X0061040Y0073866D01*
X0061192Y0073850D01*
X0061345Y0073830D01*
X0061496Y0073806D01*
X0061647Y0073778D01*
X0061797Y0073747D01*
X0061946Y0073711D01*
X0062094Y0073672D01*
X0062241Y0073629D01*
X0062387Y0073582D01*
X0062532Y0073531D01*
X0062675Y0073476D01*
X0062817Y0073418D01*
X0062957Y0073356D01*
X0063096Y0073291D01*
X0063233Y0073222D01*
X0063368Y0073149D01*
X0063501Y0073073D01*
X0063632Y0072993D01*
X0063761Y0072911D01*
X0063888Y0072824D01*
X0064013Y0072735D01*
X0064135Y0072642D01*
X0064254Y0072546D01*
X0064372Y0072447D01*
X0064486Y0072346D01*
X0064598Y0072241D01*
X0064707Y0072133D01*
X0064813Y0072022D01*
X0064917Y0071909D01*
X0065017Y0071793D01*
X0065115Y0071675D01*
X0065209Y0071554D01*
X0065300Y0071431D01*
X0065388Y0071305D01*
X0065472Y0071177D01*
X0065554Y0071047D01*
X0065631Y0070915D01*
X0065706Y0070781D01*
X0065777Y0070645D01*
X0065844Y0070507D01*
X0065908Y0070367D01*
X0065968Y0070226D01*
X0066024Y0070084D01*
X0066077Y0069940D01*
X0066126Y0069794D01*
X0066171Y0069648D01*
X0066212Y0069500D01*
X0066249Y0069352D01*
X0066283Y0069202D01*
X0066313Y0069051D01*
X0066338Y0068900D01*
X0066360Y0068749D01*
X0066378Y0068596D01*
X0066392Y0068444D01*
X0066402Y0068291D01*
X0066408Y0068137D01*
X0066410Y0067984D01*
X0066408Y0067831D01*
X0066402Y0067677D01*
X0066392Y0067524D01*
X0066378Y0067372D01*
X0066360Y0067219D01*
X0066338Y0067068D01*
X0066313Y0066917D01*
X0066283Y0066766D01*
X0066249Y0066616D01*
X0066212Y0066468D01*
X0066171Y0066320D01*
X0066126Y0066174D01*
X0066077Y0066028D01*
X0066024Y0065884D01*
X0065968Y0065742D01*
X0065908Y0065601D01*
X0065844Y0065461D01*
X0065777Y0065323D01*
X0065706Y0065187D01*
X0065631Y0065053D01*
X0065554Y0064921D01*
X0065472Y0064791D01*
X0065388Y0064663D01*
X0065300Y0064537D01*
X0065209Y0064414D01*
X0065115Y0064293D01*
X0065017Y0064175D01*
X0064917Y0064059D01*
X0064813Y0063946D01*
X0064707Y0063835D01*
X0064598Y0063727D01*
X0064486Y0063622D01*
X0064372Y0063521D01*
X0064254Y0063422D01*
X0064135Y0063326D01*
X0064013Y0063233D01*
X0063888Y0063144D01*
X0063761Y0063057D01*
X0063632Y0062975D01*
X0063501Y0062895D01*
X0063368Y0062819D01*
X0063233Y0062746D01*
X0063096Y0062677D01*
X0062957Y0062612D01*
X0062817Y0062550D01*
X0062675Y0062492D01*
X0062532Y0062437D01*
X0062387Y0062386D01*
X0062241Y0062339D01*
X0062094Y0062296D01*
X0061946Y0062257D01*
X0061797Y0062221D01*
X0061647Y0062190D01*
X0061496Y0062162D01*
X0061345Y0062138D01*
X0061192Y0062118D01*
X0061040Y0062102D01*
X0060887Y0062090D01*
X0060734Y0062082D01*
X0060581Y0062078D01*
X0060427Y0062078D01*
X0060274Y0062082D01*
X0060121Y0062090D01*
X0059968Y0062102D01*
X0059816Y0062118D01*
X0059663Y0062138D01*
X0059512Y0062162D01*
X0059361Y0062190D01*
X0059211Y0062221D01*
X0059062Y0062257D01*
X0058914Y0062296D01*
X0058767Y0062339D01*
X0058621Y0062386D01*
X0058476Y0062437D01*
X0058333Y0062492D01*
X0058191Y0062550D01*
X0058051Y0062612D01*
X0057912Y0062677D01*
X0057775Y0062746D01*
X0057640Y0062819D01*
X0057507Y0062895D01*
X0057376Y0062975D01*
X0057247Y0063057D01*
X0057120Y0063144D01*
X0056995Y0063233D01*
X0056873Y0063326D01*
X0056754Y0063422D01*
X0056636Y0063521D01*
X0056522Y0063622D01*
X0056410Y0063727D01*
X0056301Y0063835D01*
X0056195Y0063946D01*
X0056091Y0064059D01*
X0055991Y0064175D01*
X0055893Y0064293D01*
X0055799Y0064414D01*
X0055708Y0064537D01*
X0055620Y0064663D01*
X0055536Y0064791D01*
X0055454Y0064921D01*
X0055377Y0065053D01*
X0055302Y0065187D01*
X0055231Y0065323D01*
X0055164Y0065461D01*
X0055100Y0065601D01*
X0055040Y0065742D01*
X0054984Y0065884D01*
X0054931Y0066028D01*
X0054882Y0066174D01*
X0054837Y0066320D01*
X0054796Y0066468D01*
X0054759Y0066616D01*
X0054725Y0066766D01*
X0054695Y0066917D01*
X0054670Y0067068D01*
X0054648Y0067219D01*
X0054630Y0067372D01*
X0054616Y0067524D01*
X0054606Y0067677D01*
X0054600Y0067831D01*
X0054598Y0067984D01*
D11*
X0082000Y0067000D03*
X0082000Y0077000D03*
X0122000Y0057000D03*
X0122000Y0047000D03*
X0142000Y0047000D03*
X0142000Y0037000D03*
D12*
X0167000Y0037000D03*
X0177000Y0037000D03*
X0172000Y0072000D03*
X0152000Y0072000D03*
D13*
X0122118Y0073260D03*
X0111882Y0073260D03*
X0111882Y0077000D03*
X0111882Y0080740D03*
X0122118Y0080740D03*
D14*
X0042000Y0087827D03*
X0042000Y0066173D03*
D15*
X0046892Y0066173D01*
X0055987Y0057079D01*
X0072079Y0057079D01*
X0082000Y0067000D01*
X0092000Y0067000D01*
X0112000Y0047000D01*
X0122000Y0047000D01*
X0132000Y0047000D01*
X0142000Y0037000D01*
X0167000Y0037000D01*
X0167000Y0037000D01*
X0167000Y0041600D01*
X0168024Y0041600D01*
X0169000Y0042576D01*
X0169000Y0062400D01*
X0168024Y0062400D01*
X0162400Y0068024D01*
X0162400Y0075976D01*
X0168024Y0081600D01*
X0175976Y0081600D01*
X0181600Y0075976D01*
X0181600Y0073714D01*
X0183782Y0071532D01*
X0185000Y0068591D01*
X0185000Y0042576D01*
X0186600Y0040976D01*
X0186600Y0033024D01*
X0180976Y0027400D01*
X0173024Y0027400D01*
X0168024Y0032400D01*
X0167000Y0032400D01*
X0167000Y0037000D01*
X0167000Y0037000D01*
X0167000Y0037000D01*
X0162400Y0037000D01*
X0162400Y0038905D01*
X0165095Y0041600D01*
X0167000Y0041600D01*
X0167000Y0037000D01*
X0167000Y0032400D01*
X0165095Y0032400D01*
X0162400Y0035095D01*
X0162400Y0037000D01*
X0167000Y0037000D01*
X0167000Y0036948D02*
X0167000Y0036948D01*
X0167000Y0038946D02*
X0167000Y0038946D01*
X0167000Y0040945D02*
X0167000Y0040945D01*
X0164440Y0040945D02*
X0150299Y0040945D01*
X0152150Y0042796D02*
X0152150Y0051204D01*
X0150000Y0053354D01*
X0150000Y0059131D01*
X0150226Y0059677D01*
X0151532Y0060218D01*
X0153714Y0062400D01*
X0155976Y0062400D01*
X0161600Y0068024D01*
X0161600Y0075976D01*
X0155976Y0081600D01*
X0149283Y0081600D01*
X0149197Y0081809D01*
X0146809Y0084197D01*
X0143689Y0085489D01*
X0140311Y0085489D01*
X0139131Y0085000D01*
X0130741Y0085000D01*
X0130415Y0085788D01*
X0128445Y0087757D01*
X0125873Y0088823D01*
X0118364Y0088823D01*
X0117000Y0088258D01*
X0115636Y0088823D01*
X0108127Y0088823D01*
X0107928Y0088740D01*
X0104149Y0088740D01*
X0101209Y0087522D01*
X0098958Y0085272D01*
X0098686Y0085000D01*
X0088354Y0085000D01*
X0086204Y0087150D01*
X0083164Y0087150D01*
X0078782Y0091532D01*
X0076532Y0093782D01*
X0073591Y0095000D01*
X0070587Y0095000D01*
X0068591Y0095827D01*
X0052109Y0095827D01*
X0052068Y0095926D01*
X0050099Y0097895D01*
X0047526Y0098961D01*
X0036474Y0098961D01*
X0033901Y0097895D01*
X0031932Y0095926D01*
X0030866Y0093353D01*
X0030866Y0082301D01*
X0031932Y0079728D01*
X0033901Y0077759D01*
X0036474Y0076693D01*
X0047526Y0076693D01*
X0050099Y0077759D01*
X0052068Y0079728D01*
X0052109Y0079827D01*
X0055205Y0079827D01*
X0052580Y0078311D01*
X0050177Y0075908D01*
X0048478Y0072966D01*
X0047980Y0071109D01*
X0047734Y0071535D01*
X0047362Y0071907D01*
X0046906Y0072171D01*
X0046397Y0072307D01*
X0042378Y0072307D01*
X0042378Y0066551D01*
X0047598Y0066551D01*
X0047598Y0066285D01*
X0047730Y0065795D01*
X0042378Y0065795D01*
X0042378Y0060039D01*
X0046397Y0060039D01*
X0046906Y0060176D01*
X0047362Y0060439D01*
X0047734Y0060811D01*
X0047998Y0061267D01*
X0048134Y0061776D01*
X0048134Y0064287D01*
X0048478Y0063003D01*
X0050177Y0060060D01*
X0052580Y0057657D01*
X0055523Y0055958D01*
X0058805Y0055079D01*
X0062203Y0055079D01*
X0065485Y0055958D01*
X0068428Y0057657D01*
X0070831Y0060060D01*
X0072530Y0063003D01*
X0073409Y0066285D01*
X0073409Y0069683D01*
X0072841Y0071805D01*
X0076850Y0067796D01*
X0076850Y0067000D01*
X0077646Y0067000D01*
X0076850Y0067000D01*
X0076850Y0064867D01*
X0079867Y0061850D01*
X0082000Y0061850D01*
X0084133Y0061850D01*
X0087150Y0064867D01*
X0087150Y0067000D01*
X0087150Y0067796D01*
X0088354Y0069000D01*
X0107928Y0069000D01*
X0108127Y0068917D01*
X0113529Y0068917D01*
X0113822Y0068212D01*
X0114000Y0068034D01*
X0114000Y0063354D01*
X0111850Y0061204D01*
X0111850Y0052796D01*
X0116850Y0047796D01*
X0116850Y0047000D01*
X0117646Y0047000D01*
X0116850Y0047000D01*
X0116850Y0044867D01*
X0119867Y0041850D01*
X0122000Y0041850D01*
X0124133Y0041850D01*
X0127150Y0044867D01*
X0127150Y0047000D01*
X0127150Y0047796D01*
X0132150Y0052796D01*
X0132150Y0059000D01*
X0134000Y0059000D01*
X0134000Y0053354D01*
X0131850Y0051204D01*
X0131850Y0042796D01*
X0136850Y0037796D01*
X0136850Y0037000D01*
X0137646Y0037000D01*
X0136850Y0037000D01*
X0136850Y0034867D01*
X0139867Y0031850D01*
X0142000Y0031850D01*
X0144133Y0031850D01*
X0147150Y0034867D01*
X0147150Y0037000D01*
X0147150Y0037796D01*
X0152150Y0042796D01*
X0152150Y0042943D02*
X0169000Y0042943D01*
X0169000Y0044942D02*
X0152150Y0044942D01*
X0152150Y0046940D02*
X0169000Y0046940D01*
X0169000Y0048939D02*
X0152150Y0048939D01*
X0152150Y0050937D02*
X0169000Y0050937D01*
X0169000Y0052936D02*
X0150418Y0052936D01*
X0150000Y0054934D02*
X0169000Y0054934D01*
X0169000Y0056933D02*
X0150000Y0056933D01*
X0150000Y0058932D02*
X0169000Y0058932D01*
X0169000Y0060930D02*
X0152244Y0060930D01*
X0156505Y0062929D02*
X0167495Y0062929D01*
X0165496Y0064927D02*
X0158503Y0064927D01*
X0160502Y0066926D02*
X0163498Y0066926D01*
X0162400Y0068924D02*
X0161600Y0068924D01*
X0161600Y0070923D02*
X0162400Y0070923D01*
X0162400Y0072921D02*
X0161600Y0072921D01*
X0161600Y0074920D02*
X0162400Y0074920D01*
X0163342Y0076918D02*
X0160658Y0076918D01*
X0158660Y0078917D02*
X0165340Y0078917D01*
X0167339Y0080915D02*
X0156661Y0080915D01*
X0148092Y0082914D02*
X0203701Y0082914D01*
X0203701Y0084912D02*
X0145081Y0084912D01*
X0142000Y0077000D02*
X0125858Y0077000D01*
X0122118Y0080740D01*
X0111882Y0080740D02*
X0105740Y0080740D01*
X0102000Y0077000D01*
X0111882Y0077000D01*
X0111882Y0073260D02*
X0105622Y0067000D01*
X0092000Y0067000D01*
X0088278Y0068924D02*
X0108111Y0068924D01*
X0114000Y0066926D02*
X0087150Y0066926D01*
X0087150Y0067000D02*
X0086354Y0067000D01*
X0086354Y0067000D01*
X0087150Y0067000D01*
X0087150Y0064927D02*
X0114000Y0064927D01*
X0113574Y0062929D02*
X0085212Y0062929D01*
X0082000Y0062929D02*
X0082000Y0062929D01*
X0082000Y0061850D02*
X0082000Y0066850D01*
X0082000Y0066850D01*
X0082000Y0061850D01*
X0078788Y0062929D02*
X0072487Y0062929D01*
X0071333Y0060930D02*
X0111850Y0060930D01*
X0111850Y0058932D02*
X0069702Y0058932D01*
X0067174Y0056933D02*
X0111850Y0056933D01*
X0111850Y0054934D02*
X0009000Y0054934D01*
X0009000Y0056933D02*
X0016826Y0056933D01*
X0015572Y0057657D02*
X0018515Y0055958D01*
X0021797Y0055079D01*
X0025195Y0055079D01*
X0028477Y0055958D01*
X0031420Y0057657D01*
X0033823Y0060060D01*
X0035522Y0063003D01*
X0035866Y0064287D01*
X0035866Y0061776D01*
X0036002Y0061267D01*
X0036266Y0060811D01*
X0036638Y0060439D01*
X0037094Y0060176D01*
X0037603Y0060039D01*
X0041622Y0060039D01*
X0041622Y0065795D01*
X0042378Y0065795D01*
X0042378Y0066551D01*
X0041622Y0066551D01*
X0041622Y0072307D01*
X0037603Y0072307D01*
X0037094Y0072171D01*
X0036638Y0071907D01*
X0036266Y0071535D01*
X0036020Y0071109D01*
X0035522Y0072966D01*
X0033823Y0075908D01*
X0031420Y0078311D01*
X0028477Y0080010D01*
X0025195Y0080890D01*
X0021797Y0080890D01*
X0018515Y0080010D01*
X0015572Y0078311D01*
X0013169Y0075908D01*
X0011470Y0072966D01*
X0010591Y0069683D01*
X0010591Y0066285D01*
X0011470Y0063003D01*
X0013169Y0060060D01*
X0015572Y0057657D01*
X0014298Y0058932D02*
X0009000Y0058932D01*
X0009000Y0060930D02*
X0012667Y0060930D01*
X0011513Y0062929D02*
X0009000Y0062929D01*
X0009000Y0064927D02*
X0010954Y0064927D01*
X0010591Y0066926D02*
X0009000Y0066926D01*
X0009000Y0068924D02*
X0010591Y0068924D01*
X0010923Y0070923D02*
X0009000Y0070923D01*
X0009000Y0072921D02*
X0011458Y0072921D01*
X0012598Y0074920D02*
X0009000Y0074920D01*
X0009000Y0076918D02*
X0014179Y0076918D01*
X0016620Y0078917D02*
X0009000Y0078917D01*
X0009000Y0080915D02*
X0031440Y0080915D01*
X0030372Y0078917D02*
X0032743Y0078917D01*
X0032813Y0076918D02*
X0035930Y0076918D01*
X0034394Y0074920D02*
X0049606Y0074920D01*
X0048466Y0072921D02*
X0035534Y0072921D01*
X0041622Y0070923D02*
X0042378Y0070923D01*
X0042378Y0068924D02*
X0041622Y0068924D01*
X0041622Y0066926D02*
X0042378Y0066926D01*
X0042378Y0064927D02*
X0041622Y0064927D01*
X0041622Y0062929D02*
X0042378Y0062929D01*
X0042378Y0060930D02*
X0041622Y0060930D01*
X0036197Y0060930D02*
X0034325Y0060930D01*
X0035479Y0062929D02*
X0035866Y0062929D01*
X0032694Y0058932D02*
X0051306Y0058932D01*
X0049675Y0060930D02*
X0047803Y0060930D01*
X0048134Y0062929D02*
X0048521Y0062929D01*
X0053834Y0056933D02*
X0030166Y0056933D01*
X0009000Y0052936D02*
X0111850Y0052936D01*
X0113708Y0050937D02*
X0009000Y0050937D01*
X0009000Y0048939D02*
X0115707Y0048939D01*
X0116850Y0046940D02*
X0009000Y0046940D01*
X0009000Y0044942D02*
X0116850Y0044942D01*
X0118773Y0042943D02*
X0009000Y0042943D01*
X0009000Y0040945D02*
X0133701Y0040945D01*
X0131850Y0042943D02*
X0125227Y0042943D01*
X0127150Y0044942D02*
X0131850Y0044942D01*
X0131850Y0046940D02*
X0127150Y0046940D01*
X0127150Y0047000D02*
X0126354Y0047000D01*
X0126354Y0047000D01*
X0127150Y0047000D01*
X0128293Y0048939D02*
X0131850Y0048939D01*
X0131850Y0050937D02*
X0130292Y0050937D01*
X0132150Y0052936D02*
X0133582Y0052936D01*
X0134000Y0054934D02*
X0132150Y0054934D01*
X0132150Y0056933D02*
X0134000Y0056933D01*
X0134000Y0058932D02*
X0132150Y0058932D01*
X0122000Y0057000D02*
X0122000Y0067000D01*
X0147000Y0067000D01*
X0152000Y0072000D01*
X0142000Y0062000D02*
X0142000Y0047000D01*
X0135699Y0038946D02*
X0009000Y0038946D01*
X0009000Y0036948D02*
X0136850Y0036948D01*
X0137646Y0037000D02*
X0137646Y0037000D01*
X0136850Y0034949D02*
X0009000Y0034949D01*
X0009000Y0032951D02*
X0138766Y0032951D01*
X0142000Y0032951D02*
X0142000Y0032951D01*
X0142000Y0031850D02*
X0142000Y0036850D01*
X0142000Y0036850D01*
X0142000Y0031850D01*
X0145234Y0032951D02*
X0164544Y0032951D01*
X0167000Y0032951D02*
X0167000Y0032951D01*
X0169471Y0030952D02*
X0009000Y0030952D01*
X0009000Y0028954D02*
X0171470Y0028954D01*
X0167000Y0034949D02*
X0167000Y0034949D01*
X0162545Y0034949D02*
X0147150Y0034949D01*
X0147150Y0036948D02*
X0162400Y0036948D01*
X0162441Y0038946D02*
X0148301Y0038946D01*
X0147150Y0037000D02*
X0146354Y0037000D01*
X0146354Y0037000D01*
X0147150Y0037000D01*
X0142000Y0034949D02*
X0142000Y0034949D01*
X0122000Y0041850D02*
X0122000Y0046850D01*
X0122000Y0046850D01*
X0122000Y0041850D01*
X0122000Y0042943D02*
X0122000Y0042943D01*
X0122000Y0044942D02*
X0122000Y0044942D01*
X0117646Y0047000D02*
X0117646Y0047000D01*
X0082000Y0064927D02*
X0082000Y0064927D01*
X0077646Y0067000D02*
X0077646Y0067000D01*
X0076850Y0066926D02*
X0073409Y0066926D01*
X0073409Y0068924D02*
X0075722Y0068924D01*
X0073723Y0070923D02*
X0073077Y0070923D01*
X0073046Y0064927D02*
X0076850Y0064927D01*
X0082000Y0077000D02*
X0102000Y0077000D01*
X0100597Y0086911D02*
X0086444Y0086911D01*
X0081405Y0088909D02*
X0203701Y0088909D01*
X0203701Y0086911D02*
X0129292Y0086911D01*
X0122118Y0073260D02*
X0122000Y0073142D01*
X0122000Y0067000D01*
X0082000Y0077000D02*
X0072000Y0087000D01*
X0067827Y0087000D01*
X0067000Y0087827D01*
X0042000Y0087827D01*
X0030866Y0086911D02*
X0009000Y0086911D01*
X0009000Y0088909D02*
X0030866Y0088909D01*
X0030866Y0090908D02*
X0009000Y0090908D01*
X0009000Y0092906D02*
X0030866Y0092906D01*
X0031509Y0094905D02*
X0009000Y0094905D01*
X0009000Y0096903D02*
X0032909Y0096903D01*
X0036332Y0098902D02*
X0009000Y0098902D01*
X0009000Y0100900D02*
X0203701Y0100900D01*
X0203701Y0098902D02*
X0047668Y0098902D01*
X0051091Y0096903D02*
X0203701Y0096903D01*
X0203701Y0094905D02*
X0073821Y0094905D01*
X0077407Y0092906D02*
X0203701Y0092906D01*
X0203701Y0090908D02*
X0079406Y0090908D01*
X0053628Y0078917D02*
X0051257Y0078917D01*
X0051187Y0076918D02*
X0048070Y0076918D01*
X0030866Y0082914D02*
X0009000Y0082914D01*
X0009000Y0084912D02*
X0030866Y0084912D01*
X0009000Y0102899D02*
X0203701Y0102899D01*
X0203701Y0104897D02*
X0009000Y0104897D01*
X0009000Y0106896D02*
X0203701Y0106896D01*
X0203701Y0108894D02*
X0009000Y0108894D01*
X0009000Y0109961D02*
X0203701Y0109961D01*
X0203701Y0009000D01*
X0009000Y0009000D01*
X0009000Y0109961D01*
X0009000Y0026955D02*
X0203701Y0026955D01*
X0203701Y0024957D02*
X0009000Y0024957D01*
X0009000Y0022958D02*
X0203701Y0022958D01*
X0203701Y0020960D02*
X0009000Y0020960D01*
X0009000Y0018961D02*
X0203701Y0018961D01*
X0203701Y0016963D02*
X0009000Y0016963D01*
X0009000Y0014964D02*
X0203701Y0014964D01*
X0203701Y0012966D02*
X0009000Y0012966D01*
X0009000Y0010967D02*
X0203701Y0010967D01*
X0203701Y0028954D02*
X0182530Y0028954D01*
X0184529Y0030952D02*
X0203701Y0030952D01*
X0203701Y0032951D02*
X0186527Y0032951D01*
X0186600Y0034949D02*
X0203701Y0034949D01*
X0203701Y0036948D02*
X0186600Y0036948D01*
X0186600Y0038946D02*
X0203701Y0038946D01*
X0203701Y0040945D02*
X0186600Y0040945D01*
X0185000Y0042943D02*
X0203701Y0042943D01*
X0203701Y0044942D02*
X0185000Y0044942D01*
X0185000Y0046940D02*
X0203701Y0046940D01*
X0203701Y0048939D02*
X0185000Y0048939D01*
X0185000Y0050937D02*
X0203701Y0050937D01*
X0203701Y0052936D02*
X0185000Y0052936D01*
X0185000Y0054934D02*
X0203701Y0054934D01*
X0203701Y0056933D02*
X0185000Y0056933D01*
X0185000Y0058932D02*
X0203701Y0058932D01*
X0203701Y0060930D02*
X0185000Y0060930D01*
X0185000Y0062929D02*
X0203701Y0062929D01*
X0203701Y0064927D02*
X0185000Y0064927D01*
X0185000Y0066926D02*
X0203701Y0066926D01*
X0203701Y0068924D02*
X0184862Y0068924D01*
X0184034Y0070923D02*
X0203701Y0070923D01*
X0203701Y0072921D02*
X0182393Y0072921D01*
X0181600Y0074920D02*
X0203701Y0074920D01*
X0203701Y0076918D02*
X0180658Y0076918D01*
X0178660Y0078917D02*
X0203701Y0078917D01*
X0203701Y0080915D02*
X0176661Y0080915D01*
X0172000Y0072000D02*
X0177000Y0067000D01*
X0177000Y0037000D01*
D16*
X0142000Y0062000D03*
X0142000Y0077000D03*
M02*
