G75*
%MOIN*%
%OFA0B0*%
%FSLAX25Y25*%
%IPPOS*%
%LPD*%
%AMOC8*
5,1,8,0,0,1.08239X$1,22.5*
%
%ADD10C,0.00600*%
%ADD11C,0.01200*%
%ADD12R,0.02000X0.01500*%
%ADD13C,0.00500*%
%ADD14C,0.01000*%
D10*
X0084500Y0022500D02*
X0084500Y0035500D01*
X0084502Y0035587D01*
X0084508Y0035674D01*
X0084517Y0035761D01*
X0084530Y0035847D01*
X0084547Y0035933D01*
X0084568Y0036018D01*
X0084593Y0036101D01*
X0084621Y0036184D01*
X0084652Y0036265D01*
X0084687Y0036345D01*
X0084726Y0036423D01*
X0084768Y0036500D01*
X0084813Y0036575D01*
X0084862Y0036647D01*
X0084913Y0036718D01*
X0084968Y0036786D01*
X0085025Y0036851D01*
X0085086Y0036914D01*
X0085149Y0036975D01*
X0085214Y0037032D01*
X0085282Y0037087D01*
X0085353Y0037138D01*
X0085425Y0037187D01*
X0085500Y0037232D01*
X0085577Y0037274D01*
X0085655Y0037313D01*
X0085735Y0037348D01*
X0085816Y0037379D01*
X0085899Y0037407D01*
X0085982Y0037432D01*
X0086067Y0037453D01*
X0086153Y0037470D01*
X0086239Y0037483D01*
X0086326Y0037492D01*
X0086413Y0037498D01*
X0086500Y0037500D01*
X0091500Y0037500D01*
X0091587Y0037498D01*
X0091674Y0037492D01*
X0091761Y0037483D01*
X0091847Y0037470D01*
X0091933Y0037453D01*
X0092018Y0037432D01*
X0092101Y0037407D01*
X0092184Y0037379D01*
X0092265Y0037348D01*
X0092345Y0037313D01*
X0092423Y0037274D01*
X0092500Y0037232D01*
X0092575Y0037187D01*
X0092647Y0037138D01*
X0092718Y0037087D01*
X0092786Y0037032D01*
X0092851Y0036975D01*
X0092914Y0036914D01*
X0092975Y0036851D01*
X0093032Y0036786D01*
X0093087Y0036718D01*
X0093138Y0036647D01*
X0093187Y0036575D01*
X0093232Y0036500D01*
X0093274Y0036423D01*
X0093313Y0036345D01*
X0093348Y0036265D01*
X0093379Y0036184D01*
X0093407Y0036101D01*
X0093432Y0036018D01*
X0093453Y0035933D01*
X0093470Y0035847D01*
X0093483Y0035761D01*
X0093492Y0035674D01*
X0093498Y0035587D01*
X0093500Y0035500D01*
X0093500Y0022500D01*
X0093498Y0022413D01*
X0093492Y0022326D01*
X0093483Y0022239D01*
X0093470Y0022153D01*
X0093453Y0022067D01*
X0093432Y0021982D01*
X0093407Y0021899D01*
X0093379Y0021816D01*
X0093348Y0021735D01*
X0093313Y0021655D01*
X0093274Y0021577D01*
X0093232Y0021500D01*
X0093187Y0021425D01*
X0093138Y0021353D01*
X0093087Y0021282D01*
X0093032Y0021214D01*
X0092975Y0021149D01*
X0092914Y0021086D01*
X0092851Y0021025D01*
X0092786Y0020968D01*
X0092718Y0020913D01*
X0092647Y0020862D01*
X0092575Y0020813D01*
X0092500Y0020768D01*
X0092423Y0020726D01*
X0092345Y0020687D01*
X0092265Y0020652D01*
X0092184Y0020621D01*
X0092101Y0020593D01*
X0092018Y0020568D01*
X0091933Y0020547D01*
X0091847Y0020530D01*
X0091761Y0020517D01*
X0091674Y0020508D01*
X0091587Y0020502D01*
X0091500Y0020500D01*
X0086500Y0020500D01*
X0086413Y0020502D01*
X0086326Y0020508D01*
X0086239Y0020517D01*
X0086153Y0020530D01*
X0086067Y0020547D01*
X0085982Y0020568D01*
X0085899Y0020593D01*
X0085816Y0020621D01*
X0085735Y0020652D01*
X0085655Y0020687D01*
X0085577Y0020726D01*
X0085500Y0020768D01*
X0085425Y0020813D01*
X0085353Y0020862D01*
X0085282Y0020913D01*
X0085214Y0020968D01*
X0085149Y0021025D01*
X0085086Y0021086D01*
X0085025Y0021149D01*
X0084968Y0021214D01*
X0084913Y0021282D01*
X0084862Y0021353D01*
X0084813Y0021425D01*
X0084768Y0021500D01*
X0084726Y0021577D01*
X0084687Y0021655D01*
X0084652Y0021735D01*
X0084621Y0021816D01*
X0084593Y0021899D01*
X0084568Y0021982D01*
X0084547Y0022067D01*
X0084530Y0022153D01*
X0084517Y0022239D01*
X0084508Y0022326D01*
X0084502Y0022413D01*
X0084500Y0022500D01*
X0120500Y0028500D02*
X0121000Y0028000D01*
X0123000Y0028000D01*
X0123500Y0028500D01*
X0120500Y0028500D02*
X0120438Y0028565D01*
X0120378Y0028633D01*
X0120322Y0028703D01*
X0120268Y0028775D01*
X0120218Y0028850D01*
X0120171Y0028927D01*
X0120127Y0029005D01*
X0120086Y0029086D01*
X0120049Y0029168D01*
X0120016Y0029251D01*
X0119986Y0029336D01*
X0119959Y0029422D01*
X0119937Y0029509D01*
X0119918Y0029597D01*
X0119902Y0029686D01*
X0119891Y0029775D01*
X0119883Y0029865D01*
X0119879Y0029955D01*
X0119879Y0030045D01*
X0119883Y0030135D01*
X0119891Y0030225D01*
X0119902Y0030314D01*
X0119918Y0030403D01*
X0119937Y0030491D01*
X0119959Y0030578D01*
X0119986Y0030664D01*
X0120016Y0030749D01*
X0120049Y0030832D01*
X0120086Y0030914D01*
X0120127Y0030995D01*
X0120171Y0031073D01*
X0120218Y0031150D01*
X0120268Y0031225D01*
X0120322Y0031297D01*
X0120378Y0031367D01*
X0120438Y0031435D01*
X0120500Y0031500D01*
X0121000Y0032000D01*
X0123000Y0032000D01*
X0123500Y0031500D01*
X0123000Y0030000D02*
X0122998Y0029940D01*
X0122993Y0029879D01*
X0122984Y0029820D01*
X0122971Y0029761D01*
X0122955Y0029702D01*
X0122935Y0029645D01*
X0122912Y0029590D01*
X0122885Y0029535D01*
X0122856Y0029483D01*
X0122823Y0029432D01*
X0122787Y0029383D01*
X0122749Y0029337D01*
X0122707Y0029293D01*
X0122663Y0029251D01*
X0122617Y0029213D01*
X0122568Y0029177D01*
X0122517Y0029144D01*
X0122465Y0029115D01*
X0122410Y0029088D01*
X0122355Y0029065D01*
X0122298Y0029045D01*
X0122239Y0029029D01*
X0122180Y0029016D01*
X0122121Y0029007D01*
X0122060Y0029002D01*
X0122000Y0029000D01*
X0121000Y0030000D02*
X0121002Y0030060D01*
X0121007Y0030121D01*
X0121016Y0030180D01*
X0121029Y0030239D01*
X0121045Y0030298D01*
X0121065Y0030355D01*
X0121088Y0030410D01*
X0121115Y0030465D01*
X0121144Y0030517D01*
X0121177Y0030568D01*
X0121213Y0030617D01*
X0121251Y0030663D01*
X0121293Y0030707D01*
X0121337Y0030749D01*
X0121383Y0030787D01*
X0121432Y0030823D01*
X0121483Y0030856D01*
X0121535Y0030885D01*
X0121590Y0030912D01*
X0121645Y0030935D01*
X0121702Y0030955D01*
X0121761Y0030971D01*
X0121820Y0030984D01*
X0121879Y0030993D01*
X0121940Y0030998D01*
X0122000Y0031000D01*
X0141000Y0050000D02*
X0147000Y0050000D01*
X0147060Y0050002D01*
X0147121Y0050007D01*
X0147180Y0050016D01*
X0147239Y0050029D01*
X0147298Y0050045D01*
X0147355Y0050065D01*
X0147410Y0050088D01*
X0147465Y0050115D01*
X0147517Y0050144D01*
X0147568Y0050177D01*
X0147617Y0050213D01*
X0147663Y0050251D01*
X0147707Y0050293D01*
X0147749Y0050337D01*
X0147787Y0050383D01*
X0147823Y0050432D01*
X0147856Y0050483D01*
X0147885Y0050535D01*
X0147912Y0050590D01*
X0147935Y0050645D01*
X0147955Y0050702D01*
X0147971Y0050761D01*
X0147984Y0050820D01*
X0147993Y0050879D01*
X0147998Y0050940D01*
X0148000Y0051000D01*
X0148000Y0052500D01*
X0147500Y0053000D01*
X0147500Y0067000D01*
X0148000Y0067500D01*
X0148000Y0069000D01*
X0147998Y0069060D01*
X0147993Y0069121D01*
X0147984Y0069180D01*
X0147971Y0069239D01*
X0147955Y0069298D01*
X0147935Y0069355D01*
X0147912Y0069410D01*
X0147885Y0069465D01*
X0147856Y0069517D01*
X0147823Y0069568D01*
X0147787Y0069617D01*
X0147749Y0069663D01*
X0147707Y0069707D01*
X0147663Y0069749D01*
X0147617Y0069787D01*
X0147568Y0069823D01*
X0147517Y0069856D01*
X0147465Y0069885D01*
X0147410Y0069912D01*
X0147355Y0069935D01*
X0147298Y0069955D01*
X0147239Y0069971D01*
X0147180Y0069984D01*
X0147121Y0069993D01*
X0147060Y0069998D01*
X0147000Y0070000D01*
X0141000Y0070000D01*
X0140940Y0069998D01*
X0140879Y0069993D01*
X0140820Y0069984D01*
X0140761Y0069971D01*
X0140702Y0069955D01*
X0140645Y0069935D01*
X0140590Y0069912D01*
X0140535Y0069885D01*
X0140483Y0069856D01*
X0140432Y0069823D01*
X0140383Y0069787D01*
X0140337Y0069749D01*
X0140293Y0069707D01*
X0140251Y0069663D01*
X0140213Y0069617D01*
X0140177Y0069568D01*
X0140144Y0069517D01*
X0140115Y0069465D01*
X0140088Y0069410D01*
X0140065Y0069355D01*
X0140045Y0069298D01*
X0140029Y0069239D01*
X0140016Y0069180D01*
X0140007Y0069121D01*
X0140002Y0069060D01*
X0140000Y0069000D01*
X0140000Y0067500D01*
X0140500Y0067000D01*
X0140500Y0053000D01*
X0140000Y0052500D01*
X0140000Y0051000D01*
X0140002Y0050940D01*
X0140007Y0050879D01*
X0140016Y0050820D01*
X0140029Y0050761D01*
X0140045Y0050702D01*
X0140065Y0050645D01*
X0140088Y0050590D01*
X0140115Y0050535D01*
X0140144Y0050483D01*
X0140177Y0050432D01*
X0140213Y0050383D01*
X0140251Y0050337D01*
X0140293Y0050293D01*
X0140337Y0050251D01*
X0140383Y0050213D01*
X0140432Y0050177D01*
X0140483Y0050144D01*
X0140535Y0050115D01*
X0140590Y0050088D01*
X0140645Y0050065D01*
X0140702Y0050045D01*
X0140761Y0050029D01*
X0140820Y0050016D01*
X0140879Y0050007D01*
X0140940Y0050002D01*
X0141000Y0050000D01*
X0125500Y0070500D02*
X0112500Y0070500D01*
X0112413Y0070502D01*
X0112326Y0070508D01*
X0112239Y0070517D01*
X0112153Y0070530D01*
X0112067Y0070547D01*
X0111982Y0070568D01*
X0111899Y0070593D01*
X0111816Y0070621D01*
X0111735Y0070652D01*
X0111655Y0070687D01*
X0111577Y0070726D01*
X0111500Y0070768D01*
X0111425Y0070813D01*
X0111353Y0070862D01*
X0111282Y0070913D01*
X0111214Y0070968D01*
X0111149Y0071025D01*
X0111086Y0071086D01*
X0111025Y0071149D01*
X0110968Y0071214D01*
X0110913Y0071282D01*
X0110862Y0071353D01*
X0110813Y0071425D01*
X0110768Y0071500D01*
X0110726Y0071577D01*
X0110687Y0071655D01*
X0110652Y0071735D01*
X0110621Y0071816D01*
X0110593Y0071899D01*
X0110568Y0071982D01*
X0110547Y0072067D01*
X0110530Y0072153D01*
X0110517Y0072239D01*
X0110508Y0072326D01*
X0110502Y0072413D01*
X0110500Y0072500D01*
X0110500Y0077500D01*
X0110502Y0077587D01*
X0110508Y0077674D01*
X0110517Y0077761D01*
X0110530Y0077847D01*
X0110547Y0077933D01*
X0110568Y0078018D01*
X0110593Y0078101D01*
X0110621Y0078184D01*
X0110652Y0078265D01*
X0110687Y0078345D01*
X0110726Y0078423D01*
X0110768Y0078500D01*
X0110813Y0078575D01*
X0110862Y0078647D01*
X0110913Y0078718D01*
X0110968Y0078786D01*
X0111025Y0078851D01*
X0111086Y0078914D01*
X0111149Y0078975D01*
X0111214Y0079032D01*
X0111282Y0079087D01*
X0111353Y0079138D01*
X0111425Y0079187D01*
X0111500Y0079232D01*
X0111577Y0079274D01*
X0111655Y0079313D01*
X0111735Y0079348D01*
X0111816Y0079379D01*
X0111899Y0079407D01*
X0111982Y0079432D01*
X0112067Y0079453D01*
X0112153Y0079470D01*
X0112239Y0079483D01*
X0112326Y0079492D01*
X0112413Y0079498D01*
X0112500Y0079500D01*
X0125500Y0079500D01*
X0125587Y0079498D01*
X0125674Y0079492D01*
X0125761Y0079483D01*
X0125847Y0079470D01*
X0125933Y0079453D01*
X0126018Y0079432D01*
X0126101Y0079407D01*
X0126184Y0079379D01*
X0126265Y0079348D01*
X0126345Y0079313D01*
X0126423Y0079274D01*
X0126500Y0079232D01*
X0126575Y0079187D01*
X0126647Y0079138D01*
X0126718Y0079087D01*
X0126786Y0079032D01*
X0126851Y0078975D01*
X0126914Y0078914D01*
X0126975Y0078851D01*
X0127032Y0078786D01*
X0127087Y0078718D01*
X0127138Y0078647D01*
X0127187Y0078575D01*
X0127232Y0078500D01*
X0127274Y0078423D01*
X0127313Y0078345D01*
X0127348Y0078265D01*
X0127379Y0078184D01*
X0127407Y0078101D01*
X0127432Y0078018D01*
X0127453Y0077933D01*
X0127470Y0077847D01*
X0127483Y0077761D01*
X0127492Y0077674D01*
X0127498Y0077587D01*
X0127500Y0077500D01*
X0127500Y0072500D01*
X0127498Y0072413D01*
X0127492Y0072326D01*
X0127483Y0072239D01*
X0127470Y0072153D01*
X0127453Y0072067D01*
X0127432Y0071982D01*
X0127407Y0071899D01*
X0127379Y0071816D01*
X0127348Y0071735D01*
X0127313Y0071655D01*
X0127274Y0071577D01*
X0127232Y0071500D01*
X0127187Y0071425D01*
X0127138Y0071353D01*
X0127087Y0071282D01*
X0127032Y0071214D01*
X0126975Y0071149D01*
X0126914Y0071086D01*
X0126851Y0071025D01*
X0126786Y0070968D01*
X0126718Y0070913D01*
X0126647Y0070862D01*
X0126575Y0070813D01*
X0126500Y0070768D01*
X0126423Y0070726D01*
X0126345Y0070687D01*
X0126265Y0070652D01*
X0126184Y0070621D01*
X0126101Y0070593D01*
X0126018Y0070568D01*
X0125933Y0070547D01*
X0125847Y0070530D01*
X0125761Y0070517D01*
X0125674Y0070508D01*
X0125587Y0070502D01*
X0125500Y0070500D01*
D11*
X0120300Y0072000D02*
X0120300Y0078000D01*
X0117800Y0078000D02*
X0117800Y0072000D01*
X0092000Y0030200D02*
X0086000Y0030200D01*
X0086000Y0027700D02*
X0092000Y0027700D01*
D12*
X0144000Y0049250D03*
X0144000Y0070750D03*
D13*
X0096780Y0065157D02*
X0079063Y0065157D01*
X0079063Y0078937D01*
X0096780Y0078937D01*
X0096780Y0065157D01*
D14*
X0036764Y0071661D02*
X0036764Y0045283D01*
X0057236Y0045283D01*
X0057236Y0082291D01*
X0036764Y0082291D01*
X0036764Y0075992D01*
X0036672Y0075990D01*
X0036580Y0075984D01*
X0036489Y0075974D01*
X0036398Y0075961D01*
X0036308Y0075943D01*
X0036218Y0075922D01*
X0036130Y0075897D01*
X0036043Y0075868D01*
X0035957Y0075836D01*
X0035872Y0075800D01*
X0035789Y0075760D01*
X0035708Y0075717D01*
X0035629Y0075671D01*
X0035552Y0075621D01*
X0035477Y0075568D01*
X0035404Y0075511D01*
X0035334Y0075452D01*
X0035266Y0075390D01*
X0035201Y0075325D01*
X0035139Y0075257D01*
X0035080Y0075187D01*
X0035023Y0075114D01*
X0034970Y0075039D01*
X0034920Y0074962D01*
X0034874Y0074883D01*
X0034831Y0074802D01*
X0034791Y0074719D01*
X0034755Y0074634D01*
X0034723Y0074548D01*
X0034694Y0074461D01*
X0034669Y0074373D01*
X0034648Y0074283D01*
X0034630Y0074193D01*
X0034617Y0074102D01*
X0034607Y0074011D01*
X0034601Y0073919D01*
X0034599Y0073827D01*
X0034601Y0073735D01*
X0034607Y0073643D01*
X0034617Y0073552D01*
X0034630Y0073461D01*
X0034648Y0073371D01*
X0034669Y0073281D01*
X0034694Y0073193D01*
X0034723Y0073106D01*
X0034755Y0073020D01*
X0034791Y0072935D01*
X0034831Y0072852D01*
X0034874Y0072771D01*
X0034920Y0072692D01*
X0034970Y0072615D01*
X0035023Y0072540D01*
X0035080Y0072467D01*
X0035139Y0072397D01*
X0035201Y0072329D01*
X0035266Y0072264D01*
X0035334Y0072202D01*
X0035404Y0072143D01*
X0035477Y0072086D01*
X0035552Y0072033D01*
X0035629Y0071983D01*
X0035708Y0071937D01*
X0035789Y0071894D01*
X0035872Y0071854D01*
X0035957Y0071818D01*
X0036043Y0071786D01*
X0036130Y0071757D01*
X0036218Y0071732D01*
X0036308Y0071711D01*
X0036398Y0071693D01*
X0036489Y0071680D01*
X0036580Y0071670D01*
X0036672Y0071664D01*
X0036764Y0071662D01*
X0036370Y0057882D02*
X0033614Y0057882D01*
X0034007Y0050402D02*
X0033919Y0050269D01*
X0033828Y0050138D01*
X0033734Y0050009D01*
X0033636Y0049882D01*
X0033536Y0049758D01*
X0033432Y0049637D01*
X0033326Y0049518D01*
X0033216Y0049401D01*
X0033104Y0049287D01*
X0032989Y0049176D01*
X0032872Y0049068D01*
X0032752Y0048963D01*
X0032629Y0048861D01*
X0032504Y0048762D01*
X0032376Y0048666D01*
X0032246Y0048573D01*
X0032114Y0048483D01*
X0031980Y0048396D01*
X0031844Y0048313D01*
X0031705Y0048233D01*
X0031565Y0048156D01*
X0031423Y0048083D01*
X0031280Y0048014D01*
X0031134Y0047948D01*
X0030987Y0047885D01*
X0030839Y0047826D01*
X0030689Y0047771D01*
X0030538Y0047719D01*
X0030385Y0047671D01*
X0030232Y0047627D01*
X0030077Y0047587D01*
X0029922Y0047550D01*
X0029766Y0047517D01*
X0029609Y0047488D01*
X0029451Y0047463D01*
X0029293Y0047442D01*
X0029134Y0047424D01*
X0028975Y0047411D01*
X0028815Y0047401D01*
X0028656Y0047395D01*
X0028496Y0047393D01*
X0028336Y0047395D01*
X0028177Y0047401D01*
X0028017Y0047411D01*
X0027858Y0047424D01*
X0027699Y0047442D01*
X0027541Y0047463D01*
X0027383Y0047488D01*
X0027226Y0047517D01*
X0027070Y0047550D01*
X0026915Y0047587D01*
X0026760Y0047627D01*
X0026607Y0047671D01*
X0026454Y0047719D01*
X0026303Y0047771D01*
X0026153Y0047826D01*
X0026005Y0047885D01*
X0025858Y0047948D01*
X0025712Y0048014D01*
X0025569Y0048083D01*
X0025427Y0048156D01*
X0025287Y0048233D01*
X0025148Y0048313D01*
X0025012Y0048396D01*
X0024878Y0048483D01*
X0024746Y0048573D01*
X0024616Y0048666D01*
X0024488Y0048762D01*
X0024363Y0048861D01*
X0024240Y0048963D01*
X0024120Y0049068D01*
X0024003Y0049176D01*
X0023888Y0049287D01*
X0023776Y0049401D01*
X0023666Y0049518D01*
X0023560Y0049637D01*
X0023456Y0049758D01*
X0023356Y0049882D01*
X0023258Y0050009D01*
X0023164Y0050138D01*
X0023073Y0050269D01*
X0022985Y0050402D01*
X0022984Y0050402D02*
X0022984Y0057488D01*
X0022985Y0057488D02*
X0023073Y0057621D01*
X0023164Y0057752D01*
X0023258Y0057881D01*
X0023356Y0058008D01*
X0023456Y0058132D01*
X0023560Y0058253D01*
X0023666Y0058372D01*
X0023776Y0058489D01*
X0023888Y0058603D01*
X0024003Y0058714D01*
X0024120Y0058822D01*
X0024240Y0058927D01*
X0024363Y0059029D01*
X0024488Y0059128D01*
X0024616Y0059224D01*
X0024746Y0059317D01*
X0024878Y0059407D01*
X0025012Y0059494D01*
X0025148Y0059577D01*
X0025287Y0059657D01*
X0025427Y0059734D01*
X0025569Y0059807D01*
X0025712Y0059876D01*
X0025858Y0059942D01*
X0026005Y0060005D01*
X0026153Y0060064D01*
X0026303Y0060119D01*
X0026454Y0060171D01*
X0026607Y0060219D01*
X0026760Y0060263D01*
X0026915Y0060303D01*
X0027070Y0060340D01*
X0027226Y0060373D01*
X0027383Y0060402D01*
X0027541Y0060427D01*
X0027699Y0060448D01*
X0027858Y0060466D01*
X0028017Y0060479D01*
X0028177Y0060489D01*
X0028336Y0060495D01*
X0028496Y0060497D01*
X0028656Y0060495D01*
X0028815Y0060489D01*
X0028975Y0060479D01*
X0029134Y0060466D01*
X0029293Y0060448D01*
X0029451Y0060427D01*
X0029609Y0060402D01*
X0029766Y0060373D01*
X0029922Y0060340D01*
X0030077Y0060303D01*
X0030232Y0060263D01*
X0030385Y0060219D01*
X0030538Y0060171D01*
X0030689Y0060119D01*
X0030839Y0060064D01*
X0030987Y0060005D01*
X0031134Y0059942D01*
X0031280Y0059876D01*
X0031423Y0059807D01*
X0031565Y0059734D01*
X0031705Y0059657D01*
X0031844Y0059577D01*
X0031980Y0059494D01*
X0032114Y0059407D01*
X0032246Y0059317D01*
X0032376Y0059224D01*
X0032504Y0059128D01*
X0032629Y0059029D01*
X0032752Y0058927D01*
X0032872Y0058822D01*
X0032989Y0058714D01*
X0033104Y0058603D01*
X0033216Y0058489D01*
X0033326Y0058372D01*
X0033432Y0058253D01*
X0033536Y0058132D01*
X0033636Y0058008D01*
X0033734Y0057881D01*
X0033828Y0057752D01*
X0033919Y0057621D01*
X0034007Y0057488D01*
X0033614Y0050008D02*
X0036370Y0050008D01*
X0057630Y0050008D02*
X0060386Y0050008D01*
X0059993Y0057488D02*
X0060081Y0057621D01*
X0060172Y0057752D01*
X0060266Y0057881D01*
X0060364Y0058008D01*
X0060464Y0058132D01*
X0060568Y0058253D01*
X0060674Y0058372D01*
X0060784Y0058489D01*
X0060896Y0058603D01*
X0061011Y0058714D01*
X0061128Y0058822D01*
X0061248Y0058927D01*
X0061371Y0059029D01*
X0061496Y0059128D01*
X0061624Y0059224D01*
X0061754Y0059317D01*
X0061886Y0059407D01*
X0062020Y0059494D01*
X0062156Y0059577D01*
X0062295Y0059657D01*
X0062435Y0059734D01*
X0062577Y0059807D01*
X0062720Y0059876D01*
X0062866Y0059942D01*
X0063013Y0060005D01*
X0063161Y0060064D01*
X0063311Y0060119D01*
X0063462Y0060171D01*
X0063615Y0060219D01*
X0063768Y0060263D01*
X0063923Y0060303D01*
X0064078Y0060340D01*
X0064234Y0060373D01*
X0064391Y0060402D01*
X0064549Y0060427D01*
X0064707Y0060448D01*
X0064866Y0060466D01*
X0065025Y0060479D01*
X0065185Y0060489D01*
X0065344Y0060495D01*
X0065504Y0060497D01*
X0065664Y0060495D01*
X0065823Y0060489D01*
X0065983Y0060479D01*
X0066142Y0060466D01*
X0066301Y0060448D01*
X0066459Y0060427D01*
X0066617Y0060402D01*
X0066774Y0060373D01*
X0066930Y0060340D01*
X0067085Y0060303D01*
X0067240Y0060263D01*
X0067393Y0060219D01*
X0067546Y0060171D01*
X0067697Y0060119D01*
X0067847Y0060064D01*
X0067995Y0060005D01*
X0068142Y0059942D01*
X0068288Y0059876D01*
X0068431Y0059807D01*
X0068573Y0059734D01*
X0068713Y0059657D01*
X0068852Y0059577D01*
X0068988Y0059494D01*
X0069122Y0059407D01*
X0069254Y0059317D01*
X0069384Y0059224D01*
X0069512Y0059128D01*
X0069637Y0059029D01*
X0069760Y0058927D01*
X0069880Y0058822D01*
X0069997Y0058714D01*
X0070112Y0058603D01*
X0070224Y0058489D01*
X0070334Y0058372D01*
X0070440Y0058253D01*
X0070544Y0058132D01*
X0070644Y0058008D01*
X0070742Y0057881D01*
X0070836Y0057752D01*
X0070927Y0057621D01*
X0071015Y0057488D01*
X0071016Y0057488D02*
X0071016Y0050402D01*
X0071015Y0050402D02*
X0070927Y0050269D01*
X0070836Y0050138D01*
X0070742Y0050009D01*
X0070644Y0049882D01*
X0070544Y0049758D01*
X0070440Y0049637D01*
X0070334Y0049518D01*
X0070224Y0049401D01*
X0070112Y0049287D01*
X0069997Y0049176D01*
X0069880Y0049068D01*
X0069760Y0048963D01*
X0069637Y0048861D01*
X0069512Y0048762D01*
X0069384Y0048666D01*
X0069254Y0048573D01*
X0069122Y0048483D01*
X0068988Y0048396D01*
X0068852Y0048313D01*
X0068713Y0048233D01*
X0068573Y0048156D01*
X0068431Y0048083D01*
X0068288Y0048014D01*
X0068142Y0047948D01*
X0067995Y0047885D01*
X0067847Y0047826D01*
X0067697Y0047771D01*
X0067546Y0047719D01*
X0067393Y0047671D01*
X0067240Y0047627D01*
X0067085Y0047587D01*
X0066930Y0047550D01*
X0066774Y0047517D01*
X0066617Y0047488D01*
X0066459Y0047463D01*
X0066301Y0047442D01*
X0066142Y0047424D01*
X0065983Y0047411D01*
X0065823Y0047401D01*
X0065664Y0047395D01*
X0065504Y0047393D01*
X0065344Y0047395D01*
X0065185Y0047401D01*
X0065025Y0047411D01*
X0064866Y0047424D01*
X0064707Y0047442D01*
X0064549Y0047463D01*
X0064391Y0047488D01*
X0064234Y0047517D01*
X0064078Y0047550D01*
X0063923Y0047587D01*
X0063768Y0047627D01*
X0063615Y0047671D01*
X0063462Y0047719D01*
X0063311Y0047771D01*
X0063161Y0047826D01*
X0063013Y0047885D01*
X0062866Y0047948D01*
X0062720Y0048014D01*
X0062577Y0048083D01*
X0062435Y0048156D01*
X0062295Y0048233D01*
X0062156Y0048313D01*
X0062020Y0048396D01*
X0061886Y0048483D01*
X0061754Y0048573D01*
X0061624Y0048666D01*
X0061496Y0048762D01*
X0061371Y0048861D01*
X0061248Y0048963D01*
X0061128Y0049068D01*
X0061011Y0049176D01*
X0060896Y0049287D01*
X0060784Y0049401D01*
X0060674Y0049518D01*
X0060568Y0049637D01*
X0060464Y0049758D01*
X0060364Y0049882D01*
X0060266Y0050009D01*
X0060172Y0050138D01*
X0060081Y0050269D01*
X0059993Y0050402D01*
X0060386Y0057882D02*
X0057630Y0057882D01*
M02*
