G75*
%MOIN*%
%OFA0B0*%
%FSLAX25Y25*%
%IPPOS*%
%LPD*%
%AMOC8*
5,1,8,0,0,1.08239X$1,22.5*
%
%ADD10C,0.00600*%
%ADD11C,0.01200*%
%ADD12C,0.02000*%
%ADD13C,0.01000*%
D10*
X0187800Y0148800D02*
X0187800Y0153800D01*
X0187802Y0153887D01*
X0187808Y0153974D01*
X0187817Y0154061D01*
X0187830Y0154147D01*
X0187847Y0154233D01*
X0187868Y0154318D01*
X0187893Y0154401D01*
X0187921Y0154484D01*
X0187952Y0154565D01*
X0187987Y0154645D01*
X0188026Y0154723D01*
X0188068Y0154800D01*
X0188113Y0154875D01*
X0188162Y0154947D01*
X0188213Y0155018D01*
X0188268Y0155086D01*
X0188325Y0155151D01*
X0188386Y0155214D01*
X0188449Y0155275D01*
X0188514Y0155332D01*
X0188582Y0155387D01*
X0188653Y0155438D01*
X0188725Y0155487D01*
X0188800Y0155532D01*
X0188877Y0155574D01*
X0188955Y0155613D01*
X0189035Y0155648D01*
X0189116Y0155679D01*
X0189199Y0155707D01*
X0189282Y0155732D01*
X0189367Y0155753D01*
X0189453Y0155770D01*
X0189539Y0155783D01*
X0189626Y0155792D01*
X0189713Y0155798D01*
X0189800Y0155800D01*
X0202800Y0155800D01*
X0202887Y0155798D01*
X0202974Y0155792D01*
X0203061Y0155783D01*
X0203147Y0155770D01*
X0203233Y0155753D01*
X0203318Y0155732D01*
X0203401Y0155707D01*
X0203484Y0155679D01*
X0203565Y0155648D01*
X0203645Y0155613D01*
X0203723Y0155574D01*
X0203800Y0155532D01*
X0203875Y0155487D01*
X0203947Y0155438D01*
X0204018Y0155387D01*
X0204086Y0155332D01*
X0204151Y0155275D01*
X0204214Y0155214D01*
X0204275Y0155151D01*
X0204332Y0155086D01*
X0204387Y0155018D01*
X0204438Y0154947D01*
X0204487Y0154875D01*
X0204532Y0154800D01*
X0204574Y0154723D01*
X0204613Y0154645D01*
X0204648Y0154565D01*
X0204679Y0154484D01*
X0204707Y0154401D01*
X0204732Y0154318D01*
X0204753Y0154233D01*
X0204770Y0154147D01*
X0204783Y0154061D01*
X0204792Y0153974D01*
X0204798Y0153887D01*
X0204800Y0153800D01*
X0204800Y0148800D01*
X0204798Y0148713D01*
X0204792Y0148626D01*
X0204783Y0148539D01*
X0204770Y0148453D01*
X0204753Y0148367D01*
X0204732Y0148282D01*
X0204707Y0148199D01*
X0204679Y0148116D01*
X0204648Y0148035D01*
X0204613Y0147955D01*
X0204574Y0147877D01*
X0204532Y0147800D01*
X0204487Y0147725D01*
X0204438Y0147653D01*
X0204387Y0147582D01*
X0204332Y0147514D01*
X0204275Y0147449D01*
X0204214Y0147386D01*
X0204151Y0147325D01*
X0204086Y0147268D01*
X0204018Y0147213D01*
X0203947Y0147162D01*
X0203875Y0147113D01*
X0203800Y0147068D01*
X0203723Y0147026D01*
X0203645Y0146987D01*
X0203565Y0146952D01*
X0203484Y0146921D01*
X0203401Y0146893D01*
X0203318Y0146868D01*
X0203233Y0146847D01*
X0203147Y0146830D01*
X0203061Y0146817D01*
X0202974Y0146808D01*
X0202887Y0146802D01*
X0202800Y0146800D01*
X0189800Y0146800D01*
X0189713Y0146802D01*
X0189626Y0146808D01*
X0189539Y0146817D01*
X0189453Y0146830D01*
X0189367Y0146847D01*
X0189282Y0146868D01*
X0189199Y0146893D01*
X0189116Y0146921D01*
X0189035Y0146952D01*
X0188955Y0146987D01*
X0188877Y0147026D01*
X0188800Y0147068D01*
X0188725Y0147113D01*
X0188653Y0147162D01*
X0188582Y0147213D01*
X0188514Y0147268D01*
X0188449Y0147325D01*
X0188386Y0147386D01*
X0188325Y0147449D01*
X0188268Y0147514D01*
X0188213Y0147582D01*
X0188162Y0147653D01*
X0188113Y0147725D01*
X0188068Y0147800D01*
X0188026Y0147877D01*
X0187987Y0147955D01*
X0187952Y0148035D01*
X0187921Y0148116D01*
X0187893Y0148199D01*
X0187868Y0148282D01*
X0187847Y0148367D01*
X0187830Y0148453D01*
X0187817Y0148539D01*
X0187808Y0148626D01*
X0187802Y0148713D01*
X0187800Y0148800D01*
X0236300Y0155800D02*
X0236300Y0134800D01*
X0246300Y0134800D01*
X0246300Y0155800D01*
X0244800Y0155800D01*
X0237800Y0155800D01*
X0237800Y0157300D01*
X0238800Y0157300D02*
X0243800Y0157300D01*
X0244800Y0157300D02*
X0244800Y0155800D01*
X0243300Y0158300D02*
X0239300Y0158300D01*
X0240300Y0159300D02*
X0242300Y0159300D01*
X0244800Y0157300D02*
X0244798Y0157418D01*
X0244792Y0157536D01*
X0244782Y0157654D01*
X0244768Y0157771D01*
X0244750Y0157888D01*
X0244728Y0158005D01*
X0244703Y0158120D01*
X0244673Y0158234D01*
X0244639Y0158348D01*
X0244602Y0158460D01*
X0244561Y0158571D01*
X0244516Y0158680D01*
X0244468Y0158788D01*
X0244416Y0158894D01*
X0244360Y0158999D01*
X0244301Y0159101D01*
X0244239Y0159201D01*
X0244173Y0159299D01*
X0244104Y0159395D01*
X0244031Y0159489D01*
X0243956Y0159580D01*
X0243877Y0159668D01*
X0243796Y0159754D01*
X0243711Y0159837D01*
X0243624Y0159917D01*
X0243535Y0159994D01*
X0243442Y0160068D01*
X0243348Y0160138D01*
X0243251Y0160206D01*
X0243151Y0160270D01*
X0243050Y0160331D01*
X0242947Y0160388D01*
X0242841Y0160442D01*
X0242734Y0160493D01*
X0242626Y0160539D01*
X0242516Y0160582D01*
X0242404Y0160621D01*
X0242291Y0160657D01*
X0242177Y0160688D01*
X0242062Y0160716D01*
X0241947Y0160740D01*
X0241830Y0160760D01*
X0241713Y0160776D01*
X0241595Y0160788D01*
X0241477Y0160796D01*
X0241359Y0160800D01*
X0241241Y0160800D01*
X0241123Y0160796D01*
X0241005Y0160788D01*
X0240887Y0160776D01*
X0240770Y0160760D01*
X0240653Y0160740D01*
X0240538Y0160716D01*
X0240423Y0160688D01*
X0240309Y0160657D01*
X0240196Y0160621D01*
X0240084Y0160582D01*
X0239974Y0160539D01*
X0239866Y0160493D01*
X0239759Y0160442D01*
X0239653Y0160388D01*
X0239550Y0160331D01*
X0239449Y0160270D01*
X0239349Y0160206D01*
X0239252Y0160138D01*
X0239158Y0160068D01*
X0239065Y0159994D01*
X0238976Y0159917D01*
X0238889Y0159837D01*
X0238804Y0159754D01*
X0238723Y0159668D01*
X0238644Y0159580D01*
X0238569Y0159489D01*
X0238496Y0159395D01*
X0238427Y0159299D01*
X0238361Y0159201D01*
X0238299Y0159101D01*
X0238240Y0158999D01*
X0238184Y0158894D01*
X0238132Y0158788D01*
X0238084Y0158680D01*
X0238039Y0158571D01*
X0237998Y0158460D01*
X0237961Y0158348D01*
X0237927Y0158234D01*
X0237897Y0158120D01*
X0237872Y0158005D01*
X0237850Y0157888D01*
X0237832Y0157771D01*
X0237818Y0157654D01*
X0237808Y0157536D01*
X0237802Y0157418D01*
X0237800Y0157300D01*
X0237800Y0155800D02*
X0236300Y0155800D01*
X0229800Y0090800D02*
X0242800Y0090800D01*
X0242887Y0090798D01*
X0242974Y0090792D01*
X0243061Y0090783D01*
X0243147Y0090770D01*
X0243233Y0090753D01*
X0243318Y0090732D01*
X0243401Y0090707D01*
X0243484Y0090679D01*
X0243565Y0090648D01*
X0243645Y0090613D01*
X0243723Y0090574D01*
X0243800Y0090532D01*
X0243875Y0090487D01*
X0243947Y0090438D01*
X0244018Y0090387D01*
X0244086Y0090332D01*
X0244151Y0090275D01*
X0244214Y0090214D01*
X0244275Y0090151D01*
X0244332Y0090086D01*
X0244387Y0090018D01*
X0244438Y0089947D01*
X0244487Y0089875D01*
X0244532Y0089800D01*
X0244574Y0089723D01*
X0244613Y0089645D01*
X0244648Y0089565D01*
X0244679Y0089484D01*
X0244707Y0089401D01*
X0244732Y0089318D01*
X0244753Y0089233D01*
X0244770Y0089147D01*
X0244783Y0089061D01*
X0244792Y0088974D01*
X0244798Y0088887D01*
X0244800Y0088800D01*
X0244800Y0083800D01*
X0244798Y0083713D01*
X0244792Y0083626D01*
X0244783Y0083539D01*
X0244770Y0083453D01*
X0244753Y0083367D01*
X0244732Y0083282D01*
X0244707Y0083199D01*
X0244679Y0083116D01*
X0244648Y0083035D01*
X0244613Y0082955D01*
X0244574Y0082877D01*
X0244532Y0082800D01*
X0244487Y0082725D01*
X0244438Y0082653D01*
X0244387Y0082582D01*
X0244332Y0082514D01*
X0244275Y0082449D01*
X0244214Y0082386D01*
X0244151Y0082325D01*
X0244086Y0082268D01*
X0244018Y0082213D01*
X0243947Y0082162D01*
X0243875Y0082113D01*
X0243800Y0082068D01*
X0243723Y0082026D01*
X0243645Y0081987D01*
X0243565Y0081952D01*
X0243484Y0081921D01*
X0243401Y0081893D01*
X0243318Y0081868D01*
X0243233Y0081847D01*
X0243147Y0081830D01*
X0243061Y0081817D01*
X0242974Y0081808D01*
X0242887Y0081802D01*
X0242800Y0081800D01*
X0229800Y0081800D01*
X0229713Y0081802D01*
X0229626Y0081808D01*
X0229539Y0081817D01*
X0229453Y0081830D01*
X0229367Y0081847D01*
X0229282Y0081868D01*
X0229199Y0081893D01*
X0229116Y0081921D01*
X0229035Y0081952D01*
X0228955Y0081987D01*
X0228877Y0082026D01*
X0228800Y0082068D01*
X0228725Y0082113D01*
X0228653Y0082162D01*
X0228582Y0082213D01*
X0228514Y0082268D01*
X0228449Y0082325D01*
X0228386Y0082386D01*
X0228325Y0082449D01*
X0228268Y0082514D01*
X0228213Y0082582D01*
X0228162Y0082653D01*
X0228113Y0082725D01*
X0228068Y0082800D01*
X0228026Y0082877D01*
X0227987Y0082955D01*
X0227952Y0083035D01*
X0227921Y0083116D01*
X0227893Y0083199D01*
X0227868Y0083282D01*
X0227847Y0083367D01*
X0227830Y0083453D01*
X0227817Y0083539D01*
X0227808Y0083626D01*
X0227802Y0083713D01*
X0227800Y0083800D01*
X0227800Y0088800D01*
X0227802Y0088887D01*
X0227808Y0088974D01*
X0227817Y0089061D01*
X0227830Y0089147D01*
X0227847Y0089233D01*
X0227868Y0089318D01*
X0227893Y0089401D01*
X0227921Y0089484D01*
X0227952Y0089565D01*
X0227987Y0089645D01*
X0228026Y0089723D01*
X0228068Y0089800D01*
X0228113Y0089875D01*
X0228162Y0089947D01*
X0228213Y0090018D01*
X0228268Y0090086D01*
X0228325Y0090151D01*
X0228386Y0090214D01*
X0228449Y0090275D01*
X0228514Y0090332D01*
X0228582Y0090387D01*
X0228653Y0090438D01*
X0228725Y0090487D01*
X0228800Y0090532D01*
X0228877Y0090574D01*
X0228955Y0090613D01*
X0229035Y0090648D01*
X0229116Y0090679D01*
X0229199Y0090707D01*
X0229282Y0090732D01*
X0229367Y0090753D01*
X0229453Y0090770D01*
X0229539Y0090783D01*
X0229626Y0090792D01*
X0229713Y0090798D01*
X0229800Y0090800D01*
D11*
X0235000Y0089300D02*
X0235000Y0083300D01*
X0237500Y0083300D02*
X0237500Y0089300D01*
X0197500Y0148300D02*
X0197500Y0154300D01*
X0195000Y0154300D02*
X0195000Y0148300D01*
D12*
X0235800Y0191300D02*
X0236800Y0191300D01*
D13*
X0095316Y0170788D02*
X0095316Y0163702D01*
X0095315Y0170788D02*
X0095227Y0170921D01*
X0095136Y0171052D01*
X0095042Y0171181D01*
X0094944Y0171308D01*
X0094844Y0171432D01*
X0094740Y0171553D01*
X0094634Y0171672D01*
X0094524Y0171789D01*
X0094412Y0171903D01*
X0094297Y0172014D01*
X0094180Y0172122D01*
X0094060Y0172227D01*
X0093937Y0172329D01*
X0093812Y0172428D01*
X0093684Y0172524D01*
X0093554Y0172617D01*
X0093422Y0172707D01*
X0093288Y0172794D01*
X0093152Y0172877D01*
X0093013Y0172957D01*
X0092873Y0173034D01*
X0092731Y0173107D01*
X0092588Y0173176D01*
X0092442Y0173242D01*
X0092295Y0173305D01*
X0092147Y0173364D01*
X0091997Y0173419D01*
X0091846Y0173471D01*
X0091693Y0173519D01*
X0091540Y0173563D01*
X0091385Y0173603D01*
X0091230Y0173640D01*
X0091074Y0173673D01*
X0090917Y0173702D01*
X0090759Y0173727D01*
X0090601Y0173748D01*
X0090442Y0173766D01*
X0090283Y0173779D01*
X0090123Y0173789D01*
X0089964Y0173795D01*
X0089804Y0173797D01*
X0089644Y0173795D01*
X0089485Y0173789D01*
X0089325Y0173779D01*
X0089166Y0173766D01*
X0089007Y0173748D01*
X0088849Y0173727D01*
X0088691Y0173702D01*
X0088534Y0173673D01*
X0088378Y0173640D01*
X0088223Y0173603D01*
X0088068Y0173563D01*
X0087915Y0173519D01*
X0087762Y0173471D01*
X0087611Y0173419D01*
X0087461Y0173364D01*
X0087313Y0173305D01*
X0087166Y0173242D01*
X0087020Y0173176D01*
X0086877Y0173107D01*
X0086735Y0173034D01*
X0086595Y0172957D01*
X0086456Y0172877D01*
X0086320Y0172794D01*
X0086186Y0172707D01*
X0086054Y0172617D01*
X0085924Y0172524D01*
X0085796Y0172428D01*
X0085671Y0172329D01*
X0085548Y0172227D01*
X0085428Y0172122D01*
X0085311Y0172014D01*
X0085196Y0171903D01*
X0085084Y0171789D01*
X0084974Y0171672D01*
X0084868Y0171553D01*
X0084764Y0171432D01*
X0084664Y0171308D01*
X0084566Y0171181D01*
X0084472Y0171052D01*
X0084381Y0170921D01*
X0084293Y0170788D01*
X0084686Y0171182D02*
X0081930Y0171182D01*
X0084293Y0163702D02*
X0084381Y0163569D01*
X0084472Y0163438D01*
X0084566Y0163309D01*
X0084664Y0163182D01*
X0084764Y0163058D01*
X0084868Y0162937D01*
X0084974Y0162818D01*
X0085084Y0162701D01*
X0085196Y0162587D01*
X0085311Y0162476D01*
X0085428Y0162368D01*
X0085548Y0162263D01*
X0085671Y0162161D01*
X0085796Y0162062D01*
X0085924Y0161966D01*
X0086054Y0161873D01*
X0086186Y0161783D01*
X0086320Y0161696D01*
X0086456Y0161613D01*
X0086595Y0161533D01*
X0086735Y0161456D01*
X0086877Y0161383D01*
X0087020Y0161314D01*
X0087166Y0161248D01*
X0087313Y0161185D01*
X0087461Y0161126D01*
X0087611Y0161071D01*
X0087762Y0161019D01*
X0087915Y0160971D01*
X0088068Y0160927D01*
X0088223Y0160887D01*
X0088378Y0160850D01*
X0088534Y0160817D01*
X0088691Y0160788D01*
X0088849Y0160763D01*
X0089007Y0160742D01*
X0089166Y0160724D01*
X0089325Y0160711D01*
X0089485Y0160701D01*
X0089644Y0160695D01*
X0089804Y0160693D01*
X0089964Y0160695D01*
X0090123Y0160701D01*
X0090283Y0160711D01*
X0090442Y0160724D01*
X0090601Y0160742D01*
X0090759Y0160763D01*
X0090917Y0160788D01*
X0091074Y0160817D01*
X0091230Y0160850D01*
X0091385Y0160887D01*
X0091540Y0160927D01*
X0091693Y0160971D01*
X0091846Y0161019D01*
X0091997Y0161071D01*
X0092147Y0161126D01*
X0092295Y0161185D01*
X0092442Y0161248D01*
X0092588Y0161314D01*
X0092731Y0161383D01*
X0092873Y0161456D01*
X0093013Y0161533D01*
X0093152Y0161613D01*
X0093288Y0161696D01*
X0093422Y0161783D01*
X0093554Y0161873D01*
X0093684Y0161966D01*
X0093812Y0162062D01*
X0093937Y0162161D01*
X0094060Y0162263D01*
X0094180Y0162368D01*
X0094297Y0162476D01*
X0094412Y0162587D01*
X0094524Y0162701D01*
X0094634Y0162818D01*
X0094740Y0162937D01*
X0094844Y0163058D01*
X0094944Y0163182D01*
X0095042Y0163309D01*
X0095136Y0163438D01*
X0095227Y0163569D01*
X0095315Y0163702D01*
X0084686Y0163308D02*
X0081930Y0163308D01*
X0081536Y0158583D02*
X0081536Y0195591D01*
X0061064Y0195591D01*
X0061064Y0189292D01*
X0060972Y0189290D01*
X0060880Y0189284D01*
X0060789Y0189274D01*
X0060698Y0189261D01*
X0060608Y0189243D01*
X0060518Y0189222D01*
X0060430Y0189197D01*
X0060343Y0189168D01*
X0060257Y0189136D01*
X0060172Y0189100D01*
X0060089Y0189060D01*
X0060008Y0189017D01*
X0059929Y0188971D01*
X0059852Y0188921D01*
X0059777Y0188868D01*
X0059704Y0188811D01*
X0059634Y0188752D01*
X0059566Y0188690D01*
X0059501Y0188625D01*
X0059439Y0188557D01*
X0059380Y0188487D01*
X0059323Y0188414D01*
X0059270Y0188339D01*
X0059220Y0188262D01*
X0059174Y0188183D01*
X0059131Y0188102D01*
X0059091Y0188019D01*
X0059055Y0187934D01*
X0059023Y0187848D01*
X0058994Y0187761D01*
X0058969Y0187673D01*
X0058948Y0187583D01*
X0058930Y0187493D01*
X0058917Y0187402D01*
X0058907Y0187311D01*
X0058901Y0187219D01*
X0058899Y0187127D01*
X0058901Y0187035D01*
X0058907Y0186943D01*
X0058917Y0186852D01*
X0058930Y0186761D01*
X0058948Y0186671D01*
X0058969Y0186581D01*
X0058994Y0186493D01*
X0059023Y0186406D01*
X0059055Y0186320D01*
X0059091Y0186235D01*
X0059131Y0186152D01*
X0059174Y0186071D01*
X0059220Y0185992D01*
X0059270Y0185915D01*
X0059323Y0185840D01*
X0059380Y0185767D01*
X0059439Y0185697D01*
X0059501Y0185629D01*
X0059566Y0185564D01*
X0059634Y0185502D01*
X0059704Y0185443D01*
X0059777Y0185386D01*
X0059852Y0185333D01*
X0059929Y0185283D01*
X0060008Y0185237D01*
X0060089Y0185194D01*
X0060172Y0185154D01*
X0060257Y0185118D01*
X0060343Y0185086D01*
X0060430Y0185057D01*
X0060518Y0185032D01*
X0060608Y0185011D01*
X0060698Y0184993D01*
X0060789Y0184980D01*
X0060880Y0184970D01*
X0060972Y0184964D01*
X0061064Y0184962D01*
X0061064Y0184961D02*
X0061064Y0158583D01*
X0081536Y0158583D01*
X0060670Y0163308D02*
X0057914Y0163308D01*
X0058307Y0163702D02*
X0058219Y0163569D01*
X0058128Y0163438D01*
X0058034Y0163309D01*
X0057936Y0163182D01*
X0057836Y0163058D01*
X0057732Y0162937D01*
X0057626Y0162818D01*
X0057516Y0162701D01*
X0057404Y0162587D01*
X0057289Y0162476D01*
X0057172Y0162368D01*
X0057052Y0162263D01*
X0056929Y0162161D01*
X0056804Y0162062D01*
X0056676Y0161966D01*
X0056546Y0161873D01*
X0056414Y0161783D01*
X0056280Y0161696D01*
X0056144Y0161613D01*
X0056005Y0161533D01*
X0055865Y0161456D01*
X0055723Y0161383D01*
X0055580Y0161314D01*
X0055434Y0161248D01*
X0055287Y0161185D01*
X0055139Y0161126D01*
X0054989Y0161071D01*
X0054838Y0161019D01*
X0054685Y0160971D01*
X0054532Y0160927D01*
X0054377Y0160887D01*
X0054222Y0160850D01*
X0054066Y0160817D01*
X0053909Y0160788D01*
X0053751Y0160763D01*
X0053593Y0160742D01*
X0053434Y0160724D01*
X0053275Y0160711D01*
X0053115Y0160701D01*
X0052956Y0160695D01*
X0052796Y0160693D01*
X0052636Y0160695D01*
X0052477Y0160701D01*
X0052317Y0160711D01*
X0052158Y0160724D01*
X0051999Y0160742D01*
X0051841Y0160763D01*
X0051683Y0160788D01*
X0051526Y0160817D01*
X0051370Y0160850D01*
X0051215Y0160887D01*
X0051060Y0160927D01*
X0050907Y0160971D01*
X0050754Y0161019D01*
X0050603Y0161071D01*
X0050453Y0161126D01*
X0050305Y0161185D01*
X0050158Y0161248D01*
X0050012Y0161314D01*
X0049869Y0161383D01*
X0049727Y0161456D01*
X0049587Y0161533D01*
X0049448Y0161613D01*
X0049312Y0161696D01*
X0049178Y0161783D01*
X0049046Y0161873D01*
X0048916Y0161966D01*
X0048788Y0162062D01*
X0048663Y0162161D01*
X0048540Y0162263D01*
X0048420Y0162368D01*
X0048303Y0162476D01*
X0048188Y0162587D01*
X0048076Y0162701D01*
X0047966Y0162818D01*
X0047860Y0162937D01*
X0047756Y0163058D01*
X0047656Y0163182D01*
X0047558Y0163309D01*
X0047464Y0163438D01*
X0047373Y0163569D01*
X0047285Y0163702D01*
X0047284Y0163702D02*
X0047284Y0170788D01*
X0047285Y0170788D02*
X0047373Y0170921D01*
X0047464Y0171052D01*
X0047558Y0171181D01*
X0047656Y0171308D01*
X0047756Y0171432D01*
X0047860Y0171553D01*
X0047966Y0171672D01*
X0048076Y0171789D01*
X0048188Y0171903D01*
X0048303Y0172014D01*
X0048420Y0172122D01*
X0048540Y0172227D01*
X0048663Y0172329D01*
X0048788Y0172428D01*
X0048916Y0172524D01*
X0049046Y0172617D01*
X0049178Y0172707D01*
X0049312Y0172794D01*
X0049448Y0172877D01*
X0049587Y0172957D01*
X0049727Y0173034D01*
X0049869Y0173107D01*
X0050012Y0173176D01*
X0050158Y0173242D01*
X0050305Y0173305D01*
X0050453Y0173364D01*
X0050603Y0173419D01*
X0050754Y0173471D01*
X0050907Y0173519D01*
X0051060Y0173563D01*
X0051215Y0173603D01*
X0051370Y0173640D01*
X0051526Y0173673D01*
X0051683Y0173702D01*
X0051841Y0173727D01*
X0051999Y0173748D01*
X0052158Y0173766D01*
X0052317Y0173779D01*
X0052477Y0173789D01*
X0052636Y0173795D01*
X0052796Y0173797D01*
X0052956Y0173795D01*
X0053115Y0173789D01*
X0053275Y0173779D01*
X0053434Y0173766D01*
X0053593Y0173748D01*
X0053751Y0173727D01*
X0053909Y0173702D01*
X0054066Y0173673D01*
X0054222Y0173640D01*
X0054377Y0173603D01*
X0054532Y0173563D01*
X0054685Y0173519D01*
X0054838Y0173471D01*
X0054989Y0173419D01*
X0055139Y0173364D01*
X0055287Y0173305D01*
X0055434Y0173242D01*
X0055580Y0173176D01*
X0055723Y0173107D01*
X0055865Y0173034D01*
X0056005Y0172957D01*
X0056144Y0172877D01*
X0056280Y0172794D01*
X0056414Y0172707D01*
X0056546Y0172617D01*
X0056676Y0172524D01*
X0056804Y0172428D01*
X0056929Y0172329D01*
X0057052Y0172227D01*
X0057172Y0172122D01*
X0057289Y0172014D01*
X0057404Y0171903D01*
X0057516Y0171789D01*
X0057626Y0171672D01*
X0057732Y0171553D01*
X0057836Y0171432D01*
X0057936Y0171308D01*
X0058034Y0171181D01*
X0058128Y0171052D01*
X0058219Y0170921D01*
X0058307Y0170788D01*
X0057914Y0171182D02*
X0060670Y0171182D01*
M02*
