G75*
%MOIN*%
%OFA0B0*%
%FSLAX25Y25*%
%IPPOS*%
%LPD*%
%AMOC8*
5,1,8,0,0,1.08239X$1,22.5*
%
%ADD10C,0.00600*%
%ADD11C,0.01000*%
%ADD12R,0.03400X0.02400*%
D10*
X0049000Y0027500D02*
X0065000Y0027500D01*
X0065060Y0027502D01*
X0065121Y0027507D01*
X0065180Y0027516D01*
X0065239Y0027529D01*
X0065298Y0027545D01*
X0065355Y0027565D01*
X0065410Y0027588D01*
X0065465Y0027615D01*
X0065517Y0027644D01*
X0065568Y0027677D01*
X0065617Y0027713D01*
X0065663Y0027751D01*
X0065707Y0027793D01*
X0065749Y0027837D01*
X0065787Y0027883D01*
X0065823Y0027932D01*
X0065856Y0027983D01*
X0065885Y0028035D01*
X0065912Y0028090D01*
X0065935Y0028145D01*
X0065955Y0028202D01*
X0065971Y0028261D01*
X0065984Y0028320D01*
X0065993Y0028379D01*
X0065998Y0028440D01*
X0066000Y0028500D01*
X0066000Y0045500D01*
X0065998Y0045560D01*
X0065993Y0045621D01*
X0065984Y0045680D01*
X0065971Y0045739D01*
X0065955Y0045798D01*
X0065935Y0045855D01*
X0065912Y0045910D01*
X0065885Y0045965D01*
X0065856Y0046017D01*
X0065823Y0046068D01*
X0065787Y0046117D01*
X0065749Y0046163D01*
X0065707Y0046207D01*
X0065663Y0046249D01*
X0065617Y0046287D01*
X0065568Y0046323D01*
X0065517Y0046356D01*
X0065465Y0046385D01*
X0065410Y0046412D01*
X0065355Y0046435D01*
X0065298Y0046455D01*
X0065239Y0046471D01*
X0065180Y0046484D01*
X0065121Y0046493D01*
X0065060Y0046498D01*
X0065000Y0046500D01*
X0049000Y0046500D01*
X0048940Y0046498D01*
X0048879Y0046493D01*
X0048820Y0046484D01*
X0048761Y0046471D01*
X0048702Y0046455D01*
X0048645Y0046435D01*
X0048590Y0046412D01*
X0048535Y0046385D01*
X0048483Y0046356D01*
X0048432Y0046323D01*
X0048383Y0046287D01*
X0048337Y0046249D01*
X0048293Y0046207D01*
X0048251Y0046163D01*
X0048213Y0046117D01*
X0048177Y0046068D01*
X0048144Y0046017D01*
X0048115Y0045965D01*
X0048088Y0045910D01*
X0048065Y0045855D01*
X0048045Y0045798D01*
X0048029Y0045739D01*
X0048016Y0045680D01*
X0048007Y0045621D01*
X0048002Y0045560D01*
X0048000Y0045500D01*
X0048000Y0028500D01*
X0048002Y0028440D01*
X0048007Y0028379D01*
X0048016Y0028320D01*
X0048029Y0028261D01*
X0048045Y0028202D01*
X0048065Y0028145D01*
X0048088Y0028090D01*
X0048115Y0028035D01*
X0048144Y0027983D01*
X0048177Y0027932D01*
X0048213Y0027883D01*
X0048251Y0027837D01*
X0048293Y0027793D01*
X0048337Y0027751D01*
X0048383Y0027713D01*
X0048432Y0027677D01*
X0048483Y0027644D01*
X0048535Y0027615D01*
X0048590Y0027588D01*
X0048645Y0027565D01*
X0048702Y0027545D01*
X0048761Y0027529D01*
X0048820Y0027516D01*
X0048879Y0027507D01*
X0048940Y0027502D01*
X0049000Y0027500D01*
X0057000Y0035500D02*
X0057000Y0036000D01*
X0057000Y0038000D02*
X0057000Y0038500D01*
X0202500Y0034000D02*
X0202500Y0050000D01*
X0202502Y0050060D01*
X0202507Y0050121D01*
X0202516Y0050180D01*
X0202529Y0050239D01*
X0202545Y0050298D01*
X0202565Y0050355D01*
X0202588Y0050410D01*
X0202615Y0050465D01*
X0202644Y0050517D01*
X0202677Y0050568D01*
X0202713Y0050617D01*
X0202751Y0050663D01*
X0202793Y0050707D01*
X0202837Y0050749D01*
X0202883Y0050787D01*
X0202932Y0050823D01*
X0202983Y0050856D01*
X0203035Y0050885D01*
X0203090Y0050912D01*
X0203145Y0050935D01*
X0203202Y0050955D01*
X0203261Y0050971D01*
X0203320Y0050984D01*
X0203379Y0050993D01*
X0203440Y0050998D01*
X0203500Y0051000D01*
X0220500Y0051000D01*
X0220560Y0050998D01*
X0220621Y0050993D01*
X0220680Y0050984D01*
X0220739Y0050971D01*
X0220798Y0050955D01*
X0220855Y0050935D01*
X0220910Y0050912D01*
X0220965Y0050885D01*
X0221017Y0050856D01*
X0221068Y0050823D01*
X0221117Y0050787D01*
X0221163Y0050749D01*
X0221207Y0050707D01*
X0221249Y0050663D01*
X0221287Y0050617D01*
X0221323Y0050568D01*
X0221356Y0050517D01*
X0221385Y0050465D01*
X0221412Y0050410D01*
X0221435Y0050355D01*
X0221455Y0050298D01*
X0221471Y0050239D01*
X0221484Y0050180D01*
X0221493Y0050121D01*
X0221498Y0050060D01*
X0221500Y0050000D01*
X0221500Y0034000D01*
X0221498Y0033940D01*
X0221493Y0033879D01*
X0221484Y0033820D01*
X0221471Y0033761D01*
X0221455Y0033702D01*
X0221435Y0033645D01*
X0221412Y0033590D01*
X0221385Y0033535D01*
X0221356Y0033483D01*
X0221323Y0033432D01*
X0221287Y0033383D01*
X0221249Y0033337D01*
X0221207Y0033293D01*
X0221163Y0033251D01*
X0221117Y0033213D01*
X0221068Y0033177D01*
X0221017Y0033144D01*
X0220965Y0033115D01*
X0220910Y0033088D01*
X0220855Y0033065D01*
X0220798Y0033045D01*
X0220739Y0033029D01*
X0220680Y0033016D01*
X0220621Y0033007D01*
X0220560Y0033002D01*
X0220500Y0033000D01*
X0203500Y0033000D01*
X0203440Y0033002D01*
X0203379Y0033007D01*
X0203320Y0033016D01*
X0203261Y0033029D01*
X0203202Y0033045D01*
X0203145Y0033065D01*
X0203090Y0033088D01*
X0203035Y0033115D01*
X0202983Y0033144D01*
X0202932Y0033177D01*
X0202883Y0033213D01*
X0202837Y0033251D01*
X0202793Y0033293D01*
X0202751Y0033337D01*
X0202713Y0033383D01*
X0202677Y0033432D01*
X0202644Y0033483D01*
X0202615Y0033535D01*
X0202588Y0033590D01*
X0202565Y0033645D01*
X0202545Y0033702D01*
X0202529Y0033761D01*
X0202516Y0033820D01*
X0202507Y0033879D01*
X0202502Y0033940D01*
X0202500Y0034000D01*
X0210500Y0042000D02*
X0211000Y0042000D01*
X0213000Y0042000D02*
X0213500Y0042000D01*
X0217000Y0127500D02*
X0216500Y0128000D01*
X0197500Y0128000D01*
X0197000Y0127500D01*
X0195500Y0127500D01*
X0195440Y0127502D01*
X0195379Y0127507D01*
X0195320Y0127516D01*
X0195261Y0127529D01*
X0195202Y0127545D01*
X0195145Y0127565D01*
X0195090Y0127588D01*
X0195035Y0127615D01*
X0194983Y0127644D01*
X0194932Y0127677D01*
X0194883Y0127713D01*
X0194837Y0127751D01*
X0194793Y0127793D01*
X0194751Y0127837D01*
X0194713Y0127883D01*
X0194677Y0127932D01*
X0194644Y0127983D01*
X0194615Y0128035D01*
X0194588Y0128090D01*
X0194565Y0128145D01*
X0194545Y0128202D01*
X0194529Y0128261D01*
X0194516Y0128320D01*
X0194507Y0128379D01*
X0194502Y0128440D01*
X0194500Y0128500D01*
X0194500Y0135500D01*
X0194502Y0135560D01*
X0194507Y0135621D01*
X0194516Y0135680D01*
X0194529Y0135739D01*
X0194545Y0135798D01*
X0194565Y0135855D01*
X0194588Y0135910D01*
X0194615Y0135965D01*
X0194644Y0136017D01*
X0194677Y0136068D01*
X0194713Y0136117D01*
X0194751Y0136163D01*
X0194793Y0136207D01*
X0194837Y0136249D01*
X0194883Y0136287D01*
X0194932Y0136323D01*
X0194983Y0136356D01*
X0195035Y0136385D01*
X0195090Y0136412D01*
X0195145Y0136435D01*
X0195202Y0136455D01*
X0195261Y0136471D01*
X0195320Y0136484D01*
X0195379Y0136493D01*
X0195440Y0136498D01*
X0195500Y0136500D01*
X0197000Y0136500D01*
X0197500Y0136000D01*
X0216500Y0136000D01*
X0217000Y0136500D01*
X0218500Y0136500D01*
X0218560Y0136498D01*
X0218621Y0136493D01*
X0218680Y0136484D01*
X0218739Y0136471D01*
X0218798Y0136455D01*
X0218855Y0136435D01*
X0218910Y0136412D01*
X0218965Y0136385D01*
X0219017Y0136356D01*
X0219068Y0136323D01*
X0219117Y0136287D01*
X0219163Y0136249D01*
X0219207Y0136207D01*
X0219249Y0136163D01*
X0219287Y0136117D01*
X0219323Y0136068D01*
X0219356Y0136017D01*
X0219385Y0135965D01*
X0219412Y0135910D01*
X0219435Y0135855D01*
X0219455Y0135798D01*
X0219471Y0135739D01*
X0219484Y0135680D01*
X0219493Y0135621D01*
X0219498Y0135560D01*
X0219500Y0135500D01*
X0219500Y0128500D01*
X0219498Y0128440D01*
X0219493Y0128379D01*
X0219484Y0128320D01*
X0219471Y0128261D01*
X0219455Y0128202D01*
X0219435Y0128145D01*
X0219412Y0128090D01*
X0219385Y0128035D01*
X0219356Y0127983D01*
X0219323Y0127932D01*
X0219287Y0127883D01*
X0219249Y0127837D01*
X0219207Y0127793D01*
X0219163Y0127751D01*
X0219117Y0127713D01*
X0219068Y0127677D01*
X0219017Y0127644D01*
X0218965Y0127615D01*
X0218910Y0127588D01*
X0218855Y0127565D01*
X0218798Y0127545D01*
X0218739Y0127529D01*
X0218680Y0127516D01*
X0218621Y0127507D01*
X0218560Y0127502D01*
X0218500Y0127500D01*
X0217000Y0127500D01*
X0282000Y0127000D02*
X0282000Y0128500D01*
X0282000Y0127000D02*
X0292000Y0127000D01*
X0292000Y0128500D01*
X0290417Y0129071D02*
X0290328Y0128971D01*
X0290236Y0128873D01*
X0290142Y0128779D01*
X0290045Y0128687D01*
X0289945Y0128598D01*
X0289843Y0128512D01*
X0289738Y0128429D01*
X0289630Y0128349D01*
X0289521Y0128272D01*
X0289409Y0128199D01*
X0289295Y0128129D01*
X0289179Y0128063D01*
X0289061Y0128000D01*
X0288941Y0127940D01*
X0288819Y0127884D01*
X0288696Y0127832D01*
X0288571Y0127783D01*
X0288445Y0127738D01*
X0288318Y0127697D01*
X0288190Y0127660D01*
X0288060Y0127627D01*
X0287930Y0127597D01*
X0287798Y0127571D01*
X0287666Y0127550D01*
X0287534Y0127532D01*
X0287401Y0127518D01*
X0287267Y0127508D01*
X0287134Y0127502D01*
X0287000Y0127500D01*
X0286866Y0127502D01*
X0286733Y0127508D01*
X0286599Y0127518D01*
X0286466Y0127532D01*
X0286334Y0127550D01*
X0286202Y0127571D01*
X0286070Y0127597D01*
X0285940Y0127627D01*
X0285810Y0127660D01*
X0285682Y0127697D01*
X0285555Y0127738D01*
X0285429Y0127783D01*
X0285304Y0127832D01*
X0285181Y0127884D01*
X0285059Y0127940D01*
X0284939Y0128000D01*
X0284821Y0128063D01*
X0284705Y0128129D01*
X0284591Y0128199D01*
X0284479Y0128272D01*
X0284370Y0128349D01*
X0284262Y0128429D01*
X0284157Y0128512D01*
X0284055Y0128598D01*
X0283955Y0128687D01*
X0283858Y0128779D01*
X0283764Y0128873D01*
X0283672Y0128971D01*
X0283583Y0129071D01*
X0283583Y0134929D02*
X0283672Y0135029D01*
X0283764Y0135127D01*
X0283858Y0135221D01*
X0283955Y0135313D01*
X0284055Y0135402D01*
X0284157Y0135488D01*
X0284262Y0135571D01*
X0284370Y0135651D01*
X0284479Y0135728D01*
X0284591Y0135801D01*
X0284705Y0135871D01*
X0284821Y0135937D01*
X0284939Y0136000D01*
X0285059Y0136060D01*
X0285181Y0136116D01*
X0285304Y0136168D01*
X0285429Y0136217D01*
X0285555Y0136262D01*
X0285682Y0136303D01*
X0285810Y0136340D01*
X0285940Y0136373D01*
X0286070Y0136403D01*
X0286202Y0136429D01*
X0286334Y0136450D01*
X0286466Y0136468D01*
X0286599Y0136482D01*
X0286733Y0136492D01*
X0286866Y0136498D01*
X0287000Y0136500D01*
X0292000Y0137000D02*
X0292000Y0135500D01*
X0292000Y0137000D02*
X0282000Y0137000D01*
X0282000Y0135500D01*
X0287000Y0130000D02*
X0287087Y0130002D01*
X0287174Y0130008D01*
X0287261Y0130017D01*
X0287347Y0130030D01*
X0287433Y0130047D01*
X0287518Y0130068D01*
X0287601Y0130093D01*
X0287684Y0130121D01*
X0287765Y0130152D01*
X0287845Y0130187D01*
X0287923Y0130226D01*
X0288000Y0130268D01*
X0288075Y0130313D01*
X0288147Y0130362D01*
X0288218Y0130413D01*
X0288286Y0130468D01*
X0288351Y0130525D01*
X0288414Y0130586D01*
X0288475Y0130649D01*
X0288532Y0130714D01*
X0288587Y0130782D01*
X0288638Y0130853D01*
X0288687Y0130925D01*
X0288732Y0131000D01*
X0288774Y0131077D01*
X0288813Y0131155D01*
X0288848Y0131235D01*
X0288879Y0131316D01*
X0288907Y0131399D01*
X0288932Y0131482D01*
X0288953Y0131567D01*
X0288970Y0131653D01*
X0288983Y0131739D01*
X0288992Y0131826D01*
X0288998Y0131913D01*
X0289000Y0132000D01*
X0290417Y0134929D02*
X0290328Y0135029D01*
X0290236Y0135127D01*
X0290142Y0135221D01*
X0290045Y0135313D01*
X0289945Y0135402D01*
X0289843Y0135488D01*
X0289738Y0135571D01*
X0289630Y0135651D01*
X0289521Y0135728D01*
X0289409Y0135801D01*
X0289295Y0135871D01*
X0289179Y0135937D01*
X0289061Y0136000D01*
X0288941Y0136060D01*
X0288819Y0136116D01*
X0288696Y0136168D01*
X0288571Y0136217D01*
X0288445Y0136262D01*
X0288318Y0136303D01*
X0288190Y0136340D01*
X0288060Y0136373D01*
X0287930Y0136403D01*
X0287798Y0136429D01*
X0287666Y0136450D01*
X0287534Y0136468D01*
X0287401Y0136482D01*
X0287267Y0136492D01*
X0287134Y0136498D01*
X0287000Y0136500D01*
D11*
X0213000Y0045000D02*
X0213000Y0042000D01*
X0213000Y0039000D01*
X0211000Y0039000D02*
X0211000Y0042000D01*
X0211000Y0045000D01*
X0086291Y0106764D02*
X0049283Y0106764D01*
X0049283Y0127236D01*
X0075661Y0127236D01*
X0075662Y0127236D02*
X0075664Y0127328D01*
X0075670Y0127420D01*
X0075680Y0127511D01*
X0075693Y0127602D01*
X0075711Y0127692D01*
X0075732Y0127782D01*
X0075757Y0127870D01*
X0075786Y0127957D01*
X0075818Y0128043D01*
X0075854Y0128128D01*
X0075894Y0128211D01*
X0075937Y0128292D01*
X0075983Y0128371D01*
X0076033Y0128448D01*
X0076086Y0128523D01*
X0076143Y0128596D01*
X0076202Y0128666D01*
X0076264Y0128734D01*
X0076329Y0128799D01*
X0076397Y0128861D01*
X0076467Y0128920D01*
X0076540Y0128977D01*
X0076615Y0129030D01*
X0076692Y0129080D01*
X0076771Y0129126D01*
X0076852Y0129169D01*
X0076935Y0129209D01*
X0077020Y0129245D01*
X0077106Y0129277D01*
X0077193Y0129306D01*
X0077281Y0129331D01*
X0077371Y0129352D01*
X0077461Y0129370D01*
X0077552Y0129383D01*
X0077643Y0129393D01*
X0077735Y0129399D01*
X0077827Y0129401D01*
X0077919Y0129399D01*
X0078011Y0129393D01*
X0078102Y0129383D01*
X0078193Y0129370D01*
X0078283Y0129352D01*
X0078373Y0129331D01*
X0078461Y0129306D01*
X0078548Y0129277D01*
X0078634Y0129245D01*
X0078719Y0129209D01*
X0078802Y0129169D01*
X0078883Y0129126D01*
X0078962Y0129080D01*
X0079039Y0129030D01*
X0079114Y0128977D01*
X0079187Y0128920D01*
X0079257Y0128861D01*
X0079325Y0128799D01*
X0079390Y0128734D01*
X0079452Y0128666D01*
X0079511Y0128596D01*
X0079568Y0128523D01*
X0079621Y0128448D01*
X0079671Y0128371D01*
X0079717Y0128292D01*
X0079760Y0128211D01*
X0079800Y0128128D01*
X0079836Y0128043D01*
X0079868Y0127957D01*
X0079897Y0127870D01*
X0079922Y0127782D01*
X0079943Y0127692D01*
X0079961Y0127602D01*
X0079974Y0127511D01*
X0079984Y0127420D01*
X0079990Y0127328D01*
X0079992Y0127236D01*
X0086291Y0127236D01*
X0086291Y0106764D01*
X0061882Y0106370D02*
X0061882Y0103614D01*
X0054008Y0103614D02*
X0054008Y0106370D01*
X0061488Y0104007D02*
X0061621Y0103919D01*
X0061752Y0103828D01*
X0061881Y0103734D01*
X0062008Y0103636D01*
X0062132Y0103536D01*
X0062253Y0103432D01*
X0062372Y0103326D01*
X0062489Y0103216D01*
X0062603Y0103104D01*
X0062714Y0102989D01*
X0062822Y0102872D01*
X0062927Y0102752D01*
X0063029Y0102629D01*
X0063128Y0102504D01*
X0063224Y0102376D01*
X0063317Y0102246D01*
X0063407Y0102114D01*
X0063494Y0101980D01*
X0063577Y0101844D01*
X0063657Y0101705D01*
X0063734Y0101565D01*
X0063807Y0101423D01*
X0063876Y0101280D01*
X0063942Y0101134D01*
X0064005Y0100987D01*
X0064064Y0100839D01*
X0064119Y0100689D01*
X0064171Y0100538D01*
X0064219Y0100385D01*
X0064263Y0100232D01*
X0064303Y0100077D01*
X0064340Y0099922D01*
X0064373Y0099766D01*
X0064402Y0099609D01*
X0064427Y0099451D01*
X0064448Y0099293D01*
X0064466Y0099134D01*
X0064479Y0098975D01*
X0064489Y0098815D01*
X0064495Y0098656D01*
X0064497Y0098496D01*
X0064495Y0098336D01*
X0064489Y0098177D01*
X0064479Y0098017D01*
X0064466Y0097858D01*
X0064448Y0097699D01*
X0064427Y0097541D01*
X0064402Y0097383D01*
X0064373Y0097226D01*
X0064340Y0097070D01*
X0064303Y0096915D01*
X0064263Y0096760D01*
X0064219Y0096607D01*
X0064171Y0096454D01*
X0064119Y0096303D01*
X0064064Y0096153D01*
X0064005Y0096005D01*
X0063942Y0095858D01*
X0063876Y0095712D01*
X0063807Y0095569D01*
X0063734Y0095427D01*
X0063657Y0095287D01*
X0063577Y0095148D01*
X0063494Y0095012D01*
X0063407Y0094878D01*
X0063317Y0094746D01*
X0063224Y0094616D01*
X0063128Y0094488D01*
X0063029Y0094363D01*
X0062927Y0094240D01*
X0062822Y0094120D01*
X0062714Y0094003D01*
X0062603Y0093888D01*
X0062489Y0093776D01*
X0062372Y0093666D01*
X0062253Y0093560D01*
X0062132Y0093456D01*
X0062008Y0093356D01*
X0061881Y0093258D01*
X0061752Y0093164D01*
X0061621Y0093073D01*
X0061488Y0092985D01*
X0061488Y0092984D02*
X0054402Y0092984D01*
X0054402Y0092985D02*
X0054269Y0093073D01*
X0054138Y0093164D01*
X0054009Y0093258D01*
X0053882Y0093356D01*
X0053758Y0093456D01*
X0053637Y0093560D01*
X0053518Y0093666D01*
X0053401Y0093776D01*
X0053287Y0093888D01*
X0053176Y0094003D01*
X0053068Y0094120D01*
X0052963Y0094240D01*
X0052861Y0094363D01*
X0052762Y0094488D01*
X0052666Y0094616D01*
X0052573Y0094746D01*
X0052483Y0094878D01*
X0052396Y0095012D01*
X0052313Y0095148D01*
X0052233Y0095287D01*
X0052156Y0095427D01*
X0052083Y0095569D01*
X0052014Y0095712D01*
X0051948Y0095858D01*
X0051885Y0096005D01*
X0051826Y0096153D01*
X0051771Y0096303D01*
X0051719Y0096454D01*
X0051671Y0096607D01*
X0051627Y0096760D01*
X0051587Y0096915D01*
X0051550Y0097070D01*
X0051517Y0097226D01*
X0051488Y0097383D01*
X0051463Y0097541D01*
X0051442Y0097699D01*
X0051424Y0097858D01*
X0051411Y0098017D01*
X0051401Y0098177D01*
X0051395Y0098336D01*
X0051393Y0098496D01*
X0051395Y0098656D01*
X0051401Y0098815D01*
X0051411Y0098975D01*
X0051424Y0099134D01*
X0051442Y0099293D01*
X0051463Y0099451D01*
X0051488Y0099609D01*
X0051517Y0099766D01*
X0051550Y0099922D01*
X0051587Y0100077D01*
X0051627Y0100232D01*
X0051671Y0100385D01*
X0051719Y0100538D01*
X0051771Y0100689D01*
X0051826Y0100839D01*
X0051885Y0100987D01*
X0051948Y0101134D01*
X0052014Y0101280D01*
X0052083Y0101423D01*
X0052156Y0101565D01*
X0052233Y0101705D01*
X0052313Y0101844D01*
X0052396Y0101980D01*
X0052483Y0102114D01*
X0052573Y0102246D01*
X0052666Y0102376D01*
X0052762Y0102504D01*
X0052861Y0102629D01*
X0052963Y0102752D01*
X0053068Y0102872D01*
X0053176Y0102989D01*
X0053287Y0103104D01*
X0053401Y0103216D01*
X0053518Y0103326D01*
X0053637Y0103432D01*
X0053758Y0103536D01*
X0053882Y0103636D01*
X0054009Y0103734D01*
X0054138Y0103828D01*
X0054269Y0103919D01*
X0054402Y0104007D01*
X0054008Y0127630D02*
X0054008Y0130386D01*
X0061882Y0130386D02*
X0061882Y0127630D01*
X0054402Y0129993D02*
X0054269Y0130081D01*
X0054138Y0130172D01*
X0054009Y0130266D01*
X0053882Y0130364D01*
X0053758Y0130464D01*
X0053637Y0130568D01*
X0053518Y0130674D01*
X0053401Y0130784D01*
X0053287Y0130896D01*
X0053176Y0131011D01*
X0053068Y0131128D01*
X0052963Y0131248D01*
X0052861Y0131371D01*
X0052762Y0131496D01*
X0052666Y0131624D01*
X0052573Y0131754D01*
X0052483Y0131886D01*
X0052396Y0132020D01*
X0052313Y0132156D01*
X0052233Y0132295D01*
X0052156Y0132435D01*
X0052083Y0132577D01*
X0052014Y0132720D01*
X0051948Y0132866D01*
X0051885Y0133013D01*
X0051826Y0133161D01*
X0051771Y0133311D01*
X0051719Y0133462D01*
X0051671Y0133615D01*
X0051627Y0133768D01*
X0051587Y0133923D01*
X0051550Y0134078D01*
X0051517Y0134234D01*
X0051488Y0134391D01*
X0051463Y0134549D01*
X0051442Y0134707D01*
X0051424Y0134866D01*
X0051411Y0135025D01*
X0051401Y0135185D01*
X0051395Y0135344D01*
X0051393Y0135504D01*
X0051395Y0135664D01*
X0051401Y0135823D01*
X0051411Y0135983D01*
X0051424Y0136142D01*
X0051442Y0136301D01*
X0051463Y0136459D01*
X0051488Y0136617D01*
X0051517Y0136774D01*
X0051550Y0136930D01*
X0051587Y0137085D01*
X0051627Y0137240D01*
X0051671Y0137393D01*
X0051719Y0137546D01*
X0051771Y0137697D01*
X0051826Y0137847D01*
X0051885Y0137995D01*
X0051948Y0138142D01*
X0052014Y0138288D01*
X0052083Y0138431D01*
X0052156Y0138573D01*
X0052233Y0138713D01*
X0052313Y0138852D01*
X0052396Y0138988D01*
X0052483Y0139122D01*
X0052573Y0139254D01*
X0052666Y0139384D01*
X0052762Y0139512D01*
X0052861Y0139637D01*
X0052963Y0139760D01*
X0053068Y0139880D01*
X0053176Y0139997D01*
X0053287Y0140112D01*
X0053401Y0140224D01*
X0053518Y0140334D01*
X0053637Y0140440D01*
X0053758Y0140544D01*
X0053882Y0140644D01*
X0054009Y0140742D01*
X0054138Y0140836D01*
X0054269Y0140927D01*
X0054402Y0141015D01*
X0054402Y0141016D02*
X0061488Y0141016D01*
X0061488Y0141015D02*
X0061621Y0140927D01*
X0061752Y0140836D01*
X0061881Y0140742D01*
X0062008Y0140644D01*
X0062132Y0140544D01*
X0062253Y0140440D01*
X0062372Y0140334D01*
X0062489Y0140224D01*
X0062603Y0140112D01*
X0062714Y0139997D01*
X0062822Y0139880D01*
X0062927Y0139760D01*
X0063029Y0139637D01*
X0063128Y0139512D01*
X0063224Y0139384D01*
X0063317Y0139254D01*
X0063407Y0139122D01*
X0063494Y0138988D01*
X0063577Y0138852D01*
X0063657Y0138713D01*
X0063734Y0138573D01*
X0063807Y0138431D01*
X0063876Y0138288D01*
X0063942Y0138142D01*
X0064005Y0137995D01*
X0064064Y0137847D01*
X0064119Y0137697D01*
X0064171Y0137546D01*
X0064219Y0137393D01*
X0064263Y0137240D01*
X0064303Y0137085D01*
X0064340Y0136930D01*
X0064373Y0136774D01*
X0064402Y0136617D01*
X0064427Y0136459D01*
X0064448Y0136301D01*
X0064466Y0136142D01*
X0064479Y0135983D01*
X0064489Y0135823D01*
X0064495Y0135664D01*
X0064497Y0135504D01*
X0064495Y0135344D01*
X0064489Y0135185D01*
X0064479Y0135025D01*
X0064466Y0134866D01*
X0064448Y0134707D01*
X0064427Y0134549D01*
X0064402Y0134391D01*
X0064373Y0134234D01*
X0064340Y0134078D01*
X0064303Y0133923D01*
X0064263Y0133768D01*
X0064219Y0133615D01*
X0064171Y0133462D01*
X0064119Y0133311D01*
X0064064Y0133161D01*
X0064005Y0133013D01*
X0063942Y0132866D01*
X0063876Y0132720D01*
X0063807Y0132577D01*
X0063734Y0132435D01*
X0063657Y0132295D01*
X0063577Y0132156D01*
X0063494Y0132020D01*
X0063407Y0131886D01*
X0063317Y0131754D01*
X0063224Y0131624D01*
X0063128Y0131496D01*
X0063029Y0131371D01*
X0062927Y0131248D01*
X0062822Y0131128D01*
X0062714Y0131011D01*
X0062603Y0130896D01*
X0062489Y0130784D01*
X0062372Y0130674D01*
X0062253Y0130568D01*
X0062132Y0130464D01*
X0062008Y0130364D01*
X0061881Y0130266D01*
X0061752Y0130172D01*
X0061621Y0130081D01*
X0061488Y0129993D01*
X0060000Y0038000D02*
X0057000Y0038000D01*
X0054000Y0038000D01*
X0054000Y0036000D02*
X0057000Y0036000D01*
X0060000Y0036000D01*
D12*
X0192800Y0132000D03*
X0221200Y0132000D03*
M02*
