G75*
%MOIN*%
%OFA0B0*%
%FSLAX25Y25*%
%IPPOS*%
%LPD*%
%AMOC8*
5,1,8,0,0,1.08239X$1,22.5*
%
%ADD10C,0.00000*%
%ADD11OC8,0.05200*%
%ADD12R,0.04331X0.02362*%
%ADD13R,0.08268X0.08268*%
%ADD14C,0.02000*%
%ADD15C,0.01000*%
%ADD16C,0.02978*%
D10*
X0002000Y0002000D02*
X0002000Y0161961D01*
X0310701Y0161961D01*
X0310701Y0002000D01*
X0002000Y0002000D01*
X0052078Y0098496D02*
X0052080Y0098649D01*
X0052086Y0098803D01*
X0052096Y0098956D01*
X0052110Y0099108D01*
X0052128Y0099261D01*
X0052150Y0099412D01*
X0052175Y0099563D01*
X0052205Y0099714D01*
X0052239Y0099864D01*
X0052276Y0100012D01*
X0052317Y0100160D01*
X0052362Y0100306D01*
X0052411Y0100452D01*
X0052464Y0100596D01*
X0052520Y0100738D01*
X0052580Y0100879D01*
X0052644Y0101019D01*
X0052711Y0101157D01*
X0052782Y0101293D01*
X0052857Y0101427D01*
X0052934Y0101559D01*
X0053016Y0101689D01*
X0053100Y0101817D01*
X0053188Y0101943D01*
X0053279Y0102066D01*
X0053373Y0102187D01*
X0053471Y0102305D01*
X0053571Y0102421D01*
X0053675Y0102534D01*
X0053781Y0102645D01*
X0053890Y0102753D01*
X0054002Y0102858D01*
X0054116Y0102959D01*
X0054234Y0103058D01*
X0054353Y0103154D01*
X0054475Y0103247D01*
X0054600Y0103336D01*
X0054727Y0103423D01*
X0054856Y0103505D01*
X0054987Y0103585D01*
X0055120Y0103661D01*
X0055255Y0103734D01*
X0055392Y0103803D01*
X0055531Y0103868D01*
X0055671Y0103930D01*
X0055813Y0103988D01*
X0055956Y0104043D01*
X0056101Y0104094D01*
X0056247Y0104141D01*
X0056394Y0104184D01*
X0056542Y0104223D01*
X0056691Y0104259D01*
X0056841Y0104290D01*
X0056992Y0104318D01*
X0057143Y0104342D01*
X0057296Y0104362D01*
X0057448Y0104378D01*
X0057601Y0104390D01*
X0057754Y0104398D01*
X0057907Y0104402D01*
X0058061Y0104402D01*
X0058214Y0104398D01*
X0058367Y0104390D01*
X0058520Y0104378D01*
X0058672Y0104362D01*
X0058825Y0104342D01*
X0058976Y0104318D01*
X0059127Y0104290D01*
X0059277Y0104259D01*
X0059426Y0104223D01*
X0059574Y0104184D01*
X0059721Y0104141D01*
X0059867Y0104094D01*
X0060012Y0104043D01*
X0060155Y0103988D01*
X0060297Y0103930D01*
X0060437Y0103868D01*
X0060576Y0103803D01*
X0060713Y0103734D01*
X0060848Y0103661D01*
X0060981Y0103585D01*
X0061112Y0103505D01*
X0061241Y0103423D01*
X0061368Y0103336D01*
X0061493Y0103247D01*
X0061615Y0103154D01*
X0061734Y0103058D01*
X0061852Y0102959D01*
X0061966Y0102858D01*
X0062078Y0102753D01*
X0062187Y0102645D01*
X0062293Y0102534D01*
X0062397Y0102421D01*
X0062497Y0102305D01*
X0062595Y0102187D01*
X0062689Y0102066D01*
X0062780Y0101943D01*
X0062868Y0101817D01*
X0062952Y0101689D01*
X0063034Y0101559D01*
X0063111Y0101427D01*
X0063186Y0101293D01*
X0063257Y0101157D01*
X0063324Y0101019D01*
X0063388Y0100879D01*
X0063448Y0100738D01*
X0063504Y0100596D01*
X0063557Y0100452D01*
X0063606Y0100306D01*
X0063651Y0100160D01*
X0063692Y0100012D01*
X0063729Y0099864D01*
X0063763Y0099714D01*
X0063793Y0099563D01*
X0063818Y0099412D01*
X0063840Y0099261D01*
X0063858Y0099108D01*
X0063872Y0098956D01*
X0063882Y0098803D01*
X0063888Y0098649D01*
X0063890Y0098496D01*
X0063888Y0098343D01*
X0063882Y0098189D01*
X0063872Y0098036D01*
X0063858Y0097884D01*
X0063840Y0097731D01*
X0063818Y0097580D01*
X0063793Y0097429D01*
X0063763Y0097278D01*
X0063729Y0097128D01*
X0063692Y0096980D01*
X0063651Y0096832D01*
X0063606Y0096686D01*
X0063557Y0096540D01*
X0063504Y0096396D01*
X0063448Y0096254D01*
X0063388Y0096113D01*
X0063324Y0095973D01*
X0063257Y0095835D01*
X0063186Y0095699D01*
X0063111Y0095565D01*
X0063034Y0095433D01*
X0062952Y0095303D01*
X0062868Y0095175D01*
X0062780Y0095049D01*
X0062689Y0094926D01*
X0062595Y0094805D01*
X0062497Y0094687D01*
X0062397Y0094571D01*
X0062293Y0094458D01*
X0062187Y0094347D01*
X0062078Y0094239D01*
X0061966Y0094134D01*
X0061852Y0094033D01*
X0061734Y0093934D01*
X0061615Y0093838D01*
X0061493Y0093745D01*
X0061368Y0093656D01*
X0061241Y0093569D01*
X0061112Y0093487D01*
X0060981Y0093407D01*
X0060848Y0093331D01*
X0060713Y0093258D01*
X0060576Y0093189D01*
X0060437Y0093124D01*
X0060297Y0093062D01*
X0060155Y0093004D01*
X0060012Y0092949D01*
X0059867Y0092898D01*
X0059721Y0092851D01*
X0059574Y0092808D01*
X0059426Y0092769D01*
X0059277Y0092733D01*
X0059127Y0092702D01*
X0058976Y0092674D01*
X0058825Y0092650D01*
X0058672Y0092630D01*
X0058520Y0092614D01*
X0058367Y0092602D01*
X0058214Y0092594D01*
X0058061Y0092590D01*
X0057907Y0092590D01*
X0057754Y0092594D01*
X0057601Y0092602D01*
X0057448Y0092614D01*
X0057296Y0092630D01*
X0057143Y0092650D01*
X0056992Y0092674D01*
X0056841Y0092702D01*
X0056691Y0092733D01*
X0056542Y0092769D01*
X0056394Y0092808D01*
X0056247Y0092851D01*
X0056101Y0092898D01*
X0055956Y0092949D01*
X0055813Y0093004D01*
X0055671Y0093062D01*
X0055531Y0093124D01*
X0055392Y0093189D01*
X0055255Y0093258D01*
X0055120Y0093331D01*
X0054987Y0093407D01*
X0054856Y0093487D01*
X0054727Y0093569D01*
X0054600Y0093656D01*
X0054475Y0093745D01*
X0054353Y0093838D01*
X0054234Y0093934D01*
X0054116Y0094033D01*
X0054002Y0094134D01*
X0053890Y0094239D01*
X0053781Y0094347D01*
X0053675Y0094458D01*
X0053571Y0094571D01*
X0053471Y0094687D01*
X0053373Y0094805D01*
X0053279Y0094926D01*
X0053188Y0095049D01*
X0053100Y0095175D01*
X0053016Y0095303D01*
X0052934Y0095433D01*
X0052857Y0095565D01*
X0052782Y0095699D01*
X0052711Y0095835D01*
X0052644Y0095973D01*
X0052580Y0096113D01*
X0052520Y0096254D01*
X0052464Y0096396D01*
X0052411Y0096540D01*
X0052362Y0096686D01*
X0052317Y0096832D01*
X0052276Y0096980D01*
X0052239Y0097128D01*
X0052205Y0097278D01*
X0052175Y0097429D01*
X0052150Y0097580D01*
X0052128Y0097731D01*
X0052110Y0097884D01*
X0052096Y0098036D01*
X0052086Y0098189D01*
X0052080Y0098343D01*
X0052078Y0098496D01*
X0052078Y0135504D02*
X0052080Y0135657D01*
X0052086Y0135811D01*
X0052096Y0135964D01*
X0052110Y0136116D01*
X0052128Y0136269D01*
X0052150Y0136420D01*
X0052175Y0136571D01*
X0052205Y0136722D01*
X0052239Y0136872D01*
X0052276Y0137020D01*
X0052317Y0137168D01*
X0052362Y0137314D01*
X0052411Y0137460D01*
X0052464Y0137604D01*
X0052520Y0137746D01*
X0052580Y0137887D01*
X0052644Y0138027D01*
X0052711Y0138165D01*
X0052782Y0138301D01*
X0052857Y0138435D01*
X0052934Y0138567D01*
X0053016Y0138697D01*
X0053100Y0138825D01*
X0053188Y0138951D01*
X0053279Y0139074D01*
X0053373Y0139195D01*
X0053471Y0139313D01*
X0053571Y0139429D01*
X0053675Y0139542D01*
X0053781Y0139653D01*
X0053890Y0139761D01*
X0054002Y0139866D01*
X0054116Y0139967D01*
X0054234Y0140066D01*
X0054353Y0140162D01*
X0054475Y0140255D01*
X0054600Y0140344D01*
X0054727Y0140431D01*
X0054856Y0140513D01*
X0054987Y0140593D01*
X0055120Y0140669D01*
X0055255Y0140742D01*
X0055392Y0140811D01*
X0055531Y0140876D01*
X0055671Y0140938D01*
X0055813Y0140996D01*
X0055956Y0141051D01*
X0056101Y0141102D01*
X0056247Y0141149D01*
X0056394Y0141192D01*
X0056542Y0141231D01*
X0056691Y0141267D01*
X0056841Y0141298D01*
X0056992Y0141326D01*
X0057143Y0141350D01*
X0057296Y0141370D01*
X0057448Y0141386D01*
X0057601Y0141398D01*
X0057754Y0141406D01*
X0057907Y0141410D01*
X0058061Y0141410D01*
X0058214Y0141406D01*
X0058367Y0141398D01*
X0058520Y0141386D01*
X0058672Y0141370D01*
X0058825Y0141350D01*
X0058976Y0141326D01*
X0059127Y0141298D01*
X0059277Y0141267D01*
X0059426Y0141231D01*
X0059574Y0141192D01*
X0059721Y0141149D01*
X0059867Y0141102D01*
X0060012Y0141051D01*
X0060155Y0140996D01*
X0060297Y0140938D01*
X0060437Y0140876D01*
X0060576Y0140811D01*
X0060713Y0140742D01*
X0060848Y0140669D01*
X0060981Y0140593D01*
X0061112Y0140513D01*
X0061241Y0140431D01*
X0061368Y0140344D01*
X0061493Y0140255D01*
X0061615Y0140162D01*
X0061734Y0140066D01*
X0061852Y0139967D01*
X0061966Y0139866D01*
X0062078Y0139761D01*
X0062187Y0139653D01*
X0062293Y0139542D01*
X0062397Y0139429D01*
X0062497Y0139313D01*
X0062595Y0139195D01*
X0062689Y0139074D01*
X0062780Y0138951D01*
X0062868Y0138825D01*
X0062952Y0138697D01*
X0063034Y0138567D01*
X0063111Y0138435D01*
X0063186Y0138301D01*
X0063257Y0138165D01*
X0063324Y0138027D01*
X0063388Y0137887D01*
X0063448Y0137746D01*
X0063504Y0137604D01*
X0063557Y0137460D01*
X0063606Y0137314D01*
X0063651Y0137168D01*
X0063692Y0137020D01*
X0063729Y0136872D01*
X0063763Y0136722D01*
X0063793Y0136571D01*
X0063818Y0136420D01*
X0063840Y0136269D01*
X0063858Y0136116D01*
X0063872Y0135964D01*
X0063882Y0135811D01*
X0063888Y0135657D01*
X0063890Y0135504D01*
X0063888Y0135351D01*
X0063882Y0135197D01*
X0063872Y0135044D01*
X0063858Y0134892D01*
X0063840Y0134739D01*
X0063818Y0134588D01*
X0063793Y0134437D01*
X0063763Y0134286D01*
X0063729Y0134136D01*
X0063692Y0133988D01*
X0063651Y0133840D01*
X0063606Y0133694D01*
X0063557Y0133548D01*
X0063504Y0133404D01*
X0063448Y0133262D01*
X0063388Y0133121D01*
X0063324Y0132981D01*
X0063257Y0132843D01*
X0063186Y0132707D01*
X0063111Y0132573D01*
X0063034Y0132441D01*
X0062952Y0132311D01*
X0062868Y0132183D01*
X0062780Y0132057D01*
X0062689Y0131934D01*
X0062595Y0131813D01*
X0062497Y0131695D01*
X0062397Y0131579D01*
X0062293Y0131466D01*
X0062187Y0131355D01*
X0062078Y0131247D01*
X0061966Y0131142D01*
X0061852Y0131041D01*
X0061734Y0130942D01*
X0061615Y0130846D01*
X0061493Y0130753D01*
X0061368Y0130664D01*
X0061241Y0130577D01*
X0061112Y0130495D01*
X0060981Y0130415D01*
X0060848Y0130339D01*
X0060713Y0130266D01*
X0060576Y0130197D01*
X0060437Y0130132D01*
X0060297Y0130070D01*
X0060155Y0130012D01*
X0060012Y0129957D01*
X0059867Y0129906D01*
X0059721Y0129859D01*
X0059574Y0129816D01*
X0059426Y0129777D01*
X0059277Y0129741D01*
X0059127Y0129710D01*
X0058976Y0129682D01*
X0058825Y0129658D01*
X0058672Y0129638D01*
X0058520Y0129622D01*
X0058367Y0129610D01*
X0058214Y0129602D01*
X0058061Y0129598D01*
X0057907Y0129598D01*
X0057754Y0129602D01*
X0057601Y0129610D01*
X0057448Y0129622D01*
X0057296Y0129638D01*
X0057143Y0129658D01*
X0056992Y0129682D01*
X0056841Y0129710D01*
X0056691Y0129741D01*
X0056542Y0129777D01*
X0056394Y0129816D01*
X0056247Y0129859D01*
X0056101Y0129906D01*
X0055956Y0129957D01*
X0055813Y0130012D01*
X0055671Y0130070D01*
X0055531Y0130132D01*
X0055392Y0130197D01*
X0055255Y0130266D01*
X0055120Y0130339D01*
X0054987Y0130415D01*
X0054856Y0130495D01*
X0054727Y0130577D01*
X0054600Y0130664D01*
X0054475Y0130753D01*
X0054353Y0130846D01*
X0054234Y0130942D01*
X0054116Y0131041D01*
X0054002Y0131142D01*
X0053890Y0131247D01*
X0053781Y0131355D01*
X0053675Y0131466D01*
X0053571Y0131579D01*
X0053471Y0131695D01*
X0053373Y0131813D01*
X0053279Y0131934D01*
X0053188Y0132057D01*
X0053100Y0132183D01*
X0053016Y0132311D01*
X0052934Y0132441D01*
X0052857Y0132573D01*
X0052782Y0132707D01*
X0052711Y0132843D01*
X0052644Y0132981D01*
X0052580Y0133121D01*
X0052520Y0133262D01*
X0052464Y0133404D01*
X0052411Y0133548D01*
X0052362Y0133694D01*
X0052317Y0133840D01*
X0052276Y0133988D01*
X0052239Y0134136D01*
X0052205Y0134286D01*
X0052175Y0134437D01*
X0052150Y0134588D01*
X0052128Y0134739D01*
X0052110Y0134892D01*
X0052096Y0135044D01*
X0052086Y0135197D01*
X0052080Y0135351D01*
X0052078Y0135504D01*
D11*
X0187000Y0132000D03*
X0227000Y0132000D03*
X0282000Y0132000D03*
X0292000Y0132000D03*
X0217000Y0042000D03*
X0207000Y0042000D03*
X0057000Y0042000D03*
X0057000Y0032000D03*
D12*
X0151094Y0108063D03*
X0151094Y0112000D03*
X0151094Y0115937D03*
X0161921Y0115937D03*
X0161921Y0108063D03*
D13*
X0077827Y0117000D03*
X0056173Y0117000D03*
D14*
X0055795Y0117378D02*
X0055795Y0116622D01*
X0050039Y0116622D01*
X0050039Y0112603D01*
X0050176Y0112094D01*
X0050439Y0111638D01*
X0050811Y0111266D01*
X0051267Y0111002D01*
X0051776Y0110866D01*
X0054287Y0110866D01*
X0053003Y0110522D01*
X0050060Y0108823D01*
X0047657Y0106420D01*
X0045958Y0103477D01*
X0045079Y0100195D01*
X0045079Y0096797D01*
X0045958Y0093515D01*
X0047657Y0090572D01*
X0050060Y0088169D01*
X0053003Y0086470D01*
X0056285Y0085591D01*
X0059683Y0085591D01*
X0062966Y0086470D01*
X0065908Y0088169D01*
X0068311Y0090572D01*
X0070010Y0093515D01*
X0070890Y0096797D01*
X0070890Y0100195D01*
X0070010Y0103477D01*
X0068311Y0106420D01*
X0065908Y0108823D01*
X0062966Y0110522D01*
X0061109Y0111020D01*
X0061535Y0111266D01*
X0061907Y0111638D01*
X0062171Y0112094D01*
X0062307Y0112603D01*
X0062307Y0116622D01*
X0056551Y0116622D01*
X0056551Y0117378D01*
X0062307Y0117378D01*
X0062307Y0121397D01*
X0062171Y0121906D01*
X0061907Y0122362D01*
X0061535Y0122734D01*
X0061109Y0122980D01*
X0062966Y0123478D01*
X0065908Y0125177D01*
X0068311Y0127580D01*
X0070010Y0130523D01*
X0070890Y0133805D01*
X0070890Y0137203D01*
X0070010Y0140485D01*
X0068311Y0143428D01*
X0065908Y0145831D01*
X0062966Y0147530D01*
X0059683Y0148409D01*
X0056285Y0148409D01*
X0053003Y0147530D01*
X0050060Y0145831D01*
X0047657Y0143428D01*
X0045958Y0140485D01*
X0045079Y0137203D01*
X0045079Y0133805D01*
X0045958Y0130523D01*
X0047657Y0127580D01*
X0050060Y0125177D01*
X0053003Y0123478D01*
X0054287Y0123134D01*
X0051776Y0123134D01*
X0051267Y0122998D01*
X0050811Y0122734D01*
X0050439Y0122362D01*
X0050176Y0121906D01*
X0050039Y0121397D01*
X0050039Y0117378D01*
X0055795Y0117378D01*
X0057000Y0117000D02*
X0037000Y0097000D01*
X0037000Y0077000D01*
X0082000Y0077000D01*
X0087000Y0072000D01*
X0112000Y0097000D01*
X0134422Y0097000D01*
X0148266Y0110844D01*
X0149939Y0110844D01*
X0151094Y0112000D01*
X0151094Y0115937D02*
X0152000Y0116843D01*
X0152000Y0117000D01*
X0142000Y0127000D01*
X0142000Y0137000D01*
X0122000Y0117000D01*
X0127000Y0112000D01*
X0134598Y0115841D02*
X0141846Y0115841D01*
X0141929Y0115757D02*
X0141929Y0113364D01*
X0142494Y0112000D01*
X0141929Y0110636D01*
X0141929Y0108243D01*
X0138372Y0104686D01*
X0137191Y0104197D01*
X0134803Y0101809D01*
X0133511Y0098689D01*
X0133511Y0095311D01*
X0134803Y0092191D01*
X0135341Y0091654D01*
X0128686Y0085000D01*
X0119869Y0085000D01*
X0118689Y0085489D01*
X0115311Y0085489D01*
X0112191Y0084197D01*
X0109803Y0081809D01*
X0108511Y0078689D01*
X0108511Y0075311D01*
X0109803Y0072191D01*
X0112191Y0069803D01*
X0115311Y0068511D01*
X0118689Y0068511D01*
X0119869Y0069000D01*
X0133591Y0069000D01*
X0136532Y0070218D01*
X0166532Y0100218D01*
X0166702Y0100389D01*
X0168052Y0100948D01*
X0170021Y0102917D01*
X0171087Y0105489D01*
X0171087Y0106600D01*
X0174000Y0103686D01*
X0174000Y0065409D01*
X0175218Y0062468D01*
X0177468Y0060218D01*
X0197400Y0040286D01*
X0197400Y0038024D01*
X0203024Y0032400D01*
X0210976Y0032400D01*
X0215976Y0037400D01*
X0217000Y0037400D01*
X0218905Y0037400D01*
X0221600Y0040095D01*
X0221600Y0042000D01*
X0221600Y0043905D01*
X0218905Y0046600D01*
X0217000Y0046600D01*
X0217000Y0042000D01*
X0277000Y0102000D01*
X0277000Y0120031D01*
X0278024Y0122400D02*
X0285976Y0122400D01*
X0290976Y0127400D01*
X0292000Y0127400D01*
X0293905Y0127400D01*
X0296600Y0130095D01*
X0296600Y0132000D01*
X0296600Y0133905D01*
X0293905Y0136600D01*
X0292000Y0136600D01*
X0292000Y0132000D01*
X0296600Y0132000D01*
X0292000Y0132000D01*
X0292000Y0132000D01*
X0292000Y0132000D01*
X0292000Y0127400D01*
X0292000Y0132000D01*
X0292000Y0132000D01*
X0292000Y0136600D01*
X0290976Y0136600D01*
X0285976Y0141600D01*
X0278024Y0141600D01*
X0275924Y0139500D01*
X0233076Y0139500D01*
X0230976Y0141600D01*
X0223024Y0141600D01*
X0217400Y0135976D01*
X0217400Y0128024D01*
X0223024Y0122400D01*
X0230976Y0122400D01*
X0233076Y0124500D01*
X0275924Y0124500D01*
X0278024Y0122400D01*
X0276589Y0123835D02*
X0232411Y0123835D01*
X0221589Y0123835D02*
X0206479Y0123835D01*
X0204480Y0125833D02*
X0219590Y0125833D01*
X0217592Y0127832D02*
X0202482Y0127832D01*
X0200483Y0129830D02*
X0217400Y0129830D01*
X0217400Y0131829D02*
X0198485Y0131829D01*
X0196600Y0133714D02*
X0196600Y0135976D01*
X0190976Y0141600D01*
X0183024Y0141600D01*
X0177400Y0135976D01*
X0177400Y0128024D01*
X0183024Y0122400D01*
X0185286Y0122400D01*
X0199000Y0108686D01*
X0199000Y0061314D01*
X0190000Y0070314D01*
X0190000Y0108591D01*
X0188782Y0111532D01*
X0178782Y0121532D01*
X0176532Y0123782D01*
X0173591Y0125000D01*
X0165409Y0125000D01*
X0163280Y0124118D01*
X0158364Y0124118D01*
X0156831Y0123483D01*
X0156532Y0123782D01*
X0156532Y0123782D01*
X0150000Y0130314D01*
X0150000Y0138591D01*
X0148782Y0141532D01*
X0146532Y0143782D01*
X0143591Y0145000D01*
X0140409Y0145000D01*
X0137468Y0143782D01*
X0118186Y0124500D01*
X0088143Y0124500D01*
X0087895Y0125099D01*
X0085926Y0127068D01*
X0083353Y0128134D01*
X0072301Y0128134D01*
X0069728Y0127068D01*
X0067759Y0125099D01*
X0066693Y0122526D01*
X0066693Y0111474D01*
X0067759Y0108901D01*
X0069728Y0106932D01*
X0072301Y0105866D01*
X0083353Y0105866D01*
X0085926Y0106932D01*
X0087895Y0108901D01*
X0088143Y0109500D01*
X0118186Y0109500D01*
X0119314Y0108372D01*
X0119803Y0107191D01*
X0122191Y0104803D01*
X0125311Y0103511D01*
X0128689Y0103511D01*
X0131809Y0104803D01*
X0134197Y0107191D01*
X0135489Y0110311D01*
X0135489Y0113689D01*
X0134197Y0116809D01*
X0133659Y0117346D01*
X0137000Y0120686D01*
X0137468Y0120218D01*
X0141929Y0115757D01*
X0141929Y0113842D02*
X0135425Y0113842D01*
X0135489Y0111844D02*
X0142429Y0111844D01*
X0141929Y0109845D02*
X0135296Y0109845D01*
X0134468Y0107847D02*
X0141533Y0107847D01*
X0139534Y0105848D02*
X0132853Y0105848D01*
X0129506Y0103850D02*
X0136844Y0103850D01*
X0134846Y0101851D02*
X0070446Y0101851D01*
X0069795Y0103850D02*
X0124494Y0103850D01*
X0121147Y0105848D02*
X0068642Y0105848D01*
X0068813Y0107847D02*
X0066885Y0107847D01*
X0067367Y0109845D02*
X0064138Y0109845D01*
X0062026Y0111844D02*
X0066693Y0111844D01*
X0066693Y0113842D02*
X0062307Y0113842D01*
X0062307Y0115841D02*
X0066693Y0115841D01*
X0066693Y0117839D02*
X0062307Y0117839D01*
X0062307Y0119838D02*
X0066693Y0119838D01*
X0066693Y0121836D02*
X0062189Y0121836D01*
X0063584Y0123835D02*
X0067235Y0123835D01*
X0066565Y0125833D02*
X0068493Y0125833D01*
X0068457Y0127832D02*
X0071571Y0127832D01*
X0069611Y0129830D02*
X0123517Y0129830D01*
X0125515Y0131829D02*
X0070360Y0131829D01*
X0070890Y0133827D02*
X0127514Y0133827D01*
X0129512Y0135826D02*
X0070890Y0135826D01*
X0070723Y0137824D02*
X0131511Y0137824D01*
X0133509Y0139823D02*
X0070188Y0139823D01*
X0069239Y0141821D02*
X0135508Y0141821D01*
X0137560Y0143820D02*
X0067919Y0143820D01*
X0065921Y0145818D02*
X0303701Y0145818D01*
X0303701Y0143820D02*
X0146440Y0143820D01*
X0148492Y0141821D02*
X0303701Y0141821D01*
X0303701Y0139823D02*
X0287754Y0139823D01*
X0289752Y0137824D02*
X0303701Y0137824D01*
X0303701Y0135826D02*
X0294680Y0135826D01*
X0292000Y0135826D02*
X0292000Y0135826D01*
X0292000Y0133827D02*
X0292000Y0133827D01*
X0292000Y0131829D02*
X0292000Y0131829D01*
X0292000Y0129830D02*
X0292000Y0129830D01*
X0292000Y0127832D02*
X0292000Y0127832D01*
X0294337Y0127832D02*
X0303701Y0127832D01*
X0303701Y0125833D02*
X0289410Y0125833D01*
X0287411Y0123835D02*
X0303701Y0123835D01*
X0303701Y0121836D02*
X0208477Y0121836D01*
X0210476Y0119838D02*
X0303701Y0119838D01*
X0303701Y0117839D02*
X0212474Y0117839D01*
X0211532Y0118782D02*
X0196600Y0133714D01*
X0196600Y0133827D02*
X0217400Y0133827D01*
X0217400Y0135826D02*
X0196600Y0135826D01*
X0194752Y0137824D02*
X0219248Y0137824D01*
X0221246Y0139823D02*
X0192754Y0139823D01*
X0181246Y0139823D02*
X0149490Y0139823D01*
X0150000Y0137824D02*
X0179248Y0137824D01*
X0177400Y0135826D02*
X0150000Y0135826D01*
X0150000Y0133827D02*
X0177400Y0133827D01*
X0177400Y0131829D02*
X0150000Y0131829D01*
X0150483Y0129830D02*
X0177400Y0129830D01*
X0177592Y0127832D02*
X0152482Y0127832D01*
X0154480Y0125833D02*
X0179590Y0125833D01*
X0181589Y0123835D02*
X0176404Y0123835D01*
X0178477Y0121836D02*
X0185850Y0121836D01*
X0187849Y0119838D02*
X0180476Y0119838D01*
X0182474Y0117839D02*
X0189847Y0117839D01*
X0191846Y0115841D02*
X0184473Y0115841D01*
X0186471Y0113842D02*
X0193844Y0113842D01*
X0195843Y0111844D02*
X0188470Y0111844D01*
X0189481Y0109845D02*
X0197841Y0109845D01*
X0199000Y0107847D02*
X0190000Y0107847D01*
X0190000Y0105848D02*
X0199000Y0105848D01*
X0199000Y0103850D02*
X0190000Y0103850D01*
X0190000Y0101851D02*
X0199000Y0101851D01*
X0199000Y0099853D02*
X0190000Y0099853D01*
X0190000Y0097854D02*
X0199000Y0097854D01*
X0199000Y0095856D02*
X0190000Y0095856D01*
X0190000Y0093857D02*
X0199000Y0093857D01*
X0199000Y0091859D02*
X0190000Y0091859D01*
X0190000Y0089860D02*
X0199000Y0089860D01*
X0199000Y0087862D02*
X0190000Y0087862D01*
X0190000Y0085863D02*
X0199000Y0085863D01*
X0199000Y0083865D02*
X0190000Y0083865D01*
X0190000Y0081866D02*
X0199000Y0081866D01*
X0199000Y0079868D02*
X0190000Y0079868D01*
X0190000Y0077869D02*
X0199000Y0077869D01*
X0199000Y0075870D02*
X0190000Y0075870D01*
X0190000Y0073872D02*
X0199000Y0073872D01*
X0199000Y0071873D02*
X0190000Y0071873D01*
X0190439Y0069875D02*
X0199000Y0069875D01*
X0199000Y0067876D02*
X0192437Y0067876D01*
X0194436Y0065878D02*
X0199000Y0065878D01*
X0199000Y0063879D02*
X0196434Y0063879D01*
X0198433Y0061881D02*
X0199000Y0061881D01*
X0215000Y0061881D02*
X0303701Y0061881D01*
X0303701Y0063879D02*
X0215000Y0063879D01*
X0215000Y0065878D02*
X0303701Y0065878D01*
X0303701Y0067876D02*
X0215000Y0067876D01*
X0215000Y0069875D02*
X0303701Y0069875D01*
X0303701Y0071873D02*
X0215000Y0071873D01*
X0215000Y0073872D02*
X0303701Y0073872D01*
X0303701Y0075870D02*
X0215000Y0075870D01*
X0215000Y0077869D02*
X0303701Y0077869D01*
X0303701Y0079868D02*
X0215000Y0079868D01*
X0215000Y0081866D02*
X0303701Y0081866D01*
X0303701Y0083865D02*
X0215000Y0083865D01*
X0215000Y0085863D02*
X0303701Y0085863D01*
X0303701Y0087862D02*
X0215000Y0087862D01*
X0215000Y0089860D02*
X0303701Y0089860D01*
X0303701Y0091859D02*
X0215000Y0091859D01*
X0215000Y0093857D02*
X0303701Y0093857D01*
X0303701Y0095856D02*
X0215000Y0095856D01*
X0215000Y0097854D02*
X0303701Y0097854D01*
X0303701Y0099853D02*
X0215000Y0099853D01*
X0215000Y0101851D02*
X0303701Y0101851D01*
X0303701Y0103850D02*
X0215000Y0103850D01*
X0215000Y0105848D02*
X0303701Y0105848D01*
X0303701Y0107847D02*
X0215000Y0107847D01*
X0215000Y0109845D02*
X0303701Y0109845D01*
X0303701Y0111844D02*
X0215000Y0111844D01*
X0215000Y0113591D02*
X0213782Y0116532D01*
X0211532Y0118782D01*
X0214068Y0115841D02*
X0303701Y0115841D01*
X0303701Y0113842D02*
X0214896Y0113842D01*
X0215000Y0113591D02*
X0215000Y0047576D01*
X0215976Y0046600D01*
X0217000Y0046600D01*
X0217000Y0042000D01*
X0217000Y0022000D01*
X0212000Y0017000D01*
X0122000Y0017000D01*
X0077000Y0062000D01*
X0087000Y0072000D01*
X0077000Y0062000D02*
X0057000Y0042000D01*
X0057000Y0042000D01*
X0057000Y0046600D01*
X0058905Y0046600D01*
X0061600Y0043905D01*
X0061600Y0042000D01*
X0057000Y0042000D01*
X0057000Y0042000D01*
X0057000Y0042000D01*
X0052400Y0042000D01*
X0052400Y0043905D01*
X0055095Y0046600D01*
X0057000Y0046600D01*
X0057000Y0042000D01*
X0061600Y0042000D01*
X0061600Y0040976D01*
X0062576Y0040000D01*
X0063686Y0040000D01*
X0069314Y0045628D01*
X0069803Y0046809D01*
X0072191Y0049197D01*
X0075311Y0050489D01*
X0078689Y0050489D01*
X0081809Y0049197D01*
X0084197Y0046809D01*
X0085489Y0043689D01*
X0085489Y0040311D01*
X0084197Y0037191D01*
X0081809Y0034803D01*
X0080628Y0034314D01*
X0071532Y0025218D01*
X0068591Y0024000D01*
X0062576Y0024000D01*
X0060976Y0022400D01*
X0053024Y0022400D01*
X0047400Y0028024D01*
X0047400Y0035976D01*
X0052400Y0040976D01*
X0052400Y0042000D01*
X0057000Y0042000D01*
X0057000Y0043894D02*
X0057000Y0043894D01*
X0057000Y0045893D02*
X0057000Y0045893D01*
X0059613Y0045893D02*
X0069424Y0045893D01*
X0067581Y0043894D02*
X0061600Y0043894D01*
X0061600Y0041896D02*
X0065582Y0041896D01*
X0054387Y0045893D02*
X0009000Y0045893D01*
X0009000Y0043894D02*
X0052400Y0043894D01*
X0052400Y0041896D02*
X0009000Y0041896D01*
X0009000Y0039897D02*
X0051321Y0039897D01*
X0049322Y0037899D02*
X0009000Y0037899D01*
X0009000Y0035900D02*
X0047400Y0035900D01*
X0047400Y0033902D02*
X0009000Y0033902D01*
X0009000Y0031903D02*
X0047400Y0031903D01*
X0047400Y0029905D02*
X0009000Y0029905D01*
X0009000Y0027906D02*
X0047517Y0027906D01*
X0049516Y0025908D02*
X0009000Y0025908D01*
X0009000Y0023909D02*
X0051514Y0023909D01*
X0062486Y0023909D02*
X0303701Y0023909D01*
X0303701Y0021911D02*
X0009000Y0021911D01*
X0009000Y0019912D02*
X0303701Y0019912D01*
X0303701Y0017914D02*
X0009000Y0017914D01*
X0009000Y0015915D02*
X0303701Y0015915D01*
X0303701Y0013917D02*
X0009000Y0013917D01*
X0009000Y0011918D02*
X0303701Y0011918D01*
X0303701Y0009920D02*
X0009000Y0009920D01*
X0009000Y0009000D02*
X0009000Y0154961D01*
X0303701Y0154961D01*
X0303701Y0009000D01*
X0009000Y0009000D01*
X0057000Y0032000D02*
X0067000Y0032000D01*
X0077000Y0042000D01*
X0084576Y0045893D02*
X0191793Y0045893D01*
X0193792Y0043894D02*
X0085404Y0043894D01*
X0085489Y0041896D02*
X0195790Y0041896D01*
X0197400Y0039897D02*
X0085317Y0039897D01*
X0084490Y0037899D02*
X0197525Y0037899D01*
X0199523Y0035900D02*
X0082905Y0035900D01*
X0080215Y0033902D02*
X0201522Y0033902D01*
X0212478Y0033902D02*
X0303701Y0033902D01*
X0303701Y0035900D02*
X0214477Y0035900D01*
X0217000Y0037400D02*
X0217000Y0042000D01*
X0217000Y0042000D01*
X0221600Y0042000D01*
X0217000Y0042000D01*
X0217000Y0042000D01*
X0217000Y0037400D01*
X0217000Y0037899D02*
X0217000Y0037899D01*
X0217000Y0039897D02*
X0217000Y0039897D01*
X0217000Y0041896D02*
X0217000Y0041896D01*
X0217000Y0042000D02*
X0217000Y0042000D01*
X0217000Y0043894D02*
X0217000Y0043894D01*
X0217000Y0045893D02*
X0217000Y0045893D01*
X0219613Y0045893D02*
X0303701Y0045893D01*
X0303701Y0043894D02*
X0221600Y0043894D01*
X0221600Y0041896D02*
X0303701Y0041896D01*
X0303701Y0039897D02*
X0221403Y0039897D01*
X0219404Y0037899D02*
X0303701Y0037899D01*
X0303701Y0031903D02*
X0078217Y0031903D01*
X0076218Y0029905D02*
X0303701Y0029905D01*
X0303701Y0027906D02*
X0074220Y0027906D01*
X0072221Y0025908D02*
X0303701Y0025908D01*
X0303701Y0047891D02*
X0215000Y0047891D01*
X0215000Y0049890D02*
X0303701Y0049890D01*
X0303701Y0051888D02*
X0215000Y0051888D01*
X0215000Y0053887D02*
X0303701Y0053887D01*
X0303701Y0055885D02*
X0215000Y0055885D01*
X0215000Y0057884D02*
X0303701Y0057884D01*
X0303701Y0059882D02*
X0215000Y0059882D01*
X0189795Y0047891D02*
X0083114Y0047891D01*
X0080135Y0049890D02*
X0187796Y0049890D01*
X0185798Y0051888D02*
X0009000Y0051888D01*
X0009000Y0049890D02*
X0073865Y0049890D01*
X0070886Y0047891D02*
X0009000Y0047891D01*
X0009000Y0053887D02*
X0183799Y0053887D01*
X0181801Y0055885D02*
X0009000Y0055885D01*
X0009000Y0057884D02*
X0179802Y0057884D01*
X0177804Y0059882D02*
X0009000Y0059882D01*
X0009000Y0061881D02*
X0175805Y0061881D01*
X0174633Y0063879D02*
X0009000Y0063879D01*
X0009000Y0065878D02*
X0174000Y0065878D01*
X0174000Y0067876D02*
X0009000Y0067876D01*
X0009000Y0069875D02*
X0112120Y0069875D01*
X0110121Y0071873D02*
X0009000Y0071873D01*
X0009000Y0073872D02*
X0109107Y0073872D01*
X0108511Y0075870D02*
X0009000Y0075870D01*
X0009000Y0077869D02*
X0108511Y0077869D01*
X0108999Y0079868D02*
X0009000Y0079868D01*
X0009000Y0081866D02*
X0109861Y0081866D01*
X0111859Y0083865D02*
X0009000Y0083865D01*
X0009000Y0085863D02*
X0055268Y0085863D01*
X0050593Y0087862D02*
X0009000Y0087862D01*
X0009000Y0089860D02*
X0048369Y0089860D01*
X0046914Y0091859D02*
X0009000Y0091859D01*
X0009000Y0093857D02*
X0045866Y0093857D01*
X0045331Y0095856D02*
X0009000Y0095856D01*
X0009000Y0097854D02*
X0045079Y0097854D01*
X0045079Y0099853D02*
X0009000Y0099853D01*
X0009000Y0101851D02*
X0045522Y0101851D01*
X0046173Y0103850D02*
X0009000Y0103850D01*
X0009000Y0105848D02*
X0047327Y0105848D01*
X0049084Y0107847D02*
X0009000Y0107847D01*
X0009000Y0109845D02*
X0051830Y0109845D01*
X0050320Y0111844D02*
X0009000Y0111844D01*
X0009000Y0113842D02*
X0050039Y0113842D01*
X0050039Y0115841D02*
X0009000Y0115841D01*
X0009000Y0117839D02*
X0050039Y0117839D01*
X0050039Y0119838D02*
X0009000Y0119838D01*
X0009000Y0121836D02*
X0050157Y0121836D01*
X0052385Y0123835D02*
X0009000Y0123835D01*
X0009000Y0125833D02*
X0049404Y0125833D01*
X0047512Y0127832D02*
X0009000Y0127832D01*
X0009000Y0129830D02*
X0046358Y0129830D01*
X0045608Y0131829D02*
X0009000Y0131829D01*
X0009000Y0133827D02*
X0045079Y0133827D01*
X0045079Y0135826D02*
X0009000Y0135826D01*
X0009000Y0137824D02*
X0045245Y0137824D01*
X0045781Y0139823D02*
X0009000Y0139823D01*
X0009000Y0141821D02*
X0046730Y0141821D01*
X0048049Y0143820D02*
X0009000Y0143820D01*
X0009000Y0145818D02*
X0050048Y0145818D01*
X0054074Y0147817D02*
X0009000Y0147817D01*
X0009000Y0149815D02*
X0303701Y0149815D01*
X0303701Y0147817D02*
X0061895Y0147817D01*
X0084082Y0127832D02*
X0121518Y0127832D01*
X0119520Y0125833D02*
X0087161Y0125833D01*
X0077827Y0117000D02*
X0077000Y0117000D01*
X0086841Y0107847D02*
X0119532Y0107847D01*
X0133993Y0099853D02*
X0070890Y0099853D01*
X0070890Y0097854D02*
X0133511Y0097854D01*
X0133511Y0095856D02*
X0070638Y0095856D01*
X0070102Y0093857D02*
X0134113Y0093857D01*
X0135136Y0091859D02*
X0069054Y0091859D01*
X0067599Y0089860D02*
X0133546Y0089860D01*
X0131548Y0087862D02*
X0065376Y0087862D01*
X0060700Y0085863D02*
X0129549Y0085863D01*
X0144183Y0077869D02*
X0174000Y0077869D01*
X0174000Y0075870D02*
X0142184Y0075870D01*
X0140186Y0073872D02*
X0174000Y0073872D01*
X0174000Y0071873D02*
X0138187Y0071873D01*
X0135704Y0069875D02*
X0174000Y0069875D01*
X0182000Y0067000D02*
X0182000Y0107000D01*
X0172000Y0117000D01*
X0167000Y0117000D01*
X0166016Y0116016D01*
X0162000Y0116016D01*
X0161921Y0115937D01*
X0161921Y0108063D02*
X0162000Y0107984D01*
X0162000Y0107000D01*
X0132000Y0077000D01*
X0117000Y0077000D01*
X0146181Y0079868D02*
X0174000Y0079868D01*
X0174000Y0081866D02*
X0148180Y0081866D01*
X0150178Y0083865D02*
X0174000Y0083865D01*
X0174000Y0085863D02*
X0152177Y0085863D01*
X0154175Y0087862D02*
X0174000Y0087862D01*
X0174000Y0089860D02*
X0156174Y0089860D01*
X0158172Y0091859D02*
X0174000Y0091859D01*
X0174000Y0093857D02*
X0160171Y0093857D01*
X0162169Y0095856D02*
X0174000Y0095856D01*
X0174000Y0097854D02*
X0164168Y0097854D01*
X0166166Y0099853D02*
X0174000Y0099853D01*
X0174000Y0101851D02*
X0168955Y0101851D01*
X0170407Y0103850D02*
X0173837Y0103850D01*
X0171838Y0105848D02*
X0171087Y0105848D01*
X0152000Y0107000D02*
X0152000Y0107157D01*
X0151094Y0108063D01*
X0152000Y0107000D02*
X0142000Y0097000D01*
X0139847Y0117839D02*
X0134153Y0117839D01*
X0136151Y0119838D02*
X0137849Y0119838D01*
X0156479Y0123835D02*
X0157679Y0123835D01*
X0187000Y0132000D02*
X0207000Y0112000D01*
X0207000Y0042000D01*
X0182000Y0067000D01*
X0277000Y0102000D02*
X0282000Y0107000D01*
X0289500Y0114500D01*
X0290175Y0115175D01*
X0296336Y0129830D02*
X0303701Y0129830D01*
X0303701Y0131829D02*
X0296600Y0131829D01*
X0296600Y0133827D02*
X0303701Y0133827D01*
X0276246Y0139823D02*
X0232754Y0139823D01*
X0303701Y0151814D02*
X0009000Y0151814D01*
X0009000Y0153812D02*
X0303701Y0153812D01*
D15*
X0292000Y0132000D02*
X0297000Y0127000D01*
X0297000Y0122000D01*
X0282000Y0107000D01*
X0289500Y0114500D02*
X0293361Y0118361D01*
X0282000Y0132000D02*
X0227000Y0132000D01*
X0122000Y0117000D02*
X0077827Y0117000D01*
D16*
X0127000Y0112000D03*
X0142000Y0097000D03*
X0117000Y0077000D03*
X0077000Y0042000D03*
M02*
