G75*
%MOIN*%
%OFA0B0*%
%FSLAX25Y25*%
%IPPOS*%
%LPD*%
%AMOC8*
5,1,8,0,0,1.08239X$1,22.5*
%
%ADD10OC8,0.05200*%
%ADD11R,0.08268X0.08268*%
%ADD12R,0.03962X0.03962*%
%ADD13C,0.02000*%
D10*
X0124000Y0034000D03*
X0124000Y0044000D03*
X0176000Y0060000D03*
X0176000Y0070000D03*
X0177000Y0102000D03*
X0147000Y0102000D03*
X0126000Y0103000D03*
X0126000Y0113000D03*
D11*
X0041000Y0100827D03*
X0041000Y0079173D03*
D12*
X0080000Y0101000D03*
X0085000Y0081000D03*
D13*
X0080000Y0084000D02*
X0080000Y0101000D01*
X0080000Y0084000D02*
X0080045Y0083872D01*
X0080093Y0083746D01*
X0080145Y0083621D01*
X0080201Y0083497D01*
X0080260Y0083375D01*
X0080322Y0083255D01*
X0080388Y0083136D01*
X0080457Y0083020D01*
X0080530Y0082906D01*
X0080605Y0082793D01*
X0080684Y0082683D01*
X0080766Y0082575D01*
X0080851Y0082470D01*
X0080939Y0082367D01*
X0081030Y0082266D01*
X0081124Y0082169D01*
X0081220Y0082074D01*
X0081320Y0081981D01*
X0081421Y0081892D01*
X0081526Y0081806D01*
X0081632Y0081722D01*
X0081741Y0081642D01*
X0081853Y0081565D01*
X0081966Y0081491D01*
X0082082Y0081420D01*
X0082199Y0081352D01*
X0082319Y0081288D01*
X0082440Y0081228D01*
X0082562Y0081171D01*
X0082687Y0081117D01*
X0082813Y0081067D01*
X0082940Y0081021D01*
X0083069Y0080978D01*
X0083198Y0080939D01*
X0083329Y0080904D01*
X0083461Y0080872D01*
X0083593Y0080844D01*
X0083727Y0080820D01*
X0083861Y0080800D01*
X0083995Y0080784D01*
X0084130Y0080771D01*
X0084265Y0080763D01*
X0084401Y0080758D01*
X0084536Y0080757D01*
X0084671Y0080760D01*
X0084807Y0080767D01*
X0084942Y0080778D01*
X0085076Y0080792D01*
X0085211Y0080811D01*
X0085344Y0080833D01*
X0085477Y0080859D01*
X0085609Y0080889D01*
X0085741Y0080922D01*
X0085871Y0080959D01*
X0086000Y0081000D01*
M02*
