G75*
%MOIN*%
%OFA0B0*%
%FSLAX25Y25*%
%IPPOS*%
%LPD*%
%AMOC8*
5,1,8,0,0,1.08239X$1,22.5*
%
%ADD10C,0.00600*%
%ADD11C,0.01200*%
%ADD12R,0.01500X0.02000*%
%ADD13C,0.00500*%
%ADD14C,0.01000*%
D10*
X0102500Y0015500D02*
X0102500Y0028500D01*
X0102502Y0028587D01*
X0102508Y0028674D01*
X0102517Y0028761D01*
X0102530Y0028847D01*
X0102547Y0028933D01*
X0102568Y0029018D01*
X0102593Y0029101D01*
X0102621Y0029184D01*
X0102652Y0029265D01*
X0102687Y0029345D01*
X0102726Y0029423D01*
X0102768Y0029500D01*
X0102813Y0029575D01*
X0102862Y0029647D01*
X0102913Y0029718D01*
X0102968Y0029786D01*
X0103025Y0029851D01*
X0103086Y0029914D01*
X0103149Y0029975D01*
X0103214Y0030032D01*
X0103282Y0030087D01*
X0103353Y0030138D01*
X0103425Y0030187D01*
X0103500Y0030232D01*
X0103577Y0030274D01*
X0103655Y0030313D01*
X0103735Y0030348D01*
X0103816Y0030379D01*
X0103899Y0030407D01*
X0103982Y0030432D01*
X0104067Y0030453D01*
X0104153Y0030470D01*
X0104239Y0030483D01*
X0104326Y0030492D01*
X0104413Y0030498D01*
X0104500Y0030500D01*
X0109500Y0030500D01*
X0109587Y0030498D01*
X0109674Y0030492D01*
X0109761Y0030483D01*
X0109847Y0030470D01*
X0109933Y0030453D01*
X0110018Y0030432D01*
X0110101Y0030407D01*
X0110184Y0030379D01*
X0110265Y0030348D01*
X0110345Y0030313D01*
X0110423Y0030274D01*
X0110500Y0030232D01*
X0110575Y0030187D01*
X0110647Y0030138D01*
X0110718Y0030087D01*
X0110786Y0030032D01*
X0110851Y0029975D01*
X0110914Y0029914D01*
X0110975Y0029851D01*
X0111032Y0029786D01*
X0111087Y0029718D01*
X0111138Y0029647D01*
X0111187Y0029575D01*
X0111232Y0029500D01*
X0111274Y0029423D01*
X0111313Y0029345D01*
X0111348Y0029265D01*
X0111379Y0029184D01*
X0111407Y0029101D01*
X0111432Y0029018D01*
X0111453Y0028933D01*
X0111470Y0028847D01*
X0111483Y0028761D01*
X0111492Y0028674D01*
X0111498Y0028587D01*
X0111500Y0028500D01*
X0111500Y0015500D01*
X0111498Y0015413D01*
X0111492Y0015326D01*
X0111483Y0015239D01*
X0111470Y0015153D01*
X0111453Y0015067D01*
X0111432Y0014982D01*
X0111407Y0014899D01*
X0111379Y0014816D01*
X0111348Y0014735D01*
X0111313Y0014655D01*
X0111274Y0014577D01*
X0111232Y0014500D01*
X0111187Y0014425D01*
X0111138Y0014353D01*
X0111087Y0014282D01*
X0111032Y0014214D01*
X0110975Y0014149D01*
X0110914Y0014086D01*
X0110851Y0014025D01*
X0110786Y0013968D01*
X0110718Y0013913D01*
X0110647Y0013862D01*
X0110575Y0013813D01*
X0110500Y0013768D01*
X0110423Y0013726D01*
X0110345Y0013687D01*
X0110265Y0013652D01*
X0110184Y0013621D01*
X0110101Y0013593D01*
X0110018Y0013568D01*
X0109933Y0013547D01*
X0109847Y0013530D01*
X0109761Y0013517D01*
X0109674Y0013508D01*
X0109587Y0013502D01*
X0109500Y0013500D01*
X0104500Y0013500D01*
X0104413Y0013502D01*
X0104326Y0013508D01*
X0104239Y0013517D01*
X0104153Y0013530D01*
X0104067Y0013547D01*
X0103982Y0013568D01*
X0103899Y0013593D01*
X0103816Y0013621D01*
X0103735Y0013652D01*
X0103655Y0013687D01*
X0103577Y0013726D01*
X0103500Y0013768D01*
X0103425Y0013813D01*
X0103353Y0013862D01*
X0103282Y0013913D01*
X0103214Y0013968D01*
X0103149Y0014025D01*
X0103086Y0014086D01*
X0103025Y0014149D01*
X0102968Y0014214D01*
X0102913Y0014282D01*
X0102862Y0014353D01*
X0102813Y0014425D01*
X0102768Y0014500D01*
X0102726Y0014577D01*
X0102687Y0014655D01*
X0102652Y0014735D01*
X0102621Y0014816D01*
X0102593Y0014899D01*
X0102568Y0014982D01*
X0102547Y0015067D01*
X0102530Y0015153D01*
X0102517Y0015239D01*
X0102508Y0015326D01*
X0102502Y0015413D01*
X0102500Y0015500D01*
X0131000Y0056000D02*
X0133000Y0056000D01*
X0133500Y0056500D01*
X0130500Y0056500D02*
X0130438Y0056565D01*
X0130378Y0056633D01*
X0130322Y0056703D01*
X0130268Y0056775D01*
X0130218Y0056850D01*
X0130171Y0056927D01*
X0130127Y0057005D01*
X0130086Y0057086D01*
X0130049Y0057168D01*
X0130016Y0057251D01*
X0129986Y0057336D01*
X0129959Y0057422D01*
X0129937Y0057509D01*
X0129918Y0057597D01*
X0129902Y0057686D01*
X0129891Y0057775D01*
X0129883Y0057865D01*
X0129879Y0057955D01*
X0129879Y0058045D01*
X0129883Y0058135D01*
X0129891Y0058225D01*
X0129902Y0058314D01*
X0129918Y0058403D01*
X0129937Y0058491D01*
X0129959Y0058578D01*
X0129986Y0058664D01*
X0130016Y0058749D01*
X0130049Y0058832D01*
X0130086Y0058914D01*
X0130127Y0058995D01*
X0130171Y0059073D01*
X0130218Y0059150D01*
X0130268Y0059225D01*
X0130322Y0059297D01*
X0130378Y0059367D01*
X0130438Y0059435D01*
X0130500Y0059500D01*
X0131000Y0060000D01*
X0133000Y0060000D01*
X0133500Y0059500D01*
X0133000Y0058000D02*
X0132998Y0057940D01*
X0132993Y0057879D01*
X0132984Y0057820D01*
X0132971Y0057761D01*
X0132955Y0057702D01*
X0132935Y0057645D01*
X0132912Y0057590D01*
X0132885Y0057535D01*
X0132856Y0057483D01*
X0132823Y0057432D01*
X0132787Y0057383D01*
X0132749Y0057337D01*
X0132707Y0057293D01*
X0132663Y0057251D01*
X0132617Y0057213D01*
X0132568Y0057177D01*
X0132517Y0057144D01*
X0132465Y0057115D01*
X0132410Y0057088D01*
X0132355Y0057065D01*
X0132298Y0057045D01*
X0132239Y0057029D01*
X0132180Y0057016D01*
X0132121Y0057007D01*
X0132060Y0057002D01*
X0132000Y0057000D01*
X0131000Y0058000D02*
X0131002Y0058060D01*
X0131007Y0058121D01*
X0131016Y0058180D01*
X0131029Y0058239D01*
X0131045Y0058298D01*
X0131065Y0058355D01*
X0131088Y0058410D01*
X0131115Y0058465D01*
X0131144Y0058517D01*
X0131177Y0058568D01*
X0131213Y0058617D01*
X0131251Y0058663D01*
X0131293Y0058707D01*
X0131337Y0058749D01*
X0131383Y0058787D01*
X0131432Y0058823D01*
X0131483Y0058856D01*
X0131535Y0058885D01*
X0131590Y0058912D01*
X0131645Y0058935D01*
X0131702Y0058955D01*
X0131761Y0058971D01*
X0131820Y0058984D01*
X0131879Y0058993D01*
X0131940Y0058998D01*
X0132000Y0059000D01*
X0130500Y0056500D02*
X0131000Y0056000D01*
X0109500Y0077500D02*
X0096500Y0077500D01*
X0096413Y0077502D01*
X0096326Y0077508D01*
X0096239Y0077517D01*
X0096153Y0077530D01*
X0096067Y0077547D01*
X0095982Y0077568D01*
X0095899Y0077593D01*
X0095816Y0077621D01*
X0095735Y0077652D01*
X0095655Y0077687D01*
X0095577Y0077726D01*
X0095500Y0077768D01*
X0095425Y0077813D01*
X0095353Y0077862D01*
X0095282Y0077913D01*
X0095214Y0077968D01*
X0095149Y0078025D01*
X0095086Y0078086D01*
X0095025Y0078149D01*
X0094968Y0078214D01*
X0094913Y0078282D01*
X0094862Y0078353D01*
X0094813Y0078425D01*
X0094768Y0078500D01*
X0094726Y0078577D01*
X0094687Y0078655D01*
X0094652Y0078735D01*
X0094621Y0078816D01*
X0094593Y0078899D01*
X0094568Y0078982D01*
X0094547Y0079067D01*
X0094530Y0079153D01*
X0094517Y0079239D01*
X0094508Y0079326D01*
X0094502Y0079413D01*
X0094500Y0079500D01*
X0094500Y0084500D01*
X0094502Y0084587D01*
X0094508Y0084674D01*
X0094517Y0084761D01*
X0094530Y0084847D01*
X0094547Y0084933D01*
X0094568Y0085018D01*
X0094593Y0085101D01*
X0094621Y0085184D01*
X0094652Y0085265D01*
X0094687Y0085345D01*
X0094726Y0085423D01*
X0094768Y0085500D01*
X0094813Y0085575D01*
X0094862Y0085647D01*
X0094913Y0085718D01*
X0094968Y0085786D01*
X0095025Y0085851D01*
X0095086Y0085914D01*
X0095149Y0085975D01*
X0095214Y0086032D01*
X0095282Y0086087D01*
X0095353Y0086138D01*
X0095425Y0086187D01*
X0095500Y0086232D01*
X0095577Y0086274D01*
X0095655Y0086313D01*
X0095735Y0086348D01*
X0095816Y0086379D01*
X0095899Y0086407D01*
X0095982Y0086432D01*
X0096067Y0086453D01*
X0096153Y0086470D01*
X0096239Y0086483D01*
X0096326Y0086492D01*
X0096413Y0086498D01*
X0096500Y0086500D01*
X0109500Y0086500D01*
X0109587Y0086498D01*
X0109674Y0086492D01*
X0109761Y0086483D01*
X0109847Y0086470D01*
X0109933Y0086453D01*
X0110018Y0086432D01*
X0110101Y0086407D01*
X0110184Y0086379D01*
X0110265Y0086348D01*
X0110345Y0086313D01*
X0110423Y0086274D01*
X0110500Y0086232D01*
X0110575Y0086187D01*
X0110647Y0086138D01*
X0110718Y0086087D01*
X0110786Y0086032D01*
X0110851Y0085975D01*
X0110914Y0085914D01*
X0110975Y0085851D01*
X0111032Y0085786D01*
X0111087Y0085718D01*
X0111138Y0085647D01*
X0111187Y0085575D01*
X0111232Y0085500D01*
X0111274Y0085423D01*
X0111313Y0085345D01*
X0111348Y0085265D01*
X0111379Y0085184D01*
X0111407Y0085101D01*
X0111432Y0085018D01*
X0111453Y0084933D01*
X0111470Y0084847D01*
X0111483Y0084761D01*
X0111492Y0084674D01*
X0111498Y0084587D01*
X0111500Y0084500D01*
X0111500Y0079500D01*
X0111498Y0079413D01*
X0111492Y0079326D01*
X0111483Y0079239D01*
X0111470Y0079153D01*
X0111453Y0079067D01*
X0111432Y0078982D01*
X0111407Y0078899D01*
X0111379Y0078816D01*
X0111348Y0078735D01*
X0111313Y0078655D01*
X0111274Y0078577D01*
X0111232Y0078500D01*
X0111187Y0078425D01*
X0111138Y0078353D01*
X0111087Y0078282D01*
X0111032Y0078214D01*
X0110975Y0078149D01*
X0110914Y0078086D01*
X0110851Y0078025D01*
X0110786Y0077968D01*
X0110718Y0077913D01*
X0110647Y0077862D01*
X0110575Y0077813D01*
X0110500Y0077768D01*
X0110423Y0077726D01*
X0110345Y0077687D01*
X0110265Y0077652D01*
X0110184Y0077621D01*
X0110101Y0077593D01*
X0110018Y0077568D01*
X0109933Y0077547D01*
X0109847Y0077530D01*
X0109761Y0077517D01*
X0109674Y0077508D01*
X0109587Y0077502D01*
X0109500Y0077500D01*
X0127000Y0079000D02*
X0127000Y0085000D01*
X0127002Y0085060D01*
X0127007Y0085121D01*
X0127016Y0085180D01*
X0127029Y0085239D01*
X0127045Y0085298D01*
X0127065Y0085355D01*
X0127088Y0085410D01*
X0127115Y0085465D01*
X0127144Y0085517D01*
X0127177Y0085568D01*
X0127213Y0085617D01*
X0127251Y0085663D01*
X0127293Y0085707D01*
X0127337Y0085749D01*
X0127383Y0085787D01*
X0127432Y0085823D01*
X0127483Y0085856D01*
X0127535Y0085885D01*
X0127590Y0085912D01*
X0127645Y0085935D01*
X0127702Y0085955D01*
X0127761Y0085971D01*
X0127820Y0085984D01*
X0127879Y0085993D01*
X0127940Y0085998D01*
X0128000Y0086000D01*
X0129500Y0086000D01*
X0130000Y0085500D01*
X0144000Y0085500D01*
X0144500Y0086000D01*
X0146000Y0086000D01*
X0146060Y0085998D01*
X0146121Y0085993D01*
X0146180Y0085984D01*
X0146239Y0085971D01*
X0146298Y0085955D01*
X0146355Y0085935D01*
X0146410Y0085912D01*
X0146465Y0085885D01*
X0146517Y0085856D01*
X0146568Y0085823D01*
X0146617Y0085787D01*
X0146663Y0085749D01*
X0146707Y0085707D01*
X0146749Y0085663D01*
X0146787Y0085617D01*
X0146823Y0085568D01*
X0146856Y0085517D01*
X0146885Y0085465D01*
X0146912Y0085410D01*
X0146935Y0085355D01*
X0146955Y0085298D01*
X0146971Y0085239D01*
X0146984Y0085180D01*
X0146993Y0085121D01*
X0146998Y0085060D01*
X0147000Y0085000D01*
X0147000Y0079000D01*
X0146998Y0078940D01*
X0146993Y0078879D01*
X0146984Y0078820D01*
X0146971Y0078761D01*
X0146955Y0078702D01*
X0146935Y0078645D01*
X0146912Y0078590D01*
X0146885Y0078535D01*
X0146856Y0078483D01*
X0146823Y0078432D01*
X0146787Y0078383D01*
X0146749Y0078337D01*
X0146707Y0078293D01*
X0146663Y0078251D01*
X0146617Y0078213D01*
X0146568Y0078177D01*
X0146517Y0078144D01*
X0146465Y0078115D01*
X0146410Y0078088D01*
X0146355Y0078065D01*
X0146298Y0078045D01*
X0146239Y0078029D01*
X0146180Y0078016D01*
X0146121Y0078007D01*
X0146060Y0078002D01*
X0146000Y0078000D01*
X0144500Y0078000D01*
X0144000Y0078500D01*
X0130000Y0078500D01*
X0129500Y0078000D01*
X0128000Y0078000D01*
X0127940Y0078002D01*
X0127879Y0078007D01*
X0127820Y0078016D01*
X0127761Y0078029D01*
X0127702Y0078045D01*
X0127645Y0078065D01*
X0127590Y0078088D01*
X0127535Y0078115D01*
X0127483Y0078144D01*
X0127432Y0078177D01*
X0127383Y0078213D01*
X0127337Y0078251D01*
X0127293Y0078293D01*
X0127251Y0078337D01*
X0127213Y0078383D01*
X0127177Y0078432D01*
X0127144Y0078483D01*
X0127115Y0078535D01*
X0127088Y0078590D01*
X0127065Y0078645D01*
X0127045Y0078702D01*
X0127029Y0078761D01*
X0127016Y0078820D01*
X0127007Y0078879D01*
X0127002Y0078940D01*
X0127000Y0079000D01*
D11*
X0104200Y0079000D02*
X0104200Y0085000D01*
X0101700Y0085000D02*
X0101700Y0079000D01*
X0104000Y0023200D02*
X0110000Y0023200D01*
X0110000Y0020700D02*
X0104000Y0020700D01*
D12*
X0126250Y0082000D03*
X0147750Y0082000D03*
D13*
X0103417Y0061055D02*
X0103417Y0049835D01*
X0089638Y0049835D01*
X0089638Y0061055D01*
X0103417Y0061055D01*
D14*
X0033764Y0070661D02*
X0033764Y0044283D01*
X0054236Y0044283D01*
X0054236Y0081291D01*
X0033764Y0081291D01*
X0033764Y0074992D01*
X0033672Y0074990D01*
X0033580Y0074984D01*
X0033489Y0074974D01*
X0033398Y0074961D01*
X0033308Y0074943D01*
X0033218Y0074922D01*
X0033130Y0074897D01*
X0033043Y0074868D01*
X0032957Y0074836D01*
X0032872Y0074800D01*
X0032789Y0074760D01*
X0032708Y0074717D01*
X0032629Y0074671D01*
X0032552Y0074621D01*
X0032477Y0074568D01*
X0032404Y0074511D01*
X0032334Y0074452D01*
X0032266Y0074390D01*
X0032201Y0074325D01*
X0032139Y0074257D01*
X0032080Y0074187D01*
X0032023Y0074114D01*
X0031970Y0074039D01*
X0031920Y0073962D01*
X0031874Y0073883D01*
X0031831Y0073802D01*
X0031791Y0073719D01*
X0031755Y0073634D01*
X0031723Y0073548D01*
X0031694Y0073461D01*
X0031669Y0073373D01*
X0031648Y0073283D01*
X0031630Y0073193D01*
X0031617Y0073102D01*
X0031607Y0073011D01*
X0031601Y0072919D01*
X0031599Y0072827D01*
X0031601Y0072735D01*
X0031607Y0072643D01*
X0031617Y0072552D01*
X0031630Y0072461D01*
X0031648Y0072371D01*
X0031669Y0072281D01*
X0031694Y0072193D01*
X0031723Y0072106D01*
X0031755Y0072020D01*
X0031791Y0071935D01*
X0031831Y0071852D01*
X0031874Y0071771D01*
X0031920Y0071692D01*
X0031970Y0071615D01*
X0032023Y0071540D01*
X0032080Y0071467D01*
X0032139Y0071397D01*
X0032201Y0071329D01*
X0032266Y0071264D01*
X0032334Y0071202D01*
X0032404Y0071143D01*
X0032477Y0071086D01*
X0032552Y0071033D01*
X0032629Y0070983D01*
X0032708Y0070937D01*
X0032789Y0070894D01*
X0032872Y0070854D01*
X0032957Y0070818D01*
X0033043Y0070786D01*
X0033130Y0070757D01*
X0033218Y0070732D01*
X0033308Y0070711D01*
X0033398Y0070693D01*
X0033489Y0070680D01*
X0033580Y0070670D01*
X0033672Y0070664D01*
X0033764Y0070662D01*
X0033370Y0056882D02*
X0030614Y0056882D01*
X0031007Y0049402D02*
X0030919Y0049269D01*
X0030828Y0049138D01*
X0030734Y0049009D01*
X0030636Y0048882D01*
X0030536Y0048758D01*
X0030432Y0048637D01*
X0030326Y0048518D01*
X0030216Y0048401D01*
X0030104Y0048287D01*
X0029989Y0048176D01*
X0029872Y0048068D01*
X0029752Y0047963D01*
X0029629Y0047861D01*
X0029504Y0047762D01*
X0029376Y0047666D01*
X0029246Y0047573D01*
X0029114Y0047483D01*
X0028980Y0047396D01*
X0028844Y0047313D01*
X0028705Y0047233D01*
X0028565Y0047156D01*
X0028423Y0047083D01*
X0028280Y0047014D01*
X0028134Y0046948D01*
X0027987Y0046885D01*
X0027839Y0046826D01*
X0027689Y0046771D01*
X0027538Y0046719D01*
X0027385Y0046671D01*
X0027232Y0046627D01*
X0027077Y0046587D01*
X0026922Y0046550D01*
X0026766Y0046517D01*
X0026609Y0046488D01*
X0026451Y0046463D01*
X0026293Y0046442D01*
X0026134Y0046424D01*
X0025975Y0046411D01*
X0025815Y0046401D01*
X0025656Y0046395D01*
X0025496Y0046393D01*
X0025336Y0046395D01*
X0025177Y0046401D01*
X0025017Y0046411D01*
X0024858Y0046424D01*
X0024699Y0046442D01*
X0024541Y0046463D01*
X0024383Y0046488D01*
X0024226Y0046517D01*
X0024070Y0046550D01*
X0023915Y0046587D01*
X0023760Y0046627D01*
X0023607Y0046671D01*
X0023454Y0046719D01*
X0023303Y0046771D01*
X0023153Y0046826D01*
X0023005Y0046885D01*
X0022858Y0046948D01*
X0022712Y0047014D01*
X0022569Y0047083D01*
X0022427Y0047156D01*
X0022287Y0047233D01*
X0022148Y0047313D01*
X0022012Y0047396D01*
X0021878Y0047483D01*
X0021746Y0047573D01*
X0021616Y0047666D01*
X0021488Y0047762D01*
X0021363Y0047861D01*
X0021240Y0047963D01*
X0021120Y0048068D01*
X0021003Y0048176D01*
X0020888Y0048287D01*
X0020776Y0048401D01*
X0020666Y0048518D01*
X0020560Y0048637D01*
X0020456Y0048758D01*
X0020356Y0048882D01*
X0020258Y0049009D01*
X0020164Y0049138D01*
X0020073Y0049269D01*
X0019985Y0049402D01*
X0019984Y0049402D02*
X0019984Y0056488D01*
X0019985Y0056488D02*
X0020073Y0056621D01*
X0020164Y0056752D01*
X0020258Y0056881D01*
X0020356Y0057008D01*
X0020456Y0057132D01*
X0020560Y0057253D01*
X0020666Y0057372D01*
X0020776Y0057489D01*
X0020888Y0057603D01*
X0021003Y0057714D01*
X0021120Y0057822D01*
X0021240Y0057927D01*
X0021363Y0058029D01*
X0021488Y0058128D01*
X0021616Y0058224D01*
X0021746Y0058317D01*
X0021878Y0058407D01*
X0022012Y0058494D01*
X0022148Y0058577D01*
X0022287Y0058657D01*
X0022427Y0058734D01*
X0022569Y0058807D01*
X0022712Y0058876D01*
X0022858Y0058942D01*
X0023005Y0059005D01*
X0023153Y0059064D01*
X0023303Y0059119D01*
X0023454Y0059171D01*
X0023607Y0059219D01*
X0023760Y0059263D01*
X0023915Y0059303D01*
X0024070Y0059340D01*
X0024226Y0059373D01*
X0024383Y0059402D01*
X0024541Y0059427D01*
X0024699Y0059448D01*
X0024858Y0059466D01*
X0025017Y0059479D01*
X0025177Y0059489D01*
X0025336Y0059495D01*
X0025496Y0059497D01*
X0025656Y0059495D01*
X0025815Y0059489D01*
X0025975Y0059479D01*
X0026134Y0059466D01*
X0026293Y0059448D01*
X0026451Y0059427D01*
X0026609Y0059402D01*
X0026766Y0059373D01*
X0026922Y0059340D01*
X0027077Y0059303D01*
X0027232Y0059263D01*
X0027385Y0059219D01*
X0027538Y0059171D01*
X0027689Y0059119D01*
X0027839Y0059064D01*
X0027987Y0059005D01*
X0028134Y0058942D01*
X0028280Y0058876D01*
X0028423Y0058807D01*
X0028565Y0058734D01*
X0028705Y0058657D01*
X0028844Y0058577D01*
X0028980Y0058494D01*
X0029114Y0058407D01*
X0029246Y0058317D01*
X0029376Y0058224D01*
X0029504Y0058128D01*
X0029629Y0058029D01*
X0029752Y0057927D01*
X0029872Y0057822D01*
X0029989Y0057714D01*
X0030104Y0057603D01*
X0030216Y0057489D01*
X0030326Y0057372D01*
X0030432Y0057253D01*
X0030536Y0057132D01*
X0030636Y0057008D01*
X0030734Y0056881D01*
X0030828Y0056752D01*
X0030919Y0056621D01*
X0031007Y0056488D01*
X0030614Y0049008D02*
X0033370Y0049008D01*
X0054630Y0049008D02*
X0057386Y0049008D01*
X0056993Y0056488D02*
X0057081Y0056621D01*
X0057172Y0056752D01*
X0057266Y0056881D01*
X0057364Y0057008D01*
X0057464Y0057132D01*
X0057568Y0057253D01*
X0057674Y0057372D01*
X0057784Y0057489D01*
X0057896Y0057603D01*
X0058011Y0057714D01*
X0058128Y0057822D01*
X0058248Y0057927D01*
X0058371Y0058029D01*
X0058496Y0058128D01*
X0058624Y0058224D01*
X0058754Y0058317D01*
X0058886Y0058407D01*
X0059020Y0058494D01*
X0059156Y0058577D01*
X0059295Y0058657D01*
X0059435Y0058734D01*
X0059577Y0058807D01*
X0059720Y0058876D01*
X0059866Y0058942D01*
X0060013Y0059005D01*
X0060161Y0059064D01*
X0060311Y0059119D01*
X0060462Y0059171D01*
X0060615Y0059219D01*
X0060768Y0059263D01*
X0060923Y0059303D01*
X0061078Y0059340D01*
X0061234Y0059373D01*
X0061391Y0059402D01*
X0061549Y0059427D01*
X0061707Y0059448D01*
X0061866Y0059466D01*
X0062025Y0059479D01*
X0062185Y0059489D01*
X0062344Y0059495D01*
X0062504Y0059497D01*
X0062664Y0059495D01*
X0062823Y0059489D01*
X0062983Y0059479D01*
X0063142Y0059466D01*
X0063301Y0059448D01*
X0063459Y0059427D01*
X0063617Y0059402D01*
X0063774Y0059373D01*
X0063930Y0059340D01*
X0064085Y0059303D01*
X0064240Y0059263D01*
X0064393Y0059219D01*
X0064546Y0059171D01*
X0064697Y0059119D01*
X0064847Y0059064D01*
X0064995Y0059005D01*
X0065142Y0058942D01*
X0065288Y0058876D01*
X0065431Y0058807D01*
X0065573Y0058734D01*
X0065713Y0058657D01*
X0065852Y0058577D01*
X0065988Y0058494D01*
X0066122Y0058407D01*
X0066254Y0058317D01*
X0066384Y0058224D01*
X0066512Y0058128D01*
X0066637Y0058029D01*
X0066760Y0057927D01*
X0066880Y0057822D01*
X0066997Y0057714D01*
X0067112Y0057603D01*
X0067224Y0057489D01*
X0067334Y0057372D01*
X0067440Y0057253D01*
X0067544Y0057132D01*
X0067644Y0057008D01*
X0067742Y0056881D01*
X0067836Y0056752D01*
X0067927Y0056621D01*
X0068015Y0056488D01*
X0068016Y0056488D02*
X0068016Y0049402D01*
X0068015Y0049402D02*
X0067927Y0049269D01*
X0067836Y0049138D01*
X0067742Y0049009D01*
X0067644Y0048882D01*
X0067544Y0048758D01*
X0067440Y0048637D01*
X0067334Y0048518D01*
X0067224Y0048401D01*
X0067112Y0048287D01*
X0066997Y0048176D01*
X0066880Y0048068D01*
X0066760Y0047963D01*
X0066637Y0047861D01*
X0066512Y0047762D01*
X0066384Y0047666D01*
X0066254Y0047573D01*
X0066122Y0047483D01*
X0065988Y0047396D01*
X0065852Y0047313D01*
X0065713Y0047233D01*
X0065573Y0047156D01*
X0065431Y0047083D01*
X0065288Y0047014D01*
X0065142Y0046948D01*
X0064995Y0046885D01*
X0064847Y0046826D01*
X0064697Y0046771D01*
X0064546Y0046719D01*
X0064393Y0046671D01*
X0064240Y0046627D01*
X0064085Y0046587D01*
X0063930Y0046550D01*
X0063774Y0046517D01*
X0063617Y0046488D01*
X0063459Y0046463D01*
X0063301Y0046442D01*
X0063142Y0046424D01*
X0062983Y0046411D01*
X0062823Y0046401D01*
X0062664Y0046395D01*
X0062504Y0046393D01*
X0062344Y0046395D01*
X0062185Y0046401D01*
X0062025Y0046411D01*
X0061866Y0046424D01*
X0061707Y0046442D01*
X0061549Y0046463D01*
X0061391Y0046488D01*
X0061234Y0046517D01*
X0061078Y0046550D01*
X0060923Y0046587D01*
X0060768Y0046627D01*
X0060615Y0046671D01*
X0060462Y0046719D01*
X0060311Y0046771D01*
X0060161Y0046826D01*
X0060013Y0046885D01*
X0059866Y0046948D01*
X0059720Y0047014D01*
X0059577Y0047083D01*
X0059435Y0047156D01*
X0059295Y0047233D01*
X0059156Y0047313D01*
X0059020Y0047396D01*
X0058886Y0047483D01*
X0058754Y0047573D01*
X0058624Y0047666D01*
X0058496Y0047762D01*
X0058371Y0047861D01*
X0058248Y0047963D01*
X0058128Y0048068D01*
X0058011Y0048176D01*
X0057896Y0048287D01*
X0057784Y0048401D01*
X0057674Y0048518D01*
X0057568Y0048637D01*
X0057464Y0048758D01*
X0057364Y0048882D01*
X0057266Y0049009D01*
X0057172Y0049138D01*
X0057081Y0049269D01*
X0056993Y0049402D01*
X0057386Y0056882D02*
X0054630Y0056882D01*
M02*
