G75*
%MOIN*%
%OFA0B0*%
%FSLAX25Y25*%
%IPPOS*%
%LPD*%
%AMOC8*
5,1,8,0,0,1.08239X$1,22.5*
%
%ADD10OC8,0.05200*%
%ADD11R,0.08268X0.08268*%
%ADD12C,0.01000*%
%ADD13C,0.02978*%
D10*
X0071000Y0026000D03*
X0071000Y0036000D03*
X0151000Y0081000D03*
X0151000Y0091000D03*
X0136000Y0121000D03*
X0116000Y0121000D03*
D11*
X0031000Y0126827D03*
X0031000Y0105173D03*
D12*
X0008384Y0008616D02*
X0156000Y0008616D01*
X0156000Y0009614D02*
X0007386Y0009614D01*
X0006387Y0010613D02*
X0156000Y0010613D01*
X0156000Y0011611D02*
X0006000Y0011611D01*
X0006000Y0011000D02*
X0006000Y0116796D01*
X0006107Y0116689D01*
X0008480Y0115319D01*
X0011126Y0114610D01*
X0013866Y0114610D01*
X0016512Y0115319D01*
X0018885Y0116689D01*
X0020823Y0118627D01*
X0022192Y0120999D01*
X0022902Y0123646D01*
X0022902Y0126386D01*
X0022192Y0129032D01*
X0020823Y0131405D01*
X0018885Y0133342D01*
X0016512Y0134712D01*
X0013866Y0135421D01*
X0011126Y0135421D01*
X0008480Y0134712D01*
X0006107Y0133342D01*
X0006000Y0133235D01*
X0006000Y0136000D01*
X0006461Y0136461D01*
X0155539Y0136461D01*
X0156000Y0136000D01*
X0156000Y0006000D01*
X0011000Y0006000D01*
X0006000Y0011000D01*
X0006000Y0012610D02*
X0156000Y0012610D01*
X0156000Y0013608D02*
X0006000Y0013608D01*
X0006000Y0014607D02*
X0156000Y0014607D01*
X0156000Y0015605D02*
X0006000Y0015605D01*
X0006000Y0016604D02*
X0156000Y0016604D01*
X0156000Y0017603D02*
X0006000Y0017603D01*
X0006000Y0018601D02*
X0156000Y0018601D01*
X0156000Y0019600D02*
X0006000Y0019600D01*
X0006000Y0020598D02*
X0156000Y0020598D01*
X0156000Y0021597D02*
X0006000Y0021597D01*
X0006000Y0022595D02*
X0068607Y0022595D01*
X0069302Y0021900D02*
X0066900Y0024302D01*
X0066900Y0025700D01*
X0070700Y0025700D01*
X0070700Y0026300D01*
X0070700Y0030100D01*
X0069302Y0030100D01*
X0066900Y0027698D01*
X0066900Y0026300D01*
X0070700Y0026300D01*
X0071300Y0026300D01*
X0071300Y0030100D01*
X0072698Y0030100D01*
X0075100Y0027698D01*
X0075100Y0026300D01*
X0071300Y0026300D01*
X0071300Y0025700D01*
X0075100Y0025700D01*
X0075100Y0024302D01*
X0072698Y0021900D01*
X0071300Y0021900D01*
X0071300Y0025700D01*
X0070700Y0025700D01*
X0070700Y0021900D01*
X0069302Y0021900D01*
X0070700Y0022595D02*
X0071300Y0022595D01*
X0071300Y0023594D02*
X0070700Y0023594D01*
X0070700Y0024592D02*
X0071300Y0024592D01*
X0071300Y0025591D02*
X0070700Y0025591D01*
X0071000Y0026000D02*
X0061000Y0026000D01*
X0056000Y0031000D01*
X0056000Y0101827D01*
X0031000Y0126827D01*
X0043217Y0114610D01*
X0053814Y0114610D01*
X0055204Y0116000D01*
X0061000Y0116000D01*
X0057830Y0118627D02*
X0059200Y0120999D01*
X0059909Y0123646D01*
X0059909Y0126386D01*
X0059200Y0129032D01*
X0057830Y0131405D01*
X0055893Y0133342D01*
X0053520Y0134712D01*
X0050874Y0135421D01*
X0048134Y0135421D01*
X0045488Y0134712D01*
X0043115Y0133342D01*
X0041177Y0131405D01*
X0039808Y0129032D01*
X0039098Y0126386D01*
X0039098Y0123646D01*
X0039808Y0120999D01*
X0041177Y0118627D01*
X0043115Y0116689D01*
X0045488Y0115319D01*
X0048134Y0114610D01*
X0050874Y0114610D01*
X0053520Y0115319D01*
X0055893Y0116689D01*
X0057830Y0118627D01*
X0057656Y0118452D02*
X0113315Y0118452D01*
X0112317Y0119451D02*
X0058306Y0119451D01*
X0058883Y0120449D02*
X0112300Y0120449D01*
X0112300Y0119467D02*
X0114467Y0117300D01*
X0117533Y0117300D01*
X0119700Y0119467D01*
X0119700Y0122533D01*
X0117533Y0124700D01*
X0114467Y0124700D01*
X0112300Y0122533D01*
X0112300Y0119467D01*
X0112300Y0121448D02*
X0059320Y0121448D01*
X0059588Y0122446D02*
X0112300Y0122446D01*
X0113212Y0123445D02*
X0059856Y0123445D01*
X0059909Y0124443D02*
X0114211Y0124443D01*
X0117789Y0124443D02*
X0134211Y0124443D01*
X0134467Y0124700D02*
X0132300Y0122533D01*
X0132300Y0119467D01*
X0134467Y0117300D01*
X0137533Y0117300D01*
X0139700Y0119467D01*
X0139700Y0122533D01*
X0137533Y0124700D01*
X0134467Y0124700D01*
X0133212Y0123445D02*
X0118788Y0123445D01*
X0119700Y0122446D02*
X0132300Y0122446D01*
X0132300Y0121448D02*
X0119700Y0121448D01*
X0119700Y0120449D02*
X0132300Y0120449D01*
X0132317Y0119451D02*
X0119683Y0119451D01*
X0118685Y0118452D02*
X0133315Y0118452D01*
X0134314Y0117454D02*
X0117686Y0117454D01*
X0114314Y0117454D02*
X0056657Y0117454D01*
X0055488Y0116455D02*
X0156000Y0116455D01*
X0156000Y0115457D02*
X0053758Y0115457D01*
X0045250Y0115457D02*
X0016750Y0115457D01*
X0018480Y0116455D02*
X0043520Y0116455D01*
X0042350Y0117454D02*
X0019650Y0117454D01*
X0020648Y0118452D02*
X0041352Y0118452D01*
X0040702Y0119451D02*
X0021298Y0119451D01*
X0021875Y0120449D02*
X0040125Y0120449D01*
X0039687Y0121448D02*
X0035977Y0121448D01*
X0036055Y0121493D02*
X0036334Y0121772D01*
X0036532Y0122114D01*
X0036634Y0122495D01*
X0036634Y0126327D01*
X0031500Y0126327D01*
X0031500Y0127327D01*
X0030500Y0127327D01*
X0030500Y0132461D01*
X0026669Y0132461D01*
X0026287Y0132358D01*
X0025945Y0132161D01*
X0025666Y0131882D01*
X0025468Y0131540D01*
X0025366Y0131158D01*
X0025366Y0127327D01*
X0030500Y0127327D01*
X0030500Y0126327D01*
X0025366Y0126327D01*
X0025366Y0122495D01*
X0025468Y0122114D01*
X0025666Y0121772D01*
X0025945Y0121493D01*
X0026287Y0121295D01*
X0026669Y0121193D01*
X0030500Y0121193D01*
X0030500Y0126327D01*
X0031500Y0126327D01*
X0031500Y0121193D01*
X0035331Y0121193D01*
X0035713Y0121295D01*
X0036055Y0121493D01*
X0036621Y0122446D02*
X0039420Y0122446D01*
X0039152Y0123445D02*
X0036634Y0123445D01*
X0036634Y0124443D02*
X0039098Y0124443D01*
X0039098Y0125442D02*
X0036634Y0125442D01*
X0036634Y0127327D02*
X0036634Y0131158D01*
X0036532Y0131540D01*
X0036334Y0131882D01*
X0036055Y0132161D01*
X0035713Y0132358D01*
X0035331Y0132461D01*
X0031500Y0132461D01*
X0031500Y0127327D01*
X0036634Y0127327D01*
X0036634Y0127439D02*
X0039381Y0127439D01*
X0039648Y0128437D02*
X0036634Y0128437D01*
X0036634Y0129436D02*
X0040041Y0129436D01*
X0040617Y0130434D02*
X0036634Y0130434D01*
X0036560Y0131433D02*
X0041205Y0131433D01*
X0042204Y0132431D02*
X0035441Y0132431D01*
X0031500Y0132431D02*
X0030500Y0132431D01*
X0030500Y0131433D02*
X0031500Y0131433D01*
X0031500Y0130434D02*
X0030500Y0130434D01*
X0030500Y0129436D02*
X0031500Y0129436D01*
X0031500Y0128437D02*
X0030500Y0128437D01*
X0030500Y0127439D02*
X0031500Y0127439D01*
X0031500Y0126440D02*
X0039113Y0126440D01*
X0031500Y0125442D02*
X0030500Y0125442D01*
X0030500Y0126440D02*
X0022887Y0126440D01*
X0022902Y0125442D02*
X0025366Y0125442D01*
X0025366Y0124443D02*
X0022902Y0124443D01*
X0022848Y0123445D02*
X0025366Y0123445D01*
X0025379Y0122446D02*
X0022580Y0122446D01*
X0022313Y0121448D02*
X0026023Y0121448D01*
X0030500Y0121448D02*
X0031500Y0121448D01*
X0031500Y0122446D02*
X0030500Y0122446D01*
X0030500Y0123445D02*
X0031500Y0123445D01*
X0031500Y0124443D02*
X0030500Y0124443D01*
X0025366Y0127439D02*
X0022619Y0127439D01*
X0022352Y0128437D02*
X0025366Y0128437D01*
X0025366Y0129436D02*
X0021959Y0129436D01*
X0021383Y0130434D02*
X0025366Y0130434D01*
X0025440Y0131433D02*
X0020795Y0131433D01*
X0019796Y0132431D02*
X0026559Y0132431D01*
X0018733Y0133430D02*
X0043267Y0133430D01*
X0044996Y0134428D02*
X0017004Y0134428D01*
X0007988Y0134428D02*
X0006000Y0134428D01*
X0006000Y0133430D02*
X0006259Y0133430D01*
X0006000Y0135427D02*
X0156000Y0135427D01*
X0156000Y0134428D02*
X0054012Y0134428D01*
X0055741Y0133430D02*
X0156000Y0133430D01*
X0156000Y0132431D02*
X0056804Y0132431D01*
X0057802Y0131433D02*
X0156000Y0131433D01*
X0156000Y0130434D02*
X0058391Y0130434D01*
X0058967Y0129436D02*
X0156000Y0129436D01*
X0156000Y0128437D02*
X0059360Y0128437D01*
X0059627Y0127439D02*
X0156000Y0127439D01*
X0156000Y0126440D02*
X0059895Y0126440D01*
X0059909Y0125442D02*
X0156000Y0125442D01*
X0156000Y0124443D02*
X0137789Y0124443D01*
X0138788Y0123445D02*
X0156000Y0123445D01*
X0156000Y0122446D02*
X0139700Y0122446D01*
X0139700Y0121448D02*
X0156000Y0121448D01*
X0156000Y0120449D02*
X0139700Y0120449D01*
X0139683Y0119451D02*
X0156000Y0119451D01*
X0156000Y0118452D02*
X0138685Y0118452D01*
X0137686Y0117454D02*
X0156000Y0117454D01*
X0156000Y0114458D02*
X0006000Y0114458D01*
X0006000Y0113460D02*
X0156000Y0113460D01*
X0156000Y0112461D02*
X0006000Y0112461D01*
X0006000Y0111463D02*
X0156000Y0111463D01*
X0156000Y0110464D02*
X0006000Y0110464D01*
X0006000Y0109466D02*
X0025766Y0109466D01*
X0025766Y0109763D02*
X0025766Y0100584D01*
X0026410Y0099939D01*
X0035589Y0099939D01*
X0036234Y0100584D01*
X0036234Y0109763D01*
X0035589Y0110407D01*
X0026410Y0110407D01*
X0025766Y0109763D01*
X0025766Y0108467D02*
X0006000Y0108467D01*
X0006000Y0107469D02*
X0025766Y0107469D01*
X0025766Y0106470D02*
X0006000Y0106470D01*
X0006000Y0105472D02*
X0025766Y0105472D01*
X0025766Y0104473D02*
X0006000Y0104473D01*
X0006000Y0103474D02*
X0025766Y0103474D01*
X0025766Y0102476D02*
X0006000Y0102476D01*
X0006000Y0101477D02*
X0025766Y0101477D01*
X0025871Y0100479D02*
X0006000Y0100479D01*
X0006000Y0099480D02*
X0156000Y0099480D01*
X0156000Y0098482D02*
X0006000Y0098482D01*
X0006000Y0097483D02*
X0156000Y0097483D01*
X0156000Y0096485D02*
X0006000Y0096485D01*
X0006000Y0095486D02*
X0156000Y0095486D01*
X0156000Y0094488D02*
X0152745Y0094488D01*
X0152533Y0094700D02*
X0149467Y0094700D01*
X0147300Y0092533D01*
X0147300Y0089467D01*
X0149467Y0087300D01*
X0152533Y0087300D01*
X0154700Y0089467D01*
X0154700Y0092533D01*
X0152533Y0094700D01*
X0153743Y0093489D02*
X0156000Y0093489D01*
X0156000Y0092491D02*
X0154700Y0092491D01*
X0154700Y0091492D02*
X0156000Y0091492D01*
X0156000Y0090494D02*
X0154700Y0090494D01*
X0154700Y0089495D02*
X0156000Y0089495D01*
X0156000Y0088497D02*
X0153729Y0088497D01*
X0152731Y0087498D02*
X0156000Y0087498D01*
X0156000Y0086500D02*
X0006000Y0086500D01*
X0006000Y0087498D02*
X0149269Y0087498D01*
X0148271Y0088497D02*
X0006000Y0088497D01*
X0006000Y0089495D02*
X0147300Y0089495D01*
X0147300Y0090494D02*
X0006000Y0090494D01*
X0006000Y0091492D02*
X0147300Y0091492D01*
X0147300Y0092491D02*
X0006000Y0092491D01*
X0006000Y0093489D02*
X0148257Y0093489D01*
X0149255Y0094488D02*
X0006000Y0094488D01*
X0006000Y0085501D02*
X0156000Y0085501D01*
X0156000Y0084503D02*
X0153295Y0084503D01*
X0152698Y0085100D02*
X0151300Y0085100D01*
X0151300Y0081300D01*
X0150700Y0081300D01*
X0150700Y0085100D01*
X0149302Y0085100D01*
X0146900Y0082698D01*
X0146900Y0081300D01*
X0150700Y0081300D01*
X0150700Y0080700D01*
X0146900Y0080700D01*
X0146900Y0079302D01*
X0149302Y0076900D01*
X0150700Y0076900D01*
X0150700Y0080700D01*
X0151300Y0080700D01*
X0151300Y0081300D01*
X0155100Y0081300D01*
X0155100Y0082698D01*
X0152698Y0085100D01*
X0151300Y0084503D02*
X0150700Y0084503D01*
X0150700Y0083504D02*
X0151300Y0083504D01*
X0151300Y0082506D02*
X0150700Y0082506D01*
X0150700Y0081507D02*
X0151300Y0081507D01*
X0151300Y0080700D02*
X0155100Y0080700D01*
X0155100Y0079302D01*
X0152698Y0076900D01*
X0151300Y0076900D01*
X0151300Y0080700D01*
X0151300Y0080509D02*
X0150700Y0080509D01*
X0150700Y0079510D02*
X0151300Y0079510D01*
X0151300Y0078512D02*
X0150700Y0078512D01*
X0150700Y0077513D02*
X0151300Y0077513D01*
X0153311Y0077513D02*
X0156000Y0077513D01*
X0156000Y0076515D02*
X0006000Y0076515D01*
X0006000Y0077513D02*
X0148689Y0077513D01*
X0147690Y0078512D02*
X0006000Y0078512D01*
X0006000Y0079510D02*
X0146900Y0079510D01*
X0146900Y0080509D02*
X0006000Y0080509D01*
X0006000Y0081507D02*
X0146900Y0081507D01*
X0146900Y0082506D02*
X0006000Y0082506D01*
X0006000Y0083504D02*
X0147706Y0083504D01*
X0148705Y0084503D02*
X0006000Y0084503D01*
X0006000Y0075516D02*
X0156000Y0075516D01*
X0156000Y0074518D02*
X0006000Y0074518D01*
X0006000Y0073519D02*
X0156000Y0073519D01*
X0156000Y0072521D02*
X0006000Y0072521D01*
X0006000Y0071522D02*
X0156000Y0071522D01*
X0156000Y0070524D02*
X0006000Y0070524D01*
X0006000Y0069525D02*
X0156000Y0069525D01*
X0156000Y0068527D02*
X0006000Y0068527D01*
X0006000Y0067528D02*
X0156000Y0067528D01*
X0156000Y0066530D02*
X0006000Y0066530D01*
X0006000Y0065531D02*
X0156000Y0065531D01*
X0156000Y0064533D02*
X0006000Y0064533D01*
X0006000Y0063534D02*
X0156000Y0063534D01*
X0156000Y0062536D02*
X0006000Y0062536D01*
X0006000Y0061537D02*
X0156000Y0061537D01*
X0156000Y0060539D02*
X0006000Y0060539D01*
X0006000Y0059540D02*
X0156000Y0059540D01*
X0156000Y0058541D02*
X0006000Y0058541D01*
X0006000Y0057543D02*
X0156000Y0057543D01*
X0156000Y0056544D02*
X0006000Y0056544D01*
X0006000Y0055546D02*
X0156000Y0055546D01*
X0156000Y0054547D02*
X0006000Y0054547D01*
X0006000Y0053549D02*
X0156000Y0053549D01*
X0156000Y0052550D02*
X0006000Y0052550D01*
X0006000Y0051552D02*
X0156000Y0051552D01*
X0156000Y0050553D02*
X0006000Y0050553D01*
X0006000Y0049555D02*
X0156000Y0049555D01*
X0156000Y0048556D02*
X0006000Y0048556D01*
X0006000Y0047558D02*
X0156000Y0047558D01*
X0156000Y0046559D02*
X0006000Y0046559D01*
X0006000Y0045561D02*
X0156000Y0045561D01*
X0156000Y0044562D02*
X0006000Y0044562D01*
X0006000Y0043564D02*
X0156000Y0043564D01*
X0156000Y0042565D02*
X0006000Y0042565D01*
X0006000Y0041567D02*
X0156000Y0041567D01*
X0156000Y0040568D02*
X0006000Y0040568D01*
X0006000Y0039570D02*
X0069337Y0039570D01*
X0069467Y0039700D02*
X0067300Y0037533D01*
X0067300Y0034467D01*
X0069467Y0032300D01*
X0072533Y0032300D01*
X0074700Y0034467D01*
X0074700Y0037533D01*
X0072533Y0039700D01*
X0069467Y0039700D01*
X0068339Y0038571D02*
X0006000Y0038571D01*
X0006000Y0037573D02*
X0067340Y0037573D01*
X0067300Y0036574D02*
X0006000Y0036574D01*
X0006000Y0035576D02*
X0067300Y0035576D01*
X0067300Y0034577D02*
X0006000Y0034577D01*
X0006000Y0033579D02*
X0068189Y0033579D01*
X0069187Y0032580D02*
X0006000Y0032580D01*
X0006000Y0031582D02*
X0156000Y0031582D01*
X0156000Y0032580D02*
X0072813Y0032580D01*
X0073811Y0033579D02*
X0156000Y0033579D01*
X0156000Y0034577D02*
X0074700Y0034577D01*
X0074700Y0035576D02*
X0156000Y0035576D01*
X0156000Y0036574D02*
X0074700Y0036574D01*
X0074660Y0037573D02*
X0156000Y0037573D01*
X0156000Y0038571D02*
X0073661Y0038571D01*
X0072663Y0039570D02*
X0156000Y0039570D01*
X0156000Y0030583D02*
X0006000Y0030583D01*
X0006000Y0029585D02*
X0068786Y0029585D01*
X0067788Y0028586D02*
X0006000Y0028586D01*
X0006000Y0027588D02*
X0066900Y0027588D01*
X0066900Y0026589D02*
X0006000Y0026589D01*
X0006000Y0025591D02*
X0066900Y0025591D01*
X0066900Y0024592D02*
X0006000Y0024592D01*
X0006000Y0023594D02*
X0067608Y0023594D01*
X0070700Y0026589D02*
X0071300Y0026589D01*
X0071300Y0027588D02*
X0070700Y0027588D01*
X0070700Y0028586D02*
X0071300Y0028586D01*
X0071300Y0029585D02*
X0070700Y0029585D01*
X0073214Y0029585D02*
X0156000Y0029585D01*
X0156000Y0028586D02*
X0074212Y0028586D01*
X0075100Y0027588D02*
X0156000Y0027588D01*
X0156000Y0026589D02*
X0075100Y0026589D01*
X0075100Y0025591D02*
X0156000Y0025591D01*
X0156000Y0024592D02*
X0075100Y0024592D01*
X0074392Y0023594D02*
X0156000Y0023594D01*
X0156000Y0022595D02*
X0073393Y0022595D01*
X0010381Y0006619D02*
X0156000Y0006619D01*
X0156000Y0007617D02*
X0009383Y0007617D01*
X0036129Y0100479D02*
X0156000Y0100479D01*
X0156000Y0101477D02*
X0036234Y0101477D01*
X0036234Y0102476D02*
X0156000Y0102476D01*
X0156000Y0103474D02*
X0036234Y0103474D01*
X0036234Y0104473D02*
X0156000Y0104473D01*
X0156000Y0105472D02*
X0036234Y0105472D01*
X0036234Y0106470D02*
X0156000Y0106470D01*
X0156000Y0107469D02*
X0036234Y0107469D01*
X0036234Y0108467D02*
X0156000Y0108467D01*
X0156000Y0109466D02*
X0036234Y0109466D01*
X0008242Y0115457D02*
X0006000Y0115457D01*
X0006000Y0116455D02*
X0006512Y0116455D01*
X0006425Y0136425D02*
X0155575Y0136425D01*
X0156000Y0083504D02*
X0154294Y0083504D01*
X0155100Y0082506D02*
X0156000Y0082506D01*
X0156000Y0081507D02*
X0155100Y0081507D01*
X0155100Y0080509D02*
X0156000Y0080509D01*
X0156000Y0079510D02*
X0155100Y0079510D01*
X0154310Y0078512D02*
X0156000Y0078512D01*
D13*
X0061000Y0116000D03*
M02*
