G75*
%MOIN*%
%OFA0B0*%
%FSLAX25Y25*%
%IPPOS*%
%LPD*%
%AMOC8*
5,1,8,0,0,1.08239X$1,22.5*
%
%ADD10C,0.00600*%
%ADD11C,0.01000*%
%ADD12C,0.01200*%
D10*
X0066500Y0024500D02*
X0066500Y0037500D01*
X0066502Y0037587D01*
X0066508Y0037674D01*
X0066517Y0037761D01*
X0066530Y0037847D01*
X0066547Y0037933D01*
X0066568Y0038018D01*
X0066593Y0038101D01*
X0066621Y0038184D01*
X0066652Y0038265D01*
X0066687Y0038345D01*
X0066726Y0038423D01*
X0066768Y0038500D01*
X0066813Y0038575D01*
X0066862Y0038647D01*
X0066913Y0038718D01*
X0066968Y0038786D01*
X0067025Y0038851D01*
X0067086Y0038914D01*
X0067149Y0038975D01*
X0067214Y0039032D01*
X0067282Y0039087D01*
X0067353Y0039138D01*
X0067425Y0039187D01*
X0067500Y0039232D01*
X0067577Y0039274D01*
X0067655Y0039313D01*
X0067735Y0039348D01*
X0067816Y0039379D01*
X0067899Y0039407D01*
X0067982Y0039432D01*
X0068067Y0039453D01*
X0068153Y0039470D01*
X0068239Y0039483D01*
X0068326Y0039492D01*
X0068413Y0039498D01*
X0068500Y0039500D01*
X0073500Y0039500D01*
X0073587Y0039498D01*
X0073674Y0039492D01*
X0073761Y0039483D01*
X0073847Y0039470D01*
X0073933Y0039453D01*
X0074018Y0039432D01*
X0074101Y0039407D01*
X0074184Y0039379D01*
X0074265Y0039348D01*
X0074345Y0039313D01*
X0074423Y0039274D01*
X0074500Y0039232D01*
X0074575Y0039187D01*
X0074647Y0039138D01*
X0074718Y0039087D01*
X0074786Y0039032D01*
X0074851Y0038975D01*
X0074914Y0038914D01*
X0074975Y0038851D01*
X0075032Y0038786D01*
X0075087Y0038718D01*
X0075138Y0038647D01*
X0075187Y0038575D01*
X0075232Y0038500D01*
X0075274Y0038423D01*
X0075313Y0038345D01*
X0075348Y0038265D01*
X0075379Y0038184D01*
X0075407Y0038101D01*
X0075432Y0038018D01*
X0075453Y0037933D01*
X0075470Y0037847D01*
X0075483Y0037761D01*
X0075492Y0037674D01*
X0075498Y0037587D01*
X0075500Y0037500D01*
X0075500Y0024500D01*
X0075498Y0024413D01*
X0075492Y0024326D01*
X0075483Y0024239D01*
X0075470Y0024153D01*
X0075453Y0024067D01*
X0075432Y0023982D01*
X0075407Y0023899D01*
X0075379Y0023816D01*
X0075348Y0023735D01*
X0075313Y0023655D01*
X0075274Y0023577D01*
X0075232Y0023500D01*
X0075187Y0023425D01*
X0075138Y0023353D01*
X0075087Y0023282D01*
X0075032Y0023214D01*
X0074975Y0023149D01*
X0074914Y0023086D01*
X0074851Y0023025D01*
X0074786Y0022968D01*
X0074718Y0022913D01*
X0074647Y0022862D01*
X0074575Y0022813D01*
X0074500Y0022768D01*
X0074423Y0022726D01*
X0074345Y0022687D01*
X0074265Y0022652D01*
X0074184Y0022621D01*
X0074101Y0022593D01*
X0074018Y0022568D01*
X0073933Y0022547D01*
X0073847Y0022530D01*
X0073761Y0022517D01*
X0073674Y0022508D01*
X0073587Y0022502D01*
X0073500Y0022500D01*
X0068500Y0022500D01*
X0068413Y0022502D01*
X0068326Y0022508D01*
X0068239Y0022517D01*
X0068153Y0022530D01*
X0068067Y0022547D01*
X0067982Y0022568D01*
X0067899Y0022593D01*
X0067816Y0022621D01*
X0067735Y0022652D01*
X0067655Y0022687D01*
X0067577Y0022726D01*
X0067500Y0022768D01*
X0067425Y0022813D01*
X0067353Y0022862D01*
X0067282Y0022913D01*
X0067214Y0022968D01*
X0067149Y0023025D01*
X0067086Y0023086D01*
X0067025Y0023149D01*
X0066968Y0023214D01*
X0066913Y0023282D01*
X0066862Y0023353D01*
X0066813Y0023425D01*
X0066768Y0023500D01*
X0066726Y0023577D01*
X0066687Y0023655D01*
X0066652Y0023735D01*
X0066621Y0023816D01*
X0066593Y0023899D01*
X0066568Y0023982D01*
X0066547Y0024067D01*
X0066530Y0024153D01*
X0066517Y0024239D01*
X0066508Y0024326D01*
X0066502Y0024413D01*
X0066500Y0024500D01*
X0149000Y0085000D02*
X0149000Y0087000D01*
X0149500Y0087500D01*
X0149500Y0084500D02*
X0149565Y0084438D01*
X0149633Y0084378D01*
X0149703Y0084322D01*
X0149775Y0084268D01*
X0149850Y0084218D01*
X0149927Y0084171D01*
X0150005Y0084127D01*
X0150086Y0084086D01*
X0150168Y0084049D01*
X0150251Y0084016D01*
X0150336Y0083986D01*
X0150422Y0083959D01*
X0150509Y0083937D01*
X0150597Y0083918D01*
X0150686Y0083902D01*
X0150775Y0083891D01*
X0150865Y0083883D01*
X0150955Y0083879D01*
X0151045Y0083879D01*
X0151135Y0083883D01*
X0151225Y0083891D01*
X0151314Y0083902D01*
X0151403Y0083918D01*
X0151491Y0083937D01*
X0151578Y0083959D01*
X0151664Y0083986D01*
X0151749Y0084016D01*
X0151832Y0084049D01*
X0151914Y0084086D01*
X0151995Y0084127D01*
X0152073Y0084171D01*
X0152150Y0084218D01*
X0152225Y0084268D01*
X0152297Y0084322D01*
X0152367Y0084378D01*
X0152435Y0084438D01*
X0152500Y0084500D01*
X0153000Y0085000D01*
X0153000Y0087000D01*
X0152500Y0087500D01*
X0152000Y0086000D02*
X0151998Y0086060D01*
X0151993Y0086121D01*
X0151984Y0086180D01*
X0151971Y0086239D01*
X0151955Y0086298D01*
X0151935Y0086355D01*
X0151912Y0086410D01*
X0151885Y0086465D01*
X0151856Y0086517D01*
X0151823Y0086568D01*
X0151787Y0086617D01*
X0151749Y0086663D01*
X0151707Y0086707D01*
X0151663Y0086749D01*
X0151617Y0086787D01*
X0151568Y0086823D01*
X0151517Y0086856D01*
X0151465Y0086885D01*
X0151410Y0086912D01*
X0151355Y0086935D01*
X0151298Y0086955D01*
X0151239Y0086971D01*
X0151180Y0086984D01*
X0151121Y0086993D01*
X0151060Y0086998D01*
X0151000Y0087000D01*
X0150000Y0086000D02*
X0150002Y0085940D01*
X0150007Y0085879D01*
X0150016Y0085820D01*
X0150029Y0085761D01*
X0150045Y0085702D01*
X0150065Y0085645D01*
X0150088Y0085590D01*
X0150115Y0085535D01*
X0150144Y0085483D01*
X0150177Y0085432D01*
X0150213Y0085383D01*
X0150251Y0085337D01*
X0150293Y0085293D01*
X0150337Y0085251D01*
X0150383Y0085213D01*
X0150432Y0085177D01*
X0150483Y0085144D01*
X0150535Y0085115D01*
X0150590Y0085088D01*
X0150645Y0085065D01*
X0150702Y0085045D01*
X0150761Y0085029D01*
X0150820Y0085016D01*
X0150879Y0085007D01*
X0150940Y0085002D01*
X0151000Y0085000D01*
X0149500Y0084500D02*
X0149000Y0085000D01*
X0132000Y0117500D02*
X0131000Y0117500D01*
X0130500Y0118000D01*
X0121500Y0118000D01*
X0121000Y0117500D01*
X0120000Y0117500D01*
X0119940Y0117502D01*
X0119879Y0117507D01*
X0119820Y0117516D01*
X0119761Y0117529D01*
X0119702Y0117545D01*
X0119645Y0117565D01*
X0119590Y0117588D01*
X0119535Y0117615D01*
X0119483Y0117644D01*
X0119432Y0117677D01*
X0119383Y0117713D01*
X0119337Y0117751D01*
X0119293Y0117793D01*
X0119251Y0117837D01*
X0119213Y0117883D01*
X0119177Y0117932D01*
X0119144Y0117983D01*
X0119115Y0118035D01*
X0119088Y0118090D01*
X0119065Y0118145D01*
X0119045Y0118202D01*
X0119029Y0118261D01*
X0119016Y0118320D01*
X0119007Y0118379D01*
X0119002Y0118440D01*
X0119000Y0118500D01*
X0119000Y0123500D02*
X0119002Y0123560D01*
X0119007Y0123621D01*
X0119016Y0123680D01*
X0119029Y0123739D01*
X0119045Y0123798D01*
X0119065Y0123855D01*
X0119088Y0123910D01*
X0119115Y0123965D01*
X0119144Y0124017D01*
X0119177Y0124068D01*
X0119213Y0124117D01*
X0119251Y0124163D01*
X0119293Y0124207D01*
X0119337Y0124249D01*
X0119383Y0124287D01*
X0119432Y0124323D01*
X0119483Y0124356D01*
X0119535Y0124385D01*
X0119590Y0124412D01*
X0119645Y0124435D01*
X0119702Y0124455D01*
X0119761Y0124471D01*
X0119820Y0124484D01*
X0119879Y0124493D01*
X0119940Y0124498D01*
X0120000Y0124500D01*
X0121000Y0124500D01*
X0121500Y0124000D01*
X0130500Y0124000D01*
X0131000Y0124500D01*
X0132000Y0124500D01*
X0132060Y0124498D01*
X0132121Y0124493D01*
X0132180Y0124484D01*
X0132239Y0124471D01*
X0132298Y0124455D01*
X0132355Y0124435D01*
X0132410Y0124412D01*
X0132465Y0124385D01*
X0132517Y0124356D01*
X0132568Y0124323D01*
X0132617Y0124287D01*
X0132663Y0124249D01*
X0132707Y0124207D01*
X0132749Y0124163D01*
X0132787Y0124117D01*
X0132823Y0124068D01*
X0132856Y0124017D01*
X0132885Y0123965D01*
X0132912Y0123910D01*
X0132935Y0123855D01*
X0132955Y0123798D01*
X0132971Y0123739D01*
X0132984Y0123680D01*
X0132993Y0123621D01*
X0132998Y0123560D01*
X0133000Y0123500D01*
X0133000Y0118500D02*
X0132998Y0118440D01*
X0132993Y0118379D01*
X0132984Y0118320D01*
X0132971Y0118261D01*
X0132955Y0118202D01*
X0132935Y0118145D01*
X0132912Y0118090D01*
X0132885Y0118035D01*
X0132856Y0117983D01*
X0132823Y0117932D01*
X0132787Y0117883D01*
X0132749Y0117837D01*
X0132707Y0117793D01*
X0132663Y0117751D01*
X0132617Y0117713D01*
X0132568Y0117677D01*
X0132517Y0117644D01*
X0132465Y0117615D01*
X0132410Y0117588D01*
X0132355Y0117565D01*
X0132298Y0117545D01*
X0132239Y0117529D01*
X0132180Y0117516D01*
X0132121Y0117507D01*
X0132060Y0117502D01*
X0132000Y0117500D01*
X0079400Y0117300D02*
X0079400Y0114700D01*
X0078000Y0110000D02*
X0074000Y0110000D01*
X0074000Y0122000D02*
X0074800Y0122000D01*
X0077200Y0122000D01*
X0078000Y0122000D01*
X0077200Y0122000D02*
X0077198Y0121931D01*
X0077192Y0121863D01*
X0077182Y0121795D01*
X0077169Y0121728D01*
X0077151Y0121662D01*
X0077130Y0121597D01*
X0077105Y0121533D01*
X0077077Y0121471D01*
X0077045Y0121410D01*
X0077010Y0121351D01*
X0076971Y0121295D01*
X0076929Y0121240D01*
X0076884Y0121189D01*
X0076836Y0121139D01*
X0076786Y0121093D01*
X0076733Y0121050D01*
X0076677Y0121009D01*
X0076620Y0120972D01*
X0076560Y0120939D01*
X0076498Y0120908D01*
X0076435Y0120882D01*
X0076371Y0120859D01*
X0076305Y0120839D01*
X0076238Y0120824D01*
X0076171Y0120812D01*
X0076103Y0120804D01*
X0076034Y0120800D01*
X0075966Y0120800D01*
X0075897Y0120804D01*
X0075829Y0120812D01*
X0075762Y0120824D01*
X0075695Y0120839D01*
X0075629Y0120859D01*
X0075565Y0120882D01*
X0075502Y0120908D01*
X0075440Y0120939D01*
X0075380Y0120972D01*
X0075323Y0121009D01*
X0075267Y0121050D01*
X0075214Y0121093D01*
X0075164Y0121139D01*
X0075116Y0121189D01*
X0075071Y0121240D01*
X0075029Y0121295D01*
X0074990Y0121351D01*
X0074955Y0121410D01*
X0074923Y0121471D01*
X0074895Y0121533D01*
X0074870Y0121597D01*
X0074849Y0121662D01*
X0074831Y0121728D01*
X0074818Y0121795D01*
X0074808Y0121863D01*
X0074802Y0121931D01*
X0074800Y0122000D01*
D11*
X0055016Y0121512D02*
X0055016Y0128598D01*
X0055015Y0128598D02*
X0054927Y0128731D01*
X0054836Y0128862D01*
X0054742Y0128991D01*
X0054644Y0129118D01*
X0054544Y0129242D01*
X0054440Y0129363D01*
X0054334Y0129482D01*
X0054224Y0129599D01*
X0054112Y0129713D01*
X0053997Y0129824D01*
X0053880Y0129932D01*
X0053760Y0130037D01*
X0053637Y0130139D01*
X0053512Y0130238D01*
X0053384Y0130334D01*
X0053254Y0130427D01*
X0053122Y0130517D01*
X0052988Y0130604D01*
X0052852Y0130687D01*
X0052713Y0130767D01*
X0052573Y0130844D01*
X0052431Y0130917D01*
X0052288Y0130986D01*
X0052142Y0131052D01*
X0051995Y0131115D01*
X0051847Y0131174D01*
X0051697Y0131229D01*
X0051546Y0131281D01*
X0051393Y0131329D01*
X0051240Y0131373D01*
X0051085Y0131413D01*
X0050930Y0131450D01*
X0050774Y0131483D01*
X0050617Y0131512D01*
X0050459Y0131537D01*
X0050301Y0131558D01*
X0050142Y0131576D01*
X0049983Y0131589D01*
X0049823Y0131599D01*
X0049664Y0131605D01*
X0049504Y0131607D01*
X0049344Y0131605D01*
X0049185Y0131599D01*
X0049025Y0131589D01*
X0048866Y0131576D01*
X0048707Y0131558D01*
X0048549Y0131537D01*
X0048391Y0131512D01*
X0048234Y0131483D01*
X0048078Y0131450D01*
X0047923Y0131413D01*
X0047768Y0131373D01*
X0047615Y0131329D01*
X0047462Y0131281D01*
X0047311Y0131229D01*
X0047161Y0131174D01*
X0047013Y0131115D01*
X0046866Y0131052D01*
X0046720Y0130986D01*
X0046577Y0130917D01*
X0046435Y0130844D01*
X0046295Y0130767D01*
X0046156Y0130687D01*
X0046020Y0130604D01*
X0045886Y0130517D01*
X0045754Y0130427D01*
X0045624Y0130334D01*
X0045496Y0130238D01*
X0045371Y0130139D01*
X0045248Y0130037D01*
X0045128Y0129932D01*
X0045011Y0129824D01*
X0044896Y0129713D01*
X0044784Y0129599D01*
X0044674Y0129482D01*
X0044568Y0129363D01*
X0044464Y0129242D01*
X0044364Y0129118D01*
X0044266Y0128991D01*
X0044172Y0128862D01*
X0044081Y0128731D01*
X0043993Y0128598D01*
X0044386Y0128992D02*
X0041630Y0128992D01*
X0041236Y0133717D02*
X0041236Y0107339D01*
X0041236Y0107338D02*
X0041328Y0107336D01*
X0041420Y0107330D01*
X0041511Y0107320D01*
X0041602Y0107307D01*
X0041692Y0107289D01*
X0041782Y0107268D01*
X0041870Y0107243D01*
X0041957Y0107214D01*
X0042043Y0107182D01*
X0042128Y0107146D01*
X0042211Y0107106D01*
X0042292Y0107063D01*
X0042371Y0107017D01*
X0042448Y0106967D01*
X0042523Y0106914D01*
X0042596Y0106857D01*
X0042666Y0106798D01*
X0042734Y0106736D01*
X0042799Y0106671D01*
X0042861Y0106603D01*
X0042920Y0106533D01*
X0042977Y0106460D01*
X0043030Y0106385D01*
X0043080Y0106308D01*
X0043126Y0106229D01*
X0043169Y0106148D01*
X0043209Y0106065D01*
X0043245Y0105980D01*
X0043277Y0105894D01*
X0043306Y0105807D01*
X0043331Y0105719D01*
X0043352Y0105629D01*
X0043370Y0105539D01*
X0043383Y0105448D01*
X0043393Y0105357D01*
X0043399Y0105265D01*
X0043401Y0105173D01*
X0043399Y0105081D01*
X0043393Y0104989D01*
X0043383Y0104898D01*
X0043370Y0104807D01*
X0043352Y0104717D01*
X0043331Y0104627D01*
X0043306Y0104539D01*
X0043277Y0104452D01*
X0043245Y0104366D01*
X0043209Y0104281D01*
X0043169Y0104198D01*
X0043126Y0104117D01*
X0043080Y0104038D01*
X0043030Y0103961D01*
X0042977Y0103886D01*
X0042920Y0103813D01*
X0042861Y0103743D01*
X0042799Y0103675D01*
X0042734Y0103610D01*
X0042666Y0103548D01*
X0042596Y0103489D01*
X0042523Y0103432D01*
X0042448Y0103379D01*
X0042371Y0103329D01*
X0042292Y0103283D01*
X0042211Y0103240D01*
X0042128Y0103200D01*
X0042043Y0103164D01*
X0041957Y0103132D01*
X0041870Y0103103D01*
X0041782Y0103078D01*
X0041692Y0103057D01*
X0041602Y0103039D01*
X0041511Y0103026D01*
X0041420Y0103016D01*
X0041328Y0103010D01*
X0041236Y0103008D01*
X0041236Y0096709D01*
X0020764Y0096709D01*
X0020764Y0133717D01*
X0041236Y0133717D01*
X0043993Y0121512D02*
X0044081Y0121379D01*
X0044172Y0121248D01*
X0044266Y0121119D01*
X0044364Y0120992D01*
X0044464Y0120868D01*
X0044568Y0120747D01*
X0044674Y0120628D01*
X0044784Y0120511D01*
X0044896Y0120397D01*
X0045011Y0120286D01*
X0045128Y0120178D01*
X0045248Y0120073D01*
X0045371Y0119971D01*
X0045496Y0119872D01*
X0045624Y0119776D01*
X0045754Y0119683D01*
X0045886Y0119593D01*
X0046020Y0119506D01*
X0046156Y0119423D01*
X0046295Y0119343D01*
X0046435Y0119266D01*
X0046577Y0119193D01*
X0046720Y0119124D01*
X0046866Y0119058D01*
X0047013Y0118995D01*
X0047161Y0118936D01*
X0047311Y0118881D01*
X0047462Y0118829D01*
X0047615Y0118781D01*
X0047768Y0118737D01*
X0047923Y0118697D01*
X0048078Y0118660D01*
X0048234Y0118627D01*
X0048391Y0118598D01*
X0048549Y0118573D01*
X0048707Y0118552D01*
X0048866Y0118534D01*
X0049025Y0118521D01*
X0049185Y0118511D01*
X0049344Y0118505D01*
X0049504Y0118503D01*
X0049664Y0118505D01*
X0049823Y0118511D01*
X0049983Y0118521D01*
X0050142Y0118534D01*
X0050301Y0118552D01*
X0050459Y0118573D01*
X0050617Y0118598D01*
X0050774Y0118627D01*
X0050930Y0118660D01*
X0051085Y0118697D01*
X0051240Y0118737D01*
X0051393Y0118781D01*
X0051546Y0118829D01*
X0051697Y0118881D01*
X0051847Y0118936D01*
X0051995Y0118995D01*
X0052142Y0119058D01*
X0052288Y0119124D01*
X0052431Y0119193D01*
X0052573Y0119266D01*
X0052713Y0119343D01*
X0052852Y0119423D01*
X0052988Y0119506D01*
X0053122Y0119593D01*
X0053254Y0119683D01*
X0053384Y0119776D01*
X0053512Y0119872D01*
X0053637Y0119971D01*
X0053760Y0120073D01*
X0053880Y0120178D01*
X0053997Y0120286D01*
X0054112Y0120397D01*
X0054224Y0120511D01*
X0054334Y0120628D01*
X0054440Y0120747D01*
X0054544Y0120868D01*
X0054644Y0120992D01*
X0054742Y0121119D01*
X0054836Y0121248D01*
X0054927Y0121379D01*
X0055015Y0121512D01*
X0044386Y0121118D02*
X0041630Y0121118D01*
X0020370Y0121118D02*
X0017614Y0121118D01*
X0018007Y0128598D02*
X0017919Y0128731D01*
X0017828Y0128862D01*
X0017734Y0128991D01*
X0017636Y0129118D01*
X0017536Y0129242D01*
X0017432Y0129363D01*
X0017326Y0129482D01*
X0017216Y0129599D01*
X0017104Y0129713D01*
X0016989Y0129824D01*
X0016872Y0129932D01*
X0016752Y0130037D01*
X0016629Y0130139D01*
X0016504Y0130238D01*
X0016376Y0130334D01*
X0016246Y0130427D01*
X0016114Y0130517D01*
X0015980Y0130604D01*
X0015844Y0130687D01*
X0015705Y0130767D01*
X0015565Y0130844D01*
X0015423Y0130917D01*
X0015280Y0130986D01*
X0015134Y0131052D01*
X0014987Y0131115D01*
X0014839Y0131174D01*
X0014689Y0131229D01*
X0014538Y0131281D01*
X0014385Y0131329D01*
X0014232Y0131373D01*
X0014077Y0131413D01*
X0013922Y0131450D01*
X0013766Y0131483D01*
X0013609Y0131512D01*
X0013451Y0131537D01*
X0013293Y0131558D01*
X0013134Y0131576D01*
X0012975Y0131589D01*
X0012815Y0131599D01*
X0012656Y0131605D01*
X0012496Y0131607D01*
X0012336Y0131605D01*
X0012177Y0131599D01*
X0012017Y0131589D01*
X0011858Y0131576D01*
X0011699Y0131558D01*
X0011541Y0131537D01*
X0011383Y0131512D01*
X0011226Y0131483D01*
X0011070Y0131450D01*
X0010915Y0131413D01*
X0010760Y0131373D01*
X0010607Y0131329D01*
X0010454Y0131281D01*
X0010303Y0131229D01*
X0010153Y0131174D01*
X0010005Y0131115D01*
X0009858Y0131052D01*
X0009712Y0130986D01*
X0009569Y0130917D01*
X0009427Y0130844D01*
X0009287Y0130767D01*
X0009148Y0130687D01*
X0009012Y0130604D01*
X0008878Y0130517D01*
X0008746Y0130427D01*
X0008616Y0130334D01*
X0008488Y0130238D01*
X0008363Y0130139D01*
X0008240Y0130037D01*
X0008120Y0129932D01*
X0008003Y0129824D01*
X0007888Y0129713D01*
X0007776Y0129599D01*
X0007666Y0129482D01*
X0007560Y0129363D01*
X0007456Y0129242D01*
X0007356Y0129118D01*
X0007258Y0128991D01*
X0007164Y0128862D01*
X0007073Y0128731D01*
X0006985Y0128598D01*
X0006984Y0128598D02*
X0006984Y0121512D01*
X0006985Y0121512D02*
X0007073Y0121379D01*
X0007164Y0121248D01*
X0007258Y0121119D01*
X0007356Y0120992D01*
X0007456Y0120868D01*
X0007560Y0120747D01*
X0007666Y0120628D01*
X0007776Y0120511D01*
X0007888Y0120397D01*
X0008003Y0120286D01*
X0008120Y0120178D01*
X0008240Y0120073D01*
X0008363Y0119971D01*
X0008488Y0119872D01*
X0008616Y0119776D01*
X0008746Y0119683D01*
X0008878Y0119593D01*
X0009012Y0119506D01*
X0009148Y0119423D01*
X0009287Y0119343D01*
X0009427Y0119266D01*
X0009569Y0119193D01*
X0009712Y0119124D01*
X0009858Y0119058D01*
X0010005Y0118995D01*
X0010153Y0118936D01*
X0010303Y0118881D01*
X0010454Y0118829D01*
X0010607Y0118781D01*
X0010760Y0118737D01*
X0010915Y0118697D01*
X0011070Y0118660D01*
X0011226Y0118627D01*
X0011383Y0118598D01*
X0011541Y0118573D01*
X0011699Y0118552D01*
X0011858Y0118534D01*
X0012017Y0118521D01*
X0012177Y0118511D01*
X0012336Y0118505D01*
X0012496Y0118503D01*
X0012656Y0118505D01*
X0012815Y0118511D01*
X0012975Y0118521D01*
X0013134Y0118534D01*
X0013293Y0118552D01*
X0013451Y0118573D01*
X0013609Y0118598D01*
X0013766Y0118627D01*
X0013922Y0118660D01*
X0014077Y0118697D01*
X0014232Y0118737D01*
X0014385Y0118781D01*
X0014538Y0118829D01*
X0014689Y0118881D01*
X0014839Y0118936D01*
X0014987Y0118995D01*
X0015134Y0119058D01*
X0015280Y0119124D01*
X0015423Y0119193D01*
X0015565Y0119266D01*
X0015705Y0119343D01*
X0015844Y0119423D01*
X0015980Y0119506D01*
X0016114Y0119593D01*
X0016246Y0119683D01*
X0016376Y0119776D01*
X0016504Y0119872D01*
X0016629Y0119971D01*
X0016752Y0120073D01*
X0016872Y0120178D01*
X0016989Y0120286D01*
X0017104Y0120397D01*
X0017216Y0120511D01*
X0017326Y0120628D01*
X0017432Y0120747D01*
X0017536Y0120868D01*
X0017636Y0120992D01*
X0017734Y0121119D01*
X0017828Y0121248D01*
X0017919Y0121379D01*
X0018007Y0121512D01*
X0017614Y0128992D02*
X0020370Y0128992D01*
D12*
X0068000Y0032200D02*
X0074000Y0032200D01*
X0074000Y0029700D02*
X0068000Y0029700D01*
M02*
