G75*
%MOIN*%
%OFA0B0*%
%FSLAX25Y25*%
%IPPOS*%
%LPD*%
%AMOC8*
5,1,8,0,0,1.08239X$1,22.5*
%
%ADD10C,0.00000*%
%ADD11OC8,0.05200*%
%ADD12R,0.04331X0.02362*%
%ADD13R,0.08268X0.08268*%
%ADD14C,0.02000*%
%ADD15C,0.02978*%
D10*
X0001000Y0001000D02*
X0001000Y0150961D01*
X0284701Y0150961D01*
X0284701Y0001000D01*
X0001000Y0001000D01*
X0021590Y0061984D02*
X0021592Y0062137D01*
X0021598Y0062291D01*
X0021608Y0062444D01*
X0021622Y0062596D01*
X0021640Y0062749D01*
X0021662Y0062900D01*
X0021687Y0063051D01*
X0021717Y0063202D01*
X0021751Y0063352D01*
X0021788Y0063500D01*
X0021829Y0063648D01*
X0021874Y0063794D01*
X0021923Y0063940D01*
X0021976Y0064084D01*
X0022032Y0064226D01*
X0022092Y0064367D01*
X0022156Y0064507D01*
X0022223Y0064645D01*
X0022294Y0064781D01*
X0022369Y0064915D01*
X0022446Y0065047D01*
X0022528Y0065177D01*
X0022612Y0065305D01*
X0022700Y0065431D01*
X0022791Y0065554D01*
X0022885Y0065675D01*
X0022983Y0065793D01*
X0023083Y0065909D01*
X0023187Y0066022D01*
X0023293Y0066133D01*
X0023402Y0066241D01*
X0023514Y0066346D01*
X0023628Y0066447D01*
X0023746Y0066546D01*
X0023865Y0066642D01*
X0023987Y0066735D01*
X0024112Y0066824D01*
X0024239Y0066911D01*
X0024368Y0066993D01*
X0024499Y0067073D01*
X0024632Y0067149D01*
X0024767Y0067222D01*
X0024904Y0067291D01*
X0025043Y0067356D01*
X0025183Y0067418D01*
X0025325Y0067476D01*
X0025468Y0067531D01*
X0025613Y0067582D01*
X0025759Y0067629D01*
X0025906Y0067672D01*
X0026054Y0067711D01*
X0026203Y0067747D01*
X0026353Y0067778D01*
X0026504Y0067806D01*
X0026655Y0067830D01*
X0026808Y0067850D01*
X0026960Y0067866D01*
X0027113Y0067878D01*
X0027266Y0067886D01*
X0027419Y0067890D01*
X0027573Y0067890D01*
X0027726Y0067886D01*
X0027879Y0067878D01*
X0028032Y0067866D01*
X0028184Y0067850D01*
X0028337Y0067830D01*
X0028488Y0067806D01*
X0028639Y0067778D01*
X0028789Y0067747D01*
X0028938Y0067711D01*
X0029086Y0067672D01*
X0029233Y0067629D01*
X0029379Y0067582D01*
X0029524Y0067531D01*
X0029667Y0067476D01*
X0029809Y0067418D01*
X0029949Y0067356D01*
X0030088Y0067291D01*
X0030225Y0067222D01*
X0030360Y0067149D01*
X0030493Y0067073D01*
X0030624Y0066993D01*
X0030753Y0066911D01*
X0030880Y0066824D01*
X0031005Y0066735D01*
X0031127Y0066642D01*
X0031246Y0066546D01*
X0031364Y0066447D01*
X0031478Y0066346D01*
X0031590Y0066241D01*
X0031699Y0066133D01*
X0031805Y0066022D01*
X0031909Y0065909D01*
X0032009Y0065793D01*
X0032107Y0065675D01*
X0032201Y0065554D01*
X0032292Y0065431D01*
X0032380Y0065305D01*
X0032464Y0065177D01*
X0032546Y0065047D01*
X0032623Y0064915D01*
X0032698Y0064781D01*
X0032769Y0064645D01*
X0032836Y0064507D01*
X0032900Y0064367D01*
X0032960Y0064226D01*
X0033016Y0064084D01*
X0033069Y0063940D01*
X0033118Y0063794D01*
X0033163Y0063648D01*
X0033204Y0063500D01*
X0033241Y0063352D01*
X0033275Y0063202D01*
X0033305Y0063051D01*
X0033330Y0062900D01*
X0033352Y0062749D01*
X0033370Y0062596D01*
X0033384Y0062444D01*
X0033394Y0062291D01*
X0033400Y0062137D01*
X0033402Y0061984D01*
X0033400Y0061831D01*
X0033394Y0061677D01*
X0033384Y0061524D01*
X0033370Y0061372D01*
X0033352Y0061219D01*
X0033330Y0061068D01*
X0033305Y0060917D01*
X0033275Y0060766D01*
X0033241Y0060616D01*
X0033204Y0060468D01*
X0033163Y0060320D01*
X0033118Y0060174D01*
X0033069Y0060028D01*
X0033016Y0059884D01*
X0032960Y0059742D01*
X0032900Y0059601D01*
X0032836Y0059461D01*
X0032769Y0059323D01*
X0032698Y0059187D01*
X0032623Y0059053D01*
X0032546Y0058921D01*
X0032464Y0058791D01*
X0032380Y0058663D01*
X0032292Y0058537D01*
X0032201Y0058414D01*
X0032107Y0058293D01*
X0032009Y0058175D01*
X0031909Y0058059D01*
X0031805Y0057946D01*
X0031699Y0057835D01*
X0031590Y0057727D01*
X0031478Y0057622D01*
X0031364Y0057521D01*
X0031246Y0057422D01*
X0031127Y0057326D01*
X0031005Y0057233D01*
X0030880Y0057144D01*
X0030753Y0057057D01*
X0030624Y0056975D01*
X0030493Y0056895D01*
X0030360Y0056819D01*
X0030225Y0056746D01*
X0030088Y0056677D01*
X0029949Y0056612D01*
X0029809Y0056550D01*
X0029667Y0056492D01*
X0029524Y0056437D01*
X0029379Y0056386D01*
X0029233Y0056339D01*
X0029086Y0056296D01*
X0028938Y0056257D01*
X0028789Y0056221D01*
X0028639Y0056190D01*
X0028488Y0056162D01*
X0028337Y0056138D01*
X0028184Y0056118D01*
X0028032Y0056102D01*
X0027879Y0056090D01*
X0027726Y0056082D01*
X0027573Y0056078D01*
X0027419Y0056078D01*
X0027266Y0056082D01*
X0027113Y0056090D01*
X0026960Y0056102D01*
X0026808Y0056118D01*
X0026655Y0056138D01*
X0026504Y0056162D01*
X0026353Y0056190D01*
X0026203Y0056221D01*
X0026054Y0056257D01*
X0025906Y0056296D01*
X0025759Y0056339D01*
X0025613Y0056386D01*
X0025468Y0056437D01*
X0025325Y0056492D01*
X0025183Y0056550D01*
X0025043Y0056612D01*
X0024904Y0056677D01*
X0024767Y0056746D01*
X0024632Y0056819D01*
X0024499Y0056895D01*
X0024368Y0056975D01*
X0024239Y0057057D01*
X0024112Y0057144D01*
X0023987Y0057233D01*
X0023865Y0057326D01*
X0023746Y0057422D01*
X0023628Y0057521D01*
X0023514Y0057622D01*
X0023402Y0057727D01*
X0023293Y0057835D01*
X0023187Y0057946D01*
X0023083Y0058059D01*
X0022983Y0058175D01*
X0022885Y0058293D01*
X0022791Y0058414D01*
X0022700Y0058537D01*
X0022612Y0058663D01*
X0022528Y0058791D01*
X0022446Y0058921D01*
X0022369Y0059053D01*
X0022294Y0059187D01*
X0022223Y0059323D01*
X0022156Y0059461D01*
X0022092Y0059601D01*
X0022032Y0059742D01*
X0021976Y0059884D01*
X0021923Y0060028D01*
X0021874Y0060174D01*
X0021829Y0060320D01*
X0021788Y0060468D01*
X0021751Y0060616D01*
X0021717Y0060766D01*
X0021687Y0060917D01*
X0021662Y0061068D01*
X0021640Y0061219D01*
X0021622Y0061372D01*
X0021608Y0061524D01*
X0021598Y0061677D01*
X0021592Y0061831D01*
X0021590Y0061984D01*
X0058598Y0061984D02*
X0058600Y0062137D01*
X0058606Y0062291D01*
X0058616Y0062444D01*
X0058630Y0062596D01*
X0058648Y0062749D01*
X0058670Y0062900D01*
X0058695Y0063051D01*
X0058725Y0063202D01*
X0058759Y0063352D01*
X0058796Y0063500D01*
X0058837Y0063648D01*
X0058882Y0063794D01*
X0058931Y0063940D01*
X0058984Y0064084D01*
X0059040Y0064226D01*
X0059100Y0064367D01*
X0059164Y0064507D01*
X0059231Y0064645D01*
X0059302Y0064781D01*
X0059377Y0064915D01*
X0059454Y0065047D01*
X0059536Y0065177D01*
X0059620Y0065305D01*
X0059708Y0065431D01*
X0059799Y0065554D01*
X0059893Y0065675D01*
X0059991Y0065793D01*
X0060091Y0065909D01*
X0060195Y0066022D01*
X0060301Y0066133D01*
X0060410Y0066241D01*
X0060522Y0066346D01*
X0060636Y0066447D01*
X0060754Y0066546D01*
X0060873Y0066642D01*
X0060995Y0066735D01*
X0061120Y0066824D01*
X0061247Y0066911D01*
X0061376Y0066993D01*
X0061507Y0067073D01*
X0061640Y0067149D01*
X0061775Y0067222D01*
X0061912Y0067291D01*
X0062051Y0067356D01*
X0062191Y0067418D01*
X0062333Y0067476D01*
X0062476Y0067531D01*
X0062621Y0067582D01*
X0062767Y0067629D01*
X0062914Y0067672D01*
X0063062Y0067711D01*
X0063211Y0067747D01*
X0063361Y0067778D01*
X0063512Y0067806D01*
X0063663Y0067830D01*
X0063816Y0067850D01*
X0063968Y0067866D01*
X0064121Y0067878D01*
X0064274Y0067886D01*
X0064427Y0067890D01*
X0064581Y0067890D01*
X0064734Y0067886D01*
X0064887Y0067878D01*
X0065040Y0067866D01*
X0065192Y0067850D01*
X0065345Y0067830D01*
X0065496Y0067806D01*
X0065647Y0067778D01*
X0065797Y0067747D01*
X0065946Y0067711D01*
X0066094Y0067672D01*
X0066241Y0067629D01*
X0066387Y0067582D01*
X0066532Y0067531D01*
X0066675Y0067476D01*
X0066817Y0067418D01*
X0066957Y0067356D01*
X0067096Y0067291D01*
X0067233Y0067222D01*
X0067368Y0067149D01*
X0067501Y0067073D01*
X0067632Y0066993D01*
X0067761Y0066911D01*
X0067888Y0066824D01*
X0068013Y0066735D01*
X0068135Y0066642D01*
X0068254Y0066546D01*
X0068372Y0066447D01*
X0068486Y0066346D01*
X0068598Y0066241D01*
X0068707Y0066133D01*
X0068813Y0066022D01*
X0068917Y0065909D01*
X0069017Y0065793D01*
X0069115Y0065675D01*
X0069209Y0065554D01*
X0069300Y0065431D01*
X0069388Y0065305D01*
X0069472Y0065177D01*
X0069554Y0065047D01*
X0069631Y0064915D01*
X0069706Y0064781D01*
X0069777Y0064645D01*
X0069844Y0064507D01*
X0069908Y0064367D01*
X0069968Y0064226D01*
X0070024Y0064084D01*
X0070077Y0063940D01*
X0070126Y0063794D01*
X0070171Y0063648D01*
X0070212Y0063500D01*
X0070249Y0063352D01*
X0070283Y0063202D01*
X0070313Y0063051D01*
X0070338Y0062900D01*
X0070360Y0062749D01*
X0070378Y0062596D01*
X0070392Y0062444D01*
X0070402Y0062291D01*
X0070408Y0062137D01*
X0070410Y0061984D01*
X0070408Y0061831D01*
X0070402Y0061677D01*
X0070392Y0061524D01*
X0070378Y0061372D01*
X0070360Y0061219D01*
X0070338Y0061068D01*
X0070313Y0060917D01*
X0070283Y0060766D01*
X0070249Y0060616D01*
X0070212Y0060468D01*
X0070171Y0060320D01*
X0070126Y0060174D01*
X0070077Y0060028D01*
X0070024Y0059884D01*
X0069968Y0059742D01*
X0069908Y0059601D01*
X0069844Y0059461D01*
X0069777Y0059323D01*
X0069706Y0059187D01*
X0069631Y0059053D01*
X0069554Y0058921D01*
X0069472Y0058791D01*
X0069388Y0058663D01*
X0069300Y0058537D01*
X0069209Y0058414D01*
X0069115Y0058293D01*
X0069017Y0058175D01*
X0068917Y0058059D01*
X0068813Y0057946D01*
X0068707Y0057835D01*
X0068598Y0057727D01*
X0068486Y0057622D01*
X0068372Y0057521D01*
X0068254Y0057422D01*
X0068135Y0057326D01*
X0068013Y0057233D01*
X0067888Y0057144D01*
X0067761Y0057057D01*
X0067632Y0056975D01*
X0067501Y0056895D01*
X0067368Y0056819D01*
X0067233Y0056746D01*
X0067096Y0056677D01*
X0066957Y0056612D01*
X0066817Y0056550D01*
X0066675Y0056492D01*
X0066532Y0056437D01*
X0066387Y0056386D01*
X0066241Y0056339D01*
X0066094Y0056296D01*
X0065946Y0056257D01*
X0065797Y0056221D01*
X0065647Y0056190D01*
X0065496Y0056162D01*
X0065345Y0056138D01*
X0065192Y0056118D01*
X0065040Y0056102D01*
X0064887Y0056090D01*
X0064734Y0056082D01*
X0064581Y0056078D01*
X0064427Y0056078D01*
X0064274Y0056082D01*
X0064121Y0056090D01*
X0063968Y0056102D01*
X0063816Y0056118D01*
X0063663Y0056138D01*
X0063512Y0056162D01*
X0063361Y0056190D01*
X0063211Y0056221D01*
X0063062Y0056257D01*
X0062914Y0056296D01*
X0062767Y0056339D01*
X0062621Y0056386D01*
X0062476Y0056437D01*
X0062333Y0056492D01*
X0062191Y0056550D01*
X0062051Y0056612D01*
X0061912Y0056677D01*
X0061775Y0056746D01*
X0061640Y0056819D01*
X0061507Y0056895D01*
X0061376Y0056975D01*
X0061247Y0057057D01*
X0061120Y0057144D01*
X0060995Y0057233D01*
X0060873Y0057326D01*
X0060754Y0057422D01*
X0060636Y0057521D01*
X0060522Y0057622D01*
X0060410Y0057727D01*
X0060301Y0057835D01*
X0060195Y0057946D01*
X0060091Y0058059D01*
X0059991Y0058175D01*
X0059893Y0058293D01*
X0059799Y0058414D01*
X0059708Y0058537D01*
X0059620Y0058663D01*
X0059536Y0058791D01*
X0059454Y0058921D01*
X0059377Y0059053D01*
X0059302Y0059187D01*
X0059231Y0059323D01*
X0059164Y0059461D01*
X0059100Y0059601D01*
X0059040Y0059742D01*
X0058984Y0059884D01*
X0058931Y0060028D01*
X0058882Y0060174D01*
X0058837Y0060320D01*
X0058796Y0060468D01*
X0058759Y0060616D01*
X0058725Y0060766D01*
X0058695Y0060917D01*
X0058670Y0061068D01*
X0058648Y0061219D01*
X0058630Y0061372D01*
X0058616Y0061524D01*
X0058606Y0061677D01*
X0058600Y0061831D01*
X0058598Y0061984D01*
D11*
X0166000Y0056000D03*
X0216000Y0056000D03*
X0241000Y0031000D03*
X0251000Y0031000D03*
X0206000Y0111000D03*
X0196000Y0111000D03*
X0146000Y0126000D03*
X0136000Y0126000D03*
D12*
X0115724Y0049543D03*
X0105094Y0049543D03*
X0105094Y0045803D03*
X0105094Y0042063D03*
X0115724Y0042063D03*
D13*
X0046000Y0060173D03*
X0046000Y0081827D03*
D14*
X0046000Y0081000D01*
X0046000Y0081827D02*
X0046000Y0116000D01*
X0051000Y0121000D01*
X0091000Y0121000D01*
X0097927Y0123845D02*
X0123946Y0123845D01*
X0125944Y0125844D02*
X0096747Y0125844D01*
X0097349Y0125242D02*
X0095242Y0127349D01*
X0092490Y0128489D01*
X0089510Y0128489D01*
X0088330Y0128000D01*
X0049608Y0128000D01*
X0047035Y0126934D01*
X0045066Y0124965D01*
X0043101Y0123000D01*
X0029608Y0123000D01*
X0027035Y0121934D01*
X0025066Y0119965D01*
X0010066Y0104965D01*
X0009000Y0102392D01*
X0009000Y0024608D01*
X0010066Y0022035D01*
X0012035Y0020066D01*
X0017035Y0015066D01*
X0019608Y0014000D01*
X0077392Y0014000D01*
X0079965Y0015066D01*
X0099962Y0035063D01*
X0101298Y0035063D01*
X0101736Y0034882D01*
X0108453Y0034882D01*
X0110409Y0035692D01*
X0112366Y0034882D01*
X0119083Y0034882D01*
X0119520Y0035063D01*
X0167038Y0035063D01*
X0175066Y0027035D01*
X0177035Y0025066D01*
X0179608Y0024000D01*
X0235838Y0024000D01*
X0237438Y0022400D01*
X0244562Y0022400D01*
X0246000Y0023838D01*
X0247438Y0022400D01*
X0254562Y0022400D01*
X0259600Y0027438D01*
X0259600Y0034562D01*
X0258000Y0036162D01*
X0258000Y0132392D01*
X0256934Y0134965D01*
X0254965Y0136934D01*
X0252392Y0138000D01*
X0188899Y0138000D01*
X0181939Y0144961D01*
X0278701Y0144961D01*
X0278701Y0007000D01*
X0007000Y0007000D01*
X0007000Y0144961D01*
X0130064Y0144961D01*
X0129000Y0142392D01*
X0129000Y0131162D01*
X0127400Y0129562D01*
X0127400Y0127299D01*
X0085066Y0084965D01*
X0084000Y0082392D01*
X0084000Y0053000D01*
X0074608Y0053000D01*
X0072035Y0051934D01*
X0070066Y0049965D01*
X0065066Y0044965D01*
X0064000Y0042392D01*
X0064000Y0038000D01*
X0053000Y0038000D01*
X0053000Y0050732D01*
X0053533Y0050953D01*
X0055220Y0052641D01*
X0055745Y0053907D01*
X0057194Y0052457D01*
X0059909Y0050890D01*
X0062937Y0050079D01*
X0066071Y0050079D01*
X0069099Y0050890D01*
X0071814Y0052457D01*
X0074031Y0054674D01*
X0075598Y0057389D01*
X0076409Y0060417D01*
X0076409Y0063552D01*
X0075598Y0066580D01*
X0074031Y0069294D01*
X0071814Y0071511D01*
X0069099Y0073078D01*
X0066071Y0073890D01*
X0062937Y0073890D01*
X0059909Y0073078D01*
X0057194Y0071511D01*
X0054977Y0069294D01*
X0054485Y0068441D01*
X0053533Y0069394D01*
X0051327Y0070307D01*
X0040673Y0070307D01*
X0038467Y0069394D01*
X0037515Y0068441D01*
X0037023Y0069294D01*
X0034806Y0071511D01*
X0032091Y0073078D01*
X0029063Y0073890D01*
X0025929Y0073890D01*
X0023000Y0073105D01*
X0023000Y0098101D01*
X0033899Y0109000D01*
X0039000Y0109000D01*
X0039000Y0091268D01*
X0038467Y0091047D01*
X0036780Y0089359D01*
X0035866Y0087154D01*
X0035866Y0076499D01*
X0036780Y0074294D01*
X0038467Y0072606D01*
X0040673Y0071693D01*
X0051327Y0071693D01*
X0053533Y0072606D01*
X0055220Y0074294D01*
X0056134Y0076499D01*
X0056134Y0087154D01*
X0055220Y0089359D01*
X0053533Y0091047D01*
X0053000Y0091268D01*
X0053000Y0113101D01*
X0053899Y0114000D01*
X0088330Y0114000D01*
X0089510Y0113511D01*
X0092490Y0113511D01*
X0095242Y0114651D01*
X0097349Y0116758D01*
X0098489Y0119510D01*
X0098489Y0122490D01*
X0097349Y0125242D01*
X0098489Y0121847D02*
X0121947Y0121847D01*
X0119949Y0119848D02*
X0098489Y0119848D01*
X0097801Y0117850D02*
X0117950Y0117850D01*
X0115952Y0115851D02*
X0096442Y0115851D01*
X0093314Y0113853D02*
X0113953Y0113853D01*
X0111955Y0111854D02*
X0053000Y0111854D01*
X0053000Y0109856D02*
X0109956Y0109856D01*
X0107958Y0107857D02*
X0053000Y0107857D01*
X0053000Y0105859D02*
X0105959Y0105859D01*
X0103961Y0103860D02*
X0053000Y0103860D01*
X0053000Y0101862D02*
X0101962Y0101862D01*
X0099964Y0099863D02*
X0053000Y0099863D01*
X0053000Y0097865D02*
X0097965Y0097865D01*
X0095967Y0095866D02*
X0053000Y0095866D01*
X0053000Y0093868D02*
X0093968Y0093868D01*
X0091970Y0091869D02*
X0053000Y0091869D01*
X0054709Y0089870D02*
X0089971Y0089870D01*
X0087972Y0087872D02*
X0055837Y0087872D01*
X0056134Y0085873D02*
X0085974Y0085873D01*
X0084614Y0083875D02*
X0056134Y0083875D01*
X0056134Y0081876D02*
X0084000Y0081876D01*
X0084000Y0079878D02*
X0056134Y0079878D01*
X0056134Y0077879D02*
X0084000Y0077879D01*
X0084000Y0075881D02*
X0055878Y0075881D01*
X0054809Y0073882D02*
X0062909Y0073882D01*
X0066099Y0073882D02*
X0084000Y0073882D01*
X0084000Y0071884D02*
X0071168Y0071884D01*
X0073440Y0069885D02*
X0084000Y0069885D01*
X0084000Y0067887D02*
X0074843Y0067887D01*
X0075783Y0065888D02*
X0084000Y0065888D01*
X0084000Y0063890D02*
X0076319Y0063890D01*
X0076409Y0061891D02*
X0084000Y0061891D01*
X0084000Y0059893D02*
X0076269Y0059893D01*
X0075734Y0057894D02*
X0084000Y0057894D01*
X0084000Y0055896D02*
X0074736Y0055896D01*
X0073254Y0053897D02*
X0084000Y0053897D01*
X0071999Y0051899D02*
X0070846Y0051899D01*
X0070001Y0049900D02*
X0053000Y0049900D01*
X0053000Y0047902D02*
X0068002Y0047902D01*
X0066004Y0045903D02*
X0053000Y0045903D01*
X0053000Y0043905D02*
X0064626Y0043905D01*
X0064000Y0041906D02*
X0053000Y0041906D01*
X0053000Y0039908D02*
X0064000Y0039908D01*
X0071000Y0041000D02*
X0076000Y0046000D01*
X0091000Y0046000D01*
X0091000Y0081000D01*
X0136000Y0126000D01*
X0136000Y0141000D01*
X0176000Y0141000D01*
X0186000Y0131000D01*
X0196000Y0131000D01*
X0196000Y0111000D01*
X0187400Y0111854D02*
X0173000Y0111854D01*
X0173000Y0109856D02*
X0187400Y0109856D01*
X0187400Y0107857D02*
X0173000Y0107857D01*
X0173000Y0105859D02*
X0188979Y0105859D01*
X0187400Y0107438D02*
X0192438Y0102400D01*
X0199562Y0102400D01*
X0201000Y0103838D01*
X0202438Y0102400D01*
X0209000Y0102400D01*
X0209000Y0061162D01*
X0207400Y0059562D01*
X0207400Y0052438D01*
X0212438Y0047400D01*
X0219562Y0047400D01*
X0224600Y0052438D01*
X0224600Y0059562D01*
X0223000Y0061162D01*
X0223000Y0112392D01*
X0221934Y0114965D01*
X0219965Y0116934D01*
X0217392Y0118000D01*
X0211162Y0118000D01*
X0209562Y0119600D01*
X0203000Y0119600D01*
X0203000Y0124000D01*
X0244000Y0124000D01*
X0244000Y0039600D01*
X0237438Y0039600D01*
X0235838Y0038000D01*
X0183899Y0038000D01*
X0173902Y0047997D01*
X0171329Y0049063D01*
X0171225Y0049063D01*
X0174600Y0052438D01*
X0174600Y0059562D01*
X0173000Y0061162D01*
X0173000Y0122392D01*
X0171934Y0124965D01*
X0169965Y0126934D01*
X0164965Y0131934D01*
X0162392Y0133000D01*
X0151162Y0133000D01*
X0150162Y0134000D01*
X0173101Y0134000D01*
X0182035Y0125066D01*
X0184608Y0124000D01*
X0189000Y0124000D01*
X0189000Y0116162D01*
X0187400Y0114562D01*
X0187400Y0107438D01*
X0190978Y0103860D02*
X0173000Y0103860D01*
X0173000Y0101862D02*
X0209000Y0101862D01*
X0209000Y0099863D02*
X0173000Y0099863D01*
X0173000Y0097865D02*
X0209000Y0097865D01*
X0209000Y0095866D02*
X0173000Y0095866D01*
X0173000Y0093868D02*
X0209000Y0093868D01*
X0209000Y0091869D02*
X0173000Y0091869D01*
X0173000Y0089870D02*
X0209000Y0089870D01*
X0209000Y0087872D02*
X0173000Y0087872D01*
X0173000Y0085873D02*
X0209000Y0085873D01*
X0209000Y0083875D02*
X0173000Y0083875D01*
X0173000Y0081876D02*
X0209000Y0081876D01*
X0209000Y0079878D02*
X0173000Y0079878D01*
X0173000Y0077879D02*
X0209000Y0077879D01*
X0209000Y0075881D02*
X0173000Y0075881D01*
X0173000Y0073882D02*
X0209000Y0073882D01*
X0209000Y0071884D02*
X0173000Y0071884D01*
X0173000Y0069885D02*
X0209000Y0069885D01*
X0209000Y0067887D02*
X0173000Y0067887D01*
X0173000Y0065888D02*
X0209000Y0065888D01*
X0209000Y0063890D02*
X0173000Y0063890D01*
X0173000Y0061891D02*
X0209000Y0061891D01*
X0207731Y0059893D02*
X0174269Y0059893D01*
X0174600Y0057894D02*
X0207400Y0057894D01*
X0207400Y0055896D02*
X0174600Y0055896D01*
X0174600Y0053897D02*
X0207400Y0053897D01*
X0207939Y0051899D02*
X0174061Y0051899D01*
X0172062Y0049900D02*
X0209937Y0049900D01*
X0211936Y0047902D02*
X0173998Y0047902D01*
X0175996Y0045903D02*
X0244000Y0045903D01*
X0244000Y0047902D02*
X0220064Y0047902D01*
X0222062Y0049900D02*
X0244000Y0049900D01*
X0244000Y0051899D02*
X0224061Y0051899D01*
X0224600Y0053897D02*
X0244000Y0053897D01*
X0244000Y0055896D02*
X0224600Y0055896D01*
X0224600Y0057894D02*
X0244000Y0057894D01*
X0244000Y0059893D02*
X0224269Y0059893D01*
X0223000Y0061891D02*
X0244000Y0061891D01*
X0244000Y0063890D02*
X0223000Y0063890D01*
X0223000Y0065888D02*
X0244000Y0065888D01*
X0244000Y0067887D02*
X0223000Y0067887D01*
X0223000Y0069885D02*
X0244000Y0069885D01*
X0244000Y0071884D02*
X0223000Y0071884D01*
X0223000Y0073882D02*
X0244000Y0073882D01*
X0244000Y0075881D02*
X0223000Y0075881D01*
X0223000Y0077879D02*
X0244000Y0077879D01*
X0244000Y0079878D02*
X0223000Y0079878D01*
X0223000Y0081876D02*
X0244000Y0081876D01*
X0244000Y0083875D02*
X0223000Y0083875D01*
X0223000Y0085873D02*
X0244000Y0085873D01*
X0244000Y0087872D02*
X0223000Y0087872D01*
X0223000Y0089870D02*
X0244000Y0089870D01*
X0244000Y0091869D02*
X0223000Y0091869D01*
X0223000Y0093868D02*
X0244000Y0093868D01*
X0244000Y0095866D02*
X0223000Y0095866D01*
X0223000Y0097865D02*
X0244000Y0097865D01*
X0244000Y0099863D02*
X0223000Y0099863D01*
X0223000Y0101862D02*
X0244000Y0101862D01*
X0244000Y0103860D02*
X0223000Y0103860D01*
X0223000Y0105859D02*
X0244000Y0105859D01*
X0244000Y0107857D02*
X0223000Y0107857D01*
X0223000Y0109856D02*
X0244000Y0109856D01*
X0244000Y0111854D02*
X0223000Y0111854D01*
X0222395Y0113853D02*
X0244000Y0113853D01*
X0244000Y0115851D02*
X0221048Y0115851D01*
X0217755Y0117850D02*
X0244000Y0117850D01*
X0244000Y0119848D02*
X0203000Y0119848D01*
X0203000Y0121847D02*
X0244000Y0121847D01*
X0244000Y0123845D02*
X0203000Y0123845D01*
X0196000Y0131000D02*
X0251000Y0131000D01*
X0251000Y0031000D01*
X0259600Y0031914D02*
X0278701Y0031914D01*
X0278701Y0033912D02*
X0259600Y0033912D01*
X0258252Y0035911D02*
X0278701Y0035911D01*
X0278701Y0037909D02*
X0258000Y0037909D01*
X0258000Y0039908D02*
X0278701Y0039908D01*
X0278701Y0041906D02*
X0258000Y0041906D01*
X0258000Y0043905D02*
X0278701Y0043905D01*
X0278701Y0045903D02*
X0258000Y0045903D01*
X0258000Y0047902D02*
X0278701Y0047902D01*
X0278701Y0049900D02*
X0258000Y0049900D01*
X0258000Y0051899D02*
X0278701Y0051899D01*
X0278701Y0053897D02*
X0258000Y0053897D01*
X0258000Y0055896D02*
X0278701Y0055896D01*
X0278701Y0057894D02*
X0258000Y0057894D01*
X0258000Y0059893D02*
X0278701Y0059893D01*
X0278701Y0061891D02*
X0258000Y0061891D01*
X0258000Y0063890D02*
X0278701Y0063890D01*
X0278701Y0065888D02*
X0258000Y0065888D01*
X0258000Y0067887D02*
X0278701Y0067887D01*
X0278701Y0069885D02*
X0258000Y0069885D01*
X0258000Y0071884D02*
X0278701Y0071884D01*
X0278701Y0073882D02*
X0258000Y0073882D01*
X0258000Y0075881D02*
X0278701Y0075881D01*
X0278701Y0077879D02*
X0258000Y0077879D01*
X0258000Y0079878D02*
X0278701Y0079878D01*
X0278701Y0081876D02*
X0258000Y0081876D01*
X0258000Y0083875D02*
X0278701Y0083875D01*
X0278701Y0085873D02*
X0258000Y0085873D01*
X0258000Y0087872D02*
X0278701Y0087872D01*
X0278701Y0089870D02*
X0258000Y0089870D01*
X0258000Y0091869D02*
X0278701Y0091869D01*
X0278701Y0093868D02*
X0258000Y0093868D01*
X0258000Y0095866D02*
X0278701Y0095866D01*
X0278701Y0097865D02*
X0258000Y0097865D01*
X0258000Y0099863D02*
X0278701Y0099863D01*
X0278701Y0101862D02*
X0258000Y0101862D01*
X0258000Y0103860D02*
X0278701Y0103860D01*
X0278701Y0105859D02*
X0258000Y0105859D01*
X0258000Y0107857D02*
X0278701Y0107857D01*
X0278701Y0109856D02*
X0258000Y0109856D01*
X0258000Y0111854D02*
X0278701Y0111854D01*
X0278701Y0113853D02*
X0258000Y0113853D01*
X0258000Y0115851D02*
X0278701Y0115851D01*
X0278701Y0117850D02*
X0258000Y0117850D01*
X0258000Y0119848D02*
X0278701Y0119848D01*
X0278701Y0121847D02*
X0258000Y0121847D01*
X0258000Y0123845D02*
X0278701Y0123845D01*
X0278701Y0125844D02*
X0258000Y0125844D01*
X0258000Y0127842D02*
X0278701Y0127842D01*
X0278701Y0129841D02*
X0258000Y0129841D01*
X0258000Y0131839D02*
X0278701Y0131839D01*
X0278701Y0133838D02*
X0257401Y0133838D01*
X0256063Y0135836D02*
X0278701Y0135836D01*
X0278701Y0137835D02*
X0252791Y0137835D01*
X0278701Y0139833D02*
X0187066Y0139833D01*
X0185068Y0141832D02*
X0278701Y0141832D01*
X0278701Y0143830D02*
X0183069Y0143830D01*
X0173263Y0133838D02*
X0150324Y0133838D01*
X0165060Y0131839D02*
X0175261Y0131839D01*
X0177260Y0129841D02*
X0167059Y0129841D01*
X0169057Y0127842D02*
X0179258Y0127842D01*
X0181257Y0125844D02*
X0171056Y0125844D01*
X0172398Y0123845D02*
X0189000Y0123845D01*
X0189000Y0121847D02*
X0173000Y0121847D01*
X0173000Y0119848D02*
X0189000Y0119848D01*
X0189000Y0117850D02*
X0173000Y0117850D01*
X0173000Y0115851D02*
X0188689Y0115851D01*
X0187400Y0113853D02*
X0173000Y0113853D01*
X0166000Y0121000D02*
X0166000Y0056000D01*
X0141000Y0056000D01*
X0134543Y0049543D01*
X0115724Y0049543D01*
X0112366Y0056724D02*
X0110409Y0055914D01*
X0108453Y0056724D01*
X0108000Y0056724D01*
X0108000Y0063101D01*
X0124062Y0079162D01*
X0125242Y0079651D01*
X0127349Y0081758D01*
X0128489Y0084510D01*
X0128489Y0087490D01*
X0127349Y0090242D01*
X0125242Y0092349D01*
X0122490Y0093489D01*
X0119510Y0093489D01*
X0116758Y0092349D01*
X0114651Y0090242D01*
X0114162Y0089062D01*
X0098000Y0072899D01*
X0098000Y0078101D01*
X0137299Y0117400D01*
X0139562Y0117400D01*
X0141000Y0118838D01*
X0142438Y0117400D01*
X0149562Y0117400D01*
X0151162Y0119000D01*
X0158101Y0119000D01*
X0159000Y0118101D01*
X0159000Y0063000D01*
X0139608Y0063000D01*
X0137035Y0061934D01*
X0135066Y0059965D01*
X0131644Y0056543D01*
X0119520Y0056543D01*
X0119083Y0056724D01*
X0112366Y0056724D01*
X0108000Y0057894D02*
X0132995Y0057894D01*
X0134993Y0059893D02*
X0108000Y0059893D01*
X0108000Y0061891D02*
X0136992Y0061891D01*
X0116783Y0071884D02*
X0159000Y0071884D01*
X0159000Y0073882D02*
X0118782Y0073882D01*
X0120780Y0075881D02*
X0159000Y0075881D01*
X0159000Y0077879D02*
X0122779Y0077879D01*
X0125469Y0079878D02*
X0159000Y0079878D01*
X0159000Y0081876D02*
X0127398Y0081876D01*
X0128226Y0083875D02*
X0159000Y0083875D01*
X0159000Y0085873D02*
X0128489Y0085873D01*
X0128331Y0087872D02*
X0159000Y0087872D01*
X0159000Y0089870D02*
X0127503Y0089870D01*
X0125722Y0091869D02*
X0159000Y0091869D01*
X0159000Y0093868D02*
X0113767Y0093868D01*
X0111768Y0091869D02*
X0116278Y0091869D01*
X0114497Y0089870D02*
X0109770Y0089870D01*
X0107771Y0087872D02*
X0112973Y0087872D01*
X0110974Y0085873D02*
X0105773Y0085873D01*
X0103774Y0083875D02*
X0108975Y0083875D01*
X0106977Y0081876D02*
X0101776Y0081876D01*
X0099777Y0079878D02*
X0104978Y0079878D01*
X0102980Y0077879D02*
X0098000Y0077879D01*
X0098000Y0075881D02*
X0100981Y0075881D01*
X0098983Y0073882D02*
X0098000Y0073882D01*
X0101000Y0066000D02*
X0121000Y0086000D01*
X0115766Y0095866D02*
X0159000Y0095866D01*
X0159000Y0097865D02*
X0117764Y0097865D01*
X0119763Y0099863D02*
X0159000Y0099863D01*
X0159000Y0101862D02*
X0121761Y0101862D01*
X0123760Y0103860D02*
X0159000Y0103860D01*
X0159000Y0105859D02*
X0125758Y0105859D01*
X0127757Y0107857D02*
X0159000Y0107857D01*
X0159000Y0109856D02*
X0129755Y0109856D01*
X0131754Y0111854D02*
X0159000Y0111854D01*
X0159000Y0113853D02*
X0133752Y0113853D01*
X0135751Y0115851D02*
X0159000Y0115851D01*
X0159000Y0117850D02*
X0150012Y0117850D01*
X0141988Y0117850D02*
X0140012Y0117850D01*
X0146000Y0126000D02*
X0161000Y0126000D01*
X0166000Y0121000D01*
X0129000Y0131839D02*
X0007000Y0131839D01*
X0007000Y0129841D02*
X0127678Y0129841D01*
X0127400Y0127842D02*
X0094051Y0127842D01*
X0088686Y0113853D02*
X0053752Y0113853D01*
X0046000Y0116000D02*
X0031000Y0116000D01*
X0016000Y0101000D01*
X0016000Y0026000D01*
X0021000Y0021000D01*
X0076000Y0021000D01*
X0097063Y0042063D01*
X0105094Y0042063D01*
X0105094Y0045803D02*
X0104898Y0046000D01*
X0091000Y0046000D01*
X0101000Y0051000D02*
X0102457Y0049543D01*
X0105094Y0049543D01*
X0101000Y0051000D02*
X0101000Y0066000D01*
X0108789Y0063890D02*
X0159000Y0063890D01*
X0159000Y0065888D02*
X0110788Y0065888D01*
X0112786Y0067887D02*
X0159000Y0067887D01*
X0159000Y0069885D02*
X0114785Y0069885D01*
X0115724Y0042063D02*
X0169937Y0042063D01*
X0181000Y0031000D01*
X0241000Y0031000D01*
X0235918Y0023920D02*
X0088819Y0023920D01*
X0086821Y0021921D02*
X0278701Y0021921D01*
X0278701Y0019923D02*
X0084822Y0019923D01*
X0082824Y0017924D02*
X0278701Y0017924D01*
X0278701Y0015926D02*
X0080825Y0015926D01*
X0090818Y0025918D02*
X0176182Y0025918D01*
X0174184Y0027917D02*
X0092816Y0027917D01*
X0094815Y0029915D02*
X0172185Y0029915D01*
X0170187Y0031914D02*
X0096813Y0031914D01*
X0098812Y0033912D02*
X0168188Y0033912D01*
X0179993Y0041906D02*
X0244000Y0041906D01*
X0244000Y0039908D02*
X0181992Y0039908D01*
X0177995Y0043905D02*
X0244000Y0043905D01*
X0259600Y0029915D02*
X0278701Y0029915D01*
X0278701Y0027917D02*
X0259600Y0027917D01*
X0258080Y0025918D02*
X0278701Y0025918D01*
X0278701Y0023920D02*
X0256082Y0023920D01*
X0278701Y0013927D02*
X0007000Y0013927D01*
X0007000Y0015926D02*
X0016175Y0015926D01*
X0014176Y0017924D02*
X0007000Y0017924D01*
X0007000Y0019923D02*
X0012178Y0019923D01*
X0012035Y0020066D02*
X0012035Y0020066D01*
X0010179Y0021921D02*
X0007000Y0021921D01*
X0007000Y0023920D02*
X0009285Y0023920D01*
X0009000Y0025918D02*
X0007000Y0025918D01*
X0007000Y0027917D02*
X0009000Y0027917D01*
X0009000Y0029915D02*
X0007000Y0029915D01*
X0007000Y0031914D02*
X0009000Y0031914D01*
X0009000Y0033912D02*
X0007000Y0033912D01*
X0007000Y0035911D02*
X0009000Y0035911D01*
X0009000Y0037909D02*
X0007000Y0037909D01*
X0007000Y0039908D02*
X0009000Y0039908D01*
X0009000Y0041906D02*
X0007000Y0041906D01*
X0007000Y0043905D02*
X0009000Y0043905D01*
X0009000Y0045903D02*
X0007000Y0045903D01*
X0007000Y0047902D02*
X0009000Y0047902D01*
X0009000Y0049900D02*
X0007000Y0049900D01*
X0007000Y0051899D02*
X0009000Y0051899D01*
X0009000Y0053897D02*
X0007000Y0053897D01*
X0007000Y0055896D02*
X0009000Y0055896D01*
X0009000Y0057894D02*
X0007000Y0057894D01*
X0007000Y0059893D02*
X0009000Y0059893D01*
X0009000Y0061891D02*
X0007000Y0061891D01*
X0007000Y0063890D02*
X0009000Y0063890D01*
X0009000Y0065888D02*
X0007000Y0065888D01*
X0007000Y0067887D02*
X0009000Y0067887D01*
X0009000Y0069885D02*
X0007000Y0069885D01*
X0007000Y0071884D02*
X0009000Y0071884D01*
X0009000Y0073882D02*
X0007000Y0073882D01*
X0007000Y0075881D02*
X0009000Y0075881D01*
X0009000Y0077879D02*
X0007000Y0077879D01*
X0007000Y0079878D02*
X0009000Y0079878D01*
X0009000Y0081876D02*
X0007000Y0081876D01*
X0007000Y0083875D02*
X0009000Y0083875D01*
X0009000Y0085873D02*
X0007000Y0085873D01*
X0007000Y0087872D02*
X0009000Y0087872D01*
X0009000Y0089870D02*
X0007000Y0089870D01*
X0007000Y0091869D02*
X0009000Y0091869D01*
X0009000Y0093868D02*
X0007000Y0093868D01*
X0007000Y0095866D02*
X0009000Y0095866D01*
X0009000Y0097865D02*
X0007000Y0097865D01*
X0007000Y0099863D02*
X0009000Y0099863D01*
X0009000Y0101862D02*
X0007000Y0101862D01*
X0007000Y0103860D02*
X0009608Y0103860D01*
X0010959Y0105859D02*
X0007000Y0105859D01*
X0007000Y0107857D02*
X0012958Y0107857D01*
X0014956Y0109856D02*
X0007000Y0109856D01*
X0007000Y0111854D02*
X0016955Y0111854D01*
X0018953Y0113853D02*
X0007000Y0113853D01*
X0007000Y0115851D02*
X0020952Y0115851D01*
X0022950Y0117850D02*
X0007000Y0117850D01*
X0007000Y0119848D02*
X0024949Y0119848D01*
X0026947Y0121847D02*
X0007000Y0121847D01*
X0007000Y0123845D02*
X0043946Y0123845D01*
X0045944Y0125844D02*
X0007000Y0125844D01*
X0007000Y0127842D02*
X0049227Y0127842D01*
X0039000Y0107857D02*
X0032757Y0107857D01*
X0030758Y0105859D02*
X0039000Y0105859D01*
X0039000Y0103860D02*
X0028760Y0103860D01*
X0026761Y0101862D02*
X0039000Y0101862D01*
X0039000Y0099863D02*
X0024763Y0099863D01*
X0023000Y0097865D02*
X0039000Y0097865D01*
X0039000Y0095866D02*
X0023000Y0095866D01*
X0023000Y0093868D02*
X0039000Y0093868D01*
X0039000Y0091869D02*
X0023000Y0091869D01*
X0023000Y0089870D02*
X0037291Y0089870D01*
X0036163Y0087872D02*
X0023000Y0087872D01*
X0023000Y0085873D02*
X0035866Y0085873D01*
X0035866Y0083875D02*
X0023000Y0083875D01*
X0023000Y0081876D02*
X0035866Y0081876D01*
X0035866Y0079878D02*
X0023000Y0079878D01*
X0023000Y0077879D02*
X0035866Y0077879D01*
X0036122Y0075881D02*
X0023000Y0075881D01*
X0023000Y0073882D02*
X0025901Y0073882D01*
X0029091Y0073882D02*
X0037191Y0073882D01*
X0040212Y0071884D02*
X0034160Y0071884D01*
X0036432Y0069885D02*
X0039655Y0069885D01*
X0051788Y0071884D02*
X0057840Y0071884D01*
X0055568Y0069885D02*
X0052345Y0069885D01*
X0046000Y0060173D02*
X0046000Y0031000D01*
X0071000Y0031000D01*
X0071000Y0041000D01*
X0078000Y0038101D02*
X0078000Y0032899D01*
X0084101Y0039000D01*
X0078899Y0039000D01*
X0078000Y0038101D01*
X0078000Y0037909D02*
X0083010Y0037909D01*
X0081011Y0035911D02*
X0078000Y0035911D01*
X0078000Y0033912D02*
X0079013Y0033912D01*
X0058161Y0051899D02*
X0054479Y0051899D01*
X0055741Y0053897D02*
X0055754Y0053897D01*
X0039000Y0050732D02*
X0039000Y0029608D01*
X0039666Y0028000D01*
X0023899Y0028000D01*
X0023000Y0028899D01*
X0023000Y0050863D01*
X0025929Y0050079D01*
X0029063Y0050079D01*
X0032091Y0050890D01*
X0034806Y0052457D01*
X0036255Y0053907D01*
X0036780Y0052641D01*
X0038467Y0050953D01*
X0039000Y0050732D01*
X0039000Y0049900D02*
X0023000Y0049900D01*
X0023000Y0047902D02*
X0039000Y0047902D01*
X0039000Y0045903D02*
X0023000Y0045903D01*
X0023000Y0043905D02*
X0039000Y0043905D01*
X0039000Y0041906D02*
X0023000Y0041906D01*
X0023000Y0039908D02*
X0039000Y0039908D01*
X0039000Y0037909D02*
X0023000Y0037909D01*
X0023000Y0035911D02*
X0039000Y0035911D01*
X0039000Y0033912D02*
X0023000Y0033912D01*
X0023000Y0031914D02*
X0039000Y0031914D01*
X0039000Y0029915D02*
X0023000Y0029915D01*
X0007000Y0011929D02*
X0278701Y0011929D01*
X0278701Y0009930D02*
X0007000Y0009930D01*
X0007000Y0007932D02*
X0278701Y0007932D01*
X0216000Y0056000D02*
X0216000Y0111000D01*
X0206000Y0111000D01*
X0129000Y0133838D02*
X0007000Y0133838D01*
X0007000Y0135836D02*
X0129000Y0135836D01*
X0129000Y0137835D02*
X0007000Y0137835D01*
X0007000Y0139833D02*
X0129000Y0139833D01*
X0129000Y0141832D02*
X0007000Y0141832D01*
X0007000Y0143830D02*
X0129596Y0143830D01*
X0036259Y0053897D02*
X0036246Y0053897D01*
X0037521Y0051899D02*
X0033839Y0051899D01*
D15*
X0121000Y0086000D03*
X0091000Y0121000D03*
M02*
