G75*
%MOIN*%
%OFA0B0*%
%FSLAX25Y25*%
%IPPOS*%
%LPD*%
%AMOC8*
5,1,8,0,0,1.08239X$1,22.5*
%
%ADD10C,0.00600*%
%ADD11C,0.01200*%
%ADD12C,0.02400*%
%ADD13R,0.03400X0.02400*%
%ADD14C,0.01000*%
D10*
X0178500Y0052500D02*
X0178500Y0059500D01*
X0178502Y0059560D01*
X0178507Y0059621D01*
X0178516Y0059680D01*
X0178529Y0059739D01*
X0178545Y0059798D01*
X0178565Y0059855D01*
X0178588Y0059910D01*
X0178615Y0059965D01*
X0178644Y0060017D01*
X0178677Y0060068D01*
X0178713Y0060117D01*
X0178751Y0060163D01*
X0178793Y0060207D01*
X0178837Y0060249D01*
X0178883Y0060287D01*
X0178932Y0060323D01*
X0178983Y0060356D01*
X0179035Y0060385D01*
X0179090Y0060412D01*
X0179145Y0060435D01*
X0179202Y0060455D01*
X0179261Y0060471D01*
X0179320Y0060484D01*
X0179379Y0060493D01*
X0179440Y0060498D01*
X0179500Y0060500D01*
X0181000Y0060500D01*
X0181500Y0060000D01*
X0200500Y0060000D01*
X0201000Y0060500D01*
X0202500Y0060500D01*
X0202560Y0060498D01*
X0202621Y0060493D01*
X0202680Y0060484D01*
X0202739Y0060471D01*
X0202798Y0060455D01*
X0202855Y0060435D01*
X0202910Y0060412D01*
X0202965Y0060385D01*
X0203017Y0060356D01*
X0203068Y0060323D01*
X0203117Y0060287D01*
X0203163Y0060249D01*
X0203207Y0060207D01*
X0203249Y0060163D01*
X0203287Y0060117D01*
X0203323Y0060068D01*
X0203356Y0060017D01*
X0203385Y0059965D01*
X0203412Y0059910D01*
X0203435Y0059855D01*
X0203455Y0059798D01*
X0203471Y0059739D01*
X0203484Y0059680D01*
X0203493Y0059621D01*
X0203498Y0059560D01*
X0203500Y0059500D01*
X0203500Y0052500D01*
X0203498Y0052440D01*
X0203493Y0052379D01*
X0203484Y0052320D01*
X0203471Y0052261D01*
X0203455Y0052202D01*
X0203435Y0052145D01*
X0203412Y0052090D01*
X0203385Y0052035D01*
X0203356Y0051983D01*
X0203323Y0051932D01*
X0203287Y0051883D01*
X0203249Y0051837D01*
X0203207Y0051793D01*
X0203163Y0051751D01*
X0203117Y0051713D01*
X0203068Y0051677D01*
X0203017Y0051644D01*
X0202965Y0051615D01*
X0202910Y0051588D01*
X0202855Y0051565D01*
X0202798Y0051545D01*
X0202739Y0051529D01*
X0202680Y0051516D01*
X0202621Y0051507D01*
X0202560Y0051502D01*
X0202500Y0051500D01*
X0201000Y0051500D01*
X0200500Y0052000D01*
X0181500Y0052000D01*
X0181000Y0051500D01*
X0179500Y0051500D01*
X0179440Y0051502D01*
X0179379Y0051507D01*
X0179320Y0051516D01*
X0179261Y0051529D01*
X0179202Y0051545D01*
X0179145Y0051565D01*
X0179090Y0051588D01*
X0179035Y0051615D01*
X0178983Y0051644D01*
X0178932Y0051677D01*
X0178883Y0051713D01*
X0178837Y0051751D01*
X0178793Y0051793D01*
X0178751Y0051837D01*
X0178713Y0051883D01*
X0178677Y0051932D01*
X0178644Y0051983D01*
X0178615Y0052035D01*
X0178588Y0052090D01*
X0178565Y0052145D01*
X0178545Y0052202D01*
X0178529Y0052261D01*
X0178516Y0052320D01*
X0178507Y0052379D01*
X0178502Y0052440D01*
X0178500Y0052500D01*
X0237500Y0033500D02*
X0237500Y0028500D01*
X0237502Y0028413D01*
X0237508Y0028326D01*
X0237517Y0028239D01*
X0237530Y0028153D01*
X0237547Y0028067D01*
X0237568Y0027982D01*
X0237593Y0027899D01*
X0237621Y0027816D01*
X0237652Y0027735D01*
X0237687Y0027655D01*
X0237726Y0027577D01*
X0237768Y0027500D01*
X0237813Y0027425D01*
X0237862Y0027353D01*
X0237913Y0027282D01*
X0237968Y0027214D01*
X0238025Y0027149D01*
X0238086Y0027086D01*
X0238149Y0027025D01*
X0238214Y0026968D01*
X0238282Y0026913D01*
X0238353Y0026862D01*
X0238425Y0026813D01*
X0238500Y0026768D01*
X0238577Y0026726D01*
X0238655Y0026687D01*
X0238735Y0026652D01*
X0238816Y0026621D01*
X0238899Y0026593D01*
X0238982Y0026568D01*
X0239067Y0026547D01*
X0239153Y0026530D01*
X0239239Y0026517D01*
X0239326Y0026508D01*
X0239413Y0026502D01*
X0239500Y0026500D01*
X0252500Y0026500D01*
X0252587Y0026502D01*
X0252674Y0026508D01*
X0252761Y0026517D01*
X0252847Y0026530D01*
X0252933Y0026547D01*
X0253018Y0026568D01*
X0253101Y0026593D01*
X0253184Y0026621D01*
X0253265Y0026652D01*
X0253345Y0026687D01*
X0253423Y0026726D01*
X0253500Y0026768D01*
X0253575Y0026813D01*
X0253647Y0026862D01*
X0253718Y0026913D01*
X0253786Y0026968D01*
X0253851Y0027025D01*
X0253914Y0027086D01*
X0253975Y0027149D01*
X0254032Y0027214D01*
X0254087Y0027282D01*
X0254138Y0027353D01*
X0254187Y0027425D01*
X0254232Y0027500D01*
X0254274Y0027577D01*
X0254313Y0027655D01*
X0254348Y0027735D01*
X0254379Y0027816D01*
X0254407Y0027899D01*
X0254432Y0027982D01*
X0254453Y0028067D01*
X0254470Y0028153D01*
X0254483Y0028239D01*
X0254492Y0028326D01*
X0254498Y0028413D01*
X0254500Y0028500D01*
X0254500Y0033500D01*
X0254498Y0033587D01*
X0254492Y0033674D01*
X0254483Y0033761D01*
X0254470Y0033847D01*
X0254453Y0033933D01*
X0254432Y0034018D01*
X0254407Y0034101D01*
X0254379Y0034184D01*
X0254348Y0034265D01*
X0254313Y0034345D01*
X0254274Y0034423D01*
X0254232Y0034500D01*
X0254187Y0034575D01*
X0254138Y0034647D01*
X0254087Y0034718D01*
X0254032Y0034786D01*
X0253975Y0034851D01*
X0253914Y0034914D01*
X0253851Y0034975D01*
X0253786Y0035032D01*
X0253718Y0035087D01*
X0253647Y0035138D01*
X0253575Y0035187D01*
X0253500Y0035232D01*
X0253423Y0035274D01*
X0253345Y0035313D01*
X0253265Y0035348D01*
X0253184Y0035379D01*
X0253101Y0035407D01*
X0253018Y0035432D01*
X0252933Y0035453D01*
X0252847Y0035470D01*
X0252761Y0035483D01*
X0252674Y0035492D01*
X0252587Y0035498D01*
X0252500Y0035500D01*
X0239500Y0035500D01*
X0239413Y0035498D01*
X0239326Y0035492D01*
X0239239Y0035483D01*
X0239153Y0035470D01*
X0239067Y0035453D01*
X0238982Y0035432D01*
X0238899Y0035407D01*
X0238816Y0035379D01*
X0238735Y0035348D01*
X0238655Y0035313D01*
X0238577Y0035274D01*
X0238500Y0035232D01*
X0238425Y0035187D01*
X0238353Y0035138D01*
X0238282Y0035087D01*
X0238214Y0035032D01*
X0238149Y0034975D01*
X0238086Y0034914D01*
X0238025Y0034851D01*
X0237968Y0034786D01*
X0237913Y0034718D01*
X0237862Y0034647D01*
X0237813Y0034575D01*
X0237768Y0034500D01*
X0237726Y0034423D01*
X0237687Y0034345D01*
X0237652Y0034265D01*
X0237621Y0034184D01*
X0237593Y0034101D01*
X0237568Y0034018D01*
X0237547Y0033933D01*
X0237530Y0033847D01*
X0237517Y0033761D01*
X0237508Y0033674D01*
X0237502Y0033587D01*
X0237500Y0033500D01*
X0202000Y0109000D02*
X0202500Y0109500D01*
X0202000Y0109000D02*
X0200000Y0109000D01*
X0199500Y0109500D01*
X0199438Y0109565D01*
X0199378Y0109633D01*
X0199322Y0109703D01*
X0199268Y0109775D01*
X0199218Y0109850D01*
X0199171Y0109927D01*
X0199127Y0110005D01*
X0199086Y0110086D01*
X0199049Y0110168D01*
X0199016Y0110251D01*
X0198986Y0110336D01*
X0198959Y0110422D01*
X0198937Y0110509D01*
X0198918Y0110597D01*
X0198902Y0110686D01*
X0198891Y0110775D01*
X0198883Y0110865D01*
X0198879Y0110955D01*
X0198879Y0111045D01*
X0198883Y0111135D01*
X0198891Y0111225D01*
X0198902Y0111314D01*
X0198918Y0111403D01*
X0198937Y0111491D01*
X0198959Y0111578D01*
X0198986Y0111664D01*
X0199016Y0111749D01*
X0199049Y0111832D01*
X0199086Y0111914D01*
X0199127Y0111995D01*
X0199171Y0112073D01*
X0199218Y0112150D01*
X0199268Y0112225D01*
X0199322Y0112297D01*
X0199378Y0112367D01*
X0199438Y0112435D01*
X0199500Y0112500D01*
X0200000Y0113000D01*
X0202000Y0113000D01*
X0202500Y0112500D01*
X0202000Y0111000D02*
X0201998Y0110940D01*
X0201993Y0110879D01*
X0201984Y0110820D01*
X0201971Y0110761D01*
X0201955Y0110702D01*
X0201935Y0110645D01*
X0201912Y0110590D01*
X0201885Y0110535D01*
X0201856Y0110483D01*
X0201823Y0110432D01*
X0201787Y0110383D01*
X0201749Y0110337D01*
X0201707Y0110293D01*
X0201663Y0110251D01*
X0201617Y0110213D01*
X0201568Y0110177D01*
X0201517Y0110144D01*
X0201465Y0110115D01*
X0201410Y0110088D01*
X0201355Y0110065D01*
X0201298Y0110045D01*
X0201239Y0110029D01*
X0201180Y0110016D01*
X0201121Y0110007D01*
X0201060Y0110002D01*
X0201000Y0110000D01*
X0200000Y0111000D02*
X0200002Y0111060D01*
X0200007Y0111121D01*
X0200016Y0111180D01*
X0200029Y0111239D01*
X0200045Y0111298D01*
X0200065Y0111355D01*
X0200088Y0111410D01*
X0200115Y0111465D01*
X0200144Y0111517D01*
X0200177Y0111568D01*
X0200213Y0111617D01*
X0200251Y0111663D01*
X0200293Y0111707D01*
X0200337Y0111749D01*
X0200383Y0111787D01*
X0200432Y0111823D01*
X0200483Y0111856D01*
X0200535Y0111885D01*
X0200590Y0111912D01*
X0200645Y0111935D01*
X0200702Y0111955D01*
X0200761Y0111971D01*
X0200820Y0111984D01*
X0200879Y0111993D01*
X0200940Y0111998D01*
X0201000Y0112000D01*
X0149500Y0123500D02*
X0149500Y0128500D01*
X0149498Y0128587D01*
X0149492Y0128674D01*
X0149483Y0128761D01*
X0149470Y0128847D01*
X0149453Y0128933D01*
X0149432Y0129018D01*
X0149407Y0129101D01*
X0149379Y0129184D01*
X0149348Y0129265D01*
X0149313Y0129345D01*
X0149274Y0129423D01*
X0149232Y0129500D01*
X0149187Y0129575D01*
X0149138Y0129647D01*
X0149087Y0129718D01*
X0149032Y0129786D01*
X0148975Y0129851D01*
X0148914Y0129914D01*
X0148851Y0129975D01*
X0148786Y0130032D01*
X0148718Y0130087D01*
X0148647Y0130138D01*
X0148575Y0130187D01*
X0148500Y0130232D01*
X0148423Y0130274D01*
X0148345Y0130313D01*
X0148265Y0130348D01*
X0148184Y0130379D01*
X0148101Y0130407D01*
X0148018Y0130432D01*
X0147933Y0130453D01*
X0147847Y0130470D01*
X0147761Y0130483D01*
X0147674Y0130492D01*
X0147587Y0130498D01*
X0147500Y0130500D01*
X0134500Y0130500D01*
X0134413Y0130498D01*
X0134326Y0130492D01*
X0134239Y0130483D01*
X0134153Y0130470D01*
X0134067Y0130453D01*
X0133982Y0130432D01*
X0133899Y0130407D01*
X0133816Y0130379D01*
X0133735Y0130348D01*
X0133655Y0130313D01*
X0133577Y0130274D01*
X0133500Y0130232D01*
X0133425Y0130187D01*
X0133353Y0130138D01*
X0133282Y0130087D01*
X0133214Y0130032D01*
X0133149Y0129975D01*
X0133086Y0129914D01*
X0133025Y0129851D01*
X0132968Y0129786D01*
X0132913Y0129718D01*
X0132862Y0129647D01*
X0132813Y0129575D01*
X0132768Y0129500D01*
X0132726Y0129423D01*
X0132687Y0129345D01*
X0132652Y0129265D01*
X0132621Y0129184D01*
X0132593Y0129101D01*
X0132568Y0129018D01*
X0132547Y0128933D01*
X0132530Y0128847D01*
X0132517Y0128761D01*
X0132508Y0128674D01*
X0132502Y0128587D01*
X0132500Y0128500D01*
X0132500Y0123500D01*
X0132502Y0123413D01*
X0132508Y0123326D01*
X0132517Y0123239D01*
X0132530Y0123153D01*
X0132547Y0123067D01*
X0132568Y0122982D01*
X0132593Y0122899D01*
X0132621Y0122816D01*
X0132652Y0122735D01*
X0132687Y0122655D01*
X0132726Y0122577D01*
X0132768Y0122500D01*
X0132813Y0122425D01*
X0132862Y0122353D01*
X0132913Y0122282D01*
X0132968Y0122214D01*
X0133025Y0122149D01*
X0133086Y0122086D01*
X0133149Y0122025D01*
X0133214Y0121968D01*
X0133282Y0121913D01*
X0133353Y0121862D01*
X0133425Y0121813D01*
X0133500Y0121768D01*
X0133577Y0121726D01*
X0133655Y0121687D01*
X0133735Y0121652D01*
X0133816Y0121621D01*
X0133899Y0121593D01*
X0133982Y0121568D01*
X0134067Y0121547D01*
X0134153Y0121530D01*
X0134239Y0121517D01*
X0134326Y0121508D01*
X0134413Y0121502D01*
X0134500Y0121500D01*
X0147500Y0121500D01*
X0147587Y0121502D01*
X0147674Y0121508D01*
X0147761Y0121517D01*
X0147847Y0121530D01*
X0147933Y0121547D01*
X0148018Y0121568D01*
X0148101Y0121593D01*
X0148184Y0121621D01*
X0148265Y0121652D01*
X0148345Y0121687D01*
X0148423Y0121726D01*
X0148500Y0121768D01*
X0148575Y0121813D01*
X0148647Y0121862D01*
X0148718Y0121913D01*
X0148786Y0121968D01*
X0148851Y0122025D01*
X0148914Y0122086D01*
X0148975Y0122149D01*
X0149032Y0122214D01*
X0149087Y0122282D01*
X0149138Y0122353D01*
X0149187Y0122425D01*
X0149232Y0122500D01*
X0149274Y0122577D01*
X0149313Y0122655D01*
X0149348Y0122735D01*
X0149379Y0122816D01*
X0149407Y0122899D01*
X0149432Y0122982D01*
X0149453Y0123067D01*
X0149470Y0123153D01*
X0149483Y0123239D01*
X0149492Y0123326D01*
X0149498Y0123413D01*
X0149500Y0123500D01*
D11*
X0142200Y0123000D02*
X0142200Y0129000D01*
X0139700Y0129000D02*
X0139700Y0123000D01*
X0244800Y0034000D02*
X0244800Y0028000D01*
X0247300Y0028000D02*
X0247300Y0034000D01*
D12*
X0208500Y0056000D02*
X0207000Y0056000D01*
X0175000Y0056000D02*
X0173500Y0056000D01*
D13*
X0171800Y0056000D03*
X0176800Y0056000D03*
X0205200Y0056000D03*
X0210200Y0056000D03*
D14*
X0035764Y0053283D02*
X0035764Y0079661D01*
X0035764Y0079662D02*
X0035672Y0079664D01*
X0035580Y0079670D01*
X0035489Y0079680D01*
X0035398Y0079693D01*
X0035308Y0079711D01*
X0035218Y0079732D01*
X0035130Y0079757D01*
X0035043Y0079786D01*
X0034957Y0079818D01*
X0034872Y0079854D01*
X0034789Y0079894D01*
X0034708Y0079937D01*
X0034629Y0079983D01*
X0034552Y0080033D01*
X0034477Y0080086D01*
X0034404Y0080143D01*
X0034334Y0080202D01*
X0034266Y0080264D01*
X0034201Y0080329D01*
X0034139Y0080397D01*
X0034080Y0080467D01*
X0034023Y0080540D01*
X0033970Y0080615D01*
X0033920Y0080692D01*
X0033874Y0080771D01*
X0033831Y0080852D01*
X0033791Y0080935D01*
X0033755Y0081020D01*
X0033723Y0081106D01*
X0033694Y0081193D01*
X0033669Y0081281D01*
X0033648Y0081371D01*
X0033630Y0081461D01*
X0033617Y0081552D01*
X0033607Y0081643D01*
X0033601Y0081735D01*
X0033599Y0081827D01*
X0033601Y0081919D01*
X0033607Y0082011D01*
X0033617Y0082102D01*
X0033630Y0082193D01*
X0033648Y0082283D01*
X0033669Y0082373D01*
X0033694Y0082461D01*
X0033723Y0082548D01*
X0033755Y0082634D01*
X0033791Y0082719D01*
X0033831Y0082802D01*
X0033874Y0082883D01*
X0033920Y0082962D01*
X0033970Y0083039D01*
X0034023Y0083114D01*
X0034080Y0083187D01*
X0034139Y0083257D01*
X0034201Y0083325D01*
X0034266Y0083390D01*
X0034334Y0083452D01*
X0034404Y0083511D01*
X0034477Y0083568D01*
X0034552Y0083621D01*
X0034629Y0083671D01*
X0034708Y0083717D01*
X0034789Y0083760D01*
X0034872Y0083800D01*
X0034957Y0083836D01*
X0035043Y0083868D01*
X0035130Y0083897D01*
X0035218Y0083922D01*
X0035308Y0083943D01*
X0035398Y0083961D01*
X0035489Y0083974D01*
X0035580Y0083984D01*
X0035672Y0083990D01*
X0035764Y0083992D01*
X0035764Y0090291D01*
X0056236Y0090291D01*
X0056236Y0053283D01*
X0035764Y0053283D01*
X0035370Y0058008D02*
X0032614Y0058008D01*
X0033007Y0058402D02*
X0032919Y0058269D01*
X0032828Y0058138D01*
X0032734Y0058009D01*
X0032636Y0057882D01*
X0032536Y0057758D01*
X0032432Y0057637D01*
X0032326Y0057518D01*
X0032216Y0057401D01*
X0032104Y0057287D01*
X0031989Y0057176D01*
X0031872Y0057068D01*
X0031752Y0056963D01*
X0031629Y0056861D01*
X0031504Y0056762D01*
X0031376Y0056666D01*
X0031246Y0056573D01*
X0031114Y0056483D01*
X0030980Y0056396D01*
X0030844Y0056313D01*
X0030705Y0056233D01*
X0030565Y0056156D01*
X0030423Y0056083D01*
X0030280Y0056014D01*
X0030134Y0055948D01*
X0029987Y0055885D01*
X0029839Y0055826D01*
X0029689Y0055771D01*
X0029538Y0055719D01*
X0029385Y0055671D01*
X0029232Y0055627D01*
X0029077Y0055587D01*
X0028922Y0055550D01*
X0028766Y0055517D01*
X0028609Y0055488D01*
X0028451Y0055463D01*
X0028293Y0055442D01*
X0028134Y0055424D01*
X0027975Y0055411D01*
X0027815Y0055401D01*
X0027656Y0055395D01*
X0027496Y0055393D01*
X0027336Y0055395D01*
X0027177Y0055401D01*
X0027017Y0055411D01*
X0026858Y0055424D01*
X0026699Y0055442D01*
X0026541Y0055463D01*
X0026383Y0055488D01*
X0026226Y0055517D01*
X0026070Y0055550D01*
X0025915Y0055587D01*
X0025760Y0055627D01*
X0025607Y0055671D01*
X0025454Y0055719D01*
X0025303Y0055771D01*
X0025153Y0055826D01*
X0025005Y0055885D01*
X0024858Y0055948D01*
X0024712Y0056014D01*
X0024569Y0056083D01*
X0024427Y0056156D01*
X0024287Y0056233D01*
X0024148Y0056313D01*
X0024012Y0056396D01*
X0023878Y0056483D01*
X0023746Y0056573D01*
X0023616Y0056666D01*
X0023488Y0056762D01*
X0023363Y0056861D01*
X0023240Y0056963D01*
X0023120Y0057068D01*
X0023003Y0057176D01*
X0022888Y0057287D01*
X0022776Y0057401D01*
X0022666Y0057518D01*
X0022560Y0057637D01*
X0022456Y0057758D01*
X0022356Y0057882D01*
X0022258Y0058009D01*
X0022164Y0058138D01*
X0022073Y0058269D01*
X0021985Y0058402D01*
X0021984Y0058402D02*
X0021984Y0065488D01*
X0021985Y0065488D02*
X0022073Y0065621D01*
X0022164Y0065752D01*
X0022258Y0065881D01*
X0022356Y0066008D01*
X0022456Y0066132D01*
X0022560Y0066253D01*
X0022666Y0066372D01*
X0022776Y0066489D01*
X0022888Y0066603D01*
X0023003Y0066714D01*
X0023120Y0066822D01*
X0023240Y0066927D01*
X0023363Y0067029D01*
X0023488Y0067128D01*
X0023616Y0067224D01*
X0023746Y0067317D01*
X0023878Y0067407D01*
X0024012Y0067494D01*
X0024148Y0067577D01*
X0024287Y0067657D01*
X0024427Y0067734D01*
X0024569Y0067807D01*
X0024712Y0067876D01*
X0024858Y0067942D01*
X0025005Y0068005D01*
X0025153Y0068064D01*
X0025303Y0068119D01*
X0025454Y0068171D01*
X0025607Y0068219D01*
X0025760Y0068263D01*
X0025915Y0068303D01*
X0026070Y0068340D01*
X0026226Y0068373D01*
X0026383Y0068402D01*
X0026541Y0068427D01*
X0026699Y0068448D01*
X0026858Y0068466D01*
X0027017Y0068479D01*
X0027177Y0068489D01*
X0027336Y0068495D01*
X0027496Y0068497D01*
X0027656Y0068495D01*
X0027815Y0068489D01*
X0027975Y0068479D01*
X0028134Y0068466D01*
X0028293Y0068448D01*
X0028451Y0068427D01*
X0028609Y0068402D01*
X0028766Y0068373D01*
X0028922Y0068340D01*
X0029077Y0068303D01*
X0029232Y0068263D01*
X0029385Y0068219D01*
X0029538Y0068171D01*
X0029689Y0068119D01*
X0029839Y0068064D01*
X0029987Y0068005D01*
X0030134Y0067942D01*
X0030280Y0067876D01*
X0030423Y0067807D01*
X0030565Y0067734D01*
X0030705Y0067657D01*
X0030844Y0067577D01*
X0030980Y0067494D01*
X0031114Y0067407D01*
X0031246Y0067317D01*
X0031376Y0067224D01*
X0031504Y0067128D01*
X0031629Y0067029D01*
X0031752Y0066927D01*
X0031872Y0066822D01*
X0031989Y0066714D01*
X0032104Y0066603D01*
X0032216Y0066489D01*
X0032326Y0066372D01*
X0032432Y0066253D01*
X0032536Y0066132D01*
X0032636Y0066008D01*
X0032734Y0065881D01*
X0032828Y0065752D01*
X0032919Y0065621D01*
X0033007Y0065488D01*
X0032614Y0065882D02*
X0035370Y0065882D01*
X0056630Y0065882D02*
X0059386Y0065882D01*
X0058993Y0058402D02*
X0059081Y0058269D01*
X0059172Y0058138D01*
X0059266Y0058009D01*
X0059364Y0057882D01*
X0059464Y0057758D01*
X0059568Y0057637D01*
X0059674Y0057518D01*
X0059784Y0057401D01*
X0059896Y0057287D01*
X0060011Y0057176D01*
X0060128Y0057068D01*
X0060248Y0056963D01*
X0060371Y0056861D01*
X0060496Y0056762D01*
X0060624Y0056666D01*
X0060754Y0056573D01*
X0060886Y0056483D01*
X0061020Y0056396D01*
X0061156Y0056313D01*
X0061295Y0056233D01*
X0061435Y0056156D01*
X0061577Y0056083D01*
X0061720Y0056014D01*
X0061866Y0055948D01*
X0062013Y0055885D01*
X0062161Y0055826D01*
X0062311Y0055771D01*
X0062462Y0055719D01*
X0062615Y0055671D01*
X0062768Y0055627D01*
X0062923Y0055587D01*
X0063078Y0055550D01*
X0063234Y0055517D01*
X0063391Y0055488D01*
X0063549Y0055463D01*
X0063707Y0055442D01*
X0063866Y0055424D01*
X0064025Y0055411D01*
X0064185Y0055401D01*
X0064344Y0055395D01*
X0064504Y0055393D01*
X0064664Y0055395D01*
X0064823Y0055401D01*
X0064983Y0055411D01*
X0065142Y0055424D01*
X0065301Y0055442D01*
X0065459Y0055463D01*
X0065617Y0055488D01*
X0065774Y0055517D01*
X0065930Y0055550D01*
X0066085Y0055587D01*
X0066240Y0055627D01*
X0066393Y0055671D01*
X0066546Y0055719D01*
X0066697Y0055771D01*
X0066847Y0055826D01*
X0066995Y0055885D01*
X0067142Y0055948D01*
X0067288Y0056014D01*
X0067431Y0056083D01*
X0067573Y0056156D01*
X0067713Y0056233D01*
X0067852Y0056313D01*
X0067988Y0056396D01*
X0068122Y0056483D01*
X0068254Y0056573D01*
X0068384Y0056666D01*
X0068512Y0056762D01*
X0068637Y0056861D01*
X0068760Y0056963D01*
X0068880Y0057068D01*
X0068997Y0057176D01*
X0069112Y0057287D01*
X0069224Y0057401D01*
X0069334Y0057518D01*
X0069440Y0057637D01*
X0069544Y0057758D01*
X0069644Y0057882D01*
X0069742Y0058009D01*
X0069836Y0058138D01*
X0069927Y0058269D01*
X0070015Y0058402D01*
X0070016Y0058402D02*
X0070016Y0065488D01*
X0070015Y0065488D02*
X0069927Y0065621D01*
X0069836Y0065752D01*
X0069742Y0065881D01*
X0069644Y0066008D01*
X0069544Y0066132D01*
X0069440Y0066253D01*
X0069334Y0066372D01*
X0069224Y0066489D01*
X0069112Y0066603D01*
X0068997Y0066714D01*
X0068880Y0066822D01*
X0068760Y0066927D01*
X0068637Y0067029D01*
X0068512Y0067128D01*
X0068384Y0067224D01*
X0068254Y0067317D01*
X0068122Y0067407D01*
X0067988Y0067494D01*
X0067852Y0067577D01*
X0067713Y0067657D01*
X0067573Y0067734D01*
X0067431Y0067807D01*
X0067288Y0067876D01*
X0067142Y0067942D01*
X0066995Y0068005D01*
X0066847Y0068064D01*
X0066697Y0068119D01*
X0066546Y0068171D01*
X0066393Y0068219D01*
X0066240Y0068263D01*
X0066085Y0068303D01*
X0065930Y0068340D01*
X0065774Y0068373D01*
X0065617Y0068402D01*
X0065459Y0068427D01*
X0065301Y0068448D01*
X0065142Y0068466D01*
X0064983Y0068479D01*
X0064823Y0068489D01*
X0064664Y0068495D01*
X0064504Y0068497D01*
X0064344Y0068495D01*
X0064185Y0068489D01*
X0064025Y0068479D01*
X0063866Y0068466D01*
X0063707Y0068448D01*
X0063549Y0068427D01*
X0063391Y0068402D01*
X0063234Y0068373D01*
X0063078Y0068340D01*
X0062923Y0068303D01*
X0062768Y0068263D01*
X0062615Y0068219D01*
X0062462Y0068171D01*
X0062311Y0068119D01*
X0062161Y0068064D01*
X0062013Y0068005D01*
X0061866Y0067942D01*
X0061720Y0067876D01*
X0061577Y0067807D01*
X0061435Y0067734D01*
X0061295Y0067657D01*
X0061156Y0067577D01*
X0061020Y0067494D01*
X0060886Y0067407D01*
X0060754Y0067317D01*
X0060624Y0067224D01*
X0060496Y0067128D01*
X0060371Y0067029D01*
X0060248Y0066927D01*
X0060128Y0066822D01*
X0060011Y0066714D01*
X0059896Y0066603D01*
X0059784Y0066489D01*
X0059674Y0066372D01*
X0059568Y0066253D01*
X0059464Y0066132D01*
X0059364Y0066008D01*
X0059266Y0065881D01*
X0059172Y0065752D01*
X0059081Y0065621D01*
X0058993Y0065488D01*
X0059386Y0058008D02*
X0056630Y0058008D01*
M02*
