G75*
%MOIN*%
%OFA0B0*%
%FSLAX25Y25*%
%IPPOS*%
%LPD*%
%AMOC8*
5,1,8,0,0,1.08239X$1,22.5*
%
%ADD10C,0.00000*%
%ADD11OC8,0.05200*%
%ADD12R,0.04331X0.02362*%
%ADD13R,0.08268X0.08268*%
%ADD14C,0.02000*%
%ADD15R,0.03962X0.03962*%
D10*
X0002000Y0002000D02*
X0002000Y0186961D01*
X0230701Y0186961D01*
X0230701Y0002000D01*
X0002000Y0002000D01*
X0008590Y0110984D02*
X0008592Y0111137D01*
X0008598Y0111291D01*
X0008608Y0111444D01*
X0008622Y0111596D01*
X0008640Y0111749D01*
X0008662Y0111900D01*
X0008687Y0112051D01*
X0008717Y0112202D01*
X0008751Y0112352D01*
X0008788Y0112500D01*
X0008829Y0112648D01*
X0008874Y0112794D01*
X0008923Y0112940D01*
X0008976Y0113084D01*
X0009032Y0113226D01*
X0009092Y0113367D01*
X0009156Y0113507D01*
X0009223Y0113645D01*
X0009294Y0113781D01*
X0009369Y0113915D01*
X0009446Y0114047D01*
X0009528Y0114177D01*
X0009612Y0114305D01*
X0009700Y0114431D01*
X0009791Y0114554D01*
X0009885Y0114675D01*
X0009983Y0114793D01*
X0010083Y0114909D01*
X0010187Y0115022D01*
X0010293Y0115133D01*
X0010402Y0115241D01*
X0010514Y0115346D01*
X0010628Y0115447D01*
X0010746Y0115546D01*
X0010865Y0115642D01*
X0010987Y0115735D01*
X0011112Y0115824D01*
X0011239Y0115911D01*
X0011368Y0115993D01*
X0011499Y0116073D01*
X0011632Y0116149D01*
X0011767Y0116222D01*
X0011904Y0116291D01*
X0012043Y0116356D01*
X0012183Y0116418D01*
X0012325Y0116476D01*
X0012468Y0116531D01*
X0012613Y0116582D01*
X0012759Y0116629D01*
X0012906Y0116672D01*
X0013054Y0116711D01*
X0013203Y0116747D01*
X0013353Y0116778D01*
X0013504Y0116806D01*
X0013655Y0116830D01*
X0013808Y0116850D01*
X0013960Y0116866D01*
X0014113Y0116878D01*
X0014266Y0116886D01*
X0014419Y0116890D01*
X0014573Y0116890D01*
X0014726Y0116886D01*
X0014879Y0116878D01*
X0015032Y0116866D01*
X0015184Y0116850D01*
X0015337Y0116830D01*
X0015488Y0116806D01*
X0015639Y0116778D01*
X0015789Y0116747D01*
X0015938Y0116711D01*
X0016086Y0116672D01*
X0016233Y0116629D01*
X0016379Y0116582D01*
X0016524Y0116531D01*
X0016667Y0116476D01*
X0016809Y0116418D01*
X0016949Y0116356D01*
X0017088Y0116291D01*
X0017225Y0116222D01*
X0017360Y0116149D01*
X0017493Y0116073D01*
X0017624Y0115993D01*
X0017753Y0115911D01*
X0017880Y0115824D01*
X0018005Y0115735D01*
X0018127Y0115642D01*
X0018246Y0115546D01*
X0018364Y0115447D01*
X0018478Y0115346D01*
X0018590Y0115241D01*
X0018699Y0115133D01*
X0018805Y0115022D01*
X0018909Y0114909D01*
X0019009Y0114793D01*
X0019107Y0114675D01*
X0019201Y0114554D01*
X0019292Y0114431D01*
X0019380Y0114305D01*
X0019464Y0114177D01*
X0019546Y0114047D01*
X0019623Y0113915D01*
X0019698Y0113781D01*
X0019769Y0113645D01*
X0019836Y0113507D01*
X0019900Y0113367D01*
X0019960Y0113226D01*
X0020016Y0113084D01*
X0020069Y0112940D01*
X0020118Y0112794D01*
X0020163Y0112648D01*
X0020204Y0112500D01*
X0020241Y0112352D01*
X0020275Y0112202D01*
X0020305Y0112051D01*
X0020330Y0111900D01*
X0020352Y0111749D01*
X0020370Y0111596D01*
X0020384Y0111444D01*
X0020394Y0111291D01*
X0020400Y0111137D01*
X0020402Y0110984D01*
X0020400Y0110831D01*
X0020394Y0110677D01*
X0020384Y0110524D01*
X0020370Y0110372D01*
X0020352Y0110219D01*
X0020330Y0110068D01*
X0020305Y0109917D01*
X0020275Y0109766D01*
X0020241Y0109616D01*
X0020204Y0109468D01*
X0020163Y0109320D01*
X0020118Y0109174D01*
X0020069Y0109028D01*
X0020016Y0108884D01*
X0019960Y0108742D01*
X0019900Y0108601D01*
X0019836Y0108461D01*
X0019769Y0108323D01*
X0019698Y0108187D01*
X0019623Y0108053D01*
X0019546Y0107921D01*
X0019464Y0107791D01*
X0019380Y0107663D01*
X0019292Y0107537D01*
X0019201Y0107414D01*
X0019107Y0107293D01*
X0019009Y0107175D01*
X0018909Y0107059D01*
X0018805Y0106946D01*
X0018699Y0106835D01*
X0018590Y0106727D01*
X0018478Y0106622D01*
X0018364Y0106521D01*
X0018246Y0106422D01*
X0018127Y0106326D01*
X0018005Y0106233D01*
X0017880Y0106144D01*
X0017753Y0106057D01*
X0017624Y0105975D01*
X0017493Y0105895D01*
X0017360Y0105819D01*
X0017225Y0105746D01*
X0017088Y0105677D01*
X0016949Y0105612D01*
X0016809Y0105550D01*
X0016667Y0105492D01*
X0016524Y0105437D01*
X0016379Y0105386D01*
X0016233Y0105339D01*
X0016086Y0105296D01*
X0015938Y0105257D01*
X0015789Y0105221D01*
X0015639Y0105190D01*
X0015488Y0105162D01*
X0015337Y0105138D01*
X0015184Y0105118D01*
X0015032Y0105102D01*
X0014879Y0105090D01*
X0014726Y0105082D01*
X0014573Y0105078D01*
X0014419Y0105078D01*
X0014266Y0105082D01*
X0014113Y0105090D01*
X0013960Y0105102D01*
X0013808Y0105118D01*
X0013655Y0105138D01*
X0013504Y0105162D01*
X0013353Y0105190D01*
X0013203Y0105221D01*
X0013054Y0105257D01*
X0012906Y0105296D01*
X0012759Y0105339D01*
X0012613Y0105386D01*
X0012468Y0105437D01*
X0012325Y0105492D01*
X0012183Y0105550D01*
X0012043Y0105612D01*
X0011904Y0105677D01*
X0011767Y0105746D01*
X0011632Y0105819D01*
X0011499Y0105895D01*
X0011368Y0105975D01*
X0011239Y0106057D01*
X0011112Y0106144D01*
X0010987Y0106233D01*
X0010865Y0106326D01*
X0010746Y0106422D01*
X0010628Y0106521D01*
X0010514Y0106622D01*
X0010402Y0106727D01*
X0010293Y0106835D01*
X0010187Y0106946D01*
X0010083Y0107059D01*
X0009983Y0107175D01*
X0009885Y0107293D01*
X0009791Y0107414D01*
X0009700Y0107537D01*
X0009612Y0107663D01*
X0009528Y0107791D01*
X0009446Y0107921D01*
X0009369Y0108053D01*
X0009294Y0108187D01*
X0009223Y0108323D01*
X0009156Y0108461D01*
X0009092Y0108601D01*
X0009032Y0108742D01*
X0008976Y0108884D01*
X0008923Y0109028D01*
X0008874Y0109174D01*
X0008829Y0109320D01*
X0008788Y0109468D01*
X0008751Y0109616D01*
X0008717Y0109766D01*
X0008687Y0109917D01*
X0008662Y0110068D01*
X0008640Y0110219D01*
X0008622Y0110372D01*
X0008608Y0110524D01*
X0008598Y0110677D01*
X0008592Y0110831D01*
X0008590Y0110984D01*
X0045598Y0110984D02*
X0045600Y0111137D01*
X0045606Y0111291D01*
X0045616Y0111444D01*
X0045630Y0111596D01*
X0045648Y0111749D01*
X0045670Y0111900D01*
X0045695Y0112051D01*
X0045725Y0112202D01*
X0045759Y0112352D01*
X0045796Y0112500D01*
X0045837Y0112648D01*
X0045882Y0112794D01*
X0045931Y0112940D01*
X0045984Y0113084D01*
X0046040Y0113226D01*
X0046100Y0113367D01*
X0046164Y0113507D01*
X0046231Y0113645D01*
X0046302Y0113781D01*
X0046377Y0113915D01*
X0046454Y0114047D01*
X0046536Y0114177D01*
X0046620Y0114305D01*
X0046708Y0114431D01*
X0046799Y0114554D01*
X0046893Y0114675D01*
X0046991Y0114793D01*
X0047091Y0114909D01*
X0047195Y0115022D01*
X0047301Y0115133D01*
X0047410Y0115241D01*
X0047522Y0115346D01*
X0047636Y0115447D01*
X0047754Y0115546D01*
X0047873Y0115642D01*
X0047995Y0115735D01*
X0048120Y0115824D01*
X0048247Y0115911D01*
X0048376Y0115993D01*
X0048507Y0116073D01*
X0048640Y0116149D01*
X0048775Y0116222D01*
X0048912Y0116291D01*
X0049051Y0116356D01*
X0049191Y0116418D01*
X0049333Y0116476D01*
X0049476Y0116531D01*
X0049621Y0116582D01*
X0049767Y0116629D01*
X0049914Y0116672D01*
X0050062Y0116711D01*
X0050211Y0116747D01*
X0050361Y0116778D01*
X0050512Y0116806D01*
X0050663Y0116830D01*
X0050816Y0116850D01*
X0050968Y0116866D01*
X0051121Y0116878D01*
X0051274Y0116886D01*
X0051427Y0116890D01*
X0051581Y0116890D01*
X0051734Y0116886D01*
X0051887Y0116878D01*
X0052040Y0116866D01*
X0052192Y0116850D01*
X0052345Y0116830D01*
X0052496Y0116806D01*
X0052647Y0116778D01*
X0052797Y0116747D01*
X0052946Y0116711D01*
X0053094Y0116672D01*
X0053241Y0116629D01*
X0053387Y0116582D01*
X0053532Y0116531D01*
X0053675Y0116476D01*
X0053817Y0116418D01*
X0053957Y0116356D01*
X0054096Y0116291D01*
X0054233Y0116222D01*
X0054368Y0116149D01*
X0054501Y0116073D01*
X0054632Y0115993D01*
X0054761Y0115911D01*
X0054888Y0115824D01*
X0055013Y0115735D01*
X0055135Y0115642D01*
X0055254Y0115546D01*
X0055372Y0115447D01*
X0055486Y0115346D01*
X0055598Y0115241D01*
X0055707Y0115133D01*
X0055813Y0115022D01*
X0055917Y0114909D01*
X0056017Y0114793D01*
X0056115Y0114675D01*
X0056209Y0114554D01*
X0056300Y0114431D01*
X0056388Y0114305D01*
X0056472Y0114177D01*
X0056554Y0114047D01*
X0056631Y0113915D01*
X0056706Y0113781D01*
X0056777Y0113645D01*
X0056844Y0113507D01*
X0056908Y0113367D01*
X0056968Y0113226D01*
X0057024Y0113084D01*
X0057077Y0112940D01*
X0057126Y0112794D01*
X0057171Y0112648D01*
X0057212Y0112500D01*
X0057249Y0112352D01*
X0057283Y0112202D01*
X0057313Y0112051D01*
X0057338Y0111900D01*
X0057360Y0111749D01*
X0057378Y0111596D01*
X0057392Y0111444D01*
X0057402Y0111291D01*
X0057408Y0111137D01*
X0057410Y0110984D01*
X0057408Y0110831D01*
X0057402Y0110677D01*
X0057392Y0110524D01*
X0057378Y0110372D01*
X0057360Y0110219D01*
X0057338Y0110068D01*
X0057313Y0109917D01*
X0057283Y0109766D01*
X0057249Y0109616D01*
X0057212Y0109468D01*
X0057171Y0109320D01*
X0057126Y0109174D01*
X0057077Y0109028D01*
X0057024Y0108884D01*
X0056968Y0108742D01*
X0056908Y0108601D01*
X0056844Y0108461D01*
X0056777Y0108323D01*
X0056706Y0108187D01*
X0056631Y0108053D01*
X0056554Y0107921D01*
X0056472Y0107791D01*
X0056388Y0107663D01*
X0056300Y0107537D01*
X0056209Y0107414D01*
X0056115Y0107293D01*
X0056017Y0107175D01*
X0055917Y0107059D01*
X0055813Y0106946D01*
X0055707Y0106835D01*
X0055598Y0106727D01*
X0055486Y0106622D01*
X0055372Y0106521D01*
X0055254Y0106422D01*
X0055135Y0106326D01*
X0055013Y0106233D01*
X0054888Y0106144D01*
X0054761Y0106057D01*
X0054632Y0105975D01*
X0054501Y0105895D01*
X0054368Y0105819D01*
X0054233Y0105746D01*
X0054096Y0105677D01*
X0053957Y0105612D01*
X0053817Y0105550D01*
X0053675Y0105492D01*
X0053532Y0105437D01*
X0053387Y0105386D01*
X0053241Y0105339D01*
X0053094Y0105296D01*
X0052946Y0105257D01*
X0052797Y0105221D01*
X0052647Y0105190D01*
X0052496Y0105162D01*
X0052345Y0105138D01*
X0052192Y0105118D01*
X0052040Y0105102D01*
X0051887Y0105090D01*
X0051734Y0105082D01*
X0051581Y0105078D01*
X0051427Y0105078D01*
X0051274Y0105082D01*
X0051121Y0105090D01*
X0050968Y0105102D01*
X0050816Y0105118D01*
X0050663Y0105138D01*
X0050512Y0105162D01*
X0050361Y0105190D01*
X0050211Y0105221D01*
X0050062Y0105257D01*
X0049914Y0105296D01*
X0049767Y0105339D01*
X0049621Y0105386D01*
X0049476Y0105437D01*
X0049333Y0105492D01*
X0049191Y0105550D01*
X0049051Y0105612D01*
X0048912Y0105677D01*
X0048775Y0105746D01*
X0048640Y0105819D01*
X0048507Y0105895D01*
X0048376Y0105975D01*
X0048247Y0106057D01*
X0048120Y0106144D01*
X0047995Y0106233D01*
X0047873Y0106326D01*
X0047754Y0106422D01*
X0047636Y0106521D01*
X0047522Y0106622D01*
X0047410Y0106727D01*
X0047301Y0106835D01*
X0047195Y0106946D01*
X0047091Y0107059D01*
X0046991Y0107175D01*
X0046893Y0107293D01*
X0046799Y0107414D01*
X0046708Y0107537D01*
X0046620Y0107663D01*
X0046536Y0107791D01*
X0046454Y0107921D01*
X0046377Y0108053D01*
X0046302Y0108187D01*
X0046231Y0108323D01*
X0046164Y0108461D01*
X0046100Y0108601D01*
X0046040Y0108742D01*
X0045984Y0108884D01*
X0045931Y0109028D01*
X0045882Y0109174D01*
X0045837Y0109320D01*
X0045796Y0109468D01*
X0045759Y0109616D01*
X0045725Y0109766D01*
X0045695Y0109917D01*
X0045670Y0110068D01*
X0045648Y0110219D01*
X0045630Y0110372D01*
X0045616Y0110524D01*
X0045606Y0110677D01*
X0045600Y0110831D01*
X0045598Y0110984D01*
D11*
X0122000Y0137000D03*
X0152000Y0137000D03*
X0165000Y0123000D03*
X0165000Y0113000D03*
X0119000Y0031000D03*
X0109000Y0031000D03*
D12*
X0111252Y0107000D03*
X0111252Y0114480D03*
X0102000Y0114480D03*
X0102000Y0110740D03*
X0102000Y0107000D03*
D13*
X0033000Y0109173D03*
X0033000Y0130827D03*
D14*
X0034000Y0131000D02*
X0064000Y0131000D01*
X0086000Y0131000D01*
X0102000Y0115000D01*
X0102000Y0111000D02*
X0089000Y0111000D01*
X0051000Y0073000D01*
X0050000Y0073000D01*
X0033000Y0108000D01*
X0050000Y0073000D02*
X0057000Y0018000D01*
X0057000Y0019000D02*
X0058000Y0019000D01*
X0059000Y0018000D01*
X0061000Y0016000D01*
X0062000Y0015000D01*
X0113000Y0015000D01*
X0121000Y0023000D01*
X0121000Y0030000D01*
X0119000Y0030000D02*
X0166000Y0077000D01*
X0166000Y0113000D01*
X0166000Y0123000D02*
X0152000Y0137000D01*
X0123000Y0138000D02*
X0111000Y0126000D01*
X0111000Y0115000D01*
X0113000Y0107000D02*
X0113000Y0036000D01*
X0108000Y0031000D01*
X0100000Y0095000D02*
X0094000Y0095000D01*
X0100000Y0095000D02*
X0100000Y0106000D01*
X0101000Y0107000D01*
D15*
X0094000Y0095000D03*
X0064000Y0131000D03*
M02*
