G75*
%MOIN*%
%OFA0B0*%
%FSLAX25Y25*%
%IPPOS*%
%LPD*%
%AMOC8*
5,1,8,0,0,1.08239X$1,22.5*
%
%ADD10C,0.00600*%
%ADD11C,0.01200*%
%ADD12R,0.01500X0.02000*%
%ADD13C,0.01181*%
%ADD14C,0.01000*%
D10*
X0105500Y0028500D02*
X0105500Y0033500D01*
X0105502Y0033587D01*
X0105508Y0033674D01*
X0105517Y0033761D01*
X0105530Y0033847D01*
X0105547Y0033933D01*
X0105568Y0034018D01*
X0105593Y0034101D01*
X0105621Y0034184D01*
X0105652Y0034265D01*
X0105687Y0034345D01*
X0105726Y0034423D01*
X0105768Y0034500D01*
X0105813Y0034575D01*
X0105862Y0034647D01*
X0105913Y0034718D01*
X0105968Y0034786D01*
X0106025Y0034851D01*
X0106086Y0034914D01*
X0106149Y0034975D01*
X0106214Y0035032D01*
X0106282Y0035087D01*
X0106353Y0035138D01*
X0106425Y0035187D01*
X0106500Y0035232D01*
X0106577Y0035274D01*
X0106655Y0035313D01*
X0106735Y0035348D01*
X0106816Y0035379D01*
X0106899Y0035407D01*
X0106982Y0035432D01*
X0107067Y0035453D01*
X0107153Y0035470D01*
X0107239Y0035483D01*
X0107326Y0035492D01*
X0107413Y0035498D01*
X0107500Y0035500D01*
X0120500Y0035500D01*
X0120587Y0035498D01*
X0120674Y0035492D01*
X0120761Y0035483D01*
X0120847Y0035470D01*
X0120933Y0035453D01*
X0121018Y0035432D01*
X0121101Y0035407D01*
X0121184Y0035379D01*
X0121265Y0035348D01*
X0121345Y0035313D01*
X0121423Y0035274D01*
X0121500Y0035232D01*
X0121575Y0035187D01*
X0121647Y0035138D01*
X0121718Y0035087D01*
X0121786Y0035032D01*
X0121851Y0034975D01*
X0121914Y0034914D01*
X0121975Y0034851D01*
X0122032Y0034786D01*
X0122087Y0034718D01*
X0122138Y0034647D01*
X0122187Y0034575D01*
X0122232Y0034500D01*
X0122274Y0034423D01*
X0122313Y0034345D01*
X0122348Y0034265D01*
X0122379Y0034184D01*
X0122407Y0034101D01*
X0122432Y0034018D01*
X0122453Y0033933D01*
X0122470Y0033847D01*
X0122483Y0033761D01*
X0122492Y0033674D01*
X0122498Y0033587D01*
X0122500Y0033500D01*
X0122500Y0028500D01*
X0122498Y0028413D01*
X0122492Y0028326D01*
X0122483Y0028239D01*
X0122470Y0028153D01*
X0122453Y0028067D01*
X0122432Y0027982D01*
X0122407Y0027899D01*
X0122379Y0027816D01*
X0122348Y0027735D01*
X0122313Y0027655D01*
X0122274Y0027577D01*
X0122232Y0027500D01*
X0122187Y0027425D01*
X0122138Y0027353D01*
X0122087Y0027282D01*
X0122032Y0027214D01*
X0121975Y0027149D01*
X0121914Y0027086D01*
X0121851Y0027025D01*
X0121786Y0026968D01*
X0121718Y0026913D01*
X0121647Y0026862D01*
X0121575Y0026813D01*
X0121500Y0026768D01*
X0121423Y0026726D01*
X0121345Y0026687D01*
X0121265Y0026652D01*
X0121184Y0026621D01*
X0121101Y0026593D01*
X0121018Y0026568D01*
X0120933Y0026547D01*
X0120847Y0026530D01*
X0120761Y0026517D01*
X0120674Y0026508D01*
X0120587Y0026502D01*
X0120500Y0026500D01*
X0107500Y0026500D01*
X0107413Y0026502D01*
X0107326Y0026508D01*
X0107239Y0026517D01*
X0107153Y0026530D01*
X0107067Y0026547D01*
X0106982Y0026568D01*
X0106899Y0026593D01*
X0106816Y0026621D01*
X0106735Y0026652D01*
X0106655Y0026687D01*
X0106577Y0026726D01*
X0106500Y0026768D01*
X0106425Y0026813D01*
X0106353Y0026862D01*
X0106282Y0026913D01*
X0106214Y0026968D01*
X0106149Y0027025D01*
X0106086Y0027086D01*
X0106025Y0027149D01*
X0105968Y0027214D01*
X0105913Y0027282D01*
X0105862Y0027353D01*
X0105813Y0027425D01*
X0105768Y0027500D01*
X0105726Y0027577D01*
X0105687Y0027655D01*
X0105652Y0027735D01*
X0105621Y0027816D01*
X0105593Y0027899D01*
X0105568Y0027982D01*
X0105547Y0028067D01*
X0105530Y0028153D01*
X0105517Y0028239D01*
X0105508Y0028326D01*
X0105502Y0028413D01*
X0105500Y0028500D01*
X0163500Y0116500D02*
X0163000Y0117000D01*
X0163000Y0119000D01*
X0163500Y0119500D01*
X0163500Y0116500D02*
X0163565Y0116438D01*
X0163633Y0116378D01*
X0163703Y0116322D01*
X0163775Y0116268D01*
X0163850Y0116218D01*
X0163927Y0116171D01*
X0164005Y0116127D01*
X0164086Y0116086D01*
X0164168Y0116049D01*
X0164251Y0116016D01*
X0164336Y0115986D01*
X0164422Y0115959D01*
X0164509Y0115937D01*
X0164597Y0115918D01*
X0164686Y0115902D01*
X0164775Y0115891D01*
X0164865Y0115883D01*
X0164955Y0115879D01*
X0165045Y0115879D01*
X0165135Y0115883D01*
X0165225Y0115891D01*
X0165314Y0115902D01*
X0165403Y0115918D01*
X0165491Y0115937D01*
X0165578Y0115959D01*
X0165664Y0115986D01*
X0165749Y0116016D01*
X0165832Y0116049D01*
X0165914Y0116086D01*
X0165995Y0116127D01*
X0166073Y0116171D01*
X0166150Y0116218D01*
X0166225Y0116268D01*
X0166297Y0116322D01*
X0166367Y0116378D01*
X0166435Y0116438D01*
X0166500Y0116500D01*
X0167000Y0117000D01*
X0167000Y0119000D01*
X0166500Y0119500D01*
X0166000Y0118000D02*
X0165998Y0118060D01*
X0165993Y0118121D01*
X0165984Y0118180D01*
X0165971Y0118239D01*
X0165955Y0118298D01*
X0165935Y0118355D01*
X0165912Y0118410D01*
X0165885Y0118465D01*
X0165856Y0118517D01*
X0165823Y0118568D01*
X0165787Y0118617D01*
X0165749Y0118663D01*
X0165707Y0118707D01*
X0165663Y0118749D01*
X0165617Y0118787D01*
X0165568Y0118823D01*
X0165517Y0118856D01*
X0165465Y0118885D01*
X0165410Y0118912D01*
X0165355Y0118935D01*
X0165298Y0118955D01*
X0165239Y0118971D01*
X0165180Y0118984D01*
X0165121Y0118993D01*
X0165060Y0118998D01*
X0165000Y0119000D01*
X0164000Y0118000D02*
X0164002Y0117940D01*
X0164007Y0117879D01*
X0164016Y0117820D01*
X0164029Y0117761D01*
X0164045Y0117702D01*
X0164065Y0117645D01*
X0164088Y0117590D01*
X0164115Y0117535D01*
X0164144Y0117483D01*
X0164177Y0117432D01*
X0164213Y0117383D01*
X0164251Y0117337D01*
X0164293Y0117293D01*
X0164337Y0117251D01*
X0164383Y0117213D01*
X0164432Y0117177D01*
X0164483Y0117144D01*
X0164535Y0117115D01*
X0164590Y0117088D01*
X0164645Y0117065D01*
X0164702Y0117045D01*
X0164761Y0117029D01*
X0164820Y0117016D01*
X0164879Y0117007D01*
X0164940Y0117002D01*
X0165000Y0117000D01*
X0146000Y0133000D02*
X0144500Y0133000D01*
X0144000Y0133500D01*
X0130000Y0133500D01*
X0129500Y0133000D01*
X0128000Y0133000D01*
X0127940Y0133002D01*
X0127879Y0133007D01*
X0127820Y0133016D01*
X0127761Y0133029D01*
X0127702Y0133045D01*
X0127645Y0133065D01*
X0127590Y0133088D01*
X0127535Y0133115D01*
X0127483Y0133144D01*
X0127432Y0133177D01*
X0127383Y0133213D01*
X0127337Y0133251D01*
X0127293Y0133293D01*
X0127251Y0133337D01*
X0127213Y0133383D01*
X0127177Y0133432D01*
X0127144Y0133483D01*
X0127115Y0133535D01*
X0127088Y0133590D01*
X0127065Y0133645D01*
X0127045Y0133702D01*
X0127029Y0133761D01*
X0127016Y0133820D01*
X0127007Y0133879D01*
X0127002Y0133940D01*
X0127000Y0134000D01*
X0127000Y0140000D01*
X0127002Y0140060D01*
X0127007Y0140121D01*
X0127016Y0140180D01*
X0127029Y0140239D01*
X0127045Y0140298D01*
X0127065Y0140355D01*
X0127088Y0140410D01*
X0127115Y0140465D01*
X0127144Y0140517D01*
X0127177Y0140568D01*
X0127213Y0140617D01*
X0127251Y0140663D01*
X0127293Y0140707D01*
X0127337Y0140749D01*
X0127383Y0140787D01*
X0127432Y0140823D01*
X0127483Y0140856D01*
X0127535Y0140885D01*
X0127590Y0140912D01*
X0127645Y0140935D01*
X0127702Y0140955D01*
X0127761Y0140971D01*
X0127820Y0140984D01*
X0127879Y0140993D01*
X0127940Y0140998D01*
X0128000Y0141000D01*
X0129500Y0141000D01*
X0130000Y0140500D01*
X0144000Y0140500D01*
X0144500Y0141000D01*
X0146000Y0141000D01*
X0146060Y0140998D01*
X0146121Y0140993D01*
X0146180Y0140984D01*
X0146239Y0140971D01*
X0146298Y0140955D01*
X0146355Y0140935D01*
X0146410Y0140912D01*
X0146465Y0140885D01*
X0146517Y0140856D01*
X0146568Y0140823D01*
X0146617Y0140787D01*
X0146663Y0140749D01*
X0146707Y0140707D01*
X0146749Y0140663D01*
X0146787Y0140617D01*
X0146823Y0140568D01*
X0146856Y0140517D01*
X0146885Y0140465D01*
X0146912Y0140410D01*
X0146935Y0140355D01*
X0146955Y0140298D01*
X0146971Y0140239D01*
X0146984Y0140180D01*
X0146993Y0140121D01*
X0146998Y0140060D01*
X0147000Y0140000D01*
X0147000Y0134000D01*
X0146998Y0133940D01*
X0146993Y0133879D01*
X0146984Y0133820D01*
X0146971Y0133761D01*
X0146955Y0133702D01*
X0146935Y0133645D01*
X0146912Y0133590D01*
X0146885Y0133535D01*
X0146856Y0133483D01*
X0146823Y0133432D01*
X0146787Y0133383D01*
X0146749Y0133337D01*
X0146707Y0133293D01*
X0146663Y0133251D01*
X0146617Y0133213D01*
X0146568Y0133177D01*
X0146517Y0133144D01*
X0146465Y0133115D01*
X0146410Y0133088D01*
X0146355Y0133065D01*
X0146298Y0133045D01*
X0146239Y0133029D01*
X0146180Y0133016D01*
X0146121Y0133007D01*
X0146060Y0133002D01*
X0146000Y0133000D01*
D11*
X0115200Y0034000D02*
X0115200Y0028000D01*
X0112700Y0028000D02*
X0112700Y0034000D01*
D12*
X0126250Y0137000D03*
X0147750Y0137000D03*
D13*
X0114598Y0116843D02*
X0098654Y0116843D01*
X0098654Y0104638D01*
X0114598Y0104638D01*
X0114598Y0116843D01*
D14*
X0057016Y0114488D02*
X0057016Y0107402D01*
X0057015Y0114488D02*
X0056927Y0114621D01*
X0056836Y0114752D01*
X0056742Y0114881D01*
X0056644Y0115008D01*
X0056544Y0115132D01*
X0056440Y0115253D01*
X0056334Y0115372D01*
X0056224Y0115489D01*
X0056112Y0115603D01*
X0055997Y0115714D01*
X0055880Y0115822D01*
X0055760Y0115927D01*
X0055637Y0116029D01*
X0055512Y0116128D01*
X0055384Y0116224D01*
X0055254Y0116317D01*
X0055122Y0116407D01*
X0054988Y0116494D01*
X0054852Y0116577D01*
X0054713Y0116657D01*
X0054573Y0116734D01*
X0054431Y0116807D01*
X0054288Y0116876D01*
X0054142Y0116942D01*
X0053995Y0117005D01*
X0053847Y0117064D01*
X0053697Y0117119D01*
X0053546Y0117171D01*
X0053393Y0117219D01*
X0053240Y0117263D01*
X0053085Y0117303D01*
X0052930Y0117340D01*
X0052774Y0117373D01*
X0052617Y0117402D01*
X0052459Y0117427D01*
X0052301Y0117448D01*
X0052142Y0117466D01*
X0051983Y0117479D01*
X0051823Y0117489D01*
X0051664Y0117495D01*
X0051504Y0117497D01*
X0051344Y0117495D01*
X0051185Y0117489D01*
X0051025Y0117479D01*
X0050866Y0117466D01*
X0050707Y0117448D01*
X0050549Y0117427D01*
X0050391Y0117402D01*
X0050234Y0117373D01*
X0050078Y0117340D01*
X0049923Y0117303D01*
X0049768Y0117263D01*
X0049615Y0117219D01*
X0049462Y0117171D01*
X0049311Y0117119D01*
X0049161Y0117064D01*
X0049013Y0117005D01*
X0048866Y0116942D01*
X0048720Y0116876D01*
X0048577Y0116807D01*
X0048435Y0116734D01*
X0048295Y0116657D01*
X0048156Y0116577D01*
X0048020Y0116494D01*
X0047886Y0116407D01*
X0047754Y0116317D01*
X0047624Y0116224D01*
X0047496Y0116128D01*
X0047371Y0116029D01*
X0047248Y0115927D01*
X0047128Y0115822D01*
X0047011Y0115714D01*
X0046896Y0115603D01*
X0046784Y0115489D01*
X0046674Y0115372D01*
X0046568Y0115253D01*
X0046464Y0115132D01*
X0046364Y0115008D01*
X0046266Y0114881D01*
X0046172Y0114752D01*
X0046081Y0114621D01*
X0045993Y0114488D01*
X0046386Y0114882D02*
X0043630Y0114882D01*
X0045993Y0107402D02*
X0046081Y0107269D01*
X0046172Y0107138D01*
X0046266Y0107009D01*
X0046364Y0106882D01*
X0046464Y0106758D01*
X0046568Y0106637D01*
X0046674Y0106518D01*
X0046784Y0106401D01*
X0046896Y0106287D01*
X0047011Y0106176D01*
X0047128Y0106068D01*
X0047248Y0105963D01*
X0047371Y0105861D01*
X0047496Y0105762D01*
X0047624Y0105666D01*
X0047754Y0105573D01*
X0047886Y0105483D01*
X0048020Y0105396D01*
X0048156Y0105313D01*
X0048295Y0105233D01*
X0048435Y0105156D01*
X0048577Y0105083D01*
X0048720Y0105014D01*
X0048866Y0104948D01*
X0049013Y0104885D01*
X0049161Y0104826D01*
X0049311Y0104771D01*
X0049462Y0104719D01*
X0049615Y0104671D01*
X0049768Y0104627D01*
X0049923Y0104587D01*
X0050078Y0104550D01*
X0050234Y0104517D01*
X0050391Y0104488D01*
X0050549Y0104463D01*
X0050707Y0104442D01*
X0050866Y0104424D01*
X0051025Y0104411D01*
X0051185Y0104401D01*
X0051344Y0104395D01*
X0051504Y0104393D01*
X0051664Y0104395D01*
X0051823Y0104401D01*
X0051983Y0104411D01*
X0052142Y0104424D01*
X0052301Y0104442D01*
X0052459Y0104463D01*
X0052617Y0104488D01*
X0052774Y0104517D01*
X0052930Y0104550D01*
X0053085Y0104587D01*
X0053240Y0104627D01*
X0053393Y0104671D01*
X0053546Y0104719D01*
X0053697Y0104771D01*
X0053847Y0104826D01*
X0053995Y0104885D01*
X0054142Y0104948D01*
X0054288Y0105014D01*
X0054431Y0105083D01*
X0054573Y0105156D01*
X0054713Y0105233D01*
X0054852Y0105313D01*
X0054988Y0105396D01*
X0055122Y0105483D01*
X0055254Y0105573D01*
X0055384Y0105666D01*
X0055512Y0105762D01*
X0055637Y0105861D01*
X0055760Y0105963D01*
X0055880Y0106068D01*
X0055997Y0106176D01*
X0056112Y0106287D01*
X0056224Y0106401D01*
X0056334Y0106518D01*
X0056440Y0106637D01*
X0056544Y0106758D01*
X0056644Y0106882D01*
X0056742Y0107009D01*
X0056836Y0107138D01*
X0056927Y0107269D01*
X0057015Y0107402D01*
X0046386Y0107008D02*
X0043630Y0107008D01*
X0043236Y0102283D02*
X0043236Y0139291D01*
X0022764Y0139291D01*
X0022764Y0132992D01*
X0022672Y0132990D01*
X0022580Y0132984D01*
X0022489Y0132974D01*
X0022398Y0132961D01*
X0022308Y0132943D01*
X0022218Y0132922D01*
X0022130Y0132897D01*
X0022043Y0132868D01*
X0021957Y0132836D01*
X0021872Y0132800D01*
X0021789Y0132760D01*
X0021708Y0132717D01*
X0021629Y0132671D01*
X0021552Y0132621D01*
X0021477Y0132568D01*
X0021404Y0132511D01*
X0021334Y0132452D01*
X0021266Y0132390D01*
X0021201Y0132325D01*
X0021139Y0132257D01*
X0021080Y0132187D01*
X0021023Y0132114D01*
X0020970Y0132039D01*
X0020920Y0131962D01*
X0020874Y0131883D01*
X0020831Y0131802D01*
X0020791Y0131719D01*
X0020755Y0131634D01*
X0020723Y0131548D01*
X0020694Y0131461D01*
X0020669Y0131373D01*
X0020648Y0131283D01*
X0020630Y0131193D01*
X0020617Y0131102D01*
X0020607Y0131011D01*
X0020601Y0130919D01*
X0020599Y0130827D01*
X0020601Y0130735D01*
X0020607Y0130643D01*
X0020617Y0130552D01*
X0020630Y0130461D01*
X0020648Y0130371D01*
X0020669Y0130281D01*
X0020694Y0130193D01*
X0020723Y0130106D01*
X0020755Y0130020D01*
X0020791Y0129935D01*
X0020831Y0129852D01*
X0020874Y0129771D01*
X0020920Y0129692D01*
X0020970Y0129615D01*
X0021023Y0129540D01*
X0021080Y0129467D01*
X0021139Y0129397D01*
X0021201Y0129329D01*
X0021266Y0129264D01*
X0021334Y0129202D01*
X0021404Y0129143D01*
X0021477Y0129086D01*
X0021552Y0129033D01*
X0021629Y0128983D01*
X0021708Y0128937D01*
X0021789Y0128894D01*
X0021872Y0128854D01*
X0021957Y0128818D01*
X0022043Y0128786D01*
X0022130Y0128757D01*
X0022218Y0128732D01*
X0022308Y0128711D01*
X0022398Y0128693D01*
X0022489Y0128680D01*
X0022580Y0128670D01*
X0022672Y0128664D01*
X0022764Y0128662D01*
X0022764Y0128661D02*
X0022764Y0102283D01*
X0043236Y0102283D01*
X0022370Y0107008D02*
X0019614Y0107008D01*
X0020007Y0107402D02*
X0019919Y0107269D01*
X0019828Y0107138D01*
X0019734Y0107009D01*
X0019636Y0106882D01*
X0019536Y0106758D01*
X0019432Y0106637D01*
X0019326Y0106518D01*
X0019216Y0106401D01*
X0019104Y0106287D01*
X0018989Y0106176D01*
X0018872Y0106068D01*
X0018752Y0105963D01*
X0018629Y0105861D01*
X0018504Y0105762D01*
X0018376Y0105666D01*
X0018246Y0105573D01*
X0018114Y0105483D01*
X0017980Y0105396D01*
X0017844Y0105313D01*
X0017705Y0105233D01*
X0017565Y0105156D01*
X0017423Y0105083D01*
X0017280Y0105014D01*
X0017134Y0104948D01*
X0016987Y0104885D01*
X0016839Y0104826D01*
X0016689Y0104771D01*
X0016538Y0104719D01*
X0016385Y0104671D01*
X0016232Y0104627D01*
X0016077Y0104587D01*
X0015922Y0104550D01*
X0015766Y0104517D01*
X0015609Y0104488D01*
X0015451Y0104463D01*
X0015293Y0104442D01*
X0015134Y0104424D01*
X0014975Y0104411D01*
X0014815Y0104401D01*
X0014656Y0104395D01*
X0014496Y0104393D01*
X0014336Y0104395D01*
X0014177Y0104401D01*
X0014017Y0104411D01*
X0013858Y0104424D01*
X0013699Y0104442D01*
X0013541Y0104463D01*
X0013383Y0104488D01*
X0013226Y0104517D01*
X0013070Y0104550D01*
X0012915Y0104587D01*
X0012760Y0104627D01*
X0012607Y0104671D01*
X0012454Y0104719D01*
X0012303Y0104771D01*
X0012153Y0104826D01*
X0012005Y0104885D01*
X0011858Y0104948D01*
X0011712Y0105014D01*
X0011569Y0105083D01*
X0011427Y0105156D01*
X0011287Y0105233D01*
X0011148Y0105313D01*
X0011012Y0105396D01*
X0010878Y0105483D01*
X0010746Y0105573D01*
X0010616Y0105666D01*
X0010488Y0105762D01*
X0010363Y0105861D01*
X0010240Y0105963D01*
X0010120Y0106068D01*
X0010003Y0106176D01*
X0009888Y0106287D01*
X0009776Y0106401D01*
X0009666Y0106518D01*
X0009560Y0106637D01*
X0009456Y0106758D01*
X0009356Y0106882D01*
X0009258Y0107009D01*
X0009164Y0107138D01*
X0009073Y0107269D01*
X0008985Y0107402D01*
X0008984Y0107402D02*
X0008984Y0114488D01*
X0008985Y0114488D02*
X0009073Y0114621D01*
X0009164Y0114752D01*
X0009258Y0114881D01*
X0009356Y0115008D01*
X0009456Y0115132D01*
X0009560Y0115253D01*
X0009666Y0115372D01*
X0009776Y0115489D01*
X0009888Y0115603D01*
X0010003Y0115714D01*
X0010120Y0115822D01*
X0010240Y0115927D01*
X0010363Y0116029D01*
X0010488Y0116128D01*
X0010616Y0116224D01*
X0010746Y0116317D01*
X0010878Y0116407D01*
X0011012Y0116494D01*
X0011148Y0116577D01*
X0011287Y0116657D01*
X0011427Y0116734D01*
X0011569Y0116807D01*
X0011712Y0116876D01*
X0011858Y0116942D01*
X0012005Y0117005D01*
X0012153Y0117064D01*
X0012303Y0117119D01*
X0012454Y0117171D01*
X0012607Y0117219D01*
X0012760Y0117263D01*
X0012915Y0117303D01*
X0013070Y0117340D01*
X0013226Y0117373D01*
X0013383Y0117402D01*
X0013541Y0117427D01*
X0013699Y0117448D01*
X0013858Y0117466D01*
X0014017Y0117479D01*
X0014177Y0117489D01*
X0014336Y0117495D01*
X0014496Y0117497D01*
X0014656Y0117495D01*
X0014815Y0117489D01*
X0014975Y0117479D01*
X0015134Y0117466D01*
X0015293Y0117448D01*
X0015451Y0117427D01*
X0015609Y0117402D01*
X0015766Y0117373D01*
X0015922Y0117340D01*
X0016077Y0117303D01*
X0016232Y0117263D01*
X0016385Y0117219D01*
X0016538Y0117171D01*
X0016689Y0117119D01*
X0016839Y0117064D01*
X0016987Y0117005D01*
X0017134Y0116942D01*
X0017280Y0116876D01*
X0017423Y0116807D01*
X0017565Y0116734D01*
X0017705Y0116657D01*
X0017844Y0116577D01*
X0017980Y0116494D01*
X0018114Y0116407D01*
X0018246Y0116317D01*
X0018376Y0116224D01*
X0018504Y0116128D01*
X0018629Y0116029D01*
X0018752Y0115927D01*
X0018872Y0115822D01*
X0018989Y0115714D01*
X0019104Y0115603D01*
X0019216Y0115489D01*
X0019326Y0115372D01*
X0019432Y0115253D01*
X0019536Y0115132D01*
X0019636Y0115008D01*
X0019734Y0114881D01*
X0019828Y0114752D01*
X0019919Y0114621D01*
X0020007Y0114488D01*
X0019614Y0114882D02*
X0022370Y0114882D01*
M02*
