G75*
%MOIN*%
%OFA0B0*%
%FSLAX25Y25*%
%IPPOS*%
%LPD*%
%AMOC8*
5,1,8,0,0,1.08239X$1,22.5*
%
%ADD10C,0.00600*%
%ADD11C,0.01200*%
%ADD12R,0.02000X0.01500*%
%ADD13C,0.00500*%
%ADD14C,0.01000*%
D10*
X0018500Y0054500D02*
X0031500Y0054500D01*
X0031587Y0054502D01*
X0031674Y0054508D01*
X0031761Y0054517D01*
X0031847Y0054530D01*
X0031933Y0054547D01*
X0032018Y0054568D01*
X0032101Y0054593D01*
X0032184Y0054621D01*
X0032265Y0054652D01*
X0032345Y0054687D01*
X0032423Y0054726D01*
X0032500Y0054768D01*
X0032575Y0054813D01*
X0032647Y0054862D01*
X0032718Y0054913D01*
X0032786Y0054968D01*
X0032851Y0055025D01*
X0032914Y0055086D01*
X0032975Y0055149D01*
X0033032Y0055214D01*
X0033087Y0055282D01*
X0033138Y0055353D01*
X0033187Y0055425D01*
X0033232Y0055500D01*
X0033274Y0055577D01*
X0033313Y0055655D01*
X0033348Y0055735D01*
X0033379Y0055816D01*
X0033407Y0055899D01*
X0033432Y0055982D01*
X0033453Y0056067D01*
X0033470Y0056153D01*
X0033483Y0056239D01*
X0033492Y0056326D01*
X0033498Y0056413D01*
X0033500Y0056500D01*
X0033500Y0061500D01*
X0033498Y0061587D01*
X0033492Y0061674D01*
X0033483Y0061761D01*
X0033470Y0061847D01*
X0033453Y0061933D01*
X0033432Y0062018D01*
X0033407Y0062101D01*
X0033379Y0062184D01*
X0033348Y0062265D01*
X0033313Y0062345D01*
X0033274Y0062423D01*
X0033232Y0062500D01*
X0033187Y0062575D01*
X0033138Y0062647D01*
X0033087Y0062718D01*
X0033032Y0062786D01*
X0032975Y0062851D01*
X0032914Y0062914D01*
X0032851Y0062975D01*
X0032786Y0063032D01*
X0032718Y0063087D01*
X0032647Y0063138D01*
X0032575Y0063187D01*
X0032500Y0063232D01*
X0032423Y0063274D01*
X0032345Y0063313D01*
X0032265Y0063348D01*
X0032184Y0063379D01*
X0032101Y0063407D01*
X0032018Y0063432D01*
X0031933Y0063453D01*
X0031847Y0063470D01*
X0031761Y0063483D01*
X0031674Y0063492D01*
X0031587Y0063498D01*
X0031500Y0063500D01*
X0018500Y0063500D01*
X0018413Y0063498D01*
X0018326Y0063492D01*
X0018239Y0063483D01*
X0018153Y0063470D01*
X0018067Y0063453D01*
X0017982Y0063432D01*
X0017899Y0063407D01*
X0017816Y0063379D01*
X0017735Y0063348D01*
X0017655Y0063313D01*
X0017577Y0063274D01*
X0017500Y0063232D01*
X0017425Y0063187D01*
X0017353Y0063138D01*
X0017282Y0063087D01*
X0017214Y0063032D01*
X0017149Y0062975D01*
X0017086Y0062914D01*
X0017025Y0062851D01*
X0016968Y0062786D01*
X0016913Y0062718D01*
X0016862Y0062647D01*
X0016813Y0062575D01*
X0016768Y0062500D01*
X0016726Y0062423D01*
X0016687Y0062345D01*
X0016652Y0062265D01*
X0016621Y0062184D01*
X0016593Y0062101D01*
X0016568Y0062018D01*
X0016547Y0061933D01*
X0016530Y0061847D01*
X0016517Y0061761D01*
X0016508Y0061674D01*
X0016502Y0061587D01*
X0016500Y0061500D01*
X0016500Y0056500D01*
X0016502Y0056413D01*
X0016508Y0056326D01*
X0016517Y0056239D01*
X0016530Y0056153D01*
X0016547Y0056067D01*
X0016568Y0055982D01*
X0016593Y0055899D01*
X0016621Y0055816D01*
X0016652Y0055735D01*
X0016687Y0055655D01*
X0016726Y0055577D01*
X0016768Y0055500D01*
X0016813Y0055425D01*
X0016862Y0055353D01*
X0016913Y0055282D01*
X0016968Y0055214D01*
X0017025Y0055149D01*
X0017086Y0055086D01*
X0017149Y0055025D01*
X0017214Y0054968D01*
X0017282Y0054913D01*
X0017353Y0054862D01*
X0017425Y0054813D01*
X0017500Y0054768D01*
X0017577Y0054726D01*
X0017655Y0054687D01*
X0017735Y0054652D01*
X0017816Y0054621D01*
X0017899Y0054593D01*
X0017982Y0054568D01*
X0018067Y0054547D01*
X0018153Y0054530D01*
X0018239Y0054517D01*
X0018326Y0054508D01*
X0018413Y0054502D01*
X0018500Y0054500D01*
X0106500Y0094500D02*
X0106500Y0099500D01*
X0106502Y0099587D01*
X0106508Y0099674D01*
X0106517Y0099761D01*
X0106530Y0099847D01*
X0106547Y0099933D01*
X0106568Y0100018D01*
X0106593Y0100101D01*
X0106621Y0100184D01*
X0106652Y0100265D01*
X0106687Y0100345D01*
X0106726Y0100423D01*
X0106768Y0100500D01*
X0106813Y0100575D01*
X0106862Y0100647D01*
X0106913Y0100718D01*
X0106968Y0100786D01*
X0107025Y0100851D01*
X0107086Y0100914D01*
X0107149Y0100975D01*
X0107214Y0101032D01*
X0107282Y0101087D01*
X0107353Y0101138D01*
X0107425Y0101187D01*
X0107500Y0101232D01*
X0107577Y0101274D01*
X0107655Y0101313D01*
X0107735Y0101348D01*
X0107816Y0101379D01*
X0107899Y0101407D01*
X0107982Y0101432D01*
X0108067Y0101453D01*
X0108153Y0101470D01*
X0108239Y0101483D01*
X0108326Y0101492D01*
X0108413Y0101498D01*
X0108500Y0101500D01*
X0121500Y0101500D01*
X0121587Y0101498D01*
X0121674Y0101492D01*
X0121761Y0101483D01*
X0121847Y0101470D01*
X0121933Y0101453D01*
X0122018Y0101432D01*
X0122101Y0101407D01*
X0122184Y0101379D01*
X0122265Y0101348D01*
X0122345Y0101313D01*
X0122423Y0101274D01*
X0122500Y0101232D01*
X0122575Y0101187D01*
X0122647Y0101138D01*
X0122718Y0101087D01*
X0122786Y0101032D01*
X0122851Y0100975D01*
X0122914Y0100914D01*
X0122975Y0100851D01*
X0123032Y0100786D01*
X0123087Y0100718D01*
X0123138Y0100647D01*
X0123187Y0100575D01*
X0123232Y0100500D01*
X0123274Y0100423D01*
X0123313Y0100345D01*
X0123348Y0100265D01*
X0123379Y0100184D01*
X0123407Y0100101D01*
X0123432Y0100018D01*
X0123453Y0099933D01*
X0123470Y0099847D01*
X0123483Y0099761D01*
X0123492Y0099674D01*
X0123498Y0099587D01*
X0123500Y0099500D01*
X0123500Y0094500D01*
X0123498Y0094413D01*
X0123492Y0094326D01*
X0123483Y0094239D01*
X0123470Y0094153D01*
X0123453Y0094067D01*
X0123432Y0093982D01*
X0123407Y0093899D01*
X0123379Y0093816D01*
X0123348Y0093735D01*
X0123313Y0093655D01*
X0123274Y0093577D01*
X0123232Y0093500D01*
X0123187Y0093425D01*
X0123138Y0093353D01*
X0123087Y0093282D01*
X0123032Y0093214D01*
X0122975Y0093149D01*
X0122914Y0093086D01*
X0122851Y0093025D01*
X0122786Y0092968D01*
X0122718Y0092913D01*
X0122647Y0092862D01*
X0122575Y0092813D01*
X0122500Y0092768D01*
X0122423Y0092726D01*
X0122345Y0092687D01*
X0122265Y0092652D01*
X0122184Y0092621D01*
X0122101Y0092593D01*
X0122018Y0092568D01*
X0121933Y0092547D01*
X0121847Y0092530D01*
X0121761Y0092517D01*
X0121674Y0092508D01*
X0121587Y0092502D01*
X0121500Y0092500D01*
X0108500Y0092500D01*
X0108413Y0092502D01*
X0108326Y0092508D01*
X0108239Y0092517D01*
X0108153Y0092530D01*
X0108067Y0092547D01*
X0107982Y0092568D01*
X0107899Y0092593D01*
X0107816Y0092621D01*
X0107735Y0092652D01*
X0107655Y0092687D01*
X0107577Y0092726D01*
X0107500Y0092768D01*
X0107425Y0092813D01*
X0107353Y0092862D01*
X0107282Y0092913D01*
X0107214Y0092968D01*
X0107149Y0093025D01*
X0107086Y0093086D01*
X0107025Y0093149D01*
X0106968Y0093214D01*
X0106913Y0093282D01*
X0106862Y0093353D01*
X0106813Y0093425D01*
X0106768Y0093500D01*
X0106726Y0093577D01*
X0106687Y0093655D01*
X0106652Y0093735D01*
X0106621Y0093816D01*
X0106593Y0093899D01*
X0106568Y0093982D01*
X0106547Y0094067D01*
X0106530Y0094153D01*
X0106517Y0094239D01*
X0106508Y0094326D01*
X0106502Y0094413D01*
X0106500Y0094500D01*
X0148000Y0093000D02*
X0148000Y0091000D01*
X0148500Y0090500D01*
X0148500Y0093500D02*
X0148565Y0093562D01*
X0148633Y0093622D01*
X0148703Y0093678D01*
X0148775Y0093732D01*
X0148850Y0093782D01*
X0148927Y0093829D01*
X0149005Y0093873D01*
X0149086Y0093914D01*
X0149168Y0093951D01*
X0149251Y0093984D01*
X0149336Y0094014D01*
X0149422Y0094041D01*
X0149509Y0094063D01*
X0149597Y0094082D01*
X0149686Y0094098D01*
X0149775Y0094109D01*
X0149865Y0094117D01*
X0149955Y0094121D01*
X0150045Y0094121D01*
X0150135Y0094117D01*
X0150225Y0094109D01*
X0150314Y0094098D01*
X0150403Y0094082D01*
X0150491Y0094063D01*
X0150578Y0094041D01*
X0150664Y0094014D01*
X0150749Y0093984D01*
X0150832Y0093951D01*
X0150914Y0093914D01*
X0150995Y0093873D01*
X0151073Y0093829D01*
X0151150Y0093782D01*
X0151225Y0093732D01*
X0151297Y0093678D01*
X0151367Y0093622D01*
X0151435Y0093562D01*
X0151500Y0093500D01*
X0152000Y0093000D01*
X0152000Y0091000D01*
X0151500Y0090500D01*
X0150000Y0091000D02*
X0149940Y0091002D01*
X0149879Y0091007D01*
X0149820Y0091016D01*
X0149761Y0091029D01*
X0149702Y0091045D01*
X0149645Y0091065D01*
X0149590Y0091088D01*
X0149535Y0091115D01*
X0149483Y0091144D01*
X0149432Y0091177D01*
X0149383Y0091213D01*
X0149337Y0091251D01*
X0149293Y0091293D01*
X0149251Y0091337D01*
X0149213Y0091383D01*
X0149177Y0091432D01*
X0149144Y0091483D01*
X0149115Y0091535D01*
X0149088Y0091590D01*
X0149065Y0091645D01*
X0149045Y0091702D01*
X0149029Y0091761D01*
X0149016Y0091820D01*
X0149007Y0091879D01*
X0149002Y0091940D01*
X0149000Y0092000D01*
X0150000Y0093000D02*
X0150060Y0092998D01*
X0150121Y0092993D01*
X0150180Y0092984D01*
X0150239Y0092971D01*
X0150298Y0092955D01*
X0150355Y0092935D01*
X0150410Y0092912D01*
X0150465Y0092885D01*
X0150517Y0092856D01*
X0150568Y0092823D01*
X0150617Y0092787D01*
X0150663Y0092749D01*
X0150707Y0092707D01*
X0150749Y0092663D01*
X0150787Y0092617D01*
X0150823Y0092568D01*
X0150856Y0092517D01*
X0150885Y0092465D01*
X0150912Y0092410D01*
X0150935Y0092355D01*
X0150955Y0092298D01*
X0150971Y0092239D01*
X0150984Y0092180D01*
X0150993Y0092121D01*
X0150998Y0092060D01*
X0151000Y0092000D01*
X0148500Y0093500D02*
X0148000Y0093000D01*
X0147000Y0053000D02*
X0153000Y0053000D01*
X0153060Y0052998D01*
X0153121Y0052993D01*
X0153180Y0052984D01*
X0153239Y0052971D01*
X0153298Y0052955D01*
X0153355Y0052935D01*
X0153410Y0052912D01*
X0153465Y0052885D01*
X0153517Y0052856D01*
X0153568Y0052823D01*
X0153617Y0052787D01*
X0153663Y0052749D01*
X0153707Y0052707D01*
X0153749Y0052663D01*
X0153787Y0052617D01*
X0153823Y0052568D01*
X0153856Y0052517D01*
X0153885Y0052465D01*
X0153912Y0052410D01*
X0153935Y0052355D01*
X0153955Y0052298D01*
X0153971Y0052239D01*
X0153984Y0052180D01*
X0153993Y0052121D01*
X0153998Y0052060D01*
X0154000Y0052000D01*
X0154000Y0050500D01*
X0153500Y0050000D01*
X0153500Y0036000D01*
X0154000Y0035500D01*
X0154000Y0034000D01*
X0153998Y0033940D01*
X0153993Y0033879D01*
X0153984Y0033820D01*
X0153971Y0033761D01*
X0153955Y0033702D01*
X0153935Y0033645D01*
X0153912Y0033590D01*
X0153885Y0033535D01*
X0153856Y0033483D01*
X0153823Y0033432D01*
X0153787Y0033383D01*
X0153749Y0033337D01*
X0153707Y0033293D01*
X0153663Y0033251D01*
X0153617Y0033213D01*
X0153568Y0033177D01*
X0153517Y0033144D01*
X0153465Y0033115D01*
X0153410Y0033088D01*
X0153355Y0033065D01*
X0153298Y0033045D01*
X0153239Y0033029D01*
X0153180Y0033016D01*
X0153121Y0033007D01*
X0153060Y0033002D01*
X0153000Y0033000D01*
X0147000Y0033000D01*
X0146940Y0033002D01*
X0146879Y0033007D01*
X0146820Y0033016D01*
X0146761Y0033029D01*
X0146702Y0033045D01*
X0146645Y0033065D01*
X0146590Y0033088D01*
X0146535Y0033115D01*
X0146483Y0033144D01*
X0146432Y0033177D01*
X0146383Y0033213D01*
X0146337Y0033251D01*
X0146293Y0033293D01*
X0146251Y0033337D01*
X0146213Y0033383D01*
X0146177Y0033432D01*
X0146144Y0033483D01*
X0146115Y0033535D01*
X0146088Y0033590D01*
X0146065Y0033645D01*
X0146045Y0033702D01*
X0146029Y0033761D01*
X0146016Y0033820D01*
X0146007Y0033879D01*
X0146002Y0033940D01*
X0146000Y0034000D01*
X0146000Y0035500D01*
X0146500Y0036000D01*
X0146500Y0050000D01*
X0146000Y0050500D01*
X0146000Y0052000D01*
X0146002Y0052060D01*
X0146007Y0052121D01*
X0146016Y0052180D01*
X0146029Y0052239D01*
X0146045Y0052298D01*
X0146065Y0052355D01*
X0146088Y0052410D01*
X0146115Y0052465D01*
X0146144Y0052517D01*
X0146177Y0052568D01*
X0146213Y0052617D01*
X0146251Y0052663D01*
X0146293Y0052707D01*
X0146337Y0052749D01*
X0146383Y0052787D01*
X0146432Y0052823D01*
X0146483Y0052856D01*
X0146535Y0052885D01*
X0146590Y0052912D01*
X0146645Y0052935D01*
X0146702Y0052955D01*
X0146761Y0052971D01*
X0146820Y0052984D01*
X0146879Y0052993D01*
X0146940Y0052998D01*
X0147000Y0053000D01*
D11*
X0116200Y0094000D02*
X0116200Y0100000D01*
X0113700Y0100000D02*
X0113700Y0094000D01*
X0026200Y0062000D02*
X0026200Y0056000D01*
X0023700Y0056000D02*
X0023700Y0062000D01*
D12*
X0150000Y0053750D03*
X0150000Y0032250D03*
D13*
X0116984Y0022331D02*
X0101984Y0022331D01*
X0101984Y0043472D01*
X0116984Y0043472D01*
X0116984Y0022331D01*
D14*
X0046236Y0082709D02*
X0025764Y0082709D01*
X0025764Y0119717D01*
X0046236Y0119717D01*
X0046236Y0093339D01*
X0046236Y0093338D02*
X0046328Y0093336D01*
X0046420Y0093330D01*
X0046511Y0093320D01*
X0046602Y0093307D01*
X0046692Y0093289D01*
X0046782Y0093268D01*
X0046870Y0093243D01*
X0046957Y0093214D01*
X0047043Y0093182D01*
X0047128Y0093146D01*
X0047211Y0093106D01*
X0047292Y0093063D01*
X0047371Y0093017D01*
X0047448Y0092967D01*
X0047523Y0092914D01*
X0047596Y0092857D01*
X0047666Y0092798D01*
X0047734Y0092736D01*
X0047799Y0092671D01*
X0047861Y0092603D01*
X0047920Y0092533D01*
X0047977Y0092460D01*
X0048030Y0092385D01*
X0048080Y0092308D01*
X0048126Y0092229D01*
X0048169Y0092148D01*
X0048209Y0092065D01*
X0048245Y0091980D01*
X0048277Y0091894D01*
X0048306Y0091807D01*
X0048331Y0091719D01*
X0048352Y0091629D01*
X0048370Y0091539D01*
X0048383Y0091448D01*
X0048393Y0091357D01*
X0048399Y0091265D01*
X0048401Y0091173D01*
X0048399Y0091081D01*
X0048393Y0090989D01*
X0048383Y0090898D01*
X0048370Y0090807D01*
X0048352Y0090717D01*
X0048331Y0090627D01*
X0048306Y0090539D01*
X0048277Y0090452D01*
X0048245Y0090366D01*
X0048209Y0090281D01*
X0048169Y0090198D01*
X0048126Y0090117D01*
X0048080Y0090038D01*
X0048030Y0089961D01*
X0047977Y0089886D01*
X0047920Y0089813D01*
X0047861Y0089743D01*
X0047799Y0089675D01*
X0047734Y0089610D01*
X0047666Y0089548D01*
X0047596Y0089489D01*
X0047523Y0089432D01*
X0047448Y0089379D01*
X0047371Y0089329D01*
X0047292Y0089283D01*
X0047211Y0089240D01*
X0047128Y0089200D01*
X0047043Y0089164D01*
X0046957Y0089132D01*
X0046870Y0089103D01*
X0046782Y0089078D01*
X0046692Y0089057D01*
X0046602Y0089039D01*
X0046511Y0089026D01*
X0046420Y0089016D01*
X0046328Y0089010D01*
X0046236Y0089008D01*
X0046236Y0082709D01*
X0046630Y0107118D02*
X0049386Y0107118D01*
X0048993Y0114598D02*
X0049081Y0114731D01*
X0049172Y0114862D01*
X0049266Y0114991D01*
X0049364Y0115118D01*
X0049464Y0115242D01*
X0049568Y0115363D01*
X0049674Y0115482D01*
X0049784Y0115599D01*
X0049896Y0115713D01*
X0050011Y0115824D01*
X0050128Y0115932D01*
X0050248Y0116037D01*
X0050371Y0116139D01*
X0050496Y0116238D01*
X0050624Y0116334D01*
X0050754Y0116427D01*
X0050886Y0116517D01*
X0051020Y0116604D01*
X0051156Y0116687D01*
X0051295Y0116767D01*
X0051435Y0116844D01*
X0051577Y0116917D01*
X0051720Y0116986D01*
X0051866Y0117052D01*
X0052013Y0117115D01*
X0052161Y0117174D01*
X0052311Y0117229D01*
X0052462Y0117281D01*
X0052615Y0117329D01*
X0052768Y0117373D01*
X0052923Y0117413D01*
X0053078Y0117450D01*
X0053234Y0117483D01*
X0053391Y0117512D01*
X0053549Y0117537D01*
X0053707Y0117558D01*
X0053866Y0117576D01*
X0054025Y0117589D01*
X0054185Y0117599D01*
X0054344Y0117605D01*
X0054504Y0117607D01*
X0054664Y0117605D01*
X0054823Y0117599D01*
X0054983Y0117589D01*
X0055142Y0117576D01*
X0055301Y0117558D01*
X0055459Y0117537D01*
X0055617Y0117512D01*
X0055774Y0117483D01*
X0055930Y0117450D01*
X0056085Y0117413D01*
X0056240Y0117373D01*
X0056393Y0117329D01*
X0056546Y0117281D01*
X0056697Y0117229D01*
X0056847Y0117174D01*
X0056995Y0117115D01*
X0057142Y0117052D01*
X0057288Y0116986D01*
X0057431Y0116917D01*
X0057573Y0116844D01*
X0057713Y0116767D01*
X0057852Y0116687D01*
X0057988Y0116604D01*
X0058122Y0116517D01*
X0058254Y0116427D01*
X0058384Y0116334D01*
X0058512Y0116238D01*
X0058637Y0116139D01*
X0058760Y0116037D01*
X0058880Y0115932D01*
X0058997Y0115824D01*
X0059112Y0115713D01*
X0059224Y0115599D01*
X0059334Y0115482D01*
X0059440Y0115363D01*
X0059544Y0115242D01*
X0059644Y0115118D01*
X0059742Y0114991D01*
X0059836Y0114862D01*
X0059927Y0114731D01*
X0060015Y0114598D01*
X0060016Y0114598D02*
X0060016Y0107512D01*
X0060015Y0107512D02*
X0059927Y0107379D01*
X0059836Y0107248D01*
X0059742Y0107119D01*
X0059644Y0106992D01*
X0059544Y0106868D01*
X0059440Y0106747D01*
X0059334Y0106628D01*
X0059224Y0106511D01*
X0059112Y0106397D01*
X0058997Y0106286D01*
X0058880Y0106178D01*
X0058760Y0106073D01*
X0058637Y0105971D01*
X0058512Y0105872D01*
X0058384Y0105776D01*
X0058254Y0105683D01*
X0058122Y0105593D01*
X0057988Y0105506D01*
X0057852Y0105423D01*
X0057713Y0105343D01*
X0057573Y0105266D01*
X0057431Y0105193D01*
X0057288Y0105124D01*
X0057142Y0105058D01*
X0056995Y0104995D01*
X0056847Y0104936D01*
X0056697Y0104881D01*
X0056546Y0104829D01*
X0056393Y0104781D01*
X0056240Y0104737D01*
X0056085Y0104697D01*
X0055930Y0104660D01*
X0055774Y0104627D01*
X0055617Y0104598D01*
X0055459Y0104573D01*
X0055301Y0104552D01*
X0055142Y0104534D01*
X0054983Y0104521D01*
X0054823Y0104511D01*
X0054664Y0104505D01*
X0054504Y0104503D01*
X0054344Y0104505D01*
X0054185Y0104511D01*
X0054025Y0104521D01*
X0053866Y0104534D01*
X0053707Y0104552D01*
X0053549Y0104573D01*
X0053391Y0104598D01*
X0053234Y0104627D01*
X0053078Y0104660D01*
X0052923Y0104697D01*
X0052768Y0104737D01*
X0052615Y0104781D01*
X0052462Y0104829D01*
X0052311Y0104881D01*
X0052161Y0104936D01*
X0052013Y0104995D01*
X0051866Y0105058D01*
X0051720Y0105124D01*
X0051577Y0105193D01*
X0051435Y0105266D01*
X0051295Y0105343D01*
X0051156Y0105423D01*
X0051020Y0105506D01*
X0050886Y0105593D01*
X0050754Y0105683D01*
X0050624Y0105776D01*
X0050496Y0105872D01*
X0050371Y0105971D01*
X0050248Y0106073D01*
X0050128Y0106178D01*
X0050011Y0106286D01*
X0049896Y0106397D01*
X0049784Y0106511D01*
X0049674Y0106628D01*
X0049568Y0106747D01*
X0049464Y0106868D01*
X0049364Y0106992D01*
X0049266Y0107119D01*
X0049172Y0107248D01*
X0049081Y0107379D01*
X0048993Y0107512D01*
X0049386Y0114992D02*
X0046630Y0114992D01*
X0025370Y0114992D02*
X0022614Y0114992D01*
X0023007Y0107512D02*
X0022919Y0107379D01*
X0022828Y0107248D01*
X0022734Y0107119D01*
X0022636Y0106992D01*
X0022536Y0106868D01*
X0022432Y0106747D01*
X0022326Y0106628D01*
X0022216Y0106511D01*
X0022104Y0106397D01*
X0021989Y0106286D01*
X0021872Y0106178D01*
X0021752Y0106073D01*
X0021629Y0105971D01*
X0021504Y0105872D01*
X0021376Y0105776D01*
X0021246Y0105683D01*
X0021114Y0105593D01*
X0020980Y0105506D01*
X0020844Y0105423D01*
X0020705Y0105343D01*
X0020565Y0105266D01*
X0020423Y0105193D01*
X0020280Y0105124D01*
X0020134Y0105058D01*
X0019987Y0104995D01*
X0019839Y0104936D01*
X0019689Y0104881D01*
X0019538Y0104829D01*
X0019385Y0104781D01*
X0019232Y0104737D01*
X0019077Y0104697D01*
X0018922Y0104660D01*
X0018766Y0104627D01*
X0018609Y0104598D01*
X0018451Y0104573D01*
X0018293Y0104552D01*
X0018134Y0104534D01*
X0017975Y0104521D01*
X0017815Y0104511D01*
X0017656Y0104505D01*
X0017496Y0104503D01*
X0017336Y0104505D01*
X0017177Y0104511D01*
X0017017Y0104521D01*
X0016858Y0104534D01*
X0016699Y0104552D01*
X0016541Y0104573D01*
X0016383Y0104598D01*
X0016226Y0104627D01*
X0016070Y0104660D01*
X0015915Y0104697D01*
X0015760Y0104737D01*
X0015607Y0104781D01*
X0015454Y0104829D01*
X0015303Y0104881D01*
X0015153Y0104936D01*
X0015005Y0104995D01*
X0014858Y0105058D01*
X0014712Y0105124D01*
X0014569Y0105193D01*
X0014427Y0105266D01*
X0014287Y0105343D01*
X0014148Y0105423D01*
X0014012Y0105506D01*
X0013878Y0105593D01*
X0013746Y0105683D01*
X0013616Y0105776D01*
X0013488Y0105872D01*
X0013363Y0105971D01*
X0013240Y0106073D01*
X0013120Y0106178D01*
X0013003Y0106286D01*
X0012888Y0106397D01*
X0012776Y0106511D01*
X0012666Y0106628D01*
X0012560Y0106747D01*
X0012456Y0106868D01*
X0012356Y0106992D01*
X0012258Y0107119D01*
X0012164Y0107248D01*
X0012073Y0107379D01*
X0011985Y0107512D01*
X0011984Y0107512D02*
X0011984Y0114598D01*
X0011985Y0114598D02*
X0012073Y0114731D01*
X0012164Y0114862D01*
X0012258Y0114991D01*
X0012356Y0115118D01*
X0012456Y0115242D01*
X0012560Y0115363D01*
X0012666Y0115482D01*
X0012776Y0115599D01*
X0012888Y0115713D01*
X0013003Y0115824D01*
X0013120Y0115932D01*
X0013240Y0116037D01*
X0013363Y0116139D01*
X0013488Y0116238D01*
X0013616Y0116334D01*
X0013746Y0116427D01*
X0013878Y0116517D01*
X0014012Y0116604D01*
X0014148Y0116687D01*
X0014287Y0116767D01*
X0014427Y0116844D01*
X0014569Y0116917D01*
X0014712Y0116986D01*
X0014858Y0117052D01*
X0015005Y0117115D01*
X0015153Y0117174D01*
X0015303Y0117229D01*
X0015454Y0117281D01*
X0015607Y0117329D01*
X0015760Y0117373D01*
X0015915Y0117413D01*
X0016070Y0117450D01*
X0016226Y0117483D01*
X0016383Y0117512D01*
X0016541Y0117537D01*
X0016699Y0117558D01*
X0016858Y0117576D01*
X0017017Y0117589D01*
X0017177Y0117599D01*
X0017336Y0117605D01*
X0017496Y0117607D01*
X0017656Y0117605D01*
X0017815Y0117599D01*
X0017975Y0117589D01*
X0018134Y0117576D01*
X0018293Y0117558D01*
X0018451Y0117537D01*
X0018609Y0117512D01*
X0018766Y0117483D01*
X0018922Y0117450D01*
X0019077Y0117413D01*
X0019232Y0117373D01*
X0019385Y0117329D01*
X0019538Y0117281D01*
X0019689Y0117229D01*
X0019839Y0117174D01*
X0019987Y0117115D01*
X0020134Y0117052D01*
X0020280Y0116986D01*
X0020423Y0116917D01*
X0020565Y0116844D01*
X0020705Y0116767D01*
X0020844Y0116687D01*
X0020980Y0116604D01*
X0021114Y0116517D01*
X0021246Y0116427D01*
X0021376Y0116334D01*
X0021504Y0116238D01*
X0021629Y0116139D01*
X0021752Y0116037D01*
X0021872Y0115932D01*
X0021989Y0115824D01*
X0022104Y0115713D01*
X0022216Y0115599D01*
X0022326Y0115482D01*
X0022432Y0115363D01*
X0022536Y0115242D01*
X0022636Y0115118D01*
X0022734Y0114991D01*
X0022828Y0114862D01*
X0022919Y0114731D01*
X0023007Y0114598D01*
X0022614Y0107118D02*
X0025370Y0107118D01*
M02*
