G75*
%MOIN*%
%OFA0B0*%
%FSLAX25Y25*%
%IPPOS*%
%LPD*%
%AMOC8*
5,1,8,0,0,1.08239X$1,22.5*
%
%ADD10C,0.00000*%
%ADD11OC8,0.05200*%
%ADD12R,0.04331X0.02362*%
%ADD13R,0.08268X0.08268*%
%ADD14C,0.00600*%
%ADD15C,0.02000*%
D10*
X0001609Y0001300D02*
X0153310Y0001300D01*
X0153310Y0156261D01*
X0001609Y0156261D01*
X0001200Y0086284D02*
X0001202Y0086437D01*
X0001208Y0086591D01*
X0001218Y0086744D01*
X0001232Y0086896D01*
X0001250Y0087049D01*
X0001272Y0087200D01*
X0001297Y0087351D01*
X0001327Y0087502D01*
X0001361Y0087652D01*
X0001398Y0087800D01*
X0001439Y0087948D01*
X0001484Y0088094D01*
X0001533Y0088240D01*
X0001586Y0088384D01*
X0001642Y0088526D01*
X0001702Y0088667D01*
X0001766Y0088807D01*
X0001833Y0088945D01*
X0001904Y0089081D01*
X0001979Y0089215D01*
X0002056Y0089347D01*
X0002138Y0089477D01*
X0002222Y0089605D01*
X0002310Y0089731D01*
X0002401Y0089854D01*
X0002495Y0089975D01*
X0002593Y0090093D01*
X0002693Y0090209D01*
X0002797Y0090322D01*
X0002903Y0090433D01*
X0003012Y0090541D01*
X0003124Y0090646D01*
X0003238Y0090747D01*
X0003356Y0090846D01*
X0003475Y0090942D01*
X0003597Y0091035D01*
X0003722Y0091124D01*
X0003849Y0091211D01*
X0003978Y0091293D01*
X0004109Y0091373D01*
X0004242Y0091449D01*
X0004377Y0091522D01*
X0004514Y0091591D01*
X0004653Y0091656D01*
X0004793Y0091718D01*
X0004935Y0091776D01*
X0005078Y0091831D01*
X0005223Y0091882D01*
X0005369Y0091929D01*
X0005516Y0091972D01*
X0005664Y0092011D01*
X0005813Y0092047D01*
X0005963Y0092078D01*
X0006114Y0092106D01*
X0006265Y0092130D01*
X0006418Y0092150D01*
X0006570Y0092166D01*
X0006723Y0092178D01*
X0006876Y0092186D01*
X0007029Y0092190D01*
X0007183Y0092190D01*
X0007336Y0092186D01*
X0007489Y0092178D01*
X0007642Y0092166D01*
X0007794Y0092150D01*
X0007947Y0092130D01*
X0008098Y0092106D01*
X0008249Y0092078D01*
X0008399Y0092047D01*
X0008548Y0092011D01*
X0008696Y0091972D01*
X0008843Y0091929D01*
X0008989Y0091882D01*
X0009134Y0091831D01*
X0009277Y0091776D01*
X0009419Y0091718D01*
X0009559Y0091656D01*
X0009698Y0091591D01*
X0009835Y0091522D01*
X0009970Y0091449D01*
X0010103Y0091373D01*
X0010234Y0091293D01*
X0010363Y0091211D01*
X0010490Y0091124D01*
X0010615Y0091035D01*
X0010737Y0090942D01*
X0010856Y0090846D01*
X0010974Y0090747D01*
X0011088Y0090646D01*
X0011200Y0090541D01*
X0011309Y0090433D01*
X0011415Y0090322D01*
X0011519Y0090209D01*
X0011619Y0090093D01*
X0011717Y0089975D01*
X0011811Y0089854D01*
X0011902Y0089731D01*
X0011990Y0089605D01*
X0012074Y0089477D01*
X0012156Y0089347D01*
X0012233Y0089215D01*
X0012308Y0089081D01*
X0012379Y0088945D01*
X0012446Y0088807D01*
X0012510Y0088667D01*
X0012570Y0088526D01*
X0012626Y0088384D01*
X0012679Y0088240D01*
X0012728Y0088094D01*
X0012773Y0087948D01*
X0012814Y0087800D01*
X0012851Y0087652D01*
X0012885Y0087502D01*
X0012915Y0087351D01*
X0012940Y0087200D01*
X0012962Y0087049D01*
X0012980Y0086896D01*
X0012994Y0086744D01*
X0013004Y0086591D01*
X0013010Y0086437D01*
X0013012Y0086284D01*
X0013010Y0086131D01*
X0013004Y0085977D01*
X0012994Y0085824D01*
X0012980Y0085672D01*
X0012962Y0085519D01*
X0012940Y0085368D01*
X0012915Y0085217D01*
X0012885Y0085066D01*
X0012851Y0084916D01*
X0012814Y0084768D01*
X0012773Y0084620D01*
X0012728Y0084474D01*
X0012679Y0084328D01*
X0012626Y0084184D01*
X0012570Y0084042D01*
X0012510Y0083901D01*
X0012446Y0083761D01*
X0012379Y0083623D01*
X0012308Y0083487D01*
X0012233Y0083353D01*
X0012156Y0083221D01*
X0012074Y0083091D01*
X0011990Y0082963D01*
X0011902Y0082837D01*
X0011811Y0082714D01*
X0011717Y0082593D01*
X0011619Y0082475D01*
X0011519Y0082359D01*
X0011415Y0082246D01*
X0011309Y0082135D01*
X0011200Y0082027D01*
X0011088Y0081922D01*
X0010974Y0081821D01*
X0010856Y0081722D01*
X0010737Y0081626D01*
X0010615Y0081533D01*
X0010490Y0081444D01*
X0010363Y0081357D01*
X0010234Y0081275D01*
X0010103Y0081195D01*
X0009970Y0081119D01*
X0009835Y0081046D01*
X0009698Y0080977D01*
X0009559Y0080912D01*
X0009419Y0080850D01*
X0009277Y0080792D01*
X0009134Y0080737D01*
X0008989Y0080686D01*
X0008843Y0080639D01*
X0008696Y0080596D01*
X0008548Y0080557D01*
X0008399Y0080521D01*
X0008249Y0080490D01*
X0008098Y0080462D01*
X0007947Y0080438D01*
X0007794Y0080418D01*
X0007642Y0080402D01*
X0007489Y0080390D01*
X0007336Y0080382D01*
X0007183Y0080378D01*
X0007029Y0080378D01*
X0006876Y0080382D01*
X0006723Y0080390D01*
X0006570Y0080402D01*
X0006418Y0080418D01*
X0006265Y0080438D01*
X0006114Y0080462D01*
X0005963Y0080490D01*
X0005813Y0080521D01*
X0005664Y0080557D01*
X0005516Y0080596D01*
X0005369Y0080639D01*
X0005223Y0080686D01*
X0005078Y0080737D01*
X0004935Y0080792D01*
X0004793Y0080850D01*
X0004653Y0080912D01*
X0004514Y0080977D01*
X0004377Y0081046D01*
X0004242Y0081119D01*
X0004109Y0081195D01*
X0003978Y0081275D01*
X0003849Y0081357D01*
X0003722Y0081444D01*
X0003597Y0081533D01*
X0003475Y0081626D01*
X0003356Y0081722D01*
X0003238Y0081821D01*
X0003124Y0081922D01*
X0003012Y0082027D01*
X0002903Y0082135D01*
X0002797Y0082246D01*
X0002693Y0082359D01*
X0002593Y0082475D01*
X0002495Y0082593D01*
X0002401Y0082714D01*
X0002310Y0082837D01*
X0002222Y0082963D01*
X0002138Y0083091D01*
X0002056Y0083221D01*
X0001979Y0083353D01*
X0001904Y0083487D01*
X0001833Y0083623D01*
X0001766Y0083761D01*
X0001702Y0083901D01*
X0001642Y0084042D01*
X0001586Y0084184D01*
X0001533Y0084328D01*
X0001484Y0084474D01*
X0001439Y0084620D01*
X0001398Y0084768D01*
X0001361Y0084916D01*
X0001327Y0085066D01*
X0001297Y0085217D01*
X0001272Y0085368D01*
X0001250Y0085519D01*
X0001232Y0085672D01*
X0001218Y0085824D01*
X0001208Y0085977D01*
X0001202Y0086131D01*
X0001200Y0086284D01*
X0038207Y0086284D02*
X0038209Y0086437D01*
X0038215Y0086591D01*
X0038225Y0086744D01*
X0038239Y0086896D01*
X0038257Y0087049D01*
X0038279Y0087200D01*
X0038304Y0087351D01*
X0038334Y0087502D01*
X0038368Y0087652D01*
X0038405Y0087800D01*
X0038446Y0087948D01*
X0038491Y0088094D01*
X0038540Y0088240D01*
X0038593Y0088384D01*
X0038649Y0088526D01*
X0038709Y0088667D01*
X0038773Y0088807D01*
X0038840Y0088945D01*
X0038911Y0089081D01*
X0038986Y0089215D01*
X0039063Y0089347D01*
X0039145Y0089477D01*
X0039229Y0089605D01*
X0039317Y0089731D01*
X0039408Y0089854D01*
X0039502Y0089975D01*
X0039600Y0090093D01*
X0039700Y0090209D01*
X0039804Y0090322D01*
X0039910Y0090433D01*
X0040019Y0090541D01*
X0040131Y0090646D01*
X0040245Y0090747D01*
X0040363Y0090846D01*
X0040482Y0090942D01*
X0040604Y0091035D01*
X0040729Y0091124D01*
X0040856Y0091211D01*
X0040985Y0091293D01*
X0041116Y0091373D01*
X0041249Y0091449D01*
X0041384Y0091522D01*
X0041521Y0091591D01*
X0041660Y0091656D01*
X0041800Y0091718D01*
X0041942Y0091776D01*
X0042085Y0091831D01*
X0042230Y0091882D01*
X0042376Y0091929D01*
X0042523Y0091972D01*
X0042671Y0092011D01*
X0042820Y0092047D01*
X0042970Y0092078D01*
X0043121Y0092106D01*
X0043272Y0092130D01*
X0043425Y0092150D01*
X0043577Y0092166D01*
X0043730Y0092178D01*
X0043883Y0092186D01*
X0044036Y0092190D01*
X0044190Y0092190D01*
X0044343Y0092186D01*
X0044496Y0092178D01*
X0044649Y0092166D01*
X0044801Y0092150D01*
X0044954Y0092130D01*
X0045105Y0092106D01*
X0045256Y0092078D01*
X0045406Y0092047D01*
X0045555Y0092011D01*
X0045703Y0091972D01*
X0045850Y0091929D01*
X0045996Y0091882D01*
X0046141Y0091831D01*
X0046284Y0091776D01*
X0046426Y0091718D01*
X0046566Y0091656D01*
X0046705Y0091591D01*
X0046842Y0091522D01*
X0046977Y0091449D01*
X0047110Y0091373D01*
X0047241Y0091293D01*
X0047370Y0091211D01*
X0047497Y0091124D01*
X0047622Y0091035D01*
X0047744Y0090942D01*
X0047863Y0090846D01*
X0047981Y0090747D01*
X0048095Y0090646D01*
X0048207Y0090541D01*
X0048316Y0090433D01*
X0048422Y0090322D01*
X0048526Y0090209D01*
X0048626Y0090093D01*
X0048724Y0089975D01*
X0048818Y0089854D01*
X0048909Y0089731D01*
X0048997Y0089605D01*
X0049081Y0089477D01*
X0049163Y0089347D01*
X0049240Y0089215D01*
X0049315Y0089081D01*
X0049386Y0088945D01*
X0049453Y0088807D01*
X0049517Y0088667D01*
X0049577Y0088526D01*
X0049633Y0088384D01*
X0049686Y0088240D01*
X0049735Y0088094D01*
X0049780Y0087948D01*
X0049821Y0087800D01*
X0049858Y0087652D01*
X0049892Y0087502D01*
X0049922Y0087351D01*
X0049947Y0087200D01*
X0049969Y0087049D01*
X0049987Y0086896D01*
X0050001Y0086744D01*
X0050011Y0086591D01*
X0050017Y0086437D01*
X0050019Y0086284D01*
X0050017Y0086131D01*
X0050011Y0085977D01*
X0050001Y0085824D01*
X0049987Y0085672D01*
X0049969Y0085519D01*
X0049947Y0085368D01*
X0049922Y0085217D01*
X0049892Y0085066D01*
X0049858Y0084916D01*
X0049821Y0084768D01*
X0049780Y0084620D01*
X0049735Y0084474D01*
X0049686Y0084328D01*
X0049633Y0084184D01*
X0049577Y0084042D01*
X0049517Y0083901D01*
X0049453Y0083761D01*
X0049386Y0083623D01*
X0049315Y0083487D01*
X0049240Y0083353D01*
X0049163Y0083221D01*
X0049081Y0083091D01*
X0048997Y0082963D01*
X0048909Y0082837D01*
X0048818Y0082714D01*
X0048724Y0082593D01*
X0048626Y0082475D01*
X0048526Y0082359D01*
X0048422Y0082246D01*
X0048316Y0082135D01*
X0048207Y0082027D01*
X0048095Y0081922D01*
X0047981Y0081821D01*
X0047863Y0081722D01*
X0047744Y0081626D01*
X0047622Y0081533D01*
X0047497Y0081444D01*
X0047370Y0081357D01*
X0047241Y0081275D01*
X0047110Y0081195D01*
X0046977Y0081119D01*
X0046842Y0081046D01*
X0046705Y0080977D01*
X0046566Y0080912D01*
X0046426Y0080850D01*
X0046284Y0080792D01*
X0046141Y0080737D01*
X0045996Y0080686D01*
X0045850Y0080639D01*
X0045703Y0080596D01*
X0045555Y0080557D01*
X0045406Y0080521D01*
X0045256Y0080490D01*
X0045105Y0080462D01*
X0044954Y0080438D01*
X0044801Y0080418D01*
X0044649Y0080402D01*
X0044496Y0080390D01*
X0044343Y0080382D01*
X0044190Y0080378D01*
X0044036Y0080378D01*
X0043883Y0080382D01*
X0043730Y0080390D01*
X0043577Y0080402D01*
X0043425Y0080418D01*
X0043272Y0080438D01*
X0043121Y0080462D01*
X0042970Y0080490D01*
X0042820Y0080521D01*
X0042671Y0080557D01*
X0042523Y0080596D01*
X0042376Y0080639D01*
X0042230Y0080686D01*
X0042085Y0080737D01*
X0041942Y0080792D01*
X0041800Y0080850D01*
X0041660Y0080912D01*
X0041521Y0080977D01*
X0041384Y0081046D01*
X0041249Y0081119D01*
X0041116Y0081195D01*
X0040985Y0081275D01*
X0040856Y0081357D01*
X0040729Y0081444D01*
X0040604Y0081533D01*
X0040482Y0081626D01*
X0040363Y0081722D01*
X0040245Y0081821D01*
X0040131Y0081922D01*
X0040019Y0082027D01*
X0039910Y0082135D01*
X0039804Y0082246D01*
X0039700Y0082359D01*
X0039600Y0082475D01*
X0039502Y0082593D01*
X0039408Y0082714D01*
X0039317Y0082837D01*
X0039229Y0082963D01*
X0039145Y0083091D01*
X0039063Y0083221D01*
X0038986Y0083353D01*
X0038911Y0083487D01*
X0038840Y0083623D01*
X0038773Y0083761D01*
X0038709Y0083901D01*
X0038649Y0084042D01*
X0038593Y0084184D01*
X0038540Y0084328D01*
X0038491Y0084474D01*
X0038446Y0084620D01*
X0038405Y0084768D01*
X0038368Y0084916D01*
X0038334Y0085066D01*
X0038304Y0085217D01*
X0038279Y0085368D01*
X0038257Y0085519D01*
X0038239Y0085672D01*
X0038225Y0085824D01*
X0038215Y0085977D01*
X0038209Y0086131D01*
X0038207Y0086284D01*
D11*
X0068609Y0119300D03*
X0078609Y0119300D03*
X0087609Y0108300D03*
X0117609Y0108300D03*
X0116609Y0075300D03*
X0116609Y0065300D03*
X0078609Y0065300D03*
X0078609Y0075300D03*
D12*
X0078468Y0089300D03*
X0078468Y0096780D03*
X0069609Y0096780D03*
X0069609Y0093040D03*
X0069609Y0089300D03*
D13*
X0025609Y0084473D03*
X0025609Y0106127D03*
D14*
X0060263Y0106127D01*
X0064912Y0111801D02*
X0073522Y0111801D01*
X0074120Y0111203D02*
X0065511Y0111203D01*
X0066109Y0110604D02*
X0074719Y0110604D01*
X0074923Y0110400D02*
X0077186Y0110400D01*
X0078286Y0109300D01*
X0073183Y0104197D01*
X0073028Y0104261D01*
X0072452Y0104261D01*
X0072038Y0104675D01*
X0064398Y0112315D01*
X0061715Y0113427D01*
X0058811Y0113427D01*
X0057121Y0112727D01*
X0035541Y0112727D01*
X0035084Y0113829D01*
X0033312Y0115602D01*
X0030996Y0116561D01*
X0020222Y0116561D01*
X0017907Y0115602D01*
X0016135Y0113829D01*
X0015176Y0111514D01*
X0015176Y0100740D01*
X0016135Y0098424D01*
X0017907Y0096652D01*
X0020222Y0095693D01*
X0030996Y0095693D01*
X0033312Y0096652D01*
X0035084Y0098424D01*
X0035541Y0099527D01*
X0056539Y0099527D01*
X0059250Y0096816D01*
X0059250Y0090868D01*
X0060254Y0088442D01*
X0061144Y0087552D01*
X0061144Y0086866D01*
X0062103Y0084550D01*
X0063875Y0082778D01*
X0066191Y0081819D01*
X0071309Y0081819D01*
X0071309Y0080586D01*
X0069709Y0078986D01*
X0069709Y0071613D01*
X0074709Y0066613D01*
X0074709Y0065600D01*
X0078309Y0065600D01*
X0078309Y0065000D01*
X0074709Y0065000D01*
X0074709Y0063685D01*
X0076994Y0061400D01*
X0078309Y0061400D01*
X0078309Y0065000D01*
X0078909Y0065000D01*
X0078909Y0061400D01*
X0080225Y0061400D01*
X0082509Y0063685D01*
X0082509Y0065000D01*
X0078909Y0065000D01*
X0078909Y0065600D01*
X0082509Y0065600D01*
X0082509Y0066614D01*
X0087509Y0071613D01*
X0087509Y0078986D01*
X0085909Y0080586D01*
X0085909Y0084486D01*
X0085974Y0084550D01*
X0086933Y0086866D01*
X0086933Y0091734D01*
X0086392Y0093040D01*
X0086933Y0094346D01*
X0086933Y0097300D01*
X0089033Y0099400D01*
X0091296Y0099400D01*
X0096509Y0104613D01*
X0096509Y0111986D01*
X0091296Y0117200D01*
X0091033Y0117200D01*
X0090745Y0117489D01*
X0087509Y0120724D01*
X0087509Y0122986D01*
X0082296Y0128200D01*
X0074923Y0128200D01*
X0069923Y0123200D01*
X0068909Y0123200D01*
X0068909Y0119600D01*
X0068309Y0119600D01*
X0068309Y0119000D01*
X0064709Y0119000D01*
X0064709Y0117685D01*
X0066994Y0115400D01*
X0068309Y0115400D01*
X0068309Y0119000D01*
X0068909Y0119000D01*
X0068909Y0115400D01*
X0069923Y0115400D01*
X0074923Y0110400D01*
X0072923Y0112400D02*
X0064194Y0112400D01*
X0062749Y0112998D02*
X0072325Y0112998D01*
X0071726Y0113597D02*
X0035180Y0113597D01*
X0035428Y0112998D02*
X0057777Y0112998D01*
X0064709Y0117786D02*
X0001853Y0117786D01*
X0001857Y0117188D02*
X0065206Y0117188D01*
X0065805Y0116589D02*
X0001861Y0116589D01*
X0001865Y0115991D02*
X0018847Y0115991D01*
X0017698Y0115392D02*
X0001869Y0115392D01*
X0001872Y0114794D02*
X0017099Y0114794D01*
X0016501Y0114195D02*
X0001876Y0114195D01*
X0001880Y0113597D02*
X0016038Y0113597D01*
X0015791Y0112998D02*
X0001884Y0112998D01*
X0001888Y0112400D02*
X0015543Y0112400D01*
X0015295Y0111801D02*
X0001892Y0111801D01*
X0001896Y0111203D02*
X0015176Y0111203D01*
X0015176Y0110604D02*
X0001900Y0110604D01*
X0001904Y0110006D02*
X0015176Y0110006D01*
X0015176Y0109407D02*
X0001907Y0109407D01*
X0001911Y0108809D02*
X0015176Y0108809D01*
X0015176Y0108210D02*
X0001915Y0108210D01*
X0001919Y0107612D02*
X0015176Y0107612D01*
X0015176Y0107013D02*
X0001923Y0107013D01*
X0001927Y0106415D02*
X0015176Y0106415D01*
X0015176Y0105816D02*
X0001931Y0105816D01*
X0001935Y0105218D02*
X0015176Y0105218D01*
X0015176Y0104619D02*
X0001939Y0104619D01*
X0001942Y0104021D02*
X0015176Y0104021D01*
X0015176Y0103422D02*
X0001946Y0103422D01*
X0001950Y0102824D02*
X0015176Y0102824D01*
X0015176Y0102225D02*
X0001954Y0102225D01*
X0001958Y0101627D02*
X0015176Y0101627D01*
X0015176Y0101028D02*
X0001962Y0101028D01*
X0001966Y0100430D02*
X0015304Y0100430D01*
X0015552Y0099831D02*
X0001970Y0099831D01*
X0001974Y0099233D02*
X0015800Y0099233D01*
X0016048Y0098634D02*
X0001977Y0098634D01*
X0001981Y0098036D02*
X0003803Y0098036D01*
X0002394Y0097658D02*
X0001985Y0097422D01*
X0001644Y0149961D01*
X0147010Y0149961D01*
X0147010Y0007600D01*
X0002569Y0007600D01*
X0002130Y0075063D01*
X0002394Y0074911D01*
X0005499Y0074079D01*
X0008712Y0074079D01*
X0011817Y0074911D01*
X0014600Y0076517D01*
X0016872Y0078790D01*
X0018479Y0081573D01*
X0019311Y0084677D01*
X0019311Y0087891D01*
X0018479Y0090995D01*
X0016872Y0093779D01*
X0014600Y0096051D01*
X0011817Y0097658D01*
X0008712Y0098490D01*
X0005499Y0098490D01*
X0002394Y0097658D01*
X0002012Y0097437D02*
X0001985Y0097437D01*
X0010408Y0098036D02*
X0016523Y0098036D01*
X0017122Y0097437D02*
X0012199Y0097437D01*
X0013236Y0096839D02*
X0017720Y0096839D01*
X0018902Y0096240D02*
X0014273Y0096240D01*
X0015009Y0095641D02*
X0036209Y0095641D01*
X0036619Y0096051D02*
X0034347Y0093779D01*
X0032740Y0090995D01*
X0031908Y0087891D01*
X0031908Y0084677D01*
X0032740Y0081573D01*
X0034347Y0078790D01*
X0036619Y0076517D01*
X0039402Y0074911D01*
X0042506Y0074079D01*
X0045720Y0074079D01*
X0048825Y0074911D01*
X0051608Y0076517D01*
X0053880Y0078790D01*
X0055487Y0081573D01*
X0056319Y0084677D01*
X0056319Y0087891D01*
X0055487Y0090995D01*
X0053880Y0093779D01*
X0051608Y0096051D01*
X0048825Y0097658D01*
X0045720Y0098490D01*
X0042506Y0098490D01*
X0039402Y0097658D01*
X0036619Y0096051D01*
X0036946Y0096240D02*
X0032317Y0096240D01*
X0033498Y0096839D02*
X0037983Y0096839D01*
X0039020Y0097437D02*
X0034097Y0097437D01*
X0034695Y0098036D02*
X0040811Y0098036D01*
X0035419Y0099233D02*
X0056833Y0099233D01*
X0057432Y0098634D02*
X0035171Y0098634D01*
X0035611Y0095043D02*
X0015608Y0095043D01*
X0016206Y0094444D02*
X0035012Y0094444D01*
X0034414Y0093846D02*
X0016805Y0093846D01*
X0017179Y0093247D02*
X0034040Y0093247D01*
X0033694Y0092649D02*
X0017525Y0092649D01*
X0017870Y0092050D02*
X0033349Y0092050D01*
X0033003Y0091452D02*
X0018216Y0091452D01*
X0018517Y0090853D02*
X0032702Y0090853D01*
X0032541Y0090255D02*
X0018678Y0090255D01*
X0018838Y0089656D02*
X0020693Y0089656D01*
X0020677Y0089647D02*
X0020435Y0089405D01*
X0020264Y0089109D01*
X0020176Y0088778D01*
X0020176Y0084773D01*
X0025309Y0084773D01*
X0025309Y0084173D01*
X0020176Y0084173D01*
X0020176Y0080168D01*
X0020264Y0079838D01*
X0020435Y0079541D01*
X0020677Y0079299D01*
X0020974Y0079128D01*
X0021304Y0079039D01*
X0025309Y0079039D01*
X0025309Y0084173D01*
X0025909Y0084173D01*
X0025909Y0079039D01*
X0029914Y0079039D01*
X0030245Y0079128D01*
X0030542Y0079299D01*
X0030784Y0079541D01*
X0030955Y0079838D01*
X0031043Y0080168D01*
X0031043Y0084173D01*
X0025909Y0084173D01*
X0025909Y0084773D01*
X0025309Y0084773D01*
X0025309Y0089907D01*
X0021304Y0089907D01*
X0020974Y0089818D01*
X0020677Y0089647D01*
X0020251Y0089058D02*
X0018998Y0089058D01*
X0019159Y0088459D02*
X0020176Y0088459D01*
X0020176Y0087861D02*
X0019311Y0087861D01*
X0019311Y0087262D02*
X0020176Y0087262D01*
X0020176Y0086664D02*
X0019311Y0086664D01*
X0019311Y0086065D02*
X0020176Y0086065D01*
X0020176Y0085467D02*
X0019311Y0085467D01*
X0019311Y0084868D02*
X0020176Y0084868D01*
X0019202Y0084270D02*
X0025309Y0084270D01*
X0025309Y0084868D02*
X0025909Y0084868D01*
X0025909Y0084773D02*
X0025909Y0089907D01*
X0029914Y0089907D01*
X0030245Y0089818D01*
X0030542Y0089647D01*
X0030784Y0089405D01*
X0030955Y0089109D01*
X0031043Y0088778D01*
X0031043Y0084773D01*
X0025909Y0084773D01*
X0025909Y0084270D02*
X0032017Y0084270D01*
X0031908Y0084868D02*
X0031043Y0084868D01*
X0031043Y0085467D02*
X0031908Y0085467D01*
X0031908Y0086065D02*
X0031043Y0086065D01*
X0031043Y0086664D02*
X0031908Y0086664D01*
X0031908Y0087262D02*
X0031043Y0087262D01*
X0031043Y0087861D02*
X0031908Y0087861D01*
X0032060Y0088459D02*
X0031043Y0088459D01*
X0030968Y0089058D02*
X0032220Y0089058D01*
X0032381Y0089656D02*
X0030526Y0089656D01*
X0025909Y0089656D02*
X0025309Y0089656D01*
X0025309Y0089058D02*
X0025909Y0089058D01*
X0025909Y0088459D02*
X0025309Y0088459D01*
X0025309Y0087861D02*
X0025909Y0087861D01*
X0025909Y0087262D02*
X0025309Y0087262D01*
X0025309Y0086664D02*
X0025909Y0086664D01*
X0025909Y0086065D02*
X0025309Y0086065D01*
X0025309Y0085467D02*
X0025909Y0085467D01*
X0025909Y0083671D02*
X0025309Y0083671D01*
X0025309Y0083073D02*
X0025909Y0083073D01*
X0025909Y0082474D02*
X0025309Y0082474D01*
X0025309Y0081876D02*
X0025909Y0081876D01*
X0025909Y0081277D02*
X0025309Y0081277D01*
X0025309Y0080679D02*
X0025909Y0080679D01*
X0025909Y0080080D02*
X0025309Y0080080D01*
X0025309Y0079482D02*
X0025909Y0079482D01*
X0030724Y0079482D02*
X0033947Y0079482D01*
X0033602Y0080080D02*
X0031020Y0080080D01*
X0031043Y0080679D02*
X0033256Y0080679D01*
X0032910Y0081277D02*
X0031043Y0081277D01*
X0031043Y0081876D02*
X0032659Y0081876D01*
X0032498Y0082474D02*
X0031043Y0082474D01*
X0031043Y0083073D02*
X0032338Y0083073D01*
X0032177Y0083671D02*
X0031043Y0083671D01*
X0034293Y0078883D02*
X0016926Y0078883D01*
X0017272Y0079482D02*
X0020495Y0079482D01*
X0020199Y0080080D02*
X0017617Y0080080D01*
X0017963Y0080679D02*
X0020176Y0080679D01*
X0020176Y0081277D02*
X0018308Y0081277D01*
X0018560Y0081876D02*
X0020176Y0081876D01*
X0020176Y0082474D02*
X0018721Y0082474D01*
X0018881Y0083073D02*
X0020176Y0083073D01*
X0020176Y0083671D02*
X0019041Y0083671D01*
X0016367Y0078285D02*
X0034852Y0078285D01*
X0035450Y0077686D02*
X0015769Y0077686D01*
X0015170Y0077088D02*
X0036049Y0077088D01*
X0036668Y0076489D02*
X0014551Y0076489D01*
X0013514Y0075891D02*
X0037705Y0075891D01*
X0038741Y0075292D02*
X0012478Y0075292D01*
X0011007Y0074694D02*
X0040212Y0074694D01*
X0042445Y0074095D02*
X0008773Y0074095D01*
X0005438Y0074095D02*
X0002137Y0074095D01*
X0002141Y0073497D02*
X0069709Y0073497D01*
X0069709Y0074095D02*
X0045781Y0074095D01*
X0048015Y0074694D02*
X0069709Y0074694D01*
X0069709Y0075292D02*
X0049485Y0075292D01*
X0050522Y0075891D02*
X0069709Y0075891D01*
X0069709Y0076489D02*
X0051559Y0076489D01*
X0052178Y0077088D02*
X0069709Y0077088D01*
X0069709Y0077686D02*
X0052776Y0077686D01*
X0053375Y0078285D02*
X0069709Y0078285D01*
X0069709Y0078883D02*
X0053934Y0078883D01*
X0054280Y0079482D02*
X0070205Y0079482D01*
X0070803Y0080080D02*
X0054625Y0080080D01*
X0054971Y0080679D02*
X0071309Y0080679D01*
X0071309Y0081277D02*
X0055316Y0081277D01*
X0055568Y0081876D02*
X0066054Y0081876D01*
X0064609Y0082474D02*
X0055729Y0082474D01*
X0055889Y0083073D02*
X0063581Y0083073D01*
X0062982Y0083671D02*
X0056049Y0083671D01*
X0056210Y0084270D02*
X0062384Y0084270D01*
X0061971Y0084868D02*
X0056319Y0084868D01*
X0056319Y0085467D02*
X0061724Y0085467D01*
X0061476Y0086065D02*
X0056319Y0086065D01*
X0056319Y0086664D02*
X0061228Y0086664D01*
X0061144Y0087262D02*
X0056319Y0087262D01*
X0056319Y0087861D02*
X0060836Y0087861D01*
X0060247Y0088459D02*
X0056167Y0088459D01*
X0056006Y0089058D02*
X0059999Y0089058D01*
X0059751Y0089656D02*
X0055846Y0089656D01*
X0055686Y0090255D02*
X0059504Y0090255D01*
X0059256Y0090853D02*
X0055525Y0090853D01*
X0055224Y0091452D02*
X0059250Y0091452D01*
X0059250Y0092050D02*
X0054878Y0092050D01*
X0054532Y0092649D02*
X0059250Y0092649D01*
X0059250Y0093247D02*
X0054187Y0093247D01*
X0053813Y0093846D02*
X0059250Y0093846D01*
X0059250Y0094444D02*
X0053214Y0094444D01*
X0052616Y0095043D02*
X0059250Y0095043D01*
X0059250Y0095641D02*
X0052017Y0095641D01*
X0051281Y0096240D02*
X0059250Y0096240D01*
X0059227Y0096839D02*
X0050244Y0096839D01*
X0049207Y0097437D02*
X0058629Y0097437D01*
X0058030Y0098036D02*
X0047415Y0098036D01*
X0034718Y0114195D02*
X0071128Y0114195D01*
X0070529Y0114794D02*
X0034120Y0114794D01*
X0033521Y0115392D02*
X0069931Y0115392D01*
X0068909Y0115991D02*
X0068309Y0115991D01*
X0068309Y0116589D02*
X0068909Y0116589D01*
X0068909Y0117188D02*
X0068309Y0117188D01*
X0068309Y0117786D02*
X0068909Y0117786D01*
X0068909Y0118385D02*
X0068309Y0118385D01*
X0068309Y0118983D02*
X0068909Y0118983D01*
X0068609Y0119300D02*
X0068609Y0102400D01*
X0072675Y0098334D01*
X0072675Y0091381D01*
X0069609Y0091381D01*
X0069609Y0093040D01*
X0067950Y0090959D02*
X0069609Y0089300D01*
X0068728Y0090181D01*
X0067950Y0090959D02*
X0067071Y0090959D01*
X0066544Y0091486D01*
X0065850Y0092181D01*
X0065850Y0100540D01*
X0070897Y0105816D02*
X0074802Y0105816D01*
X0074203Y0105218D02*
X0071496Y0105218D01*
X0072094Y0104619D02*
X0073605Y0104619D01*
X0075400Y0106415D02*
X0070299Y0106415D01*
X0069700Y0107013D02*
X0075999Y0107013D01*
X0076597Y0107612D02*
X0069102Y0107612D01*
X0068503Y0108210D02*
X0077196Y0108210D01*
X0077794Y0108809D02*
X0067905Y0108809D01*
X0067306Y0109407D02*
X0078178Y0109407D01*
X0077580Y0110006D02*
X0066708Y0110006D01*
X0066403Y0115991D02*
X0032372Y0115991D01*
X0001849Y0118385D02*
X0064709Y0118385D01*
X0064709Y0118983D02*
X0001845Y0118983D01*
X0001841Y0119582D02*
X0068309Y0119582D01*
X0068309Y0119600D02*
X0064709Y0119600D01*
X0064709Y0120915D01*
X0066994Y0123200D01*
X0068309Y0123200D01*
X0068309Y0119600D01*
X0068309Y0120180D02*
X0068909Y0120180D01*
X0068909Y0120779D02*
X0068309Y0120779D01*
X0068309Y0121377D02*
X0068909Y0121377D01*
X0068909Y0121976D02*
X0068309Y0121976D01*
X0068309Y0122574D02*
X0068909Y0122574D01*
X0068909Y0123173D02*
X0068309Y0123173D01*
X0066967Y0123173D02*
X0001818Y0123173D01*
X0001822Y0122574D02*
X0066369Y0122574D01*
X0065770Y0121976D02*
X0001826Y0121976D01*
X0001830Y0121377D02*
X0065172Y0121377D01*
X0064709Y0120779D02*
X0001834Y0120779D01*
X0001837Y0120180D02*
X0064709Y0120180D01*
X0070494Y0123772D02*
X0001814Y0123772D01*
X0001810Y0124370D02*
X0071093Y0124370D01*
X0071691Y0124969D02*
X0001806Y0124969D01*
X0001803Y0125567D02*
X0072290Y0125567D01*
X0072889Y0126166D02*
X0001799Y0126166D01*
X0001795Y0126764D02*
X0073487Y0126764D01*
X0074086Y0127363D02*
X0001791Y0127363D01*
X0001787Y0127961D02*
X0074684Y0127961D01*
X0082535Y0127961D02*
X0147010Y0127961D01*
X0147010Y0127363D02*
X0083133Y0127363D01*
X0083732Y0126764D02*
X0147010Y0126764D01*
X0147010Y0126166D02*
X0084330Y0126166D01*
X0084929Y0125567D02*
X0147010Y0125567D01*
X0147010Y0124969D02*
X0085527Y0124969D01*
X0086126Y0124370D02*
X0147010Y0124370D01*
X0147010Y0123772D02*
X0086724Y0123772D01*
X0087323Y0123173D02*
X0147010Y0123173D01*
X0147010Y0122574D02*
X0087509Y0122574D01*
X0087509Y0121976D02*
X0147010Y0121976D01*
X0147010Y0121377D02*
X0087509Y0121377D01*
X0087509Y0120779D02*
X0147010Y0120779D01*
X0147010Y0120180D02*
X0088053Y0120180D01*
X0088651Y0119582D02*
X0147010Y0119582D01*
X0147010Y0118983D02*
X0089250Y0118983D01*
X0089848Y0118385D02*
X0147010Y0118385D01*
X0147010Y0117786D02*
X0090447Y0117786D01*
X0091308Y0117188D02*
X0113911Y0117188D01*
X0113923Y0117200D02*
X0108709Y0111986D01*
X0108709Y0104613D01*
X0110309Y0103013D01*
X0110309Y0081586D01*
X0107709Y0078986D01*
X0107709Y0071613D01*
X0112709Y0066613D01*
X0112709Y0065600D01*
X0116309Y0065600D01*
X0116309Y0065000D01*
X0112709Y0065000D01*
X0112709Y0063685D01*
X0114994Y0061400D01*
X0116309Y0061400D01*
X0116309Y0065000D01*
X0116909Y0065000D01*
X0116909Y0061400D01*
X0118225Y0061400D01*
X0120509Y0063685D01*
X0120509Y0065000D01*
X0116909Y0065000D01*
X0116909Y0065600D01*
X0120509Y0065600D01*
X0120509Y0066613D01*
X0125509Y0071613D01*
X0125509Y0078986D01*
X0124909Y0079586D01*
X0124909Y0103013D01*
X0126509Y0104613D01*
X0126509Y0111986D01*
X0121296Y0117200D01*
X0113923Y0117200D01*
X0113312Y0116589D02*
X0091907Y0116589D01*
X0092505Y0115991D02*
X0112714Y0115991D01*
X0112115Y0115392D02*
X0093104Y0115392D01*
X0093702Y0114794D02*
X0111517Y0114794D01*
X0110918Y0114195D02*
X0094301Y0114195D01*
X0094899Y0113597D02*
X0110320Y0113597D01*
X0109721Y0112998D02*
X0095498Y0112998D01*
X0096096Y0112400D02*
X0109123Y0112400D01*
X0108709Y0111801D02*
X0096509Y0111801D01*
X0096509Y0111203D02*
X0108709Y0111203D01*
X0108709Y0110604D02*
X0096509Y0110604D01*
X0096509Y0110006D02*
X0108709Y0110006D01*
X0108709Y0109407D02*
X0096509Y0109407D01*
X0096509Y0108809D02*
X0108709Y0108809D01*
X0108709Y0108210D02*
X0096509Y0108210D01*
X0096509Y0107612D02*
X0108709Y0107612D01*
X0108709Y0107013D02*
X0096509Y0107013D01*
X0096509Y0106415D02*
X0108709Y0106415D01*
X0108709Y0105816D02*
X0096509Y0105816D01*
X0096509Y0105218D02*
X0108709Y0105218D01*
X0108709Y0104619D02*
X0096509Y0104619D01*
X0095917Y0104021D02*
X0109302Y0104021D01*
X0109901Y0103422D02*
X0095318Y0103422D01*
X0094720Y0102824D02*
X0110309Y0102824D01*
X0110309Y0102225D02*
X0094121Y0102225D01*
X0093523Y0101627D02*
X0110309Y0101627D01*
X0110309Y0101028D02*
X0092924Y0101028D01*
X0092326Y0100430D02*
X0110309Y0100430D01*
X0110309Y0099831D02*
X0091727Y0099831D01*
X0088866Y0099233D02*
X0110309Y0099233D01*
X0110309Y0098634D02*
X0088267Y0098634D01*
X0087669Y0098036D02*
X0110309Y0098036D01*
X0110309Y0097437D02*
X0087070Y0097437D01*
X0086933Y0096839D02*
X0110309Y0096839D01*
X0110309Y0096240D02*
X0086933Y0096240D01*
X0086933Y0095641D02*
X0110309Y0095641D01*
X0110309Y0095043D02*
X0086933Y0095043D01*
X0086933Y0094444D02*
X0110309Y0094444D01*
X0110309Y0093846D02*
X0086726Y0093846D01*
X0086478Y0093247D02*
X0110309Y0093247D01*
X0110309Y0092649D02*
X0086554Y0092649D01*
X0086802Y0092050D02*
X0110309Y0092050D01*
X0110309Y0091452D02*
X0086933Y0091452D01*
X0086933Y0090853D02*
X0110309Y0090853D01*
X0110309Y0090255D02*
X0086933Y0090255D01*
X0086933Y0089656D02*
X0110309Y0089656D01*
X0110309Y0089058D02*
X0086933Y0089058D01*
X0086933Y0088459D02*
X0110309Y0088459D01*
X0110309Y0087861D02*
X0086933Y0087861D01*
X0086933Y0087262D02*
X0110309Y0087262D01*
X0110309Y0086664D02*
X0086849Y0086664D01*
X0086602Y0086065D02*
X0110309Y0086065D01*
X0110309Y0085467D02*
X0086354Y0085467D01*
X0086106Y0084868D02*
X0110309Y0084868D01*
X0110309Y0084270D02*
X0085909Y0084270D01*
X0085909Y0083671D02*
X0110309Y0083671D01*
X0110309Y0083073D02*
X0085909Y0083073D01*
X0085909Y0082474D02*
X0110309Y0082474D01*
X0110309Y0081876D02*
X0085909Y0081876D01*
X0085909Y0081277D02*
X0110000Y0081277D01*
X0109402Y0080679D02*
X0085909Y0080679D01*
X0086416Y0080080D02*
X0108803Y0080080D01*
X0108205Y0079482D02*
X0087014Y0079482D01*
X0087509Y0078883D02*
X0107709Y0078883D01*
X0107709Y0078285D02*
X0087509Y0078285D01*
X0087509Y0077686D02*
X0107709Y0077686D01*
X0107709Y0077088D02*
X0087509Y0077088D01*
X0087509Y0076489D02*
X0107709Y0076489D01*
X0107709Y0075891D02*
X0087509Y0075891D01*
X0087509Y0075292D02*
X0107709Y0075292D01*
X0107709Y0074694D02*
X0087509Y0074694D01*
X0087509Y0074095D02*
X0107709Y0074095D01*
X0107709Y0073497D02*
X0087509Y0073497D01*
X0087509Y0072898D02*
X0107709Y0072898D01*
X0107709Y0072300D02*
X0087509Y0072300D01*
X0087509Y0071701D02*
X0107709Y0071701D01*
X0108220Y0071103D02*
X0086998Y0071103D01*
X0086400Y0070504D02*
X0108819Y0070504D01*
X0109417Y0069905D02*
X0085801Y0069905D01*
X0085203Y0069307D02*
X0110016Y0069307D01*
X0110614Y0068708D02*
X0084604Y0068708D01*
X0084006Y0068110D02*
X0111213Y0068110D01*
X0111811Y0067511D02*
X0083407Y0067511D01*
X0082809Y0066913D02*
X0112410Y0066913D01*
X0112709Y0066314D02*
X0082509Y0066314D01*
X0082509Y0065716D02*
X0112709Y0065716D01*
X0112709Y0064519D02*
X0082509Y0064519D01*
X0082509Y0063920D02*
X0112709Y0063920D01*
X0113072Y0063322D02*
X0082147Y0063322D01*
X0081548Y0062723D02*
X0113671Y0062723D01*
X0114269Y0062125D02*
X0080950Y0062125D01*
X0080351Y0061526D02*
X0114868Y0061526D01*
X0116309Y0061526D02*
X0116909Y0061526D01*
X0116909Y0062125D02*
X0116309Y0062125D01*
X0116309Y0062723D02*
X0116909Y0062723D01*
X0116909Y0063322D02*
X0116309Y0063322D01*
X0116309Y0063920D02*
X0116909Y0063920D01*
X0116909Y0064519D02*
X0116309Y0064519D01*
X0116309Y0065117D02*
X0078909Y0065117D01*
X0078909Y0064519D02*
X0078309Y0064519D01*
X0078309Y0065117D02*
X0002195Y0065117D01*
X0002199Y0064519D02*
X0074709Y0064519D01*
X0074709Y0063920D02*
X0002203Y0063920D01*
X0002207Y0063322D02*
X0075072Y0063322D01*
X0075671Y0062723D02*
X0002211Y0062723D01*
X0002214Y0062125D02*
X0076269Y0062125D01*
X0076868Y0061526D02*
X0002218Y0061526D01*
X0002222Y0060928D02*
X0147010Y0060928D01*
X0147010Y0061526D02*
X0118351Y0061526D01*
X0118950Y0062125D02*
X0147010Y0062125D01*
X0147010Y0062723D02*
X0119548Y0062723D01*
X0120147Y0063322D02*
X0147010Y0063322D01*
X0147010Y0063920D02*
X0120509Y0063920D01*
X0120509Y0064519D02*
X0147010Y0064519D01*
X0147010Y0065117D02*
X0116909Y0065117D01*
X0120509Y0065716D02*
X0147010Y0065716D01*
X0147010Y0066314D02*
X0120509Y0066314D01*
X0120809Y0066913D02*
X0147010Y0066913D01*
X0147010Y0067511D02*
X0121407Y0067511D01*
X0122006Y0068110D02*
X0147010Y0068110D01*
X0147010Y0068708D02*
X0122604Y0068708D01*
X0123203Y0069307D02*
X0147010Y0069307D01*
X0147010Y0069905D02*
X0123801Y0069905D01*
X0124400Y0070504D02*
X0147010Y0070504D01*
X0147010Y0071103D02*
X0124998Y0071103D01*
X0125509Y0071701D02*
X0147010Y0071701D01*
X0147010Y0072300D02*
X0125509Y0072300D01*
X0125509Y0072898D02*
X0147010Y0072898D01*
X0147010Y0073497D02*
X0125509Y0073497D01*
X0125509Y0074095D02*
X0147010Y0074095D01*
X0147010Y0074694D02*
X0125509Y0074694D01*
X0125509Y0075292D02*
X0147010Y0075292D01*
X0147010Y0075891D02*
X0125509Y0075891D01*
X0125509Y0076489D02*
X0147010Y0076489D01*
X0147010Y0077088D02*
X0125509Y0077088D01*
X0125509Y0077686D02*
X0147010Y0077686D01*
X0147010Y0078285D02*
X0125509Y0078285D01*
X0125509Y0078883D02*
X0147010Y0078883D01*
X0147010Y0079482D02*
X0125014Y0079482D01*
X0124909Y0080080D02*
X0147010Y0080080D01*
X0147010Y0080679D02*
X0124909Y0080679D01*
X0124909Y0081277D02*
X0147010Y0081277D01*
X0147010Y0081876D02*
X0124909Y0081876D01*
X0124909Y0082474D02*
X0147010Y0082474D01*
X0147010Y0083073D02*
X0124909Y0083073D01*
X0124909Y0083671D02*
X0147010Y0083671D01*
X0147010Y0084270D02*
X0124909Y0084270D01*
X0124909Y0084868D02*
X0147010Y0084868D01*
X0147010Y0085467D02*
X0124909Y0085467D01*
X0124909Y0086065D02*
X0147010Y0086065D01*
X0147010Y0086664D02*
X0124909Y0086664D01*
X0124909Y0087262D02*
X0147010Y0087262D01*
X0147010Y0087861D02*
X0124909Y0087861D01*
X0124909Y0088459D02*
X0147010Y0088459D01*
X0147010Y0089058D02*
X0124909Y0089058D01*
X0124909Y0089656D02*
X0147010Y0089656D01*
X0147010Y0090255D02*
X0124909Y0090255D01*
X0124909Y0090853D02*
X0147010Y0090853D01*
X0147010Y0091452D02*
X0124909Y0091452D01*
X0124909Y0092050D02*
X0147010Y0092050D01*
X0147010Y0092649D02*
X0124909Y0092649D01*
X0124909Y0093247D02*
X0147010Y0093247D01*
X0147010Y0093846D02*
X0124909Y0093846D01*
X0124909Y0094444D02*
X0147010Y0094444D01*
X0147010Y0095043D02*
X0124909Y0095043D01*
X0124909Y0095641D02*
X0147010Y0095641D01*
X0147010Y0096240D02*
X0124909Y0096240D01*
X0124909Y0096839D02*
X0147010Y0096839D01*
X0147010Y0097437D02*
X0124909Y0097437D01*
X0124909Y0098036D02*
X0147010Y0098036D01*
X0147010Y0098634D02*
X0124909Y0098634D01*
X0124909Y0099233D02*
X0147010Y0099233D01*
X0147010Y0099831D02*
X0124909Y0099831D01*
X0124909Y0100430D02*
X0147010Y0100430D01*
X0147010Y0101028D02*
X0124909Y0101028D01*
X0124909Y0101627D02*
X0147010Y0101627D01*
X0147010Y0102225D02*
X0124909Y0102225D01*
X0124909Y0102824D02*
X0147010Y0102824D01*
X0147010Y0103422D02*
X0125318Y0103422D01*
X0125917Y0104021D02*
X0147010Y0104021D01*
X0147010Y0104619D02*
X0126509Y0104619D01*
X0126509Y0105218D02*
X0147010Y0105218D01*
X0147010Y0105816D02*
X0126509Y0105816D01*
X0126509Y0106415D02*
X0147010Y0106415D01*
X0147010Y0107013D02*
X0126509Y0107013D01*
X0126509Y0107612D02*
X0147010Y0107612D01*
X0147010Y0108210D02*
X0126509Y0108210D01*
X0126509Y0108809D02*
X0147010Y0108809D01*
X0147010Y0109407D02*
X0126509Y0109407D01*
X0126509Y0110006D02*
X0147010Y0110006D01*
X0147010Y0110604D02*
X0126509Y0110604D01*
X0126509Y0111203D02*
X0147010Y0111203D01*
X0147010Y0111801D02*
X0126509Y0111801D01*
X0126096Y0112400D02*
X0147010Y0112400D01*
X0147010Y0112998D02*
X0125498Y0112998D01*
X0124899Y0113597D02*
X0147010Y0113597D01*
X0147010Y0114195D02*
X0124301Y0114195D01*
X0123702Y0114794D02*
X0147010Y0114794D01*
X0147010Y0115392D02*
X0123104Y0115392D01*
X0122505Y0115991D02*
X0147010Y0115991D01*
X0147010Y0116589D02*
X0121907Y0116589D01*
X0121308Y0117188D02*
X0147010Y0117188D01*
X0147010Y0128560D02*
X0001783Y0128560D01*
X0001779Y0129158D02*
X0147010Y0129158D01*
X0147010Y0129757D02*
X0001775Y0129757D01*
X0001771Y0130355D02*
X0147010Y0130355D01*
X0147010Y0130954D02*
X0001768Y0130954D01*
X0001764Y0131552D02*
X0147010Y0131552D01*
X0147010Y0132151D02*
X0001760Y0132151D01*
X0001756Y0132749D02*
X0147010Y0132749D01*
X0147010Y0133348D02*
X0001752Y0133348D01*
X0001748Y0133946D02*
X0147010Y0133946D01*
X0147010Y0134545D02*
X0001744Y0134545D01*
X0001740Y0135143D02*
X0147010Y0135143D01*
X0147010Y0135742D02*
X0001736Y0135742D01*
X0001733Y0136340D02*
X0147010Y0136340D01*
X0147010Y0136939D02*
X0001729Y0136939D01*
X0001725Y0137537D02*
X0147010Y0137537D01*
X0147010Y0138136D02*
X0001721Y0138136D01*
X0001717Y0138734D02*
X0147010Y0138734D01*
X0147010Y0139333D02*
X0001713Y0139333D01*
X0001709Y0139931D02*
X0147010Y0139931D01*
X0147010Y0140530D02*
X0001705Y0140530D01*
X0001701Y0141128D02*
X0147010Y0141128D01*
X0147010Y0141727D02*
X0001698Y0141727D01*
X0001694Y0142325D02*
X0147010Y0142325D01*
X0147010Y0142924D02*
X0001690Y0142924D01*
X0001686Y0143522D02*
X0147010Y0143522D01*
X0147010Y0144121D02*
X0001682Y0144121D01*
X0001678Y0144719D02*
X0147010Y0144719D01*
X0147010Y0145318D02*
X0001674Y0145318D01*
X0001670Y0145916D02*
X0147010Y0145916D01*
X0147010Y0146515D02*
X0001666Y0146515D01*
X0001663Y0147113D02*
X0147010Y0147113D01*
X0147010Y0147712D02*
X0001659Y0147712D01*
X0001655Y0148310D02*
X0147010Y0148310D01*
X0147010Y0148909D02*
X0001651Y0148909D01*
X0001647Y0149508D02*
X0147010Y0149508D01*
X0069709Y0072898D02*
X0002145Y0072898D01*
X0002148Y0072300D02*
X0069709Y0072300D01*
X0069709Y0071701D02*
X0002152Y0071701D01*
X0002156Y0071103D02*
X0070220Y0071103D01*
X0070819Y0070504D02*
X0002160Y0070504D01*
X0002164Y0069905D02*
X0071417Y0069905D01*
X0072016Y0069307D02*
X0002168Y0069307D01*
X0002172Y0068708D02*
X0072614Y0068708D01*
X0073213Y0068110D02*
X0002176Y0068110D01*
X0002180Y0067511D02*
X0073811Y0067511D01*
X0074410Y0066913D02*
X0002183Y0066913D01*
X0002187Y0066314D02*
X0074709Y0066314D01*
X0074709Y0065716D02*
X0002191Y0065716D01*
X0002226Y0060329D02*
X0147010Y0060329D01*
X0147010Y0059731D02*
X0002230Y0059731D01*
X0002234Y0059132D02*
X0147010Y0059132D01*
X0147010Y0058534D02*
X0002238Y0058534D01*
X0002242Y0057935D02*
X0147010Y0057935D01*
X0147010Y0057337D02*
X0002246Y0057337D01*
X0002249Y0056738D02*
X0147010Y0056738D01*
X0147010Y0056140D02*
X0002253Y0056140D01*
X0002257Y0055541D02*
X0147010Y0055541D01*
X0147010Y0054943D02*
X0002261Y0054943D01*
X0002265Y0054344D02*
X0147010Y0054344D01*
X0147010Y0053746D02*
X0002269Y0053746D01*
X0002273Y0053147D02*
X0147010Y0053147D01*
X0147010Y0052549D02*
X0002277Y0052549D01*
X0002281Y0051950D02*
X0147010Y0051950D01*
X0147010Y0051352D02*
X0002284Y0051352D01*
X0002288Y0050753D02*
X0147010Y0050753D01*
X0147010Y0050155D02*
X0002292Y0050155D01*
X0002296Y0049556D02*
X0147010Y0049556D01*
X0147010Y0048958D02*
X0002300Y0048958D01*
X0002304Y0048359D02*
X0147010Y0048359D01*
X0147010Y0047761D02*
X0002308Y0047761D01*
X0002312Y0047162D02*
X0147010Y0047162D01*
X0147010Y0046564D02*
X0002316Y0046564D01*
X0002319Y0045965D02*
X0147010Y0045965D01*
X0147010Y0045367D02*
X0002323Y0045367D01*
X0002327Y0044768D02*
X0147010Y0044768D01*
X0147010Y0044170D02*
X0002331Y0044170D01*
X0002335Y0043571D02*
X0147010Y0043571D01*
X0147010Y0042972D02*
X0002339Y0042972D01*
X0002343Y0042374D02*
X0147010Y0042374D01*
X0147010Y0041775D02*
X0002347Y0041775D01*
X0002351Y0041177D02*
X0147010Y0041177D01*
X0147010Y0040578D02*
X0002354Y0040578D01*
X0002358Y0039980D02*
X0147010Y0039980D01*
X0147010Y0039381D02*
X0002362Y0039381D01*
X0002366Y0038783D02*
X0147010Y0038783D01*
X0147010Y0038184D02*
X0002370Y0038184D01*
X0002374Y0037586D02*
X0147010Y0037586D01*
X0147010Y0036987D02*
X0002378Y0036987D01*
X0002382Y0036389D02*
X0147010Y0036389D01*
X0147010Y0035790D02*
X0002385Y0035790D01*
X0002389Y0035192D02*
X0147010Y0035192D01*
X0147010Y0034593D02*
X0002393Y0034593D01*
X0002397Y0033995D02*
X0147010Y0033995D01*
X0147010Y0033396D02*
X0002401Y0033396D01*
X0002405Y0032798D02*
X0147010Y0032798D01*
X0147010Y0032199D02*
X0002409Y0032199D01*
X0002413Y0031601D02*
X0147010Y0031601D01*
X0147010Y0031002D02*
X0002417Y0031002D01*
X0002420Y0030404D02*
X0147010Y0030404D01*
X0147010Y0029805D02*
X0002424Y0029805D01*
X0002428Y0029207D02*
X0147010Y0029207D01*
X0147010Y0028608D02*
X0002432Y0028608D01*
X0002436Y0028010D02*
X0147010Y0028010D01*
X0147010Y0027411D02*
X0002440Y0027411D01*
X0002444Y0026813D02*
X0147010Y0026813D01*
X0147010Y0026214D02*
X0002448Y0026214D01*
X0002452Y0025616D02*
X0147010Y0025616D01*
X0147010Y0025017D02*
X0002455Y0025017D01*
X0002459Y0024419D02*
X0147010Y0024419D01*
X0147010Y0023820D02*
X0002463Y0023820D01*
X0002467Y0023222D02*
X0147010Y0023222D01*
X0147010Y0022623D02*
X0002471Y0022623D01*
X0002475Y0022025D02*
X0147010Y0022025D01*
X0147010Y0021426D02*
X0002479Y0021426D01*
X0002483Y0020828D02*
X0147010Y0020828D01*
X0147010Y0020229D02*
X0002487Y0020229D01*
X0002490Y0019631D02*
X0147010Y0019631D01*
X0147010Y0019032D02*
X0002494Y0019032D01*
X0002498Y0018434D02*
X0147010Y0018434D01*
X0147010Y0017835D02*
X0002502Y0017835D01*
X0002506Y0017237D02*
X0147010Y0017237D01*
X0147010Y0016638D02*
X0002510Y0016638D01*
X0002514Y0016039D02*
X0147010Y0016039D01*
X0147010Y0015441D02*
X0002518Y0015441D01*
X0002522Y0014842D02*
X0147010Y0014842D01*
X0147010Y0014244D02*
X0002525Y0014244D01*
X0002529Y0013645D02*
X0147010Y0013645D01*
X0147010Y0013047D02*
X0002533Y0013047D01*
X0002537Y0012448D02*
X0147010Y0012448D01*
X0147010Y0011850D02*
X0002541Y0011850D01*
X0002545Y0011251D02*
X0147010Y0011251D01*
X0147010Y0010653D02*
X0002549Y0010653D01*
X0002553Y0010054D02*
X0147010Y0010054D01*
X0147010Y0009456D02*
X0002556Y0009456D01*
X0002560Y0008857D02*
X0147010Y0008857D01*
X0147010Y0008259D02*
X0002564Y0008259D01*
X0002568Y0007660D02*
X0147010Y0007660D01*
X0078909Y0061526D02*
X0078309Y0061526D01*
X0078309Y0062125D02*
X0078909Y0062125D01*
X0078909Y0062723D02*
X0078309Y0062723D01*
X0078309Y0063322D02*
X0078909Y0063322D01*
X0078909Y0063920D02*
X0078309Y0063920D01*
X0003204Y0074694D02*
X0002133Y0074694D01*
D15*
X0060263Y0106127D02*
X0065850Y0100540D01*
X0069609Y0096780D01*
X0078468Y0096780D02*
X0078468Y0099158D01*
X0086609Y0107300D01*
X0086609Y0111300D01*
X0078609Y0119300D01*
X0087609Y0108300D02*
X0086609Y0107300D01*
X0078468Y0089300D02*
X0078609Y0089158D01*
X0078609Y0075300D01*
X0078609Y0065300D02*
X0116609Y0065300D01*
X0116609Y0075300D02*
X0117609Y0076300D01*
X0117609Y0108300D01*
M02*
