G75*
%MOIN*%
%OFA0B0*%
%FSLAX25Y25*%
%IPPOS*%
%LPD*%
%AMOC8*
5,1,8,0,0,1.08239X$1,22.5*
%
%ADD10C,0.00600*%
%ADD11C,0.01200*%
%ADD12R,0.01500X0.02000*%
%ADD13C,0.00500*%
%ADD14C,0.01000*%
D10*
X0074109Y0063800D02*
X0074109Y0076800D01*
X0074111Y0076887D01*
X0074117Y0076974D01*
X0074126Y0077061D01*
X0074139Y0077147D01*
X0074156Y0077233D01*
X0074177Y0077318D01*
X0074202Y0077401D01*
X0074230Y0077484D01*
X0074261Y0077565D01*
X0074296Y0077645D01*
X0074335Y0077723D01*
X0074377Y0077800D01*
X0074422Y0077875D01*
X0074471Y0077947D01*
X0074522Y0078018D01*
X0074577Y0078086D01*
X0074634Y0078151D01*
X0074695Y0078214D01*
X0074758Y0078275D01*
X0074823Y0078332D01*
X0074891Y0078387D01*
X0074962Y0078438D01*
X0075034Y0078487D01*
X0075109Y0078532D01*
X0075186Y0078574D01*
X0075264Y0078613D01*
X0075344Y0078648D01*
X0075425Y0078679D01*
X0075508Y0078707D01*
X0075591Y0078732D01*
X0075676Y0078753D01*
X0075762Y0078770D01*
X0075848Y0078783D01*
X0075935Y0078792D01*
X0076022Y0078798D01*
X0076109Y0078800D01*
X0081109Y0078800D01*
X0081196Y0078798D01*
X0081283Y0078792D01*
X0081370Y0078783D01*
X0081456Y0078770D01*
X0081542Y0078753D01*
X0081627Y0078732D01*
X0081710Y0078707D01*
X0081793Y0078679D01*
X0081874Y0078648D01*
X0081954Y0078613D01*
X0082032Y0078574D01*
X0082109Y0078532D01*
X0082184Y0078487D01*
X0082256Y0078438D01*
X0082327Y0078387D01*
X0082395Y0078332D01*
X0082460Y0078275D01*
X0082523Y0078214D01*
X0082584Y0078151D01*
X0082641Y0078086D01*
X0082696Y0078018D01*
X0082747Y0077947D01*
X0082796Y0077875D01*
X0082841Y0077800D01*
X0082883Y0077723D01*
X0082922Y0077645D01*
X0082957Y0077565D01*
X0082988Y0077484D01*
X0083016Y0077401D01*
X0083041Y0077318D01*
X0083062Y0077233D01*
X0083079Y0077147D01*
X0083092Y0077061D01*
X0083101Y0076974D01*
X0083107Y0076887D01*
X0083109Y0076800D01*
X0083109Y0063800D01*
X0083107Y0063713D01*
X0083101Y0063626D01*
X0083092Y0063539D01*
X0083079Y0063453D01*
X0083062Y0063367D01*
X0083041Y0063282D01*
X0083016Y0063199D01*
X0082988Y0063116D01*
X0082957Y0063035D01*
X0082922Y0062955D01*
X0082883Y0062877D01*
X0082841Y0062800D01*
X0082796Y0062725D01*
X0082747Y0062653D01*
X0082696Y0062582D01*
X0082641Y0062514D01*
X0082584Y0062449D01*
X0082523Y0062386D01*
X0082460Y0062325D01*
X0082395Y0062268D01*
X0082327Y0062213D01*
X0082256Y0062162D01*
X0082184Y0062113D01*
X0082109Y0062068D01*
X0082032Y0062026D01*
X0081954Y0061987D01*
X0081874Y0061952D01*
X0081793Y0061921D01*
X0081710Y0061893D01*
X0081627Y0061868D01*
X0081542Y0061847D01*
X0081456Y0061830D01*
X0081370Y0061817D01*
X0081283Y0061808D01*
X0081196Y0061802D01*
X0081109Y0061800D01*
X0076109Y0061800D01*
X0076022Y0061802D01*
X0075935Y0061808D01*
X0075848Y0061817D01*
X0075762Y0061830D01*
X0075676Y0061847D01*
X0075591Y0061868D01*
X0075508Y0061893D01*
X0075425Y0061921D01*
X0075344Y0061952D01*
X0075264Y0061987D01*
X0075186Y0062026D01*
X0075109Y0062068D01*
X0075034Y0062113D01*
X0074962Y0062162D01*
X0074891Y0062213D01*
X0074823Y0062268D01*
X0074758Y0062325D01*
X0074695Y0062386D01*
X0074634Y0062449D01*
X0074577Y0062514D01*
X0074522Y0062582D01*
X0074471Y0062653D01*
X0074422Y0062725D01*
X0074377Y0062800D01*
X0074335Y0062877D01*
X0074296Y0062955D01*
X0074261Y0063035D01*
X0074230Y0063116D01*
X0074202Y0063199D01*
X0074177Y0063282D01*
X0074156Y0063367D01*
X0074139Y0063453D01*
X0074126Y0063539D01*
X0074117Y0063626D01*
X0074111Y0063713D01*
X0074109Y0063800D01*
X0114609Y0069300D02*
X0114609Y0071300D01*
X0115109Y0071800D01*
X0115109Y0068800D02*
X0115174Y0068738D01*
X0115242Y0068678D01*
X0115312Y0068622D01*
X0115384Y0068568D01*
X0115459Y0068518D01*
X0115536Y0068471D01*
X0115614Y0068427D01*
X0115695Y0068386D01*
X0115777Y0068349D01*
X0115860Y0068316D01*
X0115945Y0068286D01*
X0116031Y0068259D01*
X0116118Y0068237D01*
X0116206Y0068218D01*
X0116295Y0068202D01*
X0116384Y0068191D01*
X0116474Y0068183D01*
X0116564Y0068179D01*
X0116654Y0068179D01*
X0116744Y0068183D01*
X0116834Y0068191D01*
X0116923Y0068202D01*
X0117012Y0068218D01*
X0117100Y0068237D01*
X0117187Y0068259D01*
X0117273Y0068286D01*
X0117358Y0068316D01*
X0117441Y0068349D01*
X0117523Y0068386D01*
X0117604Y0068427D01*
X0117682Y0068471D01*
X0117759Y0068518D01*
X0117834Y0068568D01*
X0117906Y0068622D01*
X0117976Y0068678D01*
X0118044Y0068738D01*
X0118109Y0068800D01*
X0118609Y0069300D01*
X0118609Y0071300D01*
X0118109Y0071800D01*
X0117609Y0070300D02*
X0117607Y0070360D01*
X0117602Y0070421D01*
X0117593Y0070480D01*
X0117580Y0070539D01*
X0117564Y0070598D01*
X0117544Y0070655D01*
X0117521Y0070710D01*
X0117494Y0070765D01*
X0117465Y0070817D01*
X0117432Y0070868D01*
X0117396Y0070917D01*
X0117358Y0070963D01*
X0117316Y0071007D01*
X0117272Y0071049D01*
X0117226Y0071087D01*
X0117177Y0071123D01*
X0117126Y0071156D01*
X0117074Y0071185D01*
X0117019Y0071212D01*
X0116964Y0071235D01*
X0116907Y0071255D01*
X0116848Y0071271D01*
X0116789Y0071284D01*
X0116730Y0071293D01*
X0116669Y0071298D01*
X0116609Y0071300D01*
X0115609Y0070300D02*
X0115611Y0070240D01*
X0115616Y0070179D01*
X0115625Y0070120D01*
X0115638Y0070061D01*
X0115654Y0070002D01*
X0115674Y0069945D01*
X0115697Y0069890D01*
X0115724Y0069835D01*
X0115753Y0069783D01*
X0115786Y0069732D01*
X0115822Y0069683D01*
X0115860Y0069637D01*
X0115902Y0069593D01*
X0115946Y0069551D01*
X0115992Y0069513D01*
X0116041Y0069477D01*
X0116092Y0069444D01*
X0116144Y0069415D01*
X0116199Y0069388D01*
X0116254Y0069365D01*
X0116311Y0069345D01*
X0116370Y0069329D01*
X0116429Y0069316D01*
X0116488Y0069307D01*
X0116549Y0069302D01*
X0116609Y0069300D01*
X0115109Y0068800D02*
X0114609Y0069300D01*
X0111609Y0104300D02*
X0110109Y0104300D01*
X0109609Y0104800D01*
X0095609Y0104800D01*
X0095109Y0104300D01*
X0093609Y0104300D01*
X0093549Y0104302D01*
X0093488Y0104307D01*
X0093429Y0104316D01*
X0093370Y0104329D01*
X0093311Y0104345D01*
X0093254Y0104365D01*
X0093199Y0104388D01*
X0093144Y0104415D01*
X0093092Y0104444D01*
X0093041Y0104477D01*
X0092992Y0104513D01*
X0092946Y0104551D01*
X0092902Y0104593D01*
X0092860Y0104637D01*
X0092822Y0104683D01*
X0092786Y0104732D01*
X0092753Y0104783D01*
X0092724Y0104835D01*
X0092697Y0104890D01*
X0092674Y0104945D01*
X0092654Y0105002D01*
X0092638Y0105061D01*
X0092625Y0105120D01*
X0092616Y0105179D01*
X0092611Y0105240D01*
X0092609Y0105300D01*
X0092609Y0111300D01*
X0092611Y0111360D01*
X0092616Y0111421D01*
X0092625Y0111480D01*
X0092638Y0111539D01*
X0092654Y0111598D01*
X0092674Y0111655D01*
X0092697Y0111710D01*
X0092724Y0111765D01*
X0092753Y0111817D01*
X0092786Y0111868D01*
X0092822Y0111917D01*
X0092860Y0111963D01*
X0092902Y0112007D01*
X0092946Y0112049D01*
X0092992Y0112087D01*
X0093041Y0112123D01*
X0093092Y0112156D01*
X0093144Y0112185D01*
X0093199Y0112212D01*
X0093254Y0112235D01*
X0093311Y0112255D01*
X0093370Y0112271D01*
X0093429Y0112284D01*
X0093488Y0112293D01*
X0093549Y0112298D01*
X0093609Y0112300D01*
X0095109Y0112300D01*
X0095609Y0111800D01*
X0109609Y0111800D01*
X0110109Y0112300D01*
X0111609Y0112300D01*
X0111669Y0112298D01*
X0111730Y0112293D01*
X0111789Y0112284D01*
X0111848Y0112271D01*
X0111907Y0112255D01*
X0111964Y0112235D01*
X0112019Y0112212D01*
X0112074Y0112185D01*
X0112126Y0112156D01*
X0112177Y0112123D01*
X0112226Y0112087D01*
X0112272Y0112049D01*
X0112316Y0112007D01*
X0112358Y0111963D01*
X0112396Y0111917D01*
X0112432Y0111868D01*
X0112465Y0111817D01*
X0112494Y0111765D01*
X0112521Y0111710D01*
X0112544Y0111655D01*
X0112564Y0111598D01*
X0112580Y0111539D01*
X0112593Y0111480D01*
X0112602Y0111421D01*
X0112607Y0111360D01*
X0112609Y0111300D01*
X0112609Y0105300D01*
X0112607Y0105240D01*
X0112602Y0105179D01*
X0112593Y0105120D01*
X0112580Y0105061D01*
X0112564Y0105002D01*
X0112544Y0104945D01*
X0112521Y0104890D01*
X0112494Y0104835D01*
X0112465Y0104783D01*
X0112432Y0104732D01*
X0112396Y0104683D01*
X0112358Y0104637D01*
X0112316Y0104593D01*
X0112272Y0104551D01*
X0112226Y0104513D01*
X0112177Y0104477D01*
X0112126Y0104444D01*
X0112074Y0104415D01*
X0112019Y0104388D01*
X0111964Y0104365D01*
X0111907Y0104345D01*
X0111848Y0104329D01*
X0111789Y0104316D01*
X0111730Y0104307D01*
X0111669Y0104302D01*
X0111609Y0104300D01*
X0082109Y0116800D02*
X0082109Y0121800D01*
X0082107Y0121887D01*
X0082101Y0121974D01*
X0082092Y0122061D01*
X0082079Y0122147D01*
X0082062Y0122233D01*
X0082041Y0122318D01*
X0082016Y0122401D01*
X0081988Y0122484D01*
X0081957Y0122565D01*
X0081922Y0122645D01*
X0081883Y0122723D01*
X0081841Y0122800D01*
X0081796Y0122875D01*
X0081747Y0122947D01*
X0081696Y0123018D01*
X0081641Y0123086D01*
X0081584Y0123151D01*
X0081523Y0123214D01*
X0081460Y0123275D01*
X0081395Y0123332D01*
X0081327Y0123387D01*
X0081256Y0123438D01*
X0081184Y0123487D01*
X0081109Y0123532D01*
X0081032Y0123574D01*
X0080954Y0123613D01*
X0080874Y0123648D01*
X0080793Y0123679D01*
X0080710Y0123707D01*
X0080627Y0123732D01*
X0080542Y0123753D01*
X0080456Y0123770D01*
X0080370Y0123783D01*
X0080283Y0123792D01*
X0080196Y0123798D01*
X0080109Y0123800D01*
X0067109Y0123800D01*
X0067022Y0123798D01*
X0066935Y0123792D01*
X0066848Y0123783D01*
X0066762Y0123770D01*
X0066676Y0123753D01*
X0066591Y0123732D01*
X0066508Y0123707D01*
X0066425Y0123679D01*
X0066344Y0123648D01*
X0066264Y0123613D01*
X0066186Y0123574D01*
X0066109Y0123532D01*
X0066034Y0123487D01*
X0065962Y0123438D01*
X0065891Y0123387D01*
X0065823Y0123332D01*
X0065758Y0123275D01*
X0065695Y0123214D01*
X0065634Y0123151D01*
X0065577Y0123086D01*
X0065522Y0123018D01*
X0065471Y0122947D01*
X0065422Y0122875D01*
X0065377Y0122800D01*
X0065335Y0122723D01*
X0065296Y0122645D01*
X0065261Y0122565D01*
X0065230Y0122484D01*
X0065202Y0122401D01*
X0065177Y0122318D01*
X0065156Y0122233D01*
X0065139Y0122147D01*
X0065126Y0122061D01*
X0065117Y0121974D01*
X0065111Y0121887D01*
X0065109Y0121800D01*
X0065109Y0116800D01*
X0065111Y0116713D01*
X0065117Y0116626D01*
X0065126Y0116539D01*
X0065139Y0116453D01*
X0065156Y0116367D01*
X0065177Y0116282D01*
X0065202Y0116199D01*
X0065230Y0116116D01*
X0065261Y0116035D01*
X0065296Y0115955D01*
X0065335Y0115877D01*
X0065377Y0115800D01*
X0065422Y0115725D01*
X0065471Y0115653D01*
X0065522Y0115582D01*
X0065577Y0115514D01*
X0065634Y0115449D01*
X0065695Y0115386D01*
X0065758Y0115325D01*
X0065823Y0115268D01*
X0065891Y0115213D01*
X0065962Y0115162D01*
X0066034Y0115113D01*
X0066109Y0115068D01*
X0066186Y0115026D01*
X0066264Y0114987D01*
X0066344Y0114952D01*
X0066425Y0114921D01*
X0066508Y0114893D01*
X0066591Y0114868D01*
X0066676Y0114847D01*
X0066762Y0114830D01*
X0066848Y0114817D01*
X0066935Y0114808D01*
X0067022Y0114802D01*
X0067109Y0114800D01*
X0080109Y0114800D01*
X0080196Y0114802D01*
X0080283Y0114808D01*
X0080370Y0114817D01*
X0080456Y0114830D01*
X0080542Y0114847D01*
X0080627Y0114868D01*
X0080710Y0114893D01*
X0080793Y0114921D01*
X0080874Y0114952D01*
X0080954Y0114987D01*
X0081032Y0115026D01*
X0081109Y0115068D01*
X0081184Y0115113D01*
X0081256Y0115162D01*
X0081327Y0115213D01*
X0081395Y0115268D01*
X0081460Y0115325D01*
X0081523Y0115386D01*
X0081584Y0115449D01*
X0081641Y0115514D01*
X0081696Y0115582D01*
X0081747Y0115653D01*
X0081796Y0115725D01*
X0081841Y0115800D01*
X0081883Y0115877D01*
X0081922Y0115955D01*
X0081957Y0116035D01*
X0081988Y0116116D01*
X0082016Y0116199D01*
X0082041Y0116282D01*
X0082062Y0116367D01*
X0082079Y0116453D01*
X0082092Y0116539D01*
X0082101Y0116626D01*
X0082107Y0116713D01*
X0082109Y0116800D01*
D11*
X0074809Y0116300D02*
X0074809Y0122300D01*
X0072309Y0122300D02*
X0072309Y0116300D01*
X0075609Y0071500D02*
X0081609Y0071500D01*
X0081609Y0069000D02*
X0075609Y0069000D01*
D12*
X0091859Y0108300D03*
X0113359Y0108300D03*
D13*
X0081617Y0098749D02*
X0081617Y0086938D01*
X0066854Y0086938D01*
X0066854Y0098749D01*
X0081617Y0098749D01*
D14*
X0049625Y0089788D02*
X0049625Y0082702D01*
X0049624Y0089788D02*
X0049536Y0089921D01*
X0049445Y0090052D01*
X0049351Y0090181D01*
X0049253Y0090308D01*
X0049153Y0090432D01*
X0049049Y0090553D01*
X0048943Y0090672D01*
X0048833Y0090789D01*
X0048721Y0090903D01*
X0048606Y0091014D01*
X0048489Y0091122D01*
X0048369Y0091227D01*
X0048246Y0091329D01*
X0048121Y0091428D01*
X0047993Y0091524D01*
X0047863Y0091617D01*
X0047731Y0091707D01*
X0047597Y0091794D01*
X0047461Y0091877D01*
X0047322Y0091957D01*
X0047182Y0092034D01*
X0047040Y0092107D01*
X0046897Y0092176D01*
X0046751Y0092242D01*
X0046604Y0092305D01*
X0046456Y0092364D01*
X0046306Y0092419D01*
X0046155Y0092471D01*
X0046002Y0092519D01*
X0045849Y0092563D01*
X0045694Y0092603D01*
X0045539Y0092640D01*
X0045383Y0092673D01*
X0045226Y0092702D01*
X0045068Y0092727D01*
X0044910Y0092748D01*
X0044751Y0092766D01*
X0044592Y0092779D01*
X0044432Y0092789D01*
X0044273Y0092795D01*
X0044113Y0092797D01*
X0043953Y0092795D01*
X0043794Y0092789D01*
X0043634Y0092779D01*
X0043475Y0092766D01*
X0043316Y0092748D01*
X0043158Y0092727D01*
X0043000Y0092702D01*
X0042843Y0092673D01*
X0042687Y0092640D01*
X0042532Y0092603D01*
X0042377Y0092563D01*
X0042224Y0092519D01*
X0042071Y0092471D01*
X0041920Y0092419D01*
X0041770Y0092364D01*
X0041622Y0092305D01*
X0041475Y0092242D01*
X0041329Y0092176D01*
X0041186Y0092107D01*
X0041044Y0092034D01*
X0040904Y0091957D01*
X0040765Y0091877D01*
X0040629Y0091794D01*
X0040495Y0091707D01*
X0040363Y0091617D01*
X0040233Y0091524D01*
X0040105Y0091428D01*
X0039980Y0091329D01*
X0039857Y0091227D01*
X0039737Y0091122D01*
X0039620Y0091014D01*
X0039505Y0090903D01*
X0039393Y0090789D01*
X0039283Y0090672D01*
X0039177Y0090553D01*
X0039073Y0090432D01*
X0038973Y0090308D01*
X0038875Y0090181D01*
X0038781Y0090052D01*
X0038690Y0089921D01*
X0038602Y0089788D01*
X0038995Y0090182D02*
X0036239Y0090182D01*
X0036239Y0082308D02*
X0038995Y0082308D01*
X0035846Y0077583D02*
X0035846Y0114591D01*
X0015373Y0114591D01*
X0015373Y0108292D01*
X0015281Y0108290D01*
X0015189Y0108284D01*
X0015098Y0108274D01*
X0015007Y0108261D01*
X0014917Y0108243D01*
X0014827Y0108222D01*
X0014739Y0108197D01*
X0014652Y0108168D01*
X0014566Y0108136D01*
X0014481Y0108100D01*
X0014398Y0108060D01*
X0014317Y0108017D01*
X0014238Y0107971D01*
X0014161Y0107921D01*
X0014086Y0107868D01*
X0014013Y0107811D01*
X0013943Y0107752D01*
X0013875Y0107690D01*
X0013810Y0107625D01*
X0013748Y0107557D01*
X0013689Y0107487D01*
X0013632Y0107414D01*
X0013579Y0107339D01*
X0013529Y0107262D01*
X0013483Y0107183D01*
X0013440Y0107102D01*
X0013400Y0107019D01*
X0013364Y0106934D01*
X0013332Y0106848D01*
X0013303Y0106761D01*
X0013278Y0106673D01*
X0013257Y0106583D01*
X0013239Y0106493D01*
X0013226Y0106402D01*
X0013216Y0106311D01*
X0013210Y0106219D01*
X0013208Y0106127D01*
X0013210Y0106035D01*
X0013216Y0105943D01*
X0013226Y0105852D01*
X0013239Y0105761D01*
X0013257Y0105671D01*
X0013278Y0105581D01*
X0013303Y0105493D01*
X0013332Y0105406D01*
X0013364Y0105320D01*
X0013400Y0105235D01*
X0013440Y0105152D01*
X0013483Y0105071D01*
X0013529Y0104992D01*
X0013579Y0104915D01*
X0013632Y0104840D01*
X0013689Y0104767D01*
X0013748Y0104697D01*
X0013810Y0104629D01*
X0013875Y0104564D01*
X0013943Y0104502D01*
X0014013Y0104443D01*
X0014086Y0104386D01*
X0014161Y0104333D01*
X0014238Y0104283D01*
X0014317Y0104237D01*
X0014398Y0104194D01*
X0014481Y0104154D01*
X0014566Y0104118D01*
X0014652Y0104086D01*
X0014739Y0104057D01*
X0014827Y0104032D01*
X0014917Y0104011D01*
X0015007Y0103993D01*
X0015098Y0103980D01*
X0015189Y0103970D01*
X0015281Y0103964D01*
X0015373Y0103962D01*
X0015373Y0103961D02*
X0015373Y0077583D01*
X0035846Y0077583D01*
X0038602Y0082702D02*
X0038690Y0082569D01*
X0038781Y0082438D01*
X0038875Y0082309D01*
X0038973Y0082182D01*
X0039073Y0082058D01*
X0039177Y0081937D01*
X0039283Y0081818D01*
X0039393Y0081701D01*
X0039505Y0081587D01*
X0039620Y0081476D01*
X0039737Y0081368D01*
X0039857Y0081263D01*
X0039980Y0081161D01*
X0040105Y0081062D01*
X0040233Y0080966D01*
X0040363Y0080873D01*
X0040495Y0080783D01*
X0040629Y0080696D01*
X0040765Y0080613D01*
X0040904Y0080533D01*
X0041044Y0080456D01*
X0041186Y0080383D01*
X0041329Y0080314D01*
X0041475Y0080248D01*
X0041622Y0080185D01*
X0041770Y0080126D01*
X0041920Y0080071D01*
X0042071Y0080019D01*
X0042224Y0079971D01*
X0042377Y0079927D01*
X0042532Y0079887D01*
X0042687Y0079850D01*
X0042843Y0079817D01*
X0043000Y0079788D01*
X0043158Y0079763D01*
X0043316Y0079742D01*
X0043475Y0079724D01*
X0043634Y0079711D01*
X0043794Y0079701D01*
X0043953Y0079695D01*
X0044113Y0079693D01*
X0044273Y0079695D01*
X0044432Y0079701D01*
X0044592Y0079711D01*
X0044751Y0079724D01*
X0044910Y0079742D01*
X0045068Y0079763D01*
X0045226Y0079788D01*
X0045383Y0079817D01*
X0045539Y0079850D01*
X0045694Y0079887D01*
X0045849Y0079927D01*
X0046002Y0079971D01*
X0046155Y0080019D01*
X0046306Y0080071D01*
X0046456Y0080126D01*
X0046604Y0080185D01*
X0046751Y0080248D01*
X0046897Y0080314D01*
X0047040Y0080383D01*
X0047182Y0080456D01*
X0047322Y0080533D01*
X0047461Y0080613D01*
X0047597Y0080696D01*
X0047731Y0080783D01*
X0047863Y0080873D01*
X0047993Y0080966D01*
X0048121Y0081062D01*
X0048246Y0081161D01*
X0048369Y0081263D01*
X0048489Y0081368D01*
X0048606Y0081476D01*
X0048721Y0081587D01*
X0048833Y0081701D01*
X0048943Y0081818D01*
X0049049Y0081937D01*
X0049153Y0082058D01*
X0049253Y0082182D01*
X0049351Y0082309D01*
X0049445Y0082438D01*
X0049536Y0082569D01*
X0049624Y0082702D01*
X0014980Y0082308D02*
X0012224Y0082308D01*
X0012617Y0089788D02*
X0012529Y0089921D01*
X0012438Y0090052D01*
X0012344Y0090181D01*
X0012246Y0090308D01*
X0012146Y0090432D01*
X0012042Y0090553D01*
X0011936Y0090672D01*
X0011826Y0090789D01*
X0011714Y0090903D01*
X0011599Y0091014D01*
X0011482Y0091122D01*
X0011362Y0091227D01*
X0011239Y0091329D01*
X0011114Y0091428D01*
X0010986Y0091524D01*
X0010856Y0091617D01*
X0010724Y0091707D01*
X0010590Y0091794D01*
X0010454Y0091877D01*
X0010315Y0091957D01*
X0010175Y0092034D01*
X0010033Y0092107D01*
X0009890Y0092176D01*
X0009744Y0092242D01*
X0009597Y0092305D01*
X0009449Y0092364D01*
X0009299Y0092419D01*
X0009148Y0092471D01*
X0008995Y0092519D01*
X0008842Y0092563D01*
X0008687Y0092603D01*
X0008532Y0092640D01*
X0008376Y0092673D01*
X0008219Y0092702D01*
X0008061Y0092727D01*
X0007903Y0092748D01*
X0007744Y0092766D01*
X0007585Y0092779D01*
X0007425Y0092789D01*
X0007266Y0092795D01*
X0007106Y0092797D01*
X0006946Y0092795D01*
X0006787Y0092789D01*
X0006627Y0092779D01*
X0006468Y0092766D01*
X0006309Y0092748D01*
X0006151Y0092727D01*
X0005993Y0092702D01*
X0005836Y0092673D01*
X0005680Y0092640D01*
X0005525Y0092603D01*
X0005370Y0092563D01*
X0005217Y0092519D01*
X0005064Y0092471D01*
X0004913Y0092419D01*
X0004763Y0092364D01*
X0004615Y0092305D01*
X0004468Y0092242D01*
X0004322Y0092176D01*
X0004179Y0092107D01*
X0004037Y0092034D01*
X0003897Y0091957D01*
X0003758Y0091877D01*
X0003622Y0091794D01*
X0003488Y0091707D01*
X0003356Y0091617D01*
X0003226Y0091524D01*
X0003098Y0091428D01*
X0002973Y0091329D01*
X0002850Y0091227D01*
X0002730Y0091122D01*
X0002613Y0091014D01*
X0002498Y0090903D01*
X0002386Y0090789D01*
X0002276Y0090672D01*
X0002170Y0090553D01*
X0002066Y0090432D01*
X0001966Y0090308D01*
X0001868Y0090181D01*
X0001774Y0090052D01*
X0001683Y0089921D01*
X0001595Y0089788D01*
X0001594Y0089788D02*
X0001594Y0082702D01*
X0001595Y0082702D02*
X0001683Y0082569D01*
X0001774Y0082438D01*
X0001868Y0082309D01*
X0001966Y0082182D01*
X0002066Y0082058D01*
X0002170Y0081937D01*
X0002276Y0081818D01*
X0002386Y0081701D01*
X0002498Y0081587D01*
X0002613Y0081476D01*
X0002730Y0081368D01*
X0002850Y0081263D01*
X0002973Y0081161D01*
X0003098Y0081062D01*
X0003226Y0080966D01*
X0003356Y0080873D01*
X0003488Y0080783D01*
X0003622Y0080696D01*
X0003758Y0080613D01*
X0003897Y0080533D01*
X0004037Y0080456D01*
X0004179Y0080383D01*
X0004322Y0080314D01*
X0004468Y0080248D01*
X0004615Y0080185D01*
X0004763Y0080126D01*
X0004913Y0080071D01*
X0005064Y0080019D01*
X0005217Y0079971D01*
X0005370Y0079927D01*
X0005525Y0079887D01*
X0005680Y0079850D01*
X0005836Y0079817D01*
X0005993Y0079788D01*
X0006151Y0079763D01*
X0006309Y0079742D01*
X0006468Y0079724D01*
X0006627Y0079711D01*
X0006787Y0079701D01*
X0006946Y0079695D01*
X0007106Y0079693D01*
X0007266Y0079695D01*
X0007425Y0079701D01*
X0007585Y0079711D01*
X0007744Y0079724D01*
X0007903Y0079742D01*
X0008061Y0079763D01*
X0008219Y0079788D01*
X0008376Y0079817D01*
X0008532Y0079850D01*
X0008687Y0079887D01*
X0008842Y0079927D01*
X0008995Y0079971D01*
X0009148Y0080019D01*
X0009299Y0080071D01*
X0009449Y0080126D01*
X0009597Y0080185D01*
X0009744Y0080248D01*
X0009890Y0080314D01*
X0010033Y0080383D01*
X0010175Y0080456D01*
X0010315Y0080533D01*
X0010454Y0080613D01*
X0010590Y0080696D01*
X0010724Y0080783D01*
X0010856Y0080873D01*
X0010986Y0080966D01*
X0011114Y0081062D01*
X0011239Y0081161D01*
X0011362Y0081263D01*
X0011482Y0081368D01*
X0011599Y0081476D01*
X0011714Y0081587D01*
X0011826Y0081701D01*
X0011936Y0081818D01*
X0012042Y0081937D01*
X0012146Y0082058D01*
X0012246Y0082182D01*
X0012344Y0082309D01*
X0012438Y0082438D01*
X0012529Y0082569D01*
X0012617Y0082702D01*
X0012224Y0090182D02*
X0014980Y0090182D01*
M02*
